<svg xmlns="http://www.w3.org/2000/svg" height="10in" viewBox="0 0 7777 10005" width="7.78in"><defs><style>.f1{font-family:Consolas,Courier New,monospace}.f2{font-family:Helvetica,Arial,sans-serif}.f3{font-family:Helvetica,Arial,sans-serif;font-weight:700}.f4{font-family:Times}.f5{font-family:Times;font-weight:700}.f6{font-family:Courier}.f7{font-family:Courier;font-weight:700}.f8{font-family:Symbol}.s5{fill:#fff}.s4{fill:none;stroke:#000;stroke-width:8}.s1{fill:#cff;stroke:#cff;stroke-width:8}.s7{fill:#000}.s10{fill:none;stroke:#000;stroke-dasharray:120,40;stroke-width:20}.s6{fill:none;stroke:#00f;stroke-width:20}.s9{fill:#000;stroke:#000;stroke-width:8}.s8{fill:none;stroke:#00f;stroke-width:12}.s2{fill:#ffc;stroke:#ffc;stroke-width:8}.s3{fill:none;stroke:#000;stroke-width:10.005}</style></defs><g><path class="s1" d="M2288 5931l56-863 1-39h-77l-236-218-6-757 2349 40 7 706-190 201 3334 893V2768H994V5146c44 56 88 112 132 167 82 101 167 2e2 258 293 154 158 324 299 5e2 431 106 80 215 157 324 234l13-189 59 8 11-80-3-79" fill-rule="evenodd"/></g><g><path class="s2" d="M2208 6271c186 16 372 33 558 36 241 5 482-12 723-9 268 2 536 28 804 17 178-7 356-31 534-47 2e2-19 4e2-30 602-28 303 4 611 37 907 43 240 4 472-9 736-37 137-15 284-34 363-125 51-58 74-146 91-227L4192 5001l188-199-2-703-2352-45 4 757 238 218h78l-1 37-57 865 3 79-8 80-62-8-13 189" fill-rule="evenodd"/></g><path class="s3" d="M5452 3515l2071-692"/><path class="s3" d="M987 5146c46 56 93 111 139 167 84 1e2 167 201 259 294 81 82 169 157 257 233 79 68 158 136 242 197 94 68 195 128 283 204 14 12 28 25 42 37"/><path class="s3" d="M1404 5217c72 85 145 168 223 247 84 83 175 161 263 241 50 45 99 92 153 134 39 32 80 61 120 90"/><path class="s3" d="M1624 5203c39 42 79 83 120 123 46 44 92 86 138 128 54 49 108 99 168 142 19 14 39 28 58 41"/><path class="s3" d="M1705 5122c29 30 58 61 87 91 47 49 94 97 144 143 42 39 87 77 133 113 24 19 48 38 73 56"/><path class="s3" d="M1764 5071c40 42 81 85 123 125 37 35 74 69 111 103 24 22 49 45 75 67 27 23 56 44 86 65"/><path class="s3" d="M1529 5358c6-5 12-10 16-16 4-7 5-16 4-23-1-7-6-13-8-20-2-5-4-10-2-15 1-7 6-12 11-18"/><path class="s3" d="M1550 5266l485-441"/><path class="s3" d="M1436 5253l584-458"/><path class="s3" d="M1826 5022c37 40 75 81 115 119 36 36 74 70 113 103 41 36 84 71 136 115"/><path class="s3" d="M1870 4979c35 36 70 73 106 109 32 33 64 65 98 95 40 35 82 67 125 99"/><path class="s3" d="M2657 5061l634 1214"/><path class="s3" d="M2735 5058l815 1217"/><path class="s3" d="M4253 6277 2940 5055"/><path class="s3" d="M3552 5038 6367 6275"/><path class="s3" d="M4388 4794l2645 372"/><path class="s3" d="M2266 5029h80l-58 902"/><path class="s3" d="M2054 5571v-36l111 2 2-19 83 2"/><path class="s3" d="M2416 5078l48 913"/><path class="s4" d="M2354 5992l1-146m0-233m1-269m1-278"/><path class="s3" d="M1898 4952c32 33 63 67 96 99 36 34 74 67 112 99 44 38 88 75 133 112"/><path class="s3" d="M2215 5177c-28-22-56-43-83-66-28-23-54-48-81-73-24-23-49-47-72-72-15-16-29-33-43-50"/><path class="s3" d="M2192 5914l7-67"/><path class="s3" d="M2217 5752l9-99"/><path class="s3" d="M2239 5610l8-66"/><path class="s3" d="M2252 5491l2-30"/><path class="s3" d="M2264 5401l2-29"/><path class="s3" d="M1601 3479l-4 1593h-80V3477h87"/><path class="s3" d="M1604 3577l72 5 2 1449-77-2"/><path class="s3" d="M1680 4974l63 2-3-1310h-63"/><path class="s3" d="M1743 3747h59l-2 1188-57-2"/><path class="s3" d="M18e2 4901h50l-1-1085-45-3"/><path class="s3" d="M1849 3860h37V4875h-36"/><path class="s3" d="M1889 4849h34V3913h-37"/><path class="s3" d="M1923 3949h28v881h-28"/><path class="s3" d="M1953 4810h27V4010h-27"/><path class="s3" d="M1980 4022h20v776h-19"/><path class="s3" d="M2001 4780h27"/><path class="s3" d="M2e3 4034h26v24"/><path class="s3" d="M1265 3193h144V5336H1270V3193"/><path class="s3" d="M5033 2771l-977 643"/><path class="s3" d="M5125 2773 4078 3444l-13 1-12-3-5-8v-10l9-10"/><path class="s3" d="M3884 3338l266 8"/><path class="s3" d="M1414 3289l74 2-4 1851h-73"/><path class="s3" d="M989 4806c45 57 90 115 135 173 27 36 55 71 84 105 4 5 8 10 12 15 4 5 9 11 16 13 5 3 11 3 15 2 9-3 14-12 20-22"/><path class="s3" d="M988 4675c39 54 78 109 114 164 11 16 21 31 30 47 1 2 2 4 3 5 3 3 6 6 10 8 8 4 18 5 27 5 34 1 66 1 99 1"/><path class="s3" d="M990 3204l275 10"/><path class="s3" d="M4435 4086l1 669"/><path class="s3" d="M4539 4067l2 7e2"/><path class="s3" d="M4583 4071l2 671-8 25h-36"/><path class="s3" d="M4658 4057v726h28l17-26V4060"/><path class="s3" d="M4673 4053v728"/><path class="s3" d="M4557 4070v698"/><path class="s3" d="M4436 4756h22l18-20"/><path class="s3" d="M4452 4756V4089"/><path class="s3" d="M4783 4036v760"/><path class="s3" d="M4802 4028v768"/><path class="s3" d="M4932 3993v819"/><path class="s3" d="M4952 4812V3988"/><path class="s3" d="M4985 3993v789"/><path class="s3" d="M5095 3956v876"/><path class="s3" d="M5118 4833V3951"/><path class="s3" d="M5149 3956v676"/><path class="s3" d="M5274 3917v933"/><path class="s3" d="M5298 4854V3915"/><path class="s3" d="M5336 3930v707"/><path class="s3" d="M5498 3887v988"/><path class="s3" d="M5523 4878V3876"/><path class="s3" d="M5564 3887v947"/><path class="s3" d="M5756 3820V4902"/><path class="s3" d="M5790 4906V3814"/><path class="s3" d="M5833 3831V4856"/><path class="s3" d="M6038 4934V3771"/><path class="s3" d="M6074 3768V4939"/><path class="s3" d="M6120 4899V3774"/><path class="s3" d="M6385 3704V4962"/><path class="s3" d="M6433 4968V3695"/><path class="s3" d="M6481 3736l-4 1206"/><path class="s3" d="M6804 5003V3580"/><path class="s3" d="M6863 3573V5005"/><path class="s3" d="M6916 4959V3606"/><path class="s3" d="M7326 3475V5073"/><path class="s3" d="M7401 5083l-4-1617"/><path class="s3" d="M7459 3491V5028"/><path class="s3" d="M7314 3850l-378 49"/><path class="s3" d="M6785 3918l-127 16"/><path class="s3" d="M6650 3720l135-25"/><path class="s3" d="M6936 3666l378-72"/><path class="s3" d="M6675 3709a119 95-93.71953417337768 1 0 26 224"/><path class="s3" d="M6647 3707l-154 28"/><path class="s3" d="M6374 3758l-243 46"/><path class="s3" d="M6027 3824l-175 32"/><path class="s3" d="M5737 3878l-154 29"/><path class="s3" d="M5478 3927l-123 23"/><path class="s3" d="M5255 3969l-86 16"/><path class="s3" d="M5084 4001l-62 15"/><path class="s3" d="M6665 3947l-165 21"/><path class="s3" d="M6374 3984l-243 30"/><path class="s3" d="M6027 4027l-175 22"/><path class="s3" d="M5737 4063l-154 20"/><path class="s3" d="M5478 4095l-123 16"/><path class="s3" d="M6785 4260l-139 6"/><path class="s3" d="M6646 4266c-13 1-26 2-39 5-32 6-63 20-93 32-6 2-11 4-16 7"/><path class="s3" d="M6374 4365c-13 5-26 11-39 15-18 7-36 12-54 14-22 3-44 2-65 2-28-1-56-1-85-2"/><path class="s3" d="M6131 4254c38 0 75 0 112-2 4-1 9-1 13-2 14-2 27-7 40-13 27-12 52-25 78-39"/><path class="s3" d="M6499 4141c10-5 20-10 30-14 19-7 39-12 60-16 65-12 131-15 196-17"/><path class="s3" d="M6959 3936l-3 374"/><path class="s3" d="M6959 3936l365-45"/><path class="s3" d="M6956 4310h368"/><path class="s3" d="M6027 4265l-121 5"/><path class="s3" d="M5908 4408l119-4"/><path class="s3" d="M5908 4269a69 55-91.38510789860013 0 0 2 139"/><path class="s3" d="M5845 4235a133 118 93.84437401892777 0 1 167 31"/><path class="s3" d="M6017 4403a133 118 93.84437401892777 0 1-172 48"/><path class="s3" d="M5668 4228a125 99-88.51504676157224 0 0 0 248"/><path class="s3" d="M5651 4231a125 99-88.51504676157224 0 0-68 20"/><path class="s3" d="M5565 4441a125 99-88.51504676157224 0 0 96 34"/><path class="s3" d="M5582 4460a125 99-88.51504676157224 0 0 79 15"/><path class="s3" d="M5432 4251a115 85-91.67062430858051 0 0 8 230"/><path class="s3" d="M5355 4319l-18 1"/><path class="s3" d="M5355 4424l-17 1"/><path class="s3" d="M5255 4429l-86 4"/><path class="s3" d="M5255 4323l-86 5"/><path class="s3" d="M5095 4433l-15 1"/><path class="s3" d="M5080 4434c-5 1-10 2-14 3-15 5-30 13-45 20-7 3-14 5-20 8-2 1-3 1-5 1"/><path class="s3" d="M4844 4476l76-3"/><path class="s3" d="M4844 4393l76-3"/><path class="s3" d="M4996 4374c4-1 6-2 7-3 4-2 7-6 11-9 5-6 11-11 18-14 7-3 15-4 24-4 13-1 26-2 38-4"/><path class="s3" d="M4988 4189l104-18"/><path class="s3" d="M4985 4190l107 7"/><path class="s3" d="M5169 4166l86 2"/><path class="s3" d="M5255 4113l-52-18-34-1"/><path class="s3" d="M5092 4104l-105 15"/><path class="s3" d="M5022 4016c-7 2-14 5-19 9-8 7-11 17-13 28-2 15-1 30 3 43 2 6 5 12 7 17"/><path class="s3" d="M6786 5135l-157 204-150 177-76 71"/><path class="s3" d="M6020 5029c-39 50-77 101-118 149-69 78-148 147-227 216"/><path class="s3" d="M5738 4986c-23 31-46 62-71 91-32 38-66 74-1e2 111-26 30-52 60-81 87-19 18-40 34-61 50"/><path class="s3" d="M5481 4949c-22 28-43 55-65 82-30 38-61 75-94 110-42 44-86 84-130 124"/><path class="s3" d="M5258 4917c-24 32-47 63-72 94-30 37-62 73-96 106-33 33-67 63-101 94"/><path class="s3" d="M5083 4895c-21 27-43 55-66 83-32 39-66 76-102 111-29 27-59 53-90 79"/><path class="s3" d="M4920 4871c-21 27-43 54-65 81-28 33-57 65-88 95-29 28-60 55-91 81"/><path class="s3" d="M6786 4263c-34 90-68 180-106 269-38 89-81 176-128 261-25 47-52 92-79 137"/><path class="s3" d="M6385 4962l48 6 44-26"/><path class="s3" d="M6413 4967v51"/><path class="s3" d="M4823 4855c-18 24-37 48-56 72-28 33-58 64-89 95-27 27-54 53-81 80"/><path class="s3" d="M4852 4861c-26 32-53 64-80 96-33 37-67 74-104 108-16 15-32 29-49 43"/><path class="s3" d="M4881 4865c-36 47-72 94-112 137-37 42-78 80-119 119"/><path class="s3" d="M4785 4852c-50 59-1e2 117-155 172-25 25-51 49-76 73"/><path class="s3" d="M4647 4832c-28 36-56 71-87 105-40 44-84 86-127 128"/><path class="s3" d="M4533 4819c-33 40-65 80-101 117-33 35-69 67-106 99"/><path class="s3" d="M6037 4443c-35 83-70 166-113 245-28 51-59 1e2-90 149"/><path class="s3" d="M6369 4370c-24 56-49 113-74 169-31 70-63 140-98 207-24 46-50 90-76 134"/><path class="s3" d="M6524 4303c-7 17-13 34-20 50-5 12-10 24-14 37"/><path class="s3" d="M5746 4480c-13 31-26 62-40 93-23 51-46 101-75 149-20 32-42 64-64 95"/><path class="s3" d="M5886 4050c-8 36-17 71-27 106-6 19-12 37-18 54"/><path class="s3" d="M5901 4209l-57 4"/><path class="s3" d="M5737 4222l-70 6"/><path class="s3" d="M5667 4478l70-1"/><path class="s3" d="M5844 4476h69"/><path class="s3" d="M5432 4250l46-4"/><path class="s3" d="M5583 4234l40-4"/><path class="s3" d="M5439 4481h39"/><path class="s3" d="M5583 4481h47"/><path class="s3" d="M6181 4006c-8 35-17 70-27 105-12 46-27 91-42 136"/><path class="s3" d="M3008 3289l118 5"/><path class="s3" d="M3237 3303l234 7"/><path class="s3" d="M2542 6185c-6-1-11-2-12-5-1-2-1-5 0-7 2-6 8-8 14-10 15-4 27-4 40-4 14 0 27 0 41 1 3 0 6 0 9 1 4 2 7 5 7 9 0 4-3 7-7 9-3 2-6 2-9 2"/><path class="s3" d="M2592 6087c-5-1-10-2-12-6-1-2 0-4 0-7 3-5 9-7 15-9 15-4 27-4 40-4 13 0 27-1 40 0 3 0 6 1 10 2 3 2 7 6 7 9 0 4-4 8-8 9-3 2-5 2-8 3"/><path class="s3" d="M2749 6167c-4-1-9-2-11-6-1-2 0-4 0-7 2-5 9-8 15-10 14-4 26-4 39-4 13 0 27 0 40 1 4 0 7 0 10 1 4 2 8 6 8 10 0 4-4 7-8 9-3 2-6 2-9 2"/><path class="s3" d="M2802 6090c-6-2-11-3-12-6-1-2-1-4 0-7 1-5 8-7 14-9 14-4 26-4 39-4 14 0 27 0 41 0 4 0 7 0 10 2 4 1 7 5 7 8 0 4-3 8-7 9-3 2-6 2-9 3"/><path class="s3" d="M2952 6207c-6-2-11-3-13-6-1-2 0-4 0-7 2-5 9-8 15-10 14-4 26-4 39-4 14 0 27 0 41 1 4 0 7 0 10 1 4 2 7 6 7 10 0 4-3 7-7 9-3 2-6 2-9 2"/><path class="s3" d="M2578 6276c-6-1-11-2-12-5-1-2 0-5 0-7 2-6 9-8 15-10 13-4 26-4 39-4 13 0 26 0 40 0 4 0 7 0 10 2 4 2 8 6 8 9 0 4-4 8-8 9-3 2-6 2-9 3"/><path class="s3" d="M2789 6254c-5-1-10-2-12-6-1-2 0-4 0-7 2-5 9-7 15-9 14-4 26-5 39-5 14 0 27 0 41 1 3 0 6 0 10 1 3 2 7 6 7 10 0 4-4 7-8 9-3 2-6 2-9 2"/><path class="s3" d="M3081 6274c-4-1-9-2-11-6-1-2-1-4 0-7 2-5 8-7 14-9 15-4 27-5 40-5 14 0 27 0 41 1 3 0 6 0 10 1 3 2 7 6 7 10 0 4-4 7-8 9-3 2-6 2-9 2"/><path class="s3" d="M2386 6124c-6 0-11-1-13-5-1-2 0-5 0-7 3-6 9-8 15-10 15-3 27-4 40-4 14 0 27 0 41 1 3 0 6 0 9 1 4 2 7 6 7 10 0 4-3 7-7 9-3 1-6 1-9 2"/><path class="s3" d="M3165 6201c-5-1-10-2-12-5-1-2 0-5 0-7 3-6 9-8 15-10 14-3 27-4 40-4 10 0 21 0 32 1"/><path class="s3" d="M3251 6197c-1 0-1 0-2 1"/><path class="s3" d="M3577 6164c-4 0-9-1-11-5-1-2 0-5 0-7 2-6 9-8 15-10 14-3 26-3 39-3 14 0 27-1 41 0 3 0 6 1 10 2 3 2 7 5 7 9 0 4-4 7-8 9-3 1-6 1-9 2"/><path class="s3" d="M3438 6035c-4-1-9-2-11-5-1-2-1-5 0-7 2-6 8-8 14-10 15-4 27-4 40-4 13 0 27 0 40 1 4 0 7 0 10 1 4 2 8 6 8 10 0 4-5 7-9 9-3 1-5 1-8 1"/><path class="s3" d="M3594 6083c-6-2-11-3-12-6-1-2-1-4 0-7 2-5 8-7 14-9 15-4 27-4 40-4 14 0 27 0 41 0 3 0 6 0 9 2 4 1 7 5 7 9 0 4-3 7-7 9-3 2-6 2-9 2"/><path class="s3" d="M3914 6093c-6-2-11-3-13-6-1-2 0-4 0-7 2-5 9-7 15-9 14-4 26-4 39-4 14 0 27 0 41 0 4 0 7 0 10 2 4 1 7 5 7 9 0 4-3 7-7 9-3 2-6 2-9 2"/><path class="s3" d="M3837 6021c-5-1-10-2-12-6-1-2 0-4 0-7 2-5 9-8 15-10 14-4 26-4 39-4 14 0 27 0 41 1 3 0 6 0 10 1 3 2 7 6 7 10 0 4-4 7-8 9-3 2-5 2-9 2"/><path class="s3" d="M4043 62e2c-4-1-9-2-11-6-1-2-1-4 0-7 2-5 8-7 14-9 15-4 27-4 40-4 14 0 27 0 41 0 3 0 6 0 10 2 3 1 7 5 7 9 0 4-4 7-8 9-3 2-6 2-9 2"/><path class="s3" d="M3672 6264c-5 0-10-1-11-5-1-2 0-5 0-7 2-6 9-8 15-10 13-4 26-4 39-4 13 0 26 0 40 1 4 0 7 0 10 1 4 2 8 6 8 10 0 4-4 7-8 9-3 1-6 1-9 1"/><path class="s4" d="M3747 6144l93 101 182-11-88-97z"/><ellipse class="s4" cx="4526" cy="6190" rx="86" ry="27" transform="rotate(0.0 4526.0,6190.0)"/><path class="s3" d="M4263 6117c-4-1-9-2-11-6-1-2-1-4 0-7 2-5 8-7 14-9 15-4 27-4 40-4 13 0 27-1 40 0 4 0 7 1 10 2 4 2 8 6 8 9 0 4-5 8-9 9-3 2-5 2-8 3"/><path class="s3" d="M4291 6014c-5 0-10-1-11-5-1-2 0-5 0-7 2-6 9-8 15-10 13-3 26-4 39-4 13 0 26 0 40 1 4 0 7 0 10 1 4 2 8 6 8 10 0 4-4 7-8 9-3 2-6 2-9 2"/><path class="s3" d="M4164 5967c-5-1-10-2-12-5-1-2 0-4 0-7 2-5 9-8 15-10 14-4 26-4 39-4 14 0 27 0 41 1 3 0 6 0 10 1 3 2 7 6 7 10 0 4-4 7-8 9-3 2-6 2-8 2"/><path class="s3" d="M4597 6140c-4 0-9-1-10-5-1-1-1-4 0-6 1-5 7-7 12-9 13-3 24-3 36-3 12 0 25 0 37 1 3 0 6 0 9 1 3 2 6 5 6 8 0 4-3 7-7 9-3 1-5 1-7 1"/><path class="s3" d="M4766 6185c-4-1-8-2-9-5-1-1-1-4 0-6 1-5 7-7 12-9 13-3 24-4 36-4 12 0 24 0 36 1 3 0 6 0 9 1 4 2 7 5 7 9-1 3-4 6-8 8-3 1-5 1-7 1"/><path class="s3" d="M4427 6107c-5 0-10-1-11-5-1-2-1-5 0-7 2-6 8-8 14-10 15-3 27-4 40-4 13 0 27 0 40 1 3 0 6 0 10 1 3 2 7 6 7 10 0 4-4 7-8 9-3 2-6 2-8 2"/><path class="s3" d="M4642 6039c-5-1-10-2-11-5-1-1 0-4 0-6 2-5 8-7 13-9 13-3 24-4 36-4 11 0 24 0 36 1 3 0 6 0 9 1 4 2 7 5 7 9 0 3-4 6-8 8-2 1-5 1-7 2"/><path class="s3" d="M4819 6084c-5 0-10-1-11-5-1-1 0-4 0-6 2-5 8-7 13-9 13-3 24-3 36-3 11 0 24-1 36 0 3 0 6 1 9 2 3 2 6 5 6 8 0 3-3 7-7 8-3 1-5 1-7 2"/><path class="s3" d="M4829 5968c-5-1-10-2-11-5-1-1 0-4 0-6 2-5 8-7 13-9 13-3 24-4 36-4 11 0 24 0 36 1 3 0 6 0 9 1 3 2 6 5 6 9 0 3-3 7-7 8-3 1-5 1-7 1"/><path class="s3" d="M4656 5946c-4-1-9-2-10-5-1-1-1-4 0-6 1-5 7-7 12-9 13-3 24-3 36-3 12 0 25-1 37 0 3 0 6 0 8 1 4 2 7 5 7 9-1 3-4 6-8 8-2 1-4 1-7 2"/><path class="s3" d="M5172 6180c-5-1-10-2-11-6-1-1 0-4 0-6 2-5 8-7 13-8 13-3 24-4 36-4 11 0 24 0 36 1 3 0 6 0 9 1 3 2 6 5 6 9 0 3-3 6-7 8-3 1-5 1-7 2"/><path class="s3" d="M4992 6114c-4-1-9-2-10-5-1-1 0-4 0-6 2-5 8-7 13-9 12-4 23-4 35-4 12 0 25 0 37 1 3 0 6 0 8 1 4 2 7 5 7 9 0 3-4 7-7 8-3 1-5 1-7 1"/><path class="s3" d="M4617 6268c-4-1-9-2-11-5-1-2 0-5 0-7 2-6 9-8 15-10 13-3 26-3 39-3 13 0 26-1 40 0 4 0 7 1 10 2 4 2 8 5 8 9 0 4-4 7-8 9-3 1-6 1-9 2"/><path class="s3" d="M5129 6070c-4-1-8-2-9-6-1-1-1-4 0-6 1-5 7-7 12-8 13-3 24-3 36-3 12 0 24 0 36 0 3 0 6 0 9 1 4 2 7 5 7 9-1 3-4 7-8 8-3 2-5 2-7 2"/><path class="s3" d="M5422 6137c-4 0-9-1-10-5-1-1-1-4 0-6 1-5 7-7 12-9 13-3 24-3 36-3 12 0 25 0 37 1 3 0 6 0 8 1 4 2 7 5 7 8 0 4-4 7-7 9-3 1-5 1-8 1"/><path class="s3" d="M5313 5993c-5-1-9-2-10-5-1-1-1-4 0-6 1-5 7-7 12-9 13-3 24-3 36-3 12 0 24 0 36 1 3 0 6 0 9 1 4 2 7 5 7 9 0 3-4 6-7 8-3 1-5 1-8 1"/><path class="s3" d="M5456 6037c-5-2-9-3-10-6-1-1-1-4 0-6 1-5 7-7 12-8 13-3 24-4 36-4 12 0 24 0 36 1 3 0 6 0 10 1 3 2 6 5 6 9 0 3-3 6-7 8-3 1-5 1-8 1"/><path class="s3" d="M5365 5915c-5-1-10-1-11-4-1-1 0-4 0-6 2-5 8-7 13-9 13-4 24-4 36-4 11 0 24 0 36 1 3 0 6 0 9 1 3 2 6 5 6 9 0 3-3 6-7 8-3 1-5 1-7 1"/><path class="s3" d="M5045 5934c-4-1-9-2-10-6-1-1 0-4 0-6 2-5 8-7 13-8 12-3 23-3 35-3 12 0 25 0 37 0 3 0 6 0 9 1 3 2 6 5 6 9 0 3-3 7-7 8-3 2-5 2-7 2"/><path class="s3" d="M5515 5975c-4-1-8-1-9-4-1-1-1-4 0-6 1-5 7-7 12-9 12-3 23-3 34-3 11 0 23 0 35 1 3 0 6 0 9 1 3 2 6 5 6 8 0 3-3 6-7 8-2 1-4 1-7 1"/><path class="s3" d="M5645 6036c-4-1-8-2-9-5-1-1-1-4 0-6 1-5 7-7 12-8 12-3 23-4 34-4 11 0 23 0 35 1 3 0 6 0 9 1 3 2 6 5 6 8 0 3-3 6-7 8-2 1-4 1-7 2"/><path class="s3" d="M5781 6096c-5-1-10-2-11-5-1-1 0-4 0-6 2-5 8-7 13-8 12-3 23-3 34-3 12 0 24 0 35 0 3 0 6 0 9 1 3 2 6 5 6 9 0 3-3 6-7 8-3 1-5 1-7 1"/><path class="s3" d="M5911 6154c-4 0-8-1-9-4-1-2-1-4 0-6 1-5 7-7 12-9 12-3 23-4 34-4 12 0 24 0 36 1 3 0 6 0 8 1 4 2 7 5 7 8-1 3-4 7-8 8-2 1-4 1-7 2"/><ellipse class="s4" cx="5614" cy="6108" rx="88" ry="27" transform="rotate(3.369183030500572 5614.0,6108.0)"/><path class="s3" d="M6012 5987l208 89"/><path class="s3" d="M6195 5980l207 78-182 18"/><path class="s3" d="M6012 5987l183-7"/><path class="s3" d="M5989 5903a45 12 0 1 1 81-5"/><path class="s3" d="M5953 5948a45 12 0 1 1 81-5"/><path class="s3" d="M5816 5958a45 12 0 1 1 81-5"/><path class="s3" d="M5924 6e3a45 12 0 1 1 81-5"/><path class="s3" d="M5897 5862a45 12 0 1 1 81-5"/><path class="s3" d="M6112 5936a45 12 0 1 1 81-5"/><path class="s3" d="M6260 5983a45 12 0 1 1 81-5"/><path class="s3" d="M6401 6031a45 12 0 1 1 81-5"/><path class="s3" d="M6433 6107a45 12 0 1 1 81-5"/><path class="s3" d="M6298 6146a45 12 0 1 1 81-5"/><path class="s3" d="M6434 6179a45 12 0 1 1 81-5"/><path class="s3" d="M6632 6141a45 12 0 1 1 81-5"/><path class="s3" d="M6559 6080a45 12 0 1 1 81-5"/><path class="s4" d="M4991 6167l36 28 119-7-41-27z"/><path class="s4" d="M5268 6149l44 27 112-5-50-25z"/><path class="s4" d="M6481 6210l119 60 373-33-149-57z"/><path class="s3" d="M4744 3645h4"/><path class="s3" d="M3196 3471l127 9"/><path class="s3" d="M3094 3110c47 2 95 5 144 8"/><path class="s3" d="M3357 3125c86 6 172 11 258 16"/><path class="s3" d="M2649 4020c10 0 18 0 26 0"/><path class="s3" d="M2729 4021c36 1 73 2 110 3"/><path class="s3" d="M2839 4024h12"/><path class="s3" d="M2668 3982l31 1"/><path class="s3" d="M2755 3983l132 2"/><path class="s3" d="M2822 3567c76 3 104 4 219 9"/><path class="s3" d="M3041 3576c64 3 127 5 191 8"/><path class="s3" d="M3232 3584l24 1"/><path class="s3" d="M2830 3650c25 1 49 2 74 3"/><path class="s3" d="M2985 3656c56 3 112 5 168 8"/><path class="s3" d="M3153 3664l30 1"/><path class="s3" d="M2790 3732c22 1 42 1 64 2"/><path class="s3" d="M2929 3736c56 1 112 3 168 5"/><path class="s3" d="M3097 3741l14 1"/><path class="s3" d="M2761 3790c19 1 38 2 56 2"/><path class="s3" d="M2888 3794c50 2 1e2 3 150 5"/><path class="s3" d="M3038 3799l20 1"/><path class="s3" d="M2738 3839c16 1 33 1 49 1"/><path class="s3" d="M2855 3842c47 2 94 3 142 5"/><path class="s3" d="M2997 3847h18"/><path class="s3" d="M2715 3885c14 1 29 1 44 2"/><path class="s3" d="M2822 3888c45 1 90 2 134 4"/><path class="s3" d="M2956 3892l16 1"/><path class="s3" d="M2698 3921c12 1 25 1 38 2"/><path class="s3" d="M2797 3924c43 1 85 2 128 3"/><path class="s3" d="M2925 3927l15 1"/><path class="s3" d="M2682 3953c12 0 23 0 35 0"/><path class="s3" d="M2775 3955c41 1 82 2 122 3"/><path class="s3" d="M2897 3958h15"/><path class="s3" d="M2923 3459c33 2 66 3 99 5"/><path class="s3" d="M3117 3467c26 2 53 3 79 4"/><path class="s3" d="M5112 3657l521 17"/><path class="s3" d="M5633 3674c24 0 48 1 71 5 50 8 98 30 148 44 76 20 155 21 235 21"/><path class="s3" d="M6087 3744l275 10"/><path class="s4" d="M3273 6118V6012l91-2-1 84 6 16 8 20 2 25-1 12h-17l-20-32-36-1 7 23-3 10h-12z"/><path class="s4" d="M3178 5946v-96h82l5 91 1 8 16 34 2 15h-79z"/><path class="s3" d="M32e2 5943h47"/><path class="s3" d="M3141 5886v-91h81v53"/><path class="s3" d="M3141 5886l27 47"/><path class="s3" d="M3163 5921v-13l6-7"/><path class="s3" d="M6956 4310l-1 26 288 140 49-146"/><path class="s3" d="M7185 4451c-29 73-59 147-93 219-45 99-97 195-149 291"/><path class="s3" d="M6038 4934l36 5 46-40"/><path class="s3" d="M5756 4902l34 4 43-50"/><path class="s3" d="M5498 4875l25 3 41-44"/><path class="s3" d="M5274 4850l24 4 38-41"/><path class="s3" d="M5095 4832l23 1 31-36"/><path class="s3" d="M4932 4812h20l33-30"/><path class="s3" d="M4783 4796h19l30-30"/><path class="s3" d="M6467 4947v35l-10 17-14 23"/><path class="s3" d="M6804 5003l59 2 53-46"/><path class="s3" d="M6820 5006c0 20 0 40 0 60"/><path class="s3" d="M6898 4976l-2 53-10 20-21 27"/><path class="s3" d="M6047 4935v40"/><path class="s3" d="M6107 4911v34l-3 13-9 9-13 12"/><path class="s3" d="M5763 4905l-1 35"/><path class="s3" d="M5823 4869l1 35-4 17-7 12-9 12"/><path class="s3" d="M5505 4877v31"/><path class="s3" d="M5556 4844v25l-5 16-5 7-15 20"/><path class="s3" d="M5279 4852v28"/><path class="s3" d="M5328 4822v33l-3 13-3 7-7 9"/><path class="s3" d="M5101 4832v25"/><path class="s3" d="M4939 4812v25"/><path class="s3" d="M4976 4790v19l-3 13-4 7-8 12"/><path class="s3" d="M5142 4808v28l-4 10-4 6-7 8"/><path class="s3" d="M4788 4796v22"/><path class="s3" d="M4662 4783v22"/><path class="s3" d="M4546 4768v21"/><path class="s3" d="M4439 4756v23"/><path class="s3" d="M4470 4745l1 13-2 8-3 5-4 7"/><path class="s3" d="M4583 4752v20l-3 9"/><path class="s3" d="M4580 4781l-7 11"/><path class="s3" d="M4699 4766v21l-3 10-4 7-3 5"/><path class="s3" d="M4827 4775v24l-4 11-8 12"/><path class="s4" d="M3727 3159l139 6 14 3 7 7-1 9-29 30-6 3-9 1h-15l-140-5-7-5-2-4 2-9 11-16 12-14 8-6z"/><path class="s3" d="M3439 3493v24"/><path class="s3" d="M3536 3491l-2 29"/><path class="s3" d="M3439 3517l19-3 29-3 26 1 21 8"/><path class="s3" d="M3453 3521l26 4 22 1 18-2"/><path class="s3" d="M3391 3499a96 25 0 1 1 182 4"/><path class="s3" d="M3091 5799v-16h84v10"/><path class="s3" d="M3049 5731v-29h76l3 32"/><path class="s3" d="M3032 5708v-29h76l3 32"/><path class="s3" d="M3022 5670l-2-85h65v87"/><path class="s3" d="M2957 5567v-18h74l1 35"/><path class="s3" d="M2983 5609v-15l37-1"/><path class="s3" d="M3058 5734l9 14-15 3v17h130v-20H3067"/><path class="s3" d="M3128 5734l13 11"/><path class="s4" d="M2918 5518l107-2-2-16-103 2z"/><path class="s3" d="M2915 5492l-1-18h71l1 21"/><path class="s3" d="M2902 5465v-23h63v28"/><path class="s3" d="M2891 5435v-62h57v67"/><path class="s3" d="M2878 5411v-63h52v25"/><path class="s3" d="M2832 5338v-20h53v21"/><path class="s3" d="M2821 5318v-19h50v18"/><path class="s3" d="M2809 5296v-14h51v17"/><path class="s3" d="M2799 5276v-12h49v19"/><path class="s3" d="M2787 5251v-47h47v46l7 12"/><path class="s3" d="M2789 5250l7 13"/><path class="s3" d="M2764 5224v-22h23"/><path class="s3" d="M2758 52e2v-47h43v51"/><path class="s3" d="M2754 5142h36v11"/><path class="s3" d="M2753 5142v46"/><path class="s3" d="M3732 5774v-20h74"/><path class="s3" d="M3672 5718v-18h80"/><path class="s3" d="M3621 5675v-20h74v39"/><path class="s3" d="M3751 57e2v50"/><path class="s3" d="M3585 5636v-79h70v74l17 20"/><path class="s3" d="M3587 5640l25 28"/><path class="s3" d="M3603 5636l40-1"/><path class="s3" d="M3526 5585l1-14h55"/><path class="s3" d="M3487 5547v-14h66v35"/><path class="s3" d="M3446 5509v-12h66v35"/><path class="s3" d="M3411 5480v-15h63v32"/><path class="s3" d="M3376 5445v-10h64v27"/><path class="s3" d="M3880 59e2v-86h73v77l40 46"/><path class="s3" d="M3880 59e2l44 51 26 24 17 6 21 3"/><path class="s3" d="M3908 5897l32-2"/><path class="s3" d="M3816 5844l-2-84h73v54"/><path class="s3" d="M3816 5844l29 33"/><path class="s3" d="M3849 5883v-16h30"/><path class="s3" d="M3355 5419v-61h52v59l10 16"/><path class="s3" d="M3355 5419l20 22"/><path class="s3" d="M3328 5398v-62h46v21"/><path class="s3" d="M3285 5362v-12h43"/><path class="s3" d="M3257 5336v-11h53v23"/><path class="s3" d="M3229 5311v-11h50v25"/><path class="s3" d="M3205 5288v-12h51v25"/><path class="s3" d="M3186 5272v-12h49v16"/><path class="s3" d="M3165 5252v-59h40v46l18 19"/><path class="s3" d="M3165 5252l19 13"/><path class="s3" d="M3178 5244h19"/><path class="s3" d="M3133 5222v-14h34"/><path class="s3" d="M3116 5208v-14h42v18"/><path class="s3" d="M3105 5188v-43h33v47"/><path class="s3" d="M3087 5172v-40h38v13"/><path class="s3" d="M3063 5156v-10h24"/><path class="s3" d="M3046 5136v-45h29v44l12 11"/><path class="s3" d="M3048 5139l15 16v-12h22"/><path class="s3" d="M45e2 5852v-14h86v54h-32"/><path class="s3" d="M4313 5736v-11h84v47h-30"/><path class="s3" d="M4227 5684v-16h74v46h-31"/><path class="s3" d="M4141 5629v-17h76v52h-25"/><path class="s3" d="M4067 5583v-16h73v44h-37"/><path class="s3" d="M4e3 5541v-13h63v42h-20"/><path class="s3" d="M3944 5498h68v29"/><path class="s3" d="M3899 5468h68v29"/><path class="s3" d="M3858 5442h62v26"/><path class="s3" d="M3817 5417h57v24"/><path class="s3" d="M4105 5479h64v36"/><path class="s3" d="M4169 5515h61v33h-18"/><path class="s3" d="M4236 5563v-14h64v46h-14"/><path class="s3" d="M4316 5608v-16h73v50h-19"/><path class="s3" d="M4506 5699h73v50h-13"/><path class="s3" d="M4717 5804h59v40"/><path class="s3" d="M3957 5401h67v25"/><path class="s3" d="M4023 5432h109v29h-32v37l31 17 13 16v13l-6 10-18 3"/><path class="s3" d="M4043 5509l14-11-1-37h-33v-29"/><path class="s3" d="M4055 5516h72"/><path class="s3" d="M3787 5406v-56h53v67"/><path class="s3" d="M3748 5380v-52h49v20"/><path class="s3" d="M3885 5356h99v25h-27v37"/><path class="s3" d="M3885 5356v25h32v41"/><path class="s3" d="M3957 5418l17 13 13 14v13l-9 13"/><path class="s3" d="M3929 5435h34"/><path class="s3" d="M3695 5341h54"/><path class="s3" d="M3648 5317h64v24"/><path class="s3" d="M3614 5298h57v21"/><path class="s3" d="M3580 5273h60v25"/><path class="s3" d="M3537 5251h64v22"/><path class="s3" d="M3519 5231h51v20"/><path class="s3" d="M3484 5215h55v17"/><path class="s3" d="M3460 5201h49v14"/><path class="s3" d="M3439 5185h45v15"/><path class="s3" d="M3017 5116v-11h27"/><path class="s3" d="M3004 5101v-11h33"/><path class="s3" d="M2988 5090v-11h37"/><path class="s3" d="M2978 5075v-11h29"/><path class="s3" d="M2718 5132v-39h43v43"/><path class="s3" d="M2679 5061v-39h40v39"/><path class="s3" d="M2950 5054v-37h42v38"/><path class="s3" d="M3428 5184v-49h36v49"/><path class="s3" d="M3408 5172v-46h35v10"/><path class="s3" d="M3375 5152v-12h29"/><path class="s3" d="M3348 5136v-12h41v14"/><path class="s3" d="M3326 5119v-7h41v12"/><path class="s3" d="M3308 5106v-7h36v13"/><path class="s3" d="M3283 5096v-9h37v12"/><path class="s3" d="M4668 5867l38-5"/><path class="s3" d="M4409 5647l132-3 4 8 1 9-1 10-3 8-34 2-2 47"/><path class="s3" d="M4406 5682l41-1-1 49"/><path class="s3" d="M4442 5812v-80h73v79l25 25"/><path class="s3" d="M4442 5812l50 36"/><path class="s3" d="M4469 5811l34 2"/><path class="s3" d="M3759 5289l91-1 1 18h-24v42"/><path class="s3" d="M3759 5289l2 23 25-3v19"/><path class="s3" d="M3650 5233l84-6 3 20h-23l1 31 19 10 10 12 2 12-14 14"/><path class="s3" d="M3650 5233v19h24v31l-8 3 66 40"/><path class="s3" d="M3691 5286h18"/><path class="s3" d="M3737 5246l78 42"/><path class="s3" d="M3849 5306l91 50"/><path class="s3" d="M3984 5380l98 52"/><path class="s3" d="M3825 5329h62v26"/><path class="s3" d="M3713 5270h63v18"/><path class="s3" d="M3606 5212h59v18"/><path class="s3" d="M3574 5194h55v14"/><path class="s3" d="M3552 5178h50v16"/><path class="s3" d="M4132 5459l345 186"/><path class="s3" d="M4536 5678l147 79"/><path class="s3" d="M4739 5786l158 85"/><path class="s3" d="M3655 5621l161 139"/><path class="s3" d="M3407 5406l178 154"/><path class="s3" d="M2999 5053l47 41"/><path class="s3" d="M3075 5119l15 13"/><path class="s3" d="M3138 5173l27 23"/><path class="s3" d="M3205 5232l123 106"/><path class="s3" d="M4103 5491l303 175"/><path class="s3" d="M4509 5718l104 62"/><path class="s3" d="M3957 5408l65 40"/><path class="s3" d="M3827 5335l58 35"/><path class="s3" d="M3716 5272l44 29"/><path class="s3" d="M3548 5182l99 59"/><path class="s4" d="M3487 5136l77 2v18h-20l2 29 22 15 3 13-7 10-60-28 7-7v-30l-23-2z"/><path class="s3" d="M3408 5101l82-2 6 20h-22v25l11 8"/><path class="s3" d="M3488 5182l10-7v-16"/><path class="s3" d="M3464 5172l283 163"/><path class="s3" d="M3385 5084h40v11"/><path class="s3" d="M3398 5095h49v7"/><path class="s3" d="M3410 5099l1 19h22v8"/><path class="s4" d="M3308 5039l63 2 2 14h-18l3 24 18 13 2 11-7 9-48-24 6-6v-25l-19-2z"/><path class="s4" d="M3266 5012l55 2 2 13h-15l1 21 16 11 2 10-6 7-43-21 6-4v-23l-17-1z"/><path class="s3" d="M4714 4403l58-2"/><path class="s3" d="M4714 4486l58-3"/><path class="s3" d="M4596 4489l50-1"/><path class="s3" d="M4487 4489h42"/><path class="s3" d="M4488 4416l40-1"/><path class="s3" d="M4596 4412l50-3"/><path class="s3" d="M4920 4170l-23 30-15 20-12 13-26 9"/><path class="s3" d="M4920 4340l-8 7-22 16-26 6-20 1"/><path class="s3" d="M4714 4261l58-8"/><path class="s3" d="M4517 4280c-11 5-23 10-30 19-7 10-9 24-9 38-1 15-2 29 6 41 5 8 15 15 25 18 6 2 13 3 19 3"/><path class="s3" d="M4517 4280l11-3"/><path class="s3" d="M4596 4270l50-2"/><path class="s3" d="M4596 4393l50-4"/><path class="s3" d="M4714 4383l58-6"/><path class="s3" d="M4489 4126l24-8 14-4"/><path class="s3" d="M4595 4103l51-11"/><path class="s3" d="M4704 4084l32-7"/><path class="s3" d="M4488 4223l40-7"/><path class="s3" d="M4595 4203l51-11"/><path class="s3" d="M4703 4187l49-7"/><path class="s3" d="M5838 4565c10-27 20-55 30-82"/><path class="s3" d="M4988 4772c18-24 36-48 53-73 19-28 36-57 53-86"/><path class="s3" d="M5180 4433c-5 12-10 23-15 35-5 9-10 19-15 28"/><path class="s3" d="M5335 4516c9-16 17-32 25-49 4-9 8-18 12-27"/><path class="s3" d="M5428 4251c11-32 22-64 32-97 5-19 10-38 15-57"/><path class="s3" d="M5659 4077c-6 26-12 53-20 79-7 26-16 52-24 77"/><path class="s3" d="M5574 4576c9-17 19-35 27-53 5-11 10-23 15-34"/><path class="s3" d="M5675 3687c-495 135-990 269-1485 403"/><path class="s3" d="M5542 3682 4116 4086"/><path class="s3" d="M5425 3679 4081 4080"/><path class="s3" d="M5276 3674 4003 4086"/><path class="s3" d="M5165 3670 3959 4076"/><path class="s3" d="M3061 4077l855-567"/><path class="s3" d="M3963 3510l-898 577"/><path class="s3" d="M3429 4035l824-399"/><path class="s3" d="M3459 4037l841-4e2"/><path class="s3" d="M4336 3639l-838 381"/><path class="s3" d="M4378 3641l-873 394"/><path class="s3" d="M3431 4035c82 2 165 5 248 8"/><path class="s3" d="M3571 4006l229 5"/><path class="s3" d="M4231 3707l363 16"/><path class="s3" d="M4067 3781l326 15"/><path class="s3" d="M3946 3837l3e2 12"/><path class="s3" d="M3834 3887l277 11"/><path class="s3" d="M3734 3932l255 11"/><path class="s3" d="M3644 3973l236 10"/><path class="s3" d="M4782 4636c-10 17-20 35-31 53-14 23-29 46-44 68"/><path class="s3" d="M4651 4648c-12 23-25 46-38 68-8 13-16 25-24 38"/><path class="s3" d="M4629 4609c-7 16-14 31-24 46-4 6-9 13-15 19"/><path class="s3" d="M4750 4603c-5 16-11 31-18 46-6 11-13 22-19 33"/><path class="s3" d="M4653 4773c-4 7-8 13-12 19"/><path class="s3" d="M5260 4799c-12 23-23 45-41 61"/><path class="s3" d="M6027 36e2c29 4 58 9 86 17 32 9 64 21 96 30 44 12 90 18 135 20"/><path class="s3" d="M6344 3667l440 15"/><path class="s3" d="M6487 3481c41 15 83 31 125 42 57 14 116 19 174 24"/><path class="s3" d="M6786 3547l524 20"/><path class="s3" d="M5456 3762c28 3 55 7 82 13 30 6 60 15 91 21 30 5 62 8 94 8"/><path class="s3" d="M5723 3804l3e2 8"/><path class="s3" d="M5242 3822c13 2 26 4 39 6 35 7 69 19 104 25 28 5 57 6 87 7"/><path class="s3" d="M5472 3860l272 11"/><path class="s3" d="M5064 3884c12 0 24 0 36 1 21 3 40 9 61 14 29 6 60 8 90 8"/><path class="s3" d="M5251 3907l234 10"/><path class="s3" d="M5719 3694 4213 41e2"/><path class="s3" d="M4890 3917c12 0 24 0 36 3 20 4 38 15 56 20 23 7 47 7 72 7"/><path class="s3" d="M5054 3947l210 6"/><path class="s3" d="M4742 3961c15-1 29-1 42 2 11 3 21 8 32 12 15 4 30 5 45 6"/><path class="s3" d="M4861 3981l222 6"/><path class="s3" d="M4620 3993c9 0 19 0 28 2 13 3 24 9 36 12 18 5 37 6 55 6"/><path class="s3" d="M4739 4013l188 7"/><path class="s3" d="M4310 4080c7 0 14-1 21 0 7 1 15 5 22 7 10 3 20 3 31 3"/><path class="s3" d="M4384 4090l48 2"/><path class="s3" d="M4403 4053c13 0 25 0 36 3 15 2 30 8 46 10 9 1 18 1 27 1"/><path class="s3" d="M4512 4067l142 3"/><path class="s3" d="M4502 4026c11-1 22-2 33 0 11 2 22 7 32 10 16 4 32 4 49 4"/><path class="s3" d="M4616 4040l163 2"/><path class="s3" d="M5619 3724c17-1 34-2 51 0 30 3 58 17 87 26 56 18 115 20 174 23"/><path class="s3" d="M5931 3773l101 4"/><path class="s3" d="M3495 5115l41 23"/><path class="s3" d="M3564 5153l141 76"/><path class="s3" d="M5669 5960v-73l-14-5-2-19 26 1 69-1 1 81 29 17 19 17 24 16 27 18 6 16-24-4-52-21"/><path class="s3" d="M5371 5822v-61l-9-7-10-6 3-6h10l80-2v78l16 3 17 12 15 18 12 3 10 10v25"/><path class="s3" d="M5392 5822h45"/><path class="s3" d="M5248 5768l-1-59-14-3-3-6 3-6 7-6h15 57l10 10 1 10v58l17 5 11 3 11 11 2 6-51-1 1 14"/><path class="s3" d="M5269 5764h37"/><path class="s3" d="M5089 5704v-16h90v48"/><path class="s3" d="M4975 5651v-10h84v47"/><path class="s3" d="M4881 5615v-17h67v45"/><path class="s3" d="M4816 5581v-54h-10v-10l8-5h62v67l26 15"/><path class="s3" d="M4833 5579h32"/><path class="s3" d="M4778 5570v-15h36"/><path class="s3" d="M4694 5535v-16h72v39h-18"/><path class="s3" d="M4616 5501v-18h67v41h-15"/><path class="s3" d="M4543 5467v-15h66v41h-13"/><path class="s3" d="M4472 5438v-13h63v36h-12"/><path class="s3" d="M4408 5408v-13h59v32h-16"/><path class="s3" d="M4363 5385v-44l-9-5v-8h52l4 8v41l26 14"/><path class="s3" d="M4376 5379l27-2"/><path class="s3" d="M4307 5358v-38l-7-4v-10h52l4 7v14"/><path class="s3" d="M4308 5361l39 18"/><path class="s3" d="M4320 5356h30"/><path class="s3" d="M4229 5330v-12h54v35h-9"/><path class="s3" d="M4170 5305v-13h55v32h-9"/><path class="s3" d="M4117 5282v-11h53v17"/><path class="s3" d="M4062 5255v-6h52v23"/><path class="s3" d="M4026 5242v-10h49v19"/><path class="s3" d="M3992 5225v-10h46v17"/><path class="s3" d="M3967 5215v-45h46v41"/><path class="s3" d="M3919 5195v-10h44"/><path class="s3" d="M3885 5181v-13h48v14"/><path class="s3" d="M3864 5169v-43h33v40"/><path class="s3" d="M3830 5152v-40h37v13"/><path class="s3" d="M3784 5137v-9h44"/><path class="s3" d="M3754 5123v-9h40v9"/><path class="s3" d="M3741 5115v-40h29v35"/><path class="s3" d="M3730 5112v-34h11"/><path class="s3" d="M3695 5098v-7h36"/><path class="s3" d="M3662 5085v-9h39v14"/><path class="s3" d="M3638 5072v-7h34v10"/><path class="s3" d="M3614 5063v-11h33v11"/><path class="s3" d="M3594 5053v-9h31v8"/><path class="s3" d="M3566 5042v-43h48v36"/><path class="s3" d="M4783 4088a52 47-90 1 0 0 79"/><path class="s3" d="M4844 4089l29-2 26-4 21-5"/><path class="s3" d="M4844 4134l30-3 35-6 11-2"/><path class="s3" d="M5208 4291l47-3"/><path class="s3" d="M5210 4210l45-4"/><path class="s3" d="M5210 4210l-11 11-6 24 2 24 7 14 6 8"/><path class="s3" d="M5355 4218l19 22 17 27"/><path class="s3" d="M4996 4306l90-1"/><path class="s3" d="M4996 4235l49-2"/><path class="s3" d="M5038 4233l7-7 20-28"/><path class="s3" d="M5060 4212l-21 25v16 14l19 10 21 10"/><path class="s3" d="M5059 4230h16l-1 30h-20"/><path class="s3" d="M5203 4203l-18-10-14-7-12 6-7 4"/><path class="s3" d="M5152 4253l13 17 14 1h14"/><path class="s3" d="M5162 4216l13-4 10 11-8 27"/><path class="s3" d="M5170 4234h-15"/><path class="s3" d="M5355 4193l11-7 15-20 12-31 6-27"/><path class="s3" d="M5355 4194l81 25"/><path class="s3" d="M3165 3777v17"/><path class="s3" d="M3229 3776l-1 19"/><path class="s3" d="M3165 3794l11-3 20-1h18l14 5"/><path class="s3" d="M3174 3797l17 2h15l12-1"/><path class="s3" d="M3132 3780a65 17 0 1 1 123 5"/><path class="s3" d="M3841 5048 7202 6227"/><path class="s3" d="M3632 5037l98 42"/><path class="s3" d="M3770 5095l60 27"/><path class="s3" d="M3897 5149l70 30"/><path class="s3" d="M4013 5198l294 126"/><path class="s3" d="M4410 5368l406 172"/><path class="s3" d="M4876 5565l371 159"/><path class="s3" d="M5323 5756l48 21"/><path class="s3" d="M5445 5808l224 95"/><path class="s3" d="M5748 5937l798 339"/><path class="s3" d="M4697 5341v-35l-8-5v-12h46l11 11-1 45"/><path class="s3" d="M4765 5369l-3-41-6-9v-8h44l9 10 4 45"/><path class="s3" d="M5289 5550v-61h60v65"/><path class="s3" d="M5412 5595v-11h72v27"/><path class="s3" d="M5747 5713v-11h46"/><path class="s3" d="M5798 5728v-58l-18-5v-7l14-2 58-1 12 9v64"/><path class="s3" d="M5878 5758l-1-8h54"/><path class="s3" d="M5938 5773v-52l-15-10 8-10h63l14 10v72l19 1 17 3 4 8 18 9 13 7v19"/><path class="s3" d="M5964 5784l40-1"/><path class="s3" d="M5811 5728h40"/><path class="s3" d="M6305 5910l-1-69-15-12 21-5h70l-1 77 18 5 9 9 16 19 15 9 23 7 17 5 5 16"/><path class="s3" d="M6328 5910h39"/><path class="s3" d="M6379 5896l911 312"/><path class="s3" d="M6304 5871l-296-102"/><path class="s3" d="M5938 5744l-74-24"/><path class="s3" d="M5289 5523l-70-24"/><path class="s3" d="M5208 5495l-83-28"/><path class="s3" d="M5107 5461l-175-60"/><path class="s3" d="M4916 5395l-54-18"/><path class="s3" d="M4838 5368l-26-8"/><path class="s3" d="M4763 5343l-18-6"/><path class="s3" d="M4697 5320l-38-12"/><path class="s3" d="M4649 5304l-104-36"/><path class="s3" d="M4519 5259l-16-5"/><path class="s3" d="M4483 5247l-576-197"/><path class="s3" d="M5470 5584l-121-40"/><path class="s3" d="M5798 5697l-118-40"/><path class="s3" d="M5659 5650l-175-61"/><path class="s3" d="M6538 5751c0-3 1-7 3-9 3-3 10-1 15 2 5 2 9 6 11 11 2 3 3 6 3 9"/><path class="s3" d="M6543 5738l74-2 10 5 6 9 6 11"/><path class="s3" d="M6337 5692l8-8 12 3 8 5 2 12"/><path class="s3" d="M6350 5684l62-3 12 7 6 9 6 16v6"/><path class="s3" d="M6154 5638c3-2 6-5 10-7 5-2 11-2 17 4 5 6 10 19 7 17"/><path class="s3" d="M5994 5591c3-3 6-6 10-6 4-1 9 2 11 5 3 4 3 8 4 12"/><path class="s3" d="M6007 5585l54-2 16 2 5 6 5 12 1 12-14 1"/><path class="s3" d="M6170 5630l61-3 13 6 7 9 3 13 2 6-19 3"/><path class="s3" d="M5847 5546c3-2 6-4 9-5 4-1 9 0 13 2 4 4 5 10 7 15"/><path class="s3" d="M5861 5538h54"/><path class="s3" d="M5915 5538c3 0 6 1 8 3 3 3 5 7 7 11 1 5 2 10 2 16"/><path class="s3" d="M5932 5568l-18 3"/><path class="s3" d="M5705 5506c3-2 5-5 8-7 5-2 13-1 15 2 2 2 2 4 2 7 0 2 1 5 2 7"/><path class="s3" d="M5720 5498h54"/><path class="s3" d="M5774 5498c3 0 6 0 8 1 2 2 3 7 4 11 2 5 3 8 4 12 1 2 1 4 1 6"/><path class="s3" d="M5791 5528l-9 2"/><path class="s3" d="M5578 5468c3-3 6-6 9-7 3 0 7 2 10 4 3 4 4 8 5 13"/><path class="s3" d="M5592 5462l47-1"/><path class="s3" d="M5639 5461c2-1 4-1 6 0 4 2 7 7 8 11 2 5 2 9 3 15"/><path class="s3" d="M5656 5487l-15 1"/><path class="s3" d="M5460 5434c1-3 3-6 6-7 2-2 6-1 9 0 5 2 7 8 10 14"/><path class="s3" d="M5472 5426l45-1"/><path class="s3" d="M5517 5425c3 0 7 0 9 2 4 2 6 6 8 10 1 5 2 10 3 14"/><path class="s3" d="M5537 5451l-16 2"/><path class="s3" d="M5352 54e2c2-3 4-7 7-8 3-1 8 1 11 4 4 4 5 9 5 15"/><path class="s3" d="M5365 5394l42-3"/><path class="s3" d="M5407 5391c3 1 6 2 8 4 4 3 6 9 7 14 1 4 1 8 2 12"/><path class="s3" d="M5424 5421h-11"/><path class="s3" d="M5248 5372c2-3 4-6 8-7 3-1 8 1 11 4 3 3 5 7 6 12"/><path class="s3" d="M5260 5365l45-1"/><path class="s3" d="M5305 5364c4 1 8 3 10 6 3 3 4 8 5 13 0 3 1 5 2 7"/><path class="s3" d="M5322 5390h-10"/><path class="s3" d="M5156 5344c3-3 5-6 8-7 3-1 8 0 11 3 3 3 4 8 5 13"/><path class="s3" d="M5169 5338h36"/><path class="s3" d="M5205 5338c3 0 6 1 9 4 3 3 4 8 4 12 1 3 1 5 1 7"/><path class="s3" d="M5219 5361l-11 1"/><path class="s3" d="M5069 5317c3-2 5-5 8-6 3-1 8 0 11 3 3 3 4 8 5 13"/><path class="s3" d="M5082 5312l36-1"/><path class="s3" d="M5118 5311c3 1 6 2 9 4 3 3 4 8 4 13 1 3 1 5 1 7"/><path class="s3" d="M5132 5335l-11 1"/><path class="s3" d="M4985 5292c2-3 4-5 7-6 4-1 8 0 11 3 4 3 5 7 6 13"/><path class="s3" d="M4997 5287l36-2"/><path class="s3" d="M5033 5285c4 2 7 2 10 5 2 2 3 8 4 13 0 3 1 5 2 7"/><path class="s3" d="M5049 5310l-12 1"/><path class="s3" d="M5594 5658c3-4 6-7 9-7 4-1 9 2 12 6 3 3 3 7 3 11"/><path class="s3" d="M5606 5652l55-3 15 3 5 6 6 11 1 12-15 2"/><path class="s3" d="M54e2 5591c2-3 5-6 9-6 4-1 9 2 11 6 3 3 4 7 5 11"/><path class="s3" d="M5412 5586l55-3 15 3 6 5 5 12 1 12-15 2"/><path class="s3" d="M5349 5574c3-3 5-5 8-6 4 0 8 2 10 5 3 3 3 7 4 11"/><path class="s3" d="M5360 5569l47-2 14 2 4 5 4 10v1"/><path class="s3" d="M5155 5502c3-3 5-5 8-6 3-1 8 0 11 3 4 3 5 8 5 12"/><path class="s3" d="M5168 5498l36-2"/><path class="s3" d="M5204 5496c4 1 7 2 10 4 2 3 3 8 3 13 1 3 1 5 1 7"/><path class="s3" d="M5218 5520l-11 1"/><path class="s3" d="M5062 5469c2-2 4-5 7-6 4-1 8 0 11 3 4 3 5 8 5 12"/><path class="s3" d="M5074 5465l36-2"/><path class="s3" d="M5110 5463c4 1 7 2 10 4 2 3 3 8 4 13 0 3 1 5 1 7"/><path class="s3" d="M5125 5487l-12 1"/><path class="s3" d="M5249 5536c3-3 5-5 8-6 3-1 8 0 11 2 3 3 4 9 5 13"/><path class="s3" d="M5262 5531l27-1"/><path class="s3" d="M4872 5402c2-3 4-5 7-6 4-1 8 0 11 3 4 3 5 8 6 12"/><path class="s3" d="M4884 5398l36-2"/><path class="s3" d="M4920 5396c4 1 7 2 10 4 2 3 3 8 4 13 0 3 1 5 2 7"/><path class="s3" d="M4936 5420l-12 1"/><path class="s3" d="M4801 5377c2-3 4-6 7-7 4-1 8 0 11 3 4 3 5 8 6 13"/><path class="s3" d="M4813 5372l36-1"/><path class="s3" d="M4849 5371c3 0 7 1 9 4 3 3 4 8 4 13 1 2 1 4 2 7"/><path class="s3" d="M4864 5395h-12"/><path class="s3" d="M5156 5344c3-3 5-6 8-7 3-1 8 0 11 3 3 3 4 8 5 13"/><path class="s3" d="M5169 5338h36"/><path class="s3" d="M5205 5338c3 0 6 1 9 4 3 3 4 8 4 12 1 3 1 5 1 7"/><path class="s3" d="M5219 5361l-11 1"/><path class="s3" d="M4593 5309c3-3 5-5 8-6 3-1 8 0 11 3 3 3 4 8 5 12"/><path class="s3" d="M4606 5304l36-1"/><path class="s3" d="M4642 5303c3 1 6 2 9 4 3 3 4 8 4 13 1 3 1 5 1 7"/><path class="s3" d="M4656 5327l-11 1"/><path class="s3" d="M4486 5271c2-3 4-6 7-7 4-1 8 0 11 3 4 3 5 8 5 13"/><path class="s3" d="M4498 5265h36"/><path class="s3" d="M4534 5265c4 0 7 1 10 4 2 3 3 8 4 12 0 3 1 5 1 7"/><path class="s3" d="M4549 5288l-11 1"/><path class="s3" d="M4447 5256c3-3 5-5 8-6 3-1 8 0 11 3 3 3 4 8 5 12"/><path class="s3" d="M4460 5252l36-2"/><path class="s3" d="M4496 5250c3 1 7 2 9 4 2 3 3 7 4 11"/><path class="s3" d="M5091 4497a55 53-90 1 0-6 103"/><path class="s3" d="M4487 4580l42 1"/><path class="s3" d="M4596 4584l50 2"/><path class="s3" d="M4714 4589l58 1"/><path class="s3" d="M4844 4593l76 3"/><path class="s3" d="M4996 4599l73 4"/><path class="s3" d="M4487 45e2l42-1"/><path class="s3" d="M4596 4499h50"/><path class="s3" d="M4714 4498l58-1"/><path class="s3" d="M4844 4496h76"/><path class="s3" d="M4996 4492l74 1"/><path class="s3" d="M4436 4509c-3 2-7 5-10 8-6 7-8 17-7 26 0 9 1 17 5 23 3 4 7 8 11 11"/><path class="s3" d="M2985 3960l10-2 15-1 14 1 11 4"/><path class="s3" d="M2992 3963l14 2h12l10-1"/><path class="s3" d="M2959 3950a51 13 0 1 1 98 3"/><path class="s4" d="M3281 3640l118 5 11 2 6 7-6 7-12 13-5 3h-7-14l-117-4-7-4-1-4 1-7 3-1 10-13 7-4z"/><path class="s4" d="M3054 3877l77 3 8 2 4 4-4 5-8 9-3 1-5 1h-8l-79-3-4-2v-3-5l2-1 6-8 5-3z"/><path class="s4" d="M2926 4003l64 4h6l3 4-3 5-7 7h-2l-4 1h-8l-63-3-4-1v-3-4h1l6-7 3-3z"/><path class="s4" d="M5005 3428v50l72-27 2-48z"/><path class="s3" d="M5077 3451h179"/><path class="s3" d="M5005 3478h179"/><path class="s3" d="M5079 3403h117"/><path class="s3" d="M3370 3424l580-653"/><path class="s3" d="M3370 3424c-7 11-14 22-21 33-17 25-30 52-49 77-10 13-21 26-32 38"/><path class="s3" d="M3268 3572l-462 501"/><path class="s3" d="M4574 2772l-821 662"/><path class="s3" d="M3753 3434c-10 10-20 19-29 29-23 22-44 46-66 70-16 18-31 35-49 51-20 19-42 36-65 53"/><path class="s3" d="M3544 3637l-562 433"/><path class="s3" d="M5502 5832l498-29"/><path class="s3" d="M6092 5798l638-38"/><path class="s3" d="M2288 5931l-125-2"/><path class="s3" d="M2256 5951v37l4 14 13 5 23-1 156-11 148 22v20l-142-18-164 14h-34l-14-9-9-70"/><path class="s3" d="M2163 5929l-1 81 61 72"/><path class="s3" d="M2221 6082l62 8 50-23 63-5"/><path class="s3" d="M2534 6044l66-7"/><path class="s3" d="M2938 6065l19 71 121-2"/><path class="s3" d="M2928 6014V5914h85l2 68"/><path class="s3" d="M2909 5989l29 76"/><path class="s3" d="M5507 4955c-22 27-43 55-65 82-30 37-61 74-94 109-42 44-86 84-130 125"/><path class="s3" d="M5278 4922c-23 31-47 62-72 93-30 37-62 73-95 107-33 32-67 63-102 93"/><path class="s3" d="M56e2 5289l153 35"/><path class="s3" d="M5628 5265l156 33"/><path class="s3" d="M5364 5232l134 29"/><path class="s3" d="M5373 5202l156 32"/><path class="s3" d="M5874 5354l227 55"/><path class="s3" d="M5903 5330l230 51"/><path class="s3" d="M5736 5142l155 26"/><path class="s3" d="M5763 5116l157 24"/><path class="s3" d="M5478 5092l156 26"/><path class="s3" d="M5505 5066l157 24"/><path class="s3" d="M6022 5196l221 39"/><path class="s3" d="M6041 5166l232 39"/><path class="s3" d="M5324 5304c10-9 20-17 29-25 9-8 17-15 25-23"/><path class="s3" d="M5415 5209c12-11 24-22 35-33 16-16 31-34 45-53"/><path class="s3" d="M5537 5072c10-12 20-24 30-37 9-12 18-25 27-37"/><path class="s3" d="M5548 4960l43 38 123 16"/><path class="s3" d="M5575 5371c7-6 14-13 22-19 8-7 16-13 22-21"/><path class="s3" d="M5674 5273c15-15 30-30 43-46 12-15 23-30 34-45"/><path class="s3" d="M5802 5116c6-4 11-9 15-15 4-5 7-10 45-65"/><path class="s3" d="M5848 5444c6-6 12-12 18-18 9-9 17-18 25-28"/><path class="s3" d="M5945 5336c12-13 25-26 37-40 19-21 37-44 55-66"/><path class="s3" d="M6083 5171c10-13 20-25 29-37 14-18 26-38 38-57"/><path class="s3" d="M5762 4994c-23 31-46 62-71 91-32 38-66 73-1e2 111-26 30-52 60-81 87-19 18-40 34-61 50"/><path class="s3" d="M6051 5035c-38 51-76 102-118 149-69 79-148 147-226 217"/><path class="s3" d="M6015 5484c22-19 44-37 66-56 36-32 70-67 102-104 40-45 76-92 110-142 19-28 38-57 57-86"/><path class="s3" d="M6046 5494c23-19 45-37 67-57 36-32 70-67 101-104 39-45 75-92 110-141 20-28 39-57 57-86"/><path class="s3" d="M6214 5437l274 66"/><path class="s3" d="M6235 5411l275 66"/><path class="s3" d="M6172 5529c12-8 25-16 36-25 11-9 20-19 29-30"/><path class="s3" d="M6286 5422c16-19 32-39 48-58 19-23 37-45 56-68"/><path class="s3" d="M6375 5251c49 7 99 16 148 25 44 8 88 16 132 25"/><path class="s3" d="M6394 5227c47 7 94 14 140 22 48 7 96 16 144 26"/><path class="s3" d="M6460 5209c-5 8-9 16-13 23"/><path class="s3" d="M6824 5140l-158 205-149 176-77 76"/><path class="s3" d="M6590 5636c13-11 26-22 37-34 6-7 11-14 18-19"/><path class="s3" d="M6697 5518c23-24 39-43 54-62 23-27 45-55 68-82"/><path class="s3" d="M6867 5307c16-20 31-40 45-60 19-28 37-57 54-86"/><path class="s3" d="M6630 5535l292 70"/><path class="s3" d="M6655 5514l288 66"/><path class="s3" d="M6807 5329l308 54"/><path class="s3" d="M6826 5303l304 58"/><path class="s3" d="M7081 5771c18-13 35-27 49-43 9-10 16-20 25-29"/><path class="s3" d="M7222 5629c27-28 52-55 76-84 18-22 35-45 52-67"/><path class="s3" d="M7409 5389c13-18 26-37 39-56 20-29 39-60 57-91"/><path class="s3" d="M6922 5724c33-29 66-58 97-89 48-48 90-1e2 133-152 37-45 75-89 110-135 33-42 64-85 95-129"/><path class="s3" d="M6885 5716c41-41 83-81 124-123 57-60 112-123 165-188 36-44 70-90 104-137 13-19 27-39 41-59"/><path class="s3" d="M5140 5178l108 28"/><path class="s3" d="M5163 5161l108 22"/><path class="s3" d="M5254 5052l118 20"/><path class="s3" d="M5275 5029l113 20"/><path class="s3" d="M5112 5244l36-32"/><path class="s3" d="M5197 5161l32-37 34-37"/><path class="s3" d="M5304 5029l27-30 27-33"/><path class="s3" d="M4939 5197l26-23"/><path class="s3" d="M4963 5145l77 17"/><path class="s3" d="M4988 5128l73 13"/><path class="s3" d="M5012 5125l34-33 32-36"/><path class="s3" d="M5080 5022l85 10"/><path class="s3" d="M5097 4999l86 10"/><path class="s3" d="M5128 4994l24-29 19-26"/><path class="s3" d="M4808 5104l66 18"/><path class="s3" d="M4832 5087l66 16"/><path class="s3" d="M4896 4984l95 19"/><path class="s3" d="M4910 4962l102 19"/><path class="s3" d="M4855 5085l26-26 28-33"/><path class="s3" d="M4955 4965l12-18"/><path class="s3" d="M4929 4909l36 40"/><path class="s3" d="M4924 4905l133 20"/><path class="s3" d="M4779 5151l32-23"/><path class="s3" d="M4934 4873c-22 27-43 55-66 81-27 33-56 65-87 95-29 28-60 55-91 82"/><path class="s3" d="M5752 4506c-13 31-26 62-40 93-23 51-46 101-75 149-20 32-42 64-64 95"/><path class="s3" d="M6035 4491c-35 83-70 166-113 245-28 51-59 1e2-90 149"/><path class="s3" d="M6381 4407c-24 56-48 113-73 169-31 70-63 139-98 206-25 46-51 90-77 135"/><path class="s3" d="M7161 4439c-30 74-60 147-93 219-46 98-97 194-149 291"/><path class="s3" d="M6797 4293c-34 90-67 180-105 268-39 89-82 176-128 261-26 47-52 92-79 137"/><path class="s3" d="M6636 4846l164 10"/><path class="s3" d="M6650 4816l150 10"/><path class="s3" d="M6569 5026l55-83 34-61"/><path class="s3" d="M6696 4816l34-67 33-71"/><path class="s3" d="M6732 4645l68 2"/><path class="s3" d="M6747 4617l57 2"/><path class="s3" d="M4428 5016l42 10"/><path class="s3" d="M4446 4999l43 10"/><path class="s3" d="M4522 4915l49 7"/><path class="s3" d="M4543 4897l44 6"/><path class="s3" d="M4411 5057l11-8 11-8"/><path class="s3" d="M4470 5002l23-21 33-36"/><path class="s3" d="M4568 4893l18-20 17-19"/><path class="s3" d="M4539 5043l57 10"/><path class="s3" d="M4558 5024l58 9"/><path class="s3" d="M4639 4941l59 6"/><path class="s3" d="M4659 4919l57 6"/><path class="s3" d="M4518 5086l21-11 11-10"/><path class="s3" d="M4590 5024l28-29 23-28"/><path class="s3" d="M4680 4918l25-27 17-22-26-28"/><path class="s3" d="M6381 5127c46 7 93 15 140 21 46 7 92 13 138 19 31 3 62 7 94 10"/><path class="s3" d="M6459 5208c31 6 63 12 96 18 47 8 94 16 141 24"/><path class="s3" d="M6383 5128l76 80"/><ellipse class="s4" cx="6505" cy="5188" rx="31" ry="12" transform="rotate(-143.0492708112238 6505.0,5188.0)"/><ellipse class="s4" cx="6591" cy="5201" rx="31" ry="12" transform="rotate(-143.0492708112238 6591.0,5201.0)"/><ellipse class="s4" cx="6675" cy="5217" rx="31" ry="12" transform="rotate(-143.0492708112238 6675.0,5217.0)"/><ellipse class="s4" cx="1556" cy="3714" rx="32" ry="25" transform="rotate(-90.0 1556.0,3714.0)"/><ellipse class="s4" cx="1556" cy="3847" rx="32" ry="25" transform="rotate(-90.0 1556.0,3847.0)"/><ellipse class="s4" cx="1556" cy="3983" rx="32" ry="25" transform="rotate(-90.0 1556.0,3983.0)"/><ellipse class="s4" cx="1556" cy="4119" rx="32" ry="25" transform="rotate(-90.0 1556.0,4119.0)"/><ellipse class="s4" cx="1556" cy="4254" rx="32" ry="25" transform="rotate(-90.0 1556.0,4254.0)"/><ellipse class="s4" cx="1556" cy="4390" rx="32" ry="25" transform="rotate(-90.0 1556.0,4390.0)"/><ellipse class="s4" cx="1556" cy="4528" rx="32" ry="25" transform="rotate(-90.0 1556.0,4528.0)"/><ellipse class="s4" cx="1556" cy="4661" rx="32" ry="25" transform="rotate(-90.0 1556.0,4661.0)"/><ellipse class="s4" cx="1556" cy="4794" rx="32" ry="25" transform="rotate(-90.0 1556.0,4794.0)"/><ellipse class="s4" cx="1643" cy="3800" rx="29" ry="22" transform="rotate(-90.0 1643.0,3800.0)"/><ellipse class="s4" cx="1713" cy="3867" rx="25" ry="18" transform="rotate(-90.0 1713.0,3867.0)"/><ellipse class="s4" cx="1774" cy="3927" rx="22" ry="17" transform="rotate(-90.0 1774.0,3927.0)"/><ellipse class="s4" cx="1823" cy="3978" rx="21" ry="15" transform="rotate(-90.0 1823.0,3978.0)"/><ellipse class="s4" cx="1643" cy="3913" rx="29" ry="22" transform="rotate(-90.0 1643.0,3913.0)"/><ellipse class="s4" cx="1713" cy="3981" rx="25" ry="18" transform="rotate(-90.0 1713.0,3981.0)"/><ellipse class="s4" cx="1774" cy="4028" rx="22" ry="17" transform="rotate(-90.0 1774.0,4028.0)"/><ellipse class="s4" cx="1823" cy="4070" rx="21" ry="15" transform="rotate(-90.0 1823.0,4070.0)"/><ellipse class="s4" cx="1643" cy="4041" rx="29" ry="22" transform="rotate(-90.0 1643.0,4041.0)"/><ellipse class="s4" cx="1643" cy="4165" rx="29" ry="22" transform="rotate(-90.0 1643.0,4165.0)"/><ellipse class="s4" cx="1643" cy="4286" rx="29" ry="22" transform="rotate(-90.0 1643.0,4286.0)"/><ellipse class="s4" cx="1713" cy="4088" rx="25" ry="18" transform="rotate(-90.0 1713.0,4088.0)"/><ellipse class="s4" cx="1713" cy="4193" rx="25" ry="18" transform="rotate(-90.0 1713.0,4193.0)"/><ellipse class="s4" cx="1713" cy="4307" rx="25" ry="18" transform="rotate(-90.0 1713.0,4307.0)"/><ellipse class="s4" cx="1774" cy="4126" rx="22" ry="17" transform="rotate(-90.0 1774.0,4126.0)"/><ellipse class="s4" cx="1774" cy="4226" rx="22" ry="17" transform="rotate(-90.0 1774.0,4226.0)"/><ellipse class="s4" cx="1774" cy="4328" rx="22" ry="17" transform="rotate(-90.0 1774.0,4328.0)"/><ellipse class="s4" cx="1823" cy="4160" rx="21" ry="15" transform="rotate(-90.0 1823.0,4160.0)"/><ellipse class="s4" cx="1823" cy="4253" rx="21" ry="15" transform="rotate(-90.0 1823.0,4253.0)"/><ellipse class="s4" cx="1823" cy="4343" rx="21" ry="15" transform="rotate(-90.0 1823.0,4343.0)"/><ellipse class="s4" cx="1643" cy="4403" rx="29" ry="22" transform="rotate(-90.0 1643.0,4403.0)"/><ellipse class="s4" cx="1643" cy="4524" rx="29" ry="22" transform="rotate(-90.0 1643.0,4524.0)"/><ellipse class="s4" cx="1643" cy="4646" rx="29" ry="22" transform="rotate(-90.0 1643.0,4646.0)"/><ellipse class="s4" cx="1643" cy="4769" rx="29" ry="22" transform="rotate(-90.0 1643.0,4769.0)"/><ellipse class="s4" cx="1713" cy="4414" rx="25" ry="18" transform="rotate(-90.0 1713.0,4414.0)"/><ellipse class="s4" cx="1713" cy="4524" rx="25" ry="18" transform="rotate(-90.0 1713.0,4524.0)"/><ellipse class="s4" cx="1713" cy="4635" rx="25" ry="18" transform="rotate(-90.0 1713.0,4635.0)"/><ellipse class="s4" cx="1713" cy="4746" rx="25" ry="18" transform="rotate(-90.0 1713.0,4746.0)"/><ellipse class="s4" cx="1774" cy="4425" rx="22" ry="17" transform="rotate(-90.0 1774.0,4425.0)"/><ellipse class="s4" cx="1774" cy="4523" rx="22" ry="17" transform="rotate(-90.0 1774.0,4523.0)"/><ellipse class="s4" cx="1774" cy="4625" rx="22" ry="17" transform="rotate(-90.0 1774.0,4625.0)"/><ellipse class="s4" cx="1774" cy="4725" rx="22" ry="17" transform="rotate(-90.0 1774.0,4725.0)"/><ellipse class="s4" cx="1823" cy="4433" rx="21" ry="15" transform="rotate(-90.0 1823.0,4433.0)"/><ellipse class="s4" cx="1823" cy="4524" rx="21" ry="15" transform="rotate(-90.0 1823.0,4524.0)"/><ellipse class="s4" cx="1823" cy="4616" rx="21" ry="15" transform="rotate(-90.0 1823.0,4616.0)"/><path class="s3" d="M5298 4636l199 7"/><path class="s3" d="M53e2 4792l195 17"/><path class="s3" d="M5119 4632l154 5"/><path class="s3" d="M5118 4775l153 13"/><path class="s3" d="M4806 4624l125-2"/><path class="s3" d="M4802 4746l129 11"/><path class="s3" d="M4453 4608l86-2"/><path class="s3" d="M4450 4715l89 6"/><path class="s3" d="M5327 4693v46"/><path class="s3" d="M5456 4702v45"/><path class="s3" d="M5327 4693l129 9"/><path class="s3" d="M5327 4739l129 8"/><path class="s3" d="M5135 4684l108 3"/><path class="s3" d="M5135 4728l108 2"/><path class="s3" d="M5243 4730v-43"/><path class="s3" d="M5135 4728v-44"/><path class="s3" d="M4832 4026v598"/><path class="s3" d="M4832 4749v17"/><path class="s4" d="M4818 4666h84l1 49-85-6z"/><path class="s3" d="M4477 4090l-1 517"/><path class="s3" d="M4476 4716v26"/><path class="s4" d="M4462 4646h57v35h-59z"/><path class="s3" d="M1802 4659l85-10"/><path class="s3" d="M18e2 4862l85-48"/><path class="s4" d="M1817 4731l26-8v49l-26 10z"/><path class="s4" d="M1860 4719l20-7v45l-20 7z"/><path class="s3" d="M2054 5571l22 20 47 34 22 12h39 30v-25l2-19 15-17 10-2"/><path class="s3" d="M2231 5521l10-13 16-6 27 3 7 13h24"/><path class="s3" d="M2248 5546h21l10-8 33 2"/><path class="s3" d="M2165 5537l80 1 3 8"/><path class="s3" d="M2090 5474v-33l96 2 2-16 73 1"/><path class="s3" d="M2244 5429l9-11 13-5 24 2 7 11h20"/><path class="s3" d="M2259 5451h18l9-6h29"/><path class="s3" d="M2186 5443l70 2 3 6"/><path class="s3" d="M2090 5474l19 17 40 30 17 8"/><path class="s3" d="M2229 5520v-11l2-17 13-14 9-2"/><path class="s3" d="M2114 5390v-27l82 2 2-14 61 1"/><path class="s3" d="M2245 5352l8-9 11-5 20 3 5 9h37"/><path class="s3" d="M2258 5371h15l8-6 42 1"/><path class="s3" d="M2196 5365h59l3 6"/><path class="s3" d="M1959 4895c25 27 51 54 78 81 31 31 62 63 95 93 30 28 62 55 95 80 13 10 26 19 39 29"/><path class="s3" d="M2193 5114h112l-1 19"/><path class="s3" d="M2169 5192l129-1-4 32"/><path class="s3" d="M2212 5232l69-1 7-7 23-1 5 6h16"/><path class="s3" d="M2289 5275l3-30h38"/><path class="s3" d="M1859 4034a19 15-90 1 0 0-35"/><path class="s3" d="M1895 4071a18 14-90 1 0 0-35"/><path class="s3" d="M1895 4150a18 14-90 1 0 0-35"/><path class="s3" d="M1895 4229a18 14-90 1 0 0-35"/><path class="s3" d="M1895 4303a18 14-90 1 0 0-35"/><path class="s3" d="M1895 4387a18 14-90 1 0 0-35"/><path class="s3" d="M1895 4466a18 14-90 1 0 0-35"/><path class="s3" d="M1895 4544a18 14-90 1 0 0-35"/><path class="s3" d="M1895 4622a18 14-90 1 0 0-35"/><path class="s3" d="M1895 4703a18 14-90 1 0 0-35"/><path class="s3" d="M1934 4103a17 12-90 0 0-1-33"/><path class="s3" d="M1924 4643l26-4"/><path class="s3" d="M1923 4792l27-16"/><path class="s4" d="M1931 4695v40l15-6v-40z"/><path class="s3" d="M1960 4127a15 12-90 1 0 0-29"/><path class="s3" d="M1960 4260a15 12-90 1 0 0-29"/><path class="s3" d="M1960 4403a15 12-90 1 0 0-29"/><path class="s3" d="M1960 4542a15 12-90 1 0 0-29"/><path class="s3" d="M1960 4681a15 12-90 1 0 0-29"/><path class="s3" d="M1982 4212a13 10-90 1 0 0-25"/><path class="s3" d="M1982 4342a13 10-90 1 0 0-25"/><path class="s3" d="M1982 4475a13 10-90 1 0 0-25"/><path class="s3" d="M1982 4603a13 10-90 1 0 0-25"/><path class="s3" d="M2007 4168a13 10-90 1 0 0-25"/><path class="s3" d="M2007 4292a13 10-90 1 0 0-25"/><path class="s3" d="M2007 4416a13 10-90 1 0 0-25"/><path class="s3" d="M2007 4540a13 10-90 1 0 0-25"/><path class="s3" d="M2007 4656a13 10-90 1 0 0-25"/><path class="s3" d="M6199 4010c-9 35-18 70-28 105-12 46-27 91-41 136"/><path class="s3" d="M5904 4049c-8 35-16 70-27 105-5 19-12 37-18 55"/><path class="s3" d="M5644 4076c-6 26-13 53-20 79-8 26-16 51-25 78"/><path class="s3" d="M6518 3967l-18 60-17 43"/><ellipse class="s4" cx="7362" cy="3619" rx="28" ry="16" transform="rotate(90.0 7362.0,3619.0)"/><ellipse class="s4" cx="7362" cy="3744" rx="28" ry="16" transform="rotate(90.0 7362.0,3744.0)"/><ellipse class="s4" cx="7362" cy="3880" rx="28" ry="16" transform="rotate(90.0 7362.0,3880.0)"/><ellipse class="s4" cx="7362" cy="4016" rx="28" ry="16" transform="rotate(90.0 7362.0,4016.0)"/><ellipse class="s4" cx="7362" cy="4151" rx="28" ry="16" transform="rotate(90.0 7362.0,4151.0)"/><ellipse class="s4" cx="7362" cy="4285" rx="28" ry="16" transform="rotate(90.0 7362.0,4285.0)"/><ellipse class="s4" cx="7362" cy="4422" rx="28" ry="16" transform="rotate(90.0 7362.0,4422.0)"/><ellipse class="s4" cx="7362" cy="4557" rx="28" ry="16" transform="rotate(90.0 7362.0,4557.0)"/><ellipse class="s4" cx="7362" cy="4692" rx="28" ry="16" transform="rotate(90.0 7362.0,4692.0)"/><ellipse class="s4" cx="7362" cy="4829" rx="28" ry="16" transform="rotate(90.0 7362.0,4829.0)"/><ellipse class="s4" cx="6835" cy="3714" rx="22" ry="12" transform="rotate(90.0 6835.0,3714.0)"/><ellipse class="s4" cx="6835" cy="3830" rx="22" ry="12" transform="rotate(90.0 6835.0,3830.0)"/><ellipse class="s4" cx="6835" cy="3944" rx="22" ry="12" transform="rotate(90.0 6835.0,3944.0)"/><ellipse class="s4" cx="6835" cy="4069" rx="22" ry="12" transform="rotate(90.0 6835.0,4069.0)"/><ellipse class="s4" cx="6835" cy="4188" rx="22" ry="12" transform="rotate(90.0 6835.0,4188.0)"/><ellipse class="s4" cx="6835" cy="4311" rx="22" ry="12" transform="rotate(90.0 6835.0,4311.0)"/><ellipse class="s4" cx="6835" cy="4437" rx="22" ry="12" transform="rotate(90.0 6835.0,4437.0)"/><ellipse class="s4" cx="6835" cy="4556" rx="22" ry="12" transform="rotate(90.0 6835.0,4556.0)"/><ellipse class="s4" cx="6835" cy="4673" rx="22" ry="12" transform="rotate(90.0 6835.0,4673.0)"/><ellipse class="s4" cx="6835" cy="4796" rx="22" ry="12" transform="rotate(90.0 6835.0,4796.0)"/><ellipse class="s4" cx="6411" cy="3739" rx="22" ry="12" transform="rotate(90.0 6411.0,3739.0)"/><ellipse class="s4" cx="6411" cy="3820" rx="22" ry="12" transform="rotate(90.0 6411.0,3820.0)"/><ellipse class="s4" cx="6411" cy="3922" rx="22" ry="12" transform="rotate(90.0 6411.0,3922.0)"/><ellipse class="s4" cx="6411" cy="4037" rx="22" ry="12" transform="rotate(90.0 6411.0,4037.0)"/><ellipse class="s4" cx="6411" cy="4141" rx="22" ry="12" transform="rotate(90.0 6411.0,4141.0)"/><ellipse class="s4" cx="6411" cy="4250" rx="22" ry="12" transform="rotate(90.0 6411.0,4250.0)"/><ellipse class="s4" cx="6411" cy="4365" rx="22" ry="12" transform="rotate(90.0 6411.0,4365.0)"/><ellipse class="s4" cx="6411" cy="4469" rx="22" ry="12" transform="rotate(90.0 6411.0,4469.0)"/><ellipse class="s4" cx="6411" cy="4581" rx="22" ry="12" transform="rotate(90.0 6411.0,4581.0)"/><ellipse class="s4" cx="6411" cy="4681" rx="22" ry="12" transform="rotate(90.0 6411.0,4681.0)"/><ellipse class="s4" cx="6411" cy="4798" rx="22" ry="12" transform="rotate(90.0 6411.0,4798.0)"/><path class="s3" d="M4080 3177l310 17"/><path class="s3" d="M6982 3341c38 11 77 22 116 33 47 14 92 27 139 36 23 4 45 7 73 7"/><path class="s3" d="M2186 5283l105-1"/><path class="s3" d="M2263 5333l17-14 5-13 16-7 27-3"/><path class="s3" d="M2291 5282l37 1"/><path class="s3" d="M4048 6058l-1-94 88-3 4 87"/><path class="s3" d="M4049 6062l108 105 40-5"/><path class="s3" d="M3953 5877l1e2 87"/><path class="s3" d="M4139 6038l278 242"/><path class="s3" d="M3993 5937l8 13-2 17-11 17"/><path class="s3" d="M3661 5974V5867l84-1-1 68"/><path class="s3" d="M3721 6039l1-102"/><path class="s3" d="M3661 5974l50 53"/><path class="s3" d="M3339 5960l322-19"/><path class="s3" d="M3722 5937l155-9"/><path class="s3" d="M2559 6006l369-22"/><path class="s3" d="M3015 5979l118-7"/><path class="s3" d="M4003 5921l322-20"/><path class="s3" d="M4410 5897l967-57"/><path class="s3" d="M4481 6035l-1-94 88-3 4 87 11 12 3-1"/><path class="s3" d="M4583 6037l8 15-2 15v11l-53 2-55-45"/><path class="s3" d="M6781 5954a45 12 0 1 1 81-5"/><path class="s3" d="M6756 5865a45 12 0 1 1 81-5"/><path class="s3" d="M6570 5824a45 12 0 1 1 81-5"/><path class="s3" d="M6980 5938a45 12 0 1 1 81-5"/><path class="s3" d="M6912 5858a45 12 0 1 1 81-5"/><path class="s3" d="M6713 5795a45 12 0 1 1 81-5"/><path class="s3" d="M7178 5932a45 12 0 1 1 81-5"/><path class="s3" d="M6606 5885a45 12 0 1 1 81-5"/><path class="s3" d="M6614 5960a45 12 0 1 1 81-5"/><path class="s3" d="M3208 5046l1346 846"/><path class="s3" d="M3386 5057l79 42"/><path class="s3" d="M3329 5058h-5"/><path class="s3" d="M5392 2767 4253 3425"/><path class="s3" d="M4253 3425c-3 2-6 4-8 7-1 3-1 8 2 10 3 2 6 2 9 3"/><path class="s3" d="M4246 3464l1206-696"/><path class="s3" d="M4249 3484l1250-716"/><path class="s3" d="M4246 3465c-3 2-6 4-7 7-1 3-1 8 2 10 2 2 5 2 8 2"/><path class="s3" d="M6376 2822l32-24 29-18 14-9"/><path class="s3" d="M5758 3105l13-14 13-13 29-18"/><path class="s3" d="M5892 3034l31-6 16 1"/><path class="s3" d="M5297 3301l11-14 27-19 47-22 35-10 61-10"/><path class="s3" d="M5415 3251l325 19"/><path class="s3" d="M5414 3237l23-23 18-28 15-18 39-21 229-102 17-7 14 3 25 12 20 5 39-15 39-9 36-52 16-19 15-14 29-12 320-144 22-10h16l37 10 26 11 91-35"/><path class="s3" d="M4376 3710l14-17 10-13 16-9 26-4 18 3 13-5 7-11 6-8"/><path class="s3" d="M4556 3632l16-21 27-26 31-18 36-16"/><path class="s3" d="M4297 3722l-44 18"/><path class="s3" d="M4253 3740c-7 2-13 4-18 8-4 4-7 10-10 15-4 6-8 12-13 18"/><path class="s3" d="M3567 4037l12-8 23-11"/><path class="s3" d="M3643 4007l15-11 26-7 4-3"/><path class="s3" d="M3707 3974l21-11h16l21-3 16-10 5-4"/><path class="s3" d="M4060 3838l17-17 28-14 25-11"/><path class="s3" d="M5656 3616l-6 10 10 15 11 3 10-1"/><path class="s3" d="M5792 3655l-17-3-6-6-4-12 6-7 6-8"/><path class="s3" d="M5590 3587c-4 0-8 2-10 5-1 4-1 8 1 12 3 3 7 5 11 6 3 0 7-1 9-3 2-1 3-3 4-6"/><path class="s3" d="M5424 3617c-3 4-6 7-6 10-1 3 4 7 8 9 4 1 8 1 11-1 2-2 3-5 4-9"/><path class="s3" d="M5308 3614c-3-1-6-2-9-1-4 1-7 6-8 11-1 5 1 9 6 12 5 2 13 1 16-3 1-2 2-4 3-6"/><path class="s3" d="M5060 3589a78 22-5.913048351892525 1 1 117-12"/><path class="s3" d="M5072 3590a42 12-4.0252348166745975 1 1 84-6"/><path class="s3" d="M5090 3593c5 1 11 1 17 2 8 0 16-1 23-2 5-1 10-2 15-2"/><path class="s3" d="M5155 3567l1 17"/><path class="s3" d="M5071 3575l1 16"/><path class="s3" d="M4408 3836a50 15-5.522859056717218 1 1 80-7"/><path class="s3" d="M4419 3836a27 7-2.324682272900029 0 1 53-3"/><path class="s3" d="M4430 3839c4 0 8 0 12 1 5 0 10 0 15-1 3 0 6-1 9-2"/><path class="s3" d="M4472 3822l1 12"/><path class="s3" d="M5145 3492l1935-724"/><path class="s3" d="M5145 3492c-13 5-25 10-36 15-30 13-60 27-88 43-28 15-54 33-82 47-29 14-60 25-91 35-32 11-64 22-96 33"/><path class="s3" d="M4752 3665 3606 4082"/><path class="s3" d="M5452 3515c-23 11-46 22-70 34-44 20-89 40-134 58-47 19-94 36-142 52-71 25-142 48-214 72"/><path class="s3" d="M4892 3731 3770 4087"/><path class="s3" d="M3691 3497l1291 57"/><path class="s3" d="M2158 3254c19 0 38-1 57-1"/><path class="s3" d="M2251 3252c39 0 78 1 116 2"/><path class="s3" d="M2123 3065c22 0 44 0 66 0"/><path class="s3" d="M2230 3066c44 1 88 3 132 5"/><path class="s3" d="M2030 4043l89-2"/><path class="s3" d="M2119 4041c18-3 35-6 53-9 24-4 47-9 71-11 13-2 25-3 38-3"/><path class="s3" d="M23e2 4017c6 0 13 0 19 0"/><path class="s3" d="M2336 4017c19 0 37 0 56 0"/><path class="s3" d="M2422 4017c14 0 28 0 43 0"/><path class="s3" d="M2293 3979c6-1 13-1 21-1"/><path class="s3" d="M2332 3977c4 0 7 0 10 0"/><path class="s3" d="M2342 3977l48 1"/><path class="s3" d="M2422 3978l47 1"/><path class="s3" d="M2180 3550c47-1 61-1 76-1"/><path class="s3" d="M2256 3549c60 2 90 2 121 2"/><path class="s3" d="M2377 3551c81 3 109 3 136 4"/><path class="s3" d="M2229 3641c14-1 26-1 39-2"/><path class="s3" d="M2294 3639c25 0 50 0 75 0 4 0 7 0 10 0"/><path class="s3" d="M2428 3639c25 1 51 1 77 2"/><path class="s3" d="M1853 3754c52 0 105 1 157-5 48-6 95-17 143-23 21-2 43-4 64-5"/><path class="s3" d="M2245 3720c11 0 22 0 34 0"/><path class="s3" d="M2303 3720c6 0 12 0 19 0 20 1 40 1 60 2"/><path class="s3" d="M2426 3723c23 0 46 1 70 1"/><path class="s3" d="M1902 3814c52 1 105 2 157-5 48-5 95-17 143-22 9-1 19-2 29-3"/><path class="s3" d="M2256 3783c10-1 21-1 31-1"/><path class="s3" d="M2310 3782c20 0 41 0 62 1 4 0 8 0 12 0"/><path class="s3" d="M2426 3784c21 0 42 0 63 0"/><path class="s3" d="M1936 3864c53 1 106 2 158-5 47-5 94-17 142-22 2 0 4 0 6 0"/><path class="s3" d="M2266 3834c9 0 19-1 28-1"/><path class="s3" d="M2316 3832c23-1 46-1 70-1"/><path class="s3" d="M2425 3832c19 1 39 1 59 2"/><path class="s3" d="M1956 3911c53 1 106 2 158-5 46-5 92-16 139-22"/><path class="s3" d="M2275 3882c8-1 17-2 25-2"/><path class="s3" d="M2321 3879c22-1 44-1 66-1"/><path class="s3" d="M2424 3879c19 1 38 1 55 1"/><path class="s3" d="M1986 3949c52 1 104 1 157-5 39-5 79-13 118-19"/><path class="s3" d="M2282 3922c1 0 2 0 3 0 7-1 14-2 21-2"/><path class="s3" d="M2326 3918c20-1 41-2 63-2"/><path class="s3" d="M2423 3916c11 0 21 1 32 1 7 0 14 0 21 0"/><path class="s3" d="M2010 3981c53 1 105 2 157-4 34-4 68-11 102-17"/><path class="s3" d="M2289 3957c7-1 14-2 21-3"/><path class="s3" d="M2329 3952c20-2 40-2 60-3"/><path class="s3" d="M2422 3948c17 0 34 1 50 1"/><path class="s3" d="M2156 3436c-13 1-26 2-39 3-38 4-75 11-113 17-48 8-97 12-146 15-59 3-119 3-178 3"/><path class="s3" d="M1680 3474h-15"/><path class="s3" d="M2192 3436c13 0 26 0 39 0 3 0 6 0 9 0"/><path class="s3" d="M2272 3437c34 0 67 1 101 2"/><path class="s3" d="M2432 3441c30 1 62 2 93 3"/><path class="s3" d="M2636 3272c37 2 74 5 111 6"/><path class="s3" d="M2799 3281c49 1 96 3 145 3"/><path class="s3" d="M2674 3087c42 2 84 4 126 7"/><path class="s3" d="M2858 3097c57 3 114 6 170 9"/><path class="s3" d="M2493 4017c14 0 28 0 42 0"/><path class="s3" d="M2562 4018c20 0 38 1 57 1"/><path class="s3" d="M2501 3980h45"/><path class="s3" d="M2575 3981l60 1"/><path class="s3" d="M2513 3555c97 3 125 5 152 6"/><path class="s3" d="M2665 3561c81 3 119 4 157 6"/><path class="s3" d="M2566 3642c26 1 51 1 76 2"/><path class="s3" d="M2682 3645c35 1 69 2 103 3"/><path class="s3" d="M2550 3726c22 1 45 1 68 1"/><path class="s3" d="M2655 3728c31 1 62 2 93 2"/><path class="s3" d="M2539 3785c20 1 41 1 62 2"/><path class="s3" d="M2637 3787c28 1 56 2 85 3"/><path class="s3" d="M2529 3834c19 0 39 1 58 1"/><path class="s3" d="M2621 3836c26 1 52 1 78 2"/><path class="s3" d="M2520 3881c18 0 36 1 53 1"/><path class="s3" d="M2606 3883c24 0 48 1 73 1"/><path class="s3" d="M2512 3917c17 0 34 1 51 1"/><path class="s3" d="M2595 3919c22 1 45 1 67 1"/><path class="s3" d="M2506 3950c16 0 32 0 48 0"/><path class="s3" d="M2584 3951c21 0 43 1 65 1"/><path class="s3" d="M2604 3447c31 0 62 2 94 3"/><path class="s3" d="M2745 3451c42 2 83 4 126 6"/><path class="s3" d="M2046 5691v-37l110 3 3-19 83 2"/><path class="s3" d="M2046 5691l21 20 47 34 22 12h40 30v-25l2-19 15-17"/><path class="s3" d="M2223 5641l10-13 16-6 27 2 7 14h23"/><path class="s3" d="M2239 5666h21l10-8 33 2"/><path class="s3" d="M2156 5657l80 1 3 8"/><path class="s3" d="M2120 59e2h39 30v-25l3-19 14-17 10-2"/><path class="s3" d="M2206 5784l10-13 17-6 26 3 7 13h24"/><path class="s3" d="M2223 5809h21l10-8 33 2"/><path class="s3" d="M2140 58e2l80 1 3 8"/><path class="s3" d="M2030 5834v-36l110 2 3-19 83 2"/><path class="s3" d="M2355 5943l106-2"/><path class="s3" d="M2355 5885h101"/><path class="s4" d="M2355 5825m15 0h83"/><path class="s4" d="M2355 5759m19 0h78"/><path class="s4" d="M2355 5695m24 0h71"/><path class="s4" d="M2356 5644m26 0h67"/><path class="s4" d="M2356 5596m30 0 55-1"/><path class="s4" d="M2356 5554m33-1h53"/><path class="s4" d="M2356 5516m30 0m4 0 50-1"/><path class="s4" d="M2356 5478m34-1h44"/><path class="s4" d="M2356 5441m18 0m19 0 41-1"/><path class="s4" d="M2356 5412m18 0m19 0 43-1"/><path class="s4" d="M2356 5375m22 0m17 0m6-1h31"/><path class="s4" d="M2356 5346m22-1m17-1m7 0 27-1"/><path class="s4" d="M2359 5318m23 0m15 1m6 0h23"/><path class="s4" d="M2359 5286m22 1m24 0 21 1"/><path class="s4" d="M2358 5262m26 1m22 0h20"/><path class="s4" d="M2358 5242m26 0m24 1h17"/><path class="s4" d="M2357 5218m31 1m22 1h12"/><path class="s4" d="M2358 5193m30 1m23 0 11 1"/><path class="s4" d="M2358 5167m32 1m23 0h7"/><path class="s3" d="M6645 5583l-13-20-2-12v-14l8-14 17-12 6-5 10 2 14 9"/><path class="s3" d="M6646 5571l245 57"/><path class="s3" d="M6835 5701l183-2e2 91-1e2 61-70 29-46 10-26 4-26-2-22-9-20"/><path class="s3" d="M7254 5201l2 31-4 41-16 32-37 58-27 35"/><path class="s3" d="M6819 5374l-15-14-8-21 2-17 17-19 12-8h10l10 7"/><path class="s3" d="M6817 5363l271 48"/><path class="s3" d="M7155 5699l-18-20-8-18 7-18 18-19 15-9 13 4 12 5 11 11"/><path class="s3" d="M6237 5474l-17-12-6-12v-15l12-17 14-10h12l10 4"/><path class="s3" d="M6390 5296l-14-19-5-14 5-16 12-15 10-9 12-1"/><path class="s3" d="M6388 5285l244 45"/><path class="s3" d="M6241 5471l222 57"/><path class="s3" d="M5891 5398l-12-8-7-16 1-18 16-16 18-18 10 1 11 7"/><path class="s3" d="M6037 5230l-15-13-6-21 8-16 15-15 12-7 13 4"/><path class="s3" d="M6038 5222l189 39"/><path class="s3" d="M5894 5390l176 46"/><path class="s3" d="M5751 5182l-11-11-8-16v-18l12-14 17-12 13-3 9 5"/><path class="s3" d="M5619 5331l-18-10-9-13-1-13 9-15 16-18 7-6 12 2 9 4"/><path class="s3" d="M5627 5331l91 22"/><path class="s3" d="M5752 5172l132 26"/><path class="s3" d="M5378 5255l-17-9-8-11-1-13 8-14 15-15 6-6 10 1 9 5"/><path class="s3" d="M5498 5124l-17-10-7-11-2-12 9-14 14-15 6-7 10 2 10 5"/><path class="s3" d="M5382 5258l99 22"/><path class="s3" d="M5501 5120l107 18"/><path class="s3" d="M6658 4882l-18-11-11-20 1-20 11-15 15-9 17 4"/><path class="s3" d="M6662 4877l135 8"/><path class="s3" d="M6763 4678l-25-14-7-16 1-22 10-16 14-4 15 4"/><path class="s3" d="M6771 4674h29"/><path class="s3" d="M6919 4648l146 4"/><path class="s3" d="M6920 4619l160 5"/><path class="s3" d="M6918 4672l135 6"/><path class="s3" d="M7009 5095c13-18 25-37 37-55 21-34 42-69 62-104"/><path class="s3" d="M7108 4936l-22-23-9-23 1-19 22-29 15-2 14 2 13 8"/><path class="s3" d="M7084 4885l238 11"/><path class="s3" d="M71e2 4856l222 10"/><path class="s3" d="M7096 4910l226 16"/><path class="s3" d="M7149 4846l23-30 20-40 26-47 9-23-36-25-2-20 7-22 13-20 12-8h9"/><path class="s3" d="M7194 4659l125 3"/><path class="s3" d="M7211 4633h108"/><path class="s3" d="M7223 4696l93 3"/><path class="s3" d="M7250 4620l25-45 23-55 24-57"/><path class="s3" d="M6787 4610l8-18 10-30"/><path class="s3" d="M6267 4812l35 2"/><path class="s3" d="M6282 4782l37 2"/><path class="s3" d="M6290 4849l-6-4"/><path class="s3" d="M6284 4845l-13-9-11-20 1-20 12-14 14-9 17 3"/><path class="s3" d="M6374 4681c-18 35-37 69-55 103"/><path class="s3" d="M6284 4845c-16 27-32 55-50 82-8 13-17 25-24 38"/><path class="s3" d="M6294 4842l91 7"/><path class="s3" d="M6302 4814l83 5"/><path class="s3" d="M6319 4784l66 5"/><path class="s3" d="M5966 4799l31 2"/><path class="s3" d="M5979 4770l34 3"/><path class="s3" d="M5981 4829l-12-8-10-19 2-17 10-14 13-9 16 4"/><path class="s3" d="M5990 4827l48 3"/><path class="s3" d="M5997 4801l41 2"/><path class="s3" d="M6013 4773l25 2"/><path class="s3" d="M5975 4830c-4 6-8 12-12 19-22 36-47 70-72 105"/><path class="s3" d="M6037 4719c-9 17-18 33-27 50"/><path class="s3" d="M5698 4779l32 2"/><path class="s3" d="M5711 4751l34 2"/><path class="s3" d="M5714 4809l-13-7-10-19 1-18 10-14 14-8 15 3"/><path class="s3" d="M5721 4807l35 2"/><path class="s3" d="M5730 4781l26 1"/><path class="s3" d="M5745 4753l11 1"/><path class="s3" d="M5641 4922c24-33 47-66 68-1e2 2-4 5-8 8-13"/><path class="s3" d="M5569 4606l119 1"/><path class="s3" d="M5581 4575l124 1"/><path class="s3" d="M5567 4636l1e2 1"/><path class="s3" d="M5836 4636l109 4"/><path class="s3" d="M5835 4613h122"/><path class="s3" d="M5837 4578l144 1"/><path class="s3" d="M6121 4570h159"/><path class="s3" d="M6121 4605l139 1"/><path class="s3" d="M6123 4634l117 1"/><path class="s3" d="M6478 4574l182 2"/><path class="s3" d="M6480 4609l156 1"/><path class="s3" d="M6477 4636l143 1"/><path class="s3" d="M6482 4429l234 3"/><path class="s3" d="M6492 4395l242 2"/><path class="s3" d="M6483 4457l223 2"/><path class="s3" d="M6340 4428l-209-2"/><path class="s3" d="M6324 4454l-179-1"/><path class="s3" d="M6145 4470l-8-6-6-10-2-8v-14l2-12 8-11 13-11"/><path class="s3" d="M6150 4470c0 3-1 6-2 8-8 22-18 44-29 65"/><path class="s3" d="M6289 4393l70 1"/><path class="s3" d="M6919 4459l230 3"/><path class="s3" d="M6915 4431l234 2"/><path class="s3" d="M6917 4397l168 2"/><path class="s3" d="M6569 4041l234-22"/><path class="s3" d="M6581 4001l222-24"/><path class="s3" d="M6589 4071l214-20"/><path class="s3" d="M6589 4071l-16-18-8-12 2-15 4-21 12-10 14-2"/><path class="s3" d="M6611 3952c-4 16-7 31-11 47"/><path class="s3" d="M6584 4067c-3 13-7 26-10 40"/><path class="s3" d="M5975 4129l-11-15-6-10 2-11 5-16 9-8h12"/><path class="s3" d="M6274 4e3c-3 10-5 20-7 30"/><path class="s3" d="M6253 4091c-12 46-24 92-39 137-4 9-7 18-10 27"/><path class="s3" d="M5965 41e2l73-5"/><path class="s3" d="M5975 4069l63-5"/><path class="s3" d="M5980 4124l58-4"/><path class="s3" d="M5946 4210c7-14 14-27 20-40 5-13 9-27 13-41"/><path class="s3" d="M5994 4066c3-5 5-10 6-18 2-9 3-23 7-20"/><path class="s3" d="M5720 4163l-11-13-5-10 2-10 5-15 8-7h10"/><path class="s3" d="M5711 4137l45-4"/><path class="s3" d="M5720 4109l36-3"/><path class="s3" d="M5724 4158l32-2"/><path class="s3" d="M5734 4107c4-13 5-26 7-39"/><path class="s3" d="M5699 4227c9-21 16-43 23-64"/><path class="s3" d="M6252 4094l-13-15-6-11 1-12 4-19 9-8 13-1"/><path class="s3" d="M6236 4068l149-13"/><path class="s3" d="M6246 4034l139-14"/><path class="s3" d="M6252 4094l133-12"/><path class="s3" d="M5435 4640c6-8 13-17 19-25 8-11 16-23 22-35 8-13 14-26 20-40"/><path class="s3" d="M5451 4642c7-8 13-17 20-25 7-11 15-22 22-34 1-4 3-7 5-10"/><path class="s3" d="M5344 4606h109"/><path class="s3" d="M5361 4576l118-2"/><path class="s3" d="M5344 4606l17-30"/><path class="s3" d="M5426 4490c-7 19-14 39-23 58-4 9-8 18-13 27"/><path class="s3" d="M5344 4606l1 14 3 16"/><path class="s3" d="M5206 4567c9-16 18-33 26-50 14-27 26-55 37-84"/><path class="s3" d="M5158 4603l107 3"/><path class="s3" d="M5188 4569l84-2"/><path class="s3" d="M5166 4631l-4-9-3-9v-12l5-12 9-13 9-9 6-1"/><path class="s3" d="M5104 4899c-22 27-44 55-67 83-32 39-65 76-102 111-28 27-59 53-89 79"/><path class="s3" d="M4542 5065l-4-15 4-10 16-16"/><path class="s3" d="M4433 5041l-4-13-6-12 23-17"/><path class="s3" d="M4526 4945l-5-14v-10l7-12 15-12"/><path class="s3" d="M4641 4967l-6-15v-17l10-10 14-10"/><path class="s4" d="M4137 5046m811 239 1639 483"/><path class="s3" d="M1410 5272c56 64 111 128 170 189 74 77 154 148 234 219 58 52 115 104 175 153 56 47 114 91 170 134"/><path class="s3" d="M1611 5215c39 41 79 83 120 123 45 43 91 85 137 127 55 50 109 1e2 169 143 19 14 39 27 58 40"/><path class="s3" d="M1690 5135c29 30 58 61 87 91 47 49 94 97 144 143 42 40 87 77 133 113 24 19 48 38 72 56"/><path class="s3" d="M1754 5083c40 42 81 85 123 126 37 35 74 68 111 102 24 22 49 45 75 67 27 23 56 44 86 65"/><path class="s3" d="M1811 5032c38 40 75 81 115 120 36 36 74 70 113 103 41 36 84 70 127 105"/><path class="s3" d="M1863 4992c36 37 71 73 107 110 32 32 64 64 98 94 40 35 82 67 125 99"/><path class="s3" d="M2036 4012c21 1 42 1 63 1 15-1 30-1 45-3 18-2 35-5 53-9 14-2 27-5 41-6 12-2 24-2 35-3"/><path class="s3" d="M1747 3587c50 0 99 0 148-3 48-2 97-7 145-15 38-6 75-13 113-17 9-1 18-2 27-2"/><path class="s3" d="M1802 3670c58 2 116 4 173-2 46-4 92-14 138-20 29-3 58-5 87-7"/><path class="s3" d="M2950 6103l-2-121 94-2v90l8 13 5 9 4 17v22"/><path class="s4" d="M2979 6084v-52l-7-9-4-6-1-16 5-7 14-4 34-1 12 5 4 22-14 10v49l9 5-1 12-9 6h-44l-6-8z"/><path class="s3" d="M2969 6094l6 14v12l-1 13"/><path class="s3" d="M3030 6093l5 12v15l-2 14"/><path class="s3" d="M2954 5981l-1-26-11-1-2-27 12-6h38l12 5 2 21-12 6v28"/><path class="s4" d="M3292 6125l-1-17 8-6 2-49-10-8-2-17 9-7h41l12 5-1 23-10 3 1 46 10 9v14l-10 5z"/><path class="s3" d="M3358 6120l3 14 1 15-1 18"/><path class="s3" d="M3294 6124l8 10 5 14 1 15"/><path class="s4" d="M3750 6041v-59l-11-8-2-19 11-11 41-1 8 6 2 16-10 15 1 44 6 9-3 9-6 1z"/><path class="s3" d="M3805 5932l2 91 12 13 3 10 2 14v21"/><path class="s3" d="M3799 6041l6 15 1 14v12"/><path class="s3" d="M3753 6044l8 13 3 10v20"/><path class="s3" d="M3723 6043l27 43v-13-15l-6-12-7-7"/><path class="s3" d="M3750 6086l74-5"/><path class="s3" d="M3673 5964l11 7 11 12 2 13v15"/><path class="s3" d="M3693 5967l9 14 6 13v17h-11"/><path class="s3" d="M3686 5957l-2-46-10-7v-17l10-9h42l8 8 1 18-11 7 1 23"/><path class="s3" d="M3701 5979h17"/><path class="s3" d="M4326 5928l1-102"/><path class="s4" d="M4355 5930v-59l-11-7-2-20 11-11 41-2 9 6 1 17-10 15 2 44 5 8-3 10-5 1z"/><path class="s3" d="M4410 5821l3 90 11 13 3 11 3 15v20"/><path class="s3" d="M4404 5930l6 15 1 15v11"/><path class="s3" d="M4358 5934l8 13 4 10v19"/><path class="s3" d="M4328 5932l27 42v-12-15l-6-12-6-7"/><path class="s3" d="M4355 5974l75-4"/><path class="s3" d="M4327 5826l83-5"/><path class="s3" d="M4555 6031l12 11 4 11v25"/><path class="s3" d="M4516 6034l22 15 6 14v16"/><path class="s3" d="M4533 6077v-20l-7-11-19-14"/><path class="s3" d="M4507 6032l67-3"/><path class="s3" d="M4505 6031l1-20v-24l1-9-9 2v-23l10-11 40-1 11 11v18h-9l1 54"/><path class="s3" d="M4937 5949l2-82"/><path class="s3" d="M4949 5957l2-80-12-9"/><path class="s3" d="M4962 59e2l9-7 14 1 41-1-1-9-11-8-8-6h-35l-9 4-5 12 2 14 3 60 45-3-1-63"/><path class="s3" d="M5019 5896l2 56 18 14"/><path class="s3" d="M4939 5953l39 28 68-7-9-8"/><path class="s3" d="M4999 5862l16 10"/><path class="s3" d="M5169 5991l1-81"/><path class="s3" d="M5180 6e3l2-80-11-9"/><path class="s3" d="M5194 5942l8-7 13 1 43-1-3-8-10-9-7-6h-36l-9 5-5 11 3 14 3 60 44-3v-62"/><path class="s3" d="M5249 5938l3 56 19 14"/><path class="s3" d="M5171 5995l38 28 69-7-10-8"/><path class="s3" d="M5171 5911l27-1"/><path class="s3" d="M6457 5860l1-53"/><path class="s3" d="M6491 5857l2-52"/><path class="s3" d="M6457 5809l-9-5 8-2h24 38l-8 3-17 1"/><path class="s3" d="M6447 5802l3-11 7-7 36-1 22 18"/><path class="s3" d="M6437 5856v-77"/><path class="s3" d="M6423 5850v-76l14 7"/><path class="s3" d="M6423 5774l54-4 18 7-58 3"/><path class="s3" d="M6424 5848l55 43"/><path class="s3" d="M6502 5807l3 44 20 8 8 8 2 18v7"/><path class="s3" d="M6496 5862l17 7 5 7v11"/><path class="s3" d="M6537 5891l-49 6-11-9"/><path class="s3" d="M3870 3166l-20 22-6 3-9 1h-15l-134-5"/><path class="s3" d="M4127 2941l4 1 8 7-8 9-14 16-6 2-8 2h-16l-140-7-7-3-2-6 2-7"/><path class="s3" d="M3940 2955l3-2 11-15 9-5h16l139 6 9 2"/><path class="s3" d="M4127 2941l-2 2-15 15-5 3-8 1h-17l-139-6-1-1"/><path class="s3" d="M7486 4277c4-1 8-3 11-7 1-3 2-6 1-10-1-3-3-6-5-8-7-6-18-6-29-6"/><path class="s3" d="M7326 5073l75 10"/><path class="s3" d="M7459 5028l-9 20-22 18-27 17"/><path class="s3" d="M7355 5080v55"/><path class="s3" d="M7393 5086l2 53 19-18 24-22 1-39"/><path class="s3" d="M2976 3537l479-769"/><path class="s3" d="M2940 3596l-290 464"/><path class="s3" d="M3e3 3538l489-770"/><path class="s3" d="M3036 3541l518-773"/><path class="s3" d="M3024 36e2l-329 470"/><path class="s3" d="M2888 3531l372-763"/><path class="s3" d="M2858 3593l-229 470"/><path class="s3" d="M2599 4063l212-472"/><path class="s3" d="M2863 3529l355-761"/><path class="s3" d="M2510 3580l-51 483"/><path class="s3" d="M2486 4058l92-476"/><path class="s3" d="M2560 3509l117-741"/><path class="s3" d="M2443 2767l-13 741"/><path class="s3" d="M2429 3577l-9 486"/><path class="s3" d="M2393 4061l-15-485"/><path class="s3" d="M2376 3508l-24-740"/><path class="s3" d="M2280 3511l-83-743"/><path class="s3" d="M2287 3574l55 492"/><path class="s3" d="M2251 3514l-102-746"/><path class="s3" d="M2259 3574l66 485"/><path class="s3" d="M2207 3517l-139-749"/><path class="s3" d="M2217 3574l91 485"/><path class="s3" d="M2174 3521l-161-753"/><path class="s3" d="M2965 2768l-243 752"/><path class="s3" d="M2930 2768l-229 750"/><path class="s3" d="M2185 3574l105 489"/><path class="s3" d="M2962 3597l-297 468"/><path class="s3" d="M2997 3599l-315 469"/><path class="s3" d="M2834 3592l-218 466"/><path class="s3" d="M2549 3581l-76 479"/><path class="s3" d="M2537 3580l-48 337"/><path class="s3" d="M2659 3585l-137 478"/><path class="s3" d="M2701 3586l-154 480"/><path class="s3" d="M2681 3586l-146 477"/><path class="s3" d="M2839 3527c1 2 2 4 3 5 2 3 6 4 10 5 3 0 6 0 8-2 2-1 2-4 3-6"/><path class="s3" d="M2863 3529c1 2 2 4 3 5 2 2 5 2 8 3 3 0 6 1 9-1 2-1 4-3 5-5"/><path class="s3" d="M2976 3537c2 2 4 4 6 6 3 2 8 3 11 2 3-1 5-4 7-7"/><path class="s3" d="M3036 3541c2 2 3 3 5 5 3 2 6 3 11 3 6-1 13-5 12-6"/><path class="s3" d="M3001 3537c1 3 2 5 5 7 2 1 6 1 9 0 3 0 5-1 8-3"/><path class="s3" d="M3018 3544c3 2 6 3 8 4 5 0 9-1 13-2"/><path class="s3" d="M3024 3543c132-213 265-426 404-635 31-46 62-92 93-137"/><path class="s3" d="M3521 2771l1-3"/><path class="s3" d="M2679 3517c-1 2-1 4 0 7 1 2 3 5 6 6 3 1 8 0 10-2 3-2 4-6 6-10"/><path class="s3" d="M2701 3518c0 3 0 6 2 8 2 3 6 5 10 4 4 0 7-6 9-10"/><path class="s3" d="M2560 3509c0 3 0 6 1 8 2 4 6 5 11 6 5 1 11 1 14-2 3-2 4-6 6-10"/><path class="s3" d="M2518 3508c1 3 2 6 5 9 3 3 10 3 14 1 4-1 7-6 10-10"/><path class="s3" d="M2430 3508c-4 5-7 10-12 13-9 6-22 6-30 1-6-3-9-8-12-14"/><path class="s3" d="M2280 3511c-2 3-4 6-8 8-4 2-9 2-13 0-3-1-6-3-8-5"/><path class="s3" d="M2207 3517c-2 4-4 8-8 10-4 3-10 4-15 2-4-2-7-5-10-8"/><path class="s3" d="M3596 3597l178 7"/><path class="s3" d="M3814 3606l989 41"/><path class="s3" d="M3081 3993l104 2"/><path class="s3" d="M3208 3996l286 7"/><path class="s3" d="M3493 3677l161 7"/><path class="s3" d="M3691 3685l424 17"/><path class="s3" d="M3393 3753l148 6"/><path class="s3" d="M3574 3760l388 17"/><path class="s3" d="M3318 3810l136 6"/><path class="s3" d="M3485 3817l362 15"/><path class="s3" d="M3251 3862l127 5"/><path class="s3" d="M3405 3868l339 15"/><path class="s3" d="M3190 3910l116 4"/><path class="s3" d="M3332 3916l317 13"/><path class="s3" d="M3135 3951l109 5"/><path class="s3" d="M3268 3957l297 13"/><path class="s3" d="M3034 4030c32 0 65 0 97 0"/><path class="s3" d="M3154 4030c92 1 184 3 277 5"/><path class="s3" d="M4227 3348l146 8"/><path class="s3" d="M4464 3361l904 48"/><path class="s3" d="M4462 3198l167 10"/><path class="s3" d="M4723 3213l652 36"/><path class="s3" d="M2433 3258l109 6"/><path class="s3" d="M2437 3078l125 4"/><path class="s3" d="M5701 5955l1-51-10-5-1-19 7-8 36-1 7 5 3 21-9 8 1 42 15 14 12 13 1 17v7"/><path class="s3" d="M5698 5957l36 19 27 19"/><path class="s3" d="M5379 5824l136 67"/><ellipse class="s4" cx="4617" cy="5774" rx="17" ry="7" transform="rotate(-90.0 4617.0,5774.0)"/><path class="s3" d="M4617 5757l132-3"/><path class="s3" d="M4749 5754c3 7 3 11 3 15 0 6-1 12-1 17"/><path class="s3" d="M4751 5786l-38 3v58"/><path class="s3" d="M4617 5790h36v59"/><path class="s3" d="M4653 5849l-19 9 29 24"/><path class="s3" d="M4713 5847l12 3 36 25"/><path class="s3" d="M4649 5758l4 5 1 8v7l-1 7-4 5"/><path class="s3" d="M4710 5754l6 7 3 10v8l-6 11"/><path class="s3" d="M4443 5647l4 7 2 9v8l-3 10"/><path class="s3" d="M4506 5644l7 7 2 6v8l-2 9-4 7"/><path class="s4" d="M4408 5646l4 5 1 7v13l-2 7-5 6-4-3-5-10 1-10 3-10 3-3z"/><path class="s4" d="M3777 6160l49-4 11 8 5 10 3 13 1 6-40 6-2-11-4-9-9-12z"/><path class="s3" d="M3836 6162l54-2 7 1 3 14-55 5"/><path class="s3" d="M3887 6159v-8l6-1 10 1 3 13 1 12-7 8 46-4 2-10v-9l-7-9-4-4-43 1"/><path class="s3" d="M3947 6181l27 31 26-1"/><path class="s3" d="M3811 62e2l37 43"/><path class="s3" d="M6167 5994l40-3"/><path class="s3" d="M6190 6017h38l-2-11-12-12-7-3"/><path class="s3" d="M6160 6e3c4-3 7-5 10-5 3 1 6 4 9 6 4 3 8 6 9 10 1 2 1 5 2 8"/><path class="s3" d="M6124 6004c16 0 31-1 46-2"/><path class="s3" d="M6078 6e3c14-3 27-5 40-1 4 1 7 2 10 4 4 3 7 6 8 9 2 3 3 7 4 10"/><path class="s3" d="M6124 6024l16-2"/><path class="s3" d="M6234 6017l63 29 35-2 40 17"/><path class="s3" d="M6824 6180v59"/><path class="s3" d="M6934 6030c1-6 1-11 4-14 3-3 8-4 14-5 6 0 12-1 17 2 5 2 8 5 11 10 2 5 3 11 3 18"/><path class="s3" d="M6936 6019l14-23"/><path class="s3" d="M6949 5996l12-2 15 2 10 8 8 12 2 12-8 16"/><path class="s3" d="M6988 6042a89 21 3.244295562772755 1 0-5-42"/><path class="s3" d="M6945 6002a89 21 3.244295562772755 0 0 43 40"/><path class="s3" d="M5105 6161v26"/><path class="s3" d="M5374 6146v22"/><path class="s3" d="M1252 2767l16 36 23 8 19 16 8 16 6 20 78 121 6 21v13l26 42 23 18 29 20 28 34 163 269 6 20-10 7h-27"/><path class="s3" d="M1634 3427l414 631"/><path class="s3" d="M4139 6048l1 10 12 9 3 10 2 19-3 16"/><path class="s3" d="M4122 6069l8 9 1 16v17l23 1"/><path class="s3" d="M4122 6069h-45l8 10 5 8v16"/><path class="s3" d="M4077 6067l-1-59-9-7-1-20 8-9 40-1 8 6 3 26-7 5-1 60"/><path class="s3" d="M4150 6065l10 2 11 15 3 16 21 22 8 17v22l-6 3"/><path class="s3" d="M4131 6139l52-4 6 4 1 8v7l-43 3"/><path class="s3" d="M1164 2767l16 38-4 16 21 32 23 5 151 206-6 18 29 35 28 5 97 133 3 6-1 7-9 6-7 10 4 9 21 7h20l11 10 73 117"/><path class="s3" d="M991 3068c129 8 256 17 384 26"/><path class="s3" d="M1487 3099c50 5 98 1 148 0 30 0 60 1 91 0 74-2 147-14 220-22 40-4 80-8 120-10 3 0 7 0 11 0"/><path class="s3" d="M1470 3086c61 2 108-2 158-3 30 0 61 1 91 1 75-2 147-14 221-22 39-4 79-8 119-10 3-1 7-1 11-1"/><path class="s3" d="M1607 3285c55 2 111 2 166 0 67-3 133-8 2e2-15 43-5 86-9 130-12 5-1 10-1 14-2"/><path class="s3" d="M16e2 3271c56 1 112 1 167 0 66-3 133-8 199-15 43-5 87-9 130-12 5-1 10-1 15-2"/><path class="s3" d="M2149 3424c-13 1-26 2-39 3-39 4-76 11-114 17-48 8-96 13-145 15-60 4-120 3-179 3"/><path class="s3" d="M1672 3462h-14"/><path class="s3" d="M3638 4019l-15 6-39 14"/><path class="s3" d="M3714 3987l-17 8-17 5-15 8"/><path class="s3" d="M3807 3947l-7 2-19 12-34 11-10 5"/><path class="s3" d="M3802 3932l22-7 18-2 23-9 9-10 6-4"/><path class="s3" d="M3899 3889l19-6 30-4 16-3 23-20 10-6"/><path class="s3" d="M3914 3901l-34 16-39 18-4 2"/><path class="s3" d="M4171 3797l-71 30-25 13-5 2"/><path class="s3" d="M4040 3852l-55 22-33 16-3 1"/><path class="s3" d="M4341 3724l-41 17-47 23-21 11-22 13"/><path class="s3" d="M4766 3556l-63 21-75 31-37 16-14 13h-4"/><path class="s3" d="M4538 3648l-4 1-37 15-51 22-34 14-26 14"/><path class="s3" d="M2230 3053c44 1 88 3 132 5"/><path class="s3" d="M2678 3073c42 2 84 5 126 7"/><path class="s3" d="M2862 3083c57 3 114 6 170 9"/><path class="s3" d="M2437 3065l125 4"/><path class="s3" d="M2157 3241c19 0 39-1 57-1"/><path class="s3" d="M2250 3239c39 0 78 1 116 2"/><path class="s3" d="M2641 3259c37 2 74 5 111 6"/><path class="s3" d="M2804 3268c48 1 96 3 144 3"/><path class="s3" d="M2432 3244l109 7"/><path class="s3" d="M3016 3275l118 5"/><path class="s3" d="M3101 3096c48 2 96 5 144 9"/><path class="s3" d="M3247 3285l234 7"/><path class="s3" d="M3369 3111c86 6 172 11 258 17"/><path class="s3" d="M3205 3461l126 9"/><path class="s3" d="M2929 3447c33 2 66 4 99 5"/><path class="s3" d="M3125 3457c26 2 53 3 80 4"/><path class="s3" d="M2189 3424c13 0 26 0 39 0 3 0 6 0 9 0"/><path class="s3" d="M2269 3424c34 1 67 2 101 3"/><path class="s3" d="M2433 3429c31 2 63 2 93 3"/><path class="s3" d="M2607 3434c32 1 62 3 94 3"/><path class="s3" d="M2749 3440c43 1 84 4 126 5"/><path class="s3" d="M4192 5001l3334 893"/><path class="s3" d="M3552 5038v15"/><path class="s3" d="M3632 5037h-18"/><path class="s3" d="M2268 5029l-238-218-4-757 2352 45 2 703-227 240-487 10"/><path class="s3" d="M3552 5054l-197 4"/><path class="s3" d="M3208 5046v20"/><path class="s3" d="M3208 5046l6 1"/><path class="s3" d="M3215 5049v-30h33v31"/><path class="s3" d="M2940 5055v17"/><path class="s3" d="M3208 5066l-191 3"/><path class="s3" d="M2657 5061v14"/><path class="s3" d="M2940 5072l-194 1"/><path class="s4" d="M2657 5074l-239 2-23-3m-25-3-25-4"/><path class="s3" d="M1859 4118a19 15-90 1 0 0-35"/><path class="s3" d="M1859 4205a19 15-90 1 0 0-35"/><path class="s3" d="M1859 4290a19 15-90 1 0 0-35"/><path class="s3" d="M1859 4375a19 15-90 1 0 0-35"/><path class="s3" d="M1859 4460a19 15-90 1 0 0-35"/><path class="s3" d="M1859 4543a19 15-90 1 0 0-35"/><path class="s3" d="M1859 4627a19 15-90 1 0 0-35"/><path class="s3" d="M1934 4173a17 12-90 0 0-1-33"/><path class="s3" d="M1934 4249a17 12-90 0 0-1-33"/><path class="s3" d="M1934 4319a17 12-90 0 0-1-33"/><path class="s3" d="M1934 4396a17 12-90 0 0-1-33"/><path class="s3" d="M1934 4471a17 12-90 0 0-1-33"/><path class="s3" d="M1934 4545a17 12-90 0 0-1-33"/><path class="s3" d="M1934 4614a17 12-90 0 0-1-33"/><path class="s3" d="M3085 6109c-5-2-10-2-12-5-1-2 0-5 0-7 2-6 9-8 15-10 14-4 26-4 39-4 14 0 27 0 41 1 3 0 6 0 10 1 3 2 7 5 7 9 0 4-4 7-8 9-3 2-6 2-9 2"/><path class="s3" d="M5792 5902a45 12 0 1 1 81-5"/><path class="s3" d="M1989 4868c17 21 35 42 54 63 26 29 53 57 81 82 28 26 58 51 88 73 10 8 21 16 32 24"/><path class="s3" d="M2012 4852c27 28 54 57 82 85 34 36 69 70 107 101 18 14 36 27 55 40"/><path class="s3" d="M2029 4832c41 42 82 83 124 124 31 29 62 57 95 83 12 9 23 18 35 26"/><path class="s3" d="M2216 5079h94v23"/><path class="s3" d="M2249 5045h64v19"/><path class="s3" d="M2299 5179l3-31"/><ellipse class="s4" cx="6056" cy="3883" rx="19" ry="11" transform="rotate(90.0 6056.0,3883.0)"/><ellipse class="s4" cx="6056" cy="3973" rx="19" ry="11" transform="rotate(90.0 6056.0,3973.0)"/><ellipse class="s4" cx="6056" cy="4077" rx="19" ry="11" transform="rotate(90.0 6056.0,4077.0)"/><ellipse class="s4" cx="6056" cy="4179" rx="19" ry="11" transform="rotate(90.0 6056.0,4179.0)"/><ellipse class="s4" cx="6056" cy="4280" rx="19" ry="11" transform="rotate(90.0 6056.0,4280.0)"/><ellipse class="s4" cx="6056" cy="4376" rx="19" ry="11" transform="rotate(90.0 6056.0,4376.0)"/><ellipse class="s4" cx="6056" cy="4471" rx="19" ry="11" transform="rotate(90.0 6056.0,4471.0)"/><ellipse class="s4" cx="6056" cy="4576" rx="19" ry="11" transform="rotate(90.0 6056.0,4576.0)"/><ellipse class="s4" cx="6056" cy="4675" rx="19" ry="11" transform="rotate(90.0 6056.0,4675.0)"/><ellipse class="s4" cx="6056" cy="4773" rx="19" ry="11" transform="rotate(90.0 6056.0,4773.0)"/><ellipse class="s4" cx="5772" cy="3933" rx="16" ry="8" transform="rotate(90.0 5772.0,3933.0)"/><ellipse class="s4" cx="5772" cy="4018" rx="16" ry="8" transform="rotate(90.0 5772.0,4018.0)"/><ellipse class="s4" cx="5772" cy="4110" rx="16" ry="8" transform="rotate(90.0 5772.0,4110.0)"/><ellipse class="s4" cx="5772" cy="4203" rx="16" ry="8" transform="rotate(90.0 5772.0,4203.0)"/><ellipse class="s4" cx="5772" cy="4296" rx="16" ry="8" transform="rotate(90.0 5772.0,4296.0)"/><ellipse class="s4" cx="5772" cy="4387" rx="16" ry="8" transform="rotate(90.0 5772.0,4387.0)"/><ellipse class="s4" cx="5772" cy="4480" rx="16" ry="8" transform="rotate(90.0 5772.0,4480.0)"/><ellipse class="s4" cx="5772" cy="4574" rx="16" ry="8" transform="rotate(90.0 5772.0,4574.0)"/><ellipse class="s4" cx="5772" cy="4665" rx="16" ry="8" transform="rotate(90.0 5772.0,4665.0)"/><ellipse class="s4" cx="5772" cy="4758" rx="16" ry="8" transform="rotate(90.0 5772.0,4758.0)"/><path class="s3" d="M5515 3967a14 8 90 1 0 0 25"/><path class="s3" d="M5515 4044a14 8 90 1 0 0 25"/><path class="s3" d="M5515 4130a14 8 90 1 0 0 25"/><path class="s3" d="M5515 4217a14 8 90 1 0 0 25"/><path class="s3" d="M5515 4302a14 8 90 1 0 0 25"/><path class="s3" d="M5515 4386a14 8 90 1 0 0 25"/><path class="s3" d="M5515 4473a14 8 90 1 0 0 25"/><path class="s3" d="M5515 4554a14 8 90 1 0 0 25"/><path class="s3" d="M5515 4641a14 8 90 1 0 0 25"/><path class="s3" d="M5290 4008a12 7 90 1 0 1 20"/><path class="s3" d="M5290 4080a12 7 90 1 0 1 20"/><path class="s3" d="M5290 4160a12 7 90 1 0 1 20"/><path class="s3" d="M5290 4238a12 7 90 1 0 1 20"/><path class="s3" d="M5290 4316a12 7 90 1 0 1 20"/><path class="s3" d="M5290 4395a12 7 90 1 0 1 20"/><path class="s3" d="M5290 4478a12 7 90 1 0 1 20"/><path class="s3" d="M5290 4555a12 7 90 1 0 1 20"/><path class="s3" d="M5110 4038a12 6 90 1 0 0 21"/><path class="s3" d="M5110 4106a12 6 90 1 0 0 21"/><path class="s3" d="M5110 4182a12 6 90 1 0 0 21"/><path class="s3" d="M5110 4258a12 6 90 1 0 0 21"/><path class="s3" d="M5110 4333a12 6 90 1 0 0 21"/><path class="s3" d="M5110 4403a12 6 90 1 0 0 21"/><path class="s3" d="M5110 4473a12 6 90 1 0 0 21"/><path class="s3" d="M5110 4551a12 6 90 1 0 0 21"/><path class="s3" d="M5110 4626a12 6 90 1 0 0 21"/><path class="s3" d="M41e2 3160l310 18"/><path class="s3" d="M4488 3182l168 9"/><path class="s3" d="M4753 3198l651 36"/><path class="s3" d="M5450 3239l325 18"/><path class="s3" d="M6502 3467c42 16 83 31 126 42 56 14 115 20 174 25"/><path class="s3" d="M6802 3534l524 20"/><path class="s3" d="M7007 3324c39 11 78 22 117 33 46 13 92 27 139 36 23 4 45 7 73 7"/><path class="s3" d="M6056 3585c29 4 58 9 86 17 32 9 64 21 96 30 44 12 90 18 135 20"/><path class="s3" d="M6373 3652l440 15"/><path class="s3" d="M3906 3323l266 8"/><path class="s3" d="M4251 3334l144 7"/><path class="s3" d="M4492 3347l898 47"/><path class="s3" d="M3709 3479l1291 57"/><path class="s3" d="M6560 2765 5115 3379"/><path class="s3" d="M5075 3377l11-19 19-28 27-17 137-59"/><path class="s3" d="M4993 3433l-70 38-77 45-15 13"/><path class="s3" d="M4791 3527l14-10 27-24 24-24 66-37 28-12 49-6 29-11"/><path class="s3" d="M4394 4771l3132 386"/><path class="s3" d="M7526 5236l-507-71"/><path class="s3" d="M7526 3822l-56 7"/><path class="s3" d="M7459 3880h67"/><path class="s3" d="M7459 4320h67"/><path class="s3" d="M7526 3184c-578 157-1156 314-1734 471"/><path class="s3" d="M7526 3052 5681 3643"/><path class="s3" d="M7526 2946 5425 3626"/><path class="s3" d="M7526 2879 5302 3624"/><path class="s3" d="M5591 3596l1935-611"/><path class="s3" d="M5656 3616l1870-603"/><path class="s3" d="M7142 5653l384 97"/><path class="s3" d="M7178 5632l348 83"/><path class="s3" d="M7338 5427l188 30"/><path class="s3" d="M7374 5404l152 23"/><path class="s3" d="M7310 3417l216 10"/><path class="s3" d="M5771 3627l1755-518"/><path class="s3" d="M7164 5698l362 87"/><path class="s3" d="M7464 4246h62"/><path class="s3" d="M7486 4279l40 22"/><path class="s3" d="M7526 4848c-4 10-10 21-17 34-25 43-67 103-48 91"/><path class="s3" d="M7526 4927c-11 24-23 48-36 70-11 18-22 35-34 52"/><path class="s3" d="M7336 34e2l190 9"/><path class="s3" d="M7470 3564l56-11"/><path class="s3" d="M3606 2768l-542 775"/><path class="s3" d="M2839 3527l341-759"/><path class="s3" d="M2596 2768l-78 740"/><path class="s3" d="M2592 3511l143-743"/><path class="s3" d="M2652 2768l-105 740"/><path class="s3" d="M2893 2768l-214 749"/><g><path class="s5" d="M4448 7628v283c0 9-2 17-7 25-4 7-11 14-18 18-8 5-16 7-25 7H4115c-9 0-17-3-25-7-7-4-14-11-18-18-5-8-7-16-7-25V7628c0-9 3-18 7-25 4-7 11-14 18-18 8-5 16-7 25-7h283c9 0 18 2 25 7 7 4 14 11 18 18 5 8 7 16 7 25" fill-rule="evenodd"/></g><path class="s6" d="M4115 7628h283v283H4115z"/><text x="4182" y="7845"><tspan class="f3 s7" font-size="206.944">A</tspan></text><g><path class="s5" d="M5905 6645c0 6 1 11 3 17 2 5 4 10 8 14 3 5 8 9 13 12l180 105v48c-1 12 4 23 11 32 8 9 18 16 30 18 11 3 23 1 34-6l166-109c8-4 14-11 17-18 4-7 6-16 6-24 0-8-2-17-6-24l-126-232c-4-9-10-15-18-19-8-5-17-7-26-7-9-1-18 2-26 7l-40 23-113-65c-5-3-10-6-16-7-6-1-12-1-18 0-5 1-11 3-16 6l-38 22c-5 3-9 7-13 12-4 4-7 9-9 15-2 5-3 11-3 17v163" fill-rule="evenodd"/></g><path class="s8" d="M5955 6482l204 119v-77l126 232-126 85v-77l-204-119V6482l38-22 161 94m5-30 38-22 126 232-38 22m38-22m-164 107"/><text transform="matrix(0.929 0.529 -0 1 428.143 -3168.257)" x="5994" y="6623"><tspan class="f3 s7" font-size="97.222">FWD</tspan></text><path class="s9" d="M4186 2719l12-153-60 8z"/><path class="s3" d="M4125 2214l61 505"/><path class="s10" d="M994 2724H7570V5951L4121 5022"/><path class="s10" d="M953 2768V5161"/><path class="s10" d="M953 5161c113 146 230 298 366 438 113 118 240 228 348 314 97 78 180 137 334 256 84 65 190 148 246 189"/><path class="s10" d="M2247 6358l7-266 68-85 67-1024-106 4-212-194-4-697 2270 43 1 647-217 236"/><text x="3183" y="7434"><tspan class="f3 s7" font-size="123.611">FORWARD CARGO COMPARTMENT</tspan></text><text x="3934" y="7559"><tspan class="f3 s7" font-size="123.611">(AFT SIDE)</tspan></text><text x="3542" y="2023"><tspan class="f2 s7" font-size="123.611">INSPECTION AREA</tspan></text><text x="3542" y="2148"><tspan class="f2 s7" font-size="113.875">(ZONES 121, 122)</tspan></text></svg>