<svg xmlns="http://www.w3.org/2000/svg" height="10in" viewBox="0 0 7777 10005" width="7.78in"><defs><style>.f1{font-family:Consolas,Courier New,monospace}.f2{font-family:Helvetica,Arial,sans-serif}.f3{font-family:Helvetica,Arial,sans-serif;font-weight:700}.f4{font-family:Times}.f5{font-family:Times;font-weight:700}.f6{font-family:Courier}.f7{font-family:Courier;font-weight:700}.f8{font-family:Symbol}.s9{fill:none;stroke:#fff;stroke-width:58}.s2{fill:#cff;stroke:#cff;stroke-width:8}.s4{fill:none;stroke:#000;stroke-width:8}.s5{fill:#fff}.s11{fill:none;stroke:#000;stroke-dasharray:120,40;stroke-width:20}.s1{fill:#ffc;stroke:#ffc;stroke-width:8}.s13{fill:none;stroke:#000;stroke-dasharray:225,25,50,25,50,25;stroke-width:10.005}.s7{fill:#000}.s6{fill:none;stroke:#00f;stroke-width:20}.s10{fill:#000;stroke:#000;stroke-width:8}.s12{fill:none;stroke:#000;stroke-dasharray:125,25,50,25,125,0;stroke-width:10.005}.s8{fill:none;stroke:#00f;stroke-width:12}.s3{fill:none;stroke:#000;stroke-width:10.005}</style></defs><path class="s1" d="M1023 2196 5078 358l845 615 61 38L1831 2932 926 2256l-11-8z"/><path class="s1" d="M5031 1564l-6e2 279-1269 581-12e2 548-9 4-28 11-46 16-24 12-647 3e2 675 478 748-343 1203-549 1271-582 606-275z"/><path class="s2" d="M5031 527 4431 806 3162 1387 1962 1935l-9 4-28 11-46 16-24 12-647 3e2 675 478 748-343 1203-549 1271-582 606-275z"/><g><path class="s1" d="M6436 5304v34l-4 23-5 26-2 26-1 18-1 17v17c1 16 2 31 4 46 2 14 5 28 9 41 4 13 8 26 14 38 4 9 8 18 13 26 5 8 10 16 16 23 6 8 13 15 20 22 9 9 19 17 29 25 11 7 23 15 36 22 12 6 26 13 40 19l14 5 14 4 19 6 19 6 20 5 20 4 19 4 20 4 20 3 41 5 41 4 52 3 66 2h70l34-1 101-4 74-5-75 46-13 8-724 389-659 328-310 149-1032 507-693-488 1035-508 880-462 665-375 32-17 32-18 29-15 21-12" fill-rule="evenodd"/></g><path class="s2" d="M6551 3766l-6 21-6 26-8 35-5 28-4 30-3 31 1 31 3 33 7 29 11 32 18 28 21 24 23 20 29 17 42 18 43 13 48 11 50 8 50 6 56 3 64 2h72l56-3 87-4 94-6-38 28-72 47-75 47-350 190-234 121-217 118-253 137-299 153-231 116-282 139-201 102-275 129-191 89-196 91-227 104-224 104 7-85-98-70 8-26 2-8 4-42-1-3-1-3-2-3-3-3-3-3-4-2-5-2h-3-1l-1 1h-1v1l-23 9-2 2-2 1-2 3-2 2-2 3-1 3-1 2-1 3v2l1 3v2l2 2 1 2 1 1 2 1h2 2 1l3 1h5l5-4 9-9-2 27-2 7-2 4-2 4-3 2-2 2-370-261 9-26 1-9 4-42v-2-2l-2-3-3-4-5-4-4-2-4-1h-3-2-1l-1 1-24 11-4 3-3 3-3 4-1 4-1 4v3l2 3 9 7 4 2 6-1 13-12-3 32-1 3-1 2-2 3-2 2-2 2-2 1-75-52 828-389 440-216 795-405 531-285z"/><g><path class="s1" d="M3154 6005l-85-62 64-624 23-26 256-108 1328-639 1012-524 913-5e2c119 94 211 303 363 398 74 46 161 66 239 102 61 29 117 69 172 109l125 132-1655 874-1166 568-724 342-38 506-29-6-772-529 19-102 48-572 2 1 92 65 694-326 256-120 79-40 301-151 285-142 133-66 189-95 184-99 162-88 234-126 202-111 276-153 215-127-11 42-8 38-6 32-4 33-2 27v25l3 37 7 29 12 31 16 28 22 25 20 17 30 19 44 19 45 14 45 10 60 10 41 4 50 3 31 2 56 1 52-1 50-3 53-2 84-2 55-5-35 25-184 118-60 31-54 29-45 24-37 20-34 18-41 22-55 29-29 16-81 43-94 50-71 36-157 85-190 102-162 87-194 97-293 147-253 127-231 115-116 53-108 51-58 27-110 51-86 39-72 34-126 58-188 88-151 69-52 25 7-86-98-70h-1l8-25 2-8 4-42v-4l-1-3-2-3-3-3-2-2-2-1-4-2-3-2h-3-2l-1 1-1 1-23 9-2 2-2 1-2 2-2 2-1 2-1 3-1 2-1 2-1 3v3l1 3 1 3 2 2 2 1 2 1h3 1l3 1h5l5-4 9-9-1 11-1 17-2 6-2 6-4 3-3 3-370-261 9-27 1-8 4-42-1-4-2-4-2-3-3-2-3-2-4-2-4-1h-2-2-1l-1 1-14 7-10 5-4 2-3 3-2 3-2 3-1 4v3l1 3 1 1v2l9 6 4 2 5-1 15-13-2 18-1 10-1 7-2 3-2 3-2 2-2 2-2 2-75-53-94-66-48 572-19 102-26-13" fill-rule="evenodd"/></g><path class="s3" d="M1884 3791h1l44-19"/><path class="s3" d="M3442 3080l-675-475"/><path class="s3" d="M4606 2548l-676-475"/><path class="s4" d="M5031 1564l-6e2 279-1269 581-12e2 548-9 4-28 11-46 16-24 12-647 3e2 675 478 748-343 1203-549 1271-582 606-275z"/><path class="s3" d="M2778 1564l42 26 7 22 36 24 17-1 20 11 2 17 36 26 23 2 19 12 5 19 34 25h23l18 10 8 23 37 25 21-1 17 12 3 18 37 27h22l17 11 6 21 36 24 19 3 21 15 2 14 35 23 29 4 37 32"/><path class="s3" d="M3353 2034l-44-29v-16l-44-30h-14l-21-10-2-7v-10l-41-28h-15l-21-9-6-12 1-8-32-25h-7-15l-21-16-3-5 1-8-42-30-18 3-20-14-3-18-39-26-14-1-12-3-9-8-5-10-2-9-36-27-11 1-13-3-12-9-5-11v-8l-41-25h-14l-51-33"/><path class="s3" d="M1247 2272l50 34-2 13 41 28 15 4 15-1 19 12 1 9-2 10 42 29 27 2 22 17v15l44 30h22l25 16v15l42 29 25 2 20 13v20l37 26 27 3 24 16v14l42 30 29 3 46 30"/><path class="s3" d="M1287 2251l505 355v31"/><path class="s3" d="M1287 2253v31"/><path class="s3" d="M1805 2474l-7 98"/><path class="s3" d="M1740 2471l-4 50v18l8 18"/><path class="s3" d="M1875 2474l-5 54-7 26-7 10"/><path class="s3" d="M1587 2410l-6-11-1-14 30-14 2 14 6 8"/><path class="s3" d="M1619 2371l96-40"/><path class="s3" d="M1506 2351l-5-5-5-9 2-11 29-10v10l6 10"/><path class="s3" d="M1536 2314l57-24 17-4"/><path class="s3" d="M1577 2281l-35 2-24-4-26-7h-14l-19 4-8 7-17-3-10-16 1-13 7-8 39-13 8-9 55-16"/><path class="s3" d="M1517 2250l31-8"/><path class="s3" d="M1432 2226l-19-3-15 4-8 12-4 19 5 25 11 20 19 14 15 5 13-2 10-10 1-9"/><path class="s3" d="M1792 2392l-25 12-16 3h-11l-49 23-3 14 5 12 15 5 18-5 16-3 19 2 28 6 21 2 22 1 26-5"/><path class="s3" d="M1783 2436l26-10"/><path class="s3" d="M1817 2425l28-3"/><path class="s3" d="M1556 2242l17-1 11-3"/><path class="s3" d="M1695 2408l-18-4-13 2-10 10-4 20 4 24 11 23 19 18 19 3 13-10 3-15"/><path class="s3" d="M1643 2257v23l-16 7-19-16-12-20-3-30 18-9 28-16 25-15 20-20 15-16 13-12 15-7"/><path class="s3" d="M1909 2446l-2 15-13 9-23-15-11-17-4-13 2-11"/><path class="s3" d="M1817 2421l-11-14v-25l7-11 11-6h13l3 4 22-10 25-7"/><path class="s3" d="M1856 24e2l31-7 30-4 27-3 38-1 29-3 28-6 33-10"/><path class="s3" d="M1907 2437l30-10 31-2h35l35-2 30-4 31-9 24-9"/><path class="s3" d="M1658 2275l109-18 109-18 24-6 16-8"/><path class="s3" d="M1622 2302l55-10 150 14 74 7h20l13-3"/><path class="s3" d="M1808 2292l121-51"/><path class="s3" d="M1629 2318l32 21"/><path class="s3" d="M1699 2367l43 25"/><path class="s3" d="M1751 2380l20 1h22"/><path class="s3" d="M1736 2343l-1 26"/><path class="s3" d="M1557 2235l-16-12 7-33 20-9"/><path class="s3" d="M1575 2187l51-24 12-11 39-40 22-17 16-9"/><path class="s3" d="M1647 2253l33-17 25-16 21-15 14-16 17-15 21-15"/><path class="s3" d="M1618 2223l35-14 28-18 24-21 22-21 16-12 19-12"/><path class="s3" d="M1829 2329l43 7 27 8 23 6 19 1 23-1 11-9"/><path class="s3" d="M2026 2344l-17 7-65-42 4-37 12-4"/><path class="s3" d="M1723 2220l36 26"/><path class="s3" d="M1703 2235l27 16"/><path class="s3" d="M1774 2284l19 11"/><path class="s3" d="M1822 2145l-1 15-10 11-21-16-12-11-3-12-1-11 1-7"/><path class="s3" d="M1753 2209l-1 22 81-38"/><path class="s3" d="M1747 2121l-9-3-16-11 2-22 1-11 11-9 8-4"/><path class="s3" d="M1749 2068l20-6 26-4 24-7 27-9 29-14 32-18 27-17 19-14 10-7"/><path class="s3" d="M1769 2104l31-9 35-10 26-8 32-15 31-16 30-19 20-14 7-7"/><path class="s3" d="M1606 2155v-12l-22-19"/><path class="s3" d="M1485 2190l54-26"/><path class="s3" d="M1523 2143l28 27 24-11-28-26"/><path class="s3" d="M1478 2211l-40-29"/><path class="s3" d="M1375 2235l-4 13 2 17-4 12-15 5"/><path class="s3" d="M1611 2133l52-21"/><path class="s3" d="M1755 2205l49-23"/><path class="s3" d="M1772 2334l37 20"/><path class="s3" d="M2189 2386l-11 15-19 11-24-16-10-10-5-16 2-17"/><path class="s3" d="M2120 2411l5 10 14 1"/><path class="s3" d="M2099 2372l-19-12-10-10-1-12 1-14 7-10"/><path class="s3" d="M2169 2379l30-9 32-9 21-7 23-7 14-6 30-17 28-18 21-16 14-8"/><path class="s3" d="M2140 2351l29-10 27-7 35-12 33-13 30-13 31-19 29-20"/><path class="s3" d="M2120 2343l39-14 33-8 36-15 38-17 29-19 36-23"/><path class="s3" d="M2102 2309l28-10 33-9 43-17 30-13 29-19 24-14 23-16"/><path class="s3" d="M2208 2241l-5 20"/><path class="s3" d="M2001 2328l254-119"/><path class="s3" d="M1986 2312l246-119"/><path class="s3" d="M1971 2295l215-102"/><path class="s3" d="M2033 2337l24-6"/><path class="s3" d="M2024 2322v19"/><path class="s3" d="M2001 2232l2 24-19 10-60-41 4-38 15-5 14 8"/><path class="s3" d="M1983 2235l68-29 157-27"/><path class="s3" d="M1966 2222l77-36 173-29"/><path class="s3" d="M1934 2218l105-51 186-32 38-6 247-116"/><path class="s3" d="M1950 2306l27-14"/><path class="s3" d="M1588 2411l33-16"/><path class="s3" d="M1628 2389l134-56"/><path class="s3" d="M1508 2350l25-10"/><path class="s3" d="M1542 2334l60-25 295 25 27 2 21-4"/><path class="s3" d="M1730 2282l108-16"/><path class="s3" d="M1860 2295l85-40"/><path class="s3" d="M1822 2172l76 54"/><path class="s3" d="M1814 2139l34-12 27-5 30-9 37-16 33-19 30-20 30-17"/><path class="s3" d="M1998 1941l-21 16v30l17 12 21 7-23 16-17 13-30 17-17 9"/><path class="s3" d="M2005 1949l55-14 63-20 44-19 48-29 45-26 27-19"/><path class="s3" d="M2080 2022v17l-13 10-23-16-13-14-4-12 3-20"/><path class="s3" d="M2028 1978l56-14 37-9 34-13 42-19 40-23 36-23 28-22"/><path class="s3" d="M2341 1852l-23 16-31 21-37 23-30 17-30 13"/><path class="s3" d="M2075 2020l39-13 47-11 54-23 55-26 47-31 27-19 10-7"/><path class="s3" d="M2366 2001l-3 35-25 13-97-71"/><path class="s3" d="M2350 2028l-85-57"/><path class="s3" d="M2324 2087l-133-91"/><path class="s3" d="M2265 2116l-25-18 3-46-70-48"/><path class="s3" d="M2245 2094l19-9 26 15"/><path class="s3" d="M1920 2174l-55-38"/><path class="s3" d="M1940 2123l-3 48"/><path class="s3" d="M1948 2126l57 39"/><path class="s3" d="M1822 2036l-25-16v22"/><path class="s3" d="M2031 2224l29 19"/><path class="s3" d="M2068 2213l25 16"/><path class="s3" d="M2144 2271l17 10"/><path class="s3" d="M2101 2145l-84-57-25 9-1 20 7 15 36 21"/><path class="s3" d="M2017 2059v28"/><path class="s3" d="M1954 1975l1-40"/><path class="s3" d="M2285 2223l-60-47 3-30"/><path class="s3" d="M2303 2190l-3 27"/><path class="s3" d="M2283 22e2l261-125"/><path class="s3" d="M2261 2181l263-122"/><path class="s3" d="M2234 2171l276-130"/><path class="s3" d="M2328 2074l83-44-34-30"/><path class="s3" d="M2317 2045l-2 33"/><path class="s3" d="M2215 2074l-4 50"/><path class="s3" d="M2164 2095v34"/><path class="s3" d="M2120 2117l-2 25"/><path class="s3" d="M2087 2122l133-63"/><path class="s3" d="M2053 2093l134-61"/><path class="s3" d="M2230 2012l25-11"/><path class="s3" d="M2295 1981l115-55"/><path class="s3" d="M2333 2003l114-52"/><path class="s3" d="M2270 2036l18-7"/><path class="s3" d="M2081 1913l-28-16"/><path class="s3" d="M2047 1923l-26-11"/><path class="s3" d="M2135 1896l2-20-2-18"/><path class="s3" d="M2181 1871v-19-15"/><path class="s3" d="M2428 2262l-2 24-15 5-19-16-11-13-5-17 2-20 56-20 34-13 46-18 32-14 32-18 37-21 34-23"/><path class="s3" d="M2364 2235l-13 11-13-7-16-17 6-25 13-10h14"/><path class="s3" d="M2362 2190l56-20 44-16 42-15 37-20 94-56"/><path class="s3" d="M2414 2144l12 11"/><path class="s3" d="M2456 2205l35-6 35-12 39-16 36-20 34-22 30-18 20-12"/><path class="s3" d="M2699 2129l-37 28-41 27-37 22-42 17-50 18-38 8-32 9"/><path class="s3" d="M2599 2056l-3 24"/><path class="s3" d="M2585 2084l-70-47 4-26"/><path class="s3" d="M2502 2006l-26-21 43-21 30 21"/><path class="s3" d="M2521 2006l37-16v-26"/><path class="s3" d="M2576 2058l40-15 28-13 20-12 10-16-3-17-7-12-90-77-10-7-8-6v-10l12-10 78-37"/><path class="s3" d="M2556 2041l36-16 20-13 6-10 1-14-3-15-8-13-89-68-13-10 2-14 13-11 105-52"/><path class="s3" d="M2538 1860l-3 15 4 16"/><path class="s3" d="M2634 1970l12 10 5 18-6 5-19 11"/><path class="s3" d="M2485 1963l-84-59"/><path class="s3" d="M2398 1870l1 21-14 5-20-14-11-14-6-18"/><path class="s3" d="M2365 1904l-42 21"/><path class="s3" d="M2331 1856l-16-6-22-13 2-23 11-16 19-11 21-9"/><path class="s3" d="M2339 1833l47-12 35-10 33-11 24-13 33-21 35-23 13-7"/><path class="s3" d="M2402 1866l43-14 36-12 41-19 40-19 24-15 28-16"/><path class="s3" d="M2539 2024l39-15 16-11 1-12-6-13-90-65-14-17-1-18 2-16"/><path class="s3" d="M2471 1882l-26-19"/><path class="s3" d="M2671 1963l-2-22-12-21-53-63"/><path class="s3" d="M2626 1925l-51-53"/><path class="s3" d="M2592 1734l-24 21-22 13-25 17-25 12-32 10"/><path class="s3" d="M2679 1970l59 38"/><path class="s3" d="M2675 2099l-7-6h-10l-14-14 2-23 8-18 15-13"/><path class="s3" d="M2762 2113l-3 15-22 11-9 3-19-14-11-19-3-17 2-6"/><path class="s3" d="M2698 2144l9 10 11-6"/><path class="s3" d="M2689 2076l60-19 36-13 27-12 37-20 56-33"/><path class="s3" d="M2681 2043l58-24 45-16 34-20 43-23 26-17"/><path class="s3" d="M2944 1975l-30 18-29 19-30 19-26 13-30 10"/><path class="s3" d="M2958 2012l-39 26-31 19-30 16-37 16-39 10-37 9"/><path class="s3" d="M2338 1795l57-16 37-11 40-21 34-20 19-16 16-13"/><path class="s3" d="M2791 1805l-9 179"/><path class="s3" d="M3004 2003l-3 13-10 6-26-18-9-13-5-13 2-17"/><path class="s3" d="M2923 1977l-11-6-13-10v-23l4-15"/><path class="s3" d="M2842 1941l23-9v-25l17-10 29 16"/><path class="s3" d="M2831 1961l-36-25"/><path class="s3" d="M2869 1889l-68-55"/><path class="s3" d="M2916 1852l-118-83"/><path class="s3" d="M2922 1915v-28l6-20 5-9 10-1 13 4 6 13"/><path class="s3" d="M2941 1896l8-7h12l10 1"/><path class="s3" d="M2936 1918l50-15 48-17 32-13 22-10"/><path class="s3" d="M2630 1863l161-74"/><path class="s3" d="M2842 1766l14-6"/><path class="s3" d="M2998 1991l40-13 30-10 31-8 30-12 30-13 22-13"/><path class="s3" d="M2975 1960l40-16 33-9 31-9 29-8 30-16"/><path class="s3" d="M3011 1931l35-9 36-15 46-24"/><path class="s3" d="M2902 1876l-54-38-46-35"/><path class="s3" d="M2678 1829l-53-39v-11"/><path class="s3" d="M2635 1773l-17-10-10-12-6-17"/><path class="s3" d="M2595 1732l-27-2-18-12 3-30 15-13 14-3"/><path class="s3" d="M2589 1677l51-17 42-11 30-9 31-17"/><path class="s3" d="M2595 1712l60-14 41-12 42-14 53-28"/><path class="s3" d="M2645 1748l48-18 46-13 30-8 29-11 31-15"/><path class="s3" d="M2705 1808l-2 16"/><path class="s3" d="M2679 1809l57-26 52-26 28-9 25-1 18 4 119 73 23 10 27 3 26-3"/><path class="s3" d="M2663 1787l58-21 41-22 36-16 30-4 25 1 33 13 37 25 32 22 27 17 22 7 27 2"/><path class="s3" d="M2630 1779l108-47"/><path class="s3" d="M2831 1696l27 2 21 8 19 12"/><path class="s3" d="M2655 1646l-18-15"/><path class="s3" d="M2713 1596l-3 30"/><path class="s3" d="M1795 2606l412-193 297-141 288-135 237-113 184-84"/><path class="s3" d="M1820 2654l358-167 447-208 344-163 3e2-142"/><path class="s3" d="M1833 2654l56-7 15 2 11 2 8 9-4 9"/><path class="s3" d="M1895 2635l475-212 564-250 363-163"/><path class="s3" d="M3036 2089l23 15"/><path class="s3" d="M3006 2101l31 24"/><path class="s3" d="M3117 2054l30 21"/><path class="s3" d="M3139 2038l33 21"/><path class="s3" d="M1839 2717l1637-728 1124-524L5647 973"/><path class="s3" d="M1889 2762l123 90"/><path class="s3" d="M1863 2757l-171 70"/><path class="s3" d="M1209 2279l-155 73"/><path class="s3" d="M1207 2272l-128-94"/><path class="s3" d="M1247 2272l-26 14"/><path class="s3" d="M2820 1760l121 83"/><path class="s3" d="M1299 2285l450 311"/><path class="s3" d="M2725 1587l51-23"/><path class="s3" d="M3355 2032l47-22"/><path class="s3" d="M2976 1606l-2 14-15 6-23-13-11-11-4-24"/><path class="s3" d="M2906 1585l-22-4-13-15-2-25 14-15 14-10"/><path class="s3" d="M3154 1818l30-11 21-14"/><path class="s3" d="M3197 1842l25-13"/><path class="s3" d="M3251 1831l-16-10-15-10-2-19 4-18 13-12 13-4"/><path class="s3" d="M3322 1846l-4 11-15 11-16-13-13-19-2-15v-12"/><path class="s3" d="M3344 1844l-26 75"/><path class="s3" d="M3251 1876l11-12 14-6"/><path class="s3" d="M3220 1855l22-16 17-11"/><path class="s3" d="M3273 1878l3 13"/><path class="s3" d="M3281 1911l10-11 8-5 11 7 1 14-3 11"/><path class="s3" d="M3153 1786l245-110"/><path class="s3" d="M3130 1771l244-113"/><path class="s3" d="M3122 1752l235-109"/><path class="s3" d="M3117 1735l-9-5-12 4-3 47 15 10"/><path class="s3" d="M3082 1742l-19 9"/><path class="s3" d="M3094 1715l-121-80"/><path class="s3" d="M3011 1673l-28 21"/><path class="s3" d="M2981 1653l-30 19"/><path class="s3" d="M2933 1625l-25 15"/><path class="s3" d="M2912 1585l-43 28"/><path class="s3" d="M2874 1589l-18 11"/><path class="s3" d="M2854 1552l-17 12-14 11"/><path class="s3" d="M3142 1734l-14-11 6-32"/><path class="s3" d="M3113 1689l43-25 27 19"/><path class="s3" d="M3149 1684l18 10"/><path class="s3" d="M3149 1709l49-20 67-53 147-65 23-11 56-11 173-80 33-18"/><path class="s3" d="M3236 1687l42-36 156-70"/><path class="s3" d="M3404 1620l261-125"/><path class="s3" d="M3408 1642l268-124"/><path class="s3" d="M3434 1655l264-121"/><path class="s3" d="M3247 1773l37-15 41-12 43-17 44-25 33-20 20-11"/><path class="s3" d="M3427 1684l-59-42 3-21"/><path class="s3" d="M3450 1651l-3 25"/><path class="s3" d="M3356 1702l-3 28"/><path class="s3" d="M3327 1741l-26-15"/><path class="s3" d="M3212 1666l-135-92"/><path class="s3" d="M3126 1668l-109-73"/><path class="s3" d="M3089 1593l-1 45"/><path class="s3" d="M3296 1606l-8-21-7-7h-12l-7 7 1 26-2 10-7 4-104-69-8-8-5-11"/><path class="s3" d="M3178 1777l24 12"/><path class="s3" d="M3265 1804l59-19 39-14 39-15 28-16 51-33"/><path class="s3" d="M3516 1707l-39 29-37 20-36 21-51 12"/><path class="s3" d="M3312 1839l63-17 41-10 49-25 47-33 20-12"/><path class="s3" d="M2970 16e2l68-23 67-27 46-29 33-22"/><path class="s3" d="M2944 1565l87-25 57-25 49-29 31-18"/><path class="s3" d="M3127 1470l-41 27-40 24"/><path class="s3" d="M2899 1530l82-25 57-23 42-24 35-25"/><path class="s3" d="M3046 1462v-23"/><path class="s3" d="M3184 1524l69 41 2-33"/><path class="s3" d="M3475 1544l-136-90"/><path class="s3" d="M3314 1464l73 45v47l27-12 10 6"/><path class="s3" d="M3367 1513l-4 70"/><path class="s3" d="M3235 1532l93-43"/><path class="s3" d="M3383 1462l82-35"/><path class="s3" d="M3231 1480l-4 21-10 6-25-14-12-25 2-17"/><path class="s3" d="M3170 1458l-8 8-17-4-22-15 4-31 10-12 14-4"/><path class="s3" d="M3162 1408l61-16 40-13 55-31 45-30"/><path class="s3" d="M3174 1441l67-14 63-25 73-47"/><path class="s3" d="M3223 1478l81-22 43-19 53-31 26-20"/><path class="s3" d="M3410 1348l-29 25-38 25-25 10"/><path class="s3" d="M3402 1348l-23-6-6-18 6-25 15-14 24-13"/><path class="s3" d="M3475 1384l-16 12-19-17-16-22v-21"/><path class="s3" d="M3444 1330l35-12 26-19 45-53"/><path class="s3" d="M3410 1289l47-21 46-37"/><path class="s3" d="M3418 1326l35-17 34-16 18-15"/><path class="s3" d="M3345 1882l204-96 296-139 257-124 262-121"/><path class="s3" d="M3355 1936l402-191 343-161 301-141"/><path class="s3" d="M3394 1975l45-9 19-2 9 15"/><path class="s3" d="M3416 1958l1036-485"/><path class="s3" d="M3418 2049l-26-20"/><path class="s3" d="M3942 1032l45 29 4 16 34 24h23l15 7 4 23 37 24h22l18 13v17l41 29 17-1 25 15v12l40 30 19-1 17 12 4 17 36 26h18l22 14 3 14 43 32 16-1 22 13-1 14 37 27 21-1 45 30"/><path class="s3" d="M4567 1467l-55 26-40-25-6-7 1-10-33-27-19 1-21-9-7-11 2-12-42-27h-18l-14-9-7-7 2-11-41-27h-11l-23-11-6-10 1-7-39-30-17 2-22-13-2-17-39-27-14 2-15-8-6-6-4-12-35-29-18 1-16-4-6-9-6-16v-6l-33-20-28-3-39-31"/><path class="s3" d="M5013 536l30 25-1 12 33 26 14-3 12 3 28 21 1 18 32 21 16-4 41 26-3 16 33 23 18-3 40 27-2 12 32 25 15-2 42 25v15l28 19 19 2 41 26-2 15 28 21 21-1 40 25-2 11 55 42"/><path class="s3" d="M5709 1001l149-66"/><path class="s3" d="M5708 1010l112 71"/><path class="s3" d="M4897 439l133 91 179-80"/><path class="s3" d="M3577 1727l-2 15-11 10-20-14-14-15-4-18"/><path class="s3" d="M3499 1707l-10-4-14-11-2-20 6-17 12-12"/><path class="s3" d="M3821 1614l-2 15-14 6-19-15-12-16-4-17"/><path class="s3" d="M3762 1581l-10 8-31-12v-29"/><path class="s3" d="M3709 1556l-53 35-51 29-32 15-37 4-24 14"/><path class="s3" d="M3748 16e2l-47 31-41 24-43 17-65 18"/><path class="s3" d="M3772 1629l-51 37-43 22-59 21-42 12"/><path class="s3" d="M3721 1594l-36 24-53 31"/><path class="s3" d="M3585 1622l-25-16"/><path class="s3" d="M3546 1381l-4 52-26 8-51-29"/><path class="s3" d="M3479 1396l47 29"/><path class="s3" d="M3554 1429l23 2 8-12v-17"/><path class="s3" d="M3579 1437l20 14 16 11 11-13"/><path class="s3" d="M3626 1464l16 6"/><path class="s3" d="M3723 1534l-53-39 4-21"/><path class="s3" d="M3672 1451l-146-103"/><path class="s3" d="M3621 1258l-12 12-22-14-35-39 12-17"/><path class="s3" d="M3579 1264l-33 43-24 25-25 16-28 17"/><path class="s3" d="M3766 1571l28-15 45-6 41-8 30-10 25-17"/><path class="s3" d="M3733 1538l43-12 39-9 42-4 29-10 24-17"/><path class="s3" d="M3967 1495l-20 18-24-16-9-31 11-10"/><path class="s3" d="M4028 1390l-20 37-16 27-23 28"/><path class="s3" d="M3965 1414l-14 23-18 19"/><path class="s3" d="M3864 1561l-19 24-28 25"/><path class="s3" d="M3921 1540v31l-15 20-44 23-15-8"/><path class="s3" d="M3735 1513l289-134"/><path class="s3" d="M3709 1499l295-138"/><path class="s3" d="M3707 1476l279-130"/><path class="s3" d="M3744 1429l234-109 160-81"/><path class="s3" d="M3727 1464l-18-10 4-31"/><path class="s3" d="M3687 1419l44-25 33 25"/><path class="s3" d="M3815 1480l22 17"/><path class="s3" d="M3874 1456l-12 22-15 27"/><path class="s3" d="M3914 1460l-10-6-6-13"/><path class="s3" d="M3562 1309l141 91"/><path class="s3" d="M3626 1281l46 41 45 26"/><path class="s3" d="M3729 1379l19-24 14-2 18 16 51-25"/><path class="s3" d="M3664 1322v45"/><path class="s3" d="M3662 1159l-47 82"/><path class="s3" d="M3605 1180l-30 37"/><path class="s3" d="M4034 1406l88-35 20-20 27-5 61-30"/><path class="s3" d="M4059 1390l-59-46 2-24"/><path class="s3" d="M4057 1365l87-39"/><path class="s3" d="M4041 1344l148-66"/><path class="s3" d="M4028 1324l131-60"/><path class="s3" d="M4142 1305l8 19 11 2 26-13-16-8-4-12"/><path class="s3" d="M4189 1283l4 12h16"/><path class="s3" d="M3992 1305l-25-20 2-50 72 46"/><path class="s3" d="M3967 1281l23-9 30 25"/><path class="s3" d="M4024 1248l78-35"/><path class="s3" d="M3874 1338l-17 2-34-18-6-11-25-14-40-21-21-18-18-23-20-6"/><path class="s3" d="M3640 1219l270-124"/><path class="s3" d="M3668 1178l222-99"/><path class="s3" d="M3884 1326l-53-37-43-31-51-33-32-23"/><path class="s3" d="M3815 1258l49-29 30-25 86-76"/><path class="s3" d="M3790 1229l65-45 80-72"/><path class="s3" d="M3752 1211l30-25 29-27"/><path class="s3" d="M3678 1223v47l-8 17-10 10"/><path class="s3" d="M3884 1307l67-35"/><path class="s3" d="M3951 1173l-2 48-6 35"/><path class="s3" d="M3634 1808l-2 43"/><path class="s3" d="M3609 1814l-2 48"/><path class="s3" d="M3598 1866l-43-24"/><path class="s3" d="M3536 1897l-35-24"/><path class="s3" d="M3978 1693l-45-29"/><path class="s3" d="M4581 1508l-30-20"/><path class="s3" d="M4404 1099l-2 37-2 32-22 24-23 20-52 15-21 2-15 9"/><path class="s3" d="M4359 1110l-9 39"/><path class="s3" d="M4378 1140l-23 22-50 13-28 11-30 11-15 6"/><path class="s3" d="M4243 1229l32-22 41-15 28-6"/><path class="s3" d="M4389 1205l17 20 67 39 15 13"/><path class="s3" d="M4316 1153l-28-26-17-6"/><path class="s3" d="M4342 1140l-82-58 7-11 40-22 20-20 21-10 41-9 26-2 15-5 58-28 17 4 86 53 8 15-8 8-82 42-17 21-77 35"/><path class="s3" d="M4331 1110v-33l-13-11 67-34 25 13 3 17-15 17-61 31"/><path class="s3" d="M4421 1045l24 8 15 15-2 24-15 9-26 7"/><path class="s3" d="M4413 1173l68 48 17 19 5 13 2 30-35 87"/><path class="s3" d="M3998 1060l60-22 41-4 22-2 6-11-49-37-20-5-15 3-2 15 2 19-64 22"/><path class="s3" d="M4232 1186l43-20 17-15"/><path class="s3" d="M4185 1136l-6 13-3 15"/><path class="s3" d="M4174 1101l-17 20-11 13-10 19"/><path class="s3" d="M4239 1118l-5 22-12 7-24-20-11-13-2-15"/><path class="s3" d="M4252 899l2 120-15 15-43 17"/><path class="s3" d="M4202 1073l-28 6-8-30-24-13"/><path class="s3" d="M4157 1025l19-9 28 13"/><path class="s3" d="M4232 1051l20 15"/><path class="s3" d="M4155 1003l-56-41"/><path class="s3" d="M44e2 1003l-45-63 12-1e2"/><path class="s3" d="M4361 1006l-28-55 4-93"/><path class="s3" d="M4340 1012l-30-46 4-97"/><path class="s3" d="M4328 1236l18-5 10 10-1 29-32 18"/><path class="s3" d="M4059 1059l38 27 29-12 1-31"/><path class="s3" d="M4117 1070l-32-23"/><path class="s3" d="M4367 1273l26 16 16 20 21 11v23l4 18 3 14 9-16 14-2 7 11"/><path class="s3" d="M4452 1338l-16-22-39-73"/><path class="s3" d="M4548 1439l57-10 12 1 6 11"/><path class="s3" d="M4534 945l-15 10-25-23-13-18 3-18"/><path class="s3" d="M4532 870l-15 6-16-18 5-39"/><path class="s3" d="M4489 876l-81-57"/><path class="s3" d="M4494 830l-38-29"/><path class="s3" d="M4395 968l43-41 20-23 33-16"/><path class="s3" d="M4448 868l-22 18-26 23-20 15-13 13"/><path class="s3" d="M4486 945l-30 13-23 20"/><path class="s3" d="M4529 922l43-23 28-13 48-41 33-31 15-10"/><path class="s3" d="M4742 809l-18 8-23-16-10-12V768"/><path class="s3" d="M46e2 832l-18 21-22 10-51 23"/><path class="s3" d="M4522 830l20-11 20-7"/><path class="s3" d="M4522 771l83 51 15 10 36-8-8-23-86-53"/><path class="s3" d="M4868 1001 4678 876l-7-11-15-7"/><path class="s3" d="M4906 986 4759 883l-15-23-55-30"/><path class="s3" d="M4567 919l-2 67"/><path class="s3" d="M4506 1132v33"/><path class="s3" d="M4484 1198l242-120 41 2 106-51 3-20h28l75-31 8-26 15 6"/><path class="s3" d="M4671 886l-15 123 15 30v21l30 18"/><path class="s3" d="M4633 1106l-23-18h-35"/><path class="s3" d="M4643 791l35-23"/><path class="s3" d="M4610 763l33-28"/><path class="s3" d="M4651 712l55 59 33-23-66-44"/><path class="s3" d="M4721 796l46-25-20-13"/><path class="s3" d="M4979 952l-55-46-58-36-28-12-23-21-20-7-20-11-18-7 2-18 36-5 210 138"/><path class="s3" d="M4797 970l-25 90"/><path class="s3" d="M4830 863l-15 51"/><path class="s3" d="M4785 1016l48-23"/><path class="s3" d="M4888 970l33-23"/><path class="s3" d="M5020 919l291-138"/><path class="s3" d="M4514 1329l154-57 367-169 23 16"/><path class="s3" d="M4519 1390l536-253"/><path class="s3" d="M4562 1418l503-228"/><path class="s3" d="M5103 1198l-30-20 8-103"/><path class="s3" d="M4780 1275l43 20"/><path class="s3" d="M4997 1165l8 36"/><path class="s3" d="M4949 998l-119 80-20 18-13 25-5 26 5 15 23 11 23 2 28-15 184-92 71-34 63-25 31-11 30-15 23-31 5-35-15-26-23-8-152 59-96 46-30 13"/><path class="s3" d="M5225 955l-137 56-144 67-109 66"/><path class="s3" d="M5083 1080l28 13h23l45-33h31l25-23 43-8 15-23 202-95"/><path class="s3" d="M5106 1185l470-222"/><path class="s3" d="M5285 965l185-92"/><path class="s3" d="M5101 1103l40 29"/><path class="s3" d="M5167 1083l-6 74"/><path class="s3" d="M5220 1060v49"/><path class="s3" d="M5156 1109l46-16"/><path class="s3" d="M5237 1050l74 25"/><path class="s3" d="M5263 1073l-3 41"/><path class="s3" d="M4936 714l11-7 15-3 12 8"/><path class="s3" d="M5013 536 1249 2264"/><g><path class="s4" d="M6436 5337l-9 50-2 26-1 18-1 17v17c1 16 2 31 4 46 2 14 5 28 9 41 4 13 8 26 14 38 4 9 8 18 13 26 5 8 10 16 16 23 6 8 13 15 20 22 9 9 19 17 29 25 11 7 23 15 36 22 12 6 26 13 40 19l14 5 14 4 19 6 19 6 20 5 20 4 19 4 20 4 20 3 41 5 41 4 52 3 66 2h70l34-1 101-4 74-5-75 46-13 8-724 389-659 328-310 149-1032 507-693-488 1035-508 880-462 665-375 30-16 26-14 26-14 32-18v33" fill-rule="evenodd"/></g><path class="s3" d="M5501 6675l-693-488"/><path class="s3" d="M3948 5905l468-218 359-166 308-143 348-174 328-165 351-181 367-197 324-171 244-134 95-50 90-59 65-50-123 11-121 6-116-2-126-11-86-17-60-15-50-27-45-37-30-43-18-62 2-76 7-81 22-81-151 93-168 96-238 132-187 102-295 156-289 157-353 175-193 96-248 125-356 174-249 114-224 107-246 116"/><path class="s3" d="M3819 5208l131 94 140 99 151 105 189 134"/><path class="s3" d="M3886 6401l3-1"/><path class="s3" d="M3412 5460l-163-115-47 570 687 485 47-571-97-69"/><path class="s3" d="M3448 5486l358 251"/><path class="s3" d="M3369 5481l-96-67-17 219 56 41 5 5 5 7 4 9 1 8v9l-1 30-2 6-2 4-4 3-4 1-4-1-6-3-55-38-15 183 131 92 365 257 130 93 13-184-38-27-17-14-10-11-4-12-3-13 3-34 4-10 7-4 6 1 60 41 19-218-72-49"/><path class="s3" d="M3768 5762l-41-30 13 55-20 267-26 68 28 23"/><path class="s3" d="M3321 5705l-65-45-1 26 65 43"/><path class="s3" d="M3810 6049l68 46-3 27-68-48"/><path class="s3" d="M3687 6212l5-83"/><path class="s3" d="M3712 6144l-6 80"/><path class="s3" d="M3432 5526l15 10 17 53-22 270-27 71-18-14"/><path class="s3" d="M3396 5922l-7 78"/><path class="s3" d="M3413 5934l-6 79"/><path class="s3" d="M3543 5683l2-3 1-4v-4l-3-4-4-2-7 1-14-8-1 13"/><path class="s3" d="M3552 5697l1-14-6-4"/><path class="s3" d="M3639 5750l2-3v-4-5l-2-4-5-1-6 1-14-8-1 13"/><path class="s3" d="M3648 5763l1-14-6-4"/><path class="s3" d="M3531 5827l2-3 1-4v-5l-3-4-4-1-7 1-14-8-1 13"/><path class="s3" d="M3540 5840l1-14-6-4"/><path class="s3" d="M3626 5894l2-3 1-4v-5l-3-3-4-2-6 1-14-8-1 13"/><path class="s3" d="M3636 5908l1-14-6-5"/><path class="s3" d="M3518 5971l2-3 1-5v-4l-3-4-4-1h-6l-14-8-1 14"/><path class="s3" d="M3528 5984l1-14-6-4"/><path class="s3" d="M3615 6039l2-3v-5-4l-2-4-4-1-7 1-14-8-1 13"/><path class="s3" d="M3624 6052l1-14-6-4"/><path class="s3" d="M3553 5597h-9l-6 65"/><path class="s3" d="M3536 5681l-11 126"/><path class="s3" d="M3524 5826l-10 125"/><path class="s3" d="M3511 5969l-4 55 1 9 4-3v-1l9-1 2-1"/><path class="s3" d="M3580 5674l-28 345"/><path class="s3" d="M3643 5669l-5 2-6 58"/><path class="s3" d="M3632 5748l-11 124"/><path class="s3" d="M3620 5892l-11 126"/><path class="s3" d="M3608 6038l-4 48-1 12h5l1-4h3l2-7v-4"/><path class="s3" d="M3473 5573l62 43"/><path class="s3" d="M3552 5627l79 55"/><path class="s3" d="M3647 5695l53 35-15 211"/><path class="s3" d="M3647 5716l37 27-30 356-38-27"/><path class="s3" d="M3533 5634l-46-32-29 359 43 32"/><path class="s3" d="M3520 6006l79 54"/><path class="s3" d="M3551 5646l78 55"/><path class="s3" d="M3389 5468l17-2 10-3 7-5 3-9 1-10 2-22-4 3-10 10h-5l-8-4-6-6-1-7 3-8 6-7 30-14 8 1 6 6 6 5 2 7-4 46-33 104-2 19 6 7 3 6 1 6-3 6-5 2-6-1-24-17-6-5-3-6v-8l1-6 5-3 5 1 2-20-14-48v-5l-4-5-3-5-1-11 6-5h8l9 10"/><path class="s3" d="M3785 5748l17-2 10-4 7-5 3-8 1-10 3-22-5 2-10 11-5-1-7-4-7-5-1-7 3-8 6-7 30-14 8 1 7 5 5 6 2 6-4 46-33 104-2 19 6 7 3 6 1 7-3 6-4 2-7-2-24-16-5-5-4-7v-8l2-6 4-3 6 1 1-20-14-47v-5l-4-5-3-6v-11l5-5 8 1 9 9"/><path class="s3" d="M42e2 5745l-4-14-5-12-7-12-8-11-12-11-11-4h-11l-9 3-5 4"/><path class="s3" d="M4182 5756l-3-17-36-29-21-6-46 17 3 15 35 29 20 6 12-2"/><path class="s3" d="M4115 5686h-7l-4 3-2 7"/><path class="s3" d="M4092 5695l-4 2-2 6 1 7"/><path class="s3" d="M3513 5339l4 18 41 28 20 5 46-21-7-15-39-29-20-3"/><path class="s3" d="M3848 5413l10-4 10-2 13 1 14 5 25 19-25 13-18-13-5-1-5 1-289 136"/><path class="s3" d="M3868 5426l-42-28-296 137"/><path class="s3" d="M3755 5695l39-17"/><path class="s3" d="M3840 5657l210-96 3-2 1-2-1-3-17-12 26-12 24 18 6 7 1 7-2 7-6 4"/><path class="s3" d="M4066 5563l40 28-252 117"/><path class="s3" d="M4259 5601l-380 172"/><path class="s3" d="M4126 5614l-263 122"/><path class="s3" d="M3605 5390l73 51"/><path class="s3" d="M3752 5493l29 21 20 7 19 5 16-1 16-6 94-41"/><path class="s3" d="M3478 5373l1 20 11 19 18 16 83 59"/><path class="s3" d="M3664 5537l43 28 23 11 32 10 21 2 30-1 27-2 33-9 126-59"/><path class="s3" d="M3755 5650l262-113"/><path class="s3" d="M3782 5674l-31-17"/><path class="s3" d="M3631 5552l47 31 42 25 16 11 15 6"/><path class="s3" d="M3557 5502l-47-33-44-33"/><path class="s3" d="M3761 5567l-70-43"/><path class="s3" d="M3612 5468l-76-54"/><path class="s3" d="M3533 5376l-16 28"/><path class="s3" d="M3754 5511l-20 35"/><path class="s3" d="M3766 5404l-80-56-1-18-2-15-3-3-9-9 1-8 6-3 25-9h5l15 10-10 40v3l82 56"/><path class="s3" d="M3688 5348l21-9"/><path class="s3" d="M3729 5390l-5-2h-8l-6 2-4 3-1 4 2 5 5 4 7 2h7l4-1"/><path class="s3" d="M3945 5872l205-93"/><path class="s3" d="M4196 5757l173-83 76-33 289-138 218-106 56-25 388-196 208-104 239-117 262-137 248-135 246-133 214-121 262-147 78-3"/><path class="s3" d="M4344 5655l-136 61"/><path class="s3" d="M4091 5770l-143 65"/><path class="s3" d="M4197 5533l16-8"/><path class="s3" d="M4235 5561l16-9"/><path class="s3" d="M4211 5553l-5 12-71 34-20-13 76-33 5-11"/><path class="s3" d="M4220 5568l-8 15-46 21-17 3-9-5"/><path class="s3" d="M4174 5540l-16 1-46 21-9 16 7 5"/><path class="s3" d="M4035 5509l-9-7-7-2h-5l-5 2-3 3v3"/><path class="s3" d="M4050 5518l-20 11"/><path class="s3" d="M4028 5529l-11-8-3-5-63-44"/><path class="s3" d="M4107 5476l20-10 1-4"/><path class="s3" d="M4091 5464l19-8 5-1"/><path class="s3" d="M4101 5442l-18 6-3 3-10 4"/><path class="s3" d="M4064 5465l-21 9-4 3 3 7 27 18 5 1 8-2 18-9 2-5"/><path class="s3" d="M4062 5458l-9-3h-4l-25 11-2 3v4"/><path class="s3" d="M4038 5509l2-11 4-1 4 1 3 3 2 5-2 10"/><path class="s3" d="M4072 5510l21 15"/><path class="s3" d="M4098 5538l1-15 5 3 5 19-7 3-4 2-1 4 1 5"/><path class="s3" d="M3955 5453l5 3 1 7-2 3-3 2-6 1h-6l-3-2-5-4"/><path class="s3" d="M3934 5464l-13-9 22-11"/><path class="s3" d="M3910 5440v5l5 4 6 2"/><path class="s3" d="M3939 5441l3-7 4-3h3l4 2 2 5 3 6-2 7"/><path class="s3" d="M4006 5408l-1 23-16-11-25 12"/><path class="s3" d="M3991 54e2l-21 9-1 18"/><path class="s3" d="M4001 5433l-23 11-13-9"/><path class="s3" d="M3995 5441l26 20"/><path class="s3" d="M4013 5434l27 19"/><path class="s3" d="M4017 5491l-13-9 14-7"/><path class="s3" d="M4005 5473l-32-20 9-5"/><path class="s3" d="M3892 5320l18-9"/><path class="s3" d="M3930 5348l20-10"/><path class="s3" d="M3954 5427l-57-38"/><path class="s3" d="M3874 5319l-4 10-68 33 12 10"/><path class="s3" d="M3896 5333l-6 13-72 35 23 15 38-20 25-13 7-5 2-4-1-6"/><path class="s3" d="M3856 5315l-20 1-46 22-8 15 9 7"/><path class="s3" d="M3793 5365l-20 7"/><path class="s3" d="M3763 5235l123 87 127 88 77 54"/><path class="s3" d="M4105 5476l123 85 153 106"/><path class="s3" d="M3606 5372l-63-43"/><path class="s3" d="M3583 5381l-53-36-5-8"/><path class="s3" d="M4094 5725l55 45"/><path class="s3" d="M4111 5717l52 44"/><path class="s3" d="M3912 5311l6 1 31 22"/><path class="s3" d="M4101 5443l9 6"/><path class="s3" d="M4117 5454l10 7"/><path class="s3" d="M4215 5525l5 1 31 23"/><path class="s3" d="M4452 5631l3-37-10-10 7-64-29 71-9-4-80-61 8-88-39-23"/><path class="s3" d="M4314 5385l-115-74-97-68-92-72-39-34"/><path class="s3" d="M4301 5401l-91-56-97-66-93-66-46-36"/><path class="s3" d="M3848 5190l37 28 22 3 11-10 6-54"/><path class="s3" d="M3932 5173l53 43 52 42 70 50 70 48 78 51 32 21 11-5"/><path class="s3" d="M4385 5544l440-223 26-13 57-16 387-178"/><path class="s3" d="M4355 5518l454-220 40-33 404-195"/><path class="s3" d="M4363 5452l452-213 57-41 326-148"/><path class="s3" d="M4316 5401l310-138 89-41 75-37 49-26 199-89 46-22 23-6 62-29"/><path class="s3" d="M4309 5169l5-3 7-1 8 2 5 4 1 3-1 4"/><path class="s3" d="M4467 5101l1-4 4-3 7-1 6 2 6 3 2 4v3l-2 2"/><path class="s3" d="M4967 5272l16 17h10l28-42"/><path class="s3" d="M4984 5298l-45 97"/><path class="s3" d="M5005 5283v82"/><path class="s3" d="M4949 4860l-13 2-20 5-24 10-12 11-13 17-15 26-12 15-8 2-5 4-4 9 3 7 7 5h12l11-7 10-12 24-43 7-9 13-8 21-8 19-3 25-1 24 1 5 2"/><path class="s3" d="M4845 4921l-13-3h-17l-14 3-12 5-6 7-3 8 1 8 6 9 12 8 12 4 8 2"/><path class="s3" d="M4779 4730l38 28 16-1 33 19 1 16"/><path class="s3" d="M4867 4792l29 22 18-1 35 24-2 12"/><path class="s3" d="M4947 4849l30 21 24 2 28 23-3 16"/><path class="s3" d="M5088 4921h-18l-13 7-7 10 1 13 7 13 17 7 25 1 19-4 16-8"/><path class="s3" d="M5075 4950l11-10 13-1 12 8"/><path class="s3" d="M5026 4911l4 18 8 8"/><path class="s3" d="M5105 4984l22 9 21 1h20 10l28 23-2 14"/><path class="s3" d="M5204 5031l31 19 19 1 35 23-5 16"/><path class="s3" d="M5284 5090l25 18 26-1 26 17 10 8-7 13"/><path class="s3" d="M5364 5145l32 18"/><path class="s3" d="M4835 4704l34 25 4 14 33 25"/><path class="s3" d="M4906 4768l16-3 35 20-6 9 36 31"/><path class="s3" d="M4987 4825l22-1 27 17-3 13 35 27"/><path class="s3" d="M5068 4881h21l27 18 1 17 34 23"/><path class="s3" d="M5151 4939l24 1 24 17-1 15 36 27"/><path class="s3" d="M5234 4999l19-3 30 21-1 14 40 24h18"/><path class="s3" d="M5340 5055l24 17 1 12 32 27 20 1"/><path class="s3" d="M5417 5112l37 24"/><path class="s3" d="M4858 4691l574 405 12 3 16-4 10-10 7-24v-16l13-8 8 1 9 18-28 62"/><path class="s3" d="M6371 5348l-5 53-2 57 7 65 25 64 34 51 42 41 67 43 73 25 67 17"/><path class="s3" d="M5204 4764l3-3 4-3 4-1 6 1 5 2 3 3 2 3v3l-1 1"/><path class="s3" d="M4464 5597l27-12-4 26"/><path class="s3" d="M4502 5581l424-189"/><path class="s3" d="M4387 4932l45-18 344-165"/><path class="s3" d="M4890 4693l1096-563 28 21 7 11-2 7-7 5h-27l-13 3-8 3-482 222-6 5-2 5-2 6-5 4-6 1-10 1h-12l-11 2-7 3"/><path class="s3" d="M5403 5065l1133-516"/><path class="s3" d="M6558 4537l-8-15"/><path class="s3" d="M6585 4548l-18-34 3-8"/><path class="s3" d="M6552 4543l-21-11-2-7 7-8 43-20 10-2 12 2 25 10 93-40"/><path class="s3" d="M6570 4533l-37 42"/><path class="s3" d="M5393 5051l968-489"/><path class="s3" d="M6170 4630l333-150 28 14 4 3 3 3 1 3v4"/><path class="s3" d="M6525 4517h-6-6l-8 1-7 2-12 4-182 84"/><path class="s3" d="M5347 5021l1116-554 2-8-32-17-12-4h-7l-7 1-6 2-5 4-3 5-1 5-488 224-10 4-9 2-11 2h-8l-8 1-5 3-4 4-2 5-4 6-10 5-481 217-11 4-16 1-12-2-10 4-5 5-3 7-6 7-11 6-20 9"/><path class="s3" d="M5313 4992l820-379"/><path class="s3" d="M6370 3886v39l-2 47 1 39 9 47 15 47 25 45 35 42 48 34 67 33 68 22 78 18 105 12 105 7h63"/><path class="s3" d="M3386 6161l99-44"/><path class="s3" d="M3105 5526l105-56"/><path class="s3" d="M1221 2287l662 468L5710 1004 5035 529"/><path class="s3" d="M5467 6692v-2"/><g><path class="s5" d="M3992 3849v283c0 9-2 17-7 25-4 7-11 14-18 18-8 5-16 7-25 7H3659c-9 0-17-3-25-7-7-4-14-11-18-18-5-8-7-16-7-25V3849c0-9 3-18 7-25 4-7 11-14 18-18 8-5 16-7 25-7h283c9 0 18 2 25 7 7 4 14 11 18 18 5 8 7 16 7 25" fill-rule="evenodd"/></g><path class="s6" d="M3659 3849h283v283H3659z"/><text x="3726" y="4066"><tspan class="f3 s7" font-size="206.944">C</tspan></text><g><path class="s5" d="M1515 3721c-5-3-10-5-16-5-6-1-11-1-17 0-5 1-11 3-16 5l-111 64-43-25c-7-5-16-8-25-7-9 0-18 2-26 7-8 5-14 11-18 19l-125 233c-4 7-6 15-6 23 0 8 2 17 6 24 4 8 10 14 17 18l123 88 42 24c10 7 22 9 33 7 12-2 22-9 30-18 8-9 13-20 12-32v-49l179-102c5-2 10-6 13-10 4-5 7-10 9-15 2-6 3-12 3-18V3787c0-6-1-12-3-17-2-5-5-11-9-15-3-5-8-8-13-11l-39-23" fill-rule="evenodd"/></g><path class="s8" d="M1491 3765l38 22v165l-204 116v78l-38-22-125-89 125-232 38 22v32m-38-54v78l204-116v165l38 22m-38-22-204 116 38 22m-38-22v78"/><text transform="matrix(0.863 -0.493 -0 1 173.288 623.836)" x="1265" y="4015"><tspan class="f3 s7" font-size="101.389">FWD</tspan></text><g><path class="s5" d="M3738 6882c-5-3-10-5-16-5-6-1-11-1-17 0-5 1-11 3-16 5l-111 64-43-25c-7-5-16-8-25-7-9 0-18 2-26 7-8 5-14 11-18 19l-125 233c-4 7-6 15-6 23 0 8 2 17 6 24 4 8 10 14 17 18l123 88 42 24c10 7 22 9 33 7 12-2 22-9 30-18 8-9 13-20 12-32v-49l179-102c5-2 10-6 13-10 4-5 7-10 9-15 2-6 3-12 3-18V6948c0-6-1-12-3-17-2-5-5-11-9-15-3-5-8-8-13-11l-39-23" fill-rule="evenodd"/></g><path class="s8" d="M3714 6926l38 22v165l-204 116v78l-38-22-125-89 125-232 38 22v32m-38-54v78l204-116v165l38 22m-38-22-204 116 38 22m-38-22v78"/><text transform="matrix(0.863 -0.493 -0 1 477.808 1720.11)" x="3488" y="7176"><tspan class="f3 s7" font-size="101.389">FWD</tspan></text><g><path class="s5" d="M5962 7665v283c0 9-2 17-7 25-4 7-11 14-18 18-8 5-16 7-25 7H5629c-9 0-17-3-25-7-7-4-14-11-18-18-5-8-7-16-7-25V7665c0-9 3-18 7-25 4-7 11-14 18-18 8-5 16-7 25-7h283c9 0 18 2 25 7 7 4 14 11 18 18 5 8 7 16 7 25" fill-rule="evenodd"/></g><path class="s6" d="M5629 7665h283v283H5629z"/><text x="5697" y="7882"><tspan class="f3 s7" font-size="206.944">D</tspan></text><path class="s3" d="M1225 2220V1911"/><path class="s3" d="M5025 481V259"/><path class="s9" d="M2295 3728l-86-484"/><path class="s3" d="M2156 3234l17-17 60-10 17-17"/><path class="s10" d="M2203 3212l-3 153 59-11z"/><path class="s3" d="M2301 3760l-98-548"/><path class="s9" d="M3837 3044l-87-431"/><path class="s3" d="M3697 2604l17-17 58-12 17-17"/><path class="s10" d="M3743 2581l1 153 58-12z"/><path class="s3" d="M3844 3076l-101-495"/><path class="s9" d="M5006 2519l-87-431"/><path class="s3" d="M4866 2079l17-17 58-12 17-17"/><path class="s10" d="M4912 2056l1 153 58-12z"/><path class="s3" d="M5013 2551l-101-495"/><path class="s10" d="M2634 1553l18-152-60 5z"/><path class="s3" d="M2587 984l47 569"/><path class="s9" d="M3190 6452l138-409"/><path class="s10" d="M3339 6012l-77 132 57 20z"/><path class="s3" d="M3179 6483l160-471"/><path class="s9" d="M4412 7295l187-575"/><path class="s3" d="M4557 6686l23-6 58 18 23-6"/><path class="s10" d="M4609 6689l-75 133 57 19z"/><path class="s3" d="M4402 7326l207-637"/><path class="s9" d="M6147 6489l-104-501"/><path class="s3" d="M5990 5979l17-17 58-12 17-17"/><path class="s10" d="M6036 5956l1 153 59-12z"/><path class="s3" d="M6154 6521l-118-565"/><path class="s10" d="M5504 4250l8-153-59 9z"/><path class="s3" d="M5449 3875l55 375"/><path class="s11" d="M1128 2297l762 552L5818 1005 5045 447 1102 2270"/><path class="s11" d="M3310 5336l15e2-720 1257-654 527-287 34 34"/><path class="s11" d="M6628 3709c-7 34-13 68-19 102-8 48-16 97-9 146 3 26 10 52 23 72 40 65 135 81 221 88 141 11 260 1 388 5 32 1 64 3 96 5"/><path class="s11" d="M7328 4127l38 39 15 68-48 38-154 93-661 359-662 354-686 340-1209 552"/><path class="s3" d="M3347 5368l1-327"/><path class="s3" d="M6452 3781l1-327"/><text x="6488" y="7975"><tspan class="f2 s7" font-size="84.084">U70616 S0000215803_V2</tspan></text><text x="3307" y="3780"><tspan class="f3 s7" font-size="123.611">MID KEEL BEAM</tspan></text><text x="1109" y="1761"><tspan class="f2 s7" font-size="123.611">STA</tspan></text><text x="1041" y="1886"><tspan class="f2 s7" font-size="104.23">1073.0</tspan></text><text x="4911" y="105"><tspan class="f2 s7" font-size="123.611">STA</tspan></text><text x="4842" y="229"><tspan class="f2 s7" font-size="104.23">1233.0</tspan></text><text x="2043" y="3886"><tspan class="f2 s7" font-size="123.611">ACCESS</tspan></text><text x="2043" y="4010"><tspan class="f2 s7" font-size="116.517">PANEL, 139A</tspan></text><text x="3585" y="3213"><tspan class="f2 s7" font-size="123.611">ACCESS</tspan></text><text x="3585" y="3337"><tspan class="f2 s7" font-size="123.611">PANEL, 139B</tspan></text><text x="4828" y="2690"><tspan class="f2 s7" font-size="123.611">ACCESS</tspan></text><text x="4828" y="2815"><tspan class="f2 s7" font-size="117.278">PANEL, 139C</tspan></text><text x="2144" y="822"><tspan class="f2 s7" font-size="123.611">INSPECTION AREA</tspan></text><text x="2144" y="947"><tspan class="f2 s7" font-size="115.355">(ZONE 139)</tspan></text><text x="3232" y="4865"><tspan class="f2 s7" font-size="123.611">STA</tspan></text><text x="3164" y="4990"><tspan class="f2 s7" font-size="104.23">1233.0</tspan></text><text x="6327" y="3285"><tspan class="f2 s7" font-size="123.611">STA</tspan></text><text x="6259" y="3410"><tspan class="f2 s7" font-size="104.23">1382.0</tspan></text><text x="5270" y="7596"><tspan class="f3 s7" font-size="123.611">AFT KEEL BEAM</tspan></text><text x="2899" y="6617"><tspan class="f2 s7" font-size="123.611">ACCESS</tspan></text><text x="2899" y="6742"><tspan class="f2 s7" font-size="123.611">PANEL,</tspan></text><text x="2899" y="6866"><tspan class="f2 s7" font-size="110.072">149AL</tspan></text><text x="4058" y="7477"><tspan class="f2 s7" font-size="123.611">ACCESS</tspan></text><text x="4058" y="7601"><tspan class="f2 s7" font-size="116.517">PANEL, 149A</tspan></text><text x="5962" y="6677"><tspan class="f2 s7" font-size="123.611">ACCESS</tspan></text><text x="5962" y="6802"><tspan class="f2 s7" font-size="123.611">PANEL, 149B</tspan></text><text x="5962" y="6927"><tspan class="f2 s7" font-size="123.611">(REMOVAL FOR</tspan></text><text x="5962" y="7051"><tspan class="f2 s7" font-size="123.611">INSPECTION IS</tspan></text><text x="5962" y="7176"><tspan class="f2 s7" font-size="123.611">OPTIONAL)</tspan></text><text x="4947" y="3704"><tspan class="f2 s7" font-size="123.611">INSPECTION AREA</tspan></text><text x="4947" y="3828"><tspan class="f2 s7" font-size="115.355">(ZONE 149)</tspan></text><path class="s9" d="M3742 5251V6646"/><path class="s12" d="M3742 5218V6679"/><path class="s9" d="M6451 5207V3876"/><path class="s13" d="M6451 5240V3843"/><path class="s9" d="M1223 2365v875"/><path class="s12" d="M1223 2332v941"/><path class="s9" d="M5022 593v906"/><path class="s12" d="M5022 560v972"/></svg>