<svg xmlns="http://www.w3.org/2000/svg" height="10in" viewBox="0 0 7777 10005" width="7.78in"><defs><style>.f1{font-family:Consolas,Courier New,monospace}.f2{font-family:Helvetica,Arial,sans-serif}.f3{font-family:Helvetica,Arial,sans-serif;font-weight:700}.f4{font-family:Times}.f5{font-family:Times;font-weight:700}.f6{font-family:Courier}.f7{font-family:Courier;font-weight:700}.f8{font-family:Symbol}.s10{fill:none;stroke:#fff;stroke-width:58}.s5{fill:#fff}.s4{fill:none;stroke:#000;stroke-width:8}.s3{fill:#ffc}.s7{fill:#000}.s8{fill:none;stroke:#000;stroke-dasharray:120,40;stroke-width:20}.s6{fill:none;stroke:#00f;stroke-width:20}.s2{fill:#cff}.s11{fill:#000;stroke:#000;stroke-width:8}.s9{fill:none;stroke:#00f;stroke-width:12}.s1{fill:none;stroke:#000;stroke-width:10.005}</style></defs><path class="s1" d="M2395 4310l-176-263-13-25"/><g><path class="s2" d="M3279 5576l-9-10-22-13-42-22-41-18-53-23-91-40-72-35-59-30-55-29-46-28-108-123-116-138-138-174-148-212-11-17c32-99 67-198 104-296 8-20 15-39 23-58l-98-146-78-117-16-27 72-39 214-155 39-32 33-33 26-36 19-35 11-36 3-34-5-32-27-66c-12-36-17-46-24-54-6-8-14-14-22-20-15-9-33-15-51-22-14-6-29-12-46-17-19-5-42-9-57-11l-62-9-13-14-43-25-13-5-201-409-381-788-178-373H7348l-372 646-343 590-185 314-30 50-10 5-89 50-3 6-10 1-45 5c-15 2-38 6-57 10-17 4-32 9-46 14-18 6-35 12-50 21-9 6-17 12-23 20-7 8-12 17-15 27l-1 1-1 2v2l-1 2-1 3v2l-1 3-5 10-28 63-7 32 3 34 9 35 18 36 24 35 32 35 38 32 206 160 48 27-21 29-202 268c3 8 6 16 9 24 33 86 67 173 98 263l-10 13-245 290-207 230-219 224-127 118-208 169-173 123-180 119-113 69-6 26-131 7-143 2-787 57-30-12-44-23-102-70-112-78-125-86-101-77-1e2-80-77-67-96-90 73 42 76 39 118 55 81 33 11-5 12 2 7-1 7-5-1-4-27-36-29-40" fill-rule="evenodd"/></g><path class="s3" d="M4995 4892l5-21 4-24 4-23 16-6v-13l3-37 7-15 9-3-2-11h43l14 13 89-2 11-11 4-8h26 12l22 19 22 28 5 18v7l-13 2-2 7-3-1-11-4h-10l-4 15 2 13 19 6 8 11 4 7-3 5-23 23-28 16-26 15-20 19-2 3-19-5-5 6-2-2-9-8-9-4-9 12-4 13 16 13 2 13 3 9-16 32-33 62-38 60-70 84-3 4-16-4-4 6-12-11-9-3-9 12-4 13 16 13 3 13-193 212-7 6-8-2-7 5-11-10-9-4-10 12-3 13 15 13 2 13-107 128-50 75-26 37-8 239 1 18 144-2 1-13 1-73 7-5v-10-31h18v-30l28-8 32 2 2 30h20l4 44 11 8 2 72 22 19 6 46-25 31v26l3 1 30 6 2 12-10 7 2 40 19 3 19 5 2 19H3663l-1-18 41-7v-5l1-39-14-5 2-15 36-4 15-1v-3l-11-13-1-10 3-10 7-133v-12-26l14-13-1-3 6-21 17-11 33-4 16-8 17-11 25-3 41-2 35-13 6-2 20 1 2-6 22 1 57-11 4-5-31-23-67-52-85-87-30-32-5 6-28 22-14-14 7-12-12-10 19-18 4-7-52-60-6 6-28 23-14-15 8-12-12-10 18-18 6-8-138-153-36-38-353-399-9-17-12-9-30-7 2-85 15-34h33 10l6-15 13-17h48l21 1 22 5 39 1 7 11 4 6h24l16-6-9 47 3 11-13 61-11 39-3 35 6 62 11 9 5 4v6 3l11 4 21-2 4-10 19-6 14-4 2-10-6-41 1-40 12-48 9-6 25-35 105 10 362 50 121 12h89l9-3 19-207 8-86-16 13-18 2-12 11h-32l-11-10-22-1-6-7-1-19-48-2-10-48v-17l-3 1-42-1-9-8-1-90 7-14h47v-22l13-30 46-1h7l-6-139-9-53-24-58-95-173-424-769-273-491-247-446-159-277-19-22V1780H5761l-1 117-30 98-247 408-209 364-169 285-240 405-179 309-180 308-26 51-17 51-11 54 2 133v8l8 1 5-19 6-13 48 3 6 63-1 47 6 2 22 3v33l-23 4-6 1-7 63-8 19-59 4-9 20-31 2-7 15-28 1-9-14-22-1-11-15-3-5-8 86 17 201v8l18 1 70 4 307-30 142-17 6-1-14 73-5-6-20 48 15 24h35 35 34l8-11 16-43z"/><g><path class="s3" d="M2003 5780l-21 136-18 142-949-480V1775h482l178 373 381 788 201 409 13 5 43 25 13 14 62 9c15 2 38 6 57 11 17 5 32 11 46 17 18 7 36 13 51 22 8 6 16 12 22 20 7 8 12 18 24 54l27 66 5 32-3 34-11 36-19 35-26 36-33 33-39 32-214 155-72 39 16 27 78 117 98 146c-8 19-15 38-23 58-60 160-115 321-161 485-33 120-61 241-87 363-28 131-52 262-76 393l-20 75-14 31-11 65" fill-rule="evenodd"/></g><g><path class="s3" d="M7514 1775H7348l-372 646-343 590-185 314-30 50-10 5-89 50-3 6-10 1-45 5c-15 2-38 6-57 10-17 4-32 9-46 14-18 6-35 12-50 21-9 6-17 12-23 20-7 8-12 17-15 27l-1 1-1 2v2l-1 2-1 3v2l-1 3-5 10-28 63-7 32 3 34 9 35 18 36 24 35 32 35 38 32 206 160 48 27-21 29-202 268c3 8 6 16 9 24 69 179 137 359 192 543 34 116 63 232 89 350 27 123 51 247 83 364l6 38 21 130 43 272 891-395V1775" fill-rule="evenodd"/></g><g><path class="s3" d="M4496 5618l-18 355 8 8 3 36 5 11 31-3-1-20 13-378 17-16 38-37 47-51 408-440c12-10 24-20 30-33 8-16 8-35 7-55-1-21-3-42-9-60-5-13-11-24-28-32-17-7-43-10-50-12l-8 29-19 46-6 11-66-1h-38l-17-23 17-43-161 16-335 41-18 4v63l12 4 66 30 2 105-3 16-41 44 2 115 43 44 3 14 6 59-1 52v38l17 32 20 19 24 12" fill-rule="evenodd"/></g><g><path class="s3" d="M3960 5612c-13-9-17-13-25-21-8-8-19-19-30-30l-254-265c-7-7-19-20-28-33-18-26-28-51-35-78-6-24-10-49-9-74 2-29 10-57 22-83 12-24 26-47 46-65 23-21 51-35 80-42 19-4 39-6 59-7l117 18 178 25 104 11h12l-1 51-15 6-59 24-39 6-4 122 52 56-4 203-5 79-135 79-27 18" fill-rule="evenodd"/></g><path class="s2" d="M4207 4375l9-157 11-25 25-20 33-8 30 4 24 16 15 28v143l-1 23-17 13-1-43-8-18-80-3-16 9-3 53z"/><g><path class="s2" d="M3418 2563l-60-135-33-132-15-146 7-102 15-60 30-60 44-41 45-19 63-8 134 4 449 23 628 3 270-3 108 3 63 12 48 26 45 49 37 67 11 83-8 128-14 98-30 97-48 102-138 240-376 644-210 363-84 131c-12 14-25 27-40 36-20 11-43 16-66 17-23 1-46-2-67-12-24-11-43-30-60-52-14-17-25-35-36-53l-254-464-219-397-172-314-67-128" fill-rule="evenodd"/></g><path class="s4" d="M3246 3034l-7-11 4-21 17-9 23 1m15 22m-7 17-16 6"/><path class="s1" d="M2547 2143l262 677 171 458 179 464 175 469 18 35v36l-20 173"/><path class="s1" d="M1015 5578l949 480 18-142 21-136"/><path class="s1" d="M1015 5390l896 504 22-2 95-208"/><path class="s1" d="M1015 4992l353 244 395 269 250 168 15 11"/><path class="s1" d="M2048 5609l9 6"/><path class="s1" d="M2028 5684l20-75"/><path class="s1" d="M2048 5609c24-131 48-262 76-393 26-122 54-243 87-363 46-164 101-325 161-485 8-20 15-39 23-58"/><path class="s1" d="M2395 4310l-176-263"/><path class="s1" d="M1997 3706l-121-188-267-422-352-565-207-337-35-57"/><path class="s1" d="M2588 3522l27 66 5 32-3 34-11 36-19 35-26 36-33 33-39 32-214 155-121 65-37 25-54 5"/><path class="s1" d="M2117 4071c-4-6-7-13-12-16-3-2-7-3-10-2-5 1-10 4-14 6"/><path class="s1" d="M2081 4059l-138 1e2-21 10-22 4-62-2-8 4 1 7 22 27 12 2 11-5 9-11 5-19"/><path class="s1" d="M1853 4209h-23l-43-57-11-17-10-23-1-21 1-16 8-19 12-17 17-14 17-11 16-24 18-40 3-26 6-41 9-25 22-38 29-44"/><path class="s1" d="M2494 3627l-50-3-15 1-10 4-14 17-25 22-39 22-153 71"/><path class="s1" d="M2391 3523c5 5 8 12 8 20 0 6-2 13-4 18-11 25-34 42-57 56-34 21-69 35-103 50-70 31-139 67-213 92-11 3-22 7-34 8-11 2-21 1-32 2-7 0-14 1-21 2-4 2-8 3-12 5"/><path class="s1" d="M2214 3864c-90 2-180 4-2e2-5"/><path class="s1" d="M2014 3859h-17l-9 5-11 26-28 52"/><path class="s1" d="M2037 4050l-127-2-12 2-9 8-44 87"/><path class="s1" d="M1873 3985l-9 5-10 10-9 13-15 19-26 21-10 14-4 16-1 17 3 20 9 17 11 16 16 15"/><path class="s1" d="M2441 3556c0-8 0-16-2-24-1-8-4-16-10-22-5-6-11-10-17-13"/><path class="s1" d="M2412 3497l-31 15"/><path class="s1" d="M2326 3389l62 9"/><path class="s1" d="M2388 3398c15 2 38 6 57 11 17 5 32 11 46 17 18 7 36 13 51 22 8 6 16 12 22 20 7 8 12 18 15 28 5 14 7 29 6 44-2 25-12 50-24 73-13 25-28 48-47 68-20 22-44 41-68 59-44 33-89 65-133 95-16 10-32 21-48 33-11 8-22 17-33 26-25 20-48 40-72 63-13 12-26 25-36 35"/><path class="s1" d="M2124 3992l-19 14-19 15"/><path class="s1" d="M2398 3565l134 3"/><path class="s1" d="M2532 3568c8-1 10 0 14 4 2 3 5 7-5 28"/><path class="s1" d="M2541 36e2l-9 19-26 37-33 34-42 33-104 74"/><path class="s1" d="M2327 3797c-6 3-12 7-18 10-3 1-6 2-8 2-4 1-7 0-10 0"/><path class="s1" d="M2288 3822c7-6 4-8 1-10-4-4-6-6-35-6"/><path class="s1" d="M2254 3806l-273-17h-18l-13 1-14 5-6 12-32 57-7 15-2 14-5 34-3 17-4 14-4 8-3 6 2 7 5 2 17 1 173 22"/><path class="s1" d="M2288 3822l-60 42-27 21-95 90-21 17"/><path class="s1" d="M2085 3992c-2 2-5 4-9 6-2 2-5 3-6 6-1 1-1 4 1 5 2 3 9 3 9 4"/><path class="s1" d="M2080 4013c2 3 5 6 7 9 2 4 4 8 4 12 0 4 0 8-4 16"/><path class="s1" d="M2270 3350l43 25 13 13-4 24-13 21"/><path class="s1" d="M2391 3523l-22-14-27-8"/><path class="s1" d="M6060 3559l-28 63-7 32 3 34 9 35 18 36 24 35 32 35 38 32 206 160 118 66 36 27 52 6"/><path class="s1" d="M6509 4114c2-6 6-13 11-16 3-2 7-2 10-2 5 1 10 4 14 7"/><path class="s1" d="M6544 4103l133 103 21 10 21 4h61l9 4-2 8-23 25-12 2-10-5-9-11-5-19"/><path class="s1" d="M6764 4257l23 1 44-55 11-17 11-22 2-20-2-17-7-18-10-17-17-15-17-11-15-24-16-41-3-25-4-41-8-24-21-38-27-45"/><path class="s1" d="M6149 3664l50-1 14 1 10 5 13 16 24 23 38 23 149 75"/><path class="s1" d="M63e2 3545c-8 3-16 5-24 8-8 3-17 6-23 12-5 5-7 12-8 19 0 6 2 13 4 19 10 24 32 42 55 56 33 21 67 37 1e2 53 68 33 135 71 207 97 11 4 22 8 33 9 11 2 21 1 32 2 6 1 13 2 20 4 4 2 8 3 12 4"/><path class="s1" d="M6418 3907c89 4 178 8 198 1"/><path class="s1" d="M6616 3908h16l10 6 11 25 24 52"/><path class="s1" d="M6588 4095l125 2 11 1 9 10 40 87"/><path class="s1" d="M6750 4036l10 4 9 11 9 14 14 19 25 20 10 15 4 15v18l-4 19-9 16-12 16-16 15"/><path class="s1" d="M6203 3596c1-8 1-16 3-24 2-8 5-15 11-21 5-5 12-9 17-12"/><path class="s1" d="M6234 3539l30 15"/><path class="s1" d="M6306 3437l-45 5"/><path class="s1" d="M6261 3442c-15 2-38 6-57 10-17 4-32 9-46 14-18 6-35 12-50 21-9 6-17 12-23 20-7 8-12 17-15 27-6 13-8 28-7 43 0 25 10 49 21 72 12 25 27 48 44 68 19 23 42 42 66 60 42 34 85 66 128 97 15 11 30 22 46 35 11 8 22 17 32 26 25 21 46 42 69 65 12 12 25 25 35 35"/><path class="s1" d="M6504 4035l18 15 18 15"/><path class="s1" d="M6246 3606l-135-1"/><path class="s1" d="M6111 3605c-2 0-4 0-6 0-2 1-4 1-6 3-2 1-4 2-4 4-1 1 0 2 0 3 1 4 2 7 3 10"/><path class="s1" d="M6098 3625l14 31 24 36 33 36 40 34 1e2 75"/><path class="s1" d="M6309 3837c6 3 11 7 17 10 3 2 6 3 8 3 4 1 7 0 10 0"/><path class="s1" d="M6346 3863c-6-6-3-8 0-10 4-4 6-6 34-5"/><path class="s1" d="M6380 3848l271-9 18 1 12 2 13 5 6 11 30 57 6 16 2 14 4 33 3 17 3 14 4 8 2 6-2 6-5 3-16 1-171 15"/><path class="s1" d="M6346 3863l59 44 25 21 91 90 21 18"/><path class="s1" d="M6542 4036c2 3 5 5 8 7 3 1 5 2 6 5 1 1 1 4-1 6-2 3-9 4-8 4"/><path class="s1" d="M6547 4058c-3 2-5 5-7 8-3 4-5 8-6 12 0 4 1 8 5 15"/><path class="s4" d="M6408 3380l-89 50-14 28m7 20m9 13 16 10"/><path class="s1" d="M6372 3431l-16 6-4 10 8 11"/><path class="s1" d="M7514 5671l-891 395-43-272-21-130"/><path class="s1" d="M7514 5131l-926 557"/><path class="s1" d="M6180 4345l202-268"/><path class="s1" d="M7514 2521l-112 158-360 501-294 404-79 107-49 67"/><path class="s1" d="M4805 5987l113-69 109-72 28-19 43-28 50-34 64-45 59-44 53-40 46-37 59-49 50-43-34 20-34 18-34 19-36 17-35 18-36 16-37 17-37 15-37 15-38 15-38 14-39 13-39 13-39 12-40 12-40 11-41 10-40 10-41 9-41 8-41 8-42 7-41 6-8 1"/><path class="s1" d="M5479 5507l29-26 53-49 45-43 58-57 72-73 89-94 90-98 1e2-113 17-19 115-134 107-129 23-27"/><path class="s4" d="M5183 5708l-45 36-1 1-2 1-2 2-3 1-4 3-2 1-3 2-5 2-5 3-5 2-5 3-6 2-5 3-37 16-39 16-33 14-5 1-5 2-5 2-4 1-4 2-4 1h-2l-2 1h-1-1-1v-1l37-33 1-1 2-1 2-2 3-1 4-2 3-2 3-1 6-3 4-2 6-2 6-2 6-3 5-2 42-16 40-18 35-15 5-2 5-2 5-2 4-2 3-2 3-1 3-1h2l2-1v1z"/><path class="s1" d="M4638 6089l-41 20"/><path class="s1" d="M2951 5496l39 38 57 52 77 67 1e2 80 101 77 125 86 112 78 67 45 35 25 44 23"/><path class="s4" d="M2279 4681l32 48 91 131 25 33 87 110 51 64 46 55 70 83 53 62 55 61 38 23 39 21 40 21 40 21 32 16 33 16 33 15 34 15 34 14 34 15 8 3 7 3 8 3 8 4 7 3 7 3 6 3 7 3 7 3 7 4 6 3 6 3 8 4 6 4 7 4 6 3 6 4 5 4 4 3 4 3 2 2 1 2 29 40 27 36 1 2v2l-2 4-5 1-7 1-12-2m-89-37m-30-13m-31-13m-30-14m-30-15m-30-15m-35-18m-35-18m-49-21 37 22 36 20 38 20 38 19 39 19 39 18 40 18 40 17 41 16 111 60 156 66 119 36 82 22"/><path class="s1" d="M1833 2440l9-25 213-436 10-12 12-5 14 5 15 12 14 20 12 25 64 151 66 157 10 27 6 30 3 29-2 27-5 21-105 263-66 167-9 16-12 10-14 2"/><path class="s1" d="M1970 1775l-212 4e2-14 16-17 6"/><path class="s4" d="M2295 2737l44-119 7-13 9-7 10-1 11 6 10 12 9 16 60 127 8 22 6 26 1 9 3 24v23l-3 21-6 16-65 128-21 40-8 11-9 5h-11l-11-7-10-13-9-17-35-83-8-25-5-27-2-27 2-25 1-1 17-103z"/><path class="s1" d="M2219 3227l35-66 9-11 11-4 12 3 10 11 10 16 84 192"/><path class="s1" d="M2464 3388l-37-88-6-19-5-22-2-22 1-22 3-20 6-16 97-201 7-10 9-4 9 2 9 9 8 14 57 120 6 16 4 19 3 19 1 20-2 19-3 16 1-1-63 220"/><path class="s1" d="M2591 3482l86-305"/><path class="s1" d="M2614 3539l62-228 4-13 6-8 7-4 7 2 7 6 6 11 166 354 5 12 3 14 2 15v17l-1 15-2 15-55 247-6 26-8 22-9 20-10 15-5 9-4 11-4 13-35 157-5 16"/><path class="s1" d="M2544 3798l-12 44-3 19"/><path class="s1" d="M2818 4384l9-43 25-120 4-31v-49l5-63 6-29 50-237 3-12 4-9 5-5h5l5 3 5 7 74 158 3 9 2 12 2 14v14l-1 15-2 13-98 522-4 15-4 13"/><path class="s1" d="M2946 4647l4-27 3-16 95-520 3-11 3-9 4-5 4-2 4 2 3 6 54 114 3 8 3 22"/><path class="s4" d="M3148 4579l4-4 36-59 3-6 4-18 15-98v-24l-1-11-1-10-3-7-28-60-3-5-3-1-4 2-3 6-3 8-2 11-30 189-2 13-1 14 1 13 1 12 2 9 2 7 9 16 4 3z"/><path class="s1" d="M3254 4705v-46l1-11 5-35 14-96 3-6 5-2 6-1"/><path class="s1" d="M3035 4810l30-173 22-60 60-395"/><path class="s1" d="M1776 2342l286-561"/><path class="s1" d="M3491 2007l-8 12-4 14v15l61 386 4 12 7 12 11 10 12 7 14 5 15 2 142 3 15-1 12-5 11-7 8-10 5-11-35-397-4-15-7-14-11-13-14-9"/><path class="s4" d="M3883 2440l-27-384 1-15 5-14 9-12 12-9 15-5 16-2 273 6 16 2 15 6 13 10 9 12 8 29-1 31-6 352-2 12-6 11-9 10-12 7-13 5-14 1-243-4-15-2-13-5-12-8-10-10-6-12z"/><path class="s1" d="M3390 2082l63 350v12l-3 12-7 9-10 8-13 4-14 2"/><path class="s1" d="M3441 2560l21 9 10 12 12 22 5 24 7 42"/><path class="s4" d="M3614 2561l140 2 14 2 13 5 12 7 10 10 9 22 3 28 14 149-1 10-12 18-9 6-12 4-13 1-130-2-26-6-12-6-9-9-7-9-3-11-28-178v-11l4-11 7-9 10-7 12-4z"/><path class="s4" d="M3946 2567l238 4 14 2 13 5 11 7 9 9 5 11 1 12-3 176-7 20-8 8-23 10h-42l-193-3-13-2-13-4-10-6-9-8-8-20-13-178 1-11 5-11 8-9 10-7 13-4z"/><path class="s4" d="M4376 2575l237 4 14 2 12 4 10 8 8 9 4 11v11l-23 176-3 10-6 10-10 8-11 6-12 3-13 2-222-4-24-6-11-6-7-9-5-9 6-187 2-11 6-11 9-9 12-7 13-4z"/><path class="s4" d="M4343 2066l-3 59m-9 239-4 84 7 24 8 10 11 8 27 7 242 4 15-1 13-5 13-7 10-9 7-12 9-72"/><path class="s1" d="M4343 2066l3-15 17-26 28-14 16-2h49"/><path class="s1" d="M4727 2134l5-43 1-17-4-29-8-12-12-10-14-6-147-6"/><path class="s1" d="M4828 2076l-59 381v12l4 12 7 9 10 8 13 5 14 2 155 1 14-4 13-7 11-10 8-11 5-13 82-379 1-15-3-14-7-12-11-10"/><path class="s1" d="M4828 2076l4-15 8-13 12-12 14-9"/><path class="s4" d="M4804 2582l138 3 13 2 12 4 10 8 7 9 3 11-1 11-38 175-4 11-8 9-10 9-12 6-13 3-14 1-128-7-23-6-9-6-6-8-4-10v-10l26-171 4-12 7-10 10-9 12-7 14-4z"/><path class="s1" d="M5149 2587l-31 3-14 4-13 7-18 19-5 11-42 176-2 10"/><path class="s1" d="M5176 2511l-38-2-12-5-10-7-9-22 1-12 84-355"/><path class="s1" d="M3354 2812l-17-9-16-16"/><path class="s1" d="M3357 2945l28 125 4 9 16 15 11 6 24 5h68"/><path class="s1" d="M3736 3111h76l23-4 9-6 11-14 1-9-10-113"/><path class="s1" d="M3769 3164l49 2 12 1 22 9 13 14 5 39 9 96-1 12-11 10"/><path class="s1" d="M3921 2965l7 114 3 9 13 15 21 9 12 1 205 3 12-1 20-8 13-15 1-8 3-109"/><path class="s4" d="M3980 3169l201 3 12 1 11 3 9 5 7 7 5 8 1 8-2 126-6 14-7 6-9 4-11 3-2e2-2-11-1-11-3-9-5-7-6-5-7-11-133 1-9 4-7 7-7 9-4 11-4z"/><path class="s1" d="M3963 3521l-5-79v-7l5-10 7-7 9-7 24-7 13-1 164 3 11 1 10 3 9 4 6 6 4 7 2 7-2 97"/><path class="s1" d="M4016 3614l173 3 8 1 8 3 7 5 5 14-1 167-2 8-11 12-8 3-9 1h-59"/><path class="s1" d="M4430 3834l-118-1-9-2-8-3-7-6-6-14V3641l1-7 4-7 7-5 8-3 8-1 194 3 8 1 9 3 6 6 4 6 2 7 2 25"/><path class="s1" d="M4282 3955l2-31 4-7 7-6 8-3 10-1h75"/><path class="s1" d="M4180 3904l18 2 12 9 5 13-1 15"/><path class="s1" d="M4450 3296l8-88 2-9 5-7 8-7 10-4 11-3 12-1h37l12 1 10 4 9 5 6 7 4 7v8l-16 126-3 7-5 7-8 6-9 4-11 3-11 1h-7"/><path class="s1" d="M4472 2901l103 2 13 2 11 4 9 6 7 8 4 9"/><path class="s1" d="M4604 3057l-4 33-3 8-6 8-8 7-22 8-12 1-43-1h-50"/><path class="s1" d="M4341 3118h-7l-20-9-8-7-5-17 5-115"/><path class="s1" d="M4786 2908h88l13 2 11 3 10 6 6 8 3 9v10l-12 55"/><path class="s1" d="M4698 2935l-4 12-7 45"/><path class="s1" d="M4679 3043l-7 48v8l4 9 6 7 9 5 10 3 12 2 119 2 12-1 11-4"/><path class="s1" d="M4897 3037l-4 20"/><path class="s1" d="M4809 3182l-105-2-12 1-11 3-11 4-8 7-5 7-3 9-19 125v7l3 7 6 6 8 5 10 3 11 1h32"/><path class="s1" d="M6723 1775l-9 48 1 30 10 21 222 404 14 17 19 6 44-6"/><path class="s1" d="M6392 2411l150-296 14-24 16-19 16-11 16-4 13 5 11 12 225 442 9 26 1 32"/><path class="s1" d="M6392 2411l-11 27-8 29-3 28 1 26 5 21 178 427 10 17 12 10 16 2 16-5"/><path class="s4" d="M6170 2821l69-122 11-15 11-11 12-6 11 1 9 8 8 13 46 119 5 18 17 101 2 25-3 27-6 26-10 24-40 80-10 17-12 12-12 6-11 1-19-17-91-168-6-16-3-43 4-24 9-34z"/><path class="s1" d="M6051 3524l-20-38-64-218-4-34 5-39 11-34 66-116 20-21 10-2 9 4 10 10 1e2 2e2 6 16 4 41-3 22-5 22-8 18-48 99"/><path class="s1" d="M6232 3416l93-178 10-16 13-11 12-3 12 5 10 11 50 85"/><path class="s1" d="M5814 4278l-35-152-4-17-6-13-17-24-8-18-8-20-61-269-2-13v-14l4-26 4-10 194-344 7-8 6-4 13 7 4 11 160 553"/><path class="s1" d="M5638 4609l-9 3-8-5-7-16-5-14-98-533"/><path class="s1" d="M5512 4006l5-21 87-156 6-7 11-2 9 13 4 12 50 236 8 38"/><path class="s4" d="M5355 4594l-40-59-5-14-15-95-2-24 4-32 3-8 33-59 7-5 4 2 6 14 7 39 27 173v26l-4 21-14 22-3 3z"/><path class="s1" d="M5498 4208l74 423 6 44-1 22"/><path class="s1" d="M5512 4006l-3 18 2 20"/><path class="s1" d="M5444 4582l-54-333 4-32 17-30 41-61 16-8 10 7 9 23 11 60"/><path class="s1" d="M6150 3886l-275 442-18 24-10 13-24 25-27 35-114 183-398 612-32 52"/><path class="s1" d="M5252 5272c-4 5-7 9-11 14-4 4-8 9-13 13-9 7-19 12-29 17-13 6-25 13-39 19-13 7-26 12-40 17-17 6-34 11-51 16-20 5-41 11-62 15-17 4-33 7-50 9"/><path class="s1" d="M6123 3870l-275 441-17 23-9 12-24 25-29 37-114 184-398 612-31 51"/><path class="s1" d="M5226 5255c-4 4-7 7-10 11-3 3-7 7-11 11-7 6-16 10-25 15-13 6-25 13-38 19-13 7-26 12-39 17-16 6-33 10-50 15-20 5-40 10-61 15-6 2-12 3-18 4"/><path class="s1" d="M3590 5368l-117-23-56-14-50-18-40-19-40-23-17-14-8-13-103-182-40-73-43-79-47-87-51-95-85-161-97-187-8-13-8-13-10-13-22-26-9-12-8-12-7-12v1l-72-140-80-156-64-126"/><path class="s1" d="M7348 1775l-372 646-343 590-185 314-179 302"/><path class="s1" d="M6090 3832l9 32"/><path class="s1" d="M6021 3596l-105-372"/><path class="s1" d="M6626 1883l11 21 298 560"/><path class="s1" d="M2371 3576l-315-640-381-788-178-373"/><path class="s1" d="M3593 5406l-132-25-58-15-51-18-42-20-43-25-21-18-11-16-102-183-41-72-43-80-47-87-51-95-85-161-97-187-7-12-8-12-9-12-22-26-10-13-8-13-7-12v-1l-73-140-80-155-64-126"/><path class="s1" d="M2080 1775l225 546 103 238 269 587 465 1015 178 387v14l-19 148"/><path class="s1" d="M3339 4714l20-156-3-15-11-24-126-277-249-563-252-568-273-629-280-707"/><path class="s1" d="M2429 2423l148-396"/><path class="s1" d="M2488 1777l158 437 195 540 217 595 229 632 82 221 21 30 16 20"/><path class="s1" d="M2408 1780l74 196 15 35v25l-15 37-83 218"/><path class="s1" d="M2513 2019l41-1"/><path class="s1" d="M2709 3050l76-271"/><path class="s1" d="M3406 4252l-1 15"/><path class="s1" d="M3406 4252l17-126"/><path class="s1" d="M3488 4144l-22 2-8 8-1 13-8 46-4 17-9 19-15 19-14 16-10 23-13 97 1 17 3 11 9 16 11 17 5 17 3 25-1 19 2 11 10 10 12 3h11"/><path class="s1" d="M3363 4539l3-28-8-18 10-68"/><path class="s1" d="M2962 3614l33-154 3-15 9-3 10 23"/><path class="s1" d="M3256 43e2l31-192"/><path class="s1" d="M2735 3101l37-139 13-30 13-2 13 19 142 368 1 32-3 49-30 124"/><path class="s1" d="M2682 2950l46-160 2-32-5-33-190-487"/><path class="s1" d="M2357 1792l63 171 6 37-17 45-50 121"/><path class="s1" d="M3017 3465l65 164"/><path class="s1" d="M3082 3629l2 22-5 30-27 142"/><path class="s1" d="M3085 3896l28-146 4-6 8 2 57 149 1 22-25 152"/><path class="s1" d="M3183 4128l23-140 6-4 7 8 35 89 3 21-17 128"/><path class="s1" d="M3278 4328l16-113 6-10 9 6 20 61-3 31-11 87"/><path class="s1" d="M6664 1783l-387 766-350 641-334 601-351 636"/><path class="s1" d="M6570 1780l-288 604-72 148-335 630-316 601-316 598"/><path class="s1" d="M6205 1775l-264 598-271 613-285 657-121 263"/><path class="s1" d="M6066 2102l156 399"/><path class="s1" d="M6249 2375l-102-256-5-22 5-27 136-289"/><path class="s1" d="M5885 3120l-78-284"/><path class="s1" d="M6090 2195l-447 971-210 464-122 268"/><path class="s1" d="M5320 4092l11 74"/><path class="s1" d="M5357 4098l-23-147 1-35 9-29 55-115 8-6 9 4 30 165"/><path class="s1" d="M5484 3865l-31-170v-26l10-25 71-154 7-9 6 2 6 18 34 164"/><path class="s1" d="M5636 3573l-40-185v-20l6-25 172-364 6-10 6-3 10 12 52 188"/><path class="s1" d="M5920 3035l-57-195-2-12 4-32 5-13 225-478 7-13 9-7h7"/><path class="s1" d="M6308 2289l-86-2e2-2-34 12-42 112-238"/><path class="s1" d="M6493 1876l-52-101"/><path class="s1" d="M5739 4166l-15 23-64 36-10 30 7 62 14 44 21 3 12-1 46-24 18-16 6-11-10-46-12-55-20-9h-19"/><path class="s1" d="M5745 4187l-17-79"/><path class="s1" d="M5728 4108h27"/><path class="s1" d="M5774 4312l27 2"/><path class="s1" d="M5728 4108l-31 40-11 5-30 37-7 31"/><path class="s1" d="M5672 4377l8 27 11 20 22 14 27 1"/><path class="s1" d="M5656 4250l13 4 47 2 9-7 16-25"/><path class="s1" d="M5747 4283l-4 19 12 15"/><path class="s1" d="M5722 4169l-5-12 3-14"/><path class="s1" d="M5458 4623l-1 10 5 13"/><path class="s1" d="M5483 4745l-2 10 6 13"/><path class="s1" d="M5466 46e2l8 23 14 64 18 78-10 14-48 23-12 1-10-2-12-9-7-23-2-22 3-40 10-14 42-23 18 6"/><path class="s1" d="M5416 4703l15 6 16-2 14 3 20-18"/><path class="s1" d="M5531 4765l-38-159-12-10-20 1-33 52-15 32"/><path class="s1" d="M5413 48e2l13 69 6 29 6 14"/><path class="s1" d="M5437 4869l8 6 20-4"/><path class="s1" d="M5482 4842l-1-23-4-10-20 1"/><path class="s1" d="M5425 4818l6-4"/><path class="s1" d="M5476 4650l-9 17"/><path class="s1" d="M5734 4369l20 2 8 23"/><path class="s1" d="M5799 2628l-34-115 3-72 7-35 191-472 14-9 5 6 59 150"/><path class="s1" d="M6094 2e3l-93-225"/><path class="s1" d="M6137 1884l-43-102"/><path class="s1" d="M5775 2728l-69-244"/><path class="s1" d="M5977 1776l-258 660-193 491-169 433"/><path class="s1" d="M5328 3437l-138 354"/><path class="s1" d="M5215 3923l-12-87 4-20 38-96 4-10 8 3 20 124"/><path class="s1" d="M5260 3619l38 196"/><path class="s1" d="M5311 3755l-22-127 1-19 59-145 2-5 6 2 2 6 23 130"/><path class="s1" d="M5419 3511l-25-142 2-20 2-8 69-170 6-8 10 14 25 127"/><path class="s1" d="M5554 3207l-31-133-2-29 3-27 3-12 138-342 4-8 4-5 26-3 9 10 31 115"/><path class="s1" d="M5353 3270l163-428 205-546 194-521"/><path class="s1" d="M5432 2544l-18 54-1 30 2 25 43 191 11 14 9-10 103-312 20-65 6-51v-25"/><path class="s1" d="M5611 2192l61 205"/><path class="s1" d="M5607 2395l-4-47-26-73"/><path class="s1" d="M5483 3056l54 218"/><path class="s1" d="M2588 1998l53-138 10-5 13 22 156 472 6 36 1 55-2 20-28 98"/><path class="s1" d="M2543 1910l54-139"/><path class="s1" d="M2679 1779l224 704 184 556 167 532 85 265"/><path class="s1" d="M3269 3709l29 92 2 22-15 83"/><path class="s1" d="M3328 3821l-30 179"/><path class="s1" d="M3350 3947l-7-22-5-4-10 66 3 18 13 37"/><path class="s1" d="M3226 3786l31-177"/><path class="s1" d="M3146 3553l23-112 5-8 7 9 47 143 6 33"/><path class="s1" d="M3019 3224l51-215"/><path class="s1" d="M3040 3267l28-128 4-6 7 3 57 172 4 27-4 28-18 105"/><path class="s1" d="M2844 2721l31-111 6-10h13l12 5 124 372 4 36-5 35-23 1e2"/><path class="s1" d="M2815 2668l68-235"/><path class="s1" d="M3404 2506l-36-141-13-107-3-89 13-60 26-50 44-38 50-24 56-15 78-6 133-4 1022 21 273 13 89 24 56 36 39 49 16 66v96l-26 146-24 87-42 120"/><g><path class="s4" d="M3418 2563l-60-135-33-132-15-146 7-102 15-60 30-60 44-41 45-19 63-8 134 4 449 23 628 3 270-3 108 3 63 12 48 26 45 49 37 67 11 83-8 128-14 98-30 97-48 102-138 240-376 644-210 363-84 131c-12 14-25 27-40 36-20 11-43 16-66 17-23 1-46-2-67-12-24-11-43-30-60-52-14-17-25-35-36-53l-254-464-219-397-172-314-67-128" fill-rule="evenodd"/></g><path class="s1" d="M3984 3922l95 173 24 58 9 53 6 163"/><path class="s1" d="M4454 4363l-2-133 11-54 17-51 26-51 180-308 179-309 240-405 169-285 209-364 247-408"/><path class="s1" d="M5760 1780v117l-30 98"/><path class="s4" d="M2862 1780l-1 76m20 83 159 277 247 446 273 491 424 769"/><path class="s1" d="M3063 1828l119-3"/><path class="s1" d="M4170 4115l223 3"/><path class="s1" d="M5407 1875l54-15 103 2 54 17"/><path class="s1" d="M5491 1789l-2 15 11 15 30-2 13-10-7-22"/><path class="s1" d="M3019 1781l-2 61 16 105 39 169 48 128 57 110 1e2 184 104 185 145 253 326 603 244 455"/><path class="s1" d="M4096 4034l25 37 19 23h4l37-20 2-15-5-23-127-231-86-156-175-320-174-316-91-158-84-149-134-224-62-131-23-94-2-264-13-121-5-52v-40"/><path class="s1" d="M5617 1780l-2 1e2-20 70-32 135-35 120-47 110-128 217-263 452-225 384-290 499-114 195-25 28-16 5-32-21 2-22 9-22 124-215 246-418 415-686 138-226 44-124 15-86 5-89 6-95 13-155 9-152"/><path class="s1" d="M4297 1989l-19 652-9 243"/><path class="s1" d="M4267 2970l-19 567"/><path class="s1" d="M3801 1984l73 864"/><path class="s1" d="M3428 2042l121 727"/><path class="s1" d="M3883 2962l38 483"/><path class="s1" d="M4796 2005l-135 926"/><path class="s1" d="M4639 3067l-41 303"/><path class="s1" d="M5158 2070l-192 846"/><path class="s1" d="M4251 3588l-4 374"/><path class="s1" d="M4304 2149l15-5 32 5-1 58 11 5 19-3 5-10 2-13 301 8-2 14 7 9 16 1 9-5-7-58h41l9 6"/><path class="s1" d="M4307 2288l40 2-1 52 3 6 13 1 9 3 4 5 1 26 5 8 276 3 8-5 2-15 4-10 7-7 17-2 6-5 7-56h23l12-7"/><path class="s4" d="M4644 2312l-3 11-8 10-11 8-13 3h-13l-12-4-10-8-5-10-1-12 4-46 4-12 8-11 11-7 13-4h14l12 5 9 8 6 10 1 12z"/><path class="s1" d="M4350 2207l-3 83"/><path class="s1" d="M4708 2294l8-75"/><path class="s4" d="M4469 2297l2-7 6-4 7-2 8 2 5 5 1 6-2 25-3 7-5 5-8 1-7-2-5-5-1-6z"/><path class="s1" d="M4457 2261l8 15 7 9"/><path class="s1" d="M4497 2286l13-12 4-13"/><path class="s1" d="M4464 2309l-13-3-6-5"/><path class="s1" d="M4502 2309l10-1 8-4"/><path class="s1" d="M4466 2332l-7 4-9 4"/><path class="s1" d="M4493 2333l6 4 5 4"/><path class="s1" d="M4466 2260l15-5 12 1 12 5"/><path class="s1" d="M4518 2276l1 12-1 9"/><path class="s1" d="M4516 2314l-4 14-5 7"/><path class="s1" d="M4452 2270l-3 7-2 17"/><path class="s1" d="M4445 2310v11l4 9"/><path class="s4" d="M4504 2354l-70-2-4-5 1-13 6-103 4-7 9-3h75l8 4 3 10-9 108-6 6-8 4z"/><path class="s1" d="M4446 2250l11-12 13-7"/><path class="s1" d="M4527 2252l-13-15-13-7"/><path class="s4" d="M4750 2903v3 3l-3 3-4 2-5 1h-19l-5-1-4-3-3-3-1-2v-5-2l2-3 3-1 3-2 5-1h16l5 1 4 2 2 2 3 3z"/><path class="s1" d="M4689 2853l15-4 52 1 10 2 5 7-1 17 2 31-1 13-8 8-21 4h-31l-17-7-11-13-6-16"/><path class="s1" d="M4763 2876h-80"/><path class="s4" d="M3781 2856h4l3-12 5-2 13 1 8 1-2 12 5 1 7 7 3 10m1 20-4 9-15 4"/><path class="s1" d="M3781 2856l-10 16v18l7 10-7 18-4 1-6 29v20l7 22h42l10-9 1-21"/><path class="s1" d="M3810 2990l-6-16-1-21 1-26 1-20 5-22"/><path class="s1" d="M3805 2919l11 5 4 14"/><path class="s1" d="M3815 2859l-3 12-2 14"/><path class="s1" d="M4285 2849l36 68 6 13"/><path class="s1" d="M4327 2930l-3 14 1 25h30l2-34-2-10-15 6-14-4"/><path class="s1" d="M4355 2925l40-77"/><path class="s1" d="M4316 2842h-30"/><path class="s4" d="M4612 2983l7 14 1 29-8 18 41 1 5-23-3-26-5-16z"/><path class="s1" d="M4619 2977l2-17 9-12 13-2 10 5-2 27"/><path class="s1" d="M3647 2952h48l66 1"/><path class="s1" d="M3817 2951l295 1 207-1"/><path class="s1" d="M3627 2887h67l74-2"/><path class="s1" d="M3819 2882l93 1 159 5 227 5"/><path class="s1" d="M4377 2897l30 4 19 8 2 18-7 17"/><path class="s1" d="M4365 2947l53 9 56 18 56 24 40 13 42 3"/><path class="s1" d="M4666 3015l58-3 60-1h44l51 1 38 5"/><path class="s1" d="M4415 2972l-4 27"/><path class="s1" d="M4398 2980l-8 11v14l12 7 19-1 13-6 2-14-13-9"/><path class="s1" d="M4390 3005v27l-16-6h-11l-8 8h-11l-4-7h-6-13l-3 19 2 16 6 6h12l10-5 8 1 11 5h13l11-6 1 29 11 13 27-2 6-13-2-85"/><path class="s1" d="M4401 3081l10 4 12-4"/><path class="s4" d="M4605 3428m-18-35 8 1 30 25"/><path class="s1" d="M4622 3447l-13 16-36-30"/><path class="s1" d="M4573 3433h-9"/><path class="s1" d="M4622 3447l-8-7"/><path class="s1" d="M4563 3393h11"/><path class="s1" d="M4610 3438l15-19"/><path class="s1" d="M4416 3284l5-3 3 3 6 2-2 28 76-1-5 138 1 66"/><path class="s1" d="M4498 3354h-80"/><path class="s1" d="M4366 3150l-10 4-13-2-8-8 4-13 38-11 56 1 28 13-1 13-9 7h-11l-7-6"/><path class="s1" d="M4386 3124v22l6 9 11 2 9-4 2-29"/><path class="s1" d="M4372 3143l-18 229v8l5 5"/><path class="s1" d="M4423 3150l-16 230-3 4"/><path class="s4" d="M4343 3472l4-25 4-20 5-6 4-40 3-6 36 1 1 26 3 12 4 8-3 34 1 14 1 15-1 11h-19m5-49m4-30m-4-6m-20 0m-4 1m-2 9m-6 28m-2 17m20-23-8 30v24h-20l-6-13v-12"/><path class="s1" d="M4351 3503l5 14 3 15v12 12 17l1 9h21"/><path class="s1" d="M44e2 3584h15l4-10"/><path class="s1" d="M4406 3502l5 14 5 27 2 14 1 17"/><path class="s1" d="M4380 3454l6 16-1 14-4 9"/><path class="s1" d="M4381 3582l1-30 2-13 2-21"/><path class="s1" d="M4423 3539l20-55"/><path class="s1" d="M4352 3557h-3l-6-1-1 5-6 1v6l1 5h4l4 6h8"/><path class="s1" d="M4338 3461h-3-5l-2 5-5 1-1 6 2 5h4l3 6 9-1"/><path class="s4" d="M4425 3555l6 2v4m0-2m1 10-1 4-4 8"/><path class="s1" d="M4455 3357l-4 34 5 54 14-1"/><path class="s1" d="M4486 3405h-18"/><path class="s1" d="M4488 3429l-16 1"/><path class="s1" d="M4487 3477h-16"/><path class="s1" d="M4488 3501l-16 1"/><path class="s1" d="M4454 3451l3 66h23l15 2 4 7 1 16"/><path class="s1" d="M4428 3461l14 7"/><path class="s1" d="M4445 3545l25 10 34-1 20-4 11-12 3-18"/><path class="s1" d="M4674 3415l-24 2-21 10"/><path class="s1" d="M3993 3585l258 3"/><path class="s1" d="M4251 3588l2-25 12-15 18 3 16 8 19 6"/><path class="s1" d="M4242 3556l-14-7-23 8-26 5-185-3-16-5"/><path class="s1" d="M4251 3588h82"/><path class="s1" d="M4431 3589l115 4 11 5"/><path class="s1" d="M4562 3627l3-45 6-11 7-8 14-5h11"/><path class="s1" d="M4565 3565l-5-6-8-4-12 2"/><path class="s1" d="M4412 3474l6-12 7-2"/><path class="s1" d="M4403 3575l-14-5-5-8"/><path class="s1" d="M5215 1917l184 3"/><path class="s1" d="M3403 1875l-185-2"/><path class="s1" d="M4451 2174l11-180"/><path class="s1" d="M4527 2181l13-187"/><path class="s1" d="M4466 1879l5-99"/><path class="s1" d="M4547 1879l6-99"/><path class="s1" d="M4048 4398h-43l-7 14 1 90 9 8 42 1"/><path class="s1" d="M4104 4577l-41-2-10-48-1-151 13-30 46-1"/><path class="s1" d="M4207 4375l-87 2-4-10-3 199v17l-1 13 6 7 22 1 11 10h32l12-11 18-2 4-1 6-9"/><path class="s1" d="M4221 4674l7-86V4383l3-46 16-9 80 3 8 18-1 195-11 127"/><path class="s1" d="M4207 4375l17 12"/><path class="s1" d="M4473 4340l48 3 6 63-1 79-8 74-8 19-22 3-37 1"/><path class="s1" d="M4454 4363l4 149-5 69-11 21-31 2-7 15-28 1-9-14-22-1-11-15"/><path class="s1" d="M4342 4387l16-10 89-2"/><path class="s1" d="M4473 4340l-6 13-5 19"/><path class="s1" d="M4208 4363l8-145 11-25 25-20 33-8 30 4 24 16 15 28 1 47-1 96"/><path class="s1" d="M4079 4582l-1 74 17 36"/><path class="s1" d="M4201 4608l-9 28-13 19-9 6"/><path class="s1" d="M4169 4634l-19 1-7 10v51h36l12-11 4-16-3-10"/><path class="s1" d="M4132 4688l-32 22-21 24-3 9"/><path class="s1" d="M4062 4720l-16-1-1 33 9 19 20 5 17-8 16-16 8-19"/><path class="s4" d="M4046 4719h31m39 2m0 12h46"/><path class="s1" d="M4163 4732l-3-26"/><path class="s1" d="M4e3 4862l2-151 32-137-2-62"/><path class="s1" d="M4034 4379l7-103 2-58"/><path class="s1" d="M4357 4638l25-1v60l-37-2-10-9"/><path class="s1" d="M4337 4635l12 22 9 8"/><path class="s1" d="M4444 4721h23l-1 32-5 12-18 7-15-2-16-8-5-30-43-2v-20"/><path class="s1" d="M4388 4680l31 29 13 18 4 16"/><path class="s1" d="M4415 4685l6-15 5-14 3-34"/><path class="s1" d="M4221 4674l-19 207-6 107-7 413 27 343 2 214"/><path class="s1" d="M4323 4671l16 183 7 165-2 325-14 212-12 188-1 193"/><path class="s1" d="M4539 6011l19-6 16-11 8-23v-52"/><path class="s1" d="M4541 5950l30-11 9-26-2-64 39-96 91-118 63-71"/><path class="s1" d="M4558 5729l50-75 107-128"/><path class="s1" d="M4716 5526l-3-13-15-13 3-13 10-12 9 4 9 8"/><path class="s1" d="M4715 5511l21-28 19 5 29 21 20 27v14l-22 27-15-1"/><path class="s1" d="M4946 5268l-3-13-16-13 4-13 9-12 9 3 10 9"/><path class="s1" d="M4945 5253l20-28 20 5 28 20 21 28v14l-23 27-14-1"/><path class="s1" d="M5138 4978l-2-13-16-13 4-13 9-12 9 4 9 8"/><path class="s1" d="M5138 4963l20-28 19 5 29 21 21 27v14l-23 27-15-1"/><path class="s1" d="M5275 4852l-8-11-19-6-2-13 4-15h10l11 4"/><path class="s1" d="M5268 4838l8-33 20-3 34 7 30 17 5 13-10 34-14 5"/><path class="s1" d="M4753 5480l209-228"/><path class="s1" d="M4802 5527l209-230"/><path class="s1" d="M4984 5225l70-84 38-60 38-71 13-27 8-14"/><path class="s1" d="M5032 5271l36-43 39-53 41-67 36-72 11-18"/><path class="s1" d="M5179 4937l20-19 26-15 28-16 23-23 13-25"/><path class="s1" d="M5230 4986l18-17 32-21 29-27 24-31 12-26"/><path class="s1" d="M5289 4796l-5-18-22-28-32-27-62-46-35-38-22-31-14-42"/><path class="s1" d="M5096 4580l-14-13 2-31 22-14 26-2h19l15 12 4 33-5 7"/><path class="s1" d="M5159 4560l6 31 27 29 50 37 44 36 27 33 27 39 7 32 3 19"/><path class="s1" d="M5296 4952c3 5 7 10 12 13 6 3 15 2 21-2 10-5 14-16 17-27 4-17 5-33 6-49"/><path class="s1" d="M5339 4736c-1-10-2-20-6-30-3-7-7-13-15-14-6 0-14 2-15 9"/><path class="s1" d="M5132 4550c5 0 10-1 17 3 5 2 11 7 10 7"/><path class="s1" d="M5097 4566c3-3 6-7 9-9 2-1 4-2 6-4"/><path class="s1" d="M5034 3930l-13-13 2-28 17-15 30-3 17 1 14 13 3 30-8 11"/><path class="s1" d="M5069 3902c4-1 12-1 25 9"/><path class="s1" d="M5035 3917c2-3 5-7 8-9 2-1 4-2 10-5"/><path class="s1" d="M5035 3917c7 51 13 89 20 126"/><path class="s1" d="M5094 3911c2 45 7 78 15 115"/><path class="s1" d="M5065 4112c5 33 10 66 13 101 6 62 8 131 9 179 1 23 1 41 5 82 1 20 4 45 2 45"/><path class="s1" d="M5123 4151l6 60 10 146 8 157"/><path class="s1" d="M5171 3602l-5-27-8-8"/><path class="s1" d="M5171 3602l3 16-4 5-7-2-4-13-14 7-24-2-25-10-12-19 6-23 8-5"/><path class="s1" d="M5094 3608l-11 40-15 42-14 48-12 52-6 32-2 26v21"/><path class="s1" d="M5086 3869l1-40 7-46 21-72 22-65 8-27"/><path class="s4" d="M5099 3572l11 8 11 2m12 3"/><path class="s1" d="M5133 3585l12 1 11-2"/><path class="s1" d="M5099 3572l6-79-1-64 1-65 7-46 6-19"/><path class="s1" d="M5156 3584V3452l1-83 4-36 5-18"/><path class="s1" d="M5150 3039l14 9-1 24-12 44 4 45 15 46 9 11"/><path class="s1" d="M5184 2996l-14 32-13-20-14-1"/><path class="s1" d="M5125 3039l1 13 7 9 14 4"/><path class="s1" d="M5273 2785l-2 59 8 54"/><path class="s1" d="M5272 2912l4-5 8-2 7 4"/><path class="s1" d="M5269 2943l6-9 12-3 12 1 6 4"/><path class="s1" d="M5270 2953l2 9"/><path class="s1" d="M5305 2944l2 7v8l-4 6"/><path class="s1" d="M5272 2919l-3 6-1 15"/><path class="s1" d="M5272 2962l3 4 6 4"/><path class="s1" d="M5305 2936l-5-11-5-4-3-8"/><path class="s1" d="M5289 2953l11 66 3 56 2 38"/><path class="s1" d="M5240 3054l-56 3 14-31-21-77"/><path class="s1" d="M5240 2841l-2 74 9 77 7 53 1 64-4 68"/><path class="s1" d="M5250 3197l31-31 28-13"/><path class="s1" d="M5240 3217l25-12 19 18 20 69 8 73"/><path class="s1" d="M5362 3203l1-41 1-22-16-16-21-1-13 17"/><path class="s1" d="M5358 3164l-13 1-8 7-13-1-10-21"/><path class="s1" d="M5202 3215l-39 12-37 1-15 25v15l16 35"/><path class="s1" d="M5249 3269l-22 28-33 10-32 7"/><path class="s1" d="M5203 3252l-14 19-24 7"/><path class="s1" d="M5233 3191l-18 7-9 8-10 29 9 20 23 12 29 5 16-12"/><path class="s1" d="M5231 3213l2 14 17 10 14-5"/><path class="s1" d="M5439 2995l-54-263-18-19h-15l-10 13-48 143"/><path class="s1" d="M5215 3014l17-48"/><path class="s1" d="M5203 2970l21-61"/><path class="s1" d="M5199 3071l-27 86"/><path class="s1" d="M5315 3192l11 54 3 38-1 32"/><path class="s1" d="M5272 34e2l-22 78-21 40-20 32-17 47"/><path class="s1" d="M5218 3636l25-67 32-47 13-25"/><path class="s4" d="M5286 3408l13 7 22-1 16-4 5-9 11-6 1-10-3-8-6-2-10 4-9-6h-17l-21 2-4 3z"/><path class="s4" d="M5293 3405l13-5m13-1 14 1"/><path class="s1" d="M5163 3632l3 32 9 7 55 1"/><path class="s1" d="M5163 3678l-63 164"/><path class="s1" d="M5199 3684l-61 159"/><path class="s1" d="M5202 3639l5 14h18"/><path class="s1" d="M5198 3318l28 171"/><path class="s1" d="M5075 3124l30 2 26-5"/><path class="s1" d="M5044 3185l56 5 18 15"/><path class="s1" d="M4940 3363h106l26-10 16-22 12-38"/><path class="s1" d="M5017 3446l-5 16v15l6 14 42-2"/><path class="s1" d="M5017 3446l44 1"/><path class="s1" d="M5067 3440l6 20 1 16-6 20"/><path class="s1" d="M5075 3443h16"/><path class="s1" d="M5076 3493h16"/><path class="s1" d="M5067 3440h-8l-1 5"/><path class="s1" d="M5068 3496l-8-1-1-4"/><path class="s1" d="M5165 3449l9 1 6 78-9 25-11 4"/><path class="s1" d="M5030 3498l-4 8 4 14h29"/><path class="s1" d="M5068 3506l-26 79-8 16h24"/><path class="s4" d="M5051 3536h-23l1 8m0 11-3 7"/><path class="s4" d="M5028 3535l-43-1m5 13m-8 15h18l47 2"/><path class="s1" d="M5003 3535l2 9v2 5l-2 9"/><path class="s1" d="M4982 3562l-7 1-3 4-2 33-21-1-4-12 2-49 5-17 11-2 9 3 4 6"/><path class="s1" d="M4983 3529l4 13v5"/><path class="s1" d="M5032 3595l-33-2-5-9 1-8 2-7"/><path class="s1" d="M4935 3558l-56-3-11-7-7-15 13-58"/><path class="s1" d="M4905 3424l24-6 32-2 70 5 9 6"/><path class="s1" d="M5073 3415l3-27 9-22"/><path class="s4" d="M3972 5825l22 1 13 9 7 2 3 19v19l-5 19h-14l-10 7h-20l-3-13h-21l-1-22 1-24 6-12 20 1z"/><path class="s4" d="M3997 5835l-8 18m-2 5m2 9 4 20"/><path class="s1" d="M3944 5832l-35 13-41 2-25 3-17 11"/><path class="s1" d="M3940 5882l-24-1"/><path class="s1" d="M3916 5881l-20 7-18 12-14 18"/><path class="s1" d="M3734 6092l7-133 8-10"/><path class="s4" d="M3741 5947l36-3m44 0 36 7-2-23-11-17-46-8-43 5-14 13v26"/><path class="s1" d="M3754 5905l6-21 17-11 33-4 35 11-1 31"/><path class="s1" d="M3857 5951l-2 67"/><path class="s1" d="M3761 6007l81 1-7 24-3 29 9 34 2 17"/><path class="s1" d="M3847 6024l206-1 14-12"/><path class="s1" d="M3845 6077l208-6 12 8"/><path class="s1" d="M3736 6090l-5 12 1 10 11 13"/><path class="s1" d="M3843 6103v9l-3 17"/><path class="s1" d="M3741 6084h89"/><path class="s1" d="M3703 6192l1-39-14-5 2-15 36-4 63-1 70 1 22 7 2 10-16 6 2 42"/><path class="s4" d="M3708 6154l37 3m85 0 39-5"/><path class="s1" d="M3664 6205l-1 17"/><path class="s1" d="M3662 6204l68-10 162-1 42 7h136"/><path class="s1" d="M4678 5920v-31h18v-30l28-8 32 2 2 30h20l4 39"/><path class="s1" d="M4670 6008l-1-73 26-13h39 40l19 13 2 72"/><path class="s1" d="M4798 6009l19 17 6 46-17 21-8 10v26"/><path class="s1" d="M4678 6009l15-2 5 32-2 54-14 11v23"/><path class="s1" d="M4653 6082l15 20 7 4"/><path class="s1" d="M4655 6152l-10-5v-11l38-7 118 1 30 6 2 12-10 5"/><path class="s4" d="M4657 6195v-41l41 3m84 0 41-2 2 40"/><path class="s1" d="M4616 6204l28-5 27-2 101-5 72 6 19 5 2 19"/><path class="s1" d="M41e2 5794l-28 20-21 1-1 35 15 4 3 9-3 10-11 6h-5l1 31 19 4v13l-12 6-11 2v14l41 14 12 2"/><path class="s1" d="M4105 5948l4-165 31-3"/><path class="s1" d="M4145 5958l2-203 7-15 47-3 11 8"/><path class="s1" d="M4319 5743l19-7 30 1 10 35 6 106-2 68-4 27"/><path class="s1" d="M4383 5775l45 2 11 48 2 75-7 54-9 19"/><path class="s1" d="M4478 5973l9-189 13-210 2-70"/><path class="s1" d="M4524 6005l7-249 6-137 3-80"/><path class="s1" d="M4159 6222l96-99 37-34 3 56-11 16-77 61"/><path class="s4" d="M4128 5957l-12-7-12 7v13l12 7 12-7z"/><path class="s4" d="M4330 5965l-12-6-12 6v13l12 6 12-6z"/><path class="s4" d="M4142 6072l-12-7-13 7v13l12 7 13-7z"/><path class="s4" d="M4328 6075l-12-7-12 7v13l12 7 12-7z"/><path class="s4" d="M4232 6043l-11-3-6-5-2-9 1-8 5-6 6-3 43-8 9 1 7 6 2 9-2 8-4 6-6 3z"/><path class="s1" d="M4132 5965l24-2 25 6 119 1"/><path class="s1" d="M4324 5988l-4 11-10 16-2 22 5 16-2 11"/><path class="s1" d="M4323 6097l-3 9h-14l-9-1"/><path class="s1" d="M4103 5974l-3 42 4 16 11 17 12 6 9 8"/><path class="s1" d="M4144 6089l11 8 25 1 25-3 67-1"/><path class="s1" d="M4040 6016l2-37h31l25-1"/><path class="s1" d="M4053 6124h-73l-7 11v27l1 17h76l2 18"/><path class="s1" d="M4053 6124l2-16 12-2"/><path class="s1" d="M4071 5983l-2 96 8 20-1 104 2 19"/><path class="s1" d="M4338 5979l117 1 4 34 4 103-3 97"/><path class="s1" d="M4447 6027H4333"/><path class="s1" d="M4086 6105l17 1 6 15 123 3"/><path class="s1" d="M4298 6173l17 6 6 13"/><path class="s1" d="M4373 62e2l5-13 11-7h36 10"/><path class="s1" d="M4587 6082v59l11 4v23l-36-4-35 5"/><path class="s1" d="M4535 6139l19-2"/><path class="s1" d="M4590 6179l2 43"/><path class="s1" d="M4531 6177v33"/><path class="s1" d="M4455 5980l31 1 3 36"/><path class="s1" d="M4470 6137h22v-59"/><path class="s1" d="M4463 6082l11-10h22l6-5"/><path class="s4" d="M4462 6017l10 9h25l6 15m1 9-2 17"/><path class="s1" d="M4497 6026l193-1"/><path class="s1" d="M4496 6072l195-1"/><path class="s1" d="M4231 5857h73"/><path class="s1" d="M4531 61e2l-1 32-9 33-8 13-45 1"/><path class="s1" d="M4529 6097l-30-1"/><path class="s1" d="M4531 61e2l-3-17"/><path class="s1" d="M4704 6010l75-1"/><path class="s1" d="M4193 4884h-89l-121-12-362-50-105-10"/><path class="s1" d="M3282 4715h-48l-13 17-11 33-13 117 9 17 389 437 277 312 85 87 67 52 31 23"/><path class="s1" d="M4358 4881l70 4 308-30 141-17"/><path class="s1" d="M4185 4968l-104-11-178-25-117-18"/><path class="s1" d="M3786 4914c-20 1-40 3-59 7-29 7-57 21-80 42-20 18-34 41-46 65-12 26-20 54-22 83-1 25 3 50 9 74 7 27 17 52 35 78 9 13 21 26 28 33"/><path class="s1" d="M3651 5296l254 265"/><path class="s1" d="M3905 5561c23 23 46 46 74 64 27 18 59 33 84 42 25 8 43 11 89 20 22 4 51 9 44 4"/><path class="s1" d="M4337 5690c23-2 45-3 67-8 24-5 47-14 70-22"/><path class="s1" d="M4554 5611l35-34 458-494"/><path class="s1" d="M5047 5083c12-10 24-20 30-33 8-16 8-35 7-55-1-21-3-42-9-60-5-13-11-24-28-32-17-7-43-10-40-11"/><path class="s1" d="M5184 5092l1 77-1 42-9 35-18 28-102 27"/><path class="s1" d="M5224 5027l16 172"/><path class="s1" d="M4114 5549l-11 56-23 23-28 16"/><path class="s1" d="M4379 5732l50-52"/><path class="s1" d="M4446 5678l1 102-15 1"/><path class="s1" d="M4447 5822l19-20 13-11"/><path class="s1" d="M4430 5406l6 59-1 52v38l17 32 20 19 10 6"/><path class="s1" d="M4147 5493l39-5"/><path class="s1" d="M4343 5493l42 5 37 10"/><path class="s1" d="M4136 5409l23-4 17-2"/><path class="s1" d="M4353 5404l32 5 36 12"/><path class="s1" d="M4126 5483l5-250-52-56 4-122 39-6 59-24"/><path class="s1" d="M3803 5291l-33 49 2 56"/><path class="s1" d="M4384 5348l185 184 25 16"/><path class="s1" d="M4384 5348l-2-115 98-94"/><path class="s1" d="M29e2 2241l-6 24 16 46 26 5 25-4 16-20-14-49-16-9"/><path class="s1" d="M2903 2276l13 4 13 1"/><path class="s1" d="M2964 2261l-8 10-8 5"/><path class="s1" d="M2958 2213l24-78"/><path class="s1" d="M2996 2273l18-51"/><path class="s1" d="M2765 1776l94 296 52 187"/><path class="s1" d="M2950 2245l-138-474"/><path class="s1" d="M2930 2319l126 410 79 272"/><path class="s1" d="M3125 2979l-5 21 13 38 22 4 21-3 14-16-12-42-14-8"/><path class="s1" d="M3127 3009l11 4h11"/><path class="s1" d="M3179 2996l-7 9-7 4"/><path class="s1" d="M2970 2305l193 681"/><path class="s1" d="M3268 3261l10-5 7-27-13-17-24-9-18 3"/><path class="s1" d="M3266 3248l-6 35-9 19-12 2-13-4-12-15-26-81-44-160"/><path class="s1" d="M3180 3039l54 203"/><path class="s1" d="M3231 3229l12-1 13 3"/><path class="s1" d="M3319 3021l15-8 4-30-11-17-28-6"/><path class="s1" d="M3328 2999l-18-10-13 2"/><path class="s1" d="M3276 3204l33-2e2"/><path class="s1" d="M3321 2954l9-18 24-14 22-2 34 1"/><path class="s1" d="M3266 2929l20-1 10 7 13 6"/><path class="s1" d="M3261 2931l-14 59"/><path class="s1" d="M3281 2924l13-29 16-12 32-5h52"/><path class="s1" d="M3267 3023l-10 48-10 42-11 25-14 15"/><path class="s1" d="M3234 3187l9-39"/><path class="s1" d="M3109 2737l35-141-7-58-62-194"/><path class="s1" d="M3177 2484l93 424"/><path class="s1" d="M3310 3068l84 327"/><path class="s1" d="M3204 3056l31-154v-45"/><path class="s1" d="M3281 3501l49-296"/><path class="s4" d="M3813 5356l54 59 193-3 49-55-7-84-19-59-53-78-103-5-59 60-35 63-13 47z"/><path class="s4" d="M3968 5190l20 2 19 6 17 11 15 16 10 17 6 20 2 21-3 21-7 20-12 18-16 16-18 12-20 7-21 3-21-3-19-7-17-11-14-16-11-18-5-20-1-21 3-21 8-20 12-17 14-16 18-11 20-6z"/><path class="s4" d="M4060 5375l8-3 5-7 1-9-4-7-8-2-8 3-5 7-1 9 4 7z"/><path class="s4" d="M3977 5176l8-3 6-7v-9l-5-8-9-3-8 3-5 7-1 9 6 8z"/><path class="s4" d="M3865 5372l8-3 6-6v-9l-5-7-8-3-8 3-5 7-1 8 5 7z"/><path class="s4" d="M3968 5190l20 2 19 6 17 11 15 16 10 17 6 20 2 21-3 21-7 20-12 18-16 16-18 12-20 7-21 3-21-3-19-7-17-11-14-16-11-18-5-20-1-21 3-21 8-20 12-17 14-16 18-11 20-6z"/><path class="s4" d="M3774 5001l20 2 19 6 18 11 14 16 10 17 7 20 2 21-3 21-7 20-12 18-16 16-18 12-20 7-21 3-21-3-19-6-17-12-14-16-11-18-5-20-1-21 2-21 9-20 11-17 15-16 18-11 20-6z"/><path class="s4" d="M3876 5034l9-3 5-7v-9l-5-8-9-3-9 3-5 7v9l5 8z"/><path class="s4" d="M3787 5239l8-3 6-7v-9l-5-8-9-3-8 3-5 7-1 9 6 8z"/><path class="s4" d="M3663 5080l7-6 2-8-4-9-8-5h-9l-7 6-2 9 4 8 8 5z"/><path class="s1" d="M3625 5099l11-77 36-26 63-31 74-12 46 3 44 39 24 42-6 48-15 55"/><path class="s1" d="M3625 5099l117 151 75 6"/><path class="s1" d="M3978 51e2l15-61-17-71"/><path class="s1" d="M3753 4947l33-19"/><path class="s1" d="M4084 5042l-13-32-42-20"/><path class="s1" d="M4079 5056l-50-37-12-26 13-19 25-13"/><path class="s1" d="M4106 4974l15 24 8 34"/><path class="s1" d="M4426 5061l15-38 18-16 23-6"/><path class="s1" d="M4460 4962l25 17 6 21-13 24-40 28 64-10"/><path class="s1" d="M4382 5039l6-36 22-27"/><path class="s1" d="M4003 5039l61 10"/><path class="s4" d="M4482 5409l98 6 86-5 57-60-11-58-19-50-30-54-43-47-22-9-40-4-58 8-46 57-25 52-10 42-5 31-2 23z"/><path class="s4" d="M4571 5185l20 2 20 7 17 10 14 16 10 17 7 20 2 21-3 21-7 20-12 19-16 15-18 12-20 7-21 3-21-3-19-6-17-12-14-16-11-18-5-20-1-21 2-21 9-20 11-17 15-16 18-11 20-6z"/><path class="s4" d="M4558 5172l8-3 5-7v-10l-5-8-9-3-8 3-5 8v9l6 8z"/><path class="s4" d="M4664 5377l9-1 7-6 2-9-3-9-8-5-9 1-7 6-2 9 3 9z"/><path class="s4" d="M4462 5364l8-3 6-7v-9l-5-8-9-3-8 3-5 7-1 9 6 8z"/><path class="s1" d="M46e2 5119l-10-46-1-33 28-45 41-32 61-1 82 21 43 27 30 22 8 79-119 143-54 3"/><path class="s4" d="M4737 5002l20 2 20 7 17 11 15 15 10 17 6 20 2 21-3 21-7 20-12 19-16 15-18 12-20 7-21 3-21-3-19-6-17-12-14-15-11-19-5-20-1-21 2-21 9-20 12-17 14-15 18-11 20-7z"/><path class="s4" d="M4649 5024l8-5 3-8-3-9-7-6-9-1-8 5-3 8 3 9 7 6z"/><path class="s4" d="M4856 5090l8-5 3-8-3-9-7-6h-9l-8 5-3 8 3 9 7 6z"/><path class="s4" d="M4733 5239l8-5 3-8-2-9-7-6h-9l-8 5-3 8 2 9 7 6z"/><path class="s1" d="M4520 5108l-9-70 20-64"/><path class="s1" d="M4575 5117l-27-57-20-103"/><path class="s1" d="M4767 4965l-39-30"/><path class="s1" d="M4730 5329l15 22-2 40"/><path class="s1" d="M3627 5115l-8 49 1 50"/><path class="s1" d="M3674 5288l44-3 43 12"/><path class="s1" d="M3768 5265l7 46"/><path class="s1" d="M4743 5326l143-148 35-41 10-24-5-61"/><path class="s1" d="M5008 5032l23-26"/><path class="s1" d="M5008 5032l2 17 6 9-7 16-12 11-17-5-26 17-3-4 16-26-6-18 7-13 13-9 14 2"/><path class="s1" d="M5010 5079l-2 13-8 12-21 2-13-5"/><path class="s1" d="M49e2 5040l18 11 25-2 10-17-2-23"/><path class="s1" d="M49e2 5040l-1-27"/><path class="s1" d="M4805 4925l11 38 17 24"/><path class="s1" d="M4878 5009l69-4 24-6 9-8 9-24"/><path class="s1" d="M4805 4933l-16 33"/><path class="s1" d="M4842 4952l17 24h35"/><path class="s1" d="M4917 4963l12 13h34"/><path class="s1" d="M4864 4904l18 24h34"/><path class="s1" d="M4864 4904l-20 48"/><path class="s1" d="M4916 4928l-21 41"/><path class="s1" d="M4935 4898l17 24h35"/><path class="s1" d="M4987 4922l-16 43"/><path class="s1" d="M4935 4898l-10 22"/><path class="s1" d="M4783 4334c4-9 8-19 15-27 6-7 13-14 22-15 9-2 19 1 27 7 4 3 8 7 11 11 17 21 26 47 34 74 12 41 20 83 25 125 6 44 9 89 12 133 3 33 5 66 5 99 0 42-6 84-13 126-4 19-8 38-12 57"/><path class="s1" d="M4819 4357c9-23 12-16 13-12 2 3 3 3 7 13 3 7 8 22 12 37 11 37 19 79 24 120 6 44 9 87 12 130 3 31 5 63 5 94 0 41-6 81-13 121-3 16-6 31-9 46"/><path class="s1" d="M4989 4918c7-29 13-57 17-85 6-44 6-89 5-133-1-63-4-126-13-189-7-51-18-101-32-150-6-20-13-39-25-58-10-13-22-26-37-29-8-1-16-1-24 2-7 2-14 6-20 10"/><path class="s1" d="M4940 4908c7-28 13-54 17-81 5-42 5-84 4-126-1-61-4-122-13-183-6-49-16-98-31-143-4-12-8-24-11-32-2-4-4-7-5-9-3-5-4-7-5-9 0-1 1-2-14 9"/><path class="s1" d="M4752 4645c5-5 19-10 30-11 17 0 25 12 28 10"/><path class="s1" d="M4752 4645c4 28 7 55 7 103"/><path class="s4" d="M4759 4705l15-7m21 1 10 6"/><path class="s1" d="M4810 4644l5 72v32"/><path class="s1" d="M4824 4638l9-5 29 8 6 80v26"/><path class="s4" d="M4831 4710m18-1 14 6"/><path class="s1" d="M4757 4627V4435l12-53"/><path class="s1" d="M4813 4408l-10 105 5 113"/><path class="s1" d="M4857 4626l-4-131v-22"/><path class="s1" d="M3205 4747h-33l-15 34-2 46v39l30 7"/><path class="s1" d="M3216 4715l-8-24-11-11-12 3-13 21-8 34"/><path class="s1" d="M3154 4876l1 36 8 30 12 9 10-2 12-6 11-31"/><path class="s1" d="M4801 4286c-10 3-20 5-28 11-5 4-10 11-13 19-4 7-7 15-7 24-1 9 2 19 8 28 8 14 23 25 39 30 10 3 19 4 28 3 5 0 10 0 15-1"/><path class="s1" d="M4831 4273l-1-18-13-15-19-7-140 1-17 6-9 13 12 236 6 16 16 10 82 2"/><path class="s1" d="M4744 4605h-70l-15 5-8 9 1 72"/><path class="s1" d="M3282 4715l21 1 22 5 39 1 7 11"/><path class="s4" d="M3326 4784l3-7 6-5 8-2 7 2 5 5 1 8-3 7-6 5-8 2-7-2-5-6z"/><path class="s4" d="M3321 4760l-9 10-9 14 1 16 7 13 12 9 12 2h11l16-5 7-7 8-14 5-13-3-13-10-8-13-6h-20z"/><path class="s1" d="M3288 4721l-14 47-6 63 2 26 6 11h31"/><path class="s1" d="M3306 4726l12 15 81-2 16-6"/><path class="s1" d="M3422 4693l-16 87"/><path class="s1" d="M3422 4693l23-12 29-2 29 7 17 14 5 11-12 98"/><path class="s1" d="M3423 4717l18-7 21-3"/><path class="s1" d="M3517 4738l-9-19-21-8"/><path class="s1" d="M3430 4684l10-29 81-453"/><path class="s1" d="M3594 4218l-73 457-1 21"/><path class="s1" d="M3446 4651l13-8h23l17 4 16 12"/><path class="s1" d="M3406 4780l3 11-3 17-10 44-11 39-3 35 3 40 3 22 11 9"/><path class="s1" d="M3411 4801l21-5 30 1 10 3"/><path class="s1" d="M3459 4996l-19 6"/><path class="s1" d="M34e2 4983l9-10 20-1 17 6 1 11"/><path class="s1" d="M3404 5010l11 4 21-2"/><path class="s1" d="M3403 4988l1 19"/><path class="s1" d="M3335 4974l-10 5-20-2-14-21 1-46 6-29 14-14h16l10 6"/><path class="s1" d="M3391 4854l-10-4-34 1-9 27-6 34-2 43 12 39 19 23 12 36-1 21"/><path class="s4" d="M3482 4853l-12 48-1 40 6 41 49-1-6-49 5-48 11-31z"/><path class="s1" d="M3534 4865l17-2 4 26 1 41-4 25-7 16h-18"/><path class="s1" d="M3489 4844l-4-30-13-14"/><path class="s1" d="M3513 4809l-22 38"/><path class="s1" d="M3473 4992l21 109-7 25-28 43"/><path class="s1" d="M3525 4986l2 32 12 60-4 22 27 46"/><path class="s1" d="M3561 4864l15-10 25-25"/><path class="s1" d="M3594 4962l-27-13"/><path class="s1" d="M3443 5108l-29-45-23-49"/><path class="s1" d="M3263 4997l-25 180"/><path class="s1" d="M3391 4879l32-6 21 2 15 4"/><path class="s1" d="M3465 4469l-11-32-16-21 1-59 12-55 25-29 14-29 20-10"/><path class="s1" d="M3476 4289l4 14 13 11"/><path class="s1" d="M3521 4202l11-12 23-6 23 5 16 11v18"/><path class="s1" d="M3514 4207l-12-16 5-27 27-14 39-1 29 10 15 17 4 22-9 19-15 9"/><path class="s1" d="M3521 4122l34-13 33 2 25 14 7-50"/><path class="s1" d="M3507 4164l9-60-9-16-1-26 12-15 9-6"/><path class="s1" d="M3540 4073l3 15 17 4 24-3 9-9 5-14-8-8"/><path class="s1" d="M3537 4032l-7 16 2 13 9 10 22-1 25-10 3-14v-13l-13-9"/><path class="s1" d="M3598 4036l26 8 22 18 10 28-4 17-14 12"/><path class="s1" d="M3641 4097l-17 101"/><path class="s1" d="M3529 4029l21 11 19-2 12-22"/><path class="s1" d="M3581 4016c-11-76-20-153-29-228-9-79-18-157-11-241 1-16 4-33 5-50 7-52 12-103 23-153 7-34 17-67 26-101"/><path class="s1" d="M3529 4029c-11-77-18-143-27-214-9-74-19-153-11-246 2-19 4-38 6-56 7-57 12-105 23-156 7-35 17-70 45-160"/><path class="s1" d="M3620 3589l13-7 12 1 8 11 1 7-3 3"/><path class="s1" d="M3586 3297h16l9 9 3 9 7-30"/><path class="s1" d="M3613 3313l-10 79v107l3 72 3 27 5 15 10-22"/><path class="s1" d="M3652 3606l-10 37-13 15-17 4-19-12-11-14-7-39-6-90 4-97"/><path class="s1" d="M3626 3583l6-41 9-14 10-6 12 9"/><path class="s1" d="M3657 3594l9-35"/><path class="s1" d="M3579 3652l-2 25 5 21-19 92"/><path class="s1" d="M3506 4062l12-43"/><path class="s1" d="M3587 3979l31 6 19 10 18 23 5 9"/><path class="s1" d="M3656 4090l27-202 27-178-7-17-17-20-27-9-15-1"/><path class="s1" d="M3582 3698l9-19 10-7"/><path class="s1" d="M3713 3705l11-16 5-31-12-26-25-25-25-7"/><path class="s1" d="M3727 3627l-5-42v-39l13-32-3-25"/><path class="s1" d="M3740 3538l16 24 2 43-14 18"/><path class="s1" d="M3781 3592l-9 137-9 21-11 129-15 23"/><path class="s1" d="M3737 3902l-47-1"/><path class="s1" d="M3688 3602v-17-25l5-26"/><path class="s1" d="M3693 3534l-2-63-3-74"/><path class="s1" d="M3638 3460l-9 20 7 31"/><path class="s1" d="M3666 3559l7 26"/><path class="s1" d="M3637 3507l19-6h23l11 5"/><path class="s1" d="M3637 3469l9 6 39-1"/><path class="s1" d="M3643 3465l-6-79 1-70"/><path class="s1" d="M3436 4048l4-79-2-37 26-182 17-59"/><path class="s1" d="M3757 4322l-9-1-12-9-7-13v-11"/><path class="s1" d="M3749 4296l-11-3-9-10 2-15 9-10 15-4 13 2 11 8 2 12"/><path class="s1" d="M3756 4291l8-8 12-1 22 45 12 32 15 34 14 21"/><path class="s1" d="M3756 4291l17 36 9 28 13 31 14 31"/><path class="s1" d="M3699 4412l6-45 11-2 6 4"/><path class="s1" d="M3774 4415l-6-44-8-4-7 1"/><path class="s1" d="M3721 4403v8"/><path class="s1" d="M3752 4402v13"/><path class="s1" d="M3749 4403a22 21 0 1 0-28-1"/><path class="s1" d="M3713 4540h-6l-1-5 4-36 21-6 17 4 9 10-4 35-7 2"/><path class="s1" d="M3716 4531l10-3 15 2 5 6"/><path class="s1" d="M3716 4493l2-54"/><path class="s1" d="M3751 4496l1-53"/><path class="s1" d="M3716 4541l-7 28-10 13-17 1-13-7-15-22-16-40-6-45-5-40"/><path class="s1" d="M3747 4545l-8 36-14 27-18 11-32-2-30-14-18-25-18-75"/><path class="s1" d="M3540 4625l23-18 23-32 21-44"/><path class="s1" d="M3598 4427l-4 40-11 43-14 32-18 19"/><path class="s1" d="M3586 4389l-4 44 12 5"/><path class="s1" d="M3441 4608l-31 26-19 20-14 52"/><path class="s1" d="M3324 5072l-8 105 15 34 39 35 61 17 28-2 17-5"/><path class="s1" d="M3368 5119l2 49 19 24 37 11 24 2"/><path class="s1" d="M3605 4355l18-52 26-51 27-41 33-33 25-16 15-7"/><path class="s1" d="M3633 4388l13-50 27-56 30-49 40-34 30-17 44-3"/><path class="s4" d="M3824 4130l-3 12-1 18v17l3 13 17-8-3-10v-13l1-13v-8z"/><path class="s1" d="M3817 4192l-3 8 2 10 26 2 8-5 1-12v-3"/><path class="s1" d="M3760 3992h-16l1-28 14-23 11-2v26"/><path class="s1" d="M3801 3969l9-26 14-1 2 18-9 31-22 2"/><path class="s1" d="M3764 3979l10-13 13-3 14 2"/><path class="s1" d="M3817 3993l-7 11-13 5h-5"/><path class="s1" d="M3823 3981l2 40-11 11-18 7-16 1-3-1"/><path class="s1" d="M3758 4008c-6 12-12 25-16 38-4 14-7 27-7 41 0 12 1 24 5 36 4 11 10 22 16 33"/><path class="s1" d="M3777 4016c-6 12-12 24-16 36-2 6-4 13-5 19 0 5-1 11-1 16 0 6 1 12 1 17 1 5 2 8 3 12 3 10 9 21 15 32"/><path class="s1" d="M3774 4148c6-2 12-3 24-4 9 0 22 0 18 1"/><path class="s1" d="M3754 4012c1-3 1-6 2-9 2-4 6-8 9-14"/><path class="s1" d="M3765 3989l9-1 9 4 5 10-6 14-5 6"/><path class="s1" d="M4066 4097l-60-1-36 15-37 20-39 3"/><path class="s1" d="M3856 4135l1-38h31v49"/><path class="s1" d="M3974 4156l-61-1"/><path class="s1" d="M3810 4127l-20-6-24-19"/><path class="s1" d="M3727 4077l-61-1"/><path class="s1" d="M3741 4145l-33-26h-56"/><path class="s1" d="M3499 4077l-51-2-19-9-15-27-12-57"/><path class="s1" d="M3371 3983l12 67 17 39 24 23 25 7h52"/><path class="s1" d="M3360 3952l-2 8 3 20 54-2-6-19 11-56h-24"/><path class="s1" d="M3398 3942l-19-139 1-53 14-129"/><path class="s1" d="M3368 3957l-20-122-2-39-1-28 23-162"/><path class="s1" d="M3362 3618l-7-31 4-25 49 1-5 29 12 47h-16"/><path class="s1" d="M3372 3557l28-177"/><path class="s1" d="M34e2 3380c1-20 2-41 0-61-2-21-8-41-13-60-5-20-9-39-14-65-2-8-4-18-3-25 0-5 2-9 4-13 3-5 7-10 12-13 9-4 20-5 27-6"/><path class="s1" d="M3413 3137l124-1"/><path class="s1" d="M3402 3554l23-145"/><path class="s1" d="M3425 3409c2-7 3-9 5-12 3-4 9-8 25-15 3-1 6-2 24-3 3 0 6 0 31-1"/><path class="s1" d="M3432 3356c0-22-1-34-4-48-3-20-9-43-14-62-4-14-7-26-10-40-1-6-2-13-2-21 0-6 1-12 5-15 2-3 7-4 12-4 46-7 88-4 129-2"/><path class="s1" d="M3464 3335l-7-21-27-131"/><path class="s1" d="M3427 3364l21-8 24-4h43"/><path class="s1" d="M3341 3729l-122-406"/><path class="s1" d="M3343 3019l18 71 10 10 15 8 13 6 6 17"/><path class="s1" d="M3283 2680l31 129 8 12 15 11 8 37"/><path class="s1" d="M3133 2848l40-193 14-17"/><path class="s1" d="M3419 3503l18 81-1 38-31 246"/><path class="s1" d="M3377 4059l-15 95"/><path class="s1" d="M3429 3486l27 1 11 23 15 26"/><path class="s1" d="M4029 4224l-5-5 9-7h20l9 9-4 4"/><path class="s4" d="M4062 4221v-13l-5-6-6-5m-16 0-9 8-2 14"/><path class="s1" d="M4028 4199v-14l8-7h15l5 7 1 15"/><path class="s1" d="M4032 4178v-9l-26-1"/><path class="s1" d="M4054 4178v-8h14"/><path class="s4" d="M3986 4138l-3 16 1 22h21l-2-17 1-21z"/><path class="s1" d="M4005 4146h20"/><path class="s1" d="M4025 4146v-4h41l1 5 3-1 5-8 18-1-5 20 6 21h-22l-3-8v-10-6l1-8"/><path class="s1" d="M3614 4814l12-163 3-27 2-5"/><path class="s1" d="M3757 4599l53 1 17 5 9 9 4 9 1 9-11 206"/><path class="s1" d="M3629 4220l-5 55"/><path class="s1" d="M3593 4597l-19 203"/><path class="s1" d="M3527 5297l-4 42"/><path class="s1" d="M3846 4144l30 2 22 7 22 14 20 22 14 24 5 29-2 54-2 60"/><path class="s1" d="M3955 4356c-2 12-4 24-6 36-5 23-13 46-17 69-2 13-3 26-4 40-1 28 2 60-1 83"/><path class="s1" d="M3927 4584l1 268"/><path class="s1" d="M3843 4181l26 6 11 4 14 8 13 15 8 13 3 17-2 51-2 57"/><path class="s1" d="M3914 4352c-2 12-3 21-6 32-4 20-12 45-17 70-2 15-3 30-4 45-1 30 2 62-1 84"/><path class="s1" d="M3886 4583l1 269"/><path class="s1" d="M3582 4358l19 24 18 19 29 15 93 14 127 3"/><path class="s1" d="M3728 4232h97l20 5 8 10 1 19-7 130"/><path class="s1" d="M3843 4457l-2 22-4 12-11 10-21 1h-33"/><path class="s1" d="M3697 4503h-25l-10-6-6-11 2-45"/><path class="s1" d="M3660 4395l3-57"/><path class="s1" d="M3647 4148l20 1 11 14 1 11 14 1"/><path class="s1" d="M3898 4234l-6 137"/><path class="s1" d="M3920 3838l-13 271"/><path class="s1" d="M3952 4096l8-160 7-14"/><path class="s1" d="M3981 4494h-27l-11-4"/><path class="s1" d="M3979 4426l-27 2"/><path class="s1" d="M3727 5497l-18 18 12 10-8 12 14 15 28-23"/><path class="s1" d="M3809 5590l-19 18 12 10-7 12 14 14 28-22"/><path class="s1" d="M3978 4238l41-1"/><path class="s1" d="M4060 4237h36"/><path class="s1" d="M4007 4608l-55-2"/><path class="s1" d="M3762 3909l123 3 16 5"/><path class="s1" d="M3474 3593l-27-2"/><path class="s4" d="M5050 4077l1 9 1 7 1 4 2 1m4-8m1-8m0-9m0-9m-5-12-2 3-2 5-1 8v9"/><path class="s1" d="M5056 4052l33 1"/><path class="s1" d="M5055 4098l34 1"/><path class="s4" d="M5094 4047l6 15v23l-6 21h15l6-19m0-28-5-14-16 2"/><path class="s4" d="M5198 4009l-9 2-7 4-5 7v8l3 8 6 7 9 5 10 2 9-2 7-4 5-7v-8l-2-7-5-7-7-5-8-2z"/><path class="s1" d="M5175 4025l-8 3-5 9-2 12 3 12 14 11 16 4 17-1 11-7 6-10-1-11"/><path class="s1" d="M5156 4034h-14"/><path class="s1" d="M5142 4034l6 60"/><path class="s1" d="M5110 4045h24"/><path class="s1" d="M5113 4112l5 27 14-1 17-43"/><path class="s1" d="M5111 4105h22"/><path class="s1" d="M5166 4203l-9-9-3-36"/><path class="s1" d="M5162 4192l7-7 9-2"/><path class="s1" d="M5167 4155l2 18 9 7"/><path class="s4" d="M5167 4155l11-6m22-3 10 8 2 12-6 6"/><path class="s4" d="M5170 4150v-13l5-8m14-3 11 3 3 16"/><path class="s1" d="M5210 4090l-9 12-21-1-18 4-5 6 3 22 8 7"/><path class="s1" d="M5206 4141l7-5 3-15 5-13-4-20-21-2"/><path class="s1" d="M5235 4103l-3-15-4-2-3-21"/><path class="s1" d="M5153 4096l15-1"/><path class="s1" d="M5139 4139l9 1 5 13"/><path class="s1" d="M5156 4153l8-5"/><path class="s1" d="M5141 4004l15-12 21 4 4 14"/><path class="s1" d="M5141 4004l3 27"/><path class="s4" d="M5153 4019l7-5m10 2"/><path class="s1" d="M5221 3962l13-22 20 140 58-1 16-22-19-128-4-11-7 4-8 16-4 1-52 1"/><path class="s1" d="M5285 3954l17 102"/><path class="s1" d="M5254 4080l-5 6"/><path class="s1" d="M5249 4086l1 5 3 4h5v5l-47 1e2"/><path class="s1" d="M5221 4121h8"/><path class="s1" d="M5163 4517l25-50 7-24 2-18-8-75-23-147"/><path class="s1" d="M5181 4167l31 205 4 54-3 34-12 29-26 50"/><path class="s1" d="M5187 4567l34-66 13-38 3-30"/><path class="s1" d="M5237 4433l-2-36-7-53-27-179"/><path class="s1" d="M5201 4568l-1 27h-18"/><path class="s1" d="M5103 4601l-13 14-15 11-9 16-6 34 4 55"/><path class="s1" d="M5090 4735l-2-61 1-27 20-19"/><path class="s1" d="M5098 4666l13 25 6 29 4 23"/><path class="s1" d="M5168 3991l-3-25"/><path class="s1" d="M5148 3994l-2-16"/><path class="s1" d="M5162 3944l-1-26 3-36 3-28-2-12-5-5h-6l-6 4-14 34-24 60"/><path class="s1" d="M5143 3949l-1-29 3-30 3-23"/><path class="s1" d="M5130 3946l9-23"/><path class="s1" d="M5129 3953l-13-1-10-5"/><path class="s1" d="M5128 4030l4-41 7-17 11-11 18-8 25 5 7 6"/><path class="s1" d="M5196 3971l6-10 5-1 9 8 6 4 1 11-4 11h-5l-8-15"/><path class="s1" d="M5250 4151l18 129"/><path class="s1" d="M5024 4818l17-18 8-17 3-29-11-15h43l14 13 89-2 11-11 4-8h26"/><path class="s1" d="M5097 4760l8 33 1 35 2 36 7 13 20 6h68l24-4 7-12-2-23-12-91-11-15"/><path class="s1" d="M5143 4779l-16 9-2 14 5 15 10 12 17 7h16l13-7 8-9 4-14-3-13-6-8"/><path class="s4" d="M5151 4790l1-7 5-5 7-2 7 2 6 5 3 8-1 7-5 5-7 2-7-2-6-6z"/><path class="s1" d="M5024 4805l3-37 7-15 9-3"/><path class="s1" d="M5234 4636l-12-98-4-5"/><path class="s1" d="M4487 4868l-5-207 6-42 4-18"/><path class="s1" d="M4516 4866l-7-204 8-57"/><path class="s1" d="M4539 4547l5 176 3 30 10 18 19 14 36 5h96l6-1 5 6-2 9-3 8H4605l-35-5-21-11-15-18-6-20"/><path class="s1" d="M4443 4613h32"/><path class="s1" d="M4551 4614l16 6 9 13 4 21 3 119"/><path class="s1" d="M4584 4821l1 34"/><path class="s1" d="M4119 4878l7-16 24-14 50-11"/><path class="s1" d="M4353 4832l26 8 18 11 1 26"/><path class="s1" d="M4715 4813l4 6 16 1 4-11-1-19-5-10-14-1-5 8"/><path class="s1" d="M4735 4783h18l3 17-3 16-14-1"/><path class="s1" d="M4776 4842l41-34 19-8 50-2"/><path class="s1" d="M4729 4844l20-17"/><path class="s1" d="M4773 4808l25-19 23-10 33-5 32-1"/><path class="s1" d="M4834 4708l-13 8"/><path class="s1" d="M4596 4241l22 529"/><path class="s1" d="M4621 4816l2 40"/><path class="s1" d="M4505 4315v-32l4-18 12-12 49-15 139-37 29-14 27-32"/><path class="s1" d="M4483 4312l1-45 10-22 14-15 119-33 79-22 36-30"/><path class="s1" d="M4473 4180l67-1 37-6 32-17 40-21"/><path class="s1" d="M4668 4154l-41 27-22 10"/><path class="s1" d="M4468 4211l53-2"/><path class="s1" d="M4551 4249l3 83-12 34"/><path class="s1" d="M4532 4455l22 3v33l-23 4"/><path class="s1" d="M4524 4258l2 56-4 14"/><path class="s1" d="M4512 4113l1-15 8-5 12-2 11 1 8 8 1 14-3 3"/><path class="s1" d="M4512 4113l6 4"/><path class="s1" d="M4523 4113v23l-17 1"/><path class="s1" d="M4507 4130l1 21-2 15"/><path class="s1" d="M4507 4130h-21"/><path class="s1" d="M4482 4165l5-1 19 2"/><path class="s1" d="M4548 4161v-43"/><path class="s1" d="M4548 4092l-3-70"/><path class="s1" d="M4519 4089l-1-19"/><path class="s4" d="M4650 4133l6-6 9-1 5 4m5 5m2 9 1 10-6 3-4-1"/><path class="s4" d="M4662 4125l18-10 1-8 12-6m20 6 3 9-6 15-22 15"/><path class="s1" d="M4682 4118l12 9"/><path class="s1" d="M4681 4107l2-19 5-5 14-3 17 9-3 27"/><path class="s4" d="M4743 4143v-9l12-10h14m8 7 3 15-5 11-14-2"/><path class="s1" d="M4755 4124l6-14-5-17 12-10 13-2 10 9 5 16-3 11-13 29"/><path class="s1" d="M4769 4107l12-4"/><path class="s1" d="M4739 4564l-113-2-11-11"/><path class="s1" d="M4750 4186h92"/><path class="s1" d="M4937 4628h14"/><path class="s1" d="M4938 4660h13"/><path class="s1" d="M4872 4626h11"/><path class="s1" d="M4875 4662l10 5"/><path class="s1" d="M4875 4662v-7l6-3"/><path class="s1" d="M4872 4626l2 7 5 2 1 5"/><path class="s1" d="M5012 4627h11l-1 6-3 5"/><path class="s1" d="M5015 4659h9l-3-7"/><path class="s1" d="M5034 4656l26-30 9-14 3-13-7-60"/><path class="s1" d="M5031 4627l14-16 2-9 2-13-6-46"/><path class="s1" d="M5038 4545l-3-7 5-7 18-2 11 2 1 10"/><path class="s1" d="M5069 4531l-3-18-5-6-12-1-15 5 3 17"/><path class="s1" d="M5033 4517l-14 4-3 7 1 10 14 2"/><path class="s1" d="M5043 4588l-7 1-6 6-6 4-10-2"/><path class="s1" d="M5006 4552l6-12"/><path class="s1" d="M5076 4591l8-2 2-6"/><path class="s1" d="M5039 4564h-29"/><path class="s1" d="M5037 4506l-5-41 6-7h12l8 3 5 42"/><path class="s1" d="M5032 4461l-7-9v-18l13-6h16l9 6 1 16-6 9"/><path class="s1" d="M5025 4434l-6-58"/><path class="s1" d="M5063 4434l-2-21"/><path class="s1" d="M5033 4390l3 15 12 8 13-7 2-17"/><path class="s1" d="M5084 4392l-12-19"/><path class="s1" d="M5083 4338l-9-5-9-1-6 2-7 11-17 40-2 5"/><path class="s1" d="M5043 4376l5 7 6 2"/><path class="s1" d="M5063 4388l6-13"/><path class="s1" d="M5019 4376v-9l8-8 10-2 6 2"/><path class="s1" d="M5020 4364l-5-51-9-17-19-17-19-22-9-17-3-17-7-64"/><path class="s1" d="M5044 4353l-3-24"/><path class="s1" d="M5075 4328l-18-24-18-17-27-20-19-20-13-15-6-30-3-44"/><path class="s1" d="M5033 4315l9 11 8 10"/><path class="s1" d="M5073 4505l3-21 7-12"/><path class="s1" d="M4901 4262l2-11 7-9 12-3 27-1"/><path class="s1" d="M5150 4685l9 55"/><path class="s1" d="M5058 3609h8l12 8-1 8 9 2"/><path class="s1" d="M5060 3603l13-15 7-1"/><path class="s1" d="M5060 3609l-19 24-14 23-10 26-5 22v16l3 12 10 4 15-1 14-6"/><path class="s1" d="M5076 3624l-11 16-14 21-10 19-6 15-2 11 1 6 11-2 13-6"/><path class="s1" d="M5079 3599l7 7 2 8"/><path class="s1" d="M4859 3805l-16-153 8-18 12-7h74l12 6 7 14 35 149"/><path class="s4" d="M4686 3992l-3-2-6-3-7-1h-7l-6 3-5 5-2 7 1 7 4 6 3 2 7 3 7 2 6-1 6-3 5-5 2-7-1-7z"/><path class="s4" d="M4808 3994l-3 6v6l3 7 5 5 7 4h9l7-2 6-4 2-3 1-6v-6l-4-5-5-5-7-3-8-1-7 2z"/><path class="s1" d="M4697 4005l1 20"/><path class="s1" d="M4729 4007l1 18"/><path class="s1" d="M4758 4004l-2 5 1 16"/><path class="s1" d="M4701 4029l30-1 10-4 10 3 33 1"/><path class="s4" d="M4714 3993h4l3 2 2 3 1 2-1 4-4 2h-5l-4-2-2-4 2-4z"/><path class="s4" d="M4772 3994v-1h4v1l4 3 2 4-1 3-4 3h-5l-4-3-2-4 2-4z"/><path class="s1" d="M4705 4015l3 4 7 2"/><path class="s1" d="M4778 4018l-5 3-7-1"/><path class="s1" d="M46e2 4004l-3 17v9l4 14 27 1"/><path class="s1" d="M46e2 4004h30"/><path class="s4" d="M4649 4004l-13 11 3 23m17 9m16 2m11-3 9-8 4-8 5-1"/><path class="s1" d="M4630 4045l9 15 17 7h16l14-6"/><path class="s4" d="M4804 4004l-2 9-11 11 13 20m25 5 16-18-1-18"/><path class="s1" d="M4845 4031l-3 23-5 9-13 5-15 2-12-5-11-13-10-5-75-1-9 9-6 6"/><path class="s1" d="M4830 4070l-4 13-6 4h-25"/><path class="s1" d="M4598 4047l1 52 4 11 9 3 13-1 4-13 8-4 7 1 1 7h29"/><path class="s1" d="M4725 4094l25-1"/><path class="s1" d="M4718 4084l1-13-11-5h-12l-8 6"/><path class="s1" d="M4752 4082l10-10 12-1"/><path class="s1" d="M4624 4118l3 9 8 9"/><path class="s1" d="M4701 4145h33"/><path class="s1" d="M4790 4144l19-4 7-8 4-14 1-3h16l5-5"/><path class="s1" d="M4853 4062l18 207"/><path class="s1" d="M4852 4001l12 1 4 13-1 21-2 7-12 3"/><path class="s1" d="M4660 3981v-12h49l3 8 12 1 26 1 14-2h30l1 11 3 9"/><path class="s1" d="M4671 3964l-1-24h-47l-18 22"/><path class="s1" d="M4704 3966l-1-27"/><path class="s1" d="M4609 3914l26-9 56 1 19 3"/><path class="s1" d="M4644 3911l-3 11v11"/><path class="s1" d="M4675 3950l9-5 14 2"/><path class="s4" d="M4747 3975v-34l-7 1m-6 1m-6-1h-8"/><path class="s1" d="M4747 3941v-12l12 1"/><path class="s1" d="M4760 3907h-13v-15"/><path class="s1" d="M4722 3890v52"/><path class="s4" d="M4759 3901l2 20-1 18h26l4-19-4-19z"/><path class="s4" d="M4718 3870v14l5 5 24 1 8-4v-17l-15 2m-11-1h-11"/><path class="s1" d="M4721 3943v32"/><path class="s1" d="M4713 3940l-10-1"/><path class="s1" d="M4788 3905l34 1 25 4 21 10 15 16 7 30 9 65 11 19 13 7 23-4 21-11"/><path class="s1" d="M4788 3935h14l30 4 20 7 6 17 7 19 2 10"/><path class="s1" d="M4879 4051l9 21 16 10 19 2 20-3 21-9 17-12"/><path class="s1" d="M4902 3981l36 22 15 16 7 19"/><path class="s1" d="M4904 4012l23 16 8 16"/><path class="s1" d="M4848 3973l-35-19-22-4"/><path class="s1" d="M4722 3867l1-71 5-26 9-11 17 1 12 19 14 27 21 7 90-1"/><path class="s1" d="M4749 3866l2-40 1-24"/><path class="s1" d="M4758 3821l15 10 22 5h39l65-1"/><path class="s1" d="M4627 3881l34-18 23-6h30"/><path class="s1" d="M4656 3837l29-8h29"/><path class="s1" d="M4758 3858l140 1"/><path class="s4" d="M4899 3791l8 63-5 31h30l9-26-10-68z"/><path class="s1" d="M4835 3865l3 34"/><path class="s1" d="M4828 3802l-14-201-7-8-10 1"/><path class="s1" d="M4814 3562l32-1 22 14 36 1"/><path class="s1" d="M4831 36e2l105-1"/><path class="s1" d="M4977 3614l23 94"/><path class="s1" d="M5014 3761l10 33"/><path class="s1" d="M4770 3645l3 19 10 120"/><path class="s1" d="M4923 3886l6 18 21-1 7-11-1-7-7-7 5-8"/><path class="s1" d="M4944 3809l70-4 16-9 7-8"/><path class="s1" d="M4944 3834l49-2 26-3 8-4"/><path class="s1" d="M4947 3860l49-1 13-2 13-3"/><path class="s1" d="M4885 3923l13-7h88l16 4 12 14 7 29 5 31"/><path class="s1" d="M4895 3944l11-3h74l13 9 7 53"/><path class="s1" d="M4948 4166h-27l1-12 3-8 8-3 7-1"/><path class="s1" d="M4944 4162l-2-19 5-10 10-7h12l8 4 1 28-5 7"/><path class="s1" d="M4956 4153l5-2h7"/><path class="s1" d="M4919 4176l-7 20 2 14 16 12 10-3 8-7h4"/><path class="s1" d="M4919 4195h29"/><path class="s1" d="M4987 4214l6-13v-5l-13-1"/><path class="s1" d="M4991 4152l4 21v13"/><path class="s1" d="M4942 4087l5 40"/><path class="s1" d="M4966 4079l5 43"/><path class="s1" d="M4882 4085l7 36 14 19 15 4"/><path class="s1" d="M4986 4136l8-11 2-17 7-12"/><path class="s1" d="M4972 4029l-4 12 8 16 12 5 11-7 6-5"/><path class="s1" d="M4972 4029l17-8v12l3 7 10 4"/><path class="s1" d="M4989 4021l49-31"/><path class="s1" d="M5006 4041l3 33"/><path class="s1" d="M5006 4041l14-8 20 3 4 25"/><path class="s1" d="M5009 4082l18-13 13 2"/><path class="s1" d="M5009 4082l7 56 4 5"/><path class="s1" d="M5047 4143l5-9-4-32"/><path class="s1" d="M5007 4227l15 9 17-15"/><path class="s1" d="M5013 4210l11 9 22-21"/><path class="s1" d="M5024 4194l-5-46 11-5 16 1 4 7 2 46-7 54-14-3 1-15"/><path class="s1" d="M5029 4188l-7 10"/><path class="s1" d="M5070 4275l-17-31"/><path class="s1" d="M5134 5164v47l-24 26-33 7"/><path class="s1" d="M5177 4458l-19-171 1-22 7-10"/><path class="s1" d="M5777 1810l113-28"/><path class="s4" d="M4239 5641l8 48 7 44 8 26 7 6 6-6 10-34 6-36 5-46 8-208 2-270-2-229-5-114-5-75-3-45-1-34-2-17-7-10-12 9-2 16-6 36-5 44-6 79-6 112-7 235-2 268z"/><path class="s1" d="M4261 5692l17-1"/><path class="s1" d="M4272 4713h9"/><path class="s1" d="M4612 3044l-9-13"/><path class="s1" d="M4612 2983l-10 9"/><path class="s4" d="M4608 3506m-18-36 8 2 30 24"/><path class="s1" d="M4617 3524l-11 12-32-25"/><path class="s1" d="M4574 3511h-9"/><path class="s1" d="M4628 3521l-12-10"/><path class="s1" d="M4562 3469h12"/><path class="s1" d="M4615 3510l13-14"/><path class="s1" d="M4575 3392l10 16"/><path class="s1" d="M4577 3476l6 15"/><path class="s1" d="M4565 3397l2 12-1 14-3 9h-23"/><path class="s1" d="M4541 3432h-15l-5-7-16 1"/><path class="s1" d="M4503 3399h18l11-6h8"/><path class="s1" d="M4540 3393h9 11l5 4"/><path class="s1" d="M4564 3474l3 11-1 14-4 10h-21"/><path class="s1" d="M4544 3509h-19l-4-8-16 1"/><path class="s1" d="M4503 3475h18l10-6h12"/><path class="s1" d="M4541 3469h7 12l4 5"/><path class="s1" d="M4061 4784c-2 8-4 16-4 25 1 11 6 21 13 26 11 8 26 3 38-2 20-10 29-21 36-63"/><path class="s1" d="M4144 4770l-12-28"/><path class="s1" d="M4066 4736l10 8h15"/><path class="s1" d="M4428 4746l9 1 9-4"/><path class="s1" d="M4444 4777c2 10 4 19 5 31 0 10-1 22-5 27-9 10-32-3-51-13-13-7-24-13-26-22-3-9 3-21 7-32 4-9 7-17 13-24"/><path class="s1" d="M7494 5498l-814 407-16 3-8-5-68-215-35-62"/><path class="s1" d="M6553 5626c-32-117-56-241-83-364-26-118-55-234-89-350-55-184-123-364-192-543-3-8-6-16-9-24"/><path class="s1" d="M4364 4967l335-41 129-16"/><path class="s1" d="M4358 5038l10 5"/><path class="s1" d="M4368 5043l56 25 2 105"/><path class="s1" d="M3987 5594l135-79 4-32"/><g><path class="s5" d="M4463 76e2v283c0 9-2 17-7 25-4 7-11 14-18 18-8 5-16 7-25 7H4130c-9 0-17-3-25-7-7-4-14-11-18-18-5-8-7-16-7-25V76e2c0-9 3-18 7-25 4-7 11-14 18-18 8-5 16-7 25-7h283c9 0 18 2 25 7 7 4 14 11 18 18 5 8 7 16 7 25" fill-rule="evenodd"/></g><path class="s6" d="M4130 76e2h283v283H4130z"/><text x="4198" y="7816"><tspan class="f3 s7" font-size="206.944">A</tspan></text><path class="s8" d="M1430 1734H7418l-93 157-922 1580-161 15-37 3-41 10-12 5-25 17-23 26-11 26-6 33-10 88 37 75 68 68 80 67 93 74 115 76-15 30-212 271 93 292-59 64-145 169-182 207-233 244-145 140-185 158-163 128-182 123-186 117v60l4 52 4 49 26 26 7 72H3640l-4-19v-45l15-34 13-73-133-88-186-124-241-188-122-110-60-66 10-41-80-49-78-39-63-48-293-361-132-187-68-94 129-378-165-246-39-56 115-62 149-112 98-79 45-67 18-37-5-74-25-61-50-43-85-24-109-15-32 2-252-516-124-253z"/><path class="s5" d="M5571 6508H5172V6316h399z"/><g><path class="s5" d="M5180 6950c-8-1-16-4-23-9-6-4-12-11-15-18-4-7-6-15-6-23V6735c0-3 0-6 0-8 1-3 1-5 2-8 1-2 2-5 3-7l66-127v-78c-1-10 2-19 7-27 5-8 13-14 21-19 9-4 19-6 28-4l49 6c5 1 10 2 14 4 4 2 9 4 13 8 4 3 7 7 9 11l44 67c2 4 4 8 6 12 1 4 2 8 2 12 1 4 0 8 0 12l-43 253c-1 4-2 7-3 10-2 3-3 7-5 10-2 2-4 5-6 7l-72 73c-4 3-8 6-13 8-4 3-9 4-14 5-5 2-10 2-16 1l-48-6" fill-rule="evenodd"/></g><path class="s9" d="M5256 6506l50 2 44 65m-50-2 50 2-44 253-50-2 44-253-44-65v77l-71 153v164l50 2 33-71m-12-7v-77l-71 153"/><text x="5217" y="6468"><tspan class="f2 s7" font-size="137.5">FWD</tspan></text><path class="s10" d="M6382 1361l-87 336"/><path class="s11" d="M6287 1729l66-138-58-15z"/><path class="s1" d="M6390 1329l-103 4e2"/><path class="s1" d="M6846 5168l23-8 58 14 23-8"/><path class="s11" d="M6898 5167l-63 139 59 14z"/><path class="s1" d="M6635 6311l263-1144"/><path class="s1" d="M1680 5204l18-15 60-8 18-15"/><path class="s11" d="M1728 5185l-12 153 60-8z"/><path class="s1" d="M1859 6275 1728 5185"/><text x="6119" y="1156"><tspan class="f2 s7" font-size="123.611">INSPECTION AREA</tspan></text><text x="6119" y="1280"><tspan class="f2 s7" font-size="113.875">(ZONES 715, 716)</tspan></text><text x="3169" y="7406"><tspan class="f3 s7" font-size="123.611">NOSE LANDING GEAR WHEEL WELL</tspan></text><text x="3949" y="7530"><tspan class="f3 s7" font-size="123.611">(AFT SIDE)</tspan></text><text x="1312" y="6434"><tspan class="f2 s7" font-size="123.611">RIGHT AFT NOSE</tspan></text><text x="1312" y="6558"><tspan class="f2 s7" font-size="123.611">LANDING GEAR</tspan></text><text x="1312" y="6683"><tspan class="f2 s7" font-size="112.712">DOOR, 716</tspan></text><text x="6110" y="6451"><tspan class="f2 s7" font-size="123.611">LEFT AFT NOSE</tspan></text><text x="6110" y="6575"><tspan class="f2 s7" font-size="123.611">LANDING GEAR</tspan></text><text x="6110" y="6700"><tspan class="f2 s7" font-size="112.712">DOOR, 715</tspan></text></svg>