<svg xmlns="http://www.w3.org/2000/svg" height="10in" viewBox="0 0 7777 10005" width="7.78in"><defs><style>.f1{font-family:Consolas,Courier New,monospace}.f2{font-family:Helvetica,Arial,sans-serif}.f3{font-family:Helvetica,Arial,sans-serif;font-weight:700}.f4{font-family:Times}.f5{font-family:Times;font-weight:700}.f6{font-family:Courier}.f7{font-family:Courier;font-weight:700}.f8{font-family:Symbol}.s6{fill:none;stroke:#000;stroke-width:8}.s8{fill:#fff}.s2{fill:#ccc;stroke:#ccc;stroke-width:8}.s3{fill:#ffc;stroke:#ffc;stroke-width:8}.s4{fill:none;stroke:#000;stroke-dasharray:225,25,50,25,50,25;stroke-width:10.005}.s1{fill:#ffc}.s10{fill:none;stroke:#fff;stroke-width:70}.s9{fill:#000}.s7{fill:none;stroke:#f0f;stroke-width:20}.s11{fill:none;stroke:#00f;stroke-width:20}.s13{fill:#000;stroke:#000;stroke-width:8}.s12{fill:none;stroke:#00f;stroke-width:12}.s5{fill:none;stroke:#000;stroke-width:10.005}</style></defs><g><path class="s1" d="M1796 1054l1 4-4 10-2 20 5 51h1l48 2 8-3 38 4v20l-30-1 1 19h35l1 6 14 1 1 31 2 10c-12 0-24 0-35 3-10 3-19 8-27 14-12 10-22 22-30 36-6 13-11 27-11 40-1 13 2 25 7 36 6 12 14 22 25 30 7 5 16 8 25 11 12 3 25 4 36 3 5-1 9-2 14-3l9-3c12 4 24 9 37 11 13 2 27 2 40-2 14-5 26-13 36-22 9-10 17-20 22-32 5-11 7-23 8-35 0-15-2-30-9-44-6-13-16-25-29-31-6-3-12-5-17-6l-15-2 22-57-2-7-10-4-6-4-2-8 34 3 7-56-3-23 106 2 177 1 98-2c0 5 7 15 14 23 15 20 26 35 42 47 11 8 25 15 39 21 23 9 47 15 72 18 37 5 76 5 114 3 25-2 50-4 74-8 11-1 22-3 33-4l36-6 59-11 16-10 5-2 62-23 4-9 36-15-7-10 6-9 6-12 353-3 26 4 31 4 55 2h85l8 23 5 3 6 11 11-1-3 25-11 8c-4-4-8-8-13-11-6-3-12-4-18-5-10-1-21-3-31 0-7 2-13 6-19 12-7 8-12 17-15 27-4 11-4 23-4 34 1 13 3 27 11 37 5 7 12 13 20 16 9 3 18 3 28 3 12 0 24-1 31-8 4-3 6-9 9-13l6-9c6 10 10 19 18 24 4 3 8 5 12 6 12 3 23 2 35 0 9 0 17-2 24-9 3-3 5-7 7-8 4 0 7 7 11 11 5 3 10 4 15 4 12 2 25 3 36-1 8-3 16-8 21-15 5-6 8-12 10-19 3-6 4-13 5-20 1-9 0-17-1-25-1-9-4-18-8-27-4-8-10-17-18-20-3-1-6-1-9-1-9-1-17-1-26 0-6 1-13 2-18 4l-11 8-8 7-3-7 7-10v-7l-3-7h-13l-5-8-8-6-14-1v-14l16-4 8-8 182-1c-2 20-3 40-4 61-1 19-2 38-8 54-4 9-9 17-15 25l-13 11-19 13 1 4 115-2 44-6 28-5 8 7 15 9 159 1v-17l4-17-12-22-8-16-4-19-5-74-7-17 88-4c1 5 3 9 4 14 8 18 19 36 31 52 7 9 15 19 24 27 7 7 16 14 24 22l10 8c-7 11-6 26-5 40 1 15 2 29 10 41 2 4 6 8 9 12l12 8 43 2 11-5 14-11 9-21 7-24 13 1 8 40 11 17 10 6 44 3 11-5 12-8 9 5 48-1 13-6 6-14 7-17 4-24c21-5 42-10 62-15 20-6 40-13 59-21 22-10 43-21 63-34 8-6 17-12 26-19l14-18 23-20v-20l29-33-9-17 6-20 10-17-13-29 3-9 5-24c14-14 35-19 53-28 20-10 37-24 54-39 12-11 25-22 37-33 7-7 14-13 20-19l9-11 9-16 426-57 21-3 5 2 21 13 25 6 33 1 31-1 8-6 3-7 1-9-1-13 268-39 162-23 11 8 14 6 19 4 20 7 12 3 12 2 7-7 3-10 1-15-3-8c36-5 72-8 109-12 93-9 187-20 281-32 47-5 93-12 140-17 94-12 187-22 281-33 56-6 113-13 169-20 33-4 65-7 98-11 40-5 81-11 121-18 29-6 58-12 86-19 20-6 40-12 59-19 11-4 21-8 32-11l7-6v-4l-2-5-48 11-33 7-39 6-103 7-158 11-112 11-338 31-453 45-332 35-289 29-208 21-239 23-115 9-102 8-20-14 32-216 30-199 28-203-42-9c-4-1-9 0-14 2-4 1-8 4-12 6-2 2-4 5-6 8-4 5-7 11-9 17L4791 504c-11 13-16 30-27 42-7 7-16 12-25 18l-14 4c-1 0-2 0-3 0-67-15-134-27-201-39L2659 211c-48-7-94-13-140-18-52-5-104-9-156-12-59-3-117-4-176-4-82 1-165 6-246 16-66 8-132 19-197 34-61 15-122 33-178 61-96 46-178 118-268 176l-69 48-12 7-20 12c-23 15-45 31-66 48-30 25-58 54-85 84-16 17-32 36-43 57-8 14-15 30-16 46-1 19 5 38 15 55 13 22 32 38 52 53 46 33 98 55 151 74 79 27 159 46 241 61 48 9 98 17 146 24 56 8 111 14 168 21 7 1 13 1 19 1 6 0 12 0 17-1" fill-rule="evenodd"/></g><g><path class="s2" d="M3688 1077c10-3 21-6 31-11 13-6 26-14 37-24 11-9 20-19 27-31 5-9 9-19 12-30 3-7 5-14 7-22 1-5 2-10 3-15 1-3 1-6 2-9 1-6 3-12 6-17 1-3 3-6 4-8 3-3 5-7 6-10 1-4 2-8 3-12l5 2c4 1 8 2 11 3 4 2 9 4 13 6 6 4 12 8 18 12 4 3 8 6 12 9 5 3 11 6 17 8 9 4 19 7 28 10 22 7 44 11 66 15 24 3 49 6 73 8 11 1 21 2 31 2 18 1 36 2 53 1 18-1 35-2 53-3l-7 7c-3 3-6 6-9 9-4 3-8 5-12 8-3 2-6 4-8 5-5 2-11 2-16 3-2 1-3 1-4 1l-7 13-12 19-28 26-37 9-116 9-96 6-103 1h-63" fill-rule="evenodd"/></g><g><path class="s3" d="M1185 5557c-110-258-220-516-213-765 11-364 274-708 224-1143-30-260-172-552-94-690 87-155 452-116 776-107 686 17 1190-108 1647 190 36 23 71 48 106 71 361 233 799 208 1283 155 976-107 2137-328 2589 335v326 480V5610l-3 327-439 4-1462-32-988-15-118 809-1628-13 85-330 103-524-47-3-314-21-653-101-470-82-384-72" fill-rule="evenodd"/></g><g><path class="s2" d="M2145 3423c46 3 93 6 139 10 92 8 184 23 274 42 95 20 189 45 283 68 172 40 345 71 519 99 201 33 403 62 605 91 287 40 574 78 862 112 308 36 615 67 924 97 192 19 385 37 579 42 177 5 354-1 531 6 44 2 87 4 131 7l2 57c-4 24-8 48-16 71-15 50-45 96-80 136-32 37-68 69-105 102-9 8-18 16-25 25-8 10-14 20-19 31-8 14-15 29-17 44-2 11 0 22 1 34 18 145-8 292-58 429-23 62-51 122-88 177-31 46-68 88-108 127-71 69-151 129-231 189l-410-18-166 164-741-27 175-343 43-102 41-129-1559-74-425-21-433-21c14 47 28 94 45 139 21 57 47 112 77 164 41 69 90 133 134 2e2 12 17 23 35 34 53l10 20-5 8 11 30 13 5 1 16-460-12c-46-47-92-94-138-141-61-62-124-123-178-191-56-71-103-149-142-230-47-99-83-203-107-310-22-98-33-198-35-299-1-93 6-185 19-277 14-91 33-181 62-268 7-20 14-40 20-61 3-13 5-27 6-40 1-16 1-31-2-47-2-14-5-29-7-43-7-47 3-94 14-141" fill-rule="evenodd"/></g><path class="s2" d="M3111 5528l-26 140-56 293-33 177-45 223-37 164-35 120-12 48 346 1 302 6 671 3 303 5 99-670 71-485-13-28-71 10-35-3 4 33-5 65 8 4v18l-30-3 1-14 8-5-3-49-41 119-7 9h-11l-8-6-4-8 54-165-598-18-2 37h-6l-9 64 9 4-2 15h-29v-19l9-2v-66l-4-1 3-33-67-1-55-14-310-11-71 12-77-9-7 40-4-2-16 67 7 5-2 17h-29l2-18 6-3 2-69 4-25 4-17h-5l-130-8 76 178-1 11-4 6 3 11-7 4-5-2-1-8-11-2-51-115z"/><path class="s4" d="M3422 1073l34 1 32-4 43-6 27-12"/><path class="s5" d="M3084 5463a21 11 157.43812560429677 1 0 38-18"/><path class="s5" d="M3083 5466l-10-28"/><path class="s5" d="M3112 5421l13 26"/><path class="s5" d="M3079 5429l-89-208"/><path class="s5" d="M3103 5419l-94-217"/><path class="s5" d="M3077 5429a15 15 126.86989764584402 0 0 23-11"/><path class="s5" d="M3093 5472l86 199"/><path class="s5" d="M3121 5459l86 2e2"/><path class="s5" d="M3179 5672a17 17 128.15722658736905 0 0 28-14"/><ellipse class="s6" cx="3201" cy="5680" rx="7" ry="3" transform="rotate(-84.3450337629899 3201.0,5680.0)"/><path class="s5" d="M32e2 5687h-4"/><path class="s5" d="M3196 5687c-1-1-2-3-2-4 0-2 0-3 0-4 0-1 1-2 1-3 1-1 1-1 1-2"/><path class="s5" d="M4380 4949c0 4-1 9-2 13"/><path class="s5" d="M4494 4953c-1 9-2 17-4 26"/><path class="s5" d="M4378 4960a56 48-172.8749836510982 1 0 112 17"/><path class="s5" d="M4377 5003a61 48-167.99302195596147 0 0 115-11"/><path class="s5" d="M4377 5004l-8-6"/><path class="s5" d="M4361 4983v-5l3-4h5l2 2"/><path class="s5" d="M4361 4984l-1 3v8"/><path class="s5" d="M4361 4999v2l-1 11"/><path class="s5" d="M4367 4999l-1 2v11"/><ellipse class="s6" cx="4363" cy="5012" rx="3" ry="1" transform="rotate(180.0 4363.0,5012.0)"/><path class="s5" d="M4360 4996l1 3"/><path class="s5" d="M4370 4985l-1 10-2 4"/><path class="s5" d="M4357 4974l7-1"/><path class="s5" d="M4357 4974l1-8 9-17 4-3"/><path class="s5" d="M4372 4966l2-8 6-10"/><path class="s5" d="M4371 5021a54 49-168.47221705034593 1 0 106 15"/><path class="s5" d="M4477 5037l4-19"/><path class="s5" d="M4372 5020l4-16"/><path class="s5" d="M4480 5038c5 5 11 10 18 15 12 8 27 12 41 15 20 3 40 4 61 5"/><path class="s5" d="M4369 5034c1 7 1 16 2 24 2 12 7 22 14 32 7 12 17 21 28 30 8 6 16 11 22 15"/><path class="s5" d="M3996 4933c16 15 32 31 48 46 8 8 17 16 27 23 13 9 27 17 43 21 16 4 33 4 50 5 18 0 37 1 56 4 11 1 21 3 30 9 4 3 7 6 10 10"/><path class="s5" d="M4260 5051c-1 4-2 9-3 13-1 10 1 20 3 29 1 7 2 13 6 19 3 6 8 12 13 18"/><path class="s5" d="M4108 4936c6 5 11 10 17 13 9 4 20 5 31 5 12 0 23 1 34 1 16 1 32 4 48 7 17 4 35 9 49 18 11 7 21 16 29 27 6 7 11 14 14 23 3 7 3 15 2 23-1 9-5 19-2 26 1 3 3 5 5 7 6 6 12 11 19 16 8 5 17 8 26 13 8 4 16 9 25 13 6 3 13 5 20 7"/><path class="s5" d="M4369 5046c-3 6-6 11-9 17-3 6-6 13-11 19-2 2-5 5-8 8"/><path class="s5" d="M4402 5110c-1 3-2 6-3 9 0 3 0 5 0 6"/><path class="s5" d="M4602 5142l-882-32 2-3h-13"/><path class="s5" d="M3718 5128l885 34"/><path class="s5" d="M4490 5137l2-3 1 5v19l-2 3-1-2"/><path class="s5" d="M4503 5134l1 5v19l-2 2-1-2"/><path class="s5" d="M4492 5134h11"/><path class="s5" d="M4315 5131l2-4v6l1 18-3 4-1-3"/><path class="s5" d="M4328 5127l1 6 1 18-3 4-1-3"/><path class="s5" d="M4317 5127h11"/><path class="s6" d="M4156 5120l-1 6v20 4h11v-5l1-21 1-4z"/><path class="s6" d="M4013 5114l-2 5-1 21 1 3 11 1-1-4v-20l2-5z"/><path class="s5" d="M4023 5115l1 3"/><path class="s5" d="M4022 5144l1-5"/><path class="s5" d="M4485 5175v20l-1 7-1 5-1-9"/><path class="s5" d="M4483 5207h11l1-5 1-7v-19l1-4-3-2-3-1-4 2-2 4"/><path class="s5" d="M4484 5175l1-12"/><path class="s5" d="M4497 5172v-8"/><path class="s5" d="M4312 5169l1 20-1 6-1 7v-9"/><path class="s5" d="M4311 5201h12l1-6 1-6-1-20 2-3-3-1-4-1-5 1-2 4"/><path class="s5" d="M4312 5169v-10"/><path class="s5" d="M4326 5166v-7"/><path class="s5" d="M4156 5161v22l-1 5-1 5-1-8"/><path class="s5" d="M4154 5193h12v-5l1-5v-21l1-3-2-1h-4l-4 1-2 2"/><path class="s5" d="M4155 5161l1-9"/><path class="s5" d="M4168 5159v-7"/><path class="s5" d="M4015 5158v21l-1 5-1 5-1-7"/><path class="s5" d="M4013 5189h10l1-5 1-5v-20l1-3-3-2-2-1-4 2-2 3"/><path class="s5" d="M4015 5158v-12"/><path class="s5" d="M4027 5156l-1-8"/><path class="s5" d="M3861 5152v19l-1 8-1 4"/><path class="s5" d="M3859 5183h11l2-4v-7-19l1-4-3-1-3-2-4 2-2 4"/><path class="s5" d="M3861 5152v-12"/><path class="s5" d="M3874 5149l-1-8"/><path class="s5" d="M3801 4925c7 6 15 12 21 19 11 13 17 28 24 43 10 21 22 39 28 60 2 7 3 15 5 24"/><path class="s5" d="M3841 4925c7 12 14 25 21 37 8 15 15 31 22 46 6 14 12 28 16 43 1 6 3 13 5 20"/><path class="s5" d="M3877 5069a15 10-4.54513846041116 1 0 30 1"/><path class="s5" d="M3878 5083a15 10-4.54513846041116 0 0 31-3"/><path class="s5" d="M3908 5071l1 11"/><path class="s5" d="M3877 5084l-1-11"/><path class="s5" d="M3882 5088l3 24"/><path class="s5" d="M3906 5084l5 30"/><path class="s5" d="M3922 5083l3 31"/><path class="s5" d="M3934 5081l4 34"/><path class="s5" d="M3939 4945c-1 9-2 18-4 27-1 12-2 23-3 35 0 5 0 11 0 16 0 10 0 19 0 28 0 6 0 11 2 32"/><path class="s5" d="M3922 5084c-3-22-3-27-3-32 0-8-1-16 0-23 0-8 0-16 1-23 0-9 1-17 2-25 1-8 2-15 3-22 0-5 0-10 0-15"/><path class="s5" d="M3925 4944l4-3h4 4l2 4"/><path class="s5" d="M3926 4928l2 13"/><path class="s5" d="M3935 4928l2 13"/><path class="s5" d="M3725 4927l7 36"/><path class="s5" d="M3737 4989l4 20"/><path class="s5" d="M3746 5032l16 76"/><path class="s5" d="M3814 5110l-13-88"/><path class="s5" d="M3797 5002l-5-27"/><path class="s5" d="M3780 4922l5 24"/><path class="s5" d="M3740 5003a30 22-15.647766196673636 1 0 56-9"/><path class="s5" d="M3741 5019a30 22-15.647766196673636 1 0 59-10"/><path class="s5" d="M3741 5022l-2-10"/><path class="s5" d="M3799 5002l1 9"/><path class="s5" d="M3726 4952a32 24-14.036243467926475 1 0 59-12"/><path class="s5" d="M3731 4971l-15-10-2-3 2-3 4-1h4l2 1 1 3"/><path class="s5" d="M3714 4958v3l2 6"/><path class="s5" d="M3716 4966l-1 8v3l-2 7"/><path class="s5" d="M3721 4976l-1 2-1 7"/><ellipse class="s6" cx="3716" cy="4984" rx="2" ry="1" transform="rotate(0.0 3716.0,4984.0)"/><path class="s5" d="M3723 4974l11 9"/><path class="s5" d="M3734 4983c2 1 4 3 7 4 4 2 8 4 12 4 6 1 13 1 19-1 5-2 10-5 14-9 3-3 4-8 6-12 1-3 1-7 1-11 0-2-1-5-1-8"/><path class="s5" d="M3983 4956l38 3"/><path class="s5" d="M3983 5096l81 5"/><path class="s5" d="M3562 5247c-15 1-31 1-46 2-16 1-33 1-49 0-19-1-38-5-57-8-17-2-34-4-50-10-16-6-31-16-45-26-10-7-19-14-28-21-4-4-8-7-12-10-5-3-10-6-16-8-7-2-15-2-22-4-4-1-7-3-10-4"/><path class="s5" d="M3333 5049c3 4 6 8 8 13 1 3 1 6 3 9 1 3 3 5 6 8"/><path class="s5" d="M3361 5089c2 2 5 5 7 8"/><path class="s5" d="M3365 5074l-69 54"/><path class="s5" d="M3296 5128c-1 2-3 3-6 5-6 3-12 6-19 7-7 1-14 2-21 1-6-1-12-2-18-5-15-6-30-18-44-28"/><path class="s5" d="M3067 5002l50 39"/><path class="s5" d="M3128 5052l46 35"/><path class="s5" d="M3147 5334l370 14"/><path class="s5" d="M3532 5254l-18 122"/><path class="s5" d="M3024 5063l12 10 106 87-5 43-125-1e2"/><path class="s5" d="M3137 5202l15-19"/><path class="s5" d="M3040 5269c1-5 2-9 3-13 2-5 3-11 6-15 2-4 5-7 7-11 1-1 3-3 4-4 3-1 6-2 8-2"/><path class="s5" d="M3068 5224l44 1 3 2h9l1-2 39 3"/><path class="s6" d="M3171 5228m4 0 18 1m13 1 164 5"/><path class="s5" d="M3659 5276l-14 116"/><path class="s5" d="M3646 5255c3 0 6 2 8 4 2 1 4 3 5 6 1 3 1 7 0 11"/><path class="s5" d="M3661 5251c1 3 3 4 5 5 1 2 2 3 2 6"/><path class="s5" d="M3668 5262l-9 16"/><path class="s5" d="M3531 5261c1-2 1-4 3-6 1-2 3-4 5-6 1 0 2-1 3-1"/><path class="s5" d="M3531 5260l-3-8 1-3 2-1"/><path class="s5" d="M3543 5131l30 173"/><path class="s5" d="M3561 5130l29 173"/><path class="s5" d="M3575 5304a7 7 146.30993247402023 0 0 13-4"/><path class="s5" d="M3563 5341l12-1h16l15 5"/><path class="s5" d="M3566 5327l41 1v10l-1 7"/><path class="s5" d="M3566 5327v7l-3 7"/><g><path class="s6" d="M3509 5410a65 24-174.64571185180424 0 0 14 16m95 11m0 0a65 24-174.64571185180424 1 0-109-27" fill-rule="evenodd"/></g><g><path class="s6" d="M3493 5405a82 30-174.4492004982134 1 0 136-11m-106-10m0 0a82 30-174.4492004982134 0 0-30 21" fill-rule="evenodd"/></g><path class="s5" d="M3493 5405l1-11"/><path class="s5" d="M3657 5420l1-12"/><path class="s5" d="M3658 5409a82 30-174.4492004982134 1 0-165-16"/><path class="s5" d="M4079 5256c1 7 2 15 3 22 1 6 3 12 4 19 2 5 4 11 5 17 1 5 1 9 2 14"/><path class="s5" d="M4094 5345c1 4 2 8 3 12 2 4 6 9 10 12 3 3 7 5 11 6 1 0 2 0 4 0"/><path class="s5" d="M4063 5269c1 9 3 16 4 24 2 7 3 14 5 22 1 7 2 15 2 23"/><path class="s5" d="M4080 5358c3 5 3 13 6 19 3 9 10 14 18 14 7 1 16-3 23-2"/><path class="s5" d="M4140 5376c3 0 8 0 12 0"/><path class="s5" d="M4147 5391c4 0 7 0 10 0"/><path class="s5" d="M4171 5376c14 0 18-4 32-5 5-1 13-1 21-1 10 1 21 1 30 4 7 2 13 6 21 6"/><path class="s5" d="M4178 5391c11 0 17 4 27 6 10 2 22 2 33 2 9 0 16 0 23-1 6-2 12-4 19-4"/><path class="s5" d="M4292 5379c7 1 7-1 10-2 4-2 11-3 17-3 9 1 14 3 19 5 5 2 7 3 10 3"/><path class="s5" d="M4301 5395c4 0 9 3 12 4 6 3 10 2 14 2 4 0 8 1 11 1 8 0 12-6 15-6"/><path class="s5" d="M4367 5380c7 0 14-3 21-4 9-1 18-1 27-1 6 0 12 0 17-1"/><path class="s5" d="M4453 5374c6 1 12 2 18 3 6 2 12 5 18 7 6 1 11 1 16 1"/><path class="s5" d="M4376 5399c9 1 12 0 21-1 7-1 18-2 27-3 5 0 10-1 14-2"/><path class="s5" d="M4462 5395c6 0 12 1 17 2 5 1 11 4 16 5 6 1 12 1 17 1"/><path class="s5" d="M4528 5388c9 1 17 1 25 1"/><path class="s5" d="M4537 5402c4 0 8 0 11 1"/><path class="s6" d="M4122 5374h17l1 3h-17z"/><path class="s6" d="M4127 5387l1 5h20l-1-5z"/><path class="s5" d="M4125 5377v3l1 4 4 4"/><path class="s5" d="M4138 5377l2 3 1 4v3"/><path class="s6" d="M4154 5375h15l2 4-17-1z"/><path class="s6" d="M4159 5389l1 5h19l-1-5z"/><path class="s5" d="M4157 5378v3l1 5 4 3"/><path class="s5" d="M4168 5379l3 2 1 5-1 3"/><path class="s6" d="M4276 5377h15l1 5h-15z"/><path class="s6" d="M4281 5392l1 5h19l-1-5z"/><path class="s5" d="M4279 5382v4l1 3 4 3"/><path class="s5" d="M4290 5382l2 3 1 4v3"/><path class="s6" d="M4349 5379h15l1 6h-15z"/><path class="s6" d="M4354 5394l1 5h20l-1-5z"/><path class="s5" d="M4352 5384v3l1 4 4 3"/><path class="s5" d="M4363 5385l2 2 1 4v3"/><path class="s6" d="M4433 5375h16l1 4h-16z"/><path class="s6" d="M4438 5389l1 5 20-1-1-5z"/><path class="s5" d="M4436 5378v3l1 4 4 4"/><path class="s5" d="M4448 5379l2 2 1 4v3"/><path class="s6" d="M4510 5386h15l2 5-17-1z"/><path class="s6" d="M4515 54e2l1 4h19l-1-4z"/><path class="s5" d="M4513 5391v3l1 3 4 3"/><path class="s5" d="M4524 5391l3 2 1 4-1 3"/><path class="s6" d="M4581 5390h17l1 4h-17z"/><path class="s5" d="M4587 5402l1 6 19-1-2-5-18 1"/><path class="s5" d="M4585 5394v3l1 3 4 3"/><path class="s5" d="M4597 5394l2 3 1 3v2"/><path class="s5" d="M4613 5390h14l2 5-16-1-1-4"/><path class="s6" d="M4617 5403l1 5h14l-1-5z"/><path class="s5" d="M4616 5395l-1 3 2 2 4 3"/><path class="s5" d="M4626 5395l2 2 2 3-1 3"/><path class="s5" d="M4599 5391l13 1"/><path class="s5" d="M4607 5405h10"/><path class="s5" d="M4577 5404h9"/><path class="s5" d="M4597 5270l-65 197"/><path class="s5" d="M4553 5473l64-191"/><path class="s5" d="M4597 5272a14 14 171.86989764584402 0 0 19 10"/><path class="s5" d="M4531 5467a12 12-175.23635830927384 0 0 22 7"/><path class="s5" d="M4514 5505l-63 192 4 8 8 7h8l7-6 67-194"/><path class="s5" d="M4520 5467l-9 32 5 7 9 6 10 5 10-3 7-4 10-36-8 8-10 2h-10l-9-5-5-12 4-7 9-2"/><path class="s5" d="M4555 5466l7 9"/><path class="s5" d="M3684 4917l9 6"/><path class="s6" d="M3697 4926l6 4 3 4v6l-3 2-10 7-10 7m-2 3m0 4m-3 19 3 4 3 2 10 3 4 2 1 3-1 2-4 4-22 11"/><path class="s5" d="M3671 4919c-1 2-2 4-2 7-1 2 0 4 0 5 1 2 3 3 5 5 1 1 2 2 2 3 2 1 2 2 3 3 0 1 0 2 0 4"/><path class="s5" d="M3582 4928c1 4 1 7 0 10 0 3-1 5-1 8 0 2 2 4 4 6 2 1 4 1 5 3 1 1 2 4 2 6"/><path class="s5" d="M3592 4961l-9 60"/><path class="s5" d="M3679 4947l-8 56-2 3-2 1-6 2"/><path class="s5" d="M3585 5022l1-2 69-14 4 2 3 3"/><path class="s5" d="M3656 5016c1 4 1 9 1 14 0 6 0 9 0 13 1 8 3 19 5 28 1 9 2 17 12 25 12 11 41 22 33 14"/><path class="s5" d="M3630 5022c1 7 1 14 3 22 1 7 3 15 5 22 4 11 9 20 16 24"/><path class="s5" d="M36e2 5028c1 11 2 23 7 33 5 11 14 20 22 28 10 10 19 17 31 22 13 6 29 9 46 13"/><path class="s5" d="M3595 5017l3-16"/><path class="s5" d="M3598 5001c2-1 3-1 4-2 2 0 4 0 5 1 1 0 2 1 2 2"/><path class="s5" d="M3609 5002l-2 13"/><path class="s5" d="M3626 5011l3-16"/><path class="s5" d="M3629 4995c2-1 3-1 4-2 1 0 3 0 5 1 1 0 2 1 2 2"/><path class="s5" d="M3640 4996l-3 14"/><path class="s5" d="M3650 5007l3-16"/><path class="s5" d="M3653 4991c1-1 2-1 4-1 1 0 2 0 4 0 0 1 1 1 2 2"/><path class="s5" d="M3663 4992l-3 14"/><path class="s6" d="M3580 4949l-8 7-7 6v3l3 4 6 1 8 3 3 3m0 9m-2 12m-2 6-8 6-11 6-6 6v4l2 4 6 1 19 3"/><path class="s5" d="M3591 4912l5 19 2 1h4l2-1 2-3-6-15"/><path class="s5" d="M3624 4914l3 11h2 4 2l1-3-2-8"/><path class="s5" d="M3649 4915l2 5 2 1h4l1-1 1-3v-1"/><path class="s5" d="M3582 4940l87-17"/><path class="s5" d="M3601 4942l4 15 8-3-5-13"/><path class="s5" d="M3633 4936l3 15 9-3-6-13"/><path class="s5" d="M3656 4932l3 15 9-3-6-14"/><path class="s6" d="M3604 4960l2-4 7-2 3 1m0 1m1 1m0 1m0 7m-1 7m-2 8m-1 6m-2 3h-2"/><path class="s5" d="M36e2 4999l2-11h1l2-1 3 1 1 1"/><path class="s5" d="M3602 4988l-1-4v-2l3-22"/><path class="s6" d="M3635 4955l1-4 7-2 3 1m2 3m0 7m-1 7m-2 8m-1 6m-2 3h-2"/><path class="s5" d="M3631 4994l2-11 1-1h1 2l3 2"/><path class="s5" d="M3632 4983v-4-2l3-22"/><path class="s6" d="M3659 4950l1-4 7-2 3 1m2 3m0 7m-1 6m-2 9m-1 6m-2 3h-3"/><path class="s5" d="M3655 4989l2-11 1-1h1 2l2 2"/><path class="s5" d="M3656 4978v-4-2l3-22"/><path class="s5" d="M3582 5034l3 4 9-3"/><path class="s5" d="M3607 5034l17-4"/><path class="s5" d="M3636 5028l10-2"/><path class="s5" d="M3661 5024l16-4-3-7"/><path class="s5" d="M3594 5029c1-2 2-3 4-4 1-1 4-2 6-1 0 0 1 1 1 2"/><path class="s5" d="M3625 5021c2-2 3-4 5-5 2 0 4 1 4 2 1 1 1 2 1 3"/><path class="s5" d="M3648 5017c1-2 2-3 4-4 1 0 3-1 4 0 2 0 3 1 4 2"/><path class="s5" d="M2849 4909l91 26"/><path class="s5" d="M2973 4942l174 50"/><path class="s5" d="M3147 4992c4 0 8-1 11-2 13-5 18-20 24-34 7-17 14-32 19-48 2-5 3-10 4-15"/><path class="s5" d="M2985 4877c-2 10-4 17-8 24-4 7-10 14-15 21-4 4-7 8-12 11-2 1-5 2-8 3-1 1-3 1-4 0-1 0-1-1-1-2"/><path class="s5" d="M2939 4936l31 9"/><path class="s5" d="M2970 4945c2-2 4-3 6-5 8-7 14-16 20-26 5-11 10-22 15-34"/><path class="s5" d="M2901 5033c11-9 22-18 31-28 11-12 21-25 28-39 4-8 7-15 10-22"/><path class="s5" d="M2860 4933c1-3 3-5 6-8 2-3 4-6 6-8"/><path class="s5" d="M3219 4989c3 8 8 12 13 15 8 4 15 7 21 10 16 7 20 12 28 15 12 6 31 7 50 7 24 0 48-1 72-1 16-1 32 0 48 1 13 2 26 4 39 7 17 5 34 12 50 19"/><path class="s5" d="M3580 5073l-15 9"/><path class="s5" d="M3565 5081l1-6"/><path class="s5" d="M3576 5054l8-5"/><g><path class="s6" d="M3524 5038l14 2c3 1 4 3 4 5 0 2-1 4-2 4-1 1-2 0-5-1l-11-8v-2" fill-rule="evenodd"/></g><path class="s5" d="M3513 5041c1 0 2-1 2-1 1 0 1 0 2 0 1 0 1 0 2 0 1 0 2 1 2 2 0 0-1 1-1 2 1 1 1 1 2 2"/><path class="s5" d="M3543 5043c2 0 3 0 4 0 1 1 2 2 3 3 1 2 0 5-1 8 0 2-1 4-3 6-1 1-1 2-3 3-2 0-3 0-5-1"/><path class="s5" d="M3555 5046c1 1 1 1 2 2 1 2 0 5 0 7-1 3-1 5-3 8-1 1-2 2-4 3-1 0-2 0-3 0"/><path class="s5" d="M3547 5043l8 3"/><path class="s5" d="M3539 5063l8 3"/><path class="s5" d="M3551 5065l19 9"/><path class="s5" d="M3556 5047l21 9"/><path class="s5" d="M3586 5060c4 2 8 3 11 4 3 1 5 2 8 3"/><path class="s5" d="M3581 5077c8 3 15 6 22 8 5 2 11 3 16 5 2 0 5 1 8 1"/><path class="s5" d="M3585 5094c4-1 8-3 13-4 3-1 7-2 11-3"/><path class="s5" d="M3592 5110c5-1 10-2 15-4 6-1 11-3 28-7"/><path class="s5" d="M3580 5086l-5 25 23 8 2-10"/><path class="s5" d="M3580 5086l14 4"/><path class="s5" d="M3371 5086c0 8-1 18 2 28 1 5 4 11 8 15 6 7 16 9 26 11 15 3 29 5 43 6 17 1 34 0 51-4 10-2 21-5 31-8 8-3 15-6 23-9"/><path class="s5" d="M3542 5109c-7 4-16 9-24 12-9 4-17 7-26 8-5 1-10 1-14 1-17-1-34 1-51-1-2 0-5 0-7-1-5-1-10-3-15-5-4-2-9-5-11-8-3-3-4-6-5-9-1-6-1-13 0-19"/><path class="s5" d="M3566 5098c-1 1-2 2-3 3 0 2-1 3-1 4 0 2 0 3 0 5 0 2 0 4 1 6 1 2 4 3 6 4 2 1 4 2 7 2"/><path class="s5" d="M3576 5122l9-6"/><path class="s5" d="M3565 5098l8-4"/><path class="s5" d="M3542 5109c2-1 4-2 7-2 4-2 9-4 14-6"/><path class="s5" d="M3555 5125c2 0 4 0 6-1 3-1 6-2 9-4"/><path class="s5" d="M3571 5097l8-3"/><path class="s5" d="M3542 5108l-1-5 1-4 5-2 6 1 2 5"/><path class="s5" d="M3565 5085l-3 4-4 4-7 5h-6l-7-4-6-4-4-4-4-2-1-9"/><path class="s5" d="M3647 5375c29 1 57 1 84 1"/><path class="s5" d="M3731 5376l15 1"/><path class="s5" d="M3746 5377c-1 2 3 2 7 4 3 1 6 4 7 7 2 3 3 6 4 9 1 1 2 3 2 4 0 0 0 0 0 1"/><path class="s5" d="M3772 5360c0-2-1-5 0-6 1-2 2-3 3-4 3-1 5-1 8-1 3 0 6 0 9 1"/><path class="s5" d="M3792 5350l81 32"/><path class="s5" d="M3873 5382c1 2 3 3 4 3 2 0 3 0 7 0"/><path class="s5" d="M3883 5376c1 2 2 8 1 10 0 1 0 1 0 1 0 1 0 1-1 2"/><path class="s5" d="M3877 5374c0 1 0 1 1 2 0 0 1 0 2 0 1 0 2 0 3 0 1 0 2-1 4-1 1 0 2 0 2-2"/><path class="s5" d="M3877 5374l-1-4"/><path class="s5" d="M3876 5370c1 0 1 0 2 1 0 0 1 0 2 0 1 0 3 0 4 0 2-1 3-1 4-2 0-1 1-1 1-2 0-1 0-1-1-1"/><path class="s5" d="M3889 5367v6"/><path class="s5" d="M3880 5370c0-1 0-1 1-2"/><path class="s5" d="M3884 5369l-10-63"/><path class="s5" d="M3827 5292h28"/><path class="s5" d="M3855 5292c1 0 2 0 4 0 2-1 3-1 5-1 1 0 2 0 4 0 1 1 2 1 3 1 2 0 2-1 3 6 0 1 0 3 0 4-1 1-1 2 0 4"/><path class="s5" d="M3768 5280l-1 11 2 7 9 3h26l4-1 10 1 2-1h1l2-2h4l-1-3v-3l1-5v-1h-3l-1-2h-3l-1-1h-14l-4-2h-10l-1-1"/><path class="s5" d="M3529 5135l17-1"/><path class="s5" d="M3562 5133h29l32 2"/><path class="s5" d="M3590 5134c-2 2-4 6-6 9-4 10-5 21-6 31-1 14-2 28-1 42 1 6 2 13 2 21 1 3 1 6 3 9 0 0 1 1 2 1"/><path class="s5" d="M3623 5134c-3 7-5 14-7 22-3 15-4 31-5 47-1 14-2 28 3 40 1 4 3 8 4 12"/><path class="s5" d="M3618 5255h41"/><path class="s5" d="M3580 5246l4 1 31 1"/><path class="s5" d="M3657 5157c-2 6-3 13-4 20-2 11-3 23-2 34 0 10 2 21 2 31 0 3 0 7 2 10 1 1 3 3 3 3 1 0 2-1 3-4"/><path class="s5" d="M3659 5250l37-1 7 17 6 2v-99"/><path class="s5" d="M3794 5175l-3 103-83-2 1-9"/><path class="s5" d="M3797 5190c8 0 18 0 28 0 11 0 23 0 34-1 6-1 12-1 19-2 4-1 9-2 13-4"/><path class="s5" d="M3792 5272c17-2 34-4 51-7 15-3 30-7 44-14 10-5 20-11 52-10"/><g><path class="s6" d="M3810 5241l2 14c1 1 2 2 4 3 3 1 8 0 10-1 1-1 2-2 2-3l-2-17c0 1 0 2-2 4-2 1-6 3-9 2 0 0-1 0-1 0-1 0-3-1-4-2" fill-rule="evenodd"/></g><path class="s5" d="M3810 5241c0-1 0-1 0-2 1 0 2-1 3-2"/><path class="s5" d="M3813 5240l-2-10"/><path class="s5" d="M3819 5228l3 10"/><path class="s5" d="M3826 5237c0-1 0-1-1-1-1 0-2 0-4 0"/><ellipse class="s6" cx="3815" cy="5229" rx="4" ry="2" transform="rotate(-9.217474411461007 3815.0,5229.0)"/><path class="s5" d="M3823 5173c3 2 6 4 10 5 8 3 18 3 27 3"/><path class="s5" d="M3871 5182c11 1 23 2 34 3 7 0 14 1 21 4 5 2 9 5 12 8"/><path class="s5" d="M3938 5197l5 49"/><path class="s5" d="M3984 5180c1 3 3 7 4 12 1 6 0 12 1 17"/><path class="s5" d="M3989 5209l2 32"/><path class="s5" d="M3939 5246l1 31"/><path class="s5" d="M3938 5244l1-6 2-2 1-2"/><path class="s5" d="M3990 5229l3 2 1 3v3 7l-1 6-2 4-8 7-10 4h-9l-7-1-8-3-6-6-4-8"/><path class="s5" d="M3941 5277l9 4 19 4 12-4 9-7 5-6v-8l-1-20"/><path class="s5" d="M4218 5191l-6 40"/><path class="s5" d="M4212 5231c1 4 2 9 5 13 4 7 12 13 20 16 8 3 17 2 26 2 10 0 20 1 32-2 7-1 15-4 17-9"/><path class="s5" d="M4312 5251l4-48"/><path class="s5" d="M3759 54e2c-1 1-1 3-1 4 0 2 1 3 3 4"/><path class="s5" d="M3761 5408c1 1 2 1 4 1 3 1 6 0 8-2"/><path class="s5" d="M3773 5407c1-1 2-2 2-4 1-1 0-3-1-4-1-1-2-1-5-1"/><path class="s5" d="M3757 5404l4 18-2 4 3 4 1 1h5 1l7-2 2-1 2-4-2-5-2-18"/><path class="s5" d="M3765 5356c-1 2-2 3-2 4 0 0 0 1 0 2 1 2 2 3 4 4 1 0 3 1 4 1 3 0 7-1 8-2 1-1 1-2 1-4"/><path class="s5" d="M3763 5362l3 16-1 6 3 4 1 1 6 1h1l5-3 2-1 3-6-5-4-1-14"/><path class="s5" d="M2966 5154l60-196"/><path class="s5" d="M2990 5172l61-207"/><path class="s5" d="M3173 4975l161 35 59 1h45l20-5 10 6 4-28-48 7-7-15-10-35"/><path class="s5" d="M3195 4930l163 41 13-68"/><path class="s5" d="M3410 4904l-19 83v21"/><path class="s5" d="M3357 4969l-2 21 3 13"/><path class="s5" d="M3385 4980c-2-1-3-2-5-2-1 0-3-1-4 0-2 0-2 2-3 3-1 1-1 3-1 4 0 1 1 3 2 4"/><path class="s5" d="M3399 4995c-1-1-2-2-1-3 1-1 2-1 3-2 4-1 7-2 10 0 1 1 1 3 1 4 0 1 0 2-1 3"/><path class="s5" d="M3370 5007c3 1 7 2 9 0 2 0 3-1 3-2 1-1 0-3-1-5"/><path class="s5" d="M3468 5012l-18 5"/><path class="s5" d="M3157 5402c4 4 8 8 12 12 6 4 12 7 19 10 7 2 15 3 23 3 8 1 16 0 24-1 9-2 18-6 26-10 8-5 15-9 21-15 5-5 10-11 14-17 4-6 7-11 10-18 2-5 3-11 4-16"/><path class="s5" d="M3286 5349c0 3-1 7-2 10-2 5-5 10-8 15-4 5-7 10-12 13-6 5-13 8-19 10-8 2-15 3-23 3-8 0-16-1-25-3-6-1-12-3-17-6-6-4-10-9-16-13"/><path class="s5" d="M3255 5352h26"/><path class="s5" d="M3286 5352l17 1"/><path class="s5" d="M3309 5353l19 1"/><path class="s5" d="M3332 5354l5-1-1-2 2-9"/><path class="s5" d="M3332 5342l-5 25-6 27-4 36"/><path class="s5" d="M3098 5295l53 101"/><path class="s5" d="M3127 5307l39 71"/><path class="s5" d="M3109 5287l18 22"/><path class="s5" d="M3101 5298c-1-2-2-5-2-7 1-2 4-4 8-5 9-3 19-2 29-4 15-2 32-11 43-20 11-9 17-19 20-28 1-5 2-9 0-20-2-8-5-19-8-16"/><path class="s5" d="M3043 5273c6-1 11-2 17-3 5 0 11-1 16 2 1 1 2 2 2 3"/><path class="s5" d="M3041 5268c6-1 13-2 20-3 4 0 8-1 12 0 3 1 6 3 8 6"/><path class="s5" d="M3107 5281c-4-11-2-14 1-16 4-3 10-3 17-4 8-1 15-4 23-7 6-2 11-5 15-10 2-3 3-9 5-13 2-4 4-7 6-10 2-2 4-4 1-30"/><path class="s5" d="M3070 5322l2-10 13 1 5 1 3 4 1 4v2l-2 1h-13l-1 5"/><path class="s5" d="M3095 5367l2-9 13 1 5 1 3 3 2 5v2l-3 1-13-1-1 6"/><path class="s5" d="M3126 5415l2-9 14 1 5 1 2 3 2 5v1l-3 1h-13l-2 7"/><path class="s5" d="M3982 4957c-1 4-2 8-3 11-4 18-5 36-5 54 0 18 0 36 4 54 1 7 3 13 5 20"/><path class="s5" d="M3815 5085l66 9"/><path class="s5" d="M3908 5092l4-1 10-1"/><path class="s5" d="M3937 5091h11"/><path class="s5" d="M3954 4930l-5 41-3 46 1 45 2 36 2 7 8 4h17l-7-6-5-21-3-55 2-59 3-29 3-9"/><path class="s5" d="M3983 4956l-18-3"/><path class="s5" d="M3923 4954l-15 5-48-2"/><path class="s5" d="M3828 4956l-33-2"/><path class="s5" d="M4038 5244c0 11 0 23-3 34-3 11-9 21-18 28-5 5-11 8-18 10-6 2-13 2-19 0-4-2-8-6-11-11"/><path class="s5" d="M3969 5305c-4 3-7 6-12 8-4 3-9 3-14 4-4 1-8 2-14 0-4-2-10-6-9-8"/><path class="s5" d="M3944 5303l-54 13"/><path class="s5" d="M3855 5322l-48 4h-21"/><path class="s5" d="M3651 5352h15"/><path class="s5" d="M3666 5352c3 0 6-1 9-2 2-1 5-3 7-5 1-2 2-6 3-9"/><path class="s5" d="M3685 5336l4-12"/><path class="s5" d="M3689 5324l72 3 2 5h16l-3-6v-9-9"/><path class="s5" d="M3761 5318l-1 8 1 1"/><path class="s5" d="M3777 5326l10-1"/><path class="s5" d="M3779 5331l3-4"/><path class="s5" d="M3689 5276c-1 4-2 7-2 10-1 3-2 6-3 9-2 8-1 17 0 26"/><path class="s5" d="M3608 5106c3 4 3 7 4 11 1 5 3 9 6 13 4 7 11 11 18 15 12 7 23 15 34 18 7 2 14 2 24 4 1 0 1 0 2 0 8 2 12 0 20 2"/><path class="s5" d="M3627 5101c0 4 3 7 5 10 4 6 7 10 10 14 5 7 13 12 20 15 10 4 21 7 33 9 6 2 12 3 18 4"/><path class="s5" d="M3718 5137l-3 22 4 19 13 2-5-23 4-21-15 2"/><path class="s5" d="M3739 5169l-11-2"/><path class="s5" d="M3730 5149l11 1"/><path class="s5" d="M3671 5163c-1 4-2 11-2 17-1 11-2 17 1 62"/><path class="s5" d="M3325 5044c-9 5-18 10-26 16-13 9-24 20-34 31-12 13-23 27-34 42"/><path class="s5" d="M3281 5036c-15 13-30 26-43 41-7 8-14 17-22 27"/><path class="s5" d="M3211 5116l17-19 10 11-18 21"/><path class="s5" d="M3203 5136v2l1 2 2 1 3-1"/><path class="s5" d="M3198 5145v4 1l2 1h1l8-11"/><path class="s5" d="M3198 5145l5-8"/><path class="s5" d="M3204 5135l1-6"/><path class="s5" d="M3208 5140l5-5"/><path class="s5" d="M3152 5165l19 15 2-8 5-6 6-4-1 7"/><path class="s5" d="M3171 5179l5-3"/><path class="s5" d="M3174 5175l7 6 1 20 14-2-2-20-4-3-7-1-2 5"/><path class="s5" d="M3181 5168l9 8"/><path class="s5" d="M3167 5150l17 12"/><path class="s5" d="M3168 5150l-8 6-5 4-2 6"/><path class="s5" d="M3152 5183l2-4 6-7"/><path class="s5" d="M3160 5188l2-5 7-4"/><path class="s5" d="M3152 5183l18 13 2-6 4-6 5-1"/><path class="s5" d="M3170 5196l3-3"/><path class="s5" d="M3177 5197l2-4h1"/><path class="s5" d="M3111 5050l1-4h4l3 3v3l1 4"/><path class="s5" d="M3116 5046l10-8"/><path class="s5" d="M3125 5038l5 2 1 4-1 10"/><path class="s5" d="M3227 5163l-6 32 14 27 7-30"/><path class="s5" d="M3195 5207l6 14h34"/><path class="s5" d="M3486 5023l-6-6-1-4 1-7 4-3 5-2 3 2 4 3 4 8 3 6 12 6 7 3 21 3 6-1 10-3"/><ellipse class="s6" cx="3490" cy="5013" rx="6" ry="4" transform="rotate(68.3678522944642 3490.0,5013.0)"/><path class="s5" d="M3393 5059l4 4 1 2-1 6-2 3-3 1h-3v12"/><path class="s5" d="M3370 5089l-2-3-1-8-1-12 1-4 10-6 7 1 9 2"/><path class="s5" d="M3474 5046l1 10-1 6-6 10-2 2-3-2"/><path class="s5" d="M3466 5053l4-3 4-3"/><path class="s5" d="M3465 5074l40 10 8-11v-4l1-5 8-5 4-2"/><path class="s5" d="M3474 5046h5"/><path class="s5" d="M3484 5079l-4 8-7 5-50 17-4 5-2 6-2 4"/><ellipse class="s6" cx="3459" cy="5061" rx="9" ry="4" transform="rotate(-77.84772536703164 3459.0,5061.0)"/><path class="s5" d="M3461 5051l9 3"/><path class="s5" d="M3456 5070l8 2"/><path class="s5" d="M4451 5210v162"/><path class="s5" d="M4453 5403l-2 83"/><path class="s5" d="M4433 5213l-2 156"/><path class="s5" d="M4430 5402l1 39-6 24-8 8-11 12"/><path class="s5" d="M4466 5404l1 36 1 27 12 12 16 4 8 3"/><path class="s5" d="M4470 5217v158"/><path class="s5" d="M3680 5390l-5 39-1 23 5 6"/><path class="s5" d="M3652 5437l-5 15-8 5"/><path class="s5" d="M4489 5223c-2 11-5 22-5 34-1 14 1 28 3 43 4 17 8 36 21 48 10 9 25 15 38 13 8-1 15-5 23-9"/><path class="s5" d="M4605 5333c6-4 12-6 17-10"/><path class="s5" d="M4509 5231c-1 4-2 9-3 14-1 7-2 13-2 21-1 8 0 18 5 21 4 2 9 3 13 2 6-2 11-5 16-9 8-7 15-15 23-22"/><path class="s5" d="M4574 5245c3-5 8-10 14-15"/><path class="s5" d="M4503 5219c11 9 21 17 31 22 14 8 26 10 52 23 7 3 14 7 14 4"/><path class="s5" d="M4610 5222c-14 0-28 0-42 0-30 0-60-1-89-5-26-4-52-11-78-20"/><path class="s5" d="M4038 5244c0-3 1-7 2-9 1-3 2-6 4-8 1-3 2-6 2-10 1-2 0-5 1-7 1-1 2-2 3-3"/><path class="s5" d="M4035 5186c-6 2-10 5-14 8-4 4-8 9-11 15-2 4-3 9-4 14-1 5-2 10-2 15"/><path class="s5" d="M3996 5239c1 1 4 2 5 2 1-1 2-2 3-3"/><path class="s5" d="M4007 5227c6 0 12 0 17 0 3 1 5 1 9 3 3 2 7 5 6 4"/><path class="s5" d="M4015 5202c6 1 12 1 18 3 3 0 6 1 8 2 2 2 4 4 5 7"/><path class="s5" d="M4036 5185c4 1 8 2 11 4 1 1 2 2 3 3"/><path class="s5" d="M4050 5192c0 5 0 11 0 15"/><path class="s5" d="M4046 5183c1 3 3 6 4 9 4 5 8 10 13 13 4 4 9 6 14 7 2 0 4 0 6 0"/><path class="s5" d="M4112 5233c1 1 2 3 3 5 0 2 0 4 0 6-1 2-2 4-4 5 0 1-1 1-2 1-1-1-1-1-2-2 0 0 0-1-1-2"/><path class="s5" d="M4112 5233l8-1"/><path class="s5" d="M4110 5249h9l2-1h4l4-2h23l2-4v-4l-1-2-20-1-7-1-6-2"/><path class="s5" d="M4120 5232c2 2 3 4 4 7 0 3-1 6-3 9"/><path class="s5" d="M4154 5242c6 0 13 0 20 0 7-1 13-2 20-3 3 0 7-1 9-3 2-1 4-3 4-6-1-2-2-5-3-6"/><path class="s5" d="M4204 5224l-18-5"/><path class="s5" d="M4194 5188v29l-7 1-6 10-7 5-11 3h-9"/><path class="s5" d="M4193 5215h20"/><path class="s5" d="M4083 5213l3 8 5 3 5-3 1-36"/><path class="s5" d="M4096 5220l18 11h4"/><path class="s5" d="M4107 5246l-7 1-5 4-18 1"/><path class="s5" d="M4064 5269l-2-9-10-5-5-4-5-5"/><path class="s5" d="M4052 5252l8 2 10-3 4-9 1-4 4-26"/><path class="s5" d="M4391 5195c0 7 0 13 0 19 0 6 0 13-1 19 0 3-1 5-2 8"/><path class="s5" d="M4381 5232l5-1"/><path class="s5" d="M4391 5231l3 1v10l-13-1v-9"/><path class="s5" d="M4313 5234l67 2"/><path class="s5" d="M4392 5205l35 1"/><path class="s5" d="M4574 4966l2-3"/><path class="s5" d="M4589 4965l3 1-1 6"/><path class="s5" d="M4574 4967l-1 11 3-4 3-2h9 3"/><path class="s5" d="M4573 4977l3 4h1"/><path class="s5" d="M4578 4975l1 22-1 20-1 6-2 12"/><path class="s5" d="M4586 5021l-2 10-3 5"/><path class="s5" d="M4574 5035l3 3h1l3-2"/><path class="s5" d="M3472 4983l11-39 7-38"/><path class="s5" d="M3541 4909c7 6 14 10 22 12 6 2 12 3 18 3 5 0 9-1 13-2"/><path class="s5" d="M3604 4920c3-2 6-3 8-4 2-1 3-2 4-3"/><path class="s5" d="M3559 4921l-1 11-2 16-1 15-6 29"/><path class="s5" d="M3505 5022l11-14 5-6 64-25"/><path class="s5" d="M3528 5026c-1-2-2-4-3-6 0-2 1-5 3-7 3-4 7-7 10-7"/><path class="s5" d="M3543 5007c3 2 7 4 8 6 0 2 0 4-2 6-1 1-3 3-5 5"/><path class="s5" d="M3510 5078l7 1 1-5v-5l-4-2"/><path class="s5" d="M3517 5062l5 5 1 9"/><path class="s5" d="M3714 4927l-3 20"/><path class="s5" d="M3707 4987l-4 27"/><path class="s5" d="M3703 5014c0 1 0 2-1 3-1 1-2 2-2 2-1 1-1 3-2 4 0 3-1 6-1 9 1 3 1 6 2 9"/><path class="s5" d="M3699 5041l30 2"/><path class="s5" d="M3729 5043c0-2 1-3 1-4 1-2 1-5 1-7 0-2 0-4 0-7 0-1-1-4-1-4 0-1-1 2-2 4 0 3-1 5-1 7 0 2 0 4 0 6 1 1 1 2 1 3 0 0 0 0 1 2"/><path class="s5" d="M3725 4990l-3 24"/><path class="s5" d="M3722 5014c0 1 0 2 0 3 1 2 1 2 2 3 1 0 2 1 3 1 1 0 2 0 3 0"/><path class="s5" d="M3741 5078c-1 2-2 3-2 4-1 3-1 5-1 10 0 3 0 8 2 8"/><path class="s5" d="M3711 5043l8 31 32 1 1-13"/><path class="s5" d="M3719 5075l3 11v12"/><path class="s5" d="M3712 5099l29 1"/><path class="s5" d="M3690 5020l-2 9v28l-5 44"/><path class="s5" d="M3731 5136l3 6v7"/><path class="s5" d="M3733 5179l3-10"/><path class="s5" d="M3707 5127l-1-3v-12l2-6"/><path class="s5" d="M3721 5107l-3 9-2 9 3 7 2-2v-2"/><path class="s5" d="M3706 5126l1 5h12"/><path class="s5" d="M4019 4962c-2 10-3 21-5 31-2 19-4 37-3 55 1 16 4 32 7 48"/><path class="s5" d="M4061 5101c14-2 29-3 40-12"/><path class="s5" d="M4193 5032c-7 13-15 25-31 29-6 1-14 1-15 6"/><path class="s5" d="M4147 5067v17l52 38 3-92"/><path class="s5" d="M4154 5028l-12 18-29 26-21 12 7 3"/><path class="s5" d="M4118 51e2l63 10"/><path class="s5" d="M4244 5041v24l-17 38"/><path class="s5" d="M4232 5089c-1 1-2 2-4 3-2 3-3 9-3 13 0 5 1 8 2 12 0 4 2 8 4 12"/><path class="s5" d="M4225 5097l-4 15"/><path class="s5" d="M4221 5112c-1 2-1 4-1 5 0 4 1 8 2 11"/><path class="s5" d="M4229 5189c5 5 10 10 17 13 10 5 23 5 33 1 8-2 14-7 22-11"/><path class="s5" d="M4219 5166c0-2-1-4-1-6 0-1 0-2 0-4"/><path class="s5" d="M4308 5159l-3 12"/><path class="s5" d="M3565 5326l1-8 2-4 8-8"/><path class="s5" d="M3589 5303l9 7 6 7 3 11"/><path class="s5" d="M3814 5281l36-6"/><path class="s5" d="M3878 5271l62-15"/><path class="s5" d="M3886 5266c-1 0-2-1-3-2-3-1-5-1-8 0-3 1-5 5-7 9-2 5-3 9-4 14"/><path class="s5" d="M3863 5299c0 5 1 9 3 12 1 3 3 5 6 7"/><path class="s5" d="M3876 5264l-22 4"/><path class="s5" d="M3854 5268c-1 3-2 5-3 7-2 4-3 8-3 12"/><path class="s5" d="M3847 53e2c0 3 1 6 2 9 2 4 4 9 7 12 2 2 6 3 10 5"/><path class="s5" d="M3866 5326l7-3"/><path class="s5" d="M3181 5159l16-15"/><path class="s5" d="M3160 5078l16 11 2-1 18 16v7"/><path class="s5" d="M3195 5119l-5 31-9 8"/><path class="s5" d="M3176 5097v12l9 6 1-3"/><path class="s5" d="M3177 5097l12 9-2 2 9 4"/><path class="s6" d="M4093 5328l2 15-4 2-2-15z"/><path class="s6" d="M4079 5335l-4 2 3 18 4-2z"/><path class="s5" d="M4089 5331l-3 1-4 2-2 4"/><path class="s5" d="M4091 5343l-2 3-3 1h-4"/><path class="s5" d="M3077 5424a21 12 154.209027672411 1 0 24-12"/><path class="s5" d="M4612 5239v1l-3 4-3 6-1 2"/><path class="s5" d="M4610 5262v9l1 3 1 1h2l-1 4"/><path class="s5" d="M4606 5264l3-1 1-1"/><path class="s5" d="M4605 5264l-1-2v-1"/><path class="s5" d="M4604 5268l-1 1-2 4"/><path class="s5" d="M4602 5270a6 3 18.43494882292201 0 0 12 5"/><path class="s5" d="M4607 5251h-1l-1 2-1 2v3 2l1 2"/><path class="s5" d="M2957 5189l5 1 29 7 5 7"/><path class="s5" d="M3584 5049l-3 24"/><path class="s5" d="M3861 5154l-117-5-2 21 118 5"/><path class="s5" d="M3872 5176l142 5"/><path class="s5" d="M4606 5183l-110-4"/><path class="s5" d="M4485 5179l-161-7"/><path class="s6" d="M4312 5172l-146-7m-10 0-131-6m-2 0m-7 0m-1 0-143-5"/><path class="s6" d="M4025 5182l131 4m10 0 147 6"/><path class="s5" d="M4324 5192l158 7"/><path class="s5" d="M4482 5199h2"/><path class="s5" d="M4496 5199l112 5"/><path class="s5" d="M4983 669l90-619-33-8"/><path class="s5" d="M5040 42c-4-1-8-2-12-2-7 0-14 2-19 6-6 4-10 9-12 14-2 3-3 5-5 9"/><path class="s5" d="M4992 69 4793 502"/><path class="s5" d="M4793 502c-2 5-4 9-7 13-5 9-11 18-18 26-7 8-14 15-22 20-6 3-13 5-20 7"/><path class="s5" d="M4993 674c-20-12-39-24-59-35-24-13-50-23-75-32-45-16-91-28-137-39-66-15-134-27-201-39"/><path class="s5" d="M4521 529 2659 211"/><path class="s5" d="M2659 211c-48-7-94-13-140-18-52-5-104-9-156-12-59-3-117-4-176-4-82 1-165 6-246 16-66 8-132 19-197 34-61 15-122 33-178 61-96 46-178 118-268 176"/><path class="s5" d="M1298 464l-69 48-12 7-20 12"/><path class="s5" d="M1197 531c-23 15-45 31-66 48-30 25-58 54-85 84-16 17-32 36-43 57-8 14-15 30-16 46-1 19 5 38 15 55 13 22 32 38 52 53 46 33 98 55 151 74 79 27 159 46 241 61 48 9 98 17 146 24 56 8 111 14 168 21 6 1 13 2 19 2 9 0 19-2 28-4 13-2 26-6 37-13"/><path class="s5" d="M1844 1039l182 17 6 1 9 19 32 1 27 1 176 1 1110-12"/><path class="s5" d="M3386 1067c12 2 24 4 36 6 32 4 65 5 98 5 45 0 89 0 135-1 98 0 203 0 291-6 2 0 4 0 6 0"/><path class="s5" d="M1234 513c12 4 24 6 35 11 44 18 70 70 85 120 14 44 20 87 18 131 0 27-4 54-10 81-6 20-13 40-24 57-7 13-17 25-29 34-10 8-21 14-33 16-6 1-12 1-19 1"/><path class="s5" d="M1843 1037c-45-5-89-11-132-18-39-5-77-11-115-18-14-3-28-6-42-9"/><path class="s5" d="M1554 992l-18-2-14 1-16 5"/><path class="s5" d="M1506 996c-5 3-11 5-16 7-9 3-17 6-25 7-4 1-7 1-11 1"/><path class="s5" d="M2041 1076l3 23-6 55-183-16 7-52-1-20-13-25"/><path class="s5" d="M1846 1141l-50-3-5-51 2-19 4-11"/><path class="s5" d="M1929 1395c-8-7-17-14-23-22-6-8-10-17-12-26-2-12-3-23-1-35 2-10 5-20 10-30 5-11 12-21 21-29 10-9 22-15 35-18 7-2 14-3 22-4 6 0 12 0 18 1 6 0 11 1 17 2 4 1 9 2 13 4 11 4 20 12 26 22 9 11 14 26 16 40 1 12 0 24-3 36-3 10-7 21-14 29-7 11-17 20-28 27-9 7-19 11-31 14-12 2-26 2-39-2-10-2-19-6-27-9"/><path class="s5" d="M1929 1395l-10 3"/><path class="s5" d="M1919 1398c-6 1-11 2-16 2-11 2-23 1-34-3-12-3-23-9-32-18-12-10-20-24-23-38-3-12-3-23-1-35 3-14 9-27 17-39 8-10 18-19 29-26 11-7 23-11 34-13 8 0 15 0 22 1"/><path class="s5" d="M1915 1229v-9l-3-3v-31h-14v-6h-36l-1-18h30v-20"/><path class="s5" d="M1912 1189l48 2 2-5 3-4-1-7 34 5"/><path class="s5" d="M1997 1180l-41 56"/><ellipse class="s6" cx="2006" cy="1321" rx="44" ry="36" transform="rotate(112.82776475679516 2006.0,1321.0)"/><path class="s5" d="M1880 1279c-3 4-7 9-10 14-4 8-6 16-7 24 0 7 0 15 3 21 2 6 5 11 10 17"/><path class="s5" d="M1955 1189l1 28-4 4-1 10"/><path class="s5" d="M1917 1227l-2 31"/><path class="s5" d="M2003 1225l18-41 4-7 1-5-5-5-12-3-9-13"/><g><path class="s6" d="M2393 320l-152-15c-4-1-8-2-12-2-4 1-9 4-11 8-2 5-1 11 1 17 6 17 11 32 16 47 10 30 18 62 24 94 6 30 10 61 12 91 0 19 0 37 1 57 0 5 1 10 3 14 3 6 10 10 17 11l164 9c3-1 7-2 10-4 6-3 9-10 10-17 2-8 2-15 2-22-1-36-3-73-7-109-4-38-12-76-24-112-3-9-6-17-9-25-3-10-6-20-12-28-3-4-7-7-11-9-7-3-14-4-22-5" fill-rule="evenodd"/></g><path class="s5" d="M1569 476l-5-10V448l7-16 59-53 28-21"/><path class="s5" d="M1658 358c8-5 16-9 23-11 5 0 10 0 15 0"/><path class="s5" d="M1696 347l84 12 18 6 10 8 42 70 3 11-9 13-84 32"/><path class="s5" d="M1760 499c-21-3-42-6-63-8-53-6-106-12-160-16-34-3-68-4-102-5-38-1-76-1-116-1-7 0-14 0-20 0"/><path class="s5" d="M1487 459c10-1 19-2 27-6 10-6 18-16 26-25"/><path class="s5" d="M1540 428l74-64 1-11-3-7-16-3"/><path class="s5" d="M1596 343c-31 2-62 3-92 8-20 3-39 7-60 11"/><path class="s5" d="M1683 346c-16-1-31-3-45-3-14 0-28 0-41 0"/><g><path class="s6" d="M3409 454l-76-10c-2 0-5 0-8 0-2 1-3 1-5 2-2 2-1 6 0 10 1 4 2 7 4 10 5 12 11 26 16 40 11 30 14 61 17 93 1 22 3 44 1 66-1 10-2 20-1 30 0 2 0 5 0 8 1 4 2 8 6 10 3 2 6 3 7 2l80 7c3-1 6-1 8-3 4-2 6-6 8-11 4-10 4-21 4-31 1-28 0-56-4-83-4-31-14-60-22-91-4-15-8-30-18-41-2-2-4-5-7-6-3-1-7-2-10-2" fill-rule="evenodd"/></g><path class="s5" d="M4520 696c-4-14-7-28-11-41-4-14-10-26-17-40-2-3-4-6-6-8-3-2-6-2-9-2"/><path class="s5" d="M4477 605l-36-6"/><path class="s5" d="M4441 599c-1 0-2-1-3 0-1 0-2 1-3 2-1 2 0 4 0 6 2 4 4 8 6 12 5 11 9 22 13 34 3 11 7 22 9 33 2 7 3 15 4 23"/><path class="s5" d="M3028 1082l-8 8 8 12-36 14-4 9-67 24-16 11"/><path class="s5" d="M2905 1160c-28 5-55 11-83 16-54 9-111 14-167 13-40 0-81-3-120-16-23-7-46-18-64-33-15-13-27-29-39-45"/><path class="s5" d="M2702 1092c-8 18-17 36-30 50-14 16-35 27-56 33-15 4-30 5-46 6"/><path class="s5" d="M2601 1096c-5 9-11 17-19 23-10 8-24 11-38 11-15-1-30-6-42-14-9-7-17-15-26-24"/><path class="s5" d="M4660 709l549-42 525-52 391-42 573-58 437-40 75-7 154-10"/><path class="s5" d="M7364 458c25-2 49-4 74-6 17-2 35-3 53-6 16-2 33-6 49-10 10-2 20-5 30-8"/><path class="s5" d="M7570 428l4 1v8l-9 6"/><path class="s5" d="M7565 443c-19 7-37 13-56 19-44 14-91 24-137 32-57 10-114 17-171 24-75 9-148 18-223 27-87 10-176 20-264 30-78 10-157 19-236 28-96 12-191 22-287 32"/><path class="s5" d="M6148 628l-45 4-7 2-2 5"/><path class="s5" d="M6094 639c1 2 2 5 4 7 4 6 10 10 17 12 13 5 27 6 40 10 6 2 11 4 17 6 3 1 5 2 8 2 4-1 8-3 10-6 2-3 3-6 3-9 0-8 1-15-1-21-2-4-5-7-8-9-4-2-8-3-12-3"/><path class="s5" d="M6172 628h-28"/><path class="s5" d="M6090 646l-420 60"/><path class="s5" d="M5646 694c3-1 6-1 9 0 3 2 5 6 7 9 3 6 4 11 4 16 0 5 0 10 0 15"/><path class="s5" d="M5666 734l-6 4"/><path class="s5" d="M5660 738c-8 3-16 4-24 5-18 1-37 0-55-4-10-3-20-6-28-11-7-4-13-9-18-14-2-3-4-5-6-8"/><path class="s5" d="M5529 706v-3l5-2"/><path class="s5" d="M5534 701c9-1 18-1 27-2 10 0 21 0 31-1 10-1 20-3 30-3 8-1 16-1 24-2"/><path class="s5" d="M5564 711c10 3 20 7 31 8 5 1 11 1 17 1"/><path class="s5" d="M5526 723l-547 74-13 2-13 26-11 50-11 9-14 27-4 14"/><path class="s5" d="M5082 801c-16 16-31 31-48 45-18 16-39 32-60 46-20 12-40 23-59 34"/><path class="s5" d="M4951 793c-17-4-33-8-48-13-15-6-30-13-44-22-9-6-17-13-27-17-10-5-20-6-31-7-11-1-22 0-34-1-12-1-25-4-38-6-33-7-65-15-97-22-19-3-39-6-58-4-9 1-18 3-27 5"/><g><path class="s6" d="M4617 724c27 8 55 15 84 26 31 11 62 26 84 43 21 16 34 33 72 56 14 8 31 17 26 22l3 13 3 21 22 19-6 22-3 13 7 16 6 13-10 16-5 20 8 19-20 22-8 10-1 22-24 19-13 18c-16 11-32 22-48 32-41 24-86 40-132 50-56 12-112 16-170 13-40-2-80-6-117-21-29-11-56-29-79-51-30-30-53-66-67-106-13-41-18-85-10-126 5-34 18-66 38-95 27-40 68-73 114-92 27-12 56-19 85-22 14-1 29-2 43-1 17 0 35 1 52 2 14 0 29 1 43 3 8 1 15 3 23 4" fill-rule="evenodd"/></g><path class="s5" d="M4528 732c17 9 32 17 46 27 34 24 61 59 80 97 23 50 32 105 27 160-4 40-17 81-39 115-16 26-38 49-64 65-16 10-34 17-54 23"/><ellipse class="s6" cx="4429" cy="972" rx="192" ry="161" transform="rotate(84.40504097084502 4429.0,972.0)"/><path class="s5" d="M4457 810c-13 10-27 20-38 31-20 21-33 48-41 75-9 31-11 63-5 93 4 24 13 47 26 68 10 18 24 34 41 47 10 8 21 14 31 19"/><ellipse class="s6" cx="4503" cy="971" rx="49" ry="41" transform="rotate(90.0 4503.0,971.0)"/><path class="s5" d="M4445 964h-60"/><path class="s5" d="M4451 995l-59 25"/><path class="s5" d="M4466 1018l-53 52"/><path class="s5" d="M4487 1033l-30 85"/><path class="s5" d="M4514 1037v84"/><path class="s5" d="M4536 1028l19 45"/><path class="s5" d="M4456 937l-65-26"/><path class="s5" d="M4470 918l-52-63"/><path class="s5" d="M4489 905l-27-84"/><path class="s5" d="M4511 908l5-74"/><path class="s5" d="M4532 915l19-41"/><path class="s5" d="M4552 931l18-12"/><path class="s5" d="M4335 735l-498 28"/><path class="s5" d="M3837 763c-11 0-23 0-34 1-16 2-31 6-45 13-9 5-16 10-23 17-4 6-8 13-10 21-2 5-2 12 0 17 3 8 11 13 19 18 22 14 41 24 63 32 14 5 30 8 44 15 13 7 26 18 39 25 13 8 28 13 43 17 43 12 88 17 132 21 27 3 54 5 84 4 19 0 40-2 54-3"/><path class="s5" d="M4434 1236c-4 9-6 18-10 26-4 8-9 15-17 20-5 3-11 5-16 5"/><path class="s5" d="M4391 1287l-35-2"/><path class="s5" d="M4356 1285c-4-1-8-2-12-5-7-4-12-12-15-19-5-11-6-21-8-32 0-8-1-16 0-24 1-6 2-12 5-18"/><path class="s5" d="M4410 1234c0 2 0 4-1 7-2 3-6 6-10 7-5 0-10-3-13-7-2-4-3-9-3-14 0-3 0-6 0-8"/><path class="s5" d="M4556 1237c-1 8-2 16-4 24-2 8-6 15-12 21-4 5-10 8-16 10"/><path class="s5" d="M4524 1292l-42-2"/><path class="s5" d="M4482 1290c-4-1-7-2-10-3-6-4-9-10-12-17-3-7-6-15-8-22-1-5-1-9-2-14"/><path class="s5" d="M4502 1240c0 3 1 7 3 11 2 3 4 7 7 8 2 0 3 0 4 0"/><path class="s5" d="M4630 1229c-1 9-3 17-5 24-2 8-5 15-11 21-3 4-8 7-13 9-4 1-7 1-12 1"/><path class="s5" d="M4589 1284h-29l-8-2-7-4"/><path class="s5" d="M4611 1235c-1 3-2 7-5 10-1 2-3 4-5 5-4 1-8 1-11 0-3-1-5-3-7-6-1-3-2-6-2-8"/><path class="s5" d="M4394 1283c-6-2-11-4-14-8-6-5-9-13-11-21-1-4-2-7-2-11"/><path class="s5" d="M37e2 1146c5-5 9-10 16-13 4-2 10-4 16-4 7-1 14-1 21-1 6 0 12 0 17 2 7 3 12 9 16 15 6 10 9 21 11 32 2 10 2 21 0 31-2 11-6 22-12 31-4 5-9 10-15 13-3 2-7 4-10 6"/><path class="s5" d="M3760 1258h-27"/><path class="s5" d="M3733 1258c-5-1-9-1-13-3-4-1-9-3-13-6-3-3-6-6-8-8"/><g><path class="s6" d="M3644 1130l27 1c6 0 11 1 16 3 7 4 12 13 16 21 4 10 7 20 8 31 1 10 0 20-2 30-2 8-5 17-10 25-4 6-10 13-16 16-4 2-9 3-15 3h-27c-5 0-10-1-14-3-7-4-12-11-16-18-5-9-10-20-12-31-2-11 0-23 3-34 3-10 8-20 15-28 4-6 10-11 17-14 3-1 7-2 10-2" fill-rule="evenodd"/></g><path class="s5" d="M3602 1153c-2-4-6-10-10-14-7-5-14-8-21-9-9-2-17-1-26-1-4 0-8 0-11 1-5 1-9 5-13 9-5 4-9 10-13 16-6 13-9 28-9 42-1 10 0 20 4 30 3 7 7 14 13 19 4 5 10 9 16 11 2 1 5 1 8 1 9 1 18 1 27 0 4 0 8 0 12-2 6-2 11-7 15-12 3-4 6-8 8-13"/><g><path class="s6" d="M3758 1226a34 21 93.76041790855562 0 1-17-17m6-44m0 0a34 21 93.76041790855562 1 1 11 61" fill-rule="evenodd"/></g><g><path class="s6" d="M3672 1229a34 21 93.76041790855562 0 1-17-18m4-40m0 0a34 21 93.76041790855562 1 1 13 58" fill-rule="evenodd"/></g><path class="s5" d="M3585 1085l8 17h3l5 11 9-1 15-6"/><path class="s5" d="M3625 1082l2 21-1 6"/><path class="s5" d="M3615 1111l-4 25-6 5-3 5"/><path class="s5" d="M3678 1080l-2 5-14 2-3 4 1 11 11 1 5 3 6 2 4 8h15"/><path class="s5" d="M3701 1116c1 2 3 4 3 6 0 1 0 3-1 5-1 2-1 3-1 4"/><path class="s5" d="M3702 1131l-5 8"/><path class="s5" d="M3657 1091c-3 1-6 3-10 4-4 1-8 1-11 1"/><path class="s5" d="M3582 1162a34 21 85.20343286863483 1 0-2 67"/><path class="s5" d="M3657 1102l-2 16"/><ellipse class="s6" cx="2004" cy="1321" rx="5" ry="4" transform="rotate(135.0 2004.0,1321.0)"/><path class="s5" d="M4555 1009l20 17"/><path class="s5" d="M4562 971l16 4"/><path class="s5" d="M1993 1232c-6 0-13 3-19 6-7 4-14 9-18 16-1 2-2 5-3 7"/><path class="s5" d="M1975 1401c-8-1-15-5-20-10-3-4-5-7-9-12"/><path class="s5" d="M2001 1296c5 2 9 3 12 5 5 4 7 13 6 20-1 7-5 12-10 16"/><path class="s5" d="M5046 61 4919 617"/><path class="s5" d="M4904 688c-3-5-4-9-6-13-1-2-2-4-3-6-1-1-2-2-3-3-2-1-4-2-5-2"/><path class="s5" d="M4887 664l-22-3h-1-1v1 3"/><path class="s5" d="M4863 665c2 4 4 8 5 11 2 5 4 9 5 14"/><path class="s5" d="M4142 1022v42l9 16 5 65"/><path class="s5" d="M4156 1145c1 9 2 18 4 27 4 11 9 21 15 30 2 3 4 6 6 9"/><path class="s5" d="M4181 1211l-3 20-1 16-159-1"/><path class="s5" d="M4018 1246c-9-6-18-12-26-19-9-8-17-18-22-30-8-16-11-35-13-54"/><path class="s5" d="M3957 1143l-3-77"/><path class="s5" d="M4147 999l-16 27-28 26-37 9-112 6"/><path class="s5" d="M4085 1070l-12 61-11 1 2-62-1-7"/><path class="s5" d="M3866 1086l-4 48"/><path class="s5" d="M3862 1134c-1 16-2 30-6 44-4 16-12 31-23 42-8 8-17 14-26 19"/><path class="s5" d="M3807 1239v4l115-2 54-9"/><path class="s5" d="M4221 1064l-69 1"/><path class="s5" d="M4022 736c-15-1-31-2-47-6-25-6-49-18-73-26-41-13-87-14-129-6-72 14-136 55-196 99-46 34-90 69-128 110-22 24-43 51-64 77"/><path class="s5" d="M3385 984l-15 26"/><path class="s5" d="M3370 1010c-2 4-5 9-5 13-1 9 9 17 18 24 11 9 21 16 30 23"/><path class="s5" d="M3648 926l1-3 3-12 3-11 1-8 2-11 2-13v-2l3-16 1-4v-3-2-3-6-9l-1-16V772l-1-24"/><path class="s5" d="M3413 952l2e2 48"/><path class="s5" d="M3379 996l117 27"/><path class="s5" d="M3829 1034l-30-2-31-4"/><path class="s5" d="M3759 1070h3l3-1 6-1 3-1 3-1 6-2 5-3 6-2 4-2 9-5 3-3 7-4 8-7 2-2 2-2"/><path class="s5" d="M3719 785v-4l-1-2-5-24v-1l-2-32"/><path class="s5" d="M3885 709l5 24v1 1l5 11 3 3 1 4 1 3 1 1"/><path class="s5" d="M3680 985l20-38"/><path class="s5" d="M3615 995l5-11 1-1 21-47"/><path class="s5" d="M3646 931l1-1 1-4"/><path class="s5" d="M3648 926l90 19"/><path class="s5" d="M3738 945l64 13"/><path class="s5" d="M3646 1020l-26-6-29-5-24 35"/><path class="s5" d="M3612 1e3l88 17 40 7 28 4"/><path class="s5" d="M3625 980l93 19 3-6 3-8 5-8 5-10 4-11"/><path class="s5" d="M3690 1056h-3-6-18-7-10l-5-1-14-1-12-1-17-4-24-4-7-1-3-1-19-10"/><path class="s5" d="M3690 1056l5 1 33 3"/><path class="s5" d="M3496 1022v1h1l49 10h1l2-2 4-3 4-4 3-3 4-4 4-4 5-7 5-4"/><path class="s5" d="M3531 985l-6 8-5 6-4 4-7 7-2 2-2 3-3 2-4 3"/><path class="s5" d="M3583 994l-3 6-2 3"/><path class="s5" d="M4128 996h7l3-1h6l5-1 6-1 4-1 5-1 6-1 2-1"/><path class="s5" d="M4172 989c1 0 3-1 4-1 1-1 2-2 3-3 1-1 2-1 3-2 5-4 9-6 12-10 3-2 6-6 8-10"/><path class="s5" d="M3892 924c-1 2-2 4-4 7-2 2-4 4-6 6 0 1-1 1-3 3-2 2-5 4-8 7"/><path class="s5" d="M3871 947c-1 1-1 2-2 3 0 1-1 2-2 4"/><path class="s5" d="M3867 954l-1 7-2 7-1 5-2 6-2 6-1 3-3 8-2 4-3 5-2 5-1 2-2 3-3 5-3 4-2 2-1 1-7 8"/><path class="s5" d="M3690 1077c6-3 12-5 17-7 11-4 20-8 30-14 8-5 16-11 22-19 3-3 6-6 9-9 3-4 7-7 10-10 4-5 7-11 10-17 2-3 3-6 4-9"/><path class="s5" d="M3792 992l1-3 2-5 1-4 2-7 1-5 3-9 2-8 1-11 7-22 2-2 2-3 1-2 1-2 5-9v-2l1-2v-2"/><path class="s5" d="M3730 845l-3 6-3 3-3 3-3 9-7 17v1l-1 12-1 6v3l-2 11-2 10-3 5v6"/><path class="s5" d="M4030 961c-1 2-2 4-4 7-3 4-9 8-13 11-2 2-4 4-6 6-2 3-4 6-6 10-2 6-5 11-7 17-3 6-7 12-12 17-5 7-11 13-18 18-6 6-14 10-22 14-9 5-20 8-30 11"/><g><path class="s7" d="M3687 1077c7-2 14-5 21-7 9-4 17-7 26-12 4-2 8-5 12-8 4-3 7-6 10-9 3-2 6-6 9-9 3-3 5-7 8-10 2-2 4-4 6-7 4-4 7-8 9-13 4-9 7-18 10-28 2-6 3-12 5-18l1-4v-1l1-11 7-22 3-4 7-12 2-5 2-9 5 1c4 2 8 3 12 5 5 2 9 4 14 7 5 3 11 6 16 10 4 3 8 6 13 9 6 3 12 7 19 9 9 4 18 7 27 9 7 2 15 4 22 6 14 3 27 6 41 8 11 2 22 3 33 5 14 1 28 3 41 4 13 1 25 2 38 3 12 0 24 1 36 0 13 0 26-1 39-2 8 0 16-1 23-1l-5 6c-2 2-4 4-6 7-3 2-5 4-8 6-2 2-4 4-7 5-2 2-4 3-7 4-3 1-7 2-12 3-3 1-7 1-10 2l-2 4-17 28-28 26-37 9-118 9-144 6-117 1" fill-rule="evenodd"/></g><path class="s5" d="M2059 5716l-1-1"/><path class="s5" d="M2059 5716h-1-1l-2-1h-1"/><path class="s5" d="M2032 5709l-1-1h-1-2-1v-1"/><path class="s5" d="M2028 5707h-1"/><path class="s5" d="M2028 5708h-1-1"/><path class="s5" d="M1973 5686h-1"/><path class="s5" d="M1977 5687l-1-1h-1-2l-1-1v1"/><path class="s5" d="M1949 5673h-1-1l-2-1h-1"/><path class="s5" d="M1920 5660l-2-1h-1l-2-1"/><path class="s5" d="M1921 5659h-1l-2-1h-1-1-1"/><path class="s5" d="M1891 5645l-2-1h-1-2"/><path class="s5" d="M1892 5645v-1h-1-1l-2-1h-1-1"/><path class="s5" d="M1861 5629h-1-2l-1-1"/><path class="s5" d="M1863 5629h-1l-1-1h-1-2-1"/><path class="s5" d="M1831 5613h-2l-1-1h-1"/><path class="s5" d="M1832 5613l-1-1h-1l-2-1h-1-1"/><path class="s5" d="M18e2 5596h-2l-1-1h-1"/><path class="s5" d="M1801 5596l-1-1h-1l-2-1h-1-1"/><path class="s5" d="M1768 5578h-1l-2-1h-1"/><path class="s5" d="M1770 5578l-1-1h-2l-2-1h-1v1"/><path class="s5" d="M1736 5560l-2-1h-1l-1-1"/><path class="s5" d="M1738 5559l-2-1h-1-2-1-1"/><path class="s5" d="M1691 5552l-2-1h-1l-1-1"/><path class="s5" d="M1693 5552v-1h-2l-1-1h-2-1-1"/><path class="s5" d="M1657 5556h-1-2l-1-1"/><path class="s5" d="M1659 5556l-2-1h-1-2-1-1"/><path class="s5" d="M1621 5560h-2-1l-2-1"/><path class="s5" d="M1622 5560l-1-1h-2-1-1-1"/><path class="s5" d="M1584 5564l-2-1h-1l-2-1"/><path class="s5" d="M1585 5564v-1h-1l-2-1h-1-1-1"/><path class="s5" d="M1547 5566h-1-2l-1-1"/><path class="s5" d="M1549 5566h-1l-1-1h-2-1-1-1"/><path class="s5" d="M1510 5569l-2-1h-1l-2-1"/><path class="s5" d="M1511 5569v-1h-1l-2-1h-1-1-1"/><path class="s5" d="M1472 5570l-2-1h-1"/><path class="s5" d="M1475 5570h-1l-1-1h-1-2-1"/><path class="s5" d="M1450 5571l-2-1h-1"/><path class="s5" d="M1453 5571v-1h-2-1l-2-1h-1"/><path class="s5" d="M1418 5571h-1-2"/><path class="s5" d="M1421 5572v-1h-1l-2-1h-2-1"/><path class="s5" d="M1387 5572l-1-1h-1"/><path class="s5" d="M1390 5572l-1-1h-2l-2-1h-1"/><path class="s5" d="M1360 5571h-1"/><path class="s5" d="M1365 5572l-1-1h-1-2l-2-1"/><path class="s5" d="M1335 5571l-1-1"/><path class="s5" d="M1340 5571h-1-1l-2-1h-1-1-1"/><path class="s5" d="M1311 5570h-2"/><path class="s5" d="M1315 5571v-1h-1-2l-2-1h-1"/><path class="s5" d="M1285 5569l-1-1"/><path class="s5" d="M1290 5569h-1-1-2l-1-1h-1"/><path class="s5" d="M1213 5562h-2"/><path class="s5" d="M1217 5563h-1l-4-1h-1"/><path class="s5" d="M1999 5698h1"/><path class="s5" d="M1999 5697h1l1 1h1 1 1l1 1"/><path class="s5" d="M1999 5697h2"/><path class="s5" d="M1236 5565h-2"/><path class="s5" d="M1234 5564h1l1 1h1 2l1 1"/><path class="s5" d="M1259 5567h1 2 1 1l1 1"/><path class="s5" d="M1259 5567h2"/><path class="s5" d="M1249 5569l223 42"/><path class="s5" d="M1472 5611l-105-19"/><path class="s5" d="M2082 5721l-715-129"/><path class="s5" d="M2009 5708l81 14"/><path class="s5" d="M1191 5558l6 2"/><path class="s5" d="M2080 5720l-10-2-9-2-10-3-12-3-10-4-10-3-10-4-19-9-18-8-41-20-111-59-107-62-16 4-24 4-23 3-36 4-66 6-90 5-79 2-59-1-40-1-37-3-24-2-19-2-11-2-4-1"/><path class="s5" d="M1709 5546h1 1 2 1l1 1h1"/><path class="s5" d="M1709 5546l2 1h1l2 1"/><path class="s5" d="M1712 5546h1 1"/><path class="s5" d="M1195 5558h6l19 3 24 2 37 2 40 2h59l79-2 90-5 66-5 35-4 24-4 24-4 16-3h1"/><path class="s5" d="M1354 5589l-170-32"/><path class="s5" d="M1477 5404h-1-2"/><path class="s5" d="M1476 5406l-2-1h-1"/><path class="s5" d="M1479 5406l-1-1-2-1h-1-2-1"/><path class="s5" d="M1455 5390h-1l-2-1"/><path class="s5" d="M1453 5391h-1l-2-1"/><path class="s5" d="M1457 5391l-1-1h-2l-1-1h-2-1"/><path class="s5" d="M1421 5391h-1l-1-1h-1"/><path class="s5" d="M1420 5392h-2l-1-1"/><path class="s5" d="M1423 5392l-1-1h-1l-2-1h-2-1"/><path class="s5" d="M1414 5365l-1-1h-2"/><path class="s5" d="M1413 5366l-2-1h-2"/><path class="s5" d="M1416 5366l-1-1-2-1h-1-2-1"/><path class="s5" d="M1342 5372h-1l-2-1"/><path class="s5" d="M1340 5373h-1l-2-1"/><path class="s5" d="M1344 5373l-1-1h-2l-2-1h-1-1"/><path class="s5" d="M1501 5414l-316-78"/><path class="s5" d="M6117 5918l877 24"/><path class="s5" d="M5614 5892h1l7-4 8-4 7-4 7-4 7-4 7-5 11-8 67-50 2-1h1l14-3h3l1-1 49-36"/><path class="s5" d="M5560 5908l558 10"/><path class="s5" d="M5809 5768l-52 38-1 1-2 1-14 2-2 1h-1l-1 1-67 50-11 7-7 5-7 4-7 5-7 3-8 5-7 3-8 4-7 3-5 1-4 1-5 2-4 1-5 1h-5l-6 1h-6"/><path class="s5" d="M5485 5615l-133 139"/><path class="s5" d="M5485 5615v-2"/><path class="s5" d="M5485 5613l-797-25"/><path class="s5" d="M4688 5588v2l-54 141"/><path class="s5" d="M5352 5754l-718-23"/><path class="s5" d="M4688 5588l-54 141v2"/><path class="s5" d="M4652 5587l33 1"/><path class="s5" d="M4632 5731l54-141-1-2"/><path class="s5" d="M4632 5731l-2-1"/><path class="s5" d="M6641 5798l301-146"/><path class="s5" d="M7503 5667l-562-16h-1"/><path class="s5" d="M6641 5798l580 17 282-110"/><path class="s5" d="M4640 5714h-1v1"/><path class="s5" d="M5850 5769l190-138"/><path class="s5" d="M6040 5630v1"/><path class="s5" d="M6939 5651l-899-21-2 1"/><path class="s5" d="M5850 5769l789 29 301-146"/><path class="s5" d="M5850 5769v-1"/><path class="s5" d="M6038 5631v-1"/><path class="s5" d="M5487 5613l551 17"/><path class="s5" d="M5487 5613v2"/><path class="s5" d="M6038 5631l-189 138-495-15"/><path class="s5" d="M5354 5754v-2"/><path class="s5" d="M2927 5770l10 10 12 12 6 5 6 5 6 5 5 4 5 3 6 5 7 4 6 3 6 3 4 2 5 1 4 2 5 1 5 1h5"/><path class="s5" d="M3035 5837l-5-1-297-26-322-39-330-51-11-2-10-2-11-3-7-3-8-2-10-4-9-4-10-4-10-4-27-12-68-35"/><path class="s5" d="M1585 5187l-1-2-1-1v-1"/><path class="s5" d="M1738 5303l-1 1"/><path class="s5" d="M2515 5352l-1 2"/><path class="s5" d="M1737 5304l-152-114-1-1-2-2v-2-1l1-1 2-1h2 3 4l257 24 5 1 4 1 5 1 4 2 4 1 3 2 3 1 3 2 135 110 497 27"/><path class="s5" d="M2139 4836l2-1"/><path class="s5" d="M2141 4835l-757-62-2 1"/><path class="s5" d="M1382 4774l10 19 10 18 10 18 10 18 18 29 12 19 13 19 19 27 20 26 1 1v2 1l-1 1"/><path class="s5" d="M1737 5304l-485-50-67-46"/><path class="s5" d="M2627 5475l-339-13"/><path class="s5" d="M2621 5507l-171-17-366-37"/><path class="s5" d="M2516 5353l-1 2"/><path class="s5" d="M2516 5353h-2"/><path class="s5" d="M2519 5357l107 109 1 1 1 1v1 2 2 2 2l-1 1-4 15-1 3v3 3 2 2 1l1 2v1l1 1 2 2"/><path class="s5" d="M2786 5669h-1-1l-154-12-224-25-282-41"/><path class="s5" d="M2150 5595l-26-4"/><path class="s5" d="M2288 5462l-208-14"/><path class="s5" d="M2829 5672l47 47"/><path class="s5" d="M1715 5541l114 66 70 37 398 41 322 23 257 11"/><path class="s5" d="M1715 5541v-1"/><path class="s5" d="M1715 5540l2-1 11-2 5-2 6-2 5-1 5-2 6-3 3-1 2-2 4-3 2-1 1-1 1-2"/><path class="s5" d="M1715 5541h1l11-3 5-1 6-2 5-2 5-2 6-2 3-2 3-1 3-3 2-1 1-2 2-2 1-2v-2-3-2l-1-2-2-3-1-1-2-2-2-2-2-2-3-1-3-2-2-2-5-2-5-3-5-3-6-2-6-3-7-2-10-4-23-8-25-8-52-15-103-27-104-65-146-95"/><path class="s5" d="M2739 45e2l2 74 4 67 6 71 7 57 8 54 10 38 11 36 13 39 14 37 6 18 11 25 9 22 10 20 10 21 19 38 22 38 20 33 29 46 119 176"/><path class="s5" d="M3066 5404l-115-172-29-45-20-33-22-39-20-38-9-20-10-21-9-22-11-25-7-17-13-37-13-39-11-36-11-38-7-54-7-57-6-71-4-67-2-74"/><path class="s5" d="M2740 4499l-694-51-2 1"/><path class="s5" d="M2627 5467l-210-213-50-53-25-29-20-24-20-25-21-28-11-16-12-17-11-18-11-18-10-16-18-33-17-32-15-30-14-32-15-34-15-38-13-39-13-38-12-40-14-53-11-47-10-47-8-49-7-49"/><path class="s5" d="M2869 4911l-4 7-4 6-5 7"/><path class="s5" d="M3125 5467v-1-3l1-2 1-2"/><path class="s5" d="M3129 5457v-15-4l1-4v-1l1-1h1 3"/><path class="s5" d="M2975 5212l-6 24"/><path class="s5" d="M2811 4883l1-2"/><path class="s5" d="M2812 4881l-9-30"/><path class="s5" d="M2811 4883l-9-32"/><path class="s5" d="M2936 5106l-1 1-1 1-9 33v4l1 2"/><path class="s5" d="M2836 4873l7 23 11 28 10 28 13 31 14 32 15 30 16 31 16 29 16 29 21 34 2 4"/><path class="s5" d="M2912 5118l10-33v-3-2l-1-2-7-15-15-29-14-29-9-21-9-21-13-34-9-25-9-25-1-6"/><path class="s5" d="M2765 4813h1"/><path class="s5" d="M2766 4814v-1l-4-29 1-1"/><path class="s5" d="M2960 5212l2 3 1 1"/><path class="s5" d="M2958 5167h2l31 8 2 1 1 1 4 3 4 7 1 3 1 4-1 3-1 3-2 2h-4l-4-1"/><path class="s5" d="M2960 5212l2-1 22 1h3l2-1 1-3 2-8"/><path class="s5" d="M2958 5167l-8 29v2 3l1 1 8 13 1 1h3l1-1v-2l1-1"/><path class="s5" d="M6994 5942l369-1 110-3h13l14-1"/><path class="s5" d="M7210 5894l-33 11-36 12-20 6-21 5-11 3-11 2-13 3-14 2-13 2-13 1-10 1h-11-10-10"/><path class="s5" d="M7503 5822l-280-7"/><path class="s5" d="M47e2 5588l1-1v-2-2l1-3v-2-3-3l-1-29v-3l-1-2-1-1-3-2h-2-2l-2-1-1-1"/><path class="s5" d="M4689 5533l-41-2"/><path class="s5" d="M4705 5582v-4-2"/><path class="s5" d="M4706 5588l-1-2 1-1v-3"/><path class="s5" d="M4705 5533l1 1 1 3v37 3 3 2 1 2l-1 2v1"/><path class="s5" d="M55e2 5613v-1l1-1v-1l1-1v-1-2l1-1v-2-2-1-2l-1-2-5-33v-2l-2-1-3-1h-6-1v-1l-1-1-779-24"/><path class="s5" d="M5505 5608v-3l1-2"/><path class="s5" d="M5501 5558l1 1v2l6 35v3 3 4l-1 3v2l-2 2"/><path class="s5" d="M6074 5576l-573-18h-1"/><path class="s5" d="M5490 5559v-1l1-1"/><path class="s5" d="M5502 5562l-1-2-1-1h-1-1l-8-1"/><path class="s5" d="M3088 5482l6 1"/><path class="s5" d="M2629 5472l459 11"/><path class="s5" d="M2628 5467h1v2 3 3l-1 1-5 17-1 4v3 3 3l1 2 1 2 1 1 1 1"/><path class="s5" d="M3264 5483l-132-4"/><path class="s5" d="M6958 5651l1-1h1l2-2 2-4v-3-2-2l-1-3-13-36"/><path class="s5" d="M2626 5513l1-1"/><path class="s5" d="M2627 5512l439 18 28 2 17 1"/><path class="s5" d="M3083 5682l-298-13-159-156"/><path class="s5" d="M7503 59e2l-292-7"/><path class="s5" d="M7211 5893l202-73"/><path class="s5" d="M5841 5402l-169 161"/><path class="s5" d="M4930 5540l88-166v-2"/><path class="s5" d="M4602 5467v1l-1 4"/><path class="s5" d="M3927 5468l34 1 5-1 5-1 5-3 4-3 3-4 2-3 3-1 3-1 3 1 2 2 2 2 2 5 4 3 4 3 4 2 6 1 1e2 3 5-1 5-1 5-3 3-3 3-4 2-3 3-1 3-1 3 1 3 2 1 2 3 5 3 3 4 3 5 2 5 1 1e2 3 6-1 6-2 4-3 2-1 1-2 2-4 2-2 2-1 4-1 3 1 2 1 2 3 2 4 4 4 4 3 5 2h5l74 3 5-1 6-2 4-3 4-4 2-5 1-5"/><path class="s5" d="M3850 5460l-3-5"/><path class="s5" d="M3524 5434l1 4 1 5 3 5 4 4 5 3 7 1 85 2h5l5-2 5-2 1-1"/><path class="s5" d="M3359 5437l2 4 3 4 4 3 4 1 6 1 101 3h7l6-2 5-4 5-4 3-6 2-3 3-3 4-1h4l3 2 3 2v1l1 3 1 6"/><path class="s5" d="M3669 5448l1 3 3 4 4 3 5 1 5 1 113 4 6-1 6-2 5-3 5-5 2-4v-2l2-3 3-3 4-1h4l4 2 2 3 1 3 1 5 2 3 3 4 4 3 5 2 6 1h16"/><path class="s5" d="M3361 5441l-2-4-2-3-2-2h-3-4l-3 2-2 2-3 4-4 3"/><path class="s5" d="M3333 5445l-3 1-5 2h-5"/><path class="s5" d="M3198 5424l1 3v5"/><path class="s5" d="M3198 5424v1l1 3 1 6 2 3"/><path class="s5" d="M32e2 5434l1 2 3 4 4 2 5 2 5 1 66 2"/><path class="s5" d="M3185 5420l-4 2-2 3-2 2-2 4-5 3-5 3-6 2h-5-25"/><path class="s5" d="M6058 5630l2-2 1-2 1-3v-2-2-3l-1-3-8-35-1-2h-1v-1h-3"/><path class="s5" d="M4615 4960l-89-3"/><path class="s5" d="M4526 4957v-2-2l-1-1-1-2-2-1h-2l-3-1-312-12h-2-2l-2 1-2 1-1 1-1 3v1"/><path class="s5" d="M4195 4943l-82-3"/><path class="s5" d="M4113 4940v-2l-1-2-1-1-1-2-2-1h-2l-3-1-317-14h-3-2l-2 1-1 1-1 2-1 2v2"/><path class="s5" d="M3776 4925l-83-4"/><path class="s5" d="M3693 4921l-1-2v-2l-1-1-2-2-2-1-2-1h-3l-333-17h-2-2l-2 1-2 2-1 1v2 2"/><path class="s5" d="M3340 4903l-84-5"/><path class="s5" d="M3256 4898l-1-2v-1l-2-2-2-1-2-2h-2l-3-1-337-20h-2-2l-2 1-1 1-1 2v2 2"/><path class="s5" d="M29e2 4871v1l-1 2v2 1"/><path class="s5" d="M2899 4877l-66-4-3-3-2-1-3-1h-2l-13-1"/><path class="s5" d="M2810 4867l-4-16"/><path class="s5" d="M5884 5403l81-77 36-35 19-21 23-25 19-22 19-24 15-19 15-20 11-15 11-16 11-17 11-17 11-19 14-24 7-13 6-13 7-13 6-14"/><path class="s5" d="M5884 5403l-866-30"/><path class="s5" d="M5018 5373l51-98 29-61 16-35 21-50 16-43 13-38 15-47 10-36-1-1"/><path class="s5" d="M6205 4998l-1017-34"/><path class="s5" d="M5018 5373v-2l50-96 26-53 17-39 18-42 20-53 14-39 15-47 10-38"/><path class="s5" d="M5742 5537l111-102"/><path class="s5" d="M4495 4952v-1"/><path class="s5" d="M4372 4944l-3-1"/><path class="s5" d="M4369 4945v2"/><path class="s5" d="M4370 4945h-1-2v1"/><path class="s5" d="M4366 4943l-2 1-1 2"/><path class="s5" d="M13e2 4857l13 20v1"/><path class="s5" d="M1296 4852l-1-3-15-24"/><path class="s5" d="M1277 4822l17 28 17 28 19 26 18 26"/><path class="s5" d="M1348 4930l-163-15"/><path class="s5" d="M4648 5530h5"/><path class="s5" d="M4652 5526l1 4"/><path class="s5" d="M4652 5526l1 3"/><path class="s5" d="M4653 5524v5"/><path class="s5" d="M4653 5524v5 1"/><path class="s5" d="M4653 5524v1 1"/><path class="s5" d="M4653 5524v1 1"/><path class="s5" d="M4653 5524v2 1 1"/><path class="s5" d="M4653 5529v-2-1-2"/><path class="s5" d="M4652 5526l-107-3"/><path class="s5" d="M4653 5531v-2-1"/><path class="s5" d="M4653 5528v-1-1"/><path class="s5" d="M4653 5531v-1-1-1"/><path class="s5" d="M4653 5531v-2-1"/><path class="s5" d="M4653 5526v-1-1"/><path class="s5" d="M4653 5531v-3-1-1-1-1"/><path class="s5" d="M4595 4968l-1-9"/><path class="s5" d="M4615 4960v2 1"/><path class="s5" d="M4616 4965v1"/><path class="s5" d="M4612 4960v2 3 1h-2-8l-5 1-4 2-2 3v2l55 545v1l1 1 6 3h1v1"/><path class="s6" d="M5524 4452l8 20 1 6 2 6 1 7v6 8 7l-1 11v5l-1 6-1 5-1 5-2 6-2 5-2 5-3 5-5 9-3 6-5 5-4 5-4 4-4 4-5 4-6 5-6 4-7 4-6 3-7 2-6 2-5 2-9 2-10 1h-6-6l-58-3-5-1-6-1-5-2-4-2-3-2-3-3-3-2-2-3-3-3-2-4-2-6-2-5-1-6v-5-5l9-111 1-26 1-4v-4l1-4 2-4 1-3 2-4 2-3 2-3 5-5 4-3 5-3 6-3 6-2h6 6l58 3 6 1 7 1 6 1 7 2 6 2 5 3 6 3 6 3 6 4 5 4 5 4 4 4 4 5 4 5 4 5 3 6z"/><path class="s5" d="M6639 5009l6-14 7-15 6-15 6-15 6-16 5-16 4-13 8-27 7-28 7-31 6-33 5-32 5-34 4-37 4-56 3-76 2-78 1-8 2-7 2-8 3-7 3-8 3-7 3-7 4-8 4-6 5-7 4-7 5-6 5-6 6-6 5-5 6-6 20-17 24-22 17-17 18-18 13-15 13-15 11-14 11-15 8-11 8-11 7-11 7-12 7-12 5-10 5-10 4-11 4-10 4-11 3-9 2-10 3-9 1-10 2-8-1-11"/><path class="s5" d="M6988 4076l1-9 1-8v-8l1-11v-11l-1-4 1-6-1-10-1-12"/><path class="s5" d="M6989 3997l-139-6-409-4-80-4-671-48-994-1e2"/><path class="s5" d="M4696 3835v9 9l-1 50-4 53-5 60-7 63-3 29-4 40-15 351-22 276-20 167"/><path class="s5" d="M4615 4942v-1l19-167 22-275 16-350 4-41 3-30 7-62 5-60 3-52 1-13"/><path class="s5" d="M5428 5824l-24 22-17 15-8 7-8 6-9 7-9 5-1 1-8 5-4 2-4 2-7 3-6 2-4 2-5 1h-4l-5 1-113-2"/><path class="s5" d="M5428 5822h-29"/><path class="s5" d="M5325 5889l-579-12"/><path class="s5" d="M5279 5904l-559-7"/><path class="s5" d="M4823 5737l-53 1e2-10 17-6 10-3 4-5 7-4 6-2 2-2 3-3 2-2 3-3 2-2 2-3 1-2 1h-2-2l-114-1"/><path class="s5" d="M4657 5669l-1 2"/><path class="s5" d="M4665 5510l-1 1-10 7v1 2l1 10"/><path class="s5" d="M4927 5540l-272-9"/><path class="s5" d="M5186 4964l-571-21"/><path class="s5" d="M4617 4973l-2-30"/><path class="s5" d="M4654 5521v-1h1l9-7 1-1v-1l-50-568"/><path class="s5" d="M3667 5464l3-24v-1"/><path class="s5" d="M1585 5186l1-1 1-1"/><path class="s5" d="M1858 5209l5 1 4 1 4 1 3 2 3 2 2 1 136 110"/><path class="s5" d="M2015 5326v1"/><path class="s5" d="M1588 5182l-1 1-1 1-1 2v1l1 1 2 2 152 115 275 22"/><path class="s5" d="M3182 5674l-3-2-2-2-1-1"/><path class="s5" d="M1315 4880l2 4 10 14"/><path class="s5" d="M1298 4854l6 9 7 11"/><path class="s5" d="M1280 4825l11 17 5 8"/><path class="s5" d="M1274 4820l-89-9"/><path class="s5" d="M2989 5175l1-1h1"/><path class="s5" d="M2766 4810l-4-28"/><path class="s5" d="M1464 5565l-279-8"/><path class="s5" d="M2777 2885l-1 2-25 94"/><path class="s5" d="M2751 2981l-94-76"/><path class="s5" d="M2657 3496l17-49 5-12 2-7 73-257 3-12v-1l1-13 1-7v-7-7l-1-7-2-15-3-16-3-13-6-18-1-6-1-6-1-5-1-8 1-7v-6l2-6 7-29"/><path class="s5" d="M2146 3417l-74-19-105-9"/><path class="s5" d="M1309 2957l1-3 10-19 15-32"/><path class="s5" d="M1266 3025l-11 14-13 15-14 16"/><path class="s5" d="M1267 3024l-3 3"/><path class="s5" d="M1264 3027l11-15 9-13h1"/><path class="s5" d="M1274 3184l22-18 22-19 5-5 20-19 19-21 20-23 21-27 20-27 2-3 19-30 19-32 16-28 16-30"/><path class="s5" d="M1228 3070l-30 29-4 4-3 3-3 4-3 4-1 4-1 4v4 4l2 3 2 3 2 2 3 3 4 3 3 2 7 4 8 4 18 10 24 12 18 8 2 1"/><path class="s5" d="M2835 3540l401 80 707 114 750 97"/><path class="s5" d="M4612 4942l-1838-93"/><path class="s5" d="M1730 5535h-1"/><path class="s5" d="M1730 5535l-1-1h-1l-1 3"/><path class="s5" d="M1728 5534l-2 3"/><path class="s5" d="M1730 5535v-1h-1-1l-6 1-2 3"/><path class="s5" d="M1751 5528h-1l-1 2"/><path class="s5" d="M1750 5527v1l-2 2"/><path class="s5" d="M1752 5529l-1-1v-1h-1l-5 2-1 1-1 2"/><path class="s5" d="M1765 5520l-1 1-1 1"/><path class="s5" d="M1730 5535h1 1"/><path class="s5" d="M1731 5536l-3-1"/><path class="s5" d="M1751 5529h-1-1"/><path class="s5" d="M7050 4001l2-6 2-3 2-3 2-3 3-4 5-4 4-4 4-3 42-30 4-3 5-4 4-3 6-5 368 3"/><path class="s5" d="M7135 3926l1 1"/><path class="s5" d="M2863 4910l-1 4-2 11"/><path class="s5" d="M2862 4909l-1 5-2 12v1"/><path class="s5" d="M1185 3881l253 25"/><path class="s5" d="M4108 4932l-1 2"/><path class="s5" d="M4107 4932v2"/><path class="s5" d="M4216 4941l1-5"/><path class="s5" d="M1469 4919l-2-2-1-1"/><path class="s5" d="M1445 4884l-3-5-1-2"/><path class="s5" d="M1348 4931l1-1"/><path class="s5" d="M1185 4753l197 20"/><path class="s5" d="M1394 4797l3 6"/><path class="s5" d="M1382 4773l12 23"/><path class="s5" d="M1380 4774l11 21 11 21 11 20 12 20 12 20 12 19 13 18 13 18 13 18 13 17 1 2v1l-1 1"/><path class="s5" d="M1503 4966l1 2-1 1-2 1-1 1h-2l-105-8-208-20"/><path class="s5" d="M6734 4491h2l767-82"/><path class="s5" d="M6069 5574l153-114 33-44"/><path class="s5" d="M7503 5610l-1424-31h-1l-2-1-1-1-1-1-1-2-1-1"/><path class="s5" d="M5467 5757l-69 65-610-15"/><path class="s5" d="M5706 5829l-276-7-37 34-3 2"/><path class="s5" d="M5316 5905l244 3 5-1h4l4-1h4l4-1 7-2 7-2 6-3 5-2 6-3 6-2 5-3 6-3 11-7 10-6 9-7 19-13 28-21"/><path class="s5" d="M4657 5669h-2"/><path class="s5" d="M4657 5669h-2"/><path class="s5" d="M2986 5169l1 1v2 1"/><path class="s5" d="M2988 5173h-1-4"/><path class="s5" d="M2987 5173l-4-1"/><path class="s5" d="M2980 5165l-1 2v3 2"/><path class="s5" d="M6186 5453h-1-2-1-4l-5 1"/><path class="s5" d="M6185 5456l-123 94h-1l-1 1h-2l-2 1h-1l-11 1"/><path class="s5" d="M6173 5454l-33 1h-34l-33-1-35-3-159-14"/><path class="s5" d="M5880 5438h-1-1"/><path class="s5" d="M5853 5435l27 3"/><path class="s5" d="M5742 5537l304 15"/><path class="s5" d="M3314 5443l-1-1"/><path class="s5" d="M4113 4937l-5-3-3-3"/><path class="s5" d="M4377 4946l-2-1-3-1"/><path class="s5" d="M4377 4946l2-3"/><path class="s5" d="M4378 4946l2-3"/><path class="s5" d="M4379 4947l1-3"/><path class="s5" d="M4372 4944l3-2"/><path class="s5" d="M4381 4944v-1"/><path class="s5" d="M3066 5774l-138-4-50-51"/><path class="s5" d="M2926 5770l-305-15h-2l-1-1h-2l-2-1h-1l-61-49"/><path class="s5" d="M2984 5174l2-1"/><path class="s5" d="M2972 5163h3l3 1 2 1 3 1 2 1 1 1"/><path class="s5" d="M2833 3541l-1-1-210-50-39-8-57-10-208-34-172-21"/><path class="s5" d="M2739 4497v-20l1-82 4-82 7-85 9-77 14-97 15-85 24-118 2-8 1-7 1-8 1-12 1-11v-11l1-8v-8-8l-1-8-2-38-1-13v-14-15-20l2-23 1-16 3-25 2-14 4-25 4-19"/><path class="s5" d="M2146 3417l-3 13-3 13-2 14-2 15-2 15-1 16v12 11 10 10 11l1 10v10l2 15 3 26 1 9v9 9 10l-1 8-1 8-2 8-1 8-3 10-14 43-19 67-17 70-14 61-7 37-8 51-8 52-5 51-3 44-3 53-1 44 1 30 1 30 1 30 2 29 3 29 3 27"/><path class="s5" d="M2202 3426l-129-101-248-202-101-89-91-84-47-45"/><path class="s5" d="M1973 3389l-518-143-94-31-31-11-54-19"/><path class="s5" d="M1518 2905l-2 4-12 24-13 23-14 25-12 20-14 22-15 21-19 26-13 17-12 14-11 13-12 12-12 14-14 13-13 12-14 12-17 16"/><path class="s5" d="M1286 2999h-2"/><path class="s5" d="M1284 2999v-1l2-2 19-32 4-7 2-3 4-3 3-2 4-2 5-2 4-2 8-2 7-2 15-4 9-3 6-2 8-4 6-3 5-3 5-4 3-3 4-5 2-3"/><path class="s5" d="M1446 2905v1l-1 6-1 6-3 8-2 7-3 5-3 5-4 5-5 5-4 5-7 5-8 5-6 3-11 4-9 3-6 2-43 9-12 2-16 3-6 1-5 1-3 1-2 1h-1v1h-1"/><path class="s5" d="M1302 4430l35 4 110 18 40 7 39 8 104 28 35 11 35 11 32 11 31 12 36 17 17 8 18 8 26 14 12 7 13 8"/><path class="s5" d="M1302 4429l-66-8-51-5"/><path class="s5" d="M1440 3893l-2-1-4-3-3-4-4-4-2-5-3-6-2-6-1-6v-4"/><path class="s5" d="M1419 3854v-4l1-5 1-4 11-29"/><path class="s5" d="M1434 3812h-2l-247-21"/><path class="s5" d="M1185 4259l190 19"/><path class="s5" d="M1353 4384h-2l-166-17"/><path class="s5" d="M1922 4638l10 11"/><path class="s5" d="M2080 4649h-1"/><path class="s5" d="M1628 4751h45"/><path class="s5" d="M1673 4751h-73l-357-8-58-4"/><path class="s5" d="M1496 4288l-27-5-64-5"/><path class="s5" d="M1560 3897l-92-7"/><path class="s5" d="M2080 3877l-1-1-645-64"/><path class="s5" d="M2042 4445h-1l-688-61"/><path class="s5" d="M1468 3890l1 1 1 1 1 2-1 1-9 37-17 74-7 37-7 38-6 38-5 38-4 39-4 38-3 39v2l-1 1-1 2h-1-1l-19-1h-5-2-1l-5 2h-1l-2 1-3 1-2 2-2 2h-1l-3 3v1l-4 5v1l-2 3v1l-1 2-2 5v3l-1 6 2 38 3 31"/><path class="s5" d="M1377 4277l14-1e2 15-1e2 35-186h2l3-1h3 4 6 9l1 1 1 1 1 2-1 1-18 74"/><path class="s5" d="M6208 4998l428 12 2 2"/><path class="s5" d="M5886 5403l369 13 92-71 40-32 25-22 25-23 26-24 25-26 17-18 15-16 19-23 20-25 9-12 10-13 12-18 8-13 9-13 8-13 8-14 7-14 8-14"/><path class="s5" d="M7150 3920l353-317"/><path class="s5" d="M7265 3808l-180-95-16-7-9-4-20-8-11-3-11-3-12-2-13-3-23-2-342-22-1154-99-1438-166-799-121-485-91"/><path class="s5" d="M7265 3808l-180-95-16-7-9-4-20-8-11-3-11-3-12-2-13-3-23-2-342-22-1154-99-1438-166-799-121-485-91"/><path class="s5" d="M1673 4751l79-9 75-22 58-33 38-29 9-9"/><path class="s5" d="M1885 4602l16 12 13 12 8 12"/><path class="s5" d="M3876 5513v-1-1"/><path class="s5" d="M3880 5513l-1-1 1-3"/><path class="s5" d="M3880 5513h2l2 2"/><path class="s5" d="M3882 5630h1"/><path class="s5" d="M3891 5612v2"/><path class="s5" d="M3891 5614h-2"/><path class="s5" d="M3877 5547l5 1"/><path class="s5" d="M3877 5547l1 1"/><path class="s5" d="M3878 5548h4"/><path class="s5" d="M3875 5545v-2"/><path class="s5" d="M3875 5547v-1"/><path class="s5" d="M3878 5612v-62-2l-1-1h-1"/><path class="s5" d="M3877 5548l-1-1"/><path class="s5" d="M3878 5549v-1h-1l-2-1"/><path class="s5" d="M3875 5547l-1-2v-2"/><path class="s5" d="M3890 5483h1 1l1 1"/><path class="s5" d="M3875 5543v-1l2-23v-1-1l-1-4v-2l1-1h1l2-1 1-1v-2l1-6v-6l1-4 1-3v-3l1-1h1 7"/><path class="s5" d="M3908 5484l-7-1"/><path class="s5" d="M3906 5548l-1-1"/><path class="s5" d="M3906 5548l3-30-2-6-1-1h-1l-2-1"/><path class="s5" d="M3907 5513v-1"/><path class="s5" d="M3905 5513l2-1"/><path class="s5" d="M3905 5513l1-2"/><path class="s5" d="M3905 5513v-2"/><path class="s5" d="M3908 5484v2 3 3l-1 3v3l-1 1v1l-1 2v3l-1 4v1"/><path class="s5" d="M3903 5514v-1-3-2l-1-1 1-7 1-5v-4l1-4 1-2v-1h2"/><path class="s5" d="M3902 5549h-8"/><path class="s5" d="M3891 5612l10-61 1-1v-1l2-1h2"/><path class="s5" d="M3905 5547h-1l-1 1-1 1-1 2-10 61v2"/><path class="s5" d="M3877 5613v1l-8 1"/><path class="s5" d="M3884 5614l-1 16"/><path class="s5" d="M3889 5614h1 1l8 2"/><path class="s5" d="M3869 5615v2 1 1l-1 7 1 2v1l1 1 2 1h22 2l1-2 1-1 1-11v-1"/><path class="s5" d="M3256 5526l6-2"/><path class="s5" d="M3256 5526l1-1"/><path class="s5" d="M3262 5523l-5 2h-1v1"/><path class="s5" d="M3288 5526l-1 1"/><path class="s5" d="M3290 5526h-3"/><path class="s5" d="M3289 5528l1 2"/><path class="s5" d="M3290 5530h-2l-2 1-1 1v1l-16 61"/><path class="s5" d="M3269 5596v-2"/><path class="s5" d="M3277 5523v1"/><path class="s5" d="M3290 5530l-2-3h-1l-10-3h-1l-1-1"/><path class="s5" d="M3276 5597l-7-3 16-62v-1l1-1 1-1 2-1"/><path class="s5" d="M3281 5464h-1-4l-4 2-2 2-2 3-2 4-1 6-2 6v1l-1 2-2 1h-1v1l-1 1"/><path class="s5" d="M3288 5492v1"/><path class="s5" d="M3288 5492l-2-3"/><path class="s5" d="M3299 5465l1 1v3 3l-1 4-1 2v1l-3 2-1 1-1 3-2 5v3"/><path class="s5" d="M3286 5491v2"/><path class="s5" d="M3298 5464l-4 3-2 1-2 4-1 4-2 6-1 6v1 1 1l2 1h1l2 1 4 6"/><path class="s5" d="M3290 5530l5-31"/><path class="s5" d="M3263 5522h12"/><path class="s5" d="M3259 5493v-2"/><path class="s5" d="M3262 5493v-1-2"/><path class="s5" d="M3262 5493h3"/><path class="s5" d="M3262 5493l3 1"/><path class="s5" d="M3247 5612l1-15 2-1 2-1 2-1v-2l2-68 6-31"/><path class="s5" d="M3276 5598v2 2l-1 7-1 2-2 2h-2-8-2-1l-1-1v1h-2-8l-2-1"/><path class="s5" d="M4545 5533h-2l-2 1v26"/><path class="s5" d="M4545 5533l1-1v-2"/><path class="s5" d="M4518 5634l8-3-4-52"/><path class="s5" d="M4518 5645v2"/><path class="s5" d="M4518 5634v1 1 2 7"/><path class="s5" d="M4522 5579l4 52"/><path class="s5" d="M4540 5561v1"/><path class="s5" d="M4541 5558v1"/><path class="s5" d="M4540 5561l8 3"/><path class="s5" d="M4547 5566l-1 1-1 1-1 1-1 1-4 60 8 5"/><path class="s5" d="M4518 5634v1 10 2l1 2h2l21 1h2l2-2v-2-8-1l1-1v-1"/><path class="s5" d="M4573 5852l2-1v1h1v1l-1 1h-1-1v-1-1h1 1l1 1"/><path class="s5" d="M4551 5848l1-1h1l1 1v1 1h-1-1l-1-1v-1h1l1-1 1 1v1"/><path class="s5" d="M4546 5881l1-1h1 1v1 1l-1 1h-1l-1-1v-1-1h1l1 1h1v1"/><path class="s5" d="M4581 5862l-3 17"/><path class="s5" d="M4581 5862l-3 17"/><path class="s5" d="M4526 5852l55 10"/><path class="s5" d="M4581 5862l-55-10"/><path class="s5" d="M4526 5852l-3 16"/><path class="s5" d="M4578 5879l-55-11"/><path class="s5" d="M4513 6253v-1h-1v-1l-1 1"/><path class="s5" d="M4513 6254v-1-1-1h-1-1v1l-1 1 1 1h1 1v-1"/><path class="s5" d="M4508 6289v-1l-1-1h-1l-1 1"/><path class="s6" d="M4508 6288l-1 2h-2v-1l1-2h2z"/><path class="s5" d="M4490 6250l1-1-1-1v-1h-1-1v1"/><path class="s6" d="M4491 6249v-1l-1-1h-1-1v1 1 1h1 1v-1z"/><path class="s5" d="M4485 6285v-1l-1-1h-1l-1 1"/><path class="s6" d="M4485 6285l-1-2h-2v1l1 2h2z"/><path class="s5" d="M4464 6663v-1l-1-1h-1-1"/><path class="s5" d="M4461 6661v1"/><path class="s5" d="M4461 6661v1h-1"/><path class="s5" d="M4464 6663v-1l-1-1v-1h-1l-1 1-1 1v1l1 1v1h1 1l1-1v-1-1"/><path class="s5" d="M4464 6637v-1-1h-1v-1h-1-1l-1 1"/><path class="s5" d="M4461 6634l-1 1"/><path class="s6" d="M4464 6636l-2-2h-1v1l2 2h1z"/><path class="s5" d="M4461 6252l58 11"/><path class="s5" d="M4461 6252l58 11"/><path class="s5" d="M4519 6263l-3 18"/><path class="s5" d="M4519 6263l-3 18"/><path class="s5" d="M4516 6281l-58-10"/><path class="s5" d="M4461 6252l-3 19"/><path class="s5" d="M4571 5886v-1h-1l-1-1h-1v1 1l1 1h1l1-1v-1l-1-1h-1-1v1"/><path class="s5" d="M4545 5521l92 3"/><path class="s5" d="M4549 5533l27 1 61-10"/><path class="s5" d="M4576 5534l-38 233 3 4 6 9 40 64"/><path class="s5" d="M4637 5524l-50 320"/><path class="s5" d="M4587 5844l-50-9-5-1-3 1-3 2-4 3-2 3-2 4-3 23v1 5l1 3 2 3 3 3 3 3 4 1 51 9"/><path class="s5" d="M4538 5767h-10l-9 1-8 2-6 3-8 4-6 3-6 4-7 8-2 2-5 7-5 9-2 4-2 6-3 9-4 25-1 8v11l1 6 1 6 3 11 2 6 5 9 4 6 6 8 7 6 7 5 9 6 10 4"/><path class="s5" d="M4579 5898l-58 40-8 6-4 2"/><path class="s5" d="M4509 5946l-35 212 1 2 50 83"/><path class="s5" d="M4579 5898l-54 345"/><path class="s5" d="M4525 6243l-53-10h-2-3l-3 1-3 2-2 1-2 2-1 1-2 3-1 4v1l-4 24v4 3l1 3 2 3 2 3 3 2 59 13"/><path class="s5" d="M4453 6604v68"/><path class="s5" d="M4435 6672h18"/><path class="s5" d="M4453 6604v1 67"/><path class="s5" d="M4453 6604h-18"/><path class="s5" d="M4435 6672v-21-47"/><path class="s5" d="M4428 6636l-1-1v-1h-1-1v1"/><path class="s5" d="M4428 6636v-1l-1-1h-1-1v1 1 1h1 1l1-1v-1"/><path class="s5" d="M4428 6663l-1-1v-1h-1-1v1"/><path class="s5" d="M4428 6663v-1l-1-1h-1-1l-1 1v1h1v1h1 1l1-1v-1"/><path class="s5" d="M4426 6351l-6-4-6-5-6-6-5-6-3-5-3-5-3-5-3-7-2-5-1-5-1-5-1-4-1-12v-10l1-10 4-25 1-6 2-7 3-7 3-7 3-6 4-6 4-5 4-5 5-5 4-3 4-3 4-3 4-2 5-2 4-2 6-2 7-1 7-1 10-1"/><path class="s5" d="M4106 6633l-1-1h-1l-1 1"/><path class="s5" d="M4103 6632v1"/><path class="s5" d="M4106 6632v1 1 1h-1-1l-1-1v-1-1h1 1 1v1"/><path class="s5" d="M4104 6660v-1h-1-1v1"/><path class="s5" d="M4102 6659v1l-1 1"/><path class="s5" d="M4104 6659l1 1-1 1v1h-1-1-1v-1-1l1-1h1 1v1h1"/><path class="s5" d="M4075 6670l4-68"/><path class="s5" d="M4079 6602h18"/><path class="s5" d="M4093 6670l4-68"/><path class="s5" d="M4079 6602h18"/><path class="s5" d="M4075 6670l4-68"/><path class="s5" d="M4093 6670h-18"/><path class="s5" d="M4070 6633h-1v-1h-1-1"/><path class="s5" d="M4067 6632l-1 1"/><path class="s6" d="M4070 6634v-1l-1-1-1-1h-1v1l-1 1 1 1v1h1 1v-1z"/><path class="s5" d="M4068 6660l-1-1h-1l-1 1"/><path class="s5" d="M4065 6659v1"/><path class="s6" d="M4068 6661v-1-1h-1l-1-1-1 1v1 1 1h1 1z"/><path class="s5" d="M3743 6630v-1h-1-1l-1 1"/><path class="s5" d="M3740 6631v-1"/><path class="s6" d="M3743 6631v-1-1h-1-1-1v1 1 1h1 1 1z"/><path class="s5" d="M3740 6657h-1v-1h-1l-1 1"/><path class="s5" d="M3737 6656v1 1"/><path class="s5" d="M3737 6658v-1"/><path class="s6" d="M3740 6658l-2-2h-2v1l2 2h2z"/><path class="s5" d="M3709 6667l8-69"/><path class="s5" d="M3717 6598l19 1"/><path class="s5" d="M3728 6667l8-68"/><path class="s5" d="M3709 6667l8-68v-1"/><path class="s5" d="M3728 6667h-19"/><path class="s5" d="M3706 6629h-1-1-1v1"/><path class="s5" d="M3703 6631v-1"/><path class="s6" d="M3706 6630v2h-1l-1-2v-2h1z"/><path class="s5" d="M3699 6658l1-1h-1"/><path class="s5" d="M37e2 6657l1-1h1l1 1v1h-1v1h-1-1l-1-1v-1l1-1 1-1 1 1 1 1"/><path class="s5" d="M3876 5512l-65-2-58-14"/><path class="s6" d="M3753 5496l-18 170-1 9-2 10-2 9-3 9-5 12-3 6-4 8-5 9-6 8-6 8-6 7-7 8-8 7-8 6-8 6-8 6-9 5-11 5-8 4-9 3-7 2m-12 3m-10 2m-10 1m-10 1h-13l-8-1-8-1"/><path class="s5" d="M3811 5510l-15 153-2 15-3 16-5 15-5 16-7 15-8 14-8 14-10 14-10 12-10 11-11 11-12 10-12 9-13 9-14 8-14 7-17 7-15 5-15 4-15 3-16 2-16 1h-15l-14-1"/><path class="s5" d="M3718 5550l-4-6-6-5-6-5-6-3-8-2-8-1-170-5h-6l-6 1-6 2-6 2-6 3-5 4-5 5-4 5-4 7-4 7-1 4v4l-14 92-1 11v4 11l1 10 2 11 3 10 4 9 4 9 5 9 6 8"/><path class="s6" d="M3722 5572v3l-10 91-1 11-3 10-3 10-4 10-5 10-6 10-6 9-7 9-8 8-8 7-9 7-10 7-12 6-8 4-10 4-11 4-11 2-11 2h-11-11l-10-1-11-2-10-2-10-4-10-5-9-4-8-6-8-6-7-7-7-8-6-8-5-9-4-9-4-10-3-10-2-10-1-11v-10-5l1-11 13-91 1-4 1-4 3-8 5-7 4-5 5-4 5-4 6-3 6-3 6-1 6-1 6-1 170 6h8l7 3 7 3 6 4 5 6 4 6 3 7 2 7z"/><path class="s5" d="M3362 6625h-1l-1 1h-1"/><path class="s5" d="M3359 6627v-1"/><path class="s6" d="M3362 6626h1l-1 1v1h-1-1l-1-1v-1l1-1 1-1 1 1z"/><path class="s5" d="M3357 6653l-1-1-1 1h-1"/><path class="s5" d="M3354 6653v1"/><path class="s5" d="M3354 6654v1h1 1 1v-1-1-1h-1-1l-1 1v1 1"/><path class="s5" d="M3375 5496l-24 154-1 13-1 13v14l1 13 1 13 3 13 4 14 5 15 6 13 7 14 8 12 9 12 10 11 11 11 12 9 13 9 13 8 14 7 11 4"/><path class="s5" d="M3357 6594l-13 69"/><path class="s5" d="M3357 6595h-18"/><path class="s5" d="M3357 6594h-19"/><path class="s5" d="M3325 6663l14-68-1-1"/><path class="s5" d="M3344 6663h-19"/><path class="s5" d="M3338 6594l-13 69"/><path class="s5" d="M3325 6625h-1v-1l-1 1h-1v1"/><path class="s5" d="M3322 6627v-1l-1-1"/><path class="s6" d="M3325 6626v-2h-2l-2 2 2 1z"/><path class="s5" d="M3319 6652h-1-1v1l-1 1"/><path class="s5" d="M3316 6654v-1"/><path class="s6" d="M3320 6653l-2 2h-1v-2l1-2 2-1 1 1z"/><path class="s5" d="M3539 5818l-38-11-8-4-9-4-7-5-8-6-6-5-8-8-6-7-5-7-5-8-5-8-4-9-3-8-3-9-2-9-2-9-1-14-1-11 1-8 1-11 25-171"/><path class="s5" d="M3445 5486l-70 10-84-2"/><path class="s5" d="M3203 5491l-21 114"/><path class="s5" d="M4516 6303l-63 48-9 7-3 1"/><path class="s5" d="M4441 6359l-23 149 5 9 35 56 16 22"/><path class="s5" d="M4516 6303l-42 292"/><path class="s5" d="M4418 6508l-9 3-6 2-4 2-4 2-4 3-4 3-4 3-4 3-6 6-5 7-5 6-3 6-4 7-1 2-3 8-2 9-1 3 2 4 5 8 4 8 4 6 16 23 17 22 17 22"/><path class="s5" d="M4474 6595l-42-1-3 1-4 1-2 1-3 3-2 3-2 3-1 3-1 4v63"/><path class="s5" d="M4414 6676l-3e2-2"/><path class="s5" d="M4114 6674l17-19 20-23 19-25 2-3 6-9 6-9 2-5-1-5-2-8-3-9-4-9-3-5-2-3-5-7-6-7-6-6-4-3-7-5-6-3-8-3-8-2-6-1-5-1h-5-24-5-5l-6 1-8 2-8 3-7 3-7 4-7 5-6 6-6 6-4 4-3 4-3 5-5 7-4 8-3 8-3 9v1l5 11 4 7 5 8 18 27 20 27 10 14"/><path class="s5" d="M4114 6674l4-63v-3l-1-4-1-3-2-3-3-3-3-1-4-2h-3-25-1-3l-4 2-2 1-3 3-2 3-2 3-1 3-1 4-4 63"/><path class="s5" d="M4053 6674l-304-2"/><path class="s5" d="M3749 6672l10-11 25-28 24-29 2-3 7-9 6-9 3-5-1-5-2-8-2-8-1-4-3-8-5-8-5-7-4-5-6-6-7-6-7-4-6-4-7-2-7-2-10-1-5-1h-25-6l-6 1-5 1-9 2-8 3-8 4-3 2-5 3-7 5-5 4-4 4-4 4-4 4-3 5-6 8-2 3-4 8-4 8-3 8 5 11 3 7 5 8 20 31 21 30 6 8"/><path class="s5" d="M3749 6672l7-64v-3-4l-1-3-2-3-3-3-3-2-3-1h-4l-25-1-3 1-4 1-3 2-3 2-3 3-2 4-1 3-1 4-8 63"/><path class="s5" d="M3687 6671l-322-3"/><path class="s5" d="M3365 6668l33-34 30-34 5-5 6-8 6-8 3-6-1-8-1-5-1-6-1-6-3-8-3-6-5-8-4-5-5-7-7-5-6-5-7-3-6-3-9-3-6-1h-10l-25-1h-6l-10 2-7 1-6 2-6 3-6 2-5 3-4 2-8 5-7 6-4 4-4 4-4 4-4 4-6 8-2 3-5 8-5 9-4 7"/><path class="s5" d="M3245 6570l5 12 3 7 5 8 21 36 23 34"/><path class="s5" d="M3365 6668l12-64 1-4-1-4-1-2-1-3-3-3-3-2-3-1-4-1h-25-4l-4 2-3 1-4 3-2 3-3 4-1 2-1 4-13 64"/><path class="s5" d="M3302 6667l-142-2"/><path class="s5" d="M3148 5477l-6 32"/><path class="s5" d="M3121 5814h-1l1-1 1-1h1"/><path class="s6" d="M3123 5813v1l-1 1-1-1v-1l1-1z"/><path class="s5" d="M3114 5848l1-1 1-1h1"/><path class="s6" d="M3117 5847v2h-1l-1-1v-2h1z"/><path class="s5" d="M3097 5814v-1l1-1h1 1"/><path class="s6" d="M31e2 5812v2h-1l-1-1v-2h1z"/><path class="s5" d="M3091 5848v-1l1-1h1"/><path class="s6" d="M3094 5846l1 1-2 1h-2l-1-1 2-1z"/><path class="s5" d="M3085 5838l3-17"/><path class="s5" d="M3088 5821l59 1"/><path class="s5" d="M3144 5840l3-18"/><path class="s5" d="M3088 5821h1l58 2"/><path class="s5" d="M3086 5838l3-17"/><path class="s5" d="M3144 5840l-59-2"/><path class="s5" d="M3088 6136l7 2 3 1 6 2 7 3 6 4 6 5 2 2 5 5 5 7 2 3 3 5 3 7 1 4 2 7 1 9 1 7-1 6v6l-1 7-5 26v2l-3 10-2 8-4 8-2 4-3 5-2 4-4 5-6 8-6 6-1 2-7 6-7 5-7 5-6 3-5 3-6 3-6 2-7 2"/><path class="s5" d="M3047 6223h-1v1h-1v1"/><path class="s5" d="M3047 6223h1v1 1l-1 1h-1-1v-1"/><path class="s5" d="M3045 6226v-1h-1v-1h1v-1h1 1"/><path class="s5" d="M3040 6260l-1 1h-1v1 1"/><path class="s5" d="M3039 6260h1v1 1 1h-1l-1 1v-1h-1"/><path class="s5" d="M3038 6263h-1v-1-1h1v-1h1 1"/><path class="s5" d="M3038 6263l-1-1"/><path class="s5" d="M3021 6225h-1v-1h1v-1h1"/><path class="s5" d="M3022 6222l1 1v1 1l-1 1h-1-1v-1-1-1l1-1h1v1h1"/><path class="s5" d="M3015 6260h-1v1h-1v1"/><path class="s5" d="M3013 6263v-1h-1"/><path class="s5" d="M3014 6260h1 1v1 1l-1 1h-1-1l-1-1v-1h1v-1h1 1"/><path class="s5" d="M3173 5661l-13 73-3 2-10 9-59 56"/><path class="s5" d="M3132 5565l-44 236"/><path class="s5" d="M3160 5734l7 2 10 3 9 5 7 5 7 7 5 6 5 8 2 5 3 10 2 6v7l1 9-2 10-3 23-2 8-4 11-4 9-3 6-6 7-7 9-6 6-9 7-10 7-4 1-8 4-8 3-11 2-5 1"/><path class="s5" d="M3126 5921l-7-9-41-54"/><path class="s5" d="M3088 5801l55 2h4l3 2 3 3 2 3 1 4v5l-4 23-1 4-2 3-3 4-4 3-4 1-4 1h-1l-55-1"/><path class="s5" d="M3078 5858l-67 354"/><path class="s5" d="M2999 6275l63-1 4-2 2-1 1-1 3-3 3-3 2-3 1-5 5-25v-2-4l-1-2-1-3-2-3-2-2-3-1-3-1h-2l-58-1"/><path class="s5" d="M3126 5921l-38 215-2 2-75 74"/><path class="s5" d="M3007 6252l4-19"/><path class="s5" d="M3073 6234l-62-1"/><path class="s5" d="M3069 6253l4-19"/><path class="s5" d="M3011 6233l62 1"/><path class="s5" d="M3007 6252l4-19"/><path class="s5" d="M3069 6253l-62-1"/><path class="s5" d="M2974 6620v-1h-1l-1 1-1 1"/><path class="s5" d="M2971 6622v-1-1"/><path class="s5" d="M2971 6621v1h1 1l1-1v-1-1h-1-1l-1 1v1 1"/><path class="s5" d="M2967 6647h-1-1l-1 1"/><path class="s5" d="M2964 6649v-1"/><path class="s6" d="M2967 6648v-1l-1-1h-1l-1 1v1 1 1h1 1v-1h1z"/><path class="s5" d="M2952 6589h19"/><path class="s5" d="M2953 6658l18-70"/><path class="s5" d="M2952 6588h19"/><path class="s5" d="M2934 6657l18-68"/><path class="s5" d="M2953 6658l-20-1"/><path class="s5" d="M2952 6588l-19 69"/><path class="s5" d="M2936 6619h-1-1l-1 1"/><path class="s5" d="M2933 6621v-1h-1"/><path class="s5" d="M2932 6620v1h1l1 1v-1h1l1-1v-1-1h-1-1-1v1l-1 1 1 1"/><path class="s5" d="M3160 6665l-186-3"/><path class="s5" d="M3017 6491l4 1 7 3 7 5 6 5 5 5 3 5 3 4 4 8 3 6 2 8v2l2 8v8l1 9-9 11-7 8-6 6-33 35-35 34"/><path class="s5" d="M3047 6347l-5-8-27-42-16-23"/><path class="s5" d="M2999 6274l-27 126-43 178"/><path class="s5" d="M3047 6347l-30 144-9 8-50 50-29 29"/><path class="s5" d="M2974 6662l17-64 1-4-1-4-1-3-1-3-3-2-3-2-3-1-3-1h-48"/><path class="s5" d="M2928 6646h-1-1v1l-1 1"/><path class="s5" d="M2925 6648v-1"/><path class="s5" d="M2925 6648v1h1 1l1-1v-1l1-1h-1v-1h-1-1v1h-1v1 1 1"/><path class="s5" d="M4487 6709l1-1 169-1153-8-20-1-3v-1l5-29"/><path class="s5" d="M2866 6692l1622 16"/><path class="s5" d="M2867 6693l-1-1 40-141 42-177 165-852"/><path class="s5" d="M3893 5474l-1 2v1 1"/><path class="s5" d="M3882 5477v-4-2-1h-1"/><path class="s5" d="M3925 5471l-1 1-1 2v5"/><path class="s5" d="M3925 5471h1v1"/><path class="s5" d="M3904 5474l-1-8"/><path class="s5" d="M3904 5475h1"/><path class="s5" d="M3905 5474v1l1 1v1l1 1"/><path class="s5" d="M3903 5466l1-12 1-8v-2h1"/><path class="s5" d="M3928 5473l-1-5-19-15-1-1v-2l-1-6"/><path class="s5" d="M3906 5444l-12-1"/><path class="s5" d="M3894 5476v-1l-1-1-1-9v-11l1-2 1-6v-2-1"/><path class="s5" d="M3880 5471l1-4 11-12"/><path class="s5" d="M3296 5429l-1 1"/><path class="s5" d="M3292 5466l1-4v-1l1-1"/><path class="s5" d="M3288 5467h2l1-1"/><path class="s5" d="M3290 5465v2"/><path class="s5" d="M3293 5461l-3-4"/><path class="s5" d="M3290 5464l1 2v1"/><path class="s5" d="M3296 5426l-5 30 2 5"/><path class="s5" d="M3280 5464l3-14 1-4 3-16 1-2v-2l1-1 8 1 3 6 2 2 21 16 1 3"/><path class="s5" d="M3284 5454l-1-4"/><path class="s5" d="M6990 3999l60 2"/><path class="s5" d="M4642 5486l-5-2-5-3-3-3-3-5-1-5-1-4-3-3-4-2-4-1-4 1-3 2-3 3-1 3-1 5-3 5-3 3-5 3-4 1-6 1-21-1"/><path class="s5" d="M4528 5560l12 1"/><path class="s5" d="M4505 5532l-597-19"/><path class="s5" d="M2953 5186l6 1 29 7 5 6"/><path class="s5" d="M2953 5186l6 1 29 7 5 6"/><g><path class="s8" d="M3833 2065H3616c-9 0-17-3-25-7-7-4-14-11-18-18-4-7-7-16-7-25V1798c0-9 3-18 7-25 4-7 11-14 18-18 7-4 16-7 25-7h217c9 0 18 2 25 7 7 4 14 11 18 18 4 7 7 16 7 25v217c0 9-2 17-7 25-4 7-11 14-18 18-7 4-16 7-25 7" fill-rule="evenodd"/></g><text x="3661" y="1970"><tspan class="f3 s9" font-size="179.167">A</tspan></text><path class="s10" d="M3616 1798h217v217H3616z"/><path class="s11" d="M3616 1798h217v217H3616z"/><g><path class="s8" d="M4440 7635v283c0 9-2 17-7 25-4 7-11 14-18 18-8 5-16 7-25 7H4107c-9 0-17-3-25-7-7-4-14-11-18-18-5-8-7-16-7-25V7635c0-9 3-18 7-25 4-7 11-14 18-18 8-5 16-7 25-7h283c9 0 18 2 25 7 7 4 14 11 18 18 5 8 7 16 7 25" fill-rule="evenodd"/></g><path class="s11" d="M4107 7635h283v283H4107z"/><text x="4175" y="7852"><tspan class="f3 s9" font-size="206.944">A</tspan></text><g><path class="s8" d="M5388 2913H5171c-9 0-17-3-25-7-7-4-14-11-18-18-4-7-7-16-7-25V2646c0-9 3-18 7-25 4-7 11-14 18-18 7-4 16-7 25-7h217c9 0 18 2 25 7 7 4 14 11 18 18 4 7 7 16 7 25v217c0 9-2 17-7 25-4 7-11 14-18 18-7 4-16 7-25 7" fill-rule="evenodd"/></g><text x="5214" y="2819"><tspan class="f3 s9" font-size="179.167">B</tspan></text><path class="s10" d="M5171 2646h217v217H5171z"/><path class="s11" d="M5171 2646h217v217H5171z"/><g><path class="s8" d="M1947 6823c0 9-2 17-7 25-4 7-11 14-18 18-7 4-16 7-25 7H1677c-7 0-14 2-20 5-6 4-11 9-14 15-4 5-6 12-6 20 1 24-19 45-42 49-15 3-32-2-43-13l-190-185c-7-6-11-14-14-23-2-8-2-18 0-26 3-9 7-17 14-23l190-185c11-11 28-16 43-13 23 4 43 25 42 49 0 8 2 14 5 20 4 6 9 11 15 14 6 4 13 6 20 6h220c9 0 18 2 25 7 7 4 14 11 18 18 4 7 7 16 7 25v190" fill-rule="evenodd"/></g><path class="s12" d="M1897 6633H1587v-90l-190 185 190 185v-90h310z"/><text x="1526" y="6771"><tspan class="f3 s9" font-size="123.611">FWD</tspan></text><path class="s13" d="M3955 1073l-5 153 59-10z"/><path class="s5" d="M4021 1472l-66-399"/><path class="s5" d="M2499 4009l-19 14-60 6-19 14"/><path class="s13" d="M2450 4026l17-152-60 5z"/><path class="s5" d="M2327 2622l123 1404"/><path class="s5" d="M3958 4180l-19 14-60 2-19 14"/><path class="s13" d="M3909 4195l23-151-60 3z"/><path class="s5" d="M3855 3018l54 1177"/><path class="s5" d="M6078 4296l-23 7-58-18-23 7"/><path class="s13" d="M6026 4294l72-135-57-17z"/><path class="s5" d="M6435 2951 6026 4294"/><path class="s5" d="M2514 5e3l23-6 58 18 23-6"/><path class="s13" d="M2566 5003l-75 133 57 19z"/><path class="s5" d="M2245 5990l321-987"/><path class="s5" d="M5711 5217l17-16 60-10 17-16"/><path class="s13" d="M5758 5196l-6 153 59-9z"/><path class="s5" d="M5961 6495 5758 5196"/><path class="s5" d="M6254 5228l13-20 54-24 13-20"/><path class="s13" d="M6294 5196l33 149 55-24z"/><path class="s5" d="M6697 6108l-403-912"/><path class="s13" d="M5149 3873l49-145-59-8z"/><path class="s5" d="M5279 2883l-130 990"/><path class="s5" d="M5281 5488l23-8 58 14 23-8"/><path class="s13" d="M5333 5487l-64 139 58 14z"/><path class="s5" d="M5165 6182l168-695"/><path class="s13" d="M4492 6706l132 77 20-56z"/><path class="s5" d="M5167 6939l-675-233"/><text x="2757" y="7566"><tspan class="f3 s9" font-size="123.611">LEFT MID UNDERWING WING-TO-BODY FAIRINGS</tspan></text><text x="3616" y="1602"><tspan class="f2 s9" font-size="123.611">LEFT MID UNDERWING</tspan></text><text x="3616" y="1727"><tspan class="f2 s9" font-size="123.611">WING-TO-BODY FAIRINGS</tspan></text><text x="3683" y="2845"><tspan class="f2 s9" font-size="123.611">ACCESS PANEL,</tspan></text><text x="3683" y="2970"><tspan class="f2 s9" font-size="115.5">195EL</tspan></text><text x="6238" y="2790"><tspan class="f2 s9" font-size="123.611">ACCESS PANEL,</tspan></text><text x="6238" y="2915"><tspan class="f2 s9" font-size="112.879">195GL</tspan></text><text x="2136" y="2456"><tspan class="f2 s9" font-size="123.611">ACCESS PANEL,</tspan></text><text x="2136" y="2580"><tspan class="f2 s9" font-size="114.248">195BL</tspan></text><text x="1490" y="6113"><tspan class="f2 s9" font-size="123.611">ACCESS PANEL,</tspan></text><text x="1490" y="6238"><tspan class="f2 s9" font-size="110.072">195AL</tspan></text><text x="6579" y="6232"><tspan class="f2 s9" font-size="123.611">ACCESS DOOR,</tspan></text><text x="6579" y="6357"><tspan class="f2 s9" font-size="110.164">195ML</tspan></text><text x="5773" y="6624"><tspan class="f2 s9" font-size="123.611">ACCESS PANEL,</tspan></text><text x="5773" y="6749"><tspan class="f2 s9" font-size="111.234">195KL</tspan></text><text x="4844" y="6312"><tspan class="f2 s9" font-size="123.611">ACCESS PANEL,</tspan></text><text x="4844" y="6436"><tspan class="f2 s9" font-size="123.611">195JL</tspan></text><text x="5185" y="7005"><tspan class="f2 s9" font-size="123.611">ACCESS DOOR,</tspan></text><text x="5185" y="7129"><tspan class="f2 s9" font-size="111.62">195CL</tspan></text></svg>