<svg xmlns="http://www.w3.org/2000/svg" height="10in" viewBox="0 0 7777 10005" width="7.78in"><defs><style>.f1{font-family:Consolas,Courier New,monospace}.f2{font-family:Helvetica,Arial,sans-serif}.f3{font-family:Helvetica,Arial,sans-serif;font-weight:700}.f4{font-family:Times}.f5{font-family:Times;font-weight:700}.f6{font-family:Courier}.f7{font-family:Courier;font-weight:700}.f8{font-family:Symbol}.s7{fill:none;stroke:#000;stroke-width:8}.s8{fill:#fff}.s13{fill:none;stroke:#000;stroke-dasharray:120,40;stroke-width:20}.s5{fill:none;stroke:#f0f;stroke-dasharray:40,20;stroke-width:16}.s1{fill:#ffc}.s12{fill:none;stroke:#fff;stroke-width:70}.s10{fill:#000}.s11{fill:none;stroke:#00f;stroke-width:20}.s3{fill:#cff}.s2{fill:#ccc}.s14{fill:#000;stroke:#000;stroke-width:8}.s9{fill:none;stroke:#00f;stroke-width:12}.s4{fill:none;stroke:#000;stroke-width:16}.s6{fill:none;stroke:#000;stroke-width:10.005}</style></defs><g><path class="s1" d="M3277 1505l6-1 36-7 121-18 169-21 136-18 186-25 264-35 228-29 274-37 170-23c31-4 62-8 93-11 33-4 66-7 99-10 25-2 50-4 75-5 18-2 35-3 53-5 15-3 31-6 45-11 40-13 75-36 108-62 23-19 44-40 63-62 14-16 26-33 39-49l190-255 1e2-133 231-306 124-168c7-9 14-19 22-27 5-6 10-11 15-17 7-6 14-13 21-18 11-9 23-17 35-25 18-10 36-19 54-28 21-9 41-18 62-27 30-11 60-22 89-33 18-7 36-14 54-20 9-3 18-6 27-9l-27 69-55 159-54 163-77 249-176 555 31 75 291 34 145 17c2 0 4 0 5 1 4 2 6 8 8 14 1 4 3 7 3 11 0 4-1 8 1 11h13l459-28 6 1-8 3-512 60-57 22c-48 18-95 35-142 53-71 28-143 57-216 84-67 25-135 47-204 69-38 12-76 24-114 35-63 18-126 36-189 53-125 34-251 68-377 97-80 19-161 36-243 52l-36 5-427 6-5 4v8l-28 16v12l-20 9v10l12 5h21l2 10c9-1 17-2 26-2 9 0 17 2 25 7 9 6 16 15 19 25 4 11 3 23 1 35-2 10-5 20-12 27-6 6-16 9-26 11-9 1-17 1-25-2-7-2-13-7-19-11l-9 8c-6 3-13 5-20 7-12 2-24 1-34-4-7-4-13-11-18-18l-9 12c-6 2-11 3-17 4-10 1-21 2-30-2-9-3-16-12-22-20-6-8-9-15-7-29 1-14 9-34 2-30l-45 1-21-3 9 32 9 17-21 23-106-9-13-3-12 4-58 10-101-11 3-18 9-3 9-12c3-5 6-10 7-15 2-4 3-9 3-14 1-7 2-15 4-24 3-18 12-44 1-50l-145 1-1 19h-2v1h-6l-2-4-2-1-4 5v11l4 4 8-1 6 1 4 5-1 4 1 2 20-1-2 6 1 5 6 6c1-1 3-2 5-3 6-3 13-4 19-5 7 0 14-1 21 1 4 1 9 2 13 5 6 4 12 9 15 15 3 6 5 12 7 18 2 8 3 16 2 24 0 8-2 15-5 22-1 5-3 10-6 15-3 4-6 9-11 12-5 4-11 7-18 8-7 2-14 1-21 1-6 0-12 0-16-2-4-2-7-4-10-7-5-6-8-12-10-18l-4 8c-2 3-4 6-6 9-2 3-6 7-10 9-6 4-13 5-21 6-7 0-14 0-21-2-6-1-11-3-16-6-4-3-8-8-11-13l-5 5c-2 2-4 4-6 5-4 2-8 4-12 4-4 0-7 0-12 0h-20c-4-1-7-2-10-4-6-3-11-8-15-15-4-7-6-16-8-24-1-9-1-18 0-27 1-8 3-16 6-23 2-6 5-11 10-16 3-3 7-7 12-8 3-1 6-1 10-1 8 0 17-2 25 0 4 0 8 1 11 3 6 3 10 8 14 14l4-2c1-3 3-6 6-8 1 0 2-1 4-1l-1-17-8-7-15 6-1-4 10-10-18-30-50-1-28-5-165 2-219 1-18 20-23 19-29 15 2 5c2 3 3 6 5 8 2 5 3 10 3 14 0 5 0 9-1 13-1 4-2 8-3 11-1 3-3 5-5 7-2 3-5 4-8 5-4 2-8 1-12 1-2 0-5 0-8-1-2 0-5-1-7-3-2-1-3-3-4-6l-2 3-5 3-9 4c-3 1-7 2-11 2-5 0-9-2-13-5-3-2-5-5-7-8-1-4-2-9-1-14 0-4 1-9 0-10l-60 6c-20 0-39 0-59-2-15-1-29-3-44-7-24-7-47-18-66-33-15-12-27-26-36-43-12-21-17-46-18-70-1-23 3-46 12-67 9-20 23-38 40-53 16-15 35-27 55-35 18-8 37-13 56-15 10-2 20-2 30-3l10-21 13-19 20-27-166-65-577-225-410-156-106-45c-34-16-67-32-99-50-28-16-55-34-80-56-30-25-56-55-78-87-4-6-8-12-12-18-2-4-3-7-5-11-1-2-1-5-1-9 0-3 1-7 2-11 2-3 4-6 6-9 2-3 4-5 6-6 2-1 3-2 5-2 2 0 5 1 6 2 2 2 2 4 3 6 0 2 1 4 1 6 1 3 3 5 5 8 17 21 37 39 57 57 24 20 47 40 73 57 22 16 47 29 72 41 76 36 156 62 236 90l471 156 242 79 151 49 17 4 15 6 25 8 276 89 20 7h2c2 0 3 0 4 0 2 0 4 1 6 1 2 1 3 1 3 2l5 1 7-2" fill-rule="evenodd"/></g><g><path class="s2" d="M4836 1629c3 19 6 38 10 56 3 15 7 29 12 42 5 13 11 26 17 38 5 9 10 18 16 28 4 5 8 11 15 14 3 1 8 1 12 1l179 6 186-27 24-21 18-27-3-101-16-2-163-12-116 7-103-7-88 5" fill-rule="evenodd"/></g><path class="s1" d="M7499 3264l-22-58-638-507-672-1-4701 2-283 204-162 675V6524l48 70 517 527H5779l321-67 534-224 501-369 352-336z"/><path class="s3" d="M5779 7121l-130-667-97-422-54-183-8-14-34-3-11-23-92-6-214-10-207-12-240-11-236-12-193-10-252-14-163-7-249-13-178-9-194-11-215-10-161-10-123-5-67-4-6 6-75 32-93 42-266 118-145 64-138 62 14 127 89 5-2 11-970 462 517 527z"/><path class="s4" d="M6523 1406l28-3 334-38 33-4 53-6 54-8 43-6"/><path class="s4" d="M7068 1341l-216 10-10 1h-1l-146 10-124 8"/><path class="s5" d="M4846 1680l-4-19-6-32 27-2 76-2 85 6 121-8 176 14 4 98-5 10-6 10-6 8-6 7-7 8-9 7-3 2-183 26-151-3m-29 0m-10-1m-10-7m-7-7m-29-41"/><path class="s5" d="M4967 1801l47-6 17 1 117-15 97 4"/><path class="s5" d="M5027 1639l2 142"/><path class="s5" d="M5143 1627l5 150"/><path class="s5" d="M5013 1793l-16-18-17-26-15-35-14-38-8-31-5-18"/><path class="s6" d="M3278 1505c14-3 28-6 41-9 29-5 58-9 88-13 81-11 163-21 245-32 177-23 353-46 529-70"/><path class="s6" d="M4181 1381l392-51 236-32"/><path class="s6" d="M4809 1298c64-8 128-17 193-23 64-6 128-11 192-15 50-3 1e2-6 150-8 69-3 138-2 207-2 7 0 14 0 22 0 1 0 3 0 4 0 23 0 45 1 68 1"/><path class="s6" d="M5180 1261c17-4 34-7 50-12 46-14 87-42 123-75 33-29 61-61 87-96"/><path class="s6" d="M5440 1078l662-884"/><path class="s6" d="M6102 194c9-10 17-20 27-29 14-14 30-25 47-36 43-26 90-46 137-63 39-15 78-28 117-44"/><path class="s6" d="M6430 22l36-12-39 103"/><path class="s6" d="M6427 113c-15 41-29 82-43 124-19 55-36 110-54 165-26 82-51 165-77 248-40 129-80 257-122 386-17 53-34 106-50 158"/><g><path class="s7" d="M6184 1376l-242 48h-23l-7 5-82 19c-40 9-81 17-122 23-43 5-86 7-129 6-23 0-45-1-67-4-14-2-28-4-41-10-6-3-11-6-16-11-2-2-4-5-5-8-1-2 0-5 1-8 2-3 5-5 8-7 6-2 11-3 17-3 9-1 19-2 29-3 5 0 10-1 15-2l13-2 8-1 3-1 2-2 146-209c19-29 38-56 59-83 7-9 14-17 23-23 7-5 16-8 24-10 30-9 61-14 91-20l141-21v24c1 7 1 14 2 21 2 13 7 27 12 40l97 211c4 6 7 13 12 18 5 5 13 9 20 11 3 1 7 2 11 2" fill-rule="evenodd"/></g><path class="s6" d="M6126 1281l417 50"/><ellipse class="s7" cx="6548" cy="1361" rx="30" ry="12" transform="rotate(82.76485294996706 6548.0,1361.0)"/><path class="s6" d="M6550 1393c-81 31-162 62-242 92-131 50-261 101-395 144-53 17-107 33-161 48-179 51-359 96-539 142"/><path class="s6" d="M5213 1819l-213 46"/><path class="s6" d="M5e3 1865c-15 3-30 6-45 8-34 5-69 4-104 3"/><path class="s6" d="M4851 1876l-372 4"/><path class="s6" d="M4479 1880c-19 4-38 7-56 10-92 11-185 0-279 0-9 1-17 1-26 0-18-3-35-11-52-21-32-19-60-41-88-64"/><path class="s6" d="M3978 1805l-8-22 46-16"/><path class="s6" d="M4016 1767c7-2 15-4 22-5 11-2 21-1 30-4 4-1 8-3 12-4"/><path class="s6" d="M6306 1485c-2-1-5-2-8-3-2 0-4-1-6-1 0 0 0-1-1-1-6-1-9-9-12-16-2-6-4-11-7-16-3-4-6-7-10-9-2-1-5-2-7-2-4-1-8 0-11 1"/><path class="s6" d="M6244 1438l-204 74"/><path class="s6" d="M6040 1512c-3 1-6 2-8 4-3 2-5 4-6 7-1 3-1 7 0 10 1 7 5 12 10 17 3 3 6 6 9 9 5 4 10 7 16 9 3 2 6 3 9 3 3 1 6 1 10 1"/><g><path class="s7" d="M5098 1365l-75 6c-4 0-6 0-9 1-3 1-6 3-9 5-4 3-6 8-7 13l-9 39c-1 13-3 26-4 39-2 15-2 30-2 46 0 17 1 34 2 50v7c1 1 1 3 2 5 1 3 4 6 7 7 3 2 6 2 10 2l88-4c2-1 4-1 6-2 4-2 6-5 8-8 1-5 0-10-1-14-2-13-2-26-2-38-1-18-1-36 0-54 0-17 3-33 5-50 1-8 2-17 5-26l3-12c0-2 0-3 1-5 0-2-1-4-2-5 0-1-1-1-2-2-1 0-3 0-5-1-3 0-6 1-10 1" fill-rule="evenodd"/></g><g><path class="s7" d="M4263 1454l-49 5c-2 0-4 1-7 1-2 1-4 2-6 4-3 2-5 5-7 9-4 9-8 19-11 29-8 22-12 47-13 72-1 14-1 29-1 43l1 11c0 4 1 7 2 9 2 2 4 3 7 3l59-4c2 0 4-1 4-2 1-1 1-2 2-3 1 0 1 0 1 0 0 0 0 0 0 0 0-1 0-1 0-2 1-1 0-3 0-5-1-6-1-13 0-21 0-14 0-31 2-51 3-18 7-38 14-61 2-7 5-15 9-24 0-1 1-3 2-5 0-1 1-2 1-3 0-1 0-3 0-3-1-1-2-2-4-2-1 0-3 0-6 0" fill-rule="evenodd"/></g><path class="s6" d="M4080 1753l-396-114-370-116"/><path class="s6" d="M3233 1497l-77-24-209-69"/><path class="s6" d="M2889 1386l-303-98-633-210"/><path class="s6" d="M1953 1078c-34-13-69-25-103-39-51-22-101-47-146-80-40-29-75-65-109-101"/><path class="s6" d="M1595 858l-5-7-2-7"/><path class="s6" d="M1588 844c-1-2-2-3-3-5-2-1-4-1-6-1-3 0-5 2-7 4-3 3-6 7-8 11-1 4-3 8-3 12 0 4 1 7 2 11 2 3 4 7 6 11 6 11 13 20 20 29 15 20 30 39 48 56 23 22 49 41 76 59 22 13 44 26 67 37 76 39 155 71 235 1e2"/><path class="s6" d="M2015 1168l583 225 627 247"/><path class="s6" d="M3077 1651c5-3 10-6 16-8 10-3 22-4 33-3"/><path class="s6" d="M3126 1640l90 4 8-4 8 2"/><path class="s6" d="M3232 1642c10 3 19 6 29 9 9 2 18 4 27 6 20 3 40 3 59 3 20 0 39-1 58-2 20-2 39-5 58-9 17-4 33-9 49-15"/><path class="s6" d="M3512 1634l-17 15"/><path class="s6" d="M3495 1649c-12 8-23 17-35 25-13 9-26 17-38 27-20 15-37 34-52 54-5 7-11 15-17 23"/><path class="s6" d="M3353 1778l-44 2"/><path class="s6" d="M3309 1780c-13 1-25 1-38 0-19-1-38-7-55-15-8-3-15-7-23-11"/><path class="s6" d="M4246 1899l7 7v39"/><path class="s6" d="M4253 1945c1 11 2 22 4 32 2 10 5 21 9 30 3 4 5 8 7 11"/><path class="s6" d="M4273 2018l-6 9-10 10-5 4-105-8"/><path class="s6" d="M4179 1895l8 13-2 31"/><path class="s6" d="M4185 1939c-1 8-1 15-2 23 0 9-2 18-5 27-3 11-9 21-14 31"/><path class="s6" d="M4164 2020l-15 7"/><path class="s6" d="M4149 2027c-11 3-22 6-33 9-17 4-36 6-54 8"/><path class="s6" d="M4062 2044l-90-10"/><path class="s6" d="M4019 1849h-20v68"/><path class="s6" d="M3999 1917c-1 13-1 26-3 39-1 14-4 28-11 40-3 6-7 11-11 16"/><path class="s6" d="M4093 1889l-1 12-8 46-10 1v-5l1-48v-7-1l-2-7"/><path class="s6" d="M4403 1967c-2-3-4-6-6-8-3-3-6-5-10-6-3-2-7-3-12-4-7-1-15-1-22 0-3 0-6 1-9 2-5 2-10 6-13 11-6 6-10 15-12 23-2 10-2 19 0 29 2 8 5 17 10 25 4 5 8 9 13 11 5 3 10 3 15 4"/><path class="s6" d="M4357 2054h20"/><path class="s6" d="M4377 2054c3-1 6-1 9-2 5-2 9-5 13-9 1-2 3-4 5-6"/><ellipse class="s7" cx="4353" cy="2e3" rx="27" ry="18" transform="rotate(90.0 4353.0,2000.0)"/><path class="s6" d="M4458 1952c-6-1-12-2-18-1-4 0-7 1-10 2-5 1-10 4-14 7-5 4-9 9-11 14-3 6-5 12-6 18-1 9-1 19 2 29 1 6 3 12 6 18 3 5 8 11 13 14 4 3 9 4 14 5 2 0 5 1 7 1 6 0 12 0 18-1 2 0 4 0 6-1 6-1 11-6 16-11 1-1 1-1 2-2 7-8 11-20 12-32 1-10 0-21-3-30-3-7-6-14-11-20-4-4-9-7-14-9-3-1-6-1-9-1"/><ellipse class="s7" cx="4435" cy="2003" rx="27" ry="19" transform="rotate(83.33576787470318 4435.0,2003.0)"/><path class="s6" d="M4486 1964c2-2 4-4 6-6 5-4 11-4 17-5 9-2 18-2 27 0 6 2 12 5 16 9 7 7 12 15 15 24 2 9 2 18 1 28-1 7-3 14-6 20-3 6-7 12-12 16-5 4-12 7-19 7"/><path class="s6" d="M4531 2057h-23"/><path class="s6" d="M4508 2057c-3 0-7-1-10-3-5-3-8-6-11-9"/><g><path class="s7" d="M4509 2030a27 19 83.33576787470318 0 1-10-5m-3-46m0 0a27 19 83.33576787470318 1 1 13 51" fill-rule="evenodd"/></g><path class="s6" d="M4490 1951l4-10h-18l-3 7"/><path class="s6" d="M4473 1943l-35-11-5 2-1 5 4 4"/><path class="s6" d="M4446 1890l2 18 3 5-1 5 1 12"/><path class="s6" d="M4423 1947l-2-26-5-2-10 3-3-3-1-16 9-2 3-2 7-1h11"/><path class="s6" d="M4433 1916l-9-1-5 1"/><path class="s6" d="M4418 1892v6"/><path class="s6" d="M4350 1903c3 6 6 13 10 19 5 8 12 15 19 21"/><path class="s6" d="M4509 1885l1 6-29 16v13l-20 10"/><path class="s6" d="M4317 1973c-9 0-20 0-30 0-9-1-17-1-26-2"/><path class="s7" d="M3729 1775l43-13 2 10 49-8 33 96 11 3 6 20-97 45-55-121z"/><path class="s6" d="M3970 1790l-4 4-1 3-23 21-5 2-17 16-6 2-5-4-1-5 14-12v-7l34-25h3l8-10 5-4h5l4 3"/><path class="s6" d="M3914 1839l-7 5-3 5-30 25"/><path class="s6" d="M3907 1831l-7 6-4 2-27 20"/><path class="s6" d="M3778 1967c-3-3-6-6-8-8-3-2-5-4-8-5-3-1-7-1-10-1"/><path class="s6" d="M3752 1953h-24"/><path class="s6" d="M3728 1953c-4 0-7 1-10 2-8 3-15 11-19 19-5 9-7 18-8 29-1 9-1 20 1 29 1 7 4 14 7 20 4 6 8 11 13 15 4 2 8 4 13 4"/><path class="s6" d="M3725 2071h29"/><path class="s6" d="M3754 2071c5 0 10-2 14-4 4-3 7-6 11-10"/><ellipse class="s7" cx="3804" cy="2015" rx="32" ry="21" transform="rotate(90.0 3804.0,2015.0)"/><ellipse class="s7" cx="3725" cy="2013" rx="32" ry="21" transform="rotate(90.0 3725.0,2013.0)"/><g><path class="s7" d="M3729 2024a12 8 84.3450337629899 1 1 1-24m2 23m0 0a12 8 84.3450337629899 0 1-3 1" fill-rule="evenodd"/></g><g><path class="s7" d="M3806 2028a12 8 84.3450337629899 1 1 1-24m2 23m0 0a12 8 84.3450337629899 0 1-3 1" fill-rule="evenodd"/></g><path class="s6" d="M3849 1962c-3-3-6-5-9-6-4-1-7-1-11-2-10 0-19-1-27 2-5 1-9 3-13 6-7 5-12 13-15 22-3 8-5 16-5 25 0 8 0 15 2 23 1 8 4 16 7 23 4 7 10 14 17 18 5 2 9 3 14 4 10 1 20 1 30-2 2 0 5-1 8-3 7-3 12-10 16-17 6-11 8-24 9-37 0-11-1-21-5-32-2-6-5-12-10-17-2-2-5-5-8-7"/><path class="s6" d="M3870 1977c2-4 4-7 7-10 4-5 9-9 14-11 5-2 11-3 17-3 7-1 14-2 21 0 3 0 7 2 10 3 8 5 15 13 20 22 5 11 6 22 6 34 0 9-2 19-6 28-2 7-5 14-10 19-4 5-10 9-17 11-3 1-6 2-8 2-10 2-20 1-29 0-3 0-5 0-8-1-5-2-9-6-12-11-2-4-3-7-5-9"/><g><path class="s7" d="M3889 1985m0 0a29 18 90 1 1 7 56" fill-rule="evenodd"/></g><path class="s6" d="M3876 1992l2-4h8l4 6 7-1 4 8 1 12v11l-6 8-5 2h-5l-3 2-4-6-2 1"/><path class="s6" d="M3880 2e3l5 6v11l-1 3h-5"/><path class="s6" d="M3853 1958l1-5-1-4-3-1h-3l-5-3-21-11"/><path class="s6" d="M3821 1934c-2 0-3 0-5 0-2 1-3 4-3 7-1 3 0 5 1 6 2 2 4 2 6 3"/><path class="s6" d="M3877 1956c0-2 1-3 0-4 0-1 0-2-1-3"/><path class="s6" d="M3876 1949l2-6-20 1-4 5"/><path class="s6" d="M3853 1899l-1 19-9-1v-4h-5l-2 5v12l4 2h8l6 1 4 5-2 4"/><path class="s6" d="M3792 1953v-11l6-2h5l2 6"/><path class="s6" d="M3833 1906l-18 17-47 19-1-4 11-10"/><path class="s6" d="M3196 1691c-8-4-16-9-24-13-16-7-34-12-51-15-10-2-19-3-29-4"/><path class="s6" d="M3092 1659l-35-3"/><path class="s6" d="M3057 1656c-13 0-26 1-39 3-27 4-53 13-76 26-19 12-35 26-49 44-13 16-23 34-28 54-5 16-6 32-5 49 1 17 5 35 11 51 9 20 22 37 37 52 27 23 61 37 96 43 29 6 59 5 89 4 23-1 46-3 68-9 19-5 37-13 55-20"/><path class="s6" d="M3196 1694l-6 1-2 3-22-1-5 2-3 3-1 2 2 8-27 6-5 3-3 5v4l4 10-24 10-5 5-2 5 3 5 6 10v3l-18 12-4 5v6l3 7 10 9v4l-13 12-2 4v5l1 4 9 8 9 6 1 4-7 10-1 5 3 6 1 3 5 3 17 8 2 4-1 1-4 8v5l5 4 5 2 23 5-2 7 3 5 5 3h5l13 2 18 2 4 2 8-1h12v3"/><path class="s6" d="M3317 1795l8 14v3l-1 6-6 8v8l3 12 2 7-9 8"/><path class="s6" d="M3306 1882v12l-2 3-9 4"/><path class="s6" d="M3283 1914l-2 7-7 6"/><path class="s6" d="M3312 1785c2 7 4 14 4 22 1 11 0 22-2 34-3 14-6 28-12 41-6 12-13 22-22 32-8 8-16 15-26 21-11 7-24 13-37 18"/><path class="s6" d="M3230 1953c2 3 5 7 6 11 3 8 3 15 2 23-1 6-3 11-6 16-2 3-5 7-8 8-3 1-5 1-8 2"/><path class="s6" d="M3216 2013l-14-1"/><path class="s6" d="M3202 2012c-2 0-4-1-6-2-2-1-4-3-5-6"/><path class="s6" d="M3193 1967c1 2 2 4 2 7 1 7 0 14-2 20-1 5-2 9-5 12-2 1-4 3-7 4-3 2-7 3-10 3-5 1-10 0-15-1-3-1-6-3-8-6-4-4-5-11-6-17 0-2 0-5 0-7"/><g><path class="s7" d="M3206 1962m0 0a18 10 92.04280838998746 0 1-6 35" fill-rule="evenodd"/></g><g><path class="s7" d="M3157 1999a18 10 92.04280838998746 0 1-10-16m20-8m0 0a18 10 92.04280838998746 0 1-10 24" fill-rule="evenodd"/></g><path class="s6" d="M3202 1975h-5"/><path class="s6" d="M3203 1975l2 3v3l-2 3h-4"/><g><path class="s7" d="M2870 1393c5-1 10-2 14-3 8-1 16 0 24 1 9 2 17 5 25 10 7 4 13 9 20 14l3 5v2l-1 2-36 7c-6 1-13 2-19 4-13 3-25 5-37 7-16 3-32 4-48 2-7 0-14-1-20-4-4-2-7-4-9-6l5-5 36-20c10-5 19-9 30-13 4-1 8-2 13-3" fill-rule="evenodd"/></g><path class="s6" d="M3120 1542c25-11 50-21 76-31 7-3 14-5 22-7 7-1 15-1 23-1 7 0 15 0 22 2"/><path class="s6" d="M3263 1505l31 11 15 10 2 5-2 5"/><path class="s6" d="M3309 1536c-7 3-14 6-21 9-14 6-29 10-43 13-27 5-56 8-83 5-15-2-30-5-45-8"/><path class="s6" d="M3117 1555l-5-2-3-5 4-4 9-4"/><path class="s6" d="M3234 1520l-1 15 1 8 3 4 3 1"/><path class="s6" d="M2885 1401v12l2 6 3 4 3 4"/><path class="s6" d="M3423 1712l149 67"/><path class="s6" d="M3572 1779c17 6 34 11 51 16 17 5 35 8 53 10 12 1 24 1 36 1"/><path class="s6" d="M3745 1897l-37-1-24-5-362 3"/><path class="s6" d="M3194 1695l2 33-9 18"/><path class="s6" d="M3187 1746c-7 6-15 12-21 19-13 14-21 32-23 50-1 18 2 35 11 51 7 11 16 21 28 27 11 6 25 7 37 4 8-1 16-5 23-9"/><path class="s6" d="M3288 1849c-2 2-4 5-6 8-8 12-19 23-33 27-11 3-24 3-35-2-13-5-24-15-31-27-6-12-9-26-7-40 2-15 8-30 18-39 4-3 8-6 12-9"/><path class="s6" d="M3260 1784l48 35 1 2v4l-2 1-60 40"/><path class="s6" d="M3247 1866c-2 1-4 2-5 2-5 1-11 1-17 0-6-2-12-5-16-10-6-5-10-11-12-18-3-9-4-18-1-27 2-9 7-18 13-25 5-5 10-9 16-11 3 0 5-1 7-1"/><path class="s6" d="M3290 1806c-2 0-4 0-6 0-3 0-6 2-8 5-2 2-4 5-5 7 0 3-1 6 0 8 0 4 1 7 3 9 2 2 4 3 6 4 1 0 2 0 4 0 1 0 3 0 5 0"/><path class="s6" d="M3511 1676l26-9 65-22"/><path class="s6" d="M3602 1645c8-3 16-5 24-7 11-2 22-3 32-3 8 0 15 1 22 2 9 2 18 5 26 9 3 1 5 2 7 3"/><path class="s6" d="M3713 1649l2 2v3l-10 7"/><path class="s6" d="M3705 1661c-11 7-23 14-35 19-22 10-44 18-66 21-20 3-40 2-60 0-12-2-25-4-36-9-5-2-10-5-14-7"/><path class="s6" d="M3494 1685v-4l18-5"/><path class="s6" d="M3655 1647l-1 12"/><path class="s6" d="M3654 1659c0 2 0 5 0 8 0 3 1 5 3 7 2 1 4 1 6 2"/><path class="s6" d="M3580 1663c-2 5-3 10-3 15 0 3 0 7 2 9 1 3 3 6 6 9"/><path class="s6" d="M3853 1842l30-44"/><path class="s6" d="M3925 1802l-4-5-81-10"/><path class="s6" d="M3876 1798l-35 4"/><path class="s6" d="M3744 1760l-19-6-17-7-41-18-1-7 14-10 49 17 223 36"/><path class="s6" d="M3984 1897l-113 1"/><path class="s6" d="M3090 1661c-14 4-28 8-41 14-26 13-48 37-62 63-14 25-21 51-22 79-2 31 4 64 19 91 12 21 30 38 51 52 12 8 24 14 38 18 5 1 11 2 16 3"/><path class="s6" d="M3151 1691l-34 7"/><path class="s6" d="M3117 1698c-7 4-14 8-20 13-23 18-36 47-43 75-4 21-5 41-2 62 4 26 14 52 31 70 11 12 25 20 40 29"/><path class="s6" d="M3123 1947l41 8 7 11"/><path class="s6" d="M3093 1591c-2 3-5 6-7 9-5 5-10 12-14 19-4 7-9 14-13 21-3 4-5 8-7 12"/><path class="s6" d="M3074 1647c3-8 6-16 9-23 3-6 5-11 9-16 1-3 3-6 5-9 1-1 1-3 2-3 1-1 3-1 4-1"/><path class="s6" d="M3116 1602c-2 4-4 7-6 11-4 6-6 12-9 19 0 2-1 4-2 5"/><path class="s6" d="M3457 1752c-4 7-7 14-9 21-3 16 3 35 12 49 13 21 35 33 57 43 24 10 49 17 74 24"/><path class="s6" d="M6322 1308c-2 3-4 5-6 7-5 6-7 15-7 24-2 28 1 53 5 79 3 13 5 25 12 35 5 6 12 11 18 16"/><path class="s6" d="M6319 72l-460 980"/><path class="s6" d="M5948 1081l-5 328"/><path class="s6" d="M6524 1404l28-4 334-37 33-4 52-7 54-7 44-6"/><path class="s6" d="M7069 1339l-216 10-11 1-146 10-124 8"/><g><path class="s7" d="M4856 1671l62-6c2 0 4 0 7 0 3 1 7 4 9 7 1 3 2 5 2 8 2 6 3 11 5 17 3 10 6 20 10 30 3 9 7 17 12 25 4 8 8 15 12 23 3 4 5 9 9 13 1 1 3 2 3 3 0 1-1 3-2 5-2 2-4 3-5 3l-60 9c-3 0-5 0-8 0-3 0-5-1-8-2-3-2-6-5-8-7-12-13-20-29-27-45-8-18-14-36-20-54-1-4-2-8-3-13-1-2-1-4-1-5 0-3 1-5 2-7 1-2 3-3 5-4 2 0 3 0 4 0" fill-rule="evenodd"/></g><path class="s6" d="M3608 5728l-7-7-1-1v-1h-1-5"/><path class="s6" d="M3578 5708h-1"/><path class="s6" d="M3599 5719l-3 1v-1l-18-11h-3-2"/><path class="s6" d="M3543 5706l1-1"/><path class="s6" d="M3544 5706v-1h-3l-7 2"/><path class="s6" d="M3530 5733v-3l-1-7v-3l1-7 3-3 1-3"/><path class="s6" d="M4703 5781l-17-11-1-1-1-1"/><path class="s6" d="M4682 5765l-2-7"/><path class="s6" d="M4680 5758h-4"/><path class="s6" d="M4640 5765l-24 11h2"/><path class="s6" d="M4615 5776l-1 8 2 4"/><path class="s6" d="M4276 5769l2-4"/><path class="s6" d="M4277 5765l-15-11-1-1-1-1h-2"/><path class="s6" d="M4258 5753l-7-11"/><path class="s6" d="M4251 5742h-5-1"/><path class="s6" d="M4216 5743l-2-2"/><path class="s6" d="M4214 5741h-3"/><path class="s6" d="M4193 5763l5-7 2-5 8-4 1-4 2-2"/><path class="s6" d="M5372 5827l-6-15-21-14"/><path class="s6" d="M5343 5796h4v1"/><path class="s6" d="M5343 5796l-2 4"/><path class="s6" d="M5304 5795h4"/><path class="s6" d="M5295 5805l9-10"/><path class="s6" d="M5295 5805h-2l-1 1h-1l-16 9"/><path class="s6" d="M5156 5812l-28-24"/><path class="s6" d="M5158 5817l-2-9"/><path class="s6" d="M5126 5787l-2 4"/><path class="s6" d="M5090 5783l3 1"/><path class="s6" d="M5083 5795h3l4-12"/><path class="s6" d="M5086 5793h-3l-1 2-2 1-20 9"/><path class="s6" d="M5062 5812l-2-9"/><path class="s6" d="M4637 5770h-1"/><path class="s6" d="M6953 4612l-28 266-3 6-1 5-3 1"/><path class="s6" d="M6911 4685a5 3-90 1 0 0-10"/><path class="s6" d="M6909 4710a5 3-90 1 0 0-10"/><path class="s6" d="M6907 4736a5 3-90 1 0 0-10"/><path class="s6" d="M6904 4761a5 3-90 1 0 0-10"/><path class="s6" d="M6901 4775l2 2 1 5-1 5-4 1"/><path class="s6" d="M6901 4683a5 3-90 1 0 0-10"/><path class="s6" d="M6896 4814l3-2 2-5v-4l-3-1"/><path class="s6" d="M6898 4709a5 3-90 1 0 0-10"/><path class="s6" d="M6895 4734a5 3-90 1 0 0-10"/><path class="s6" d="M6892 4760a5 3-90 1 0 0-10"/><path class="s6" d="M6889 4785l1-1 2-4v-5l-2-1"/><path class="s6" d="M6889 4682a5 3-90 1 0 0-10"/><path class="s6" d="M6887 4812l1-2 1-4v-4l-1-4"/><path class="s6" d="M6887 4709a5 3-90 1 0 0-10"/><path class="s6" d="M6884 4732a5 3-90 1 0 0-10"/><path class="s6" d="M6880 4759l4-1v-4-5l-1-2"/><path class="s6" d="M6879 4772l1 2 3 4-3 4-2 2"/><path class="s6" d="M6879 4680a5 3-90 1 0 0-10"/><path class="s6" d="M6874 4810l4-2 1-4v-6l-3-1"/><path class="s6" d="M6876 4706a5 3-90 1 0 0-10"/><path class="s6" d="M6873 4721l3 1v4l-2 5-1 1"/><path class="s6" d="M6871 4758l1-2 1-3v-6l-1-2"/><path class="s6" d="M6869 4770l2 2v5l-2 4-2 1"/><path class="s6" d="M6867 4679a5 3-90 1 0 0-10"/><path class="s6" d="M6865 4807l2-1v-4-5l-1-1"/><path class="s6" d="M6865 4705a5 3-90 1 0 0-10"/><path class="s6" d="M6862 4731l3-2 1-4-1-4-2-2"/><path class="s6" d="M6859 4756l3-2 1-5-1-4-1-1"/><path class="s6" d="M6858 4781l1-1 2-5v-4l-2-2"/><path class="s6" d="M6858 4679a5 3-90 1 0 0-10"/><path class="s6" d="M6855 4806l1-2 2-5v-3l-2-3"/><path class="s6" d="M6855 4704a5 3-90 1 0 0-10"/><path class="s6" d="M6852 4718l3 1v4l-3 4-1 2"/><path class="s6" d="M6850 4743l1 1v4 5l-2 1"/><path class="s6" d="M6847 4767l2 2 1 3-1 5-3 1"/><path class="s6" d="M6846 4792l1 1v5l-1 4-1 1"/><path class="s6" d="M6953 4610l-1-3-3-4-109-6"/><path class="s6" d="M6845 4597h-5l-3 1-2 5-1 6-25 243v6l1 6 2 1 106 25"/><path class="s6" d="M2283 3707l-28-9h-2"/><path class="s6" d="M2069 3710h-2-37"/><path class="s6" d="M1777 3720l-34 2"/><path class="s6" d="M3544 5711h-1"/><path class="s6" d="M4244 5748h-3"/><path class="s6" d="M4578 3697v19l-1 7-4 5"/><path class="s6" d="M4469 3696h-5l-1 1"/><path class="s6" d="M4463 3697l-2 21 2 8 1 1"/><path class="s6" d="M4412 3696v4l2 3 6 5 10 4 14 4 15 2h2"/><path class="s6" d="M4591 3672a109 22-.5501253011612757 0 0-180 20"/><path class="s6" d="M4624 3689l-2-1"/><path class="s6" d="M4391 2908l-3-3"/><path class="s6" d="M4388 2905l-4-2-7 2-3 2"/><path class="s6" d="M4375 2909l-1-2"/><path class="s6" d="M4366 2816l-1-3"/><path class="s6" d="M4365 2813l-7-1h-5l-4 3"/><path class="s6" d="M4350 2817l-1-2"/><path class="s6" d="M4428 2883v3"/><path class="s6" d="M4295 2848l3 1 16-4"/><path class="s6" d="M4314 2845l6 4"/><path class="s6" d="M4307 2950h10"/><path class="s6" d="M4329 2899v20l-3 15-3 3-6 13"/><path class="s6" d="M4317 2950l3-5"/><path class="s6" d="M4320 2864l9-1"/><path class="s6" d="M4311 2899l-6 15"/><path class="s6" d="M4282 2908l5-3"/><path class="s6" d="M4287 2905l7-15 1-16v-40"/><path class="s6" d="M4295 2834l-8-2"/><path class="s6" d="M4287 2832l-13 6-14-4"/><path class="s6" d="M4241 2828l-24-1"/><path class="s6" d="M4208 2827l-24 1"/><path class="s6" d="M4252 2898l4-2 2-15 2-18v-40"/><path class="s6" d="M4260 2823l-10-1"/><path class="s6" d="M4217 2896v-4-33-39"/><path class="s6" d="M4217 2820h-9"/><path class="s6" d="M4175 2821l-10 1"/><path class="s6" d="M4165 2822l2 41v15l3 16 3 4"/><path class="s6" d="M4311 2950l-5 11-6 2"/><path class="s6" d="M43e2 2963l-6-1-17 7"/><path class="s6" d="M4285 2965l-2 8"/><path class="s6" d="M4283 2973l-7 2"/><path class="s6" d="M4276 2975l-5-2-22 5"/><path class="s6" d="M4252 2975l-1 5"/><path class="s6" d="M4251 2980l-10 1"/><path class="s6" d="M4241 2981l-2-2"/><path class="s6" d="M4239 2979l-11 1h-12"/><path class="s6" d="M4216 2980l-2 3"/><path class="s6" d="M4214 2983h-7"/><path class="s6" d="M4207 2983v-3"/><path class="s6" d="M4207 2983v-3"/><path class="s6" d="M4207 2980l-23-2"/><path class="s6" d="M4184 2978l-5 3"/><path class="s6" d="M4168 2975l2 5"/><path class="s6" d="M4179 2981l-9-1"/><path class="s6" d="M4173 2975l-21-3-5 2"/><path class="s6" d="M4147 2974l-7-2-4-9"/><path class="s6" d="M4165 2833l-14 4-13-9"/><path class="s6" d="M4138 2828l-7 5"/><path class="s6" d="M4131 2833v38l1 16 6 16 5 4"/><path class="s6" d="M4146 2968l-17-7-7 1"/><path class="s6" d="M4122 2962l-6-4-5-10h-1"/><path class="s6" d="M4131 2845l-4 3-16-4"/><path class="s6" d="M4111 2844l-7 3"/><path class="s6" d="M4105 2948l-1-5"/><path class="s6" d="M4104 2861l-10-1"/><path class="s6" d="M4104 2932l-7-13-4-16v-39l1-4"/><path class="s6" d="M4080 2920l-2-2h-5-5l-2 1"/><path class="s6" d="M4045 2845l-1-3-5-1-7 1-3 2"/><path class="s6" d="M4416 2835l-2-7"/><path class="s6" d="M4110 2952l4 2"/><path class="s6" d="M3992 2848v12"/><path class="s6" d="M4295 2848l3 2"/><path class="s6" d="M4267 2837l-7-3"/><path class="s6" d="M4241 2832l-2-4"/><path class="s6" d="M4205 2827h-2"/><path class="s6" d="M4189 2828h-2"/><path class="s6" d="M4163 2834l-3 1"/><path class="s6" d="M4131 2847l-4 2"/><path class="s6" d="M3120 3791l-7 3-13 1h-5"/><path class="s6" d="M3081 3778h4"/><path class="s6" d="M2981 3773l-6-1v1"/><path class="s6" d="M2926 3768v4l4 3 5 3 10 5 13 4"/><path class="s6" d="M3030 3754a102 19 2.7989477498128275 0 0-103 14"/><path class="s6" d="M3034 3754h-4"/><path class="s6" d="M1691 3260a123 32 4.596468710813068 0 0 87-8"/><path class="s6" d="M1571 3165l26 7 10-3 10 3"/><path class="s6" d="M1617 3178l14 6 14-2 10 4"/><path class="s6" d="M1656 3193v1l18 4 6 2"/><path class="s6" d="M1680 3209l9 1"/><path class="s6" d="M1683 3274l-9-1"/><path class="s6" d="M1677 3267l8 1"/><path class="s6" d="M1689 3210l1 3 5 34-1 11-9 10"/><path class="s6" d="M1685 3268l-1-4"/><path class="s6" d="M1684 3264l-10-1-7-6"/><path class="s6" d="M1667 3257h10"/><path class="s6" d="M1680 32e2l3 33-1 14-5 10"/><path class="s6" d="M1645 3246l8-4"/><path class="s6" d="M1655 3186l3 35-1 12-4 9"/><path class="s6" d="M1613 3233l5-2"/><path class="s6" d="M1617 3172l2 33 1 16-2 10"/><path class="s6" d="M1575 3225l2-3-2-13-5-48"/><path class="s6" d="M1570 3161l-11-3"/><path class="s6" d="M1559 3162l-28-4-9-6-10-1"/><path class="s6" d="M1512 3151l4 35 2 14 4 13 3 2"/><path class="s6" d="M1682 3275l-10-1-11 4"/><path class="s6" d="M1661 3278l7 1"/><path class="s7" d="M1668 3279l-6 2-6-3m-9 1h-11"/><path class="s6" d="M1636 3279l6 3"/><path class="s7" d="M1642 3282h-8l-5-3m-25-1"/><path class="s6" d="M1604 3278l3 3"/><path class="s6" d="M1607 3278v3"/><path class="s7" d="M1607 3281l-11-2-3-3m-28-3"/><path class="s6" d="M1565 3273v2"/><path class="s6" d="M1565 3275l-10-2"/><path class="s6" d="M1555 3273v-2"/><path class="s6" d="M1555 3273l1-2"/><path class="s6" d="M1512 3260l2 3"/><path class="s7" d="M1556 3271m-29-7-3 3-10-4"/><path class="s6" d="M1514 3263l4-1"/><path class="s7" d="M1518 3262m-24-9-6 1-10-2-2-5"/><path class="s6" d="M1478 3252l9-1"/><path class="s7" d="M1487 3251m-18-9-10-1-5-3-5-7"/><path class="s6" d="M1512 3156l-18-1-16-7h-7"/><path class="s6" d="M1471 3148l3 34 3 16 8 13 5 3"/><path class="s6" d="M1472 3156h-7l-19-7-6 2"/><path class="s6" d="M1439 3151a105 33-84.12179053263569 0 0 25 66"/><path class="s6" d="M1440 3160l-15-4"/><path class="s6" d="M1425 3156l-1 4"/><path class="s6" d="M1423 3158a107 38-81.47387964736538 0 0 31 64"/><path class="s6" d="M1452 3224l-1 5"/><path class="s6" d="M1454 3238h9"/><path class="s6" d="M1463 3238l-9-7h-4"/><path class="s6" d="M1440 3226l1 1h2 2l4 2 1 1"/><path class="s6" d="M1430 3214l4 2 7 11"/><path class="s6" d="M1469 3106l-46-5h-42l-33 4-26 5-15 7-6 12 2 10 4 12 14 14 25 15 30 13 38 16 16 5"/><path class="s6" d="M1631 3184h-2"/><path class="s6" d="M1499 3155l3 1"/><path class="s6" d="M1443 3230v-3"/><path class="s6" d="M1450 3230v1"/><path class="s6" d="M1450 3231h-1-3l-1-1h-2l-2-3"/><path class="s6" d="M3203 3825l-92 3h-11-13l-13-2-10-1"/><path class="s6" d="M2960 3788l-2-1"/><path class="s6" d="M4402 3165h-4-2"/><path class="s6" d="M4403 3167l-1-2h-5-3l-1 2"/><path class="s6" d="M4360 2972l-1-3h-4l-5 3v1"/><path class="s6" d="M43e2 2963h-12"/><path class="s6" d="M4258 3174l-1-1h-5l-2 1v1"/><path class="s6" d="M4159 2973h-11"/><path class="s6" d="M4146 3130h-3-3"/><path class="s6" d="M4138 3130h3 5l1 1"/><path class="s6" d="M4147 3132h-4-3l-2-1"/><path class="s6" d="M4097 3046l3-1h3l2 1"/><path class="s6" d="M4105 3046l-1 2"/><path class="s6" d="M4104 3048l-2 1h-4l-1-1"/><path class="s6" d="M4097 3046v2"/><path class="s6" d="M4146 2974h-6"/><path class="s6" d="M4131 3158l-72-137-1-11v-3"/><path class="s6" d="M4130 3158a90 33 0 0 0 103 26"/><path class="s6" d="M4633 3729l-6-1-12-1h-12-14"/><path class="s6" d="M4463 3737v2l-2 1"/><path class="s6" d="M4464 3729h-1l-12 3-10 1-7 2-4 4"/><path class="s6" d="M4430 3739v2 3"/><path class="s6" d="M4430 3740v4l20 37 2 1 6 2 9 3 10 1h13 11l107-4 10-1h12l10-2 6-3"/><path class="s6" d="M4423 3152l12-1"/><path class="s6" d="M4423 3152l12-1"/><path class="s6" d="M4423 3152l-201 11h-13"/><path class="s6" d="M4186 3153l-67-141"/><path class="s6" d="M4480 3777l-19-37"/><path class="s6" d="M1682 3739l-44-11"/><path class="s6" d="M5498 5849l-8-14"/><path class="s6" d="M5490 5835l-216-12"/><path class="s6" d="M6126 5317l-25 25-44 48-47 48-65 59-64 54-8 8"/><path class="s6" d="M5841 5585l-1 1-63 49-75 54-66 44"/><path class="s6" d="M5490 5835l-3-8v-2"/><path class="s6" d="M5607 5753l-37 23-42 25-41 24"/><path class="s6" d="M1948 6116l2-3"/><path class="s6" d="M7487 6125l-821-454-239-150-48-32-42-30"/><path class="s6" d="M6663 5678l-77 74-68 62-70 58-47 39-64 49-35 27-80 59-77 53-58 40-68 42-66 38-51 29-65 35-94 46-59 26-50 22"/><path class="s6" d="M1843 6156 1587 3716"/><path class="s6" d="M6215 3965l-14 219"/><path class="s6" d="M6247 3952l-91 14e2"/><path class="s6" d="M5965 3967l-11 221"/><path class="s6" d="M6184 4433l14-217"/><path class="s6" d="M6198 4218l-247-2"/><path class="s6" d="M5951 4216l-13 218"/><path class="s6" d="M6183 4465l-15 215"/><path class="s6" d="M6183 4465H5937"/><path class="s6" d="M6183 4465H5937"/><path class="s6" d="M6167 4710l-15 213"/><path class="s6" d="M6167 4710l-243-3"/><path class="s6" d="M5935 3966l-12 222"/><path class="s6" d="M5728 3973l-10 217"/><path class="s6" d="M5918 4218l-11 216"/><path class="s6" d="M5921 4218l-205 1"/><path class="s6" d="M5716 4219l-11 215"/><path class="s6" d="M5906 4465l-13 213"/><path class="s6" d="M5906 4465H5704"/><path class="s6" d="M5906 4465H5704"/><path class="s6" d="M5891 4707l-12 210"/><path class="s6" d="M5891 4707l-2e2-1"/><path class="s6" d="M5698 3972l-13 218"/><path class="s6" d="M6184 4433l-246 1"/><path class="s6" d="M5907 4434H5705"/><path class="s6" d="M5878 4945l-12 209"/><path class="s6" d="M5878 4945l-199-2"/><path class="s6" d="M5692 4677l12-212"/><path class="s6" d="M5937 4465l-12 213"/><path class="s6" d="M6168 4680l-241-2"/><path class="s6" d="M5893 4678l-201-1"/><path class="s6" d="M5864 5183l-12 202"/><path class="s6" d="M5864 5183l-197-7"/><path class="s6" d="M5680 4915l11-209"/><path class="s6" d="M5911 4918l241 3"/><path class="s6" d="M5924 4707l-13 211"/><path class="s6" d="M5680 4915l199 2"/><path class="s6" d="M5838 5412l-193 177"/><path class="s6" d="M5668 5147l11-204"/><path class="s6" d="M6150 4952l-14 209"/><path class="s6" d="M5910 4945l240 7"/><path class="s6" d="M5895 5155l241 6"/><path class="s6" d="M5910 4945l-15 210"/><path class="s6" d="M5668 5147l198 7 29 1"/><path class="s6" d="M5656 5378l11-202"/><path class="s6" d="M5873 5610l8-198"/><path class="s6" d="M6134 5216l-254 199"/><path class="s6" d="M6124 5351l10-135"/><path class="s6" d="M5894 5183l224 6"/><path class="s6" d="M5883 5374l11-191"/><path class="s6" d="M5883 5374l235-185"/><path class="s6" d="M5656 5378l196 7"/><path class="s6" d="M5838 5613l7-171"/><path class="s6" d="M5641 5634l207-188"/><path class="s6" d="M5645 5623l-11 158"/><path class="s6" d="M5655 5405l183 7"/><path class="s6" d="M5655 5402l-10 187"/><path class="s6" d="M5423 3979l-10 215"/><path class="s6" d="M6199 4184l-246 4"/><path class="s6" d="M5921 4188l-201 2"/><path class="s6" d="M5684 4190l-271 4"/><path class="s6" d="M5635 5175l-266-12"/><path class="s6" d="M5358 5388l-7 194"/><path class="s6" d="M5412 4223l272-2"/><path class="s6" d="M5402 4436l10-213"/><path class="s6" d="M5401 4466l272-1"/><path class="s6" d="M5391 4674l10-208"/><path class="s6" d="M5391 4674l270 3"/><path class="s6" d="M5380 4907l10-203"/><path class="s6" d="M5380 4907l270 6"/><path class="s6" d="M5379 4935l-9 201"/><path class="s6" d="M5625 5377l10-202"/><path class="s6" d="M5370 5136l266 10"/><path class="s6" d="M5648 4942l-269-7"/><path class="s6" d="M5636 5147l12-205"/><path class="s6" d="M5660 4706l-270-2"/><path class="s6" d="M5650 4913l10-207"/><path class="s6" d="M5672 4465l-11 212"/><path class="s6" d="M5402 4436l272-2"/><path class="s6" d="M5684 4221l-11 213"/><path class="s6" d="M5624 5405l-11 197"/><path class="s6" d="M5612 5632l-7 148"/><path class="s6" d="M5359 5361l266 16"/><path class="s6" d="M5369 5163l-10 198"/><path class="s6" d="M5624 5404l-266-16"/><path class="s6" d="M5348 5608l-7 204"/><path class="s6" d="M5613 5602l-262-20"/><path class="s6" d="M5612 5630l-264-22"/><path class="s6" d="M5381 4195l11-217"/><path class="s6" d="M5190 3983l-7 213"/><path class="s6" d="M5383 4195l-2e2 1"/><path class="s6" d="M5381 4223l-198 3"/><path class="s6" d="M5381 4223l-198 3"/><path class="s6" d="M5372 4436l9-213"/><path class="s6" d="M5381 4223l-9 213"/><path class="s6" d="M5372 4436H5173"/><path class="s6" d="M5183 4226l-10 210"/><path class="s6" d="M5370 4466H5173"/><path class="s6" d="M5370 4466H5173"/><path class="s6" d="M5370 4466l-8 208"/><path class="s6" d="M5164 4673l198 1"/><path class="s6" d="M5164 4673l198 1"/><path class="s6" d="M5173 4466l-9 207"/><path class="s6" d="M5164 47e2l195 1"/><path class="s6" d="M5359 4701l-7 206"/><path class="s6" d="M5359 4701l-7 206"/><path class="s6" d="M5164 47e2l-6 205"/><path class="s6" d="M5352 4907l-194-2"/><path class="s6" d="M5148 5130l194 6"/><path class="s6" d="M5351 4935l-9 199v2"/><path class="s6" d="M5157 4932l194 3"/><path class="s6" d="M5157 4932l-9 198"/><path class="s6" d="M5331 5361l10-198"/><path class="s6" d="M5147 5157l194 6"/><path class="s6" d="M5140 5353l191 5"/><path class="s6" d="M5147 5157l-7 196"/><path class="s6" d="M5134 5572l187 9"/><path class="s6" d="M5330 5386l-9 195"/><path class="s6" d="M5140 5380l190 6"/><path class="s6" d="M5140 5380l-6 192"/><path class="s6" d="M5320 5607l-10 199"/><path class="s6" d="M5321 5607l-189-8"/><path class="s6" d="M5132 5599l-8 202"/><path class="s6" d="M5152 4197l9-214"/><path class="s6" d="M5161 3983l-9 214"/><path class="s6" d="M4967 3988l-5 211"/><path class="s6" d="M5152 4197l-190 2"/><path class="s6" d="M5145 4436l6-210"/><path class="s6" d="M5145 4436l6-210"/><path class="s6" d="M5151 4226l-189 2"/><path class="s6" d="M5151 4226l-189 2"/><path class="s6" d="M4962 4228l-6 211"/><path class="s6" d="M5145 4436l-189 3"/><path class="s6" d="M4955 4466h188 2"/><path class="s6" d="M4955 4466h190"/><path class="s6" d="M5145 4466l-8 207"/><path class="s6" d="M4950 4672l186 1h1"/><path class="s6" d="M4955 4466l-5 206"/><path class="s6" d="M5137 4673l-187-1"/><path class="s6" d="M4943 49e2l185 3"/><path class="s6" d="M5136 47e2l-8 203"/><path class="s6" d="M4950 4699l186 1"/><path class="s6" d="M4950 4699l-7 201"/><path class="s6" d="M5120 5130l6-2e2"/><path class="s6" d="M4941 4928l185 2"/><path class="s6" d="M4938 5125l182 5"/><path class="s6" d="M4941 4928l-3 197"/><path class="s6" d="M5113 5353l7-196"/><path class="s6" d="M4936 5151l184 6"/><path class="s6" d="M5113 5353v-1l7-195"/><path class="s6" d="M4930 5346l183 6"/><path class="s6" d="M4936 5151l-6 195"/><path class="s6" d="M5104 5572l8-193"/><path class="s6" d="M4930 5374l182 5"/><path class="s6" d="M4925 5563l179 7"/><path class="s6" d="M4930 5374l-5 189"/><path class="s6" d="M4933 4199l6-211"/><path class="s6" d="M4939 3988l-6 211"/><path class="s6" d="M4702 3992l-2 209"/><path class="s6" d="M47e2 4201l2-209"/><path class="s6" d="M4933 4199l-233 2"/><path class="s6" d="M4933 4228v2l-5 209"/><path class="s6" d="M4933 4228l-5 211"/><path class="s6" d="M4933 4230l-235 2"/><path class="s6" d="M4696 4439l2-207"/><path class="s6" d="M4928 4439H4696"/><path class="s6" d="M4698 4232l-2 207"/><path class="s6" d="M4921 4672l7-206"/><path class="s6" d="M4928 4466h-2l-231 1"/><path class="s6" d="M4691 4670l4-203"/><path class="s6" d="M4928 4466l-233 1"/><path class="s6" d="M4921 4672l5-206"/><path class="s6" d="M4691 4670l230 2"/><path class="s6" d="M4691 4697l-5 199"/><path class="s6" d="M4686 4896l230 4"/><path class="s6" d="M4919 4699l-3 201"/><path class="s6" d="M4691 4697l228 2"/><path class="s6" d="M4916 49e2l3-201"/><path class="s6" d="M4691 4697l-5 198v1"/><path class="s6" d="M4686 4923l-2 196"/><path class="s6" d="M4684 5119l224 5"/><path class="s6" d="M4914 4928l-6 196"/><path class="s6" d="M4686 4923l228 5"/><path class="s6" d="M4908 5124l6-196"/><path class="s6" d="M4686 4923l-2 196"/><path class="s6" d="M4683 5146l-4 191v2"/><path class="s6" d="M4679 5339l224 7"/><path class="s6" d="M4908 5151l-5 195"/><path class="s6" d="M4683 5146l225 5"/><path class="s6" d="M4903 5346l5-195"/><path class="s6" d="M4683 5146l-4 193"/><path class="s6" d="M4679 5364l-4 188"/><path class="s6" d="M4675 5552l221 11"/><path class="s6" d="M4903 5373l-7 189v1"/><path class="s6" d="M4679 5364l224 9"/><path class="s6" d="M4896 5563l7-190"/><path class="s6" d="M5103 5597l-6 198"/><path class="s6" d="M5097 58e2l6-203"/><path class="s6" d="M5103 5597l-178-8"/><path class="s6" d="M4925 5589l-7 201"/><path class="s6" d="M4891 5788l5-2e2"/><path class="s6" d="M4891 5788l5-199"/><path class="s6" d="M4675 5580l-2 194"/><path class="s6" d="M4896 5589l-221-9"/><path class="s6" d="M4675 5580l-2 198"/><path class="s6" d="M4674 3993l-3 210"/><path class="s6" d="M4447 4206l3-207"/><path class="s6" d="M4671 4203l-224 3"/><path class="s6" d="M4450 3999l-3 207"/><path class="s6" d="M4447 4234l224-2"/><path class="s6" d="M4667 4439l4-207"/><path class="s6" d="M4446 4439l1-205"/><path class="s6" d="M4667 4439H4446"/><path class="s6" d="M4447 4234l-1 205"/><path class="s6" d="M4663 4670l-218-2"/><path class="s6" d="M4445 4668l1-201"/><path class="s6" d="M4667 4467H4446"/><path class="s6" d="M4663 4670l4-203"/><path class="s6" d="M4446 4467h221"/><path class="s6" d="M4445 4668l1-201"/><path class="s6" d="M4663 4670l-218-2"/><path class="s6" d="M4659 4895l-215-2"/><path class="s6" d="M4445 4696l-1 197"/><path class="s6" d="M4445 4696l218 1"/><path class="s6" d="M4659 4895l4-198"/><path class="s6" d="M4445 4696l-1 197"/><path class="s6" d="M4657 5119l-215-6"/><path class="s6" d="M4442 5113l2-195"/><path class="s6" d="M4444 4918l215 5"/><path class="s6" d="M4657 5119l2-196"/><path class="s6" d="M4442 5113l215 6"/><path class="s6" d="M4444 4918l-2 195"/><path class="s6" d="M4652 5337l-211-7"/><path class="s6" d="M4441 5330l1-190"/><path class="s6" d="M4442 5140l215 5"/><path class="s6" d="M4652 5337l5-192"/><path class="s6" d="M4442 5140l-1 190"/><path class="s6" d="M4649 5551l-209-8"/><path class="s6" d="M4440 5543V5356"/><path class="s6" d="M4440 5356l212 7"/><path class="s6" d="M4649 5551l3-188"/><path class="s6" d="M4647 5776l2-198"/><path class="s6" d="M4649 5578l-211-9"/><path class="s6" d="M4438 5569l-2 196"/><path class="s6" d="M4409 5755l3-187"/><path class="s6" d="M4241 5560v195"/><path class="s6" d="M4412 5568l-171-8"/><path class="s6" d="M4412 5541l2-186"/><path class="s6" d="M4412 5541l-171-6"/><path class="s6" d="M4241 5535V5350"/><path class="s6" d="M4414 5355l-173-5"/><path class="s6" d="M4414 5329l1-190"/><path class="s6" d="M4414 5329l-173-6"/><path class="s6" d="M4241 5323l-1-189"/><path class="s6" d="M4415 5139l-175-5"/><path class="s6" d="M4415 5113l1-195"/><path class="s6" d="M4415 5113l-174-5"/><path class="s6" d="M4240 5108V4916"/><path class="s6" d="M4416 4918l-176-2"/><path class="s6" d="M4416 4891l-176-1"/><path class="s6" d="M4418 4695l-2 198"/><path class="s6" d="M4240 4694v196"/><path class="s6" d="M4418 4695l-178-1"/><path class="s6" d="M4419 4467H4240"/><path class="s6" d="M4240 4467v2e2"/><path class="s6" d="M4240 4667h178"/><path class="s6" d="M4419 4467l-1 2e2"/><path class="s6" d="M4240 4667h178"/><path class="s6" d="M4419 4467H4240"/><path class="s6" d="M4420 4234l-180 3"/><path class="s6" d="M4420 4234l-1 206"/><path class="s6" d="M4240 4440h179"/><path class="s6" d="M4240 4237v203"/><path class="s6" d="M4420 4234l-180 3"/><path class="s6" d="M4240 4440V4237"/><path class="s6" d="M4422 4e3l-2 207"/><path class="s6" d="M4240 4208l180-1"/><path class="s6" d="M4240 4208V4001"/><path class="s6" d="M4240 4208V4002"/><path class="s6" d="M3979 5340l2 184"/><path class="s6" d="M3981 5524l235 11"/><path class="s6" d="M4216 5350v185"/><path class="s6" d="M4216 5350l-237-10"/><path class="s6" d="M4214 5134l2 189"/><path class="s6" d="M4216 5323l-237-9"/><path class="s6" d="M3978 5127l1 187"/><path class="s6" d="M4214 5134l-236-7"/><path class="s6" d="M4214 5107l-236-6h-2"/><path class="s6" d="M4214 4916v191"/><path class="s6" d="M3976 5101l238 6"/><path class="s6" d="M4214 4916l-240-4"/><path class="s6" d="M3976 5101l-2-189"/><path class="s6" d="M3972 4690l2 195"/><path class="s6" d="M3974 4885l240 4"/><path class="s6" d="M4214 4694v195"/><path class="s6" d="M4214 4694l-242-4"/><path class="s6" d="M4213 4467H3969"/><path class="s6" d="M3969 4467l3 196"/><path class="s6" d="M4213 4467l1 2e2"/><path class="s6" d="M3972 4663l242 4"/><path class="s6" d="M4213 4467H3970h-1"/><path class="s6" d="M3966 4239l247-2"/><path class="s6" d="M4213 4237v203"/><path class="s6" d="M3969 4440h244"/><path class="s6" d="M3968 4239l1 201"/><path class="s6" d="M4213 4237l-245 2h-2"/><path class="s6" d="M4213 4004v204"/><path class="s6" d="M3966 4211l247-3"/><path class="s6" d="M3966 4211l-2-205"/><path class="s6" d="M3966 4211l-2-205"/><path class="s6" d="M3954 5339l2 184"/><path class="s6" d="M3956 5523l-141-7"/><path class="s6" d="M3811 5334l4 182"/><path class="s6" d="M3954 5339l-143-5"/><path class="s6" d="M3808 5123l3 186"/><path class="s6" d="M3954 5314l-143-6v1"/><path class="s6" d="M3952 5127l2 187"/><path class="s6" d="M3808 5123l3 185"/><path class="s6" d="M3952 5127l-144-4"/><path class="s6" d="M3952 5101l-145-4"/><path class="s6" d="M3948 4912l4 189"/><path class="s6" d="M3803 4908l4 189"/><path class="s6" d="M3948 4912l-145-4"/><path class="s6" d="M3799 4689l2 194"/><path class="s6" d="M3948 4884l-145-1h-2"/><path class="s6" d="M3946 4690l2 194"/><path class="s6" d="M3801 4883l147 1"/><path class="s6" d="M3946 4690l-147-1"/><path class="s6" d="M3942 4467H3795"/><path class="s6" d="M3795 4467l4 196"/><path class="s6" d="M3799 4663h147"/><path class="s6" d="M3942 4467l4 196"/><path class="s6" d="M3942 4467H3795"/><path class="s6" d="M3795 4441l-5-201"/><path class="s6" d="M3940 4239l-150 1"/><path class="s6" d="M3940 4239l2 201"/><path class="s6" d="M3795 4441l147-1"/><path class="s6" d="M3936 4009l4 203"/><path class="s6" d="M3790 4213l150-1"/><path class="s6" d="M3790 4213l-4-204"/><path class="s6" d="M3790 4213l-4-202"/><path class="s6" d="M4216 5754V5559"/><path class="s6" d="M4216 5559l-235-11"/><path class="s6" d="M3981 5548l3 194"/><path class="s6" d="M3958 5742l-1-195"/><path class="s6" d="M3957 5547l-142-6"/><path class="s6" d="M3815 5541l3 192"/><path class="s6" d="M3794 5732l-4-191"/><path class="s6" d="M3563 5532l227 9"/><path class="s6" d="M3565 5532l5 182"/><path class="s6" d="M3557 5326l6 182"/><path class="s6" d="M3563 5508l226 7"/><path class="s6" d="M3786 5333l3 182"/><path class="s6" d="M3786 5333l-229-7"/><path class="s6" d="M3552 5118l5 184"/><path class="s6" d="M3786 5308l-229-8v2"/><path class="s6" d="M3783 5123l3 185"/><path class="s6" d="M3783 5123l-231-5"/><path class="s6" d="M3545 4905l7 186"/><path class="s6" d="M3783 5097l-231-6"/><path class="s6" d="M3777 4908l6 189"/><path class="s6" d="M3552 5091l231 6"/><path class="s6" d="M3777 4908l-232-3"/><path class="s6" d="M3539 4688l5 190"/><path class="s6" d="M3544 4878l233 5"/><path class="s6" d="M3773 4689l4 194"/><path class="s6" d="M3773 4689l-234-1"/><path class="s6" d="M3769 4468H3533"/><path class="s6" d="M3533 4468l6 193"/><path class="s6" d="M3769 4468l4 195"/><path class="s6" d="M3539 4661l234 2"/><path class="s6" d="M3533 4468l6 193"/><path class="s6" d="M3769 4468H3533"/><path class="s6" d="M3533 4441l-5-197"/><path class="s6" d="M3764 4240l-236 4"/><path class="s6" d="M3764 4240l5 201"/><path class="s6" d="M3533 4441h236"/><path class="s6" d="M3528 4244l5 197"/><path class="s6" d="M3764 4240l-236 4"/><path class="s6" d="M3761 4014l3 199"/><path class="s6" d="M3524 4216l240-3"/><path class="s6" d="M3524 4216l-5-201"/><path class="s6" d="M3373 5319l8 179"/><path class="s6" d="M3539 5504l-158-6"/><path class="s6" d="M3533 5325l6 179"/><path class="s6" d="M3373 5319l8 179"/><path class="s6" d="M3533 5325l-160-6"/><path class="s6" d="M3372 5293l161 7"/><path class="s6" d="M3528 5116l5 184"/><path class="s6" d="M3372 5293h1l160 7"/><path class="s6" d="M3528 5116l-162-5"/><path class="s6" d="M3372 5293l-6-182"/><path class="s6" d="M3357 4901l8 185"/><path class="s6" d="M3365 5086l159 5"/><path class="s6" d="M3521 4905l3 186"/><path class="s6" d="M3365 5086l159 5"/><path class="s6" d="M3521 4905l-164-4"/><path class="s6" d="M3357 4875l162 3"/><path class="s6" d="M3514 4688l5 190"/><path class="s6" d="M3357 4875l162 3"/><path class="s6" d="M3514 4688l-164-1"/><path class="s6" d="M3357 4875l-7-188"/><path class="s6" d="M3514 4661H3349"/><path class="s6" d="M3349 4661l-7-193"/><path class="s6" d="M3342 4468h166"/><path class="s6" d="M3514 4661l-6-193"/><path class="s6" d="M3349 4661h1 164"/><path class="s6" d="M3508 4468H3344h-2"/><path class="s6" d="M3334 4247l167-3"/><path class="s6" d="M3501 4244l6 197"/><path class="s6" d="M3342 4443l165-2"/><path class="s6" d="M3334 4247l8 196"/><path class="s6" d="M3494 4020l5 196"/><path class="s6" d="M3333 4219l166-3"/><path class="s6" d="M3333 4219l-7-199"/><path class="s6" d="M3333 4219l-7-199"/><path class="s6" d="M3545 5720l-5-191"/><path class="s6" d="M3540 5529l-159-6"/><path class="s6" d="M3381 5523l6 177"/><path class="s6" d="M3363 57e2l-6-177"/><path class="s6" d="M3184 5516l173 7"/><path class="s6" d="M3183 5489l173 9"/><path class="s6" d="M3349 5318l7 180"/><path class="s6" d="M3349 5318l-176-3"/><path class="s6" d="M3349 5293l-177-7"/><path class="s6" d="M3342 5111l7 182"/><path class="s6" d="M3342 5111l-178-2"/><path class="s6" d="M3162 5081l178 5"/><path class="s6" d="M3333 4901l7 185"/><path class="s6" d="M3333 4901l-179-2"/><path class="s6" d="M3326 4687l7 188"/><path class="s6" d="M3152 4872l181 3"/><path class="s6" d="M3326 4687l-182-1"/><path class="s6" d="M3136 4468h181"/><path class="s6" d="M3324 4660l-7-192"/><path class="s6" d="M3143 4660h181"/><path class="s6" d="M3317 4468H3136"/><path class="s6" d="M3308 4247l-182 1"/><path class="s6" d="M3308 4247l7 196"/><path class="s6" d="M3135 4443h180"/><path class="s6" d="M3308 4247l-182 1"/><path class="s6" d="M33e2 4022l8 197"/><path class="s6" d="M3126 4222l182-3"/><path class="s6" d="M6394 5487l97-1710"/><path class="s6" d="M6345 5465l-172-152"/><path class="s6" d="M6260 3907l-521 6"/><path class="s6" d="M4654 3819l5 16"/><path class="s6" d="M4428 3842l-10-18"/><path class="s6" d="M2253 3705l-184 6"/><path class="s6" d="M2030 3712l-249 10"/><path class="s6" d="M1743 3723l-76 3"/><path class="s6" d="M2277 3703l291-8"/><path class="s6" d="M2568 3695 1119 3171"/><path class="s6" d="M6464 3791l-1713 37"/><path class="s6" d="M3762 2718l666 1124"/><path class="s6" d="M4359 3843l-1003 27"/><path class="s6" d="M3315 3870 1170 2970"/><path class="s6" d="M6260 3907l-2 39"/><path class="s6" d="M6184 3958h-22-1-3-2-2-2l-177 5"/><path class="s6" d="M5924 3963l-146 3-2 1h-1-4-1-1-32"/><path class="s6" d="M5685 3968l-253 5"/><path class="s6" d="M4466 3849h-16"/><path class="s6" d="M4662 3844l-212 5-16-1h-15l-15-1-10-1-10-3-5-2-5-4-135-202"/><path class="s6" d="M4661 3844a84 14-.7045205259328865 0 0 82-15"/><path class="s6" d="M4719 3616l25 210"/><path class="s6" d="M4597 3576l-250 7-9 4-3 5-8 23-5 10-8 5-9 2-66 3"/><path class="s6" d="M4597 3576l-250 7-9 4-3 5-8 23-5 10-8 5-9 2-66 3"/><path class="s6" d="M4239 3635l-607-909"/><path class="s6" d="M1183 2904l1744 776"/><path class="s6" d="M2768 3642l-165 7-6 3-2 5-7 21-4 8-5 5-10 4-56 2-1405-482"/><path class="s6" d="M2768 3642l-165 7-6 3-2 5-7 21-4 8-5 5-10 4-56 2"/><path class="s6" d="M2861 3681l6 3 60-4 423 185 4 3 2 2"/><path class="s6" d="M2513 3697l509 177 8 1 11 5 44 5"/><path class="s6" d="M3084 3884l16 1h16 15l176-4 15-1h11l11-1 6-5 4-1 2-3"/><path class="s6" d="M5429 3973h3"/><path class="s6" d="M5381 3975h-19l-4 2h-2-10-3-2l-143 2"/><path class="s6" d="M5151 3979l-176 4"/><path class="s6" d="M4933 3984l-222 5"/><path class="s6" d="M4669 3990h-6-1l-4-1-2e2 4"/><path class="s6" d="M4416 3995l-41 1h-3-2-10-2-3l-105 3"/><path class="s6" d="M4207 4e3l-50 1h-3-3-9-2-3l-164 3"/><path class="s6" d="M3930 4005l-49 1h-4-1-9-3-4l-64 2"/><path class="s6" d="M3752 4008l-177 4h-4-1-8-3-3l-26 2"/><path class="s6" d="M3486 4014l-115 2h-3-2-9-3-3-14"/><path class="s6" d="M3291 4017l-149 5"/><path class="s6" d="M6250 3955v-2l1-1v-1"/><path class="s6" d="M6251 3951l-1-2h-7l-8-3-8 3h-12l-9 2-9 1-4 1-1 2 1 2 1 1 1 2 3 3 3 2 6 1h3 5 5 2"/><path class="s6" d="M5977 3960l-1 2v1h-1"/><path class="s6" d="M5975 3963l-3 3-5 1-6 1-5 2h-11-2-1l-3-2-2-1-5-2"/><path class="s6" d="M5929 3960l-2 2-3 1"/><path class="s6" d="M5931 3964a2 1 45 0 0-2-3"/><path class="s6" d="M5976 3962h1l1-5"/><path class="s6" d="M5927 3957a4 4 75.96375653207353 0 0-4 6"/><path class="s6" d="M5934 3972l-2-2h-3l-2-3h-2l-1-2"/><path class="s6" d="M5731 3972l-3 1"/><path class="s6" d="M5740 3965h-1v1h-2v1l-3 1"/><path class="s6" d="M5734 3968l-2 2-3 2-6 3h-3-13-2l-3-2-3-1-4-4"/><path class="s6" d="M5698 3977h-3l-1-2-6-3"/><path class="s6" d="M5737 3967l3-1v-1l2-2v-1"/><path class="s6" d="M5742 3962l-3-2h-8-8-11-7l-9 2-8 1-3 2"/><path class="s6" d="M5688 3972l-1-4h-2v-1-1-1"/><path class="s6" d="M5424 3978h1"/><path class="s6" d="M5424 3978h1"/><path class="s6" d="M5425 3978l-2 2"/><path class="s6" d="M5433 3970l-6 6"/><path class="s6" d="M5429 3975l-4 3-2 1-5 1h-4l-12 2-2-2-4-1-2-1-6-1"/><path class="s6" d="M5392 3982h-1l-1-2-6-1"/><path class="s6" d="M5384 3979h4l4-1"/><path class="s6" d="M5430 3973a3 3-71.56505117707799 0 0 3-4"/><path class="s6" d="M5429 3973h1"/><path class="s6" d="M5435 3968l-6-1-5-1h-8-10l-9 1-7 1h-7l-3 2"/><path class="s6" d="M5384 3979v-1l-1-1v-2h-2v-2l-1-1v-2"/><path class="s6" d="M5156 3983l2 1 3 3"/><path class="s6" d="M5190 3984l5-2"/><path class="s6" d="M5202 3975l-6 6"/><path class="s6" d="M5173 3972h-9l-6 1-7 2-1 2"/><path class="s6" d="M5202 3974a26 2-2.232243466440566 0 0-29-2"/><path class="s6" d="M5156 3983v-1h-4v-2h-1v-1h-1v-2"/><path class="s6" d="M4674 3996l-1-1-3-2"/><path class="s6" d="M4702 3996l3-1 3-3"/><path class="s6" d="M4670 3990l4 3 2 2h3v1h4 12l2-1 4-2 4-1 2-2"/><path class="s6" d="M4708 3992v-2l2-1h1l2-1"/><path class="s6" d="M4713 3988l1-1v-3"/><path class="s6" d="M4664 3984l5-1 6-1h8 8 9 7l4 1 3 1"/><path class="s6" d="M4665 3985a2 1-135 1 0 3 5"/><path class="s6" d="M4666 3987l6 6"/><path class="s6" d="M4422 4001l-4-2"/><path class="s6" d="M4418 3999h2"/><path class="s6" d="M4419 3999l-1-3"/><path class="s6" d="M4456 3992l-2 2"/><path class="s6" d="M4416 3996l4 3 3 1 3 1h4 11 3l3-2 4-3 2-1"/><path class="s6" d="M4450 4001h2l3-2"/><path class="s6" d="M4455 3999l2-3 1-1v-2h1l2-3v-1"/><path class="s6" d="M4461 3989h-3l-6-1h-7l-7-1-9 1h-9l-4 1h-4"/><path class="s6" d="M4411 3990a7 4-30.778535687818326 0 0 6 5"/><path class="s6" d="M4213 4005l-2-3"/><path class="s6" d="M4246 3998l-2 2"/><path class="s6" d="M4244 4e3l-4 1-2 1-4 3h-3-11-3-1l-3-1-2-2-3-1"/><path class="s6" d="M4246 4002l-5 3-1 1"/><path class="s6" d="M4246 4002v-1h3v-1h1v-1h1v-3-3"/><path class="s6" d="M4207 4e3l-2-1-2-3v-1-2"/><path class="s6" d="M4251 3993h-2l-8-1h-6l-8-2-10 2h-6l-4 1h-4"/><path class="s6" d="M3970 4003l-2 2"/><path class="s6" d="M3974 4004l-1-2h-4-1"/><path class="s6" d="M3930 4004v1 1"/><path class="s6" d="M3964 4012l4-1"/><path class="s6" d="M3964 4012l2-1h2l2-3"/><path class="s6" d="M3927 4001a4 3-90 0 0 3 4"/><path class="s6" d="M3974 4001h-4l-6-1h-7l-9-1-8 1h-6l-5 1h-3"/><path class="s6" d="M3970 4008l2-2 1-1v-1"/><path class="s6" d="M3794 4011h-4-4"/><path class="s6" d="M3788 4015h1l1-1"/><path class="s6" d="M3751 4006v2h1v1"/><path class="s6" d="M3751 4008l-1-2v-1-1"/><path class="s6" d="M3788 4015l2-1 4-3h1l1-3 2-3-2-1-4-2h-6l-8-1h-8-7l-8 1h-4l-1 2"/><path class="s6" d="M3523 4020l-2 1"/><path class="s6" d="M3519 4021h2l2-1 6-4v-1l1-1 1-3"/><path class="s6" d="M3484 4012l2 2"/><path class="s6" d="M3484 4012h1l1 2"/><path class="s6" d="M3485 4012h-1v-1-2"/><path class="s6" d="M3531 4011l-1-2-6-1-6-2h-7-8-8-8l-3 2v1"/><path class="s6" d="M3332 4024h-3l-1 2"/><path class="s6" d="M3327 4026h1l4-2 2-3v-1h1v-3l2-1v-1-1"/><path class="s6" d="M3290 4015v1l1 1"/><path class="s6" d="M3290 4015l1 2"/><path class="s6" d="M3329 4015l-2 2"/><path class="s6" d="M3291 4009a13 4 22.092711475120144 0 0-1 5"/><path class="s6" d="M3337 4014h-2l-6-2-5-1h-9-8-7-6"/><path class="s6" d="M4939 3990l-1-1-4-1"/><path class="s6" d="M4967 3990v-1l6-2"/><path class="s6" d="M4933 3984l5 4 2 1h3l1 1h3 10l4-1 5-1 3-1 4-3"/><path class="s6" d="M4977 3982l1-2v-1"/><path class="s6" d="M4929 3979l4-1 6-1h8 9 9 8l4 1 1 1"/><path class="s6" d="M4928 3979a2 1-135 1 0 3 5"/><path class="s6" d="M4950 5797l-25-20"/><path class="s6" d="M4952 5805l-2-8"/><path class="s6" d="M4923 5775h3 2"/><path class="s6" d="M4923 5775l-4 5"/><path class="s6" d="M4884 5774h4"/><path class="s6" d="M4879 5783h1l4-9"/><path class="s6" d="M4880 5783h-1l-2 1h-1l-21 9"/><path class="s6" d="M4855 5795v-2"/><path class="s6" d="M4855 58e2v-4-1"/><path class="s6" d="M4891 5780h-1"/><path class="s6" d="M4469 5779l3-5"/><path class="s6" d="M4471 5774l-14-9-2-1v-2h-2-1"/><path class="s6" d="M4453 5764l-1-2-7-10"/><path class="s6" d="M4445 5752h-4"/><path class="s6" d="M4410 5752l-2-2"/><path class="s6" d="M4402 5766l-18 3"/><path class="s6" d="M4384 5769l-3 7"/><path class="s6" d="M4406 5754l-4 5v6 3"/><path class="s6" d="M4410 5757h-2"/><path class="s6" d="M3858 5742l-9-9v-1l-1-1h-3-1"/><path class="s6" d="M3827 5720l-1 1"/><path class="s6" d="M3848 5731h-1-2l-18-11h-2-3"/><path class="s6" d="M3792 5719h3"/><path class="s6" d="M3795 5719h-5-1"/><path class="s6" d="M3787 5721l-10 8-5 14"/><path class="s6" d="M3795 5726h-1"/><path class="s6" d="M4023 5750l-7-7v-1l-3-1h-3"/><path class="s6" d="M3994 5728h-2"/><path class="s6" d="M4013 5741h-1-2l-16-13h-4-2"/><path class="s6" d="M3958 5727h1"/><path class="s6" d="M3959 5727h-3-2"/><path class="s6" d="M3937 5749l4-4 3-5 8-7 1-3 1-3"/><path class="s6" d="M3959 5733h-1"/><path class="s6" d="M3429 5727l2-3"/><path class="s6" d="M3431 5724v-3l-7-11-2-1h-2v-1l-1 1"/><path class="s6" d="M3430 5721v-1"/><path class="s6" d="M3389 5701l2-3h3 3l23 11h1 1"/><path class="s6" d="M3360 5697h4"/><path class="s6" d="M3359 5696a13 5-81.70633072153629 0 0-6 17"/><path class="s6" d="M3356 5722l-2-1-1-2v-5"/><path class="s6" d="M3353 5716h-4l-9 6"/><path class="s6" d="M1651 3733l-630-155"/><path class="s6" d="M4321 2850l-1 36-9 16"/><path class="s6" d="M4329 2863v39"/><path class="s6" d="M4097 2926l1 6 1 3 6 13"/><path class="s6" d="M4386 2798a220 97 .32490091652893155 0 0-394 52"/><path class="s6" d="M4340 2947a2e2 92-.5595679376076887 0 0 75-42"/><path class="s6" d="M3992 2859a220 97 .5040121238556737 0 0 92 84"/><path class="s6" d="M4113 2975a99 40 1.103714766967655 0 0-53 34"/><path class="s6" d="M4429 2967l-14-5-27-3h-28l-37 3"/><path class="s6" d="M4104 2847v49l6 17 5 8 4 2"/><path class="s6" d="M4385 2983h-16l-71 3"/><path class="s6" d="M4477 3164l-9 3-21 3-23 4-190 11"/><path class="s6" d="M4567 3696l8 4"/><path class="s7" d="M3069 3874l-544-195m-913 33"/><path class="s6" d="M3085 3781l2 18-6 10-14 5-45 1-33-6-10-9-4-6-1-21"/><path class="s6" d="M4573 3728l-17 12-12 1h-23l-21-1-16-3-13-4-7-6"/><path class="s6" d="M7499 3264 6470 3830l-204 119-19 6"/><path class="s6" d="M7477 3206 6476 3783l-201 119-20 6"/><path class="s6" d="M4659 3841 4384 2703"/><path class="s6" d="M4719 3616l-104-914"/><path class="s6" d="M1939 5989l716-318"/><path class="s6" d="M1930 5910l515-211"/><path class="s6" d="M1712 3730l131 1344 109 1041"/><path class="s6" d="M1930 5841l269-104 24-29 32-70"/><path class="s6" d="M1916 5769l321-115 27-23 6-30-15-42-47-54-137-136-97-104-62-71-63-82"/><path class="s7" d="M1836 4938l125 169 63 87m7 10m33 35 80 85 146 144 32 28m32 29 43 38m39 35 46 41 50 46"/><path class="s6" d="M2512 5660l101 6"/><path class="s6" d="M3082 4024l-136 3h-4-1-8-3-3l-26 2"/><path class="s6" d="M2857 4029l-115 2h-3-1-10-2-4"/><path class="s6" d="M2890 4036h2l3-2 5-3v-1l1-1 1-3"/><path class="s6" d="M2855 4027l2 2"/><path class="s6" d="M2855 4027h1l1 2"/><path class="s6" d="M2856 4027h-1v-1-1"/><path class="s6" d="M2902 4026l-1-1-5-1-7-3h-7-8-8-7l-4 3v1"/><path class="s6" d="M3122 4031h2l2-2 5-3v-1l1-1 2-3"/><path class="s6" d="M3087 4022l2 2"/><path class="s6" d="M3087 4022h1l1 2"/><path class="s6" d="M3088 4022h-1v-1-1"/><path class="s6" d="M3134 4021l-2-1-5-1-6-4h-7-10-6-8l-3 4v1"/><path class="s6" d="M2709 4040h3l2-1 4-3v-1l2-1 1-4"/><path class="s6" d="M2674 4032h1l1 2"/><path class="s6" d="M2675 4032h-1v-2-1"/><path class="s6" d="M2721 4030l-1-1-5-1-7-2h-7-9-7-8l-3 2v1"/><path class="s6" d="M2582 4044h2l3-1 4-5v-1l1-1 1-3"/><path class="s6" d="M2546 4034h2l1 2"/><path class="s6" d="M2548 4034h-2v-1-1"/><path class="s6" d="M2593 4033l-1-1-4-1-7-2h-6-10-7-7l-5 2v1"/><path class="s6" d="M2307 4053h2l2-1 6-3v-1l1-1 1-4"/><path class="s6" d="M2272 4044h1l1 3"/><path class="s6" d="M2273 4044h-1v-1-1"/><path class="s6" d="M2319 4043l-1-1-6-2-6-2h-7-10-6-8l-3 2v2"/><path class="s6" d="M2890 4036h2l3-2 5-3v-1l1-1 1-3"/><path class="s6" d="M2855 4027h1l1 2"/><path class="s6" d="M2856 4027h-1v-1-1"/><path class="s6" d="M2902 4026l-1-1-5-1-7-3h-7-8-8-7l-4 3v1"/><path class="s6" d="M2235 4054h3l2-1 4-3v-1l2-2 1-3"/><path class="s6" d="M2201 4045h1l1 2"/><path class="s6" d="M2202 4045h-1v-1-1"/><path class="s6" d="M2247 4044l-1-1-5-1-7-3h-6-10-7-7l-3 3v1"/><path class="s6" d="M2072 5077l229 162"/><path class="s6" d="M2306 5281l-225-167 239 314"/><path class="s6" d="M2322 5474l-273-360 10 120"/><path class="s7" d="M3119 4030l7 192m0 26 5 99 4 96m1 25 7 192m1 26 3 75 5 111m2 27 8 182m2 28 6 130 2 47m1 29 10 174m1 27 9 167"/><path class="s7" d="M3091 4029l7 193m1 26 3 98 5 97m1 25 7 191m1 27 3 74 5 112m1 24 9 183m2 29 6 130 2 46m2 29 10 176m1 24 9 173"/><path class="s7" d="M2044 5049l-16-165m-2-30-13-137-4-34m-3-32-14-172m-4-31v-4l-15-174m-3-33-16-178"/><path class="s6" d="M3098 4222l-197 2"/><path class="s6" d="M3099 4248l-197 6"/><path class="s6" d="M3107 4443l-195 1"/><path class="s6" d="M3108 4468l-194 3"/><path class="s7" d="M2889 4033l12 191m1 30 7 118 3 72m2 27 10 187"/><path class="s7" d="M2862 4037l12 188m1 30 7 121 3 68m2 26 9 188"/><path class="s6" d="M3115 4659l-191-1"/><path class="s6" d="M3116 4686H2925"/><path class="s6" d="M3124 4872l-189-4"/><path class="s6" d="M3125 4896l-189-2"/><path class="s6" d="M3134 5079l-188-4"/><path class="s6" d="M3136 5108l-188-5"/><path class="s6" d="M3144 5284l-188-7"/><path class="s6" d="M3146 5313l-188-7"/><path class="s6" d="M3156 5489l-188-11"/><path class="s6" d="M3157 5513l-188-8"/><path class="s7" d="M2925 4686l1 13 9 169m1 26 10 174v7m2 28 8 174m2 29 10 172"/><path class="s7" d="M2898 4685l1 17 9 165m1 27 9 180m3 28 9 174m1 29 9 172"/><path class="s6" d="M2969 5505l9 175"/><path class="s6" d="M2941 5504l11 180"/><path class="s6" d="M2581 4039l14 191"/><path class="s6" d="M2555 4048l12 182"/><path class="s6" d="M2707 4033l13 195"/><path class="s6" d="M2683 4040l12 188"/><path class="s6" d="M2721 4257l11 187"/><path class="s6" d="M2697 4257l11 187"/><path class="s6" d="M2886 4444h-99-55"/><path class="s6" d="M2887 4470l-152 2"/><path class="s6" d="M2709 4472l13 185"/><path class="s6" d="M2896 4658h-43l-107-1"/><path class="s6" d="M2735 4472l11 185"/><path class="s6" d="M2898 4685l-147-1h-3"/><path class="s6" d="M2723 4684l5 70 7 111"/><path class="s6" d="M2908 4867l-148-2"/><path class="s6" d="M2748 4684l4 64 8 117"/><path class="s6" d="M2909 4894l-148-2"/><path class="s6" d="M2918 5074l-147-3"/><path class="s6" d="M2921 5102l-148-5"/><path class="s7" d="M2761 4892l10 178m2 28 11 172"/><path class="s7" d="M2736 4891l11 179m1 26 11 173"/><path class="s6" d="M2930 5276l-146-6"/><path class="s6" d="M2931 5305l-146-6"/><path class="s6" d="M2940 5477l-145-7"/><path class="s6" d="M2941 5504l-144-6"/><path class="s6" d="M2785 5299l10 171"/><path class="s6" d="M2797 5498l10 162"/><path class="s6" d="M2761 5297l9 172"/><path class="s6" d="M2772 5497l11 170"/><path class="s6" d="M2680 5493l11 161"/><path class="s6" d="M2653 5492l12 170"/><path class="s6" d="M2770 5469l-92-5"/><path class="s6" d="M2772 5497l-92-4"/><path class="s6" d="M2759 5269l-94-3"/><path class="s6" d="M2667 5293l11 171"/><path class="s6" d="M2639 5292l12 171"/><path class="s6" d="M2761 5297l-94-4"/><path class="s6" d="M2747 5070l-34-1-62-1"/><path class="s6" d="M2748 5096l-82-2-13-1"/><path class="s6" d="M2735 4865l-85-2h-13"/><path class="s6" d="M2736 4891h-27l-70-1"/><path class="s7" d="M2599 4684l6 90 6 89m2 27 11 177m2 25 6 101 5 72"/><path class="s6" d="M2722 4657l-98-1"/><path class="s7" d="M2626 4684l5 82 6 97m2 27 12 178m2 25 5 93 7 80"/><path class="s6" d="M2723 4684h-97"/><path class="s6" d="M2708 4444l-99 1"/><path class="s6" d="M2709 4472l-98 1"/><path class="s6" d="M2569 4259l6 71 7 115"/><path class="s6" d="M2584 4473l13 183"/><path class="s6" d="M2597 4258l4 65 8 122"/><path class="s6" d="M2611 4473l13 183"/><path class="s6" d="M1838 4084l83 919"/><path class="s6" d="M1891 4073l77 1030"/><path class="s6" d="M1929 4063l1e2 1168"/><path class="s6" d="M1754 4097l197-37 16-8"/><path class="s6" d="M2307 4050l15 184"/><path class="s6" d="M2280 4042l16 192"/><path class="s7" d="M2874 4225l-154 3m-25 0-1e2 2m-28 0-215 3-30 1"/><path class="s7" d="M2875 4255h-47l-107 2m-24 0-1e2 1m-28 1-245 3"/><path class="s6" d="M2234 4047l14 188"/><path class="s6" d="M2208 4042l16 193"/><path class="s6" d="M2296 4234l-48 1"/><path class="s6" d="M2224 4235l-254 3"/><path class="s6" d="M2298 4263h-48"/><path class="s6" d="M2226 4264l-255 3"/><path class="s7" d="M2582 4445l-243 1m-27 0h-48"/><path class="s6" d="M2243 4475l-251 2"/><path class="s6" d="M2298 4263l6 81 8 102"/><path class="s6" d="M2250 4263l7 90 7 93"/><path class="s6" d="M2226 4264l6 74 8 108"/><path class="s6" d="M2240 4446l-250 1"/><path class="s6" d="M2324 4262l8 95 7 89"/><path class="s6" d="M2584 4473l-242 2"/><path class="s6" d="M2314 4475h-47"/><path class="s6" d="M2243 4475l15 178"/><path class="s6" d="M2342 4475l13 179"/><path class="s6" d="M2314 4475l15 179"/><path class="s6" d="M2258 4653l-251-1"/><path class="s6" d="M2260 4683l-254-1"/><path class="s6" d="M2267 4475l15 179"/><path class="s6" d="M2597 4656l-242-2"/><path class="s6" d="M2329 4654h-47"/><path class="s6" d="M2599 4684l-241-1"/><path class="s6" d="M2331 4683h-47"/><path class="s6" d="M2275 4859l-250-3"/><path class="s6" d="M2613 4890l-239-3"/><path class="s6" d="M2348 4887l-47-1"/><path class="s6" d="M2284 4683l1 5 14 171"/><path class="s6" d="M2260 4683l15 176"/><path class="s7" d="M2277 4886l13 170m3 27 2 23 30 393"/><path class="s6" d="M2277 4886l-250-3"/><path class="s6" d="M2358 4683l9 109 5 68"/><path class="s6" d="M2331 4683l9 95 6 82"/><path class="s6" d="M2611 4863l-239-3"/><path class="s6" d="M2346 4860l-47-1"/><path class="s6" d="M2624 5067l-236-8"/><path class="s6" d="M2626 5092l-236-7"/><path class="s6" d="M2364 5085l-47-2"/><path class="s6" d="M2362 5058l-48-1"/><path class="s6" d="M2374 4887l14 163v9"/><path class="s6" d="M2348 4887l14 171"/><path class="s6" d="M2301 4886l13 171"/><path class="s7" d="M2317 5083l3 38 10 132m2 28 14 165m2 34 3 43"/><path class="s6" d="M2293 5083l-221-6"/><path class="s6" d="M2290 5056l-246-7"/><path class="s6" d="M2637 5265l-234-8"/><path class="s6" d="M2377 5256l-46-2"/><path class="s6" d="M2379 5282l-48-1"/><path class="s6" d="M2390 5085l10 130 3 42"/><path class="s7" d="M2405 5283l13 168m3 30 10 118"/><path class="s6" d="M2364 5085l9 116 4 55"/><path class="s7" d="M2379 5282l13 167m2 31 9 109"/><path class="s6" d="M2639 5292l-234-9"/><path class="s6" d="M2651 5463l-233-12"/><path class="s6" d="M2392 5449l-48-2"/><path class="s6" d="M2653 5492l-232-11"/><path class="s6" d="M2394 5480l-46-2"/><path class="s6" d="M1967 4052l229-6"/><path class="s6" d="M2325 4042l218-6"/><path class="s6" d="M2671 4032l-74 2"/><path class="s6" d="M2270 4044h-21"/><path class="s6" d="M1744 4015l142-27"/><path class="s6" d="M1898 3974l-4 27 5 24 16 24 19 7h16l7-5 4-14"/><path class="s6" d="M1887 3974v-20h15"/><path class="s6" d="M1877 3956l-25-6-1-13 121-4 80 21-31 2"/><path class="s6" d="M1911 3949l11 40-7 10 2 10 7 6 7-2 3-8-5-9-4-6"/><path class="s6" d="M1971 3957l-23 52-10 12-8-2"/><path class="s6" d="M2020 3957l3 55-16 1-7-43"/><path class="s6" d="M1957 4026l5 11 33-1 4-10 24-9"/><path class="s6" d="M2029 3990l709-10 490-14 434-7 646-17 725-15 706-14"/><path class="s6" d="M5980 3952l-3-1h-7-8-10-9l-9 1-6 1-3 2"/><path class="s6" d="M1735 3944l142 35"/><path class="s6" d="M1728 3897l156 35"/><path class="s6" d="M1885 3759l101-1 81 28-41 7"/><path class="s6" d="M1910 3763l1 41 24 15 41 7 38-3 11-13 2-36"/><path class="s6" d="M1916 3796l30-7 38 1 35 10"/><path class="s6" d="M1885 3759h-16l39 20"/><path class="s7" d="M2432 3757l28-2 42 5 17 13-8 11-14 9-22 1-28-4-17-13-9-17z"/><path class="s7" d="M2608 3811l26-4 37 6 17 11-8 11-12 7-20 1-25-4-16-12-8-14z"/><path class="s7" d="M2772 3864l23-2 33 4 14 9-7 10-11 6-16 2-23-4-13-10-7-13z"/><path class="s7" d="M2932 3914l19-2 28 4 12 9-6 7-9 6h-15l-19-3-11-8-6-11z"/><path class="s7" d="M3059 3954l16-1 22 3 10 6m-5 6m-7 5m-11 1m-16-2m-10-8-4-8 5-2"/><path class="s6" d="M3165 5679l-5 5-2 9v7l4 7"/><path class="s6" d="M3160 5705l-7 3-3 4"/><path class="s7" d="M3194 5680l-4 10m0 10m3 11m2 2m29-20-19-10-6-2-5-1"/><path class="s6" d="M3224 5693l8 10 1 2-5 4-6 3-6 2h-9"/><path class="s6" d="M2952 5672l-5 4-2 9v8l4 7"/><path class="s6" d="M2947 5697l-7 3"/><path class="s7" d="M2981 5672l-4 10m0 10m2 8m32-15-19-9-6-2-5-2"/><path class="s6" d="M3009 5689l11 9-5 3"/><path class="s6" d="M2781 5660l-5 4-2 8 1 9 5 9"/><path class="s6" d="M2778 5687l-5 1-3 3"/><path class="s6" d="M2848 5675l-9-3-16-8-8-2-7-1-4 7v10"/><path class="s7" d="M2847 5675l3 7 2 4-9 5-8 3m-10 1m-5-2m-5-1"/><path class="s6" d="M2663 5655l-6 4-1 8 1 8 5 9"/><path class="s6" d="M2660 5681l-5 2-4 5"/><path class="s7" d="M2694 5655l-5 5-2 11 1 7m5 3m2 7 32-14-2-11-22-6-5-2h-4"/><path class="s6" d="M5274 5823l-91-5-25-1-68-4-28-1-110-7-121-4-142-9-94-4"/><path class="s6" d="M4703 5781v8"/><path class="s6" d="M4595 5788l-149-7-101-6-119-7-111-5-145-8-69-5"/><path class="s6" d="M4023 5750v6"/><path class="s6" d="M3901 5750l-135-6"/><path class="s6" d="M3858 5742v5"/><path class="s6" d="M3766 5744l-167-9-85-4"/><path class="s6" d="M3608 5728l1 6"/><path class="s6" d="M3514 5731l-191-10-179-8-229-13"/><path class="s6" d="M2915 57e2l-171-9-93-3"/><path class="s6" d="M2728 5669l43 1"/><path class="s6" d="M2851 5674l92 6"/><path class="s6" d="M3012 5684l143 6"/><path class="s6" d="M3227 5694l125 7"/><path class="s6" d="M3421 5705l112 5"/><path class="s6" d="M3599 5714l184 9"/><path class="s6" d="M3848 5727l1e2 4"/><path class="s6" d="M4011 5734l191 11"/><path class="s6" d="M4263 5748l134 7"/><path class="s6" d="M4456 5758l174 9"/><path class="s6" d="M4692 5770l183 9"/><path class="s6" d="M4932 5781l150 8"/><path class="s6" d="M5139 5793l150 7"/><path class="s6" d="M5353 5803l92 6 11 23"/><path class="s6" d="M5498 5849l54 183 97 422 130 667"/><path class="s6" d="M1028 6532l921-413 92 2-2 11-970 462"/><path class="s6" d="M2249 5657l16-4 50 29 39 15 30 4 29-3 73-7 28-2"/><path class="s6" d="M2459 5691l-84-76-98-90-89-85-74-69-66-68-59-66-47-57-57-77-39-53"/><path class="s6" d="M2272 5597l74 63 46 36"/><path class="s6" d="M2404 5693l19-7 17-1 10 3"/><path class="s6" d="M2325 5499l1 20"/><path class="s6" d="M2351 5523v14"/><path class="s6" d="M2324 5517l-4 7 2 8 10 9 15 4 12-2 3-8"/><path class="s6" d="M2401 5584l-4 2-2 6 5 11 13 7 16 2 7-4 2-8"/><path class="s6" d="M2067 5240l-4 8-14 1-17-6-9-7-2-7 5-7"/><path class="s6" d="M1921 5003l5 52"/><path class="s6" d="M2610 5663l44 2"/><path class="s6" d="M1498 6605l-41 33 21 177h39l67-40"/><path class="s6" d="M1154 6666l80-18 95-17 70-9 74-6"/><path class="s6" d="M1221 6740l149-27 88-13"/><path class="s6" d="M1464 6768l-87 9-109 20"/><path class="s6" d="M1553 6608l-49 36 18 166"/><path class="s6" d="M1460 6639l44 5"/><path class="s6" d="M1534 6766l134 1 399 40 380 35"/><path class="s6" d="M1522 6697l117 1 232 19 574 61"/><path class="s6" d="M1140 6566l403 36 33 5 17 19 204 18 29-9 47 5 393 38 427 39 89 7 18 13 20 9 224 21 43-7h67l841 80 214 22 24 14 16 6 151 18 36-4 28-9 695 68 387 40h19l11-19-2-16-456-45-498-48-495-49-466-40-580-52-412-40-431-42-421-46-612-61"/><path class="s6" d="M1577 6786l420 45 456 50"/><path class="s6" d="M2642 6902l531 54"/><path class="s6" d="M2680 6860l511 52"/><path class="s6" d="M4381 7040l628 61"/><path class="s6" d="M4395 7090l218 24"/><path class="s6" d="M5734 6927l-155 56"/><path class="s6" d="M5529 7003l-389 109"/><path class="s6" d="M5619 7103l142-49"/><path class="s6" d="M5412 7109l342-104"/><path class="s6" d="M2488 67e2l-40 34 10 177 48 3"/><path class="s6" d="M2543 6703l-48 36 11 175"/><path class="s6" d="M2450 6735l45 4"/><path class="s6" d="M2529 6721l51 11 45 12 34 26"/><path class="s6" d="M2659 6770c5 11 13 27 14 44 2 34-23 68-51 93"/><path class="s6" d="M2622 6907l-186 210"/><path class="s6" d="M2509 6784l59 8 32 8 13 13-1 19-26 37-223 246"/><path class="s6" d="M2509 6851l33 4 16 11 5 23"/><path class="s6" d="M2638 6897l-5 40-8 29-12 35-33 53-36 63"/><path class="s6" d="M2506 6914l27-23"/><path class="s6" d="M2510 6887l52 4"/><path class="s6" d="M2511 7046l-15 24-33 47"/><path class="s6" d="M1472 6998c20-19 40-38 60-57 24-22 49-44 75-62 4-3 8-5 12-8"/><path class="s6" d="M1432 6961c20-19 40-38 60-57 24-22 48-44 75-62"/><path class="s6" d="M1393 6921c8-10 14-14 20-19 19-15 38-30 57-44 13-11 27-21 41-31"/><path class="s6" d="M1319 6794l147 57"/><path class="s6" d="M1599 6898l194 63 545 148"/><path class="s6" d="M1565 6929l204 69 29 22 133 38h29l222 56"/><path class="s6" d="M1543 7061l165 55"/><path class="s6" d="M1503 6980l232 80 181 56"/><path class="s6" d="M1430 6881l-118-43"/><path class="s6" d="M2210 6861l10 212"/><path class="s6" d="M2395 6877l17 181"/><path class="s6" d="M2925 6938l-78 84-11 38 3 59"/><path class="s6" d="M2949 7110l-10-168"/><path class="s6" d="M3010 6948l7 133"/><path class="s6" d="M2904 6948l-18-6-21 1-17 2"/><path class="s6" d="M2761 6915l-12 25-3 23 9 25 19 2 9-15"/><path class="s6" d="M2796 6923l-6 17-6 26 5 23 16 7 13-12"/><path class="s6" d="M2819 6951l2 59 15 1 19-26"/><path class="s6" d="M2819 6951l15-27"/><path class="s6" d="M2848 6979l18 4 15 1"/><path class="s6" d="M2884 6704l11-17 20-17 44 2 111 10 8 8-6 12-10 19"/><path class="s6" d="M3495 6796l-24 35 7 189 50 3"/><path class="s6" d="M3542 6802l-21 35 7 186"/><path class="s6" d="M3474 6832l47 5"/><path class="s6" d="M3528 7023l17-26"/><path class="s6" d="M3472 6817l-67-3"/><path class="s6" d="M3405 6814c-20 1-40 2-60 5-29 4-59 12-83 30-14 10-26 24-38 34"/><path class="s6" d="M3224 6883l-47 71-107 165"/><path class="s6" d="M3468 6898l-61-3"/><path class="s6" d="M3407 6895c-20 1-34 2-48 4-14 2-28 6-37 9-6 3-10 5-13 8-6 4-11 11-24 21"/><path class="s6" d="M3285 6937l-40 61-79 123"/><path class="s6" d="M3473 6979l-80-7-82 19-80 50"/><path class="s6" d="M3061 6948l-13 26-2 23 8 25 20 1 8-15"/><path class="s6" d="M2991 7111l56-54 54-49 58-37"/><path class="s6" d="M3099 6950l-12 26-3 23 7 18"/><path class="s6" d="M3975 6839l-24 35 7 188 50 3"/><path class="s6" d="M4021 6850l-20 30 7 185"/><path class="s6" d="M3954 6875l47 5"/><path class="s6" d="M4008 7065l17-23"/><path class="s6" d="M3535 6826l408 45"/><path class="s6" d="M3530 6905l417 40"/><path class="s6" d="M3530 6991l418 35"/><path class="s6" d="M4018 6885l92 11"/><path class="s6" d="M4110 6896c26 5 52 9 77 19 44 18 84 56 111 86"/><path class="s6" d="M4298 7001l108 115"/><path class="s6" d="M4018 6952l79 11"/><path class="s6" d="M4097 6963c26 5 47 9 64 16 10 4 19 9 30 17 19 13 42 34 59 54"/><path class="s6" d="M4250 7050l68 71"/><path class="s6" d="M4023 7035l59 10"/><path class="s6" d="M4082 7045c26 4 41 9 48 12 5 1 7 2 12 6 10 8 33 27 50 46"/><path class="s6" d="M4192 7109l12 12"/><path class="s6" d="M3375 7034l7-9 14 1 11 16 3 43-6 18-19-2-6-7"/><path class="s6" d="M3317 7071l17-5 21 6 9 21 2 19"/><path class="s6" d="M3297 7104l17-4 20 5 8 16"/><path class="s6" d="M3297 7104l20-33"/><path class="s6" d="M3366 7112l-5 9"/><path class="s6" d="M3454 7023l10 20v28l-10 27"/><path class="s6" d="M3297 7104l-12 17"/><path class="s6" d="M3317 7071l21-20 24-14 26-3"/><path class="s6" d="M3366 7112l13-16 17-5"/><path class="s6" d="M3396 7026l58-3"/><path class="s6" d="M3454 7098l-50 2"/><path class="s6" d="M3461 7033l69 1 46 5 58 7 64 1 58-12 35-11"/><path class="s6" d="M3460 7089l67 1 42 5 61 7 74 1 66-14 85-30"/><path class="s6" d="M3874 7070l-23 14-9 19 7 19"/><path class="s6" d="M3880 7111l-3-78"/><path class="s6" d="M3916 7035l17 83"/><path class="s6" d="M4124 7060l14 59"/><path class="s6" d="M3230 7116l94-122"/><path class="s6" d="M3367 7028l34-47"/><path class="s6" d="M3615 7006l-20 34"/><path class="s6" d="M3564 7097l-14 23"/><path class="s6" d="M3484 7095l-15 22"/><path class="s6" d="M1559 6822l94 11 36-25"/><path class="s6" d="M1692 6808l8 50-41 30h-36"/><path class="s6" d="M1651 6837l9 48"/><path class="s6" d="M2546 5761l27 13 119 43"/><path class="s6" d="M2576 5710l90 57 17 11"/><path class="s6" d="M2682 5778l-12 9-2 10 11 11 149 75"/><path class="s6" d="M2720 5801l197 101"/><path class="s6" d="M2669 5795l370 20"/><path class="s6" d="M2683 5776l373 18"/><path class="s6" d="M2518 5828l58 39"/><path class="s6" d="M2418 5856l59-23 24-13"/><path class="s6" d="M2540 5849l-29 16"/><path class="s6" d="M2514 5792l133 73 23 12"/><path class="s6" d="M2606 5727l3-17 7-19"/><path class="s6" d="M2615 5703l464 23 71 3 10 7 13 6"/><path class="s6" d="M3274 5745h25l25-7 324 17 86 5 13 3 8 6 8 3 249 12 16-4 21-4 351 20 108 5 13 3 15 5 97 6 12-7h26l425 25 337 18"/><path class="s6" d="M5455 6025l-10-25-9-141 7-7 10-1 17-2 25 3"/><path class="s6" d="M5440 5856l68 170"/><path class="s6" d="M5424 5851l-132 62-19 3h-11l-5 7 3 9v11l-214-12-187-9-295-16"/><path class="s6" d="M5258 5920l-228-12-472-28"/><path class="s6" d="M5434 5872l-103 49-69 30-98 37-97 33"/><path class="s6" d="M4999 6016l71-22 104-35 45-17"/><path class="s6" d="M5363 6024l79-34"/><path class="s6" d="M5213 6025l103-41 120-55"/><path class="s6" d="M4819 63e2l166-39 185-52 145-46 155-64 85-42"/><path class="s6" d="M4915 6303l92-25 190-56 143-43 119-46 103-49"/><path class="s6" d="M5172 6324l138-46 154-54 114-49"/><path class="s7" d="M5551 6047l-618-30-459-27-498-29-601-37-372-21m-99-6m-62-4-6e2-36"/><path class="s6" d="M2272 5954l463 27"/><path class="s6" d="M2352 5985l358 17"/><path class="s7" d="M2932 5995l18 1m24 2 660 46 541 37 641 35 517 34"/><path class="s6" d="M29e2 6016l685 50 541 37 641 35 517 34"/><path class="s6" d="M3609 6067l-34 143"/><path class="s6" d="M3782 6080l3 142"/><path class="s6" d="M3634 5934l13-22 140 7-10 27"/><path class="s6" d="M4369 6672l145-15 193-20 206-34 257-62"/><path class="s6" d="M4329 6708l145-12 243-32 216-39 215-52 92-24"/><path class="s6" d="M5399 6458l151-47 80-34"/><path class="s6" d="M5480 6470l72-27 82-30"/><path class="s6" d="M4645 6864l68-8 32-49 37-3 53 38 190-32 30-57 48-8 57 35 195-52 28-64 37-9 68 36 109-41 80-37"/><path class="s6" d="M4499 6840l246-33"/><path class="s6" d="M4782 6804l273-51"/><path class="s6" d="M5103 6745l280-81"/><path class="s6" d="M5420 6655l241-87"/><path class="s6" d="M4150 6795l343-23 256-41 257-54 240-54 183-54"/><path class="s6" d="M4788 6817l-6 64"/><path class="s6" d="M5160 6787l7 123"/><path class="s6" d="M5032 6815l3 85"/><path class="s6" d="M4835 6853l-2 26"/><path class="s6" d="M5363 6738l35 195"/><path class="s6" d="M5488 6706l56 243"/><path class="s6" d="M4716 6859l-4 14"/><path class="s6" d="M5414 6667l62 275"/><path class="s6" d="M5091 6753l9 145"/><path class="s6" d="M5569 6398l-3-25-14-20-28-10-566-32-214-17-205-14-27-8-93-7-34 5-296-24-321-21-2e2-16-38-8-83-8-115-2-93-5-434-36-168-10-33-6-198-16-455-32"/><path class="s6" d="M2016 6150l507 41 25-7 28-3 27-2 687 51 46 8 49 10 120 9 45-5 644 48 182 17 35 12 67 3 46-8 193 12 847 64"/><path class="s6" d="M5302 6326l27-22h28l33 8 19 12 138-54 10-42 13-15 17-9"/><path class="s6" d="M5559 6279l36 101"/><path class="s6" d="M5644 6644l69 199"/><path class="s6" d="M2694 6140l271-168 2-12-5-12v-37"/><path class="s6" d="M2514 6123l26-15 2-15 10-10 20 3 37-20 5-15 20-15 13 3 38-20 4-14 16-8 15 5 32-19 1-15 20-8 15 7 37-24 7-20 15-4 20 2"/><path class="s6" d="M2919 5924l-26 16-1 15-10 10-20-3-36 21-5 16-20 15-13-3-38 21-3 14-16 9-16-5-31 19-1 15-20 9-15-6-36 24-6 17v3"/><path class="s6" d="M2842 5893l7 7 35 5 80 2 25-4h14"/><path class="s6" d="M3082 5899l165-106 2-45 23-3"/><path class="s6" d="M2925 5870l21-14 22 2 17-9 5-15 20-16 14 4 38-20 3-14 17-8 15 5 32-19 1-15 20-8 15 6 19-11 8-8"/><path class="s6" d="M3259 5748l-20-3-37 21-4 15-20 16-13-3-38 21-3 13-17 9-15-4-31 19-1 15-20 9-18-4-19 5"/><path class="s6" d="M2919 5924l14 4 20-5 11-16"/><path class="s6" d="M2867 5921l20-13"/><path class="s6" d="M2985 59e2l2-10 16-13"/><path class="s6" d="M2945 5899l-1-16h-15l-4-13"/><path class="s6" d="M2858 6041l-32 109"/><path class="s6" d="M2952 5982l5 19 7 4 4-2-2-31"/><path class="s6" d="M3250 5762l21 46"/><path class="s7" d="M3235 5805l307 19 280 16 353 18 364 21m19 1"/><path class="s6" d="M3210 5823l194 14"/><path class="s6" d="M3809 6091l20 22 37 24 38 5 42-12 28-34"/><path class="s6" d="M3844 5943l43-15 52 5 28 20"/><path class="s6" d="M3794 6127l45 3"/><path class="s6" d="M3947 6137l93 3 122 3 170-1 131-7"/><path class="s6" d="M3795 6173l115 8 188 9h205l154-5"/><path class="s7" d="M3438 5843h8l6 5 4 7-1 7-5 4h-8l-7-5-3-7 1-7z"/><path class="s6" d="M3431 5838l5-8 6-4h11l9 4 6 10 3 10-4 10"/><path class="s6" d="M3437 5829l1-11 23-17v-8-13l5-5 11-2 31 2 3 7v22l-7 8-13 12-1 8"/><path class="s6" d="M3639 5834l1-11 23-17v-8-13l5-5 11-2 30 2 4 7v22l-7 8-13 12-1 8"/><path class="s6" d="M4074 5864l2-13 10-20 2-24 5-4 47 2 2 6v24l-10 19-1 11"/><path class="s6" d="M4089 5832l50 3"/><path class="s6" d="M3665 5807l46 3"/><path class="s6" d="M3463 5802l44 1"/><path class="s6" d="M4336 5868l1-12 11-21 2-23 5-4 47 1 2 6v25l-10 18-1 11"/><path class="s6" d="M4351 5836l50 3"/><path class="s6" d="M4479 5880l1-12 11-21 2-23 4-5 47 2 2 6v24l-10 19-1 11"/><path class="s6" d="M4494 5848l49 3"/><path class="s6" d="M3223 5907l10-15 10-2 11 3 4 6v13"/><path class="s7" d="M3480 5868l66 2 78 1m23 0m31 3 170 14 239 17m23-2 218 8m31-10m19 10h98"/><path class="s6" d="M3480 5844l46 1 96 2"/><path class="s6" d="M3677 5852l60 6 119 9 117 8 92 6"/><path class="s6" d="M4121 5883l195 5"/><path class="s6" d="M4524 5889l13 11 2 20-8 36-10 30"/><path class="s7" d="M4520 5907m13 5m12 5 7 2 9 7m15 10 7 5 15 24 5 23"/><path class="s6" d="M4402 5856l41-2 35 3"/><path class="s6" d="M4543 5870l22 36 3 27-6 33-10 22"/><path class="s6" d="M4788 5996l36-60 7-15"/><path class="s6" d="M4859 6005l20-46 14-25"/><path class="s6" d="M4736 6260l48-19-37-99"/><path class="s6" d="M4654 6133l23 58"/><path class="s6" d="M4686 6164l-12 59-7 55"/><path class="s6" d="M4746 6206l-10 77"/><path class="s6" d="M3706 6294l-25 42 8 135 30 1 22-39"/><path class="s6" d="M3706 6294h31l5 37"/><path class="s6" d="M4255 6329l-27 40v135l29 4 24-37"/><path class="s6" d="M4255 6329l32 2 2 37"/><path class="s6" d="M4939 6379l-27 41v135l29 3 24-37"/><path class="s6" d="M4939 6379l32 2 3 38"/><path class="s6" d="M4945 6423l472 41 110 5 63-4 48-8"/><path class="s6" d="M4947 6479l352 29 239 16 69-3 36-8"/><path class="s6" d="M4940 6521l315 22 263 24 122-2"/><path class="s6" d="M4903 6523l-42-7-42 14-41 23-42 15-40-5"/><path class="s6" d="M4893 6413l-225-12-79 2-67 12-48 22-27 7"/><path class="s6" d="M4901 6465l-68-3-30 12-52 27-30 12-23-15"/><path class="s6" d="M4796 6462l-165-2-68 12-44 15-18 9"/><path class="s6" d="M4651 6489l-7 62-11 14-29-10-30-15-88-54-68-58-53-33-49-19-48-7"/><path class="s6" d="M4263 6418l50 5 45 27 131 95 64 40 51 31 34 6 31-3 22-15 10-63"/><path class="s6" d="M4554 6479l190 15"/><path class="s6" d="M4355 6523l11-34"/><path class="s6" d="M4448 6553l-20 39-37 52-56 47-51 33-89 44-88 30-40 11"/><path class="s6" d="M34e2 6714l172 12 118 7 48 2 19 2 65 2 99 5 110-16 118-37 130-68 60-69 16-31"/><path class="s6" d="M4219 6361l-501-34"/><path class="s6" d="M4218 6418l-505-40"/><path class="s6" d="M4258 6465l65 7 42 19 47 10"/><path class="s6" d="M4207 6464l-494-41"/><path class="s6" d="M4456 6531l38 122"/><path class="s6" d="M4862 6528l-6 76"/><path class="s6" d="M4879 6270l5-66"/><path class="s6" d="M4786 6219l23-1 13-29 27-5 27 17 30 1 113-35"/><path class="s6" d="M4839 6197l-10 81"/><path class="s6" d="M4811 6545l-9 60"/><path class="s6" d="M5e3 6177l4 64"/><path class="s6" d="M5050 6162l2 67"/><path class="s6" d="M5127 6170l3 39"/><path class="s6" d="M4724 6578l-7 44"/><path class="s6" d="M4451 6262l11-74 12-61"/><path class="s6" d="M4492 6264l6-78 14-55"/><path class="s6" d="M4558 6135l15 30-12 44-55 21"/><path class="s6" d="M4524 6163l27 46"/><path class="s6" d="M4540 6224l18 51"/><path class="s6" d="M4228 6522l-271-6-83-3-31-31-39-1-23 28-83-5"/><path class="s6" d="M3864 6526l-93 152"/><path class="s6" d="M3769 6523l-1e2 140"/><path class="s6" d="M3588 6661l45-61"/><path class="s6" d="M4071 6238l24-38"/><path class="s6" d="M4035 6235l22-39"/><path class="s6" d="M3581 6521l98 5-3 61-25 15-37 3"/><path class="s6" d="M3548 6651l28-14 62-79"/><path class="s6" d="M3590 6543l-19 27-22 12"/><path class="s6" d="M3320 6739l165-198 63-79 21-37"/><path class="s6" d="M3373 6748l94-116 82-105 40-54 34-51"/><path class="s6" d="M3658 6521l21-27v-18l-23-28-29-12"/><path class="s6" d="M3613 6509l12-17-6-14-20-7"/><path class="s6" d="M3494 6423l-31 49 4 74"/><path class="s6" d="M1621 6417v-61l-20-15"/><path class="s6" d="M1397 6523l114-6 96-22 103-46 2e2-84 184-66 86-8 122 2"/><path class="s6" d="M1360 6466l95-5 91-14 1e2-40 210-84 146-59 91-22 75-4 132 7"/><path class="s6" d="M1420 6433l83 4 78-4"/><path class="s6" d="M1531 6417l79-36"/><path class="s6" d="M1640 6368l96-39 59-14 63 5"/><path class="s6" d="M2034 6376l50 15 102 15 63-28 27-18"/><path class="s6" d="M1934 6418l164 42 55 11 53 3 52-17 126-1e2"/><path class="s6" d="M1871 6444l198 74 225 81 75 22 121 32"/><path class="s6" d="M2247 6471l163 55 237 57 176 44 108 17"/><path class="s6" d="M2510 6661l-10-22 4-23 23-34 21-18"/><path class="s6" d="M2697 6221l-31 29 8 135 30 2 39-38"/><path class="s6" d="M2697 6221h32l5 38"/><path class="s6" d="M2343 6205l-31 28 8 135 30 2"/><path class="s6" d="M2343 6205h32l5 37"/><path class="s6" d="M2347 6247l306 18"/><path class="s6" d="M2354 6339h23"/><path class="s6" d="M2424 6319l31 27 30 32 29 17 26 9"/><path class="s6" d="M2649 6297l-62 29-35 56v45l42 20 38-28 33-34"/><path class="s6" d="M2355 6291l219 12"/><path class="s6" d="M2623 6344l32-1"/><path class="s6" d="M2718 6265l956 63"/><path class="s6" d="M2716 6311l515 36 430 26"/><path class="s6" d="M3671 6419l-289-29-352-25"/><path class="s6" d="M3008 6501l150-128"/><path class="s6" d="M2821 6353l29 273"/><path class="s6" d="M2968 6366l17 209"/><path class="s6" d="M2632 6491l184-136"/><path class="s6" d="M2378 6417l80-52"/><path class="s6" d="M2946 6637l3-12 7-7 17 1 12 6 2 12-1 12-2 8-11 1"/><path class="s6" d="M2956 6618l21-24 17 1 15 10 1 15-24 31"/><path class="s6" d="M2977 6594l22-23 7-4 18 2 9 13-3 12-20 26"/><path class="s6" d="M3036 6638l7-7 16 2 13 5 1 13v12l-3 8-4 4"/><path class="s6" d="M3043 6631l21-23h17l14 11 2 14-24 32"/><path class="s6" d="M3064 6608l21-24 7-4 18 2 9 13-2 12-20 26"/><path class="s6" d="M3011 6552v-29l14-21 74 11"/><path class="s6" d="M3095 6566l3-36 14-14 61 5-2 52"/><path class="s6" d="M3009 6562l28-34"/><path class="s6" d="M3030 6594l37-46"/><path class="s6" d="M3088 6579l31-36"/><path class="s6" d="M3117 6607l40-48"/><path class="s6" d="M2951 6633l-20 26"/><path class="s6" d="M2977 6648l-12 16"/><path class="s6" d="M3036 6638l-24 29"/><path class="s6" d="M3059 6497l40-47"/><path class="s6" d="M3099 6450l24-13 35-5 36 3 43 17 32 16"/><path class="s6" d="M3103 6506l25-27 30-9 49 4"/><path class="s6" d="M3150 6511l27-25 33-9"/><path class="s6" d="M3181 6535l16-13 20-10 14 1"/><path class="s6" d="M3311 6493l65 33"/><path class="s6" d="M3280 6528l94 47"/><path class="s6" d="M3081 6715l70-70 80-71 61-65 27-30 12-30"/><path class="s6" d="M3291 6439l-9 19-24 34-146 142"/><path class="s6" d="M3316 6439l-19-4-8-9 2-27 8-12"/><path class="s6" d="M3344 6427l-10 8-8 4-8-11 1-24 10-11"/><path class="s6" d="M3416 6402l-1 52-11 4-14-3-13-27-30-2"/><path class="s6" d="M3380 6449l7 198"/><path class="s6" d="M3540 6551l8 113"/><path class="s6" d="M3134 6680l126 16 75 9"/><path class="s6" d="M2316 6415l154 45 154 46 124 27 81 18"/><path class="s6" d="M3194 6624l93 13 90 9"/><path class="s6" d="M3460 6654l113 10 172 9 366 10"/><path class="s6" d="M4325 6484l-50 134"/><path class="s6" d="M4179 6664l61-152"/><path class="s6" d="M1643 6532l110 19 113 15 39 15 8 19"/><path class="s6" d="M2152 6359l72 20"/><path class="s6" d="M2948 6023l-25 18-16 55 37 14"/><path class="s6" d="M2987 6051l-19 11-11 16 5 20"/><path class="s6" d="M2884 6146l97-53 72-58"/><path class="s6" d="M2962 6151l59-40 52-58"/><path class="s6" d="M3457 6067l-47 115"/><path class="s6" d="M35e2 6066l-35 123"/><path class="s6" d="M3424 6125l-105-24-117-30-94-31"/><path class="s6" d="M3580 6155l-52-9-45-8"/><path class="s6" d="M3595 6101l-65-10-28-7"/><path class="s6" d="M3443 6072l-58-10"/><path class="s6" d="M3358 6177l-123-27-17-27-26-10-39 18-81-28-29-14"/><path class="s6" d="M3137 6138l-35 27"/><path class="s6" d="M3223 6160l-23 17"/><path class="s6" d="M2984 6053l14 6 7 12"/><path class="s6" d="M2193 5909l43 40 292 147"/><path class="s6" d="M2177 5959l303 158"/><path class="s6" d="M2177 5959l-28 16 37 45 166 86"/><path class="s6" d="M2177 5959l11-17 5-33"/><path class="s6" d="M1949 6059l185-78"/><path class="s6" d="M2019 6079l143-62"/><path class="s6" d="M2202 6096l60-29"/><path class="s6" d="M1836 6238l4 52 52 2"/><path class="s6" d="M1901 6250l94 3-44-69"/><path class="s6" d="M2002 6254l-4-93"/><path class="s6" d="M2518 5828l-8-15-1-17 10-13 12-5 14-17-10-15-2-14 2-7"/><path class="s6" d="M2193 5909l5-20 21-20"/><path class="s7" d="M3638 5858l7-2 8 3 5 6 1 7-5 5-7 2-8-3-5-6v-7z"/><path class="s6" d="M3631 5853l3-8 6-5 10-3 10 3 8 9 5 9-2 11"/><path class="s7" d="M4081 5881l8-2 8 3 5 6 1 7-4 5-8 2-8-3-5-6-1-7z"/><path class="s6" d="M4074 5877l3-8 5-6 10-3 10 2 9 9 5 8-2 11"/><path class="s7" d="M4344 5894l7-3 8 2 6 5 2 7-3 6-7 3-8-2-6-5-2-7z"/><path class="s6" d="M4334 5895l1-9 5-6 9-4h11l9 8 6 7v12"/><path class="s7" d="M4492 5903l7-3 8 1 6 5 2 7-3 6-7 3-8-1-6-5-2-7z"/><path class="s6" d="M4482 5904l1-9 5-6 9-5 11 1 9 7 6 8v11"/><path class="s6" d="M3344 5890l-3 7 3 10 15 4 20-5"/><path class="s6" d="M3427 5846l-38 4-36 9-25 6-26 1-13-5-5-9 6-13"/><path class="s6" d="M3334 5838l-3 6 3 3 15 4 16-1"/><path class="s6" d="M3260 5891l33-7 44-4"/><path class="s6" d="M3269 5910l50-20 41-13 71-10"/><path class="s6" d="M3344 5887l15 7 19-5"/><path class="s6" d="M3383 5878l11 42"/><path class="s6" d="M3493 5873l14 51"/><path class="s6" d="M3831 5937l33-36"/><path class="s6" d="M3926 5830l24-37"/><path class="s6" d="M4022 5955l27-36"/><path class="s6" d="M2308 6344l-182 3-77 23-182 76-176 66-72 29-107 14"/><path class="s6" d="M2706 6342l324 23"/><path class="s6" d="M2516 6334l33 20"/><path class="s6" d="M2381 6352l23 2 20-14 6-11"/><path class="s6" d="M2553 6337l-87-7"/><path class="s6" d="M3666 6206l-4-133"/><path class="s6" d="M5270 6299l5 23"/><path class="s6" d="M5392 6257l14 53"/><path class="s6" d="M2495 6543l22-29 51 15-2 30"/><path class="s6" d="M2578 6534l51 12-1 27"/><path class="s6" d="M2466 6541l-24 25-12 37 4 34"/><path class="s6" d="M3815 6744l-9 24 3 21"/><path class="s6" d="M3684 6729l16-32 53 4 4 29"/><path class="s6" d="M3764 6703l52 2 5 27"/><path class="s6" d="M3737 6739l-8 19 3 19"/><path class="s6" d="M3909 6526l-87 142"/><path class="s6" d="M3941 6236l30-44"/><g><path class="s8" d="M1061 7544c5 3 11 4 16 5 6 1 11 1 17 0 6-1 11-3 16-5l111-64 43 25c7 5 16 7 25 7 9 0 18-2 26-7 8-5 14-11 18-19l125-233c4-7 6-15 6-23 0-8-2-17-6-24-4-8-10-14-17-18l-123-88-42-24c-10-7-22-9-33-7-12 2-22 9-30 18-8 9-13 20-12 32v49l-179 102c-5 2-9 6-13 10-4 5-7 10-9 15-2 6-3 12-3 18v165c0 6 1 11 3 17 2 5 5 11 9 15 4 4 8 8 13 11l39 23" fill-rule="evenodd"/></g><path class="s9" d="M1085 75e2l-38-22V7313l204-116v-78l38 22 125 89-125 232-38-22v-29m38 51v-78l-204 116V7335l-38-22m38 22 204-116-38-22m38 22v-78"/><text transform="matrix(0.864 -0.494 -0 1 151.827 552.099)" x="1118" y="7444"><tspan class="f2 s10" font-size="112.5">FWD</tspan></text><g><path class="s8" d="M4457 7655v283c0 9-2 17-7 25-4 7-11 14-18 18-8 5-16 7-25 7H4124c-9 0-17-3-25-7-7-4-14-11-18-18-5-8-7-16-7-25V7655c0-9 3-18 7-25 4-7 11-14 18-18 8-5 16-7 25-7h283c9 0 18 2 25 7 7 4 14 11 18 18 5 8 7 16 7 25" fill-rule="evenodd"/></g><path class="s11" d="M4124 7655h283v283H4124z"/><text x="4191" y="7872"><tspan class="f3 s10" font-size="206.944">A</tspan></text><g><path class="s8" d="M5983 2541H5766c-9 0-17-3-25-7-7-4-14-11-18-18-4-7-7-16-7-25V2274c0-9 3-18 7-25 4-7 11-14 18-18 7-4 16-7 25-7h217c9 0 18 2 25 7 7 4 14 11 18 18 4 7 7 16 7 25v217c0 9-2 17-7 25-4 7-11 14-18 18-7 4-16 7-25 7" fill-rule="evenodd"/></g><text x="5810" y="2446"><tspan class="f3 s10" font-size="179.167">A</tspan></text><path class="s12" d="M5766 2274h217v217H5766z"/><path class="s11" d="M5766 2274h217v217H5766z"/><path class="s13" d="M1584 7131l4197 3 39 1-51-249-48-237-44-224-51-212-44-185-35-128-36-118-2213-114-624-33-153 65-608 269 15 185-884 421 299 317z"/><path class="s14" d="M4942 1809l-67 138 58 15z"/><path class="s6" d="M4855 2144l87-335"/><path class="s14" d="M5313 1750l110 106 33-51z"/><path class="s6" d="M5746 2026l-433-276"/><path class="s14" d="M2390 7140l-64 139 58 14z"/><path class="s6" d="M2294 7536l96-396"/><text x="3343" y="7462"><tspan class="f3 s10" font-size="123.611">BULK CARGO COMPARTMENT</tspan></text><text x="3741" y="7586"><tspan class="f3 s10" font-size="123.611">(FORWARD SIDE)</tspan></text><text x="1805" y="7660"><tspan class="f2 s10" font-size="123.611">INSPECTION AREA</tspan></text><text x="1805" y="7785"><tspan class="f2 s10" font-size="113.875">(ZONES 163, 164)</tspan></text><text x="5766" y="2078"><tspan class="f2 s10" font-size="123.611">BULK CARGO</tspan></text><text x="5766" y="2203"><tspan class="f2 s10" font-size="123.611">COMPARTMENT</tspan></text><text x="4341" y="2269"><tspan class="f2 s10" font-size="123.611">BULK CARGO</tspan></text><text x="4341" y="2394"><tspan class="f2 s10" font-size="112.712">DOOR, 811</tspan></text></svg>