<svg xmlns="http://www.w3.org/2000/svg" height="10in" viewBox="0 0 7777 10005" width="7.78in"><defs><style>.f1{font-family:Consolas,Courier New,monospace}.f2{font-family:Helvetica,Arial,sans-serif}.f3{font-family:Helvetica,Arial,sans-serif;font-weight:700}.f4{font-family:Times}.f5{font-family:Times;font-weight:700}.f6{font-family:Courier}.f7{font-family:Courier;font-weight:700}.f8{font-family:Symbol}.s5{fill:#fff}.s4{fill:none;stroke:#000;stroke-width:8}.s3{fill:#ffc}.s7{fill:#000}.s10{fill:none;stroke:#000;stroke-dasharray:120,40;stroke-width:20}.s6{fill:none;stroke:#00f;stroke-width:20}.s2{fill:#cff}.s9{fill:#000;stroke:#000;stroke-width:8}.s8{fill:none;stroke:#00f;stroke-width:12}.s1{fill:none;stroke:#000;stroke-width:10.005}</style></defs><path class="s1" d="M6198 6125l-1-1-1-1-6-5-6-3"/><path class="s1" d="M6151 6095h-2l-10 1-2 1"/><path class="s1" d="M6161 6137h-1l-34-28"/><path class="s1" d="M6205 6133a41 18 18.19573233256142 0 0 0-4"/><path class="s1" d="M6160 6137a41 18 18.19573233256142 0 0 45-4"/><path class="s1" d="M6205 6127a29 17-129.23268967317767 0 0-20-25"/><path class="s1" d="M6176 6129l-6-7-2-4-2-4v-1-3"/><path class="s1" d="M6166 6113v-3"/><path class="s1" d="M6166 6110l-11-9-7-2-7-1-3-1h-3v1h-1l-3 2"/><path class="s1" d="M6126 6109l1-1 2-6 2-2 1-1"/><path class="s1" d="M6396 6279l-1-1-2-2-7-5-5-3"/><path class="s1" d="M6372 6284l-6-8-3-4-2-5v-1-4"/><path class="s1" d="M6361 6262l-13-10-8-2-11-3h-3"/><path class="s1" d="M6326 6247h-1l-1 1-2 1-1 1"/><path class="s1" d="M6326 6247l3-1 10-2 4 1"/><path class="s1" d="M6357 6292h-1l-39-32v-1l2-7 2-3h1l3-2"/><path class="s1" d="M6382 6254l6 5 9 10 4 6 2 6v2"/><path class="s1" d="M6344 6236l-139-108"/><g><path class="s2" d="M7378 2742H1155V5647c89 103 177 206 279 298 173 156 385 277 610 334 60 15 121 25 182 35H6369c59-47 118-94 174-144 183-161 341-348 492-542 99-129 195-260 265-405 29-62 54-126 79-191l-1-2290" fill-rule="evenodd"/></g><g><path class="s3" d="M7119 5517c30-41 59-82 87-125 46-71 87-145 120-223 19-45 36-90 50-136l3-1443-42 8-68-7-115 23v16l34 5 30 47 10 3 11-3 11-9 11 7v7l4 10 15 7-9 32-142 346 38 21-59 143-58 138-42 101c-22 48-44 96-67 143-30 62-62 122-96 181-34 61-70 121-109 179-49 73-103 144-160 212-16 19-32 38-48 57l117 37-11 44-143-44-60 65-46 47-113 107v4l108 47 7-162 42-41-10 219 197 93-6 38-195-88-3 37 3 2 415 219 84-102 90-115 61-77 54-70" fill-rule="evenodd"/></g><path class="s3" d="M6248 5549l-35 5 1 3 162 85 2-34z"/><path class="s1" d="M4717 5728 2875 5946"/><path class="s1" d="M2803 5955l-61 8"/><path class="s1" d="M4727 5728v-1l-402-564"/><path class="s1" d="M2747 5962l-1-2 206-281 115-149 115-141 67-78 73-80 1003-68"/><path class="s1" d="M3736 3815l1 30-29-1"/><path class="s1" d="M3690 3844l-31-2"/><path class="s1" d="M3659 3842l-1-23-1-8"/><path class="s1" d="M2996 3785v7l1 25"/><path class="s1" d="M2997 3817l-33-2"/><path class="s1" d="M2943 3815l-33-2"/><path class="s1" d="M2910 3813l-1-25v-8"/><path class="s1" d="M4917 5125l-8-1-17 2-6 1h-4"/><path class="s1" d="M4063 5181l-3-5-16-1337"/><path class="s1" d="M4048 3834l-4 5"/><path class="s1" d="M6546 3293l-26 464"/><path class="s1" d="M6518 3806l-19 331"/><path class="s1" d="M6497 4184l-18 325"/><path class="s1" d="M6473 4555l-17 318"/><path class="s1" d="M6453 4918l-17 312"/><path class="s1" d="M6433 5274l-17 306 201 94"/><path class="s1" d="M6414 5623l-17 298"/><path class="s1" d="M6395 5965l-18 319"/><path class="s1" d="M6502 3320l-24 446"/><path class="s1" d="M6475 3814l-17 326"/><path class="s1" d="M6455 4187l-17 320"/><path class="s1" d="M6435 4552l-17 315"/><path class="s1" d="M6416 4911l-17 308"/><path class="s1" d="M6397 5263l-17 301"/><path class="s1" d="M6378 5607l-16 296"/><path class="s1" d="M6360 5945l-17 306"/><path class="s1" d="M6320 3372l-21 429"/><path class="s1" d="M6297 3846l-15 306"/><path class="s1" d="M6279 4196l-14 301"/><path class="s1" d="M6262 4540l-14 295"/><path class="s1" d="M6246 4877l-15 289"/><path class="s1" d="M6227 5208l-14 284"/><path class="s1" d="M6211 5532l-14 280"/><path class="s1" d="M6195 5851l-14 279"/><path class="s1" d="M6283 3396l-20 411"/><path class="s1" d="M6261 3846l-15 309"/><path class="s1" d="M6244 4198l-15 297"/><path class="s1" d="M6227 4537l-14 292"/><path class="s1" d="M6211 4870l-14 287"/><path class="s1" d="M6195 5197l-14 282"/><path class="s1" d="M6179 5519l-13 276"/><path class="s1" d="M6164 5834l-13 266"/><path class="s1" d="M6126 3440l-18 398"/><path class="s1" d="M6106 3880l-12 285"/><path class="s1" d="M6092 4206l-12 280"/><path class="s1" d="M6078 4526l-12 276"/><path class="s1" d="M6061 4841l-12 270"/><path class="s1" d="M6048 5150l-12 266"/><path class="s1" d="M6034 5454l-11 261"/><path class="s1" d="M6021 5752l-11 243"/><path class="s1" d="M6093 3461l-17 385"/><path class="s1" d="M6075 3885l-13 282"/><path class="s1" d="M6061 4207l-12 278"/><path class="s1" d="M6047 4524l-12 273"/><path class="s1" d="M6033 4835l-11 268"/><path class="s1" d="M6020 5141l-11 263"/><path class="s1" d="M6007 5442l-11 258"/><path class="s1" d="M5994 5737l-10 232"/><path class="s1" d="M5976 3903l-9 271"/><path class="s1" d="M5965 4212l-9 267"/><path class="s1" d="M5958 3649l-7 220"/><path class="s1" d="M5977 3863l8-213"/><path class="s1" d="M5985 3650l-27-1h-2"/><path class="s1" d="M5955 4517l-9 263"/><path class="s1" d="M5949 3908l-1 47"/><path class="s1" d="M5947 3986l-7 190"/><path class="s1" d="M5945 4817l-9 259"/><path class="s1" d="M5938 4237l-7 216"/><path class="s1" d="M5934 5113l-8 254"/><path class="s1" d="M5929 4515l-6 181"/><path class="s1" d="M5922 4727l-2 48"/><path class="s1" d="M5924 5405l-5 160"/><path class="s1" d="M5919 4812l-4 125"/><path class="s1" d="M5914 4966l-3 102"/><path class="s1" d="M5915 3914l-10 264"/><path class="s1" d="M5909 5105l-2 68"/><path class="s1" d="M5906 5203l-5 154"/><path class="s1" d="M59e2 5394l-1 13"/><path class="s1" d="M5898 5436l-4 138"/><path class="s1" d="M5880 4805l-5 134"/><path class="s1" d="M5874 4969l-4 87"/><path class="s1" d="M5869 5092l-10 247"/><path class="s1" d="M5928 3508l-14 368"/><path class="s1" d="M5901 4216l-10 259"/><path class="s1" d="M5889 4512l-10 256"/><path class="s1" d="M5856 5374l-10 244"/><path class="s1" d="M5845 5652l-8 207"/><path class="s1" d="M5903 3527l-14 354"/><path class="s1" d="M5888 3919l-10 261"/><path class="s1" d="M5876 4217l-10 257"/><path class="s1" d="M5865 4511l-10 253"/><path class="s1" d="M5854 4799l-6 141"/><path class="s1" d="M5847 4970l-3 78"/><path class="s1" d="M5843 5084l-10 245"/><path class="s1" d="M5832 5363l-9 242"/><path class="s1" d="M5822 5639l-8 196"/><path class="s1" d="M5758 3980l-8 209"/><path class="s1" d="M5749 4224l-8 243"/><path class="s1" d="M5739 4501l-7 202"/><path class="s1" d="M5731 4734v6"/><path class="s1" d="M5760 3906l10-270"/><path class="s1" d="M5770 3636l-28-2-2 1"/><path class="s1" d="M5730 4775l-6 172"/><path class="s1" d="M5723 4977l-1 33"/><path class="s1" d="M5720 5044l-5 145"/><path class="s1" d="M5714 5219l-2 56"/><path class="s1" d="M5711 5310l-8 227"/><path class="s1" d="M5702 5571l-1 20"/><path class="s1" d="M5739 3574l-12 338"/><path class="s1" d="M5726 3948l-8 243"/><path class="s1" d="M5717 4225l-8 240"/><path class="s1" d="M5707 4499l-8 236"/><path class="s1" d="M5698 4769l-8 232"/><path class="s1" d="M5689 5034l-7 229"/><path class="s1" d="M5680 5296l-7 226"/><path class="s1" d="M5672 5554l-6 171"/><path class="s1" d="M5717 3591l-11 325"/><path class="s1" d="M5705 3952l-8 240"/><path class="s1" d="M5696 4226l-8 238"/><path class="s1" d="M5687 4497l-8 234"/><path class="s1" d="M5678 4765l-8 230"/><path class="s1" d="M5669 5028l-8 227"/><path class="s1" d="M5660 5287l-7 224"/><path class="s1" d="M5652 5542l-6 162"/><path class="s1" d="M5580 4233l-7 224"/><path class="s1" d="M5596 3621l-9 319"/><path class="s1" d="M5586 3973l-7 227"/><path class="s1" d="M5570 4489l-7 221"/><path class="s1" d="M5562 4742l-6 218"/><path class="s1" d="M5555 4991l-7 215"/><path class="s1" d="M5548 5236l-7 213"/><path class="s1" d="M5540 5479l-4 144"/><path class="s1" d="M5576 3636l-57 1968"/><path class="s1" d="M5914 3954l34 1"/><path class="s1" d="M5912 3985l35 1"/><path class="s1" d="M5903 4236l35 1"/><path class="s1" d="M5937 4237l-34-1"/><path class="s1" d="M5894 4453h36"/><path class="s1" d="M5931 4453h-37"/><path class="s1" d="M5884 4698l39-2"/><path class="s1" d="M5922 4727l-39 1"/><path class="s1" d="M5875 4939l40-2"/><path class="s1" d="M5912 4967l-38 2"/><path class="s1" d="M5866 5177l41-3"/><path class="s1" d="M5906 5203l-41 3"/><path class="s1" d="M5857 5412l42-5"/><path class="s1" d="M5898 5436l-43 5"/><path class="s1" d="M5886 3953l-125-5"/><path class="s1" d="M5885 3984l-127-4"/><path class="s1" d="M5730 3979h-2"/><path class="s1" d="M5729 3979h-1"/><path class="s1" d="M5749 4235l126 1"/><path class="s1" d="M5875 4236l-126-1"/><path class="s1" d="M5720 4235h-1"/><path class="s1" d="M5741 4455l126-2"/><path class="s1" d="M5711 4455h1"/><path class="s1" d="M5867 4453l-126 2"/><path class="s1" d="M5714 4455h-3"/><path class="s1" d="M5858 4699l-126 4"/><path class="s1" d="M5856 4729l-125 5"/><path class="s1" d="M5704 4735h-2"/><path class="s1" d="M5724 4947l124-7"/><path class="s1" d="M5848 4940l-124 7"/><path class="s1" d="M5847 4970l-124 8"/><path class="s1" d="M5839 5179l-124 10"/><path class="s1" d="M5838 5209l-124 10"/><path class="s1" d="M5830 5414l-123 13"/><path class="s1" d="M5829 5444l-123 12"/><path class="s1" d="M5671 4981l-37 2"/><path class="s1" d="M5662 5223l-60 5"/><path class="s1" d="M5704 3978l-116-4"/><path class="s1" d="M5655 5462l-74 7"/><path class="s1" d="M5589 3939l117-23"/><path class="s1" d="M5727 3912l162-31"/><path class="s1" d="M5914 3876l162-32"/><path class="s1" d="M6106 3838l157-30"/><path class="s1" d="M6296 3801l184-36"/><path class="s1" d="M5586 3973l119-21"/><path class="s1" d="M5726 3948l162-29"/><path class="s1" d="M5913 3914l162-29"/><path class="s1" d="M6104 3880l156-28"/><path class="s1" d="M6294 3846l181-32"/><path class="s1" d="M6515 3807l215-39"/><path class="s1" d="M5578 42e2h1l118-8"/><path class="s1" d="M5718 4191l161-11"/><path class="s1" d="M5902 4178l160-11"/><path class="s1" d="M6091 4165l155-10"/><path class="s1" d="M6279 4152l179-12"/><path class="s1" d="M6496 4138l209-15h3"/><path class="s1" d="M5578 4233l118-7"/><path class="s1" d="M5717 4225l159-8"/><path class="s1" d="M5901 4216l160-9"/><path class="s1" d="M6092 4206l152-8"/><path class="s1" d="M6277 4196l178-9"/><path class="s1" d="M6494 4185l211-11"/><path class="s1" d="M5680 4704l-114 4"/><path class="s1" d="M5571 4457l115 7"/><path class="s1" d="M5709 4465l157 9"/><path class="s1" d="M5891 4475l158 10"/><path class="s1" d="M6077 4486l152 9"/><path class="s1" d="M6262 4497l176 10"/><path class="s1" d="M6476 4509l205 12h3"/><path class="s1" d="M6681 4570h-3l-202-15"/><path class="s1" d="M6441 4553l-179-13"/><path class="s1" d="M6227 4537l-152-11"/><path class="s1" d="M6047 4524l-158-12"/><path class="s1" d="M5865 4511l-158-12"/><path class="s1" d="M5686 4497l-116-8"/><path class="s1" d="M5672 4950l-114 6"/><path class="s1" d="M5672 4950l-114 7"/><path class="s1" d="M5563 4710l116 21"/><path class="s1" d="M5699 4735l156 29"/><path class="s1" d="M5879 4768l156 29"/><path class="s1" d="M6066 4802l147 27"/><path class="s1" d="M6248 4835l170 32"/><path class="s1" d="M6456 4873l201 37h3"/><path class="s1" d="M6657 4958h-3l-201-40"/><path class="s1" d="M6416 4911l-170-34"/><path class="s1" d="M6211 4870l-150-29"/><path class="s1" d="M6033 4835l-153-30"/><path class="s1" d="M5855 48e2l-157-31"/><path class="s1" d="M5678 4765l-116-23"/><path class="s1" d="M5664 5193l-113 9"/><path class="s1" d="M5556 4960l114 35"/><path class="s1" d="M5690 5001l154 47"/><path class="s1" d="M5868 5056l154 47"/><path class="s1" d="M6049 5111l148 46"/><path class="s1" d="M6229 5167l170 52"/><path class="s1" d="M6436 5230l198 61h3"/><path class="s1" d="M6634 5338h-3l-198-64"/><path class="s1" d="M6397 5263l-170-55"/><path class="s1" d="M6195 5197l-147-47"/><path class="s1" d="M6020 5141l-151-49"/><path class="s1" d="M5842 5083l-153-49"/><path class="s1" d="M5669 5028l-114-37"/><path class="s1" d="M5656 5432l-113 11"/><path class="s1" d="M5548 5206l113 49"/><path class="s1" d="M5682 5263l151 66"/><path class="s1" d="M5857 5339l152 65"/><path class="s1" d="M6036 5416l145 63"/><path class="s1" d="M6213 5492l167 72"/><path class="s1" d="M5548 5236l112 51"/><path class="s1" d="M5680 5296l152 68"/><path class="s1" d="M5858 5375l151 67"/><path class="s1" d="M6037 5455l142 63"/><path class="s1" d="M6211 5532l167 75"/><path class="s1" d="M6414 5623l194 87h3"/><path class="s1" d="M6592 6028l-3 1-192-106"/><path class="s1" d="M6362 5903l-165-91"/><path class="s1" d="M6166 5795l-143-80"/><path class="s1" d="M5996 57e2l-150-82"/><path class="s1" d="M5823 5605l-150-83"/><path class="s1" d="M5653 5511l-111-62"/><path class="s1" d="M6589 6073l-3 1-191-109"/><path class="s1" d="M6360 5945l-165-94"/><path class="s1" d="M6164 5834l-143-82"/><path class="s1" d="M5994 5737l-149-85"/><path class="s1" d="M5822 5639l-150-85"/><path class="s1" d="M5652 5542l-112-63"/><path class="s1" d="M7369 3740l-3 12-7 25"/><path class="s1" d="M7301 4069l18-60"/><path class="s1" d="M7305 4003l14 6"/><path class="s1" d="M7297 3975a21 15-81.31525754450796 0 0 7 28"/><path class="s1" d="M7345 3826v1l-23 75-24 73"/><path class="s1" d="M7279 4137l-2 5-1 6 1 5-29 84"/><path class="s1" d="M7316 3728l-1 3-21 74-22 74-24 73-27 71-19 49"/><ellipse class="s4" cx="6801" cy="5060" rx="15" ry="11" transform="rotate(-75.44763418629066 6801.0,5060.0)"/><path class="s1" d="M7184 4118l-159 381-41 88-34 71-28 54-28 53-55 95-29 49-29 45-55 82-41 57-42 56-21 27-34 42-36 41-4 5"/><path class="s1" d="M6515 5301l-13 14-31 33-24 24-17 16"/><path class="s1" d="M6388 5429l-98 95"/><path class="s1" d="M7218 3681l-5-5-26-44v-2l-1-5"/><path class="s1" d="M7217 3680a20 9-20.727616772202563 0 0 25 0"/><path class="s1" d="M7246 3677l-4 3"/><path class="s1" d="M7196 3630l2-4 5-2 4-1h4"/><path class="s1" d="M7270 3676l5-4 32-41v-2l3-5 5-2 22-5 6-1 2-1"/><path class="s4" d="M7271 3676l-3 2-4 1-6-1-5-3-5-5-26-45v-2l2-5 5-3m22-4 9-2h10 7m40 3m25 2 3 1"/><path class="s1" d="M7345 3615l1-9"/><path class="s1" d="M6743 5171l-8-5-13-4"/><path class="s1" d="M6402 5110l3 1"/><path class="s1" d="M6405 5111l-4-1"/><path class="s1" d="M6393 5329l-3 1"/><path class="s1" d="M3939 3340v-2"/><path class="s1" d="M3933 3338h2 4l2 1"/><path class="s1" d="M3941 3340h-2-4l-2-1"/><path class="s1" d="M3928 3367v-3"/><path class="s1" d="M3922 3365l3-1h3l2 1"/><path class="s1" d="M3930 3366l-2 1h-3l-3-1"/><path class="s1" d="M3761 3323v-2"/><path class="s1" d="M3763 3322v1"/><path class="s1" d="M3755 3322l3 1h3 2"/><path class="s1" d="M3755 3322v-1"/><path class="s1" d="M3763 3322l-2-1h-4-2"/><path class="s1" d="M3754 3356v-3"/><path class="s1" d="M3748 3355l3 1h3l2-1"/><path class="s1" d="M3756 3354l-2-1h-4l-2 1"/><path class="s1" d="M3729 3321l-3 3"/><path class="s1" d="M3964 3346a121 35 3.314634958080786 0 0-235-25"/><path class="s1" d="M3965 3351v-5"/><path class="s1" d="M3910 3375a121 34 3.3061815618136343 0 0 54-24"/><path class="s1" d="M3722 3340a64 20 10.725156056455804 0 0 39 25"/><path class="s1" d="M3779 3371l-19-5"/><path class="s1" d="M3657 3704l-1 1"/><path class="s1" d="M3807 3720a77 14 2.1675893106956754 0 0-149-8"/><path class="s1" d="M3804 3731a6 3-73.86217784271119 0 0 2-12"/><path class="s1" d="M3774 3736h4l11-2 8-1 7-2"/><path class="s1" d="M3657 3708l-2 2"/><path class="s1" d="M3691 3733l-9-2-10-2-8-3-6-2-2-2"/><path class="s1" d="M5599 3454l-13-4-16-3-20-1-21-1-23 1-17 1"/><path class="s1" d="M5612 3468a36 20-6.6202599575936025 0 0-13-14"/><path class="s1" d="M5598 3485a36 20-6.6202599575936025 0 0 14-18"/><path class="s1" d="M5436 3507h-8l-16-3-12-3-10-4-2-2"/><path class="s1" d="M4849 3775h-1"/><path class="s1" d="M4849 3775h-1"/><path class="s1" d="M4848 3777l7-1 10-2 7-2 5-2 2-2"/><path class="s1" d="M4879 3762v3 3"/><path class="s1" d="M4879 3768v-2"/><path class="s1" d="M5536 5623h-1-1"/><path class="s1" d="M5519 5603h-4"/><path class="s4" d="M5520 5627h-1m-19-16v-1l4-5 6-3 4 1h3"/><path class="s1" d="M5520 5626a28 11 10.091745322242271 0 0 34-4"/><path class="s1" d="M5555 5622v1"/><path class="s1" d="M5555 5622a22 15-108.43494882292202 0 0-12-19"/><path class="s4" d="M5649 5730h-1m-22-18v-1l3-4 2-3 5-3 6-1h4"/><path class="s1" d="M5649 5729a30 12 11.656552788357056 0 0 37-4"/><path class="s1" d="M5686 5724v1"/><path class="s1" d="M5686 5723a23 16-115.92138670631547 0 0-14-19"/><path class="s1" d="M5669 5703l3 2"/><path class="s4" d="M5819 5865l-1-1m-26-20v-1l3-5 2-2 1-1h1l1-1 6-2 5-1 2 1"/><path class="s1" d="M5818 5865a33 14 13.95805812989881 0 0 40-5"/><path class="s1" d="M5858 5857v2"/><path class="s1" d="M5858 5856a32 27-101.86793766972386 0 0-18-22"/><path class="s1" d="M5983 5964l-3 1h-5l-6 2-3 2-3 2-2 6v1"/><path class="s1" d="M6033 5997a37 16 15.063529908389324 0 0 0-2"/><path class="s1" d="M5990 6002a37 16 15.063529908389324 0 0 43-5"/><path class="s1" d="M6033 5993v2"/><path class="s1" d="M6033 5993a27 17-126.35377530006114 0 0-19-23"/><path class="s1" d="M6014 5969l1 1"/><path class="s1" d="M7378 4133l-37 1"/><path class="s1" d="M7378 4067l-131 4-12 11"/><path class="s1" d="M5836 3353l-1-1"/><path class="s1" d="M5853 3355v4l-4 5-8 4-136 58-9 4-10 2-134-6-10-4-6-5"/><path class="s1" d="M4022 3184l2 1 7 5"/><path class="s1" d="M4034 3199v-4l-3-5-10-5"/><path class="s1" d="M4008 3218v-2"/><path class="s1" d="M4005 3216l1 1 2 1 3-1h1"/><path class="s1" d="M4011 3216v1"/><path class="s1" d="M4006 3215l1 1h1 3"/><path class="s1" d="M4012 3217v-1l-3-1h-2l-2 1"/><path class="s1" d="M3988 3266v-2"/><path class="s1" d="M3986 3264h1 1 2"/><path class="s1" d="M3990 3266v-2"/><path class="s1" d="M3992 3265l-1-1h-2-3l-1 1"/><path class="s1" d="M3992 3265l-2 1h-2l-2-1h-1"/><path class="s1" d="M3955 3177v2"/><path class="s1" d="M3952 3179v-2"/><path class="s1" d="M3951 3177h1 1"/><path class="s1" d="M3950 3177l-1 1"/><path class="s1" d="M3956 3178l-1 1h-3-2l-1-1"/><path class="s1" d="M3925 3289v-1"/><path class="s1" d="M3923 3288h2 2"/><path class="s1" d="M3927 3289v-1"/><path class="s1" d="M3928 3289h-1-2-2l-1-1"/><path class="s1" d="M3928 3289v-1l-2-1-3 1h-1"/><path class="s1" d="M3837 3168v-1"/><path class="s1" d="M3838 3167h-1l-1-1"/><path class="s1" d="M3840 3167v1"/><path class="s1" d="M3841 3168h-1-3-2l-1-1"/><path class="s1" d="M3797 3279v-2"/><path class="s1" d="M3795 3277h1 1 2"/><path class="s1" d="M38e2 3279l-1-2"/><path class="s1" d="M3801 3278l-1-1h-2-3-1"/><path class="s1" d="M3801 3278l-1 1h-3l-2-1-1-1"/><path class="s1" d="M3759 3195v-2"/><path class="s1" d="M3757 3193h1 1 3"/><path class="s1" d="M3762 3195v-2"/><path class="s1" d="M3763 3194l-1 1h-3-2l-1-1"/><path class="s1" d="M3763 3194l-1-1h-2-3l-1 1"/><path class="s1" d="M3750 3245v-1"/><path class="s1" d="M3748 3243v1h2 2"/><path class="s1" d="M3752 3245v-1"/><path class="s1" d="M3753 3245h-1-2-3l-1-1"/><path class="s1" d="M3753 3245l-1-1-2-1h-3l-1 1"/><path class="s1" d="M3929 3294l-139-12-16-2-16-3-12-4-10-5"/><path class="s1" d="M3929 3294a64 20 3.653468748688305 0 0 70-14"/><path class="s1" d="M4034 3202l-34 78"/><path class="s1" d="M4034 3202a20 10 23.220961685840653 0 0-18-19"/><path class="s1" d="M5801 3360l-107 47-8 2-122-3-4-2"/><path class="s1" d="M3681 3677l1 1"/><path class="s1" d="M6016 3669l-8 188"/><path class="s1" d="M6008 3897l-11 275"/><path class="s1" d="M6018 3669h-2l-28 7"/><path class="s1" d="M5993 4211l-11 270"/><path class="s1" d="M5982 4519l-11 265"/><path class="s1" d="M5970 4822l-11 261"/><path class="s1" d="M5956 5120l-11 256"/><path class="s1" d="M5943 5413l-5 138"/><path class="s1" d="M5939 5551h-1l-18-9"/><path class="s1" d="M5219 3872l-18 1229v3"/><path class="s1" d="M6527 5257l33-37 52-64 25-32 34-45 33-46 38-56 30-46 29-47 37-63 36-63 34-64 32-64 32-65 38-85 157-377"/><path class="s1" d="M7167 4103l-38-20"/><path class="s1" d="M7129 4083l140-342 8-24"/><path class="s1" d="M6494 5294l-16 17-46 48h-1"/><path class="s1" d="M6389 54e2l-12 11-107 104"/><path class="s1" d="M7120 4342l1-1 7-1"/><path class="s1" d="M7121 4342a11 8-73.41074417030363 0 0 1 21"/><path class="s1" d="M7166 4419l-46-14-8-4-9-4"/><path class="s1" d="M7111 4401h1"/><path class="s1" d="M7101 4387l1-4 3-4 2-1"/><path class="s1" d="M71e2 4386a11 5 40.268838895987194 0 0 11 14"/><path class="s1" d="M7123 4325l3 1 69 21"/><path class="s1" d="M7195 4347l-69-21-4-1h-1-1-13"/><path class="s4" d="M7155 4447l-78-46v-1m29-74 1-1"/><path class="s1" d="M7175 4377l-1 2-7 8-3 1-5 1-22-1"/><path class="s1" d="M7196 4346v1l-4 2-4 1h-2-1"/><path class="s1" d="M7173 4402h-14l-22-14-5-6"/><path class="s1" d="M7185 4350l-7 9-2 1h-5-23l-10 7-6 15"/><path class="s1" d="M7166 4090a131 32-127.86630495554394 0 0-4 5"/><path class="s1" d="M7171 4088a131 32-127.86630495554394 0 0-5 2"/><path class="s1" d="M7278 4095l62 33 3 2"/><path class="s1" d="M7342 4133l-1 1"/><path class="s1" d="M7343 4130l-2 4"/><path class="s1" d="M7278 4095l-1 2-3 2h-4l-18-10-6-2-8-2h-9l-58 3"/><path class="s1" d="M7252 4160l-46-24-2-2-41-38"/><path class="s1" d="M7252 4160a14 10-77.09773380002643 0 0 13-8"/><path class="s1" d="M7341 4134l-3 2h-6l-56 1-3 1-3 1-1 3-4 10"/><path class="s1" d="M4368 5160l-2 2h-3l-1-2-30 2"/><path class="s1" d="M4332 5162v6l-1 2"/><path class="s1" d="M6152 6086l-119-92"/><path class="s1" d="M5985 5956l-127-98"/><path class="s1" d="M5814 5824l-128-1e2"/><path class="s1" d="M5647 5694l-89-70"/><path class="s1" d="M4797 5717l714-83"/><path class="s4" d="M4789 5732m0-13m-9-11-412-548"/><path class="s1" d="M5518 5635l-2-2-636-508-512 35"/><path class="s1" d="M2804 5965l-4 6 1 6"/><path class="s1" d="M2875 5960a41 19-10.80738947139312 0 0-3-6"/><path class="s1" d="M6356 6304l-838-669"/><path class="s1" d="M5230 6304l-440-583"/><path class="s1" d="M5138 6304l-410-576"/><path class="s1" d="M2745 5963l-157 226-76 115"/><path class="s1" d="M6817 5874l-402-212"/><path class="s1" d="M6376 5642l-164-86"/><path class="s1" d="M6381 5546l-38 1"/><path class="s1" d="M6248 5549l-36 5"/><path class="s1" d="M6376 5642l-164-87"/><path class="s1" d="M6637 5291l3 3"/><path class="s1" d="M1154 5647h1l369-203 190-108"/><path class="s1" d="M5877 5568v-1l1-3 4-4 4-2 4-1 3-1"/><path class="s1" d="M5875 5567a28 10 12.208732874389742 0 0 57 12"/><path class="s1" d="M5201 5104l-285 20"/><path class="s1" d="M5516 5589l-6e2-465"/><path class="s1" d="M4060 5138l-3 1"/><path class="s1" d="M4060 5138h-3"/><path class="s1" d="M2597 48e2l-14-1036-1428-520"/><path class="s1" d="M3321 5230l-44-15-57-19-25-10-45-18-60-26-38-19-51-26-43-24-46-28-33-20-39-26-39-27-25-20-37-27-36-30-29-24-37-32-37-35"/><path class="s1" d="M26e2 4804l-265 166-621 366"/><path class="s1" d="M3358 5227l-1 2"/><path class="s1" d="M3357 5227v1l-1 1"/><path class="s1" d="M3404 5259l2 2"/><path class="s1" d="M4060 5135h-3"/><path class="s1" d="M4044 3876h-2"/><path class="s1" d="M7378 3743l-107-43-6-5-2-3-3-7 1-3"/><path class="s1" d="M7292 3650h5 5l9 1 64 27"/><path class="s1" d="M7297 3660a19 12-38.659808254090095 0 0-5-3"/><path class="s1" d="M7271 3686a19 12-38.659808254090095 0 0 26-26"/><path class="s1" d="M7288 3655l5 2"/><path class="s1" d="M7381 3839h-2l-5-1-74-30-3-3-1-3v-2l1-3 1-2 2-1 20-8 2-1h3l4-1h1"/><path class="s1" d="M6937 4743h7"/><path class="s1" d="M6937 4743a11 8-73.41074417030363 0 0-2 22"/><path class="s1" d="M6970 4825l-41-19-8-5-8-5"/><path class="s1" d="M6921 4801h1"/><path class="s1" d="M6912 4786l1-3 3-4 3-1"/><path class="s1" d="M6911 4786a17 8 35.53767779197438 0 0 7 12"/><path class="s1" d="M6921 4801l-3-2"/><path class="s1" d="M6940 4727h1l3 2 63 29"/><path class="s1" d="M7007 4758l-64-30-3-1h-2l-13-2"/><path class="s4" d="M6955 4851l-67-54h-1v-2m37-69 1-1"/><path class="s1" d="M6823 4941a12 9-64.60360175248393 0 0-3 23"/><path class="s1" d="M6829 4942h-6"/><path class="s1" d="M6847 5025l-38-21-7-6-8-6"/><path class="s1" d="M6794 4983l1-3 4-4 3-1"/><path class="s1" d="M6794 4982a17 9 40.085053832681275 0 0 4 14"/><path class="s1" d="M6802 4998l-3-2"/><path class="s1" d="M6828 4926l1 1 58 33"/><path class="s1" d="M6887 4960l-57-33-3-1h-1l-2-1-12-2"/><path class="s4" d="M6831 5050l-62-58v-1-1m42-66 1-1"/><path class="s1" d="M6926 4901l-12-7-1-1-14-6-7-4-2-2"/><path class="s1" d="M6907 4915l-2-1-14-7-4-1-5-1"/><path class="s1" d="M6936 4884l-2-3-30-16-7-2-4 3-3 4-18 43-1 6 1 5 3 4 26 14"/><path class="s1" d="M7034 4544a11 8-73.41074417030363 0 0 0 22"/><path class="s1" d="M7075 4624l-44-17-8-4-8-5"/><path class="s1" d="M7023 4602l1 1"/><path class="s1" d="M7013 4589l1-4 3-4 2-2"/><path class="s1" d="M7012 4587a16 8 29.744881296942225 0 0 7 13"/><path class="s1" d="M7023 4602l-3-2"/><path class="s1" d="M7038 4528l3 1 66 25"/><path class="s1" d="M7107 4554l-66-26h-4l-1-1h-1-13"/><path class="s4" d="M7062 4650l-73-49v-1-1m32-72h1"/><path class="s1" d="M7321 4216l-9-6"/><ellipse class="s4" cx="7320" cy="4210" rx="8" ry="5" transform="rotate(-19.736229924171916 7320.0,4210.0)"/><ellipse class="s4" cx="7196" cy="4414" rx="8" ry="5" transform="rotate(-19.736229924171916 7196.0,4414.0)"/><path class="s1" d="M7229 4280l-64 161-46 104-41 89-51 1e2-50 92-55 95-53 83-47 69"/><path class="s1" d="M7284 4206a196 132-27.8233822269436 0 0-55 74"/><path class="s1" d="M7344 4167a228 163-20.564681303761347 0 0-59 40"/><path class="s1" d="M7353 4162l-9 5"/><path class="s1" d="M7384 4148a229 166-23.191592906060784 0 0-32 13"/><path class="s1" d="M6678 5253l-36 43"/><path class="s1" d="M6603 5361a227 144-6.140278658673049 0 0-13 139"/><path class="s1" d="M6590 55e2a211 136-2.218067198767766 0 0 61 47"/><path class="s1" d="M6968 5694l-316-145"/><path class="s1" d="M6593 5345l-1 1-2 1-5-1-19-7"/><path class="s1" d="M6583 5363l-17-24-2-7"/><path class="s1" d="M6573 5323l-9 9"/><path class="s1" d="M6582 5364v1"/><path class="s1" d="M6532 5323l2-4 4-3h2"/><path class="s1" d="M6532 5322a13 5-122.84772536703164 0 0 5 15"/><path class="s1" d="M6543 5345l34 29"/><path class="s1" d="M6564 5408l-58-80v-1-1"/><path class="s1" d="M6719 5178v-3l3-9v-5l-2-5"/><path class="s1" d="M6733 5185l-36-18-1-1h-1l-13-3"/><path class="s1" d="M6717 5205l-32-16h-1-1l-12-4"/><path class="s1" d="M6682 5163l-11 22"/><path class="s1" d="M6865 4985l-1 2-7 8-3 1h-4l-21-5"/><path class="s1" d="M6891 4958l-1 1-4 2h-4-1-1"/><path class="s1" d="M6856 5012l-7-2-20-19-3-7"/><path class="s1" d="M6880 4961l-7 8-3 1h-4l-21-4-11 4-8 14"/><path class="s1" d="M7086 4582v1l-1 1-7 8-3 1h-4l-22-1"/><path class="s1" d="M7109 4552l-1 1-4 2-4 1h-1-1"/><path class="s1" d="M7083 4608l-12-1-22-15-4-7"/><path class="s1" d="M7098 4556h-1l-6 8-3 2h-5l-22-2-10 6-6 15"/><path class="s1" d="M6747 5064l8 1 4 3 31 38 1 1"/><path class="s1" d="M6753 5158l-25-16"/><path class="s1" d="M6738 5080h1l1 27-19 37-2 4-4 1-8 1-5 2-3 5-4 7"/><path class="s1" d="M6683 5231l-4-9-1-5-2-5v-5l2-10-3-7-4-5"/><path class="s1" d="M6696 5231l-4-2-3-1-4 1-2 2-30 6-6-1-9-4"/><path class="s1" d="M6742 5062h1"/><path class="s1" d="M6744 5061h1"/><path class="s1" d="M6745 5061h1"/><path class="s1" d="M6743 5062h1"/><path class="s1" d="M6745 5061h1"/><path class="s1" d="M6625 5205l107-139 4-4 4-1h6l1 1h1"/><path class="s1" d="M6624 5205a16 12-64.32990412704505 0 0-1 23"/><path class="s1" d="M6663 5273l-39-45"/><path class="s1" d="M7311 5213l-490-136"/><path class="s1" d="M6822 5073l-53 74-30 40-29 36-27 34"/><path class="s1" d="M7151 5427l-475-171"/><path class="s1" d="M6907 4916l-1 2"/><path class="s1" d="M6977 4813h-1l-1-2"/><path class="s1" d="M6954 4781l1-1"/><path class="s1" d="M7006 4761h-4-2-1"/><path class="s1" d="M6978 4812l-7-1-22-17-3-7"/><path class="s1" d="M6999 4761l-7 8-2 1h-5l-21-2-10 5-8 14"/><path class="s1" d="M4846 2743l2048 281"/><path class="s1" d="M6894 3024l1-1"/><path class="s1" d="M7378 3590l-42 8-67-6-114 22v18"/><path class="s1" d="M6848 3018v-2"/><path class="s1" d="M6848 3016l529 73"/><path class="s1" d="M5955 3680l-31 8"/><path class="s1" d="M5896 3696l-130 35"/><path class="s1" d="M5712 3746l-118 33"/><path class="s1" d="M5573 3784l-324 89-492-21"/><path class="s1" d="M2583 3764l1054 42"/><path class="s1" d="M3637 3806l116-637 7-10 9-1 340 33 6 4-3 10-145 288"/><path class="s1" d="M2945 3838l20 1"/><path class="s1" d="M3708 3865v-12h-1"/><path class="s1" d="M3690 3866h19"/><path class="s1" d="M3718 3810l-40-2"/><path class="s1" d="M4044 3873h-2"/><path class="s1" d="M3701 3459l217 15 6 2 3 5 7 19 5 7 6 5 8 3 57 3"/><path class="s1" d="M3656 3495l-60-4"/><path class="s1" d="M3619 3161l-23 330"/><path class="s1" d="M3757 3129a131 43 4.737576178387215 0 0-140 32"/><path class="s1" d="M4081 3160l-322-30"/><path class="s1" d="M4187 3207a126 42 2.726310993906266 0 0-107-47"/><path class="s1" d="M4184 3213a126 42 2.726310993906266 0 0 3-6"/><path class="s1" d="M4010 3518l175-305"/><path class="s1" d="M3701 3459l217 15 6 2 3 5 7 19 5 7 6 5 8 3 57 3"/><path class="s1" d="M4010 3518l-170 297"/><path class="s1" d="M3705 3459c-5 1-11 2-15 5-5 4-8 11-12 17-4 6-8 11-14 13-2 1-5 1-8 1"/><path class="s1" d="M3656 3495l-60-4"/><path class="s1" d="M3596 3491l-21 313"/><path class="s1" d="M3840 3815l-265-11"/><path class="s1" d="M5201 3562l139 10 4 2 3 4 5 17 3 6 5 5 7 2 44 3"/><path class="s1" d="M5410 3612h9l584-232 13-6 9-6 5-6v-5l-4-5-9-4-12-4-17-2-230-22-20-1h-22l-23 1-23 3-22 4-21 4-17 6-15 6-509 246"/><path class="s1" d="M5706 3590h-1v-1"/><path class="s1" d="M5741 3590l7-3 8-6 4-6v-2l-1-2"/><path class="s1" d="M5759 3571l-4-1-8-1-11-1-11 1-11 2-9 1-6 3-3 2"/><path class="s1" d="M5725 3587l1 1"/><path class="s1" d="M5696 3577v2l1 2 4 5 5 4h2l3 1h1l6-1 8-2"/><path class="s1" d="M5951 3508v-3"/><path class="s1" d="M5951 3505l-5-2"/><path class="s1" d="M6139 3434l-4-1h-1"/><path class="s1" d="M6128 3433h-5-1"/><path class="s1" d="M6324 3365h-6"/><path class="s1" d="M5891 3526l2 1"/><path class="s1" d="M5930 3526l8-3 2-2 7-5 4-7v-1-3"/><path class="s1" d="M5951 3505l-5-2-8-1h-12-12l-12 2-11 2-7 3-4 3"/><path class="s1" d="M5913 3523v-1"/><path class="s1" d="M5880 3512v2l1 2 4 6 6 4 2 1h4 1l6-1 9-3"/><path class="s1" d="M6125 3459l7-2 3-2 7-6 5-7v-5"/><path class="s1" d="M6147 3437l-4-2-9-2h-12l-14 1-13 2-12 3-9 3-4 3"/><path class="s1" d="M6106 3455v2"/><path class="s1" d="M6106 3455v2"/><path class="s1" d="M6080 3460l3 1h4 1 7l11-4"/><path class="s1" d="M6070 3445v2 3l4 6 1 1 1 1 4 2h1"/><path class="s1" d="M6319 3393l6-2 4-3 8-6 6-7v-4l1-2"/><path class="s1" d="M6344 3369l-5-2-9-2h-13l-15 1-15 2-13 3-10 4-6 4"/><path class="s1" d="M6298 3389l1 2"/><path class="s1" d="M6268 3395l4 1h5 1l8-1 13-4"/><path class="s1" d="M6258 3379v3l-1 2 5 6 1 1 1 1 1 1 3 2h1"/><path class="s1" d="M6545 3317l5-2 5-3 9-7 6-9 1-4v-2"/><path class="s1" d="M6536 3298h1"/><path class="s1" d="M6475 3305v2l4 5v1l1 1 1 1 1 1h1v1l4 2 4 1h6 1l9-1 15-5"/><path class="s1" d="M6571 3291a48 11-8.184612884948166 1 0-96 14"/><path class="s1" d="M6551 3285h-6-1"/><path class="s1" d="M6511 3288a48 11-8.184612884948166 0 0-36 17"/><path class="s1" d="M5708 5413l18 11"/><path class="s1" d="M2175 3625l17 1427"/><path class="s1" d="M1887 4549l-1-253"/><path class="s1" d="M1697 4564l-3-274"/><path class="s1" d="M1705 4280a10 10-90 0 0-10 10"/><path class="s1" d="M1872 4283l-167-3"/><path class="s1" d="M1872 4283a13 13-90 0 1 13 13"/><path class="s1" d="M1712 4578l164-15"/><path class="s1" d="M1888 4549a13 13 0 0 1-13 12"/><path class="s1" d="M1712 4577a13 13 85.60129464500447 0 1-15-13"/><path class="s1" d="M1155 2974l2445 218"/><path class="s1" d="M3623 3133 1155 2901"/><path class="s1" d="M3946 3534l-141 279"/><path class="s1" d="M5497 3361 4185 3244"/><path class="s1" d="M4198 32e2l1360 127"/><path class="s1" d="M5938 3362l-227-21-9-1h-9l-7 1-15 3-17 5-16 6"/><path class="s1" d="M5561 3498l8-2 16-5 13-6"/><path class="s1" d="M7249 3828l-11 37-21 65-23 64-3 6-42 48"/><path class="s1" d="M7377 3090l-529-72-810 324"/><path class="s1" d="M5936 3362l-2 14-591 243"/><path class="s1" d="M1716 5339c61 53 121 105 184 155 84 67 173 130 264 188 91 59 185 113 283 160 96 46 195 84 295 122"/><path class="s1" d="M2866 5949c-5-2-9-4-13-5-6-1-13 0-19 1-8 2-15 6-22 11-4 4-8 7-11 12-1 3-2 5-2 8 0 1 1 3 1 4 2 3 5 5 8 6 9 3 17 4 25 3 9-2 19-5 27-9 4-2 8-4 11-7 2-3 4-5 5-8 0-2 0-5-2-8-1-2-3-5-5-6-1-1-2-1-3-2"/><path class="s1" d="M3165 5522c-3 0-6 0-10 0-4 0-9 0-14 2-4 1-7 3-10 6-2 2-4 5-6 8 0 1-1 2-1 3 0 1 0 2 1 3 1 2 3 3 5 4 4 2 9 3 14 3 7 0 14 0 20-2 4-2 8-3 12-6 1-1 3-2 4-4 1-1 1-3 1-4 0-1 0-3-1-4-2-3-5-5-8-6-2-1-4-2-7-3"/><path class="s1" d="M3366 5272c2 0 4 0 6 1 3 0 6 0 9 0 4 0 9-1 13-2 3 0 6-1 9-2 1-1 2-1 3-2 0 0 1-1 1-2 1-1 0-3-1-5-1-2-4-3-6-5-3-1-6-2-10-2-3-1-7-1-11 0-3 1-7 2-10 4-2 2-4 3-6 5 0 1-1 3-2 4 0 1 0 2 1 3 1 1 2 2 4 3"/><g><path class="s4" d="M4374 5179h-3l-13 1-3 1-2 2-2 2v1l5 11c2 0 4 1 5 1 5 1 9 0 14 0 2 0 5 0 7-1 2-1 3-2 4-2v-2l-3-9-2-2-7-3" fill-rule="evenodd"/></g><path class="s1" d="M3379 38e2l1 8 1 25"/><path class="s1" d="M3381 3833l-33-2"/><path class="s1" d="M3327 3831l-33-2"/><path class="s1" d="M3294 3829l-1-25-1-8"/><path class="s1" d="M3329 3854l20 1"/><path class="s1" d="M3797 3742l-27 55"/><path class="s1" d="M3575 4471l-12-375"/><path class="s1" d="M3170 4474l-13-386"/><path class="s1" d="M3168 4078a10 10-90 0 0-10 10"/><path class="s1" d="M3553 4086l-385-9"/><path class="s1" d="M3552 4086a10 10-90 0 1 10 10"/><path class="s1" d="M3181 4484l383-3"/><path class="s1" d="M3574 4471a10 10 0 0 1-10 10"/><path class="s1" d="M3181 4483a10 10 90 0 1-10-10"/><path class="s1" d="M4508 4110l314 5"/><path class="s1" d="M4495 4457l2-336"/><path class="s1" d="M4507 4111a10 10-90 0 0-10 10"/><path class="s1" d="M4495 4457a10 10 180 0 0 10 10"/><path class="s1" d="M4818 4464l-313 3"/><path class="s1" d="M4818 4464a10 10 90 0 0 10-10"/><path class="s1" d="M4833 4126l-5 328"/><path class="s1" d="M4822 4116a10 10-90 0 1 10 10"/><path class="s1" d="M4330 3837v10 21l27 2v20l17 1v-21l26 1v-31"/><path class="s1" d="M4630 3849v10 21l27 2v20l17 1v-21l25 1 1-31"/><path class="s1" d="M4916 3858v10 21l27 2v20l16 1 1-21 25 1 1-31"/><path class="s1" d="M3899 3522l-52 108"/><path class="s1" d="M3949 3434l91-183"/><path class="s1" d="M3672 3640c5 0 10-1 15-1 9-1 18-1 27 0"/><path class="s1" d="M3714 3639l93 6"/><path class="s1" d="M3807 3645c5 1 10 2 15 2 3 1 7 2 10 4 1 0 2 1 3 2 1 2 1 3 1 4"/><path class="s1" d="M3836 3657l-14 29"/><path class="s1" d="M3822 3686c-2 1-4 2-5 3-4 2-9 2-13 1-7 0-14 1-21 1-3 0-6 0-10 0-25 0-50-2-75-4-8-1-16-2-24-3-3 0-5-1-8-2-1 0-3-1-5-2"/><path class="s1" d="M3688 3679l-5-1-2-1 5-28 3-1 5-1"/><path class="s1" d="M3802 3652l4 1h3v3l-11 25-3 2-4 1"/><path class="s1" d="M3775 3257l14-71 4-4 6-1 175 14 7 3 3 7-26 69-7 2h-9l-163-12-4-6"/><ellipse class="s4" cx="3845" cy="3381" rx="55" ry="17" transform="rotate(1.94668989458189 3845.0,3381.0)"/><path class="s1" d="M3790 3383l-7-8-4-11-2-25h6v-5l9 1 3-5 6-1 6 2 5-1 2-3h6l4 2h9l2-3h6l1 3h15l3-2 5 1 1 4 8 1 6-3 6 2v4l3 1h11l1 5 7 1 1 5 2 1v22l-3 6-5 8-6 4"/><path class="s1" d="M3797 3334v19l1 5 5 8"/><path class="s1" d="M3816 3331v24l3 9"/><path class="s1" d="M3838 3329v24 8"/><path class="s1" d="M3861 3332v26l-1 5"/><path class="s1" d="M3882 3334v25l-2 8"/><path class="s1" d="M39e2 3344l-2 21-3 7"/><ellipse class="s4" cx="3730" cy="3752" rx="33" ry="9" transform="rotate(1.9108863879343974 3730.0,3752.0)"/><path class="s1" d="M3697 3752l-4-5-3-6-1-15h4v-3h6l1-2 4-1 3 1h3l1-2h4l2 1h6l1-2h4v2h9l2-1 3 1 1 2h5l3-1 4 1v2l2 1h6l1 3h4l1 4h1l-1 14-1 3-3 5-4 2"/><path class="s1" d="M3658 3462l33-290 6-12"/><path class="s1" d="M3652 3534l-30 248"/><ellipse class="s4" cx="5500" cy="3515" rx="51" ry="15" transform="rotate(-3.324029689390691 5500.0,3515.0)"/><path class="s1" d="M5450 3521l-7-6-5-10-4-23h5l1-5h8l2-4 5-2 6 1 5-1 1-3h5l4 1 9-1 1-3 6-1 1 3 14-1 2-2h5l1 3 8 1 5-3 6 1v3l3 1 10-1 2 5 6-1 2 5 1 1 2 21-1 5-4 7-6 5"/><path class="s1" d="M5452 3476l2 18 1 4 5 7"/><path class="s1" d="M5469 3471l2 22 4 8"/><path class="s1" d="M5489 3468l3 22v7"/><path class="s1" d="M5511 3468l2 24v5"/><path class="s1" d="M5530 3468l2 23-1 8"/><path class="s1" d="M5547 3475l1 20-3 7"/><path class="s1" d="M4592 3845l165 7"/><g><path class="s4" d="M4778 3790m0 0a33 5 0 1 0 66 0" fill-rule="evenodd"/></g><path class="s1" d="M6561 5432c-13 15-26 29-41 42-10 9-21 17-31 24-13 9-27 18-40 25-8 5-17 9-25 14"/><path class="s1" d="M5199 5146c3 1 6 2 9 2 4 1 8 0 12 0 2-1 4-1 6-2 1 0 1-1 2-1 0-1 0-2 0-3-1-3-3-4-5-5-3-2-6-4-10-5-3-1-6-1-9 0-3 0-6 1-9 3-2 1-3 2-4 4-1 1-1 1-1 2 1 1 2 1 3 2 2 1 4 2 6 3"/><path class="s1" d="M5514 5313c-2-1-5-1-7-1-4 1-8 1-12 3-2 1-4 3-6 6-1 0-1 1-1 2 0 1 2 3 3 4 4 1 7 2 10 3 2 1 5 1 7 2 3 0 5 0 7 1"/><path class="s1" d="M5059 3702l256-112"/><path class="s1" d="M5367 3564l61-28"/><g><path class="s4" d="M1751 4368m0 0a7 3 78.1853111346716 0 0-3-12m2 14" fill-rule="evenodd"/></g><g><path class="s4" d="M1768 4367m0 0a7 3 78.1853111346716 0 0-3-12m2 14" fill-rule="evenodd"/></g><g><path class="s4" d="M1785 4367m0 0a7 3 78.1853111346716 0 0-3-12m2 14" fill-rule="evenodd"/></g><g><path class="s4" d="M1801 4366m0 0a7 3 78.1853111346716 0 0-3-12m2 14" fill-rule="evenodd"/></g><g><path class="s4" d="M1817 4366m0 0a7 3 78.1853111346716 0 0-3-12m2 14" fill-rule="evenodd"/></g><g><path class="s4" d="M1832 4366m0 0a7 3 78.1853111346716 0 0-3-12m2 14" fill-rule="evenodd"/></g><g><path class="s4" d="M1752 4395m0 0a7 3 78.1853111346716 0 0-3-12m2 14" fill-rule="evenodd"/></g><g><path class="s4" d="M1768 4394m0 0a7 3 78.1853111346716 0 0-3-12m2 14" fill-rule="evenodd"/></g><g><path class="s4" d="M1785 4394m0 0a7 3 78.1853111346716 0 0-3-12m2 14" fill-rule="evenodd"/></g><g><path class="s4" d="M1801 4393m0 0a7 3 78.1853111346716 0 0-3-12m2 14" fill-rule="evenodd"/></g><g><path class="s4" d="M1818 4393m0 0a7 3 78.1853111346716 0 0-3-12m2 14" fill-rule="evenodd"/></g><g><path class="s4" d="M1833 4393m0 0a7 3 78.1853111346716 0 0-3-12m2 14" fill-rule="evenodd"/></g><g><path class="s4" d="M1752 4421m0 0a7 3 78.1853111346716 0 0-3-12m2 14" fill-rule="evenodd"/></g><g><path class="s4" d="M1769 4420m0 0a7 3 78.1853111346716 0 0-3-12m2 14" fill-rule="evenodd"/></g><g><path class="s4" d="M1786 4420m0 0a7 3 78.1853111346716 0 0-3-12m2 14" fill-rule="evenodd"/></g><g><path class="s4" d="M1802 4419m0 0a7 3 78.1853111346716 0 0-3-12m2 14" fill-rule="evenodd"/></g><g><path class="s4" d="M1818 4419m0 0a7 3 78.1853111346716 0 0-3-12m2 14" fill-rule="evenodd"/></g><g><path class="s4" d="M1834 4419m0 0a7 3 78.1853111346716 0 0-3-12m2 14" fill-rule="evenodd"/></g><g><path class="s4" d="M1753 4446m0 0a7 3 78.1853111346716 0 0-3-12m2 14" fill-rule="evenodd"/></g><g><path class="s4" d="M1769 4446m0 0a7 3 78.1853111346716 0 0-3-12m2 14" fill-rule="evenodd"/></g><g><path class="s4" d="M1786 4445m0 0a7 3 78.1853111346716 0 0-3-12m2 14" fill-rule="evenodd"/></g><g><path class="s4" d="M1802 4445m0 0a7 3 78.1853111346716 0 0-3-12m2 14" fill-rule="evenodd"/></g><g><path class="s4" d="M1819 4445m0 0a7 3 78.1853111346716 0 0-3-12m2 14" fill-rule="evenodd"/></g><g><path class="s4" d="M1834 4445m0 0a7 3 78.1853111346716 0 0-3-12m2 14" fill-rule="evenodd"/></g><g><path class="s4" d="M1753 4472m0 0a7 3 78.1853111346716 0 0-3-12m2 14" fill-rule="evenodd"/></g><g><path class="s4" d="M1770 4471m0 0a7 3 78.1853111346716 0 0-3-12m2 14" fill-rule="evenodd"/></g><g><path class="s4" d="M1787 4471m0 0a7 3 78.1853111346716 0 0-3-12m2 14" fill-rule="evenodd"/></g><g><path class="s4" d="M1803 4471m0 0a7 3 78.1853111346716 0 0-3-12m2 14" fill-rule="evenodd"/></g><g><path class="s4" d="M1819 4470m0 0a7 3 78.1853111346716 0 0-3-12m2 14" fill-rule="evenodd"/></g><g><path class="s4" d="M1835 4470m0 0a7 3 78.1853111346716 0 0-3-12m2 14" fill-rule="evenodd"/></g><g><path class="s4" d="M1754 4499m0 0a7 3 78.1853111346716 0 0-3-12m2 14" fill-rule="evenodd"/></g><g><path class="s4" d="M1771 4498m0 0a7 3 78.1853111346716 0 0-3-12m2 14" fill-rule="evenodd"/></g><g><path class="s4" d="M1788 4498m0 0a7 3 78.1853111346716 0 0-3-12m2 14" fill-rule="evenodd"/></g><g><path class="s4" d="M1804 4498m0 0a7 3 78.1853111346716 0 0-3-12m2 14" fill-rule="evenodd"/></g><g><path class="s4" d="M1820 4497m0 0a7 3 78.1853111346716 0 0-3-12m2 14" fill-rule="evenodd"/></g><g><path class="s4" d="M1836 4497m0 0a7 3 78.1853111346716 0 0-3-12m2 14" fill-rule="evenodd"/></g><path class="s1" d="M4533 5394l-4 1-16 1-3 1-3 2-2 2v2l6 13"/><path class="s1" d="M4511 5416c2 0 4 1 6 1 5 1 11 0 16 0 3 0 6 0 9-2 2-1 3-2 5-2"/><path class="s1" d="M4547 5413v-2l-4-11-2-2-9-4"/><path class="s1" d="M4770 5707h-6l-21 1-5 2-4 3-3 4v1l8 18"/><path class="s1" d="M4739 5736c4 0 6 1 9 2 7 2 14 1 22 0 4 0 9 0 13-2 2-1 4-3 6-3"/><path class="s1" d="M4789 5733v-3l-5-15-3-3-12-5"/><path class="s1" d="M5932 5579l1-3-1-5-5-6-4-3-2-1"/><path class="s1" d="M5704 5586c2 0 4 1 5 2 2 2 4 4 4 6 1 2 0 4 0 6-2 2-4 4-6 5-2 2-5 3-8 4-2 1-4 2-7 2-4 0-9-1-14-3"/><path class="s1" d="M5641 5619l-66 8"/><path class="s1" d="M6160 5559l-113 14"/><path class="s4" d="M5984 5578l-46 5m-36 5-39 4"/><path class="s4" d="M5743 5606l-27 4m-44 5"/><path class="s1" d="M5864 5508l19 12 10 6"/><path class="s1" d="M5201 5104l308 187"/><path class="s1" d="M5561 5323l78 48"/><path class="s1" d="M5785 5461l26 15"/><path class="s1" d="M3708 3853v-2-7"/><path class="s1" d="M3690 3866l-1-22"/><path class="s1" d="M3330 3855l-2-3v-12-2-8"/><path class="s1" d="M3348 3831v7 2 1 13l-1 2"/><path class="s1" d="M2946 3839l-2-2v-13-2-5"/><path class="s1" d="M2964 3816v6 2 1l1 13-2 2"/><path class="s1" d="M4807 3753h8 14l13 1 11 1 10 1 8 2 5 2 3 2"/><path class="s4" d="M4844 3791l4-3 1-7v-11l-2-3m-4 0m-3-2m-6 0m-3-1m-4 1m-6-1m-2-1m-5 1m-5 0m-4-1m-2 1m-7-1m-4 1m-4 1m-4 0m-2 2m-4-1"/><path class="s1" d="M4773 3769v14l1 3 3 5"/><path class="s1" d="M5343 3619l-552 219"/><path class="s1" d="M5641 3354 4620 3832"/><path class="s1" d="M4592 3845l-787-32"/><path class="s1" d="M5416 3613l-575 227"/><path class="s1" d="M5148 3585l-13 4-14 1-35-1-497 238"/><path class="s1" d="M6566 5464c0 45 1 89 23 120 14 19 35 34 56 48"/><path class="s1" d="M6645 5632l279 135"/><path class="s1" d="M7271 3687l-6-3-1-3"/><path class="s1" d="M4955 3685l84 8 4 1v2l-2 3-6 3-89 38-6 3-7 1-28-1"/><path class="s1" d="M5601 3635l7-3 8-6 4-6v-2l-1-2"/><path class="s1" d="M5619 3616l-4-1-8-1-11-1-11 1-11 2-9 1-6 3-3 2"/><path class="s1" d="M5556 3622v2l1 2 4 5 5 4h2l3 1h1l6-1 8-2"/><path class="s1" d="M6767 3710l480 26"/><path class="s1" d="M6015 3669l60 3"/><path class="s1" d="M6133 3675l122 7"/><path class="s1" d="M6331 3686l137 8"/><path class="s1" d="M6540 3698l227 12"/><path class="s1" d="M6517 3758l184-36"/><g><path class="s5" d="M4486 6995v283c0 9-2 17-7 25-4 7-11 14-18 18-8 5-16 7-25 7H4153c-9 0-17-3-25-7-7-4-14-11-18-18-5-8-7-16-7-25V6995c0-9 3-18 7-25 4-7 11-14 18-18 8-5 16-7 25-7h283c9 0 18 2 25 7 7 4 14 11 18 18 5 8 7 16 7 25" fill-rule="evenodd"/></g><path class="s6" d="M4153 6995h283v283H4153z"/><text x="4220" y="7212"><tspan class="f3 s7" font-size="206.944">A</tspan></text><g><path class="s5" d="M6687 6379c0 6 1 11 3 17 2 5 4 10 8 14 3 5 8 9 13 12l180 105v48c-1 12 4 23 11 32 8 9 18 16 30 18 11 3 23 1 34-6l166-109c8-4 14-11 17-18 4-7 6-16 6-24 0-8-2-17-6-24l-126-232c-4-9-10-15-18-19-8-5-17-7-26-7-9-1-18 2-26 7l-40 23-113-65c-5-3-10-6-16-7-6-1-12-1-18 0-5 1-11 3-16 6l-38 22c-5 3-9 7-13 12-4 4-7 9-9 15-2 5-3 11-3 17v163" fill-rule="evenodd"/></g><path class="s8" d="M6737 6216l204 119v-77l126 232-126 85v-77l-204-119V6216l38-22 161 94m5-30 38-22 126 232-38 22m38-22m-164 107"/><text transform="matrix(0.929 0.529 -0 1 483.643 -3578.957)" x="6771" y="6354"><tspan class="f2 s7" font-size="97.222">FWD</tspan></text><path class="s9" d="M4296 2746l4-153-59 10z"/><path class="s1" d="M4227 2349l69 397"/><text x="3372" y="6802"><tspan class="f3 s7" font-size="123.611">BULK CARGO COMPARTMENT</tspan></text><text x="3972" y="6926"><tspan class="f3 s7" font-size="123.611">(AFT SIDE)</tspan></text><text x="3549" y="2174"><tspan class="f2 s7" font-size="123.611">INSPECTION AREA</tspan></text><text x="3549" y="2298"><tspan class="f2 s7" font-size="113.875">(ZONES 161, 162)</tspan></text><path class="s10" d="M6260 5510c5-5 10-10 15-14 35-33 69-65 103-97"/><path class="s10" d="M6446 5333c11-10 21-21 32-32"/><path class="s10" d="M6525 5249c40-44 77-90 113-137 37-49 72-99 106-150 47-71 90-144 130-219 21-39 42-79 61-120 30-60 58-120 84-182 30-70 58-142 87-213 17-41 34-81 51-121"/><path class="s10" d="M7157 4107l-41-20 155-377-24-12-12-5-14 1-10-6-29-48-35-2 1-32 120-23 65 7 48-10V2739H1147V5646"/><path class="s10" d="M1147 5646c18 19 35 38 53 57 33 37 65 74 98 111 44 48 90 94 138 138 52 47 106 92 165 130 38 26 79 48 119 70 57 31 114 61 173 85 70 28 143 47 216 62 27 5 53 10 79 15"/><path class="s10" d="M2188 6314l38 3H6364"/><path class="s10" d="M6364 6317c24-16 48-32 72-49 120-87 223-197 322-308 28-31 56-62 83-94"/><path class="s10" d="M6841 5866l-273-152"/></svg>