<svg xmlns="http://www.w3.org/2000/svg" height="10in" viewBox="0 0 7777 10005" width="7.78in"><defs><style>.f1{font-family:Consolas,Courier New,monospace}.f2{font-family:Helvetica,Arial,sans-serif}.f3{font-family:Helvetica,Arial,sans-serif;font-weight:700}.f4{font-family:Times}.f5{font-family:Times;font-weight:700}.f6{font-family:Courier}.f7{font-family:Courier;font-weight:700}.f8{font-family:Symbol}.s11{fill:none;stroke:#fff;stroke-width:58}.s6{fill:#fff}.s4{fill:none;stroke:#000;stroke-width:8}.s8{fill:none;stroke:#fff;stroke-width:70}.s2{fill:#ccc;stroke:#ccc;stroke-width:8}.s1{fill:#ffc}.s7{fill:#000}.s9{fill:none;stroke:#00f;stroke-width:20}.s5{fill:none;stroke:#f0f;stroke-width:20}.s12{fill:#000;stroke:#000;stroke-width:8}.s10{fill:none;stroke:#00f;stroke-width:12}.s3{fill:none;stroke:#000;stroke-width:10.005}</style></defs><g><path class="s1" d="M2144 1320l1 4-4 9-2 18 5 46h1l43 2 7-3 35 4v18l-27-1 1 17h31l1 6 13 1 1 28 2 9c-11 0-22 0-32 3-9 2-17 7-25 13-11 8-20 19-27 32-5 11-9 24-10 36 0 12 2 23 7 33 5 11 13 20 22 27 7 5 15 8 23 10 11 3 22 4 33 3 4-1 8-2 12-3l8-3c11 4 22 8 33 10 13 2 26 2 37-2 13-4 24-11 33-20 9-8 16-18 20-29 4-10 6-21 7-31 0-14-2-28-8-40-6-12-15-22-26-29-6-2-11-4-16-5l-13-1 20-52-2-6-9-4-6-4-2-7 31 3 7-51-3-21 96 2 160 1 89-2c0 5 7 14 13 22 13 18 24 31 38 41 10 8 23 14 35 19 22 9 44 14 66 17 34 4 68 4 103 2 22-1 45-3 67-6 10-1 20-3 30-4l33-6 53-10 15-9 4-2 56-20 4-9 33-13-7-9 6-8 5-11 320-3 24 4 28 3 50 2h77l7 21 5 3 5 10 10-1-3 22-10 8c-3-4-7-8-11-10-5-3-11-4-16-4-10-2-20-4-29-1-6 2-12 6-17 11-6 7-11 15-14 24-3 10-3 21-3 31 1 12 3 25 9 34 5 6 12 12 19 14 8 3 17 3 26 3 10 0 20-1 27-7 4-3 6-8 8-12l6-8c5 9 9 17 16 22 3 2 7 4 11 5 10 3 21 2 32 0 8 0 16-2 21-8 3-3 5-7 7-7 3 0 7 6 10 9 4 3 9 4 13 4 11 2 23 3 33 0 7-3 14-8 19-14 4-5 7-11 9-17 3-6 4-13 5-19 1-7 0-15-1-22-1-9-4-17-8-25-3-8-8-15-16-18-2-1-5-1-8-1-8-1-15-1-23 0-6 1-12 2-17 4l-10 7-7 6-3-6 7-9v-6l-3-7h-12l-4-7-8-5-12-1v-13l14-4 7-7 165-1c-1 18-2 37-3 56-1 17-2 34-8 49-3 8-8 15-13 22l-12 10-17 12 1 4 104-2 40-6 25-4 8 6 13 8 144 1v-15l4-16-11-20-7-14-4-17-4-67-7-16 80-3c1 4 2 8 4 12 7 17 16 33 28 47 6 9 13 17 21 25 7 7 15 13 22 20l9 7c-6 10-5 23-4 36 1 14 2 26 9 37 2 4 5 8 8 11l11 8 39 1 10-4 13-10 8-19 6-22 12 1 7 36 10 16 9 5 40 3 10-5 11-7 8 5 44-1 11-6 6-12 6-16 4-22c19-4 38-8 56-13 18-5 36-12 54-19 20-9 39-19 57-31 7-6 15-11 23-17l13-17 21-18v-18l26-30-8-15 5-18 9-16-11-26 2-8 5-22c13-13 32-18 48-26 18-9 33-21 48-34 12-10 23-20 35-30 6-6 12-12 18-18l8-10 8-14 386-52 19-3 5 2 19 12 22 5 30 1 28-1 8-5 2-6 1-9-1-11 243-36 147-21 10 8 13 5 17 4 18 6 11 3 11 2 6-7 3-9 1-13-3-8c33-4 66-7 99-10 85-9 170-18 254-29 43-5 85-11 128-16 85-11 169-20 254-29 51-6 103-12 154-19 30-3 59-7 88-10 37-5 74-10 110-17 26-5 53-10 78-17 18-5 36-10 54-17 9-3 19-7 29-10l6-5v-4l-2-4-43 10-30 6-36 5-93 7-143 10-102 10-306 28-411 41-301 31-262 27-188 19-217 21-104 8-93 7-18-13 29-196 27-180 26-184-38-8c-4-1-9 0-13 2-4 1-8 3-11 5-2 2-4 4-6 7-3 5-6 10-8 16L4859 822c-10 11-14 27-24 37-6 7-15 12-23 17l-13 4c-1 0-2 0-3 0-60-14-121-25-182-36L2926 556c-43-6-85-12-127-16-47-5-94-8-142-11-53-3-106-4-159-4-74 1-149 6-223 15-60 7-119 17-178 31-56 13-111 29-162 54-87 42-161 108-243 160l-62 44-11 6-18 11c-21 14-41 28-60 44-27 23-53 48-77 75-14 16-29 33-39 52-7 13-13 27-14 42-1 17 4 35 13 50 11 20 29 35 47 48 42 30 89 50 138 67 71 25 144 42 218 56 44 8 88 15 132 21 50 7 101 13 152 19 6 1 12 1 17 1 6 0 11 0 16-1" fill-rule="evenodd"/></g><g><path class="s1" d="M24e2 6111c-709 42-976-839-830-1513L5095 2564c205-25 411-50 612-23 190 25 376 97 546 195 189 108 360 248 491 417 79 103 144 216 209 329l-206 126-2 2v1l-28 40-33 44-48 63-32 39-3 2-41 46-57 62-47 49-90 81-58 51-39 32-47 36-42 28-64 44-97 61-3 2-5 2-5 3-119 69-140 78-5 2-3 2-395 213-94 54-10 8-25 22-12 9-13 10-13 9-1 2-14 8-7 4c-2 4-4 7-8 9l-15 12-16 11-85 51-72 42-175 97-47 32-37 24-39 26-163 103-225 133-139 77-104 53-87 41-80 35-15 6-3 2-4 1c-2 0-4 1-7 2-2 0-5 1-7 1-2 1-4 2-7 2l-4 1h-1l-39 17h-1l-2 1-9 8-9 9-10 8-12 10-6 4-12 9-13 10-13 8-12 8-15 8-10 5h-2l-13 7-15 7-14 6-15 7-21 7-32 11-109 32-29 8-4 2-54 15-21 4c-2 1-5-1-7-4-2-3-3-7-3-11 0-4 1-7 4-7l24-9 10-3 3-3 2-1v-1h1v-1l-1-3c-1-2-2-3-2-3-1 0-2-1-3-1-1 0-3 0-5 0l-20 1-81 24-365 99-480 276" fill-rule="evenodd"/></g><path class="s2" d="M3240 5292l161 94 60-32 29-16 55-31 17-12 411-235 866-487 88-49 258-147 248-144 317-189 235-151 189-125 3-17-25 1-29-1-30-1-21-4-14-5-11-5-10-7-10-13-8-18-2-16-1-8v-24l-233 155-227 142-305 181-255 145-252 147-140 85-185 111-152 89-488 281-373 214z"/><path class="s3" d="M5879 3724l-97-65-46-32-35-26-30-24-26-23-25-25-23-21-19-20-18-21-15-19-16-21-15-21-16-22"/><path class="s3" d="M5410 2942l-4 34-2 26-3 27v18 18 12 22l1 16 3 18 2 17 2 18 4 17 3 15 5 17 4 14 5 16 5 11 4 14 6 14 6 13 7 13 6 13 11 19 9 15 9 16 5 9"/><path class="s3" d="M4833 3416l-2-3"/><path class="s3" d="M4928 3673l574-284"/><path class="s3" d="M4820 3374l2-27v-1l1-16v-3"/><path class="s3" d="M4819 3373a95 45 28.31748009901774 0 0 6 24"/><path class="s3" d="M4928 3673l-5-8-9-16-8-15-11-21-11-22-9-23-7-14-6-17-5-16-5-16-4-16-4-16-5-16-2-16-3-20-1-2v-3l-2-3-1-3-1-2-1-5-1-1-1-4"/><path class="s3" d="M4823 3327l72-35 95-43 55-22 61-23 90-30 140-42 65-17"/><path class="s3" d="M4851 3120l-3 20-10 49-4 29-4 29-2 24-1 17-1 20v2l-3 17"/><path class="s3" d="M4618 3572l10 44 7 27 9 30 9 28 10 27 8 20 6 17 9 15 6 16 8 14 7 14 8 13 11 16 10 16 9 13 11 13 10 12 10 12 6 7"/><path class="s3" d="M4650 3432v-9"/><path class="s3" d="M4688 3562l-15-15-33-37-2-1-1-3-3-4-1-1-1-1-3-3"/><path class="s3" d="M4687 3561a36 22-85.49363663618806 0 0 29-8"/><path class="s3" d="M4729 3529l-12 23"/><path class="s3" d="M4728 3530a22 14-75.21982276765962 0 0-1-33"/><path class="s3" d="M4691 3456l3 3 2 4h1l1 2 1 2 21 23 8 8"/><path class="s3" d="M4691 3455a111 91-84.5986458690007 0 0-40-24"/><path class="s3" d="M4629 3497l-19 15"/><path class="s3" d="M4618 3572l-3-10-4-30v-3-2l-1-7v-2-6"/><path class="s3" d="M4675 3463l-1 2"/><path class="s3" d="M4634 3495h-1-1l-2 1"/><path class="s3" d="M4634 3495l1 1h1"/><path class="s3" d="M4638 3495a29 13-58.828505025915504 0 0 14-5"/><path class="s3" d="M4666 3480l-1 1-2 2-3 2-1 1-1 1-5 3-1 2"/><path class="s3" d="M4663 3482l3-2"/><path class="s3" d="M4665 3480l3-3"/><path class="s3" d="M4668 3477l3-4 1-2 2-2v-4l1-2 1-1 12-8"/><path class="s3" d="M4572 3556l-3 4"/><path class="s3" d="M4721 3848l-54-10-96-17-139-31"/><path class="s3" d="M4610 3523l-5 3-30 24-1 1-1 3-5 9-1 1-1 1-16 15-57 53-88 84"/><path class="s3" d="M4432 3790l-27-73"/><path class="s3" d="M4841 3981l8 6 17 13 16 11 21 14 35 21 22 13"/><path class="s3" d="M5191 3925l-231 134"/><path class="s3" d="M5013 3783v1l-231 142"/><path class="s3" d="M4841 3981l-8-8-12-9-10-10-11-9-9-9-9-10"/><path class="s3" d="M5254 3961l39-23"/><path class="s3" d="M5323 4002l39-23"/><path class="s3" d="M5293 3938l69 41"/><path class="s3" d="M5368 4028l354-204 157-1e2"/><path class="s3" d="M4602 3393l-3 12"/><path class="s3" d="M4823 3327l-8 4-5 3-29 17-19 11-159 86"/><path class="s3" d="M4846 3146l5-26"/><path class="s3" d="M3340 3944l-9 13-2 2"/><path class="s3" d="M3340 3942a32 17-119.23713789782536 0 0 2-7"/><path class="s3" d="M2966 4135l-6 9-5 7-3 6"/><path class="s3" d="M2965 4134a59 25-129.7628825858871 0 0 1-4"/><path class="s3" d="M2976 4087l-9 43"/><path class="s3" d="M3292 3976l-145 75-232 128"/><path class="s3" d="M3838 3711l-4 3"/><path class="s3" d="M3838 3710a29 17-120.96375653207352 0 0 4-10"/><path class="s3" d="M3858 3588l-2 13-3 20-5 34-6 46"/><path class="s3" d="M3354 3875l-2 15-9 46"/><path class="s3" d="M3797 3732l-505 244"/><path class="s3" d="M4595 3395l-26 15-114 42-270 108"/><path class="s3" d="M4595 3396a30 17-119.4768542751024 0 0 6-13"/><path class="s3" d="M4210 3545a17 10-99.3107896832438 0 0 2-7"/><path class="s3" d="M4218 3481l-1 12-5 44"/><path class="s3" d="M4237 3367l-1 7-3 15-5 22-4 27-5 32-1 11"/><path class="s3" d="M4210 3544l-13 10-4 2-5 2-3 2-76 33-312 137"/><path class="s3" d="M5137 4161l231-133"/><path class="s3" d="M5191 3925l177 103"/><path class="s3" d="M5137 4161l-177-102"/><path class="s3" d="M5577 4149l153 88 12 7"/><path class="s3" d="M5742 4244l-233 134"/><path class="s3" d="M5181 4380l252-147"/><path class="s3" d="M4997 4273l254-145"/><path class="s3" d="M3562 5295l260-148"/><path class="s3" d="M3402 5201l260-148"/><path class="s3" d="M3822 5147l272-156"/><path class="s3" d="M3662 5053l273-156"/><path class="s3" d="M3822 5147l-160-94"/><path class="s3" d="M4095 4990l286-162"/><path class="s3" d="M4218 4733l163 95"/><path class="s3" d="M4218 4733l-283 164"/><path class="s3" d="M4095 4990l-161-92"/><path class="s3" d="M4218 4733l2e2-117"/><path class="s3" d="M4584 4713l-203 115"/><path class="s3" d="M4584 4713l343-189"/><path class="s3" d="M4927 4524l-183-104"/><path class="s3" d="M4744 4420l-325 196"/><path class="s3" d="M4744 4420l252-147"/><path class="s3" d="M4927 4524l254-144"/><path class="s3" d="M3930 4890l-3-16v-2"/><path class="s3" d="M3929 4890a6 4-116.565051177078 0 0 5 8"/><path class="s3" d="M3656 5046l-1-15"/><path class="s3" d="M3657 5045a6 4-116.565051177078 0 0 5 8"/><path class="s3" d="M4212 4725v-16-1"/><path class="s3" d="M4212 4726a6 4-116.565051177078 0 0 5 8"/><path class="s3" d="M4413 4608v-16-1h-1l-7-4"/><path class="s3" d="M4413 4608a6 4-116.565051177078 0 0 5 8"/><path class="s3" d="M4425 4621l-7-5"/><path class="s3" d="M4405 4587l-132 79"/><path class="s3" d="M5495 3969v-15"/><path class="s3" d="M5495 3970a6 4-116.565051177078 0 0 5 8"/><path class="s3" d="M4772 4929l-16-7"/><path class="s3" d="M4619 4848l68 39 28 15 21 11"/><path class="s3" d="M4619 4848l-282 163"/><path class="s3" d="M3922 4416l5 6 11 10 10 11 11 9 13 10 13 11 12 9 23 17 27 17 38 24 59 35"/><path class="s3" d="M4758 4786l-122 70"/><path class="s3" d="M4468 4778l136 78"/><path class="s3" d="M3914 4880l97-56"/><path class="s3" d="M4011 4824l-209-122-41-25-29-19-22-15-16-12-17-14-13-10-12-11-13-12"/><path class="s3" d="M4409 5204l-5-1-3-1-4-1-3-2-7-4-8-3-5-3-10-5-10-7-15-9-12-8-22-16-26-20-167-132-11-6"/><path class="s3" d="M3402 5385l59-31 84-47 2-3 9-5 6-4"/><path class="s3" d="M3562 5295l-160-94"/><path class="s3" d="M3402 5201l-161 91"/><path class="s3" d="M3397 5194l-2-13v-1"/><path class="s3" d="M3397 5194a6 4-116.565051177078 0 0 5 7"/><path class="s3" d="M4991 4265v-16-2"/><path class="s3" d="M4991 4265a6 4-116.565051177078 0 0 5 8"/><path class="s3" d="M5181 4380l-185-107"/><path class="s3" d="M4744 4419l7 4"/><path class="s3" d="M4739 4412a6 4-116.565051177078 0 0 5 8"/><path class="s3" d="M4738 4393l2 1v17"/><path class="s3" d="M4406 4585l2-1 691-4e2"/><path class="s3" d="M5583 4419l-20-11"/><path class="s3" d="M5307 4307l89 51h76l72 40 28 15 11 6 17 8 11 4 12 5 6 2 5 2 6 2 6 2 6 1 5 2 6 1 6 2h6l5 1 6 1h6 3 4 4 4 3l4-1h3l4-1h3l4-2h3l3-1 4-1 2-1 4-1 3-1"/><path class="s3" d="M5182 4753l-102 63"/><path class="s3" d="M5080 4816l-57 35"/><path class="s3" d="M5023 4851l-12 8-4 2-3 1-3 2-3 2-3 1-4 1h-3l-3 1-3 1h-5-3-5-4-4-4l-5-1h-5l-4-1-7-1-7-3-7-2-7-1-8-4-8-2-9-3-8-5-14-6-14-7-23-10-23-12-94-54-1-2v-4l-1-1-95-56"/><path class="s3" d="M4432 3790l-183 135-3e2 226"/><path class="s3" d="M4413 4578l-1e2-57v-1h-2-7-1-1l-65-38-52-31-30-20-21-15-17-12-16-14-14-12-7-5-7-7-9-9-8-10-5-4-4-5-5-6-3-4-4-5-7-9-6-9-7-10-6-11-7-12-7-13-7-13-7-15-7-15-11-27-14-38"/><path class="s3" d="M57e2 3602l-36 24-210 138-263 161"/><path class="s3" d="M5191 3925l-37-23-23-16-18-14-17-13-21-17-14-12-14-12-16-15-11-13-13-12-11-13-12-14-14-18-11-14-10-15-11-15-10-16"/><path class="s3" d="M5472 4358l-124-75"/><path class="s3" d="M4998 4087v16"/><path class="s3" d="M4998 41e2v-19"/><path class="s3" d="M4998 4081l139 80"/><path class="s3" d="M4998 4082v44l101 58"/><path class="s3" d="M5099 4184l38-23"/><path class="s3" d="M4998 4083v14"/><path class="s3" d="M3941 5468l280-154 188-108 3 1h5l3 1h5 3l4 1h4 5 3l4-1h3 4l4-1h4l3-1 5-2 2-1 3-1 4-1 3-1h1l4-1 3-3 4-1"/><path class="s3" d="M3340 4420l-1-4"/><path class="s3" d="M3022 4937l463-264h1"/><path class="s3" d="M3324 4390l-8-8-3-5-4-3-2-2-2-4-3-3-1-3-3-5-3-4-2-3-1-5-2-3-3-6"/><path class="s3" d="M3339 4416a46 26-120.10521310820108 0 0-15-27"/><path class="s3" d="M3287 4336l-64 31-187 85-94 39-64 23-39 14"/><path class="s3" d="M3022 4937l-3-4-7-8-11-14-11-14-13-18-9-13-11-19-9-14-9-17-7-15-4-9-6-11-7-18-6-15-5-19-6-19-6-18-3-18-6-24-3-22-5-24"/><path class="s3" d="M5013 4857l-108 72"/><path class="s3" d="M4905 4929l-56 36"/><path class="s3" d="M4849 4965l-65 43"/><path class="s3" d="M4409 5206l556-334"/><path class="s3" d="M3615 4404l-1-4"/><path class="s3" d="M3486 4673l563-333"/><path class="s3" d="M3851 4029l-72 38-121 70-180 1e2-191 99"/><path class="s3" d="M3486 4673l-8-9-8-8-8-9-9-9-6-8-8-10-8-10-10-14-10-15-8-13-9-16-9-17-7-13-7-15-5-15-6-14-7-19-7-20-7-23"/><path class="s3" d="M4080 3830l-30 20-178 119"/><path class="s3" d="M3884 4012v-2-4l-2-2v-2l-1-3-7-25v-2l-1-1-1-2"/><path class="s3" d="M4228 3873h-1l-147-43"/><path class="s3" d="M4231 3878a6 4-116.565051177078 0 0-3-6"/><path class="s3" d="M4231 3878l17 47"/><path class="s3" d="M3918 4110l-7-5-4-3-5-4-3-3-4-2-3-4-5-4-3-3-4-3-3-5-1-1-3-4-2-3-3-5-3-4-2-4-2-3-3-5-2-4-1-4-1-4-3-4"/><path class="s3" d="M3939 4132a44 26-119.40159113635843 0 0-22-23"/><path class="s3" d="M3949 4151l-7-13-1-2-1-2-1-1"/><path class="s3" d="M3884 4012l-33 17"/><path class="s3" d="M2371 5310l-11-14-10-13-9-14-9-14-11-16-6-10-11-20-10-21"/><path class="s3" d="M2395 5155l-3-6h-1l-82 44v1 1l9 16 10 19 7 10 7 12 7 10 7 10 9 12 8 11h1l83-45"/><path class="s3" d="M2453 4567l-7 8"/><path class="s3" d="M2443 4581a11 7-72.35662551247015 0 0 4-6"/><path class="s3" d="M2437 4590l6-8"/><path class="s3" d="M2406 4635l6-8 8-13 8-12 9-12"/><path class="s3" d="M2474 4435l-7 78v2l-4 21"/><path class="s3" d="M2458 4554l1-3 4-15"/><path class="s3" d="M2456 4560l2-6"/><path class="s3" d="M2446 4570a151 38-119.2308965799054 0 0 9-11"/><path class="s3" d="M2429 4576h1l3-1 3-1 4-1 3-2 3-1"/><path class="s3" d="M2412 4647h1 1l3 1h2 4l6 2"/><path class="s3" d="M2407 4628a102 26-57.39065136525551 0 0 4 18"/><path class="s3" d="M2429 4576l-2 3-2 5-3 6-2 3-2 5-3 4-2 5-1 3-1 4-1 3-1 4v1l-2 2v3 3"/><path class="s3" d="M2458 4705l9 39 1 2v3l5 34 4 22 5 26 5 22 2 8"/><path class="s3" d="M2457 4705a28 16-119.8872751375233 0 0-5-13"/><path class="s3" d="M2429 4650l9 17 11 19 3 7"/><path class="s3" d="M2489 4861l-111 61"/><path class="s3" d="M6616 3741a213 168-127.82237050592332 0 0 67-47"/><path class="s3" d="M4132 4583l139-82"/><path class="s3" d="M6481 3930l4-4"/><path class="s3" d="M6504 3907h-1l-3 4-5 3-2 4-4 2-3 2-5 3-3 2-5 2-3 3-5 2-5 2-4 1-45 40-61 51-77 60-93 68-96 67-132 85"/><path class="s3" d="M5972 4306h5l6-1 4-2 5-2 4-1 5-2 5-2"/><path class="s3" d="M5947 4309a304 186 44.62236142953708 0 0 25-2"/><path class="s3" d="M5744 4244l28 15 22 11 19 8 9 4 16 7 15 4 8 3 7 2 7 2 8 3 4 1 6 1h5l5 1 5 1 6 1h5 6l5 1h4 5 5 4"/><path class="s3" d="M6003 3660h-2l-4-1-5-1"/><path class="s3" d="M6003 3660l14-11"/><path class="s3" d="M6186 3747l-15 11"/><path class="s3" d="M6171 3758l1 1 1 1 3 5"/><path class="s3" d="M6176 3765l-181 123-189 122"/><path class="s3" d="M5992 3658l-178 122-192 124"/><path class="s3" d="M6348 4029l-6 1-6 1-4 2h-6l-6 1h-5-6-6-7-7-8l-7-1-8-2-7-1-8-1-9-2"/><path class="s3" d="M6354 3946l-83 61-169 118-256 165"/><path class="s3" d="M5680 4208l41-23"/><path class="s3" d="M5721 4185l-69-40"/><path class="s3" d="M5652 4145l-41 23"/><path class="s3" d="M4030 5456l-5 2-5 3-5 1-6 2h-4l-4 1-5 1-4 2h-5l-3 1h-5-5-5l-7 1-7-1h-6l-8-1-7-2-6-1-6-1-6-1-6-1-6-3-11-3-8-2-8-4-6-2-15-6-15-7-22-11-33-17-199-114-7-8"/><path class="s3" d="M3715 5523l-15 8"/><path class="s3" d="M3731 5524a9 2-7.112981949375899 0 0-14-1"/><path class="s3" d="M3726 5526a9 2-7.112981949375899 0 0 5-2"/><path class="s3" d="M3712 5535l17-8"/><path class="s3" d="M37e2 5531l-9-4-8-3-12-5-10-4-11-5-11-6-30-16-34-19"/><path class="s3" d="M2588 4837l-3 1-1 1-1 1-1 1-1 2"/><path class="s3" d="M2588 4837l7 27 7 23 6 27 8 24 11 26"/><path class="s3" d="M2619 4970l1-1 1-1 1-1 5-3"/><path class="s3" d="M2788 4917l-159 88"/><path class="s3" d="M2572 4832l-1-1v-1-1l-3-9"/><path class="s3" d="M2571 4833a10 3-127.34359081959684 0 0 3 5"/><path class="s3" d="M2577 4840l-1-1-1-1"/><path class="s3" d="M2576 4839a26 9-109.99804002387984 0 0 5 3"/><path class="s3" d="M5622 3904l184 106"/><path class="s3" d="M5806 4010l-249 150"/><path class="s3" d="M5622 3904l-246 150"/><path class="s3" d="M5251 4128l125-74"/><path class="s3" d="M5376 4054l181 106"/><path class="s3" d="M5433 4233l124-73"/><path class="s3" d="M4011 4824l269-155"/><path class="s3" d="M4280 4669l-148-86"/><path class="s3" d="M4132 4583l-268 155"/><path class="s3" d="M3583 4731l20 10 50 25 243 102 18 12"/><path class="s3" d="M3914 4880l-515 297"/><path class="s3" d="M3583 4731l-27-14-19-10-19-12-10-6-10-7-12-9"/><path class="s3" d="M3399 5177l-23-8-206-119-31-20-22-15-18-13-18-14-16-12-14-13-14-12-15-14"/><path class="s3" d="M3505 5430l132-76"/><path class="s3" d="M3554 5458l19 12"/><path class="s3" d="M3405 5384a3 2-90 0 0 2-2"/><path class="s3" d="M3415 5378l90 52"/><path class="s3" d="M3125 5625l-123-69"/><path class="s3" d="M3232 5272l-94-54"/><path class="s3" d="M3235 5276a4 2-135 0 0-3-4"/><path class="s3" d="M3235 5283v-6"/><path class="s3" d="M3235 5282a8 3-118.76440385457578 0 0 2 6"/><path class="s3" d="M3237 5288a8 3-118.76440385457578 0 0 3 3"/><path class="s3" d="M3402 5386l-162-93"/><path class="s3" d="M3402 5384a8 3-118.76440385457578 0 0 3 2"/><path class="s3" d="M3138 5218l-49 28-147 79-181 90"/><ellipse class="s4" cx="3485" cy="5472" rx="34" ry="12" transform="rotate(-23.518665348409964 3485.0,5472.0)"/><path class="s3" d="M3572 5469l-125 69"/><path class="s3" d="M3447 5538l-68-39"/><path class="s3" d="M3712 5535l-12-4"/><path class="s3" d="M3688 5526l-3-1"/><path class="s3" d="M3688 5526l-3-1"/><path class="s3" d="M3379 5499l-86 44-168 82"/><path class="s3" d="M3766 5548l-95 41-94 38-101 37-119 39h-4l-5 1h-4-4-4-5l-7-1-8-1-8-1-8-1-8-2-8-2-7-2-7-2-7-3-8-2-8-2-10-5-14-6-17-8-25-12-56-29"/><path class="s3" d="M2912 5254l77 46"/><path class="s3" d="M2909 5253a8 5 15.714782807419262 0 0-10-1"/><path class="s3" d="M2828 5289l72-35"/><path class="s3" d="M2827 5288a8 5 15.714782807419262 0 0 3 8"/><path class="s3" d="M2905 5342l-77-46"/><path class="s3" d="M3138 5218l-77-45-50-29-23-17-22-14-19-14-16-14-17-14-11-11-12-11-15-16"/><path class="s3" d="M2876 5033l-183 101"/><path class="s3" d="M2693 5134l11 12 11 10 9 11 13 10 10 9 11 9"/><path class="s3" d="M2758 5195l-168 96"/><path class="s3" d="M2713 5204l-7-5-15-14-14-14"/><path class="s3" d="M2557 5238l120-67"/><path class="s3" d="M2556 5237a4 2 45 0 0 0 3"/><path class="s3" d="M2588 5272l-4-3-13-14-14-14"/><path class="s3" d="M2587 5271a4 2 45 0 0 6 3"/><path class="s3" d="M2713 5204l-121 69"/><path class="s3" d="M2693 5134l-165 91"/><path class="s3" d="M3398 5178l-166 94"/><path class="s3" d="M2625 5032v-2-3"/><path class="s3" d="M2625 5030v2l-2 1-1 1-11 7"/><path class="s3" d="M2612 5040l-99 51"/><path class="s3" d="M24e2 5152l-9-18"/><path class="s3" d="M2828 4978l-8-10-7-11-7-9-7-10-7-10-5-10"/><path class="s3" d="M2513 5091l-17 9-91 49-11 7"/><path class="s3" d="M2418 5209l-5 2"/><path class="s3" d="M2390 5171v1l6 11 9 13 8 15"/><path class="s3" d="M2391 5158a11 8-122.07780622271986 0 0-2 13"/><path class="s3" d="M2394 5156l-3 1"/><path class="s3" d="M2837 5462l46 26"/><path class="s3" d="M2528 5225l14 17 15 16 10 12 12 11 11 12 16 14 16 13 15 12 14 10 18 14 30 20 124 78 60 34"/><path class="s3" d="M2528 5225l-370 2e2"/><path class="s3" d="M2380 4932l-5-19-4-20-5-23-5-23-3-19-3-31-7-41v-5l-2-7v-3-8-8l2-16 1-27v-4l2-55 2-54"/><path class="s3" d="M2380 4931a30 13 29.906732059402337 0 0 6 9"/><path class="s3" d="M2389 4945l-2-3-1-1"/><path class="s3" d="M2390 4949a8 3-118.76440385457578 0 0-1-4"/><path class="s3" d="M2435 5064l-44-115"/><path class="s3" d="M2434 5069a8 3-118.76440385457578 0 0-1-4"/><path class="s3" d="M2435 5072v-1-1"/><path class="s3" d="M2436 5072a23 21-23.13651501002836 0 0 1 8"/><path class="s3" d="M2449 5103l-13-23"/><path class="s3" d="M2449 5103l-375 203"/><path class="s3" d="M2463 5247l8 9"/><path class="s3" d="M2828 4978l8 10 9 11 8 10 9 10 14 14"/><path class="s3" d="M2828 4977v1l-35 18-137 82-238 131"/><path class="s3" d="M2454 5250l4-1 6-2 34-18 145-83 85-51"/><path class="s3" d="M2418 5209l-5 2"/><path class="s3" d="M2440 5248l-10-11-9-15-8-11"/><path class="s3" d="M2439 5247a11 8-122.07780622271986 0 0 12 5"/><path class="s3" d="M2453 5252l-2 1"/><path class="s3" d="M2619 4984l7 12 3 9"/><path class="s3" d="M2619 4970a8 3-99.39994257932636 0 0 0 13"/><path class="s3" d="M2629 5005l-180 98"/><path class="s3" d="M2571 4829l-3-9"/><path class="s3" d="M2719 4740l-230 121"/><path class="s3" d="M2673 4587l-27 13-23 12-4 1h-7-1-1-2l-71 18-38 9-22 5-10 1-10 2h-5-4l-4 2h-4-5-6"/><path class="s3" d="M2867 4579l-1-2-3-2-5-9-4-5-1-3-3-5-3-6-2-4-1-4-4-8-2-4"/><path class="s3" d="M2875 4602a44 22-116.565051177078 0 0-9-23"/><path class="s3" d="M2946 4829h-1l-157 88"/><path class="s3" d="M2788 4917l-10-15-5-11-8-15-4-9-4-11-7-15-6-15-6-14-4-15-5-15-3-16-6-22-6-28-3-24-6-36v-1-2l-1-2v-3l-1-2-2-2-1-1v-3l-1-2-1-2-1-3-5-8-3-3-2-6-4-6-3-9-4-7-3-7"/><path class="s3" d="M2838 4527l-25 8-29 8-7 2-19 7-30 13-55 22"/><path class="s3" d="M2915 4179c-38 21-77 44-114 68-48 32-93 66-138 101-43 33-85 67-125 104-25 22-48 45-72 68"/><g><path class="s4" d="M3606 4453c2-2 5-4 7-7 2-3 4-6 5-9 1-4 1-8 3-11 0-3-1-6-2-8 0-3-1-5-1-7-1-3-2-5-3-7-1-5-5-11-9-15-4-4-9-6-13-8-4-2-8-3-13-1-1 0-2 0-3 0-1 0-1 1-2 1-2 1-3 1-4 2l-19 10c-3 1-4 3-5 5-1 3-1 5-1 8 0 2 0 5 1 7l6 14 7 15 8 15c1 2 3 3 4 5 2 1 5 3 7 3 3 0 5 0 7-2l20-10" fill-rule="evenodd"/></g><g><path class="s4" d="M2503 4938l-1-2-4-14c-1-1-1-1-1-2-1-1-2-3-7-3l-16 8c-1 0-1 1-2 3 0 1-1 2-1 3 0 1 0 2 0 3l4 14c0 3 1 3 2 4 1 1 2 1 3 2 1 0 2 0 3-1l16-7c0-1 1-2 1-2 1-1 2-2 3-3 0-1 0-2 0-3" fill-rule="evenodd"/></g><g><path class="s4" d="M2494 5009c0-1 0-2 0-3 0-1 1-3 1-4 1-1 1-2 2-2l16-8c1 0 3 0 4 0 1 0 1 1 2 1 1 1 1 2 2 3l4 14 1 3v2l-1 2-2 2-1 2-16 6c-1 2-2 2-3 2-1-1-3-2-4-3 0-1-1-1-1-3l-4-14" fill-rule="evenodd"/></g><path class="s3" d="M3815 5547h-4l-4 1h-5-5l-5 1-5-1h-4-5-5l-4-1h-5l-7-1-9-2-8-2-7-1-7-2-7-1-7-3"/><path class="s3" d="M3706 5394l-133 76"/><path class="s3" d="M3706 5394l-69-40"/><path class="s3" d="M3573 5470l-68-40"/><path class="s3" d="M3505 5430l-126 69"/><path class="s4" d="M5335 4154v-1l77-45h1 1l50 30v1l-77 45h-1-1l-50-28z"/><path class="s3" d="M4703 4895l26 14 21 9 16 8 13 5 5 2 7 3 6 2 7 2 6 1 4 1 6 2 5 1 5 1h5l4 1"/><path class="s3" d="M4198 4931l198 115 43 22 28 15 21 9 17 7 8 3 9 4 6 2 7 1 6 2 7 2 5 1 6 1"/><g><path class="s4" d="M3465 5016c-3 1-5 1-8 2-3 1-5 3-8 4-2 1-4 2-7 3l-28 16c-1 1-2 2-4 3-1 1-1 1-2 2 0 1-1 2-1 3-1 1-1 3-1 5 1 2 1 3 2 5 2 1 3 2 6 3l53 31c1 0 3 1 5 2 2 0 5 1 7 1 3 0 5 0 7 0 2 0 4 0 6 0 2 0 4-1 6-1 1-1 3-2 4-2l29-17c3-3 7-5 9-8 3-2 6-5 7-8 1-3 2-6 2-10 0-5-2-11-6-16-4-5-11-9-18-12-8-3-17-6-26-7h-1-4-2l-4-1h-3l-3 1h-4-3-4l-3 1h-3" fill-rule="evenodd"/></g><path class="s3" d="M4638 3145l-1 1-3 12-6 24-5 26-5 25-5 28-3 27-5 37-2 34-1 33v1l-3 13v2 1 1 2l4 36"/><path class="s3" d="M4843 3161l13-61 13-60 1-1"/><path class="s3" d="M6022 3618l-19 15-2 1-2 2-5 12-115 76"/><path class="s3" d="M6617 3742l-5 1-4 1-5 1-5 2h-4l-5 1h-7l-7 1h-5-7-6l-7-1h-6l-7-1h-6l-11-3-8-1-8-2-8-1-8-3-8-2-8-2-9-3-13-4-16-6-24-10h-1l-14-7"/><path class="s3" d="M6071 3836l78 39 46 21 28 13 17 6 18 7 18 6 16 6 16 3 15 5 8 1 8 1 8 1 7 1 7 2 5 1h7 6l7 1h7 7l5-1h6l5-1h5l5-2 6-1 4-1 5-1 6-2 4-1 5-2"/><path class="s3" d="M6053 3505c-28-20-55-40-81-62-32-28-63-59-91-92-17-19-33-40-47-61-15-22-29-44-42-68-11-21-22-44-31-66-9-23-16-47-22-71-5-21-9-42-13-62"/><path class="s3" d="M5250 4714l-70 40"/><path class="s3" d="M5147 4795c-1 2-2 3-3 3-5 2-10 4-16 4-5 0-12-1-19-4"/><path class="s3" d="M3326 5712l30-9"/><path class="s3" d="M4239 3366l259-147 140-74 103-52 36-17 45-19 48-18 53-20 75-24 36-10 35-9 39-8 45-10 35-5 37-5 31-3 22-3 29-1 15-1h24 23l27 1 14 1 22 3 19 2 28 5 29 4 32 7 39 9 30 9 30 8 31 11 29 11 27 12 26 10 24 12 11 5 20 12 22 11 20 14 20 13 8 5 29 20 19 16 24 18 11 10 11 10 12 12 6 6 7 7 7 7 5 6 4 6 5 5 3 5 6 8 5 6 3 6 4 5 4 7 4 8 4 8 4 8 3 8 3 8 3 8 2 8 1 4 2 7 1 7 1 5 1 7v4l1 6v5l1 6v6 6 5 6 6l-1 11-1 8-1 8-1 10-1 8-3 10-3 14-2 10-7 24v1l-18 60-8 25-3 19-2 9-3 13-1 8-1 10v8l-1 7v2"/><path class="s3" d="M6016 3666c0 9 1 17 3 24 1 7 3 13 6 19 3 5 6 10 9 15"/><path class="s3" d="M6034 3724c3 1 4 2 5 4 2 2 4 3 6 5 2 1 4 2 6 3"/><path class="s3" d="M6051 3736c3 1 5 2 6 3 2 1 3 1 5 2 2 0 4 1 7 2"/><path class="s3" d="M6069 3743l3 1h4l4 1 5 2 6 1 5 1h6 5l8 1h7 8 8l15-1 16-1 17-1"/><path class="s3" d="M6186 3747c5-2 10-3 15-5 5-1 9-3 14-5 5-2 10-3 15-5"/><path class="s3" d="M6230 3732l26-6 48-9 81-20 10 6 227-60 91-22 11-2 5-2 4-1h2l1-2"/><path class="s3" d="M6736 3614c2-1 4-2 6-2 1-1 2-1 3-2 1-1 2-1 2-2"/><path class="s3" d="M6747 3608l-2 2v1l-28 40-33 44-48 63-32 39-3 2-41 46-57 62-47 49-90 81-58 51-39 32-47 36-42 28-64 44-97 61-3 2-5 2-5 3-119 69-140 78-5 2-3 2-395 213-94 54-10 8-25 22-12 9-13 10-13 9-1 2-14 8-7 4"/><path class="s3" d="M5155 4786c-2 4-4 7-8 9"/><path class="s3" d="M5147 4795l-15 12-16 11-85 51-72 42-175 97-47 32-37 24-39 26-163 103-225 133-139 77-104 53-87 41-80 35-15 6-3 2-4 1"/><path class="s3" d="M3841 5541c-2 0-4 1-7 2-2 0-5 1-7 1-2 1-4 2-7 2"/><path class="s3" d="M3820 5546l-4 1h-1l-39 17h-1l-2 1-9 8-9 9-10 8-12 10-6 4-12 9-13 10-13 8-12 8-15 8-10 5h-2l-13 7-15 7-14 6-15 7-21 7-32 11-109 32-29 8-4 2-54 15-21 4"/><path class="s3" d="M3323 5758c-2 1-5-1-7-4-2-3-3-7-3-11 0-4 1-7 4-7"/><path class="s3" d="M3317 5736l24-9 10-3 3-3 2-1v-1h1v-1l-1-3"/><path class="s3" d="M3356 5715c-1-2-2-3-2-3-1 0-2-1-3-1-1 0-3 0-5 0"/><path class="s3" d="M3346 5711l-20 1-81 24-373 1e2"/><path class="s3" d="M2872 5836c-5 1-10 1-13 0-4-1-7-2-9-5-2-2-4-5-4-9"/><path class="s3" d="M2846 5822c0-1 0-1 0-2 0-1 0-1 0-2 0-1 0-1 0-2"/><path class="s3" d="M2846 5816l1-3v-3l2-2v-3l1-2 1-2 1-3 2-3 1-4 3-4 4-8 8-13 90-133 16-25 6-11 7-11 4-9 3-5 2-6 2-4 2-6 2-6 2-6v-2l1-3v-3-3"/><path class="s3" d="M3007 5533c0-1 0-2 0-3 0-1 0-3 0-4 0-1 0-2 0-3"/><path class="s3" d="M3007 5523c0-2-1-4-1-5 0-1-1-2-2-3 0-2-2-4-2-5"/><path class="s3" d="M3002 5510c-2-1-3-4-5-5-2-2-4-4-6-5-3-1-6-3-8-4"/><path class="s3" d="M2983 5496l-1-1-4-1-3-1-4-1h-3l-5-2-3-1h-3-4l-6-1h-5l-5-1h-7-11-18l-18 1-30 2-201 20-87 7-69 2h-44-33l-21-1-19-2-20-3-9-1-14-2-12-2-11-3-9-2-13-3-5-3-6-1-6-2-6-2-9-4-7-3-7-3-6-3-6-3-7-4-7-3-6-4-7-4-5-4-7-4-6-5-6-3-6-5-6-5-6-4-6-6-6-6-5-4-5-5-5-5-3-3-5-5-3-4-4-5-4-6-5-5-4-6-5-7-4-8-6-8-3-5-2-4-2-5-2-4-3-5-2-5-2-6-3-8-3-9-2-6-3-7-1-7-2-7-1-8-3-8-1-8-1-9-1-7-1-12v-12l-1-15v-8-7l1-8v-12l1-9 1-8v-9l1-9 4-19 2-10 2-11 3-10 2-11 6-21 5-20 7-18 7-18 7-20 13-29 12-26 15-30 21-38 16-27 23-38 36-53 38-54 46-62 29-37 39-47 37-41 32-35 13-11"/><path class="s3" d="M2474 4435c43-41 86-81 132-117 55-45 115-84 176-121 63-39 129-75 194-110"/><path class="s3" d="M2976 4087l378-212 504-287 379-221"/><path class="s3" d="M1570 4598 5095 2564"/><path class="s3" d="M6747 3608l206-126"/><path class="s3" d="M2880 5835l-480 276"/><path class="s3" d="M3231 5272l-158 93-71 45"/><path class="s3" d="M3150 5496l-148-86"/><path class="s3" d="M3405 5386l-66 33"/><path class="s3" d="M3339 5419c-26 12-52 23-79 35-21 9-43 18-65 27-15 6-31 11-45 15"/><path class="s3" d="M3240 5293l-134 68-104 49"/><path class="s3" d="M5033 971l82-561-30-7"/><path class="s3" d="M5085 403c-4-1-8-2-11-2-6 0-12 2-17 6-5 3-9 7-12 12-1 3-2 5-4 8"/><path class="s3" d="M5041 427 4861 820"/><path class="s3" d="M4861 820c-2 4-4 8-6 12-5 8-10 15-17 23-6 7-12 13-20 18-6 3-12 5-18 7"/><path class="s3" d="M5042 976c-18-11-35-22-54-32-22-12-45-21-68-29-41-14-82-26-124-36-60-13-121-24-182-35"/><path class="s3" d="M4614 844 2926 556"/><path class="s3" d="M2926 556c-43-6-85-12-127-16-47-5-94-8-142-11-53-3-106-4-159-4-74 1-149 6-223 15-60 7-119 17-178 31-56 13-111 29-162 54-87 42-161 108-243 160"/><path class="s3" d="M1692 785l-62 44-11 6-18 11"/><path class="s3" d="M1601 846c-21 14-41 28-60 44-27 23-53 48-77 75-14 16-29 33-39 52-7 13-13 27-14 42-1 17 4 35 13 50 11 20 29 35 47 48 42 30 89 50 138 67 71 25 144 42 218 56 44 8 88 15 132 21 50 7 101 13 152 20 6 0 12 1 17 1 9 0 17-2 25-3 12-3 24-6 34-12"/><path class="s3" d="M2187 1307l165 15 6 1 8 17 29 1 24 1 160 1 1006-11"/><path class="s3" d="M3585 1332c11 2 22 4 33 5 29 4 59 5 89 5 41 0 81 0 122 0 88-1 176-4 264-6"/><path class="s3" d="M1634 830c11 3 22 5 32 9 40 17 63 64 77 109 13 41 18 80 17 119-1 25-4 49-10 74-5 18-11 36-21 52-7 12-16 22-27 31-8 7-19 12-30 14-5 1-11 1-17 1"/><path class="s3" d="M2186 1305c-40-5-80-11-120-16-35-5-69-10-104-17-13-2-25-5-38-8"/><path class="s3" d="M1924 1264l-16-2-13 1-14 5"/><path class="s3" d="M1881 1268c-5 2-10 4-15 6-7 3-15 5-23 6-3 1-6 1-9 1"/><path class="s3" d="M2366 1340l3 21-6 50-166-15 7-47-1-18-12-23"/><path class="s3" d="M2189 1399l-45-3-5-46 2-17 4-10"/><path class="s3" d="M2264 1629c-7-6-15-12-20-20-6-7-9-15-11-23-2-11-3-21-1-32 1-9 4-18 9-27 5-10 11-19 19-26 9-8 20-14 31-17 7-1 14-2 21-3 5 0 11 0 16 0 5 1 10 1 15 2 4 1 8 2 12 4 9 4 18 11 24 20 8 10 12 23 14 36 1 11 0 22-3 33-2 9-6 19-12 27-6 10-15 18-25 24-9 6-18 10-29 12-11 2-24 2-35-1-9-3-17-6-25-9"/><path class="s3" d="M2264 1629l-9 3"/><path class="s3" d="M2255 1632c-5 1-9 2-14 2-10 2-21 1-31-2-11-3-21-9-30-17-10-9-17-21-21-35-2-10-2-21 0-31 3-13 8-25 16-35 7-10 16-18 26-24 9-6 20-10 31-12 6 0 13 0 20 1"/><path class="s3" d="M2252 1479v-8l-3-3v-28h-13v-6h-32l-1-16h27v-18"/><path class="s3" d="M2249 1443l43 1 2-4 3-4-1-6 31 4"/><path class="s3" d="M2326 1434l-37 51"/><ellipse class="s4" cx="2334" cy="1562" rx="40" ry="33" transform="rotate(108.67979661948664 2334.0,1562.0)"/><path class="s3" d="M2220 1524c-3 4-7 9-9 13-4 7-6 15-6 22-1 7 0 13 2 19 2 5 5 10 9 15"/><path class="s3" d="M2288 1443l1 25-4 4-1 9"/><path class="s3" d="M2253 1477l-1 28"/><path class="s3" d="M2331 1475l17-37 3-6 1-5-4-4-11-3-8-12"/><g><path class="s4" d="M2685 655l-138-14c-3-1-7-2-10-1-5 1-9 3-11 7-2 5 0 10 2 15 5 16 9 29 14 42 9 28 16 56 22 85 5 28 9 56 10 83 0 17 0 34 1 51 0 5 1 10 3 14 3 5 9 9 15 10l149 8c3-1 7-2 9-3 5-4 8-10 9-16 2-7 2-14 2-20-1-33-3-66-6-99-4-34-11-69-22-102-2-7-5-15-8-23-3-8-6-17-11-24-3-4-7-7-11-9-5-2-12-3-19-4" fill-rule="evenodd"/></g><path class="s3" d="M1938 796l-5-9V771l7-15 53-48 26-19"/><path class="s3" d="M2019 689c7-4 14-8 21-10 5 0 9 0 13 0"/><path class="s3" d="M2053 679l76 11 17 6 9 7 38 63 2 10-8 12-76 29"/><path class="s3" d="M2111 817c-19-3-38-5-57-8-48-5-97-11-145-14-31-2-62-3-92-4-35-1-70-1-105-1-7 0-13 0-19 0"/><path class="s3" d="M1864 781c9-1 17-2 24-6 9-5 16-14 24-22"/><path class="s3" d="M1912 753l67-58 1-10-3-7-15-2"/><path class="s3" d="M1962 676c-28 1-56 2-83 6-18 3-35 7-54 11"/><path class="s3" d="M2041 678c-14-1-28-2-41-2-13 0-25 0-37 0"/><g><path class="s4" d="M3606 776l-69-9c-2 0-4 0-7 0-1 1-3 1-4 2-2 2-1 6-1 9 1 3 2 6 3 9 5 11 11 24 16 37 10 27 13 55 15 84 1 20 3 40 1 60-1 9-2 18-1 27 0 2 0 4 0 7 1 3 2 7 6 9 2 2 5 3 6 2l72 6c3-1 5-1 7-3 3-2 6-6 7-10 4-9 4-18 4-28 1-25 0-50-3-75-4-28-13-54-20-83-4-13-7-26-16-36-2-3-5-5-7-6-3-1-6-2-9-2" fill-rule="evenodd"/></g><path class="s3" d="M4613 996c-3-13-6-26-9-38-4-12-10-23-16-36-2-3-4-6-6-7-2-2-5-2-8-2"/><path class="s3" d="M4574 913l-32-5"/><path class="s3" d="M4542 908c-1 0-2-1-3 0-1 0-2 1-3 2-1 1 0 3 0 5 2 4 4 7 5 10 5 11 9 21 12 32 4 10 7 19 9 29 1 7 2 14 3 21"/><path class="s3" d="M3261 1346l-8 7 8 11-33 12-4 9-60 21-15 10"/><path class="s3" d="M3149 1416c-25 5-50 10-75 15-50 8-1e2 12-152 12-36-1-73-3-108-15-21-6-42-16-58-30-14-12-25-26-36-41"/><path class="s3" d="M2965 1355c-7 16-15 32-26 45-14 14-32 24-51 29-14 4-28 5-43 6"/><path class="s3" d="M2874 1358c-5 8-10 16-17 21-10 7-23 11-35 10-14 0-27-5-38-13-9-5-16-13-24-21"/><path class="s3" d="M4740 1007l498-38 476-47 354-38 520-52 396-37 68-6 140-9"/><path class="s3" d="M7192 780c22-2 44-4 66-6 16-1 32-2 48-4 15-3 31-6 45-10 9-2 18-5 27-7"/><path class="s3" d="M7378 753l4 1v7l-8 5"/><path class="s3" d="M7374 766c-17 7-34 13-51 18-40 13-82 21-124 29-51 8-103 15-155 22-67 8-134 16-202 24-80 9-160 18-240 27-71 9-142 17-214 26-86 10-173 19-260 28"/><path class="s3" d="M6089 934l-41 4-6 1-2 5"/><path class="s3" d="M6040 944c1 2 2 5 4 7 3 5 10 8 16 11 12 4 24 5 35 9 6 1 11 3 16 5 2 0 5 1 7 1 4 0 8-2 9-5 2-2 3-6 3-9 0-6 1-13-1-18-2-3-4-6-7-8-3-2-7-3-11-3"/><path class="s3" d="M6111 934h-25"/><path class="s3" d="M6037 950l-381 55"/><path class="s3" d="M5634 994c3-1 6-1 8 0 3 2 5 5 6 8 3 5 4 10 4 15 0 5 0 9 0 13"/><path class="s3" d="M5652 1030l-5 4"/><path class="s3" d="M5647 1034c-7 2-14 3-22 4-17 1-34 0-50-4-9-2-17-5-25-9-6-4-12-8-16-14-2-2-4-4-6-6"/><path class="s3" d="M5528 1005v-3l5-2"/><path class="s3" d="M5533 1e3c8-1 16-1 24-2 9 0 19 0 29-1 9 0 18-2 27-3 7 0 14 0 21-1"/><path class="s3" d="M5560 1009c9 3 18 6 27 7 6 1 11 1 16 1"/><path class="s3" d="M5525 1020l-496 67-11 2-12 24-10 45-10 8-13 25-3 12"/><path class="s3" d="M5123 1091c-15 14-29 27-44 40-17 15-35 29-54 42-17 11-36 21-54 31"/><path class="s3" d="M5004 1084c-15-4-29-7-43-12-14-5-28-12-41-21-8-5-15-11-24-15-9-4-18-5-28-6-10-1-21 0-31-1-11-1-23-3-34-6-29-6-59-13-88-18-18-4-35-7-53-5-8 1-16 3-24 5"/><g><path class="s4" d="M4701 1021c25 7 50 14 76 23 28 11 57 25 77 40 19 14 31 29 65 50 13 8 28 16 23 20l3 12 3 19 20 17-6 20-2 12 6 15 5 11-9 15-4 18 7 17-18 20-7 9-1 20-22 17-12 17c-14 10-28 20-44 29-37 22-78 36-119 45-51 11-102 14-154 12-36-2-73-6-106-19-27-10-51-27-72-47-28-26-48-59-60-96-13-36-17-76-10-114 5-30 17-60 34-85 26-37 63-66 104-84 25-11 51-18 78-20 13-1 26-2 39-1 15 0 31 1 46 2 14 0 27 1 40 3 6 1 13 2 20 3" fill-rule="evenodd"/></g><path class="s3" d="M4621 1028c15 8 29 16 41 25 31 22 56 53 72 88 21 45 30 95 25 144-4 37-15 74-34 105-15 24-35 45-59 59-15 9-31 15-49 21"/><ellipse class="s4" cx="4531" cy="1246" rx="175" ry="146" transform="rotate(83.82129104314977 4531.0,1246.0)"/><path class="s3" d="M4556 1099c-12 9-24 18-35 29-17 18-30 42-37 68-7 27-9 56-4 83 4 22 12 43 23 62 10 16 23 31 38 43 9 7 19 12 28 17"/><ellipse class="s4" cx="4598" cy="1245" rx="44" ry="37" transform="rotate(90.0 4598.0,1245.0)"/><path class="s3" d="M4545 1239h-54"/><path class="s3" d="M4551 1267l-54 22"/><path class="s3" d="M4564 1288l-48 47"/><path class="s3" d="M4583 1301l-27 77"/><path class="s3" d="M4608 1305v76"/><path class="s3" d="M4628 1297l17 40"/><path class="s3" d="M4555 1214l-59-23"/><path class="s3" d="M4568 1197l-47-57"/><path class="s3" d="M4585 1185l-24-76"/><path class="s3" d="M4605 1188l5-67"/><path class="s3" d="M4624 1194l17-37"/><path class="s3" d="M4642 1209l17-11"/><path class="s3" d="M4446 1031l-452 25"/><path class="s3" d="M3994 1056c-10 0-20 0-31 1-14 2-28 6-41 13-7 4-14 9-20 15-4 5-7 11-9 18-2 6-2 12 0 16 2 7 9 12 16 16 20 12 38 22 58 29 13 4 27 8 40 14 12 6 23 16 35 23 12 6 25 11 39 15 39 11 79 16 120 19 25 2 51 4 76 3 17 0 33-1 49-2"/><path class="s3" d="M4535 1485c-3 8-5 16-9 24-3 7-8 14-15 18-5 3-10 4-15 4"/><path class="s3" d="M4496 1531l-31-1"/><path class="s3" d="M4465 1530c-4-1-8-2-11-5-7-4-11-10-14-18-4-9-6-18-7-28 0-7-1-15 0-22 1-6 2-11 4-16"/><path class="s3" d="M4514 1483c0 2 0 4-1 7-2 3-5 6-9 6-5 1-9-2-12-6-2-4-3-8-3-13 0-2 0-5 0-7"/><path class="s3" d="M4646 1486c-1 7-2 15-4 22-2 7-5 14-10 19-5 4-10 7-15 9"/><path class="s3" d="M4617 1536l-38-2"/><path class="s3" d="M4579 1534c-4-1-7-2-10-3-5-3-8-9-10-15-3-7-6-13-7-20-1-4-1-8-2-13"/><path class="s3" d="M4597 1489c0 3 1 6 3 10 1 3 3 7 6 7 2 0 3 0 4 0"/><path class="s3" d="M4713 1479c-1 8-3 15-5 22-2 7-4 14-9 19-3 4-8 7-12 8-4 1-7 1-11 1"/><path class="s3" d="M4676 1529h-26l-8-2-6-4"/><path class="s3" d="M4696 1484c-1 3-2 7-4 10-2 1-3 3-5 4-3 1-7 1-10 0-3-1-5-3-6-6-2-2-2-5-2-7"/><path class="s3" d="M4499 1528c-5-2-9-4-13-7-5-5-8-12-10-20 0-3-1-6-1-9"/><path class="s3" d="M3870 1404c4-5 8-9 14-12 5-2 10-4 15-4 7-1 13-1 19-1 6 0 11 0 16 2 6 2 10 8 14 14 5 9 9 19 10 29 2 9 2 19 0 28-1 10-5 19-11 28-4 5-8 9-13 12-4 2-7 3-10 5"/><path class="s3" d="M3924 1505h-24"/><path class="s3" d="M39e2 1505c-5-1-9-1-12-2-4-2-8-3-12-6-2-2-5-5-7-7"/><g><path class="s4" d="M3819 1389l25 1c5 0 10 1 14 3 7 4 11 12 14 19 4 9 7 18 8 28 1 9 0 18-2 27-2 8-5 15-9 22-4 7-9 12-15 15-4 2-8 3-13 3h-25c-4 0-9-1-13-3-6-4-10-10-14-16-5-9-9-18-10-28-2-10-1-21 2-31 3-10 7-18 13-26 4-5 9-10 15-12 4-1 7-2 10-2" fill-rule="evenodd"/></g><path class="s3" d="M3781 1410c-2-4-5-9-10-12-5-5-12-8-18-9-8-2-15-1-23-1-4 0-7 0-10 1-5 1-9 4-12 8-5 4-9 9-12 15-6 11-8 25-9 37 0 10 1 19 5 27 2 7 6 13 11 18 4 5 9 8 14 10 3 1 5 1 8 1 8 1 16 1 24 0 4 0 8 0 12-2 5-2 9-7 13-11 2-4 5-7 7-11"/><g><path class="s4" d="M3922 1476a31 19 94.09863602658837 0 1-16-15m7-40m0 0a31 19 94.09863602658837 1 1 9 55" fill-rule="evenodd"/></g><g><path class="s4" d="M3844 1479a31 19 94.09863602658837 0 1-16-16m4-37m0 0a31 19 94.09863602658837 1 1 12 53" fill-rule="evenodd"/></g><path class="s3" d="M3766 1348l7 16h3l4 10 8-1 14-6"/><path class="s3" d="M3802 1346l2 19-1 5"/><path class="s3" d="M3793 1372l-4 23-5 4-3 5"/><path class="s3" d="M3850 1344l-2 4-13 2-2 4 1 10 10 1 4 2 6 2 3 7h14"/><path class="s3" d="M3871 1376c1 2 2 4 2 6 1 1 0 3 0 4-1 2-1 3-1 4"/><path class="s3" d="M3872 1390l-5 7"/><path class="s3" d="M3831 1354c-3 1-6 2-9 3-3 1-7 1-10 1"/><path class="s3" d="M3763 1418a31 19 84.7628825858871 1 0-2 61"/><path class="s3" d="M3831 1364l-2 14"/><ellipse class="s4" cx="2332" cy="1562" rx="5" ry="3" transform="rotate(130.2688388959872 2332.0,1562.0)"/><path class="s3" d="M4645 1279l18 16"/><path class="s3" d="M4651 1245l15 4"/><path class="s3" d="M2322 1482c-5 0-11 2-17 5-7 4-12 8-16 15-1 2-2 4-3 6"/><path class="s3" d="M2306 1635c-7-1-13-5-18-10-3-3-5-6-8-10"/><path class="s3" d="M2330 1540c4 1 8 2 10 4 5 3 7 11 6 18-1 6-5 11-9 15"/><path class="s3" d="M5090 420 4975 924"/><path class="s3" d="M4961 988c-2-4-3-8-5-12-1-1-2-3-3-5-1-1-2-2-3-2-1-1-3-2-4-2"/><path class="s3" d="M4946 967l-20-3h-1-1v1 3"/><path class="s3" d="M4924 968c2 3 4 6 5 9 2 5 3 9 4 13"/><path class="s3" d="M4271 1291v38l8 15 4 59"/><path class="s3" d="M4283 1403c1 8 2 16 4 24 3 10 8 19 14 28 1 2 3 5 5 8"/><path class="s3" d="M4306 1463l-3 18-1 14-144-1"/><path class="s3" d="M4158 1494c-8-5-16-10-24-17-8-7-15-17-20-27-7-15-9-32-11-49"/><path class="s3" d="M4103 1401l-3-70"/><path class="s3" d="M4275 1270l-14 25-26 23-33 9-102 5"/><path class="s3" d="M4219 1335l-11 55-10 1 2-56-1-7"/><path class="s3" d="M4020 1349l-3 44"/><path class="s3" d="M4017 1393c-1 14-2 27-6 40-3 14-10 28-21 38-7 7-15 12-23 17"/><path class="s3" d="M3967 1488v4l104-2 49-8"/><path class="s3" d="M4342 1329l-62 1"/><path class="s3" d="M4162 1032c-14-1-29-2-43-5-23-6-44-17-67-24-37-12-78-13-116-6-66 13-124 50-178 90-42 31-81 63-116 1e2-20 22-39 46-58 70"/><path class="s3" d="M3584 1257l-13 23"/><path class="s3" d="M3571 1280c-2 4-5 8-5 13 0 8 8 15 17 21 10 8 19 14 27 21"/><g><path class="s5" d="M5852 3979l147-95 177-118 2-16c-25 1-49 2-75 0-23-1-48-5-64-20-13-11-20-30-23-48-1-12-1-23 0-34l-228 150-365 230-426 245-252 146-140 85-185 112-153 89-487 280-373 214-166 93 161 93 59-31 30-17 55-31 16-11 411-236 868-486 87-49 257-147 396-230 166-102 105-66" fill-rule="evenodd"/></g><path class="s5" d="M4584 4712l-166-96"/><path class="s5" d="M5433 4233l-182-105"/><g><path class="s6" d="M3795 2229H3578c-9 0-17-3-25-7-7-4-14-11-18-18-4-7-7-16-7-25V1962c0-9 3-18 7-25 4-7 11-14 18-18 7-4 16-7 25-7h217c9 0 18 2 25 7 7 4 14 11 18 18 4 7 7 16 7 25v217c0 9-2 17-7 25-4 7-11 14-18 18-7 4-16 7-25 7" fill-rule="evenodd"/></g><text x="3621" y="2134"><tspan class="f3 s7" font-size="179.167">A</tspan></text><path class="s8" d="M3578 1962h217v217H3578z"/><path class="s9" d="M3578 1962h217v217H3578z"/><g><path class="s6" d="M3032 6030c-5-3-10-5-16-5-6-1-11-1-17 0-5 1-11 3-16 5l-111 64-43-25c-7-5-16-8-25-7-9 0-18 2-26 7-8 5-14 11-18 19l-125 233c-4 7-6 15-6 23 0 8 2 17 6 24 4 8 10 14 17 18l123 88 42 24c10 7 22 9 33 7 12-2 22-9 30-18 8-9 13-20 12-32v-49l179-102c5-2 10-6 13-10 4-5 7-10 9-15 2-6 3-12 3-18V6096c0-6-1-12-3-17-2-5-5-11-9-15-3-5-8-8-13-11l-39-23" fill-rule="evenodd"/></g><path class="s10" d="M3008 6074l38 22v165l-204 116v78l-38-22-125-89 125-232 38 22v32m-38-54v78l204-116v165l38 22m-38-22-204 116 38 22m-38-22v78"/><text transform="matrix(0.863 -0.493 -0 1 380.548 1369.973)" x="2778" y="6326"><tspan class="f3 s7" font-size="101.389">FWD</tspan></text><g><path class="s6" d="M3945 6462H3728c-9 0-17-3-25-7-7-4-14-11-18-18-4-7-7-16-7-25V6195c0-9 3-18 7-25 4-7 11-14 18-18 7-4 16-7 25-7h217c9 0 18 2 25 7 7 4 14 11 18 18 4 7 7 16 7 25v217c0 9-2 17-7 25-4 7-11 14-18 18-7 4-16 7-25 7" fill-rule="evenodd"/></g><text x="3772" y="6368"><tspan class="f3 s7" font-size="179.167">B</tspan></text><path class="s8" d="M3728 6195h217v217H3728z"/><path class="s9" d="M3728 6195h217v217H3728z"/><g><path class="s6" d="M5145 5934H4928c-9 0-17-3-25-7-7-4-14-11-18-18-4-7-7-16-7-25V5667c0-9 3-18 7-25 4-7 11-14 18-18 7-4 16-7 25-7h217c9 0 18 2 25 7 7 4 14 11 18 18 4 7 7 16 7 25v217c0 9-2 17-7 25-4 7-11 14-18 18-7 4-16 7-25 7" fill-rule="evenodd"/></g><text x="4971" y="5840"><tspan class="f3 s7" font-size="179.167">C</tspan></text><path class="s8" d="M4928 5667h217v217H4928z"/><path class="s9" d="M4928 5667h217v217H4928z"/><g><path class="s6" d="M6019 5348H5802c-9 0-17-3-25-7-7-4-14-11-18-18-4-7-7-16-7-25V5081c0-9 3-18 7-25 4-7 11-14 18-18 7-4 16-7 25-7h217c9 0 18 2 25 7 7 4 14 11 18 18 4 7 7 16 7 25v217c0 9-2 17-7 25-4 7-11 14-18 18-7 4-16 7-25 7" fill-rule="evenodd"/></g><text x="5845" y="5254"><tspan class="f3 s7" font-size="179.167">D</tspan></text><path class="s8" d="M5802 5081h217v217H5802z"/><path class="s9" d="M5802 5081h217v217H5802z"/><g><path class="s6" d="M4517 7291v283c0 9-2 17-7 25-4 7-11 14-18 18-8 5-16 7-25 7H4184c-9 0-17-3-25-7-7-4-14-11-18-18-5-8-7-16-7-25V7291c0-9 3-18 7-25 4-7 11-14 18-18 8-5 16-7 25-7h283c9 0 18 2 25 7 7 4 14 11 18 18 5 8 7 16 7 25" fill-rule="evenodd"/></g><path class="s9" d="M4184 7291h283v283H4184z"/><text x="4251" y="7508"><tspan class="f3 s7" font-size="206.944">A</tspan></text><path class="s11" d="M3777 1718l75-349"/><path class="s12" d="M3859 1337l-61 140 59 13z"/><path class="s3" d="M3770 1750l89-413"/><path class="s12" d="M3993 5048l-18 152 60-5z"/><path class="s3" d="M4058 5846l-65-798"/><path class="s12" d="M4946 4518l-13 152 59-6z"/><path class="s3" d="M5036 5332l-90-814"/><path class="s12" d="M5792 4026l-8 153 60-9z"/><path class="s3" d="M5898 4739l-106-713"/><text x="3577" y="1891"><tspan class="f2 s7" font-size="123.611">KEEL BEAM</tspan></text><text x="3727" y="6e3"><tspan class="f2 s7" font-size="123.611">FORWARD</tspan></text><text x="3727" y="6125"><tspan class="f2 s7" font-size="123.611">KEEL BEAM</tspan></text><text x="4927" y="5472"><tspan class="f2 s7" font-size="112.25">MID</tspan></text><text x="4927" y="5597"><tspan class="f2 s7" font-size="123.611">KEEL BEAM</tspan></text><text x="5801" y="4886"><tspan class="f2 s7" font-size="123.611">AFT</tspan></text><text x="5801" y="5011"><tspan class="f2 s7" font-size="123.611">KEEL BEAM</tspan></text><text x="3962" y="7222"><tspan class="f3 s7" font-size="123.611">KEEL BEAM</tspan></text></svg>