<svg xmlns="http://www.w3.org/2000/svg" height="10in" viewBox="0 0 7777 10005" width="7.78in"><defs><style>.f1{font-family:Consolas,Courier New,monospace}.f2{font-family:Helvetica,Arial,sans-serif}.f3{font-family:Helvetica,Arial,sans-serif;font-weight:700}.f4{font-family:Times}.f5{font-family:Times;font-weight:700}.f6{font-family:Courier}.f7{font-family:Courier;font-weight:700}.f8{font-family:Symbol}.s4{fill:#fff}.s3{fill:none;stroke:#000;stroke-width:8}.s6{fill:#000}.s9{fill:none;stroke:#000;stroke-dasharray:120,40;stroke-width:20}.s5{fill:none;stroke:#00f;stroke-width:20}.s1{fill:#cff}.s8{fill:#000;stroke:#000;stroke-width:8}.s7{fill:none;stroke:#00f;stroke-width:12}.s2{fill:none;stroke:#000;stroke-width:10.005}</style></defs><g><path class="s1" d="M1219 1887l281 1950-81 52-111 159 1 127 47 39 57 45 90 70 162 116c45 30 90 60 135 89 80 53 163 102 247 149 56 32 113 62 171 92 76 41 153 80 232 112 37 14 75 28 110 46 17 9 34 19 50 30 17 12 34 25 51 38l-32 14-6 17-10 7-13 52v10l-5 16-13 16-20 77-2 15-24 20-23 20-19 19-6 12-3 15-1 39 467 1 4338-1 10-3083-173-383-5907 3" fill-rule="evenodd"/></g><path class="s2" d="M3498 4714l-2-7-76 15"/><path class="s2" d="M35e2 4733l2 1 34 161v3l-2 3-4 1-90 19-4 1-3-2-2-3-20-129"/><path class="s2" d="M3511 4838l-8 2v6l-6 13-1 3-2 1-37 7h-2v-2l-10-10-1-6-9 1 6 56-1 5 1 3"/><path class="s3" d="M3483 4785l-38 7v1 1l-1 5v4l-2 3h-1 1 2l4-5 7-3m10-3m9-1 7 2 3 3 2-1h-1l-2-3-1-3 1-5v-2"/><path class="s2" d="M3420 4722l1 17v4l1 26 3 17"/><path class="s2" d="M35e2 4740l-2-24-17 3"/><path class="s2" d="M3493 4780l10-3v-5h-1l-1-30"/><path class="s2" d="M3505 4795l-1-6-1-6v-6"/><path class="s2" d="M3436 4770v2h1l1 2h1l54-10"/><path class="s3" d="M3497 4758v-2l-10 1h-1l-1-1v-1l-4-26m-38 6 3 27v2 1h-1l-10 2v1l1 2"/><path class="s2" d="M3481 4729l-1-7-1-3-6 2 1 1v1l-1 1-2 1-19 4h-3l-1-1-1-1-1-1-5 1 1 2 1 6"/><path class="s2" d="M3429 4834l3 14"/><path class="s2" d="M3426 4810l2 21"/><path class="s2" d="M3508 4815l-3-20"/><path class="s2" d="M3435 4791l-11 2 1 6v5"/><path class="s2" d="M3512 4832l-4-16"/><path class="s2" d="M3409 4777l-3-19"/><path class="s2" d="M3412 4747l-4 2-2 1-1 3v1"/><path class="s2" d="M3442 4807l5 39"/><path class="s2" d="M3487 4799l12 36"/><path class="s3" d="M3145 4793l-155-20v3m51 7"/><path class="s3" d="M3052 4810l6 2 3 3 2 3m-1 35-2 3-3 1-7 1m-65-8v3l65 8 6 2 4 2 1 3v5"/><path class="s3" d="M3124 4815m-8 1m0 3 8-1 8-3 6-5m0-3m-6 5"/><path class="s2" d="M2906 4873l-2 12"/><path class="s3" d="M2793 4841l2-3 5-3 6-2 92-16h5l4 2 1 3m-4 36-2 3-4 3-6 2-95 16h-5l-4-1-1-3 6-37"/><path class="s2" d="M2749 4786l1-3-134 22-1 3-1 9"/><path class="s2" d="M2750 4783l13-42-1-3-4-2h-6-8l-84 14-9 2-8 3-6 3-3 3-18 44 18-3"/><path class="s3" d="M2764 4747l-2-9 2 10z"/><path class="s2" d="M2694 5106l-1-8-22 4"/><path class="s2" d="M2696 51e2v-1l-1-1h-2l1 8"/><path class="s2" d="M2815 5128l-2-15h2"/><path class="s2" d="M2888 5099l1 15 2-1"/><path class="s2" d="M2823 5134l-3-2h-5l-86 17-5 2-5 3-1 3-1 6"/><path class="s2" d="M2838 5142l-6-3-9 1v2"/><path class="s2" d="M2873 5138l-7 1"/><path class="s2" d="M2693 5098h2l1 1v1l-14 67v1h-1l-2 1-51 9"/><path class="s2" d="M2881 5187l-1 4-4 2-71 14-4-1-2-2-2-27 1-3 3-2 45-9"/><path class="s2" d="M2668 5252l17-2 207-42"/><path class="s3" d="M2626 5180l-6-1-2 3-1 6v9l7-1 6-1 3-1v-2-1-1l-2-6z"/><path class="s2" d="M2755 5287l1-13 1-10-62 13 2-8 3-2-33 7"/><path class="s3" d="M2659 5279l5-26-6-5-8-2-27-2-8 38 27 2 9-1z"/><path class="s3" d="M2593 5286l22-4 8-38-22 4z"/><path class="s2" d="M2687 5121l-3-6-12-10-16-6-17-1-19 4-16 8-14 59 17-8 18-4 19 1 16 6 5 4"/><path class="s3" d="M3122 4867l-44-6-5-1-4-3-2-3 1-36 2-3 4-1h5l37 5m0-3m-37-5-5-1-4-3-2-3v-12l3-3 4-1h5m55 7"/><path class="s3" d="M3066 4804l-8 3h-6m-63-8-1 3 43 6 23 3"/><path class="s2" d="M2810 4888l-72 12"/><path class="s2" d="M2906 4873l-2 12"/><path class="s2" d="M2616 4818l4 15 7 68 42 50 17 14"/><path class="s3" d="M3168 4772m-30 35m0 3 20-24 3-3 3-2 3-2h1"/><path class="s3" d="M2985 4853v-3m-67 11h-5l-4-1-1-3 4-36 1-3 5-3 5-2 65-11 1-3m-65 11h-6l-4-1-1-3 1-11 2-4 5-2 5-2m64-11v-3l-240 40-23 113 12 7"/><path class="s3" d="M2983 4882v-4m-68 12h-5l-4-2-2-3 2-12 2-4 4-3 6-2 11-2 56-9"/><path class="s3" d="M2762 4846l2-3 5-3 6-2 4-1h6l4 2 1 3m-7 36-2 4-5 3-6 2-4 1h-6l-4-2-1-3 7-37"/><path class="s2" d="M3140 4828l1 23 37-7-3-51-6 1-24 28"/><path class="s3" d="M3175 4793l-1-22-6 1m1 22"/><path class="s3" d="M2655 4777l-8 2-7 1-4-1-1-3 3-3 7-3 8-2 7-1 4 1 1 3-3 3z"/><path class="s3" d="M2689 4786l-7 1-7 1-5-1-1-3 3-3 7-3 7-2h7l5 1 1 3-3 3z"/><path class="s3" d="M27e2 4756l-7 2h-7l-4-1-1-2 3-3 6-3 7-2h7l4 1 1 2-3 3z"/><path class="s2" d="M2750 4783l13-42-1-3-4-2h-6-8l-84 14-9 2-8 3-6 3-3 3-18 44 18-3"/><path class="s3" d="M2764 4747l-2-9 2 10z"/><path class="s3" d="M2699 4844l-8 6-11 4-12 3h-10l-8-3-4-4 7 62 4 4 8 3h10l12-3 11-4 8-6-3-27z"/><path class="s2" d="M2646 4850l4 4 8 3h10l12-3 11-4 8-6"/><path class="s2" d="M3175 5048v-6H2958"/><path class="s2" d="M2888 5099l1 15 2-1"/><path class="s2" d="M2729 5145l-6-56"/><path class="s2" d="M3185 5082v-22l-203 40-4 1-4 3-2 4v12"/><path class="s2" d="M2932 5110h-4l-39 8-5 2-4 3-1 3-1 6"/><path class="s2" d="M2935 5073l1 3-4 47"/><path class="s2" d="M2966 5070l-3 50"/><path class="s2" d="M2838 5142l-6-3-9 1v2"/><path class="s2" d="M2693 5098h2l1 1v1l-14 67v1h-1l-2 1-51 9"/><path class="s2" d="M2944 5131l1-6-237 43h-6l-4-2-2-4 12-63 3-5 6-3 6-2 27-5"/><path class="s2" d="M2881 5187l-1 4-4 2-71 14-4-1-2-2-2-27 1-3 3-2 45-9"/><path class="s2" d="M2668 5252l17-2 207-42"/><path class="s2" d="M2876 5193l4-2 1-4"/><path class="s2" d="M2881 5187l-2-27h-1"/><path class="s2" d="M2638 5246l-1-26-2-28v-2h-2v1 1 2l-3 1-6 1-7 1-1 29"/><path class="s2" d="M2755 5287l1-13 1-10-62 13 2-8 3-2-33 7"/><path class="s3" d="M2617 5197v-9l1-6 2-3-22 4-1 2-1 2-3 6-1 3 2 4v2z"/><path class="s2" d="M2593 5248v-46-2l-2-3-1 1-91 80-5 5-4 7-3 8-3 17v3l1 1"/><path class="s2" d="M2602 5248l-8 3-6 6-3 6-8 38 2-6 6-6 8-3"/><path class="s2" d="M2590 5169l14-59-14 11-9 14-4 15-15 60"/><path class="s2" d="M2687 5121l-3-6-12-10-16-6-17-1-19 4-16 8-14 59 17-8 18-4 19 1 16 6 5 4"/><path class="s2" d="M2590 5172v-3l-14 12-10 14"/><path class="s2" d="M3316 3469l-8-19"/><path class="s2" d="M3274 3362l42 107v-1l-8-18"/><path class="s2" d="M3104 3368l106-4 25 108-10 1"/><path class="s2" d="M3104 3368l-4 111 135-7-1-4"/><path class="s2" d="M3288 3713l-3-13"/><path class="s2" d="M3098 3483l-10 244h11"/><path class="s3" d="M3098 3483m137-7 53 237-2e2 15v-6"/><path class="s2" d="M3011 3516l1-5 31-156"/><path class="s2" d="M3046 3358l182-7"/><path class="s2" d="M2320 3698 2149 2347"/><path class="s2" d="M2326 3703l510-473"/><path class="s2" d="M3024 3358c-4-1-8-2-12-4-8-3-16-6-24-11-11-6-20-14-30-22-7-6-14-11-20-17-8-7-15-15-23-22"/><path class="s2" d="M2915 3282l-23-21-22-21-22-22-7 7 7 7"/><path class="s2" d="M2779 4028h1l-1-1h-8l-8-4-1 1 6 3"/><path class="s2" d="M2812 3926l38-119"/><path class="s2" d="M2763 4023l8 4h8l27-83"/><path class="s2" d="M2320 3697l72 63 73 59 74 56 74 53 75 49 75 46 225-669 2 1"/><path class="s2" d="M2578 3459l-95-894"/><path class="s2" d="M2808 2771h-1l38 444"/><path class="s3" d="M2807 2771h1v-3h-1z"/><path class="s3" d="M1307 4110l104 82m23-17v-15l-37-30"/><path class="s2" d="M1391 3947l120 106"/><path class="s2" d="M1219 1887l332 2304 145 76"/><path class="s2" d="M1551 4191l-1-11"/><path class="s2" d="M1388 1885l332 2383 21-19-39-221"/><path class="s2" d="M1368 1887l328 2380 6 3 10 2"/><path class="s2" d="M2141 4629l-2 2 1-1 1-1-1 1 2-2h1"/><path class="s2" d="M2206 4593l26-28 6-8 1-9-4-9-7-6-53-33"/><path class="s2" d="M2171 4548l6-13v-13l-4-13-9-11-13-8-16-5h-17l-17 4-14 8 2 3v3"/><path class="s2" d="M2204 4595l2-2-34-31-3 2-3 3"/><path class="s2" d="M2015 4485l34-32 9-6 11-3h11l10 4 5-7-4-2-2-1h-1l-2-1h-1-1-1"/><path class="s2" d="M2018 4488l-2-1-6 7 44 30"/><path class="s2" d="M2058 4516l8-10-48-21"/><path class="s2" d="M2147 4582l5 1 43 22 6-6-2-1"/><path class="s2" d="M2124 4581l5-1 9-1 4 1"/><path class="s2" d="M2155 4572l-1-3 3-8 5-12 1-12-4-12-9-10-11-7-15-4h-15l-15 4-13 7"/><path class="s2" d="M2058 4528l5 6 2 8 1 12 3 5"/><path class="s2" d="M2071 4581l-30 27 8 5"/><path class="s2" d="M2095 4533l1-1 10-5 11-1 10 3 7 7 3 8-2 9"/><path class="s2" d="M2008 4494l-2 3-5 8 1 9 1 9-3 9-5 8-3 3-6 9v9l3 9 8 6 37 23"/><path class="s2" d="M2056 4612l42 24 10 4h12l10-3 9-6 3-3 8-6 10-5 11-1 11-2 9-6 2-3"/><path class="s3" d="M2103 4546l-13 1-11 5-7 9-2 10 3 10 9 7 11 3 13-1 11-5 7-9 2-10-3-9-8-8z"/><path class="s2" d="M2854 5264l5-44"/><path class="s2" d="M2276 4775l-1 1 86 42 87 41"/><path class="s2" d="M2644 4972l-10-10 3 3"/><path class="s2" d="M2682 5005l-5-7-9-14-14-16-11-12-12-11-12-11-13-11-13-10-14-10-14-9-14-9-14-8-14-8-28-15-29-13"/><path class="s2" d="M2656 4940l-24-10-28-11"/><path class="s2" d="M2615 4872l-14-6-10-6-7-9-5-7-8-5-9-2h-10l-14-1-12-3-44-21-16 21"/><path class="s3" d="M2306 4744l-16 18 87 43 86 41 3-5m-79-37-10-8-7-10-2-12-2-6-3-6-6-4-35-18"/><path class="s3" d="M2466 4833l16-21-40-18-11-7-6-10-5-7-8-5-9-3-11-1-14-1-13-4m-44-22"/><path class="s2" d="M2646 5091l-1-1-5-6-5-4-6-1-9 1-9 6-5 6-5 8-4 9-2 5"/><path class="s3" d="M2610 5048l5-11-1 2z"/><path class="s2" d="M2684 5014l-4-10-8-6h-1l-6 3-6 2-7 3-7 2-9 4-8 2-2 8"/><path class="s3" d="M2654 5066l9-42-12-3-14 2-12 5-10 9-5 11-11 43 6-11 10-9 12-6 14-2z"/><path class="s2" d="M2774 5273l19-32-2-1"/><path class="s2" d="M1524 4307l127 92 126 86 125 80 124 75 123 69 122 65"/><path class="s2" d="M1519 4267l-11-11-5-14v-14-7l-3-7-5-6-37-29-20-1-23 18 127 97 126 92 126 86 125 80 123 75 123 70 122 64 15-18-2-13-35-19-8-2-8-1-8 2-15 3"/><path class="s3" d="M2299 4722m-44-23-11-8-6-10-5-7-8-6-10-4-11-1-68 3h-5"/><path class="s2" d="M1946 4556l-1-3-17-55-5-8-8-7-10-5-11-2-16-3-13-6-41-27"/><path class="s2" d="M1835 4447l-56-37-10-10-6-12-4-9-8-7-10-5-12-3-16-3-14-7-45-34"/><path class="s2" d="M1655 4319l-66-46-10-10-5-13-5-9-7-8-10-6-13-3-16-4-14-8"/><path class="s2" d="M1498 4323l-1 1h-1l143 103 142 95 141 88 139 81 138 75 136 68 135 62 133 63"/><path class="s2" d="M2659 4998l-13-11"/><path class="s2" d="M2603 4957l10 6 10 6 9 7 14 11 13 11"/><path class="s2" d="M2757 4787l36 17"/><path class="s2" d="M2812 4777l-45-20"/><path class="s2" d="M2599 4673l-3-1-3-2-95-53-95-57-95-61-16 30 113 71 112 66 113 60 37 19"/><path class="s2" d="M1425 3892l65 55"/><path class="s2" d="M1734 4148l61 48 123 90 122 85 122 79 120 73 16-30-97-59-98-63-4-3-80-54-80-57-4-2-118-88-50-40"/><path class="s2" d="M2793 4804l-36-17"/><path class="s2" d="M2484 2559l-443-285h-1l196 126"/><path class="s2" d="M5111 4632l-2 1-1 2"/><path class="s2" d="M3863 5048l66 185v4l3 11 3 3 8 22v4l4 11 3 4 17 47"/><path class="s2" d="M3416 4731l-229 39 3 78-2 4-5 3-6 2-440 78-29 150 21-4"/><path class="s2" d="M3179 4996l5-1 3 2 2 2 2 82-1 3-3 3-5 2-287 56-1 17"/><path class="s2" d="M2955 5149h5l3 2 1 3-13 185"/><path class="s2" d="M2708 5085l12-60"/><path class="s2" d="M3179 4996l-471 89"/><path class="s3" d="M2960 5206m-5-57-61 13 5 57 61-13"/><path class="s2" d="M2698 4961l-4 5-26 123"/><path class="s3" d="M3292 3722m-202 15-40 1036 465-78-6-26"/><path class="s2" d="M3292 3722l223 973-12 2"/><path class="s2" d="M3070 3720l-3 1-80 1034"/><path class="s2" d="M3097 4786l64-10"/><path class="s3" d="M3001 3759l-1 2v3l1 5v5 5l1 3v2l36-2-1-2v-4-5l-1-5v-5-3-2z"/><path class="s3" d="M2994 38e2v2 3 5l1 5v5l1 4v3l38-3-1-3v-3l-1-5v-6-5-3-2z"/><path class="s2" d="M2988 3872v5l1 2 39-4v-2-4l-1-5v-6-5-4-2l-40 3v2 4 5"/><path class="s3" d="M2978 3907v3 4 5l1 7v5l1 4v3l43-4-1-2v-5l-1-5v-6-6-4-2z"/><path class="s3" d="M3014 3968l-45 4-1 3v4l1 7v6 6l1 4 1 3 45-4v-3l-1-4v-6l-1-7v-6-4z"/><path class="s2" d="M2958 4064l1 7 1 4v3l49-5-1-3v-4l-1-7v-7l-1-6v-5l1-3-48 4-1 1v3 5 6"/><path class="s3" d="M2998 4123l-52 5-1 1v3 6 7 7l1 7 1 5 1 2 52-5-1-3v-5l-1-6v-8-7-6z"/><path class="s2" d="M2987 4233v-6-4l1-1-57 6-1 1v4 7 7 9l1 7 1 5 1 3 57-7-1-3-1-5v-7l-1-8"/><path class="s2" d="M2912 4379l1 8 1 5 1 2 63-8-1-2-1-5-1-8v-9l-1-9 1-7v-5-1l-62 8-1 1v5 7 9"/><path class="s3" d="M2961 4483l-69 9-1 2-1 5v9 10l1 10v8l1 6 1 2 70-10-1-2-1-6-1-8v-10l-1-10v-8l1-6z"/><path class="s2" d="M2864 4712l1 9 1 6 1 2 78-12-1-2-1-6-1-9-1-12v-11-10-6l1-3-77 12-1 3-1 6v10 12"/><path class="s3" d="M3006 3722v1 4 4 5l1 5v3l1 2 34-2-1-2v-4-4l-1-5v-5-3-1z"/><path class="s3" d="M3046 3696l-98 1076 15 2m97-1077-14-1"/><path class="s2" d="M2982 3875l-4 27"/><path class="s3" d="M3005 37e2m-9 1-183 1096"/><path class="s2" d="M3003 3748l-1 6"/><path class="s2" d="M2997 3785l-1 10"/><path class="s2" d="M2991 3826l-3 19"/><path class="s2" d="M2975 3937l-5 30"/><path class="s2" d="M2968 4008l-5 29"/><path class="s2" d="M2957 4079l-6 44"/><path class="s2" d="M2945 4165l-9 59"/><path class="s2" d="M2930 4266l-11 76"/><path class="s2" d="M2912 4391l-14 96"/><path class="s2" d="M2890 4541l-18 124"/><path class="s2" d="M2864 4717l-11 75"/><path class="s3" d="M35e2 4248l-1 1 1-1z"/><path class="s2" d="M2672 4749v-1h1l70-278"/><path class="s2" d="M2771 4358l48-193"/><path class="s2" d="M2837 4093l24-97v1l-5 19"/><path class="s2" d="M2733 4738h1l-12 2"/><path class="s2" d="M2776 4715l140-714v-4-5"/><path class="s2" d="M2920 3983l91-467"/><path class="s2" d="M2884 3905l20-81"/><path class="s2" d="M2915 3783l19-77"/><path class="s2" d="M2941 3676l41-162"/><path class="s2" d="M2862 3993l35-3 1-1 13-4 9-47"/><path class="s2" d="M3021 3358l-39 155"/><path class="s2" d="M1757 4233l-9 7 126 92 126 86 45 29"/><path class="s2" d="M2239 4566l11 6 123 69 123 63 121 57 9 4"/><path class="s2" d="M1748 4240l9-7"/><path class="s2" d="M1828 4167l493-459"/><path class="s2" d="M7299 3817l-16-3"/><path class="s2" d="M7299 3808l-39-8"/><path class="s2" d="M2578 4656l73-228"/><path class="s3" d="M2658 4406l87-273m4-11 30-95h-8l-8-4-14 40"/><path class="s2" d="M2554 4644l209-621-37-22"/><path class="s3" d="M3049 3438l-1 1 1 2v2 3 3 3 1m22-1-1-1v-3-3-3-2-2-1l-21 1"/><path class="s3" d="M3046 3454v1 2 2 3l1 3v3 2l22-1v-2-3l-1-3v-3-2-2-1z"/><path class="s3" d="M3041 3487v1 2 3l1 3v3 3 2m24-1-1-2v-3-3-3-3-2-1l-24 1"/><path class="s3" d="M3039 3504v1 2 3 4 3 3l1 2 24-2v-1l-1-3v-3-4-3-2-1z"/><path class="s3" d="M3036 3525l-1 1 1 2v3 4 3 3l1 2 25-1v-2l-1-3v-3-4-3-2-1z"/><path class="s3" d="M3029 3571v1 3 3 4 4l1 3v2l27-2v-2l-1-3v-3-4-4-2-1z"/><path class="s2" d="M3054 3604v-4l-1-3v-3-1l-28 2v1 3 3 4l1 4v3 2l29-2-1-2v-3"/><path class="s2" d="M3051 3630v-4-4-2-1l-30 1v1 3 4l1 4v4 3l1 2 29-2v-1l-1-4"/><path class="s3" d="M3017 3651v1 3 4 4 5l1 3v2l31-2v-2l-1-3v-5-4l-1-4v-3-1z"/><path class="s2" d="M3042 3703l-30 2"/><path class="s2" d="M3045 37e2l-1-4v-5-4-3-1l-32 2v1 3 4 5"/><path class="s2" d="M3086 3452l-18 268"/><path class="s2" d="M3017 3671l-2 9"/><path class="s2" d="M3009 3704l-2 13"/><path class="s2" d="M3056 3369h-4l-56 330"/><path class="s2" d="M2773 2743l-99-65"/><path class="s2" d="M2672 2677l-183-118h-1v1"/><path class="s3" d="M2812 2766h1 1-1-1-1z"/><path class="s2" d="M2029 2267l-1-1v-1l1-1h1l-325-253"/><path class="s2" d="M2037 2267l6 3 1512 96"/><path class="s2" d="M2812 5113l77-14"/><path class="s3" d="M2689 4786l-7 1-7 1-5-1-1-3 3-3 7-3 7-2h7l5 1 1 3-3 3z"/><path class="s3" d="M2679 4822l-10 2-11 1-7-1-2-5 5-4 10-5 11-3h10l7 2 2 4-5 5z"/><path class="s2" d="M3481 5019l5 46"/><path class="s2" d="M3533 5010l15 42"/><path class="s3" d="M4413 2963m0 10m-4 0v-10h4"/><path class="s2" d="M4440 2801l1-9 3-1"/><path class="s2" d="M4414 2795l-1 10"/><path class="s3" d="M4414 2795h3-3z"/><path class="s2" d="M4437 2929v10-1"/><path class="s3" d="M4437 2929h4-4z"/><path class="s3" d="M4455 2790l4-1-4 1z"/><path class="s3" d="M4469 2788v10-10z"/><path class="s3" d="M4469 2788l4-1-4 1z"/><path class="s3" d="M4451 2929h4-4z"/><path class="s2" d="M4420 2811v10"/><path class="s3" d="M4420 2811h4-4z"/><path class="s3" d="M4465 2929v9-9z"/><path class="s3" d="M4465 2929l4-1-4 1z"/><path class="s2" d="M4437 2809l-4 1"/><path class="s3" d="M4447 2808v10-10z"/><path class="s3" d="M4447 2808h4-4z"/><path class="s3" d="M4461 2806h5-1z"/><path class="s3" d="M4430 2946h4-4z"/><path class="s2" d="M4476 2805l-1 10"/><path class="s3" d="M4476 2805l4-1-4 1z"/><path class="s2" d="M4413 2829v10-4"/><path class="s3" d="M4413 2829h4-4z"/><path class="s2" d="M4444 2946l-1 10"/><path class="s3" d="M4444 2946h4-4z"/><path class="s3" d="M4426 2828l4-1-4 1z"/><path class="s3" d="M4440 2826v10-10z"/><path class="s3" d="M4440 2826h4-4z"/><path class="s3" d="M4458 2946h4-4z"/><path class="s3" d="M4454 2825l4-1-4 1z"/><path class="s3" d="M4472 2946v10-10z"/><path class="s3" d="M4472 2946h4-4z"/><path class="s2" d="M4468 2823v10-3"/><path class="s3" d="M4468 2823h4-4z"/><path class="s2" d="M4419 2845v10-3"/><path class="s3" d="M4419 2845h4-4z"/><path class="s3" d="M4423 2963h4-4z"/><path class="s3" d="M4433 2844h4-1z"/><path class="s2" d="M4446 2843v10-4"/><path class="s3" d="M4446 2843l4-1-4 1z"/><path class="s3" d="M4436 2963v10-10z"/><path class="s3" d="M4436 2963h4-4z"/><path class="s3" d="M4460 2842h1l4-1h-1z"/><path class="s3" d="M4450 2963h4-4z"/><path class="s3" d="M4475 2840v10-10z"/><path class="s3" d="M4475 2840h4-4z"/><path class="s2" d="M4412 2863v10-3"/><path class="s3" d="M4412 2863h4-4z"/><path class="s2" d="M4464 2963v10-2"/><path class="s3" d="M4464 2963h4-4z"/><path class="s3" d="M4425 2862h4-4z"/><path class="s3" d="M4439 2861v10-10z"/><path class="s3" d="M4439 2861l4-1-4 1z"/><path class="s3" d="M4453 2860l4-1-4 1z"/><path class="s2" d="M4467 2858v11-2"/><path class="s3" d="M4467 2858h4-4z"/><path class="s3" d="M4418 2879v10-10z"/><path class="s3" d="M4418 2879h4-4z"/><path class="s3" d="M4432 2878h4-4z"/><path class="s2" d="M4446 2877h-1v10-2"/><path class="s3" d="M4445 2877h1 4-1z"/><path class="s3" d="M4459 2877h1l4-1z"/><path class="s3" d="M4427 2793h4-4z"/><path class="s3" d="M4474 2876v10-10z"/><path class="s3" d="M4474 2876l4-1-4 1z"/><path class="s2" d="M4411 2897v9"/><path class="s3" d="M4411 2897l4-1-4 1z"/><path class="s3" d="M4425 2896h3-3z"/><path class="s2" d="M4438 2895v10-1"/><path class="s3" d="M4438 2895h4-4z"/><path class="s3" d="M4452 2894h4-4z"/><path class="s2" d="M4466 2894v10-4"/><path class="s3" d="M4466 2894l4-1-4 1z"/><path class="s3" d="M4431 2913l4-1-4 1z"/><path class="s2" d="M4445 2912l-1 10v-2"/><path class="s3" d="M4445 2912h4-4z"/><path class="s3" d="M4459 2911h4-4z"/><path class="s2" d="M4473 2911v10"/><path class="s3" d="M4473 2911h4-4z"/><path class="s2" d="M4411 2930h-1v10-1"/><path class="s3" d="M4410 2930h1 3z"/><path class="s2" d="M4418 2913v9"/><path class="s3" d="M4418 2913l4-1-4 1z"/><path class="s2" d="M4418 2946v10"/><path class="s3" d="M4418 2946h4-4z"/><path class="s3" d="M4430 2981h4-4z"/><path class="s2" d="M4444 2981l-1 10"/><path class="s3" d="M4444 2981h4-4z"/><path class="s3" d="M4458 2981h4-4z"/><path class="s3" d="M4472 2981v10-10z"/><path class="s3" d="M4472 2981h4-4z"/><path class="s2" d="M4418 2982v10"/><path class="s3" d="M4418 2982h4-4z"/><path class="s3" d="M4413 2999m0 10m-4 0v-10h4"/><path class="s3" d="M4423 2999h4-4z"/><path class="s3" d="M4436 2999v10-10z"/><path class="s3" d="M4436 2999h4-4z"/><path class="s3" d="M4450 2999h4-4z"/><path class="s2" d="M4464 2999v10-2"/><path class="s3" d="M4464 2999h4-4z"/><path class="s3" d="M4430 3015h4-4z"/><path class="s2" d="M4444 3015l-1 10"/><path class="s3" d="M4444 3015h4-4z"/><path class="s3" d="M4458 3015h4-4z"/><path class="s3" d="M4472 3015v10-10z"/><path class="s3" d="M4472 3015h4-4z"/><path class="s2" d="M4418 3016v10"/><path class="s3" d="M4418 3016h4-4z"/><path class="s3" d="M4413 3031m0 10m-4 0v-10h4"/><path class="s3" d="M4423 3031h4-4z"/><path class="s3" d="M4436 3031v10-10z"/><path class="s3" d="M4436 3031h4-4z"/><path class="s3" d="M4450 3031h4-4z"/><path class="s2" d="M4464 3031v10-2"/><path class="s3" d="M4464 3031h4-4z"/><path class="s3" d="M4430 3047h4-4z"/><path class="s2" d="M4444 3047l-1 10"/><path class="s3" d="M4444 3047h4-4z"/><path class="s3" d="M4458 3047h4-4z"/><path class="s3" d="M4472 3047v10-10z"/><path class="s3" d="M4472 3047h4-4z"/><path class="s2" d="M4418 3047v10"/><path class="s3" d="M4418 3047h4-4z"/><path class="s3" d="M4413 3064m0 10m-4 0v-10h4"/><path class="s3" d="M4423 3064h4-4z"/><path class="s3" d="M4436 3064v10-10z"/><path class="s3" d="M4436 3064h4-4z"/><path class="s3" d="M4450 3064h4-4z"/><path class="s2" d="M4464 3064v10-2"/><path class="s3" d="M4464 3064h4-4z"/><path class="s3" d="M4430 3082h4-4z"/><path class="s2" d="M4444 3082l-1 10"/><path class="s3" d="M4444 3082h4-4z"/><path class="s3" d="M4458 3082h4-4z"/><path class="s3" d="M4472 3082v10-10z"/><path class="s2" d="M4418 3083v10"/><path class="s3" d="M4418 3083h4-4z"/><path class="s3" d="M4413 3102m0 10m-4 0v-10h4"/><path class="s3" d="M4423 3102h4-4z"/><path class="s3" d="M4436 3102v10-10z"/><path class="s3" d="M4436 3102h4-4z"/><path class="s3" d="M4450 3102h4-4z"/><path class="s2" d="M4464 3102v10-2"/><path class="s3" d="M4464 3102h4-4z"/><path class="s3" d="M4430 3119h4-4z"/><path class="s2" d="M4444 3119l-1 10"/><path class="s3" d="M4444 3119h4-4z"/><path class="s3" d="M4458 3119h4-4z"/><path class="s3" d="M4472 3119v10-10z"/><path class="s2" d="M4418 3119v10"/><path class="s3" d="M4418 3119h4-4z"/><path class="s3" d="M4413 3135m0 10m-4 0v-10h4"/><path class="s3" d="M4423 3135h4-4z"/><path class="s3" d="M4436 3135v10-10z"/><path class="s3" d="M4436 3135h4-4z"/><path class="s3" d="M4450 3135h4-4z"/><path class="s2" d="M4464 3135v10-2"/><path class="s3" d="M4464 3135h4-4z"/><path class="s3" d="M4430 3151h4-4z"/><path class="s2" d="M4444 3151l-1 10"/><path class="s3" d="M4444 3151h4-4z"/><path class="s2" d="M4458 3151l-1 10v-1"/><path class="s3" d="M4458 3151h4-4z"/><path class="s2" d="M4418 3151v10"/><path class="s3" d="M4418 3151h4-4z"/><path class="s3" d="M4413 3168m0 10m-4 0v-10h4"/><path class="s3" d="M4423 3168h4-4z"/><path class="s3" d="M4436 3168v10-10z"/><path class="s3" d="M4436 3168h4-4z"/><path class="s3" d="M4450 3168h4-4z"/><path class="s2" d="M4464 3168v10-2"/><path class="s3" d="M4464 3168h4-4z"/><path class="s3" d="M4430 3186h4-4z"/><path class="s3" d="M4444 3186h4-4z"/><path class="s2" d="M4458 3186l-1 10v-1"/><path class="s3" d="M4458 3186h4-4z"/><path class="s2" d="M2614 4817l3 3 32 15 9 2 11-1 49-8 9-2 8-4 6-5 3-5 5-26"/><path class="s2" d="M3546 4909l-2-8-90 17"/><path class="s2" d="M3549 4931l2 2 41 191v3l-3 3-5 2-106 22-5 1-4-2-2-3-24-154"/><path class="s2" d="M3562 5056l-10 2v7l-7 16-1 3-2 1-44 9h-2l-1-2v-1l-11-12-1-7-11 2 7 66-1 6 1 4"/><path class="s3" d="M3529 4993l-45 8v1 2l-1 6v4l-3 4h-1 1 2l5-6 9-4m11-3m11-1 8 2 4 3 2-1h-1l-2-3-1-4 1-6v-2"/><path class="s2" d="M3454 4918l1 20v5l2 31 3 20"/><path class="s2" d="M3549 4940l-3-29-20 4"/><path class="s2" d="M3541 4987l12-3-1-6-1-1-1-35"/><path class="s2" d="M3555 5005l-1-7-1-7v-7"/><path class="s2" d="M3473 4975v2l1 1 1 2h2l64-12"/><path class="s3" d="M3545 4961v-2-1l-12 2h-1l-1-2v-1l-5-31m-45 8 4 32v2 1h-1l-12 3v1l1 2"/><path class="s2" d="M3526 4926l-1-8-1-3-7 2 1 1v1l-1 2-3 1-22 4h-3l-2-1-1-1-1-1-6 1 1 3 1 7"/><path class="s2" d="M3465 5051l3 17"/><path class="s2" d="M3461 5023l3 24"/><path class="s2" d="M3558 5028l-3-23"/><path class="s2" d="M3472 5e3l-13 3 1 6v7"/><path class="s2" d="M3563 5049l-5-19"/><path class="s2" d="M3441 4983l-4-22"/><path class="s2" d="M3444 4948l-4 2-3 2-1 3v1"/><path class="s2" d="M2770 4429l7 2v2l1 5-6 25-2 3-6 3-7 2h-7l-5-1-88-36-5-3v-10l2-8 9-9 7-3 5 3 8-3 11-37 14-7h7l71 1 7 2-5 25 5 4 10 2 26 1-3 15-29 9-2 1-8 8-17 4-21-5-17-12-14 13 5-16 16-19 42-6 12 5"/><path class="s2" d="M2683 4401h9l4-2 3-2h2l4 2 6 3 4 11-1 3-5 5-19 8-11 2h-13l-9-2-5-3"/><path class="s2" d="M2840 4135l4 1 2 1v5l-3 16-2 2-5 2-6 2-64 6h-5l-4-1-2-5 8-24-3-3-9-1-4-2-2-2 1-5 1-3 4-4 3-2 6-3v1l4 1v3l-1 4-5 3 21-2-4-3v-3l1-3"/><path class="s2" d="M2776 4116l63-24 9-2 8 1 1 2-4 14-6-3-32 3-14 16-2 9 10-10 18 13 26-1 28-5 4-5v-3l1-9-21-1-8-2-4-2"/><path class="s2" d="M2760 4137h7l17-4 7-3 5-6-4-7-5-2-11 1"/><path class="s3" d="M2885 3940l13-1v2l22-5 3-6 2-7-18-1-7-1-8-5m-27 3-2 1-9 11-3 1-1 6 35 2 6 1 1 1v3l-3 11-1 2-8 2-8-4-48-12-13-4-4-3 1-4 4-5 5-2 3-1 2 1v5l-3 2h-1 18v-2l-3-1-1-3 1-2 5-1h4l6 4 1 4-4 4-12 4"/><path class="s2" d="M2898 3914l1-4-1-1-2-1h-4l-4 1-4 1-39 12"/><path class="s2" d="M2953 3679h-1l-2-1h-2l-4 1h-3l-25 6-19 3-10 5-2 6 11 2-2 6 7 1 33-2h6l7-2"/><path class="s2" d="M2928 3785l1-2h-1l-2-1h-2-42-4-3l-3 1-1 1-2 7-1 4-7 1-8 3-3 4 1 4 3 2 32 7 18 4 3 1h7l7-3 2-8"/><path class="s2" d="M3938 5339l-1-46-110 26"/><path class="s2" d="M3924 5287l-1-35-108 25v9"/><path class="s2" d="M3905 5249l3-24-1e2 22-3 24"/><path class="s2" d="M4445 5293v-7l-3-17-5-17-5-14-7-11-6-5h-4l-47 11h4l6 5 6 11 6 15 4 17 3 17v15l35-9"/><path class="s2" d="M4550 5275l13-3v-15l-3-16-5-17-6-14-7-11-6-5h-6l-45 11h5l6 5 6 11 6 14 5 17 3 17v4"/><path class="s2" d="M4351 5225l180-42h4l5 1 4 3 97 152"/><path class="s2" d="M4403 5339l-57-105-1-3 2-4 4-2"/><path class="s3" d="M4429 5228h1l1 1m2 1m1 2m2 2m2 3m2 3m1 3m2 4m1 4m2 5 51-13-5-12-5-9-5-5h-4l-10 2-29 7-10 2"/><path class="s2" d="M4521 5339l72-18-8-12-11 3h-1l-1-1h-1l-20-30-26 6v1l-1-1-1-1-1-1-18-27-52 12 18 28 1 1v1 1l-20 5 15 22 3 9-1 2"/><path class="s2" d="M4435 5326l1-7 3-1 4 5 4 9 2 7"/><path class="s2" d="M4414 5323l-1 11-5-9 1-11-4-2-3 3-2 7 1 11 1 6"/><path class="s2" d="M4457 5338a17 5 66.17872735296764 1 0-16-31"/><path class="s2" d="M4591 5303a19 5 65.863146877608 1 0-18-35"/><path class="s2" d="M6525 4754l196 103"/><path class="s2" d="M6529 4780v-5l-5-12-8-12-11-10-12-7-13-2-11 2-28 6 10-1 13 2 12 7 11 10 8 12 1 2"/><path class="s2" d="M6442 4808l14-3v-12l-5-13-8-12-11-10-13-6-12-3-10 2-30 7 11-2 12 3 12 6 11 10 8 13 2 3"/><path class="s2" d="M6602 49e2l-254-141-3-2-1-2 2-1 113-27h3l5 1 5 2"/><path class="s2" d="M6840 4923l18 10 4 3 1 2-1 2-120 33h-4l-6-1-6-3-106-59"/><path class="s3" d="M6525 4825l-15 4 10 5 89-23-15-7-7 2h-1-1l-1-1-38-17-16 4h-1l-1-1h-1l-1-1-36-16-32 8 36 16 1 1h1v1l-12 3 29 13 9 5 3 3z"/><path class="s2" d="M6633 4901v1l93 51 1 1h1 1l113-31v-1h-1l-94-50h-1-1l-20 5h-1l20-6-23-12-18 5-65-35h-3l-3-1 5-2-28-15-40 10"/><path class="s2" d="M6520 4834l18 10-5 1 60 33 5-1 15 8 2 1-1 1-5 1 23 13 55-15-1-2v1l2 1-1 1-30 8"/><path class="s2" d="M6320 4973l25 7 25 9 24 12 22 13 19 13 14 14 9 14 4 12-3 11-8 8-15 5-19 2-22-1-26-4-26-8-26-10-25-12-21-13-18-14-13-14-8-13-2-12 4-10 9-7 14-5 18-2 13 1"/><path class="s2" d="M6424 5090l-7-12-12-12-17-13-20-11-5-2"/><path class="s3" d="M6306 5003l-8-1-9 4-9 7-7 10 46 30 7-10 9-7 10-4 8 1z"/><path class="s2" d="M5478 4846l-2-4-7-13-10-9-5-2h-5l-6 1-7 3-6 5-4 7-2 7-2 20-3 9v1l19-4v4"/><path class="s2" d="M5528 4953l30-7-12-46-15-18-16-15-9-8-5-3-4-1h-3l-5 2"/><path class="s3" d="M5397 4870l-7 4-7 3 12 10 7-3 6-5 6-5 5-4 3-9-22-18 1 7 1 7-2 7z"/><path class="s3" d="M5435 4816l-4 1-5 2-4 1-4 2-4 2-4 2-3 2 17 13 2-7 4-7 6-5 7-3-5-4z"/><path class="s2" d="M5424 4841l-17-13-6 2-1 13 22 18 1-13"/><path class="s3" d="M5462 4873l18 14-2-6-1-5v-6l1-5 1-4 2-3 3-3 3-1-5-4-7 3-6 5-5 7z"/><path class="s2" d="M5560 4951l1-2-1-3h-1-1l-30 7-2 1-1 2v1l-1 2 1-2-40-60v1l-2 13-3 31"/><path class="s3" d="M5480 4887l-18-14-2 20 23 18 2-13z"/><path class="s2" d="M5455 4899l-30-24-2 15"/><path class="s3" d="M5453 4916l-7 5-7 3 12 10 7-3 6-5 5-4 6-4 4-3 4-4-23-18-2 9-2 8z"/><path class="s3" d="M3711 4622l58 164 20-3-163-442-5-13v-1l11-30m-44-114-27-19-1-1-3-10-93-251-2-6 10-14m-22-56-17-10h-1l-1-5-51-137"/><path class="s2" d="M3666 4805l-78-261"/><path class="s2" d="M3634 4779l159 560"/><path class="s2" d="M3632 4775l-21-76-103 17"/><path class="s2" d="M3584 4699l-149-554"/><path class="s3" d="M3323 3678l39 139 2 5h-1l-10 12 15 57 18 11 1 1 1 6 73 255 3 10v1l-13 24m32 117 29 25v1l4 13 130 454 10-2"/><path class="s2" d="M3778 4753l216 586"/><path class="s2" d="M3824 5339l-5-17 1-4-4-12-2-4-7-22v-4l-3-11-3-3-79-266 1-3-3-9-2-3-5-16 1-3-3-9-2-2-41-138 1-3-3-7-1-2-13-41 1-3-2-6-2-2-1-4-6 1 7 25"/><path class="s2" d="M3774 4852l-2-2-4-1h-4l-76 14"/><path class="s2" d="M3772 4794l2 58 30 87"/><path class="s2" d="M3763 4797l2-1-1-3-2 1-88 16h-2l1 3 2-1 16-2"/><path class="s2" d="M3738 4740l-77 13"/><path class="s3" d="M3629 4581l7 14-1 19v1l1 30-1 2 1 17 2 16 6 23 4 16 5 21 76-9-6-39-8-29-2-7-1-16-2-7-1-30-1-21-5-12-1-2z"/><path class="s3" d="M3611 4369l-60 8 1 2 1 4 1 8 1 9 1 9v8 6l-1 2 60-9 1-2 1-5v-8l-1-10-1-9-2-7-1-5z"/><path class="s3" d="M3582 4441l4 3 2 8 3 21v31l1 15 2 14 7 20 4 13 1 7 68-10-3-20v-3l-5-15-2-6-2-10v-8l-1-2-1-7-1-29-2-21-3-7-4-4z"/><path class="s2" d="M3589 4453l66-9"/><path class="s2" d="M3593 4475l63-9"/><path class="s2" d="M3594 4517l66-7"/><path class="s2" d="M3637 46e2l72-10"/><path class="s2" d="M3638 4662l72-9"/><path class="s2" d="M3767 5019l85-19"/><path class="s2" d="M3769 5091l85-18"/><path class="s3" d="M3748 4977l13 43 1 74 11 33 14 46 16-5 14 23 48-9 7-19-2-9 12-3-7-32-4-8-9-37-1-50v-10l-2-17-5-15-13-26z"/><path class="s2" d="M3760 4996l82-18"/><path class="s2" d="M3542 4238l8 2 5 3 3 3v4l-4 4-5 4-8 2-10 2-10 1-9-1-7-2-6-3-2-3v-4l3-4 6-4"/><path class="s3" d="M3540 4168l-51 6v1l1 4 1 6 1 7 1 8v7 5l-1 2 52-6 1-2v-5-7l-1-8-1-7-1-6-1-4z"/><path class="s2" d="M3481 4160v7 5l-1 2 51-6v-2-5-7-7l-1-8-1-5-1-4h-1l-50 6 1 3 1 6 1 7v2"/><path class="s2" d="M3457 4088v5 2l47-5v-2-5-6-7l-1-7-1-5-1-3-1-1-46 5v1l1 3 1 5v7"/><path class="s2" d="M3448 3982l-18 1h1v3l1 5 1 6v7 6 4 2l15-1"/><path class="s2" d="M3468 4013l9-1v-2l1-5-1-6v-6l-1-7-1-4v-3h-1l-9 1"/><path class="s3" d="M3455 3926l-41 4 1 2 1 4v6l1 6v6 5 2l41-4 1-2v-5l-1-5v-7l-1-5v-5l-1-2z"/><path class="s2" d="M3456 3973l4 48"/><path class="s3" d="M3381 3821v2l1 4v5l1 5v5 4 2m37-3v-2-4-5-6l-1-5v-3l-1-2-37 3"/><path class="s3" d="M3372 3806m0 4m0 3m36-3v-3-3-5l-1-6v-4l-1-4v-2l-36 3 1 2"/><path class="s2" d="M3417 3863l6 1 3 1 2 2-1 2-2 2-4 2-6 1-7 1h-7-6l-6-1-3-2-2-1 1-2 2-2 5-2"/><path class="s2" d="M3371 3772l-1-43h19v36"/><path class="s2" d="M3361 3724v-26l16-1v27"/><path class="s2" d="M3372 3696v-4-4l-1-3v-2l-32 2 1 2v3l1 4v4 5 3"/><path class="s2" d="M3234 3352h-5l6 18v1l-6 3 3 12 8 3v1l13 43v2l-7 4 5 16 9 3v2l14 46v2 1l-7 4 5 22 11 5 1 2 24 83v3 1l-8 7 8 33 14 7"/><path class="s3" d="M3380 3672l8-8m-13-33-13-6-1-3-30-82-1-3 7-5m-8-22-11-4-1-2-17-46v-2l6-4m-6-16-9-3v-1l-16-44-1-1 6-3m-4-12-8-2v-1l-7-18"/><path class="s3" d="M3315 3615l1 4v3 2m28-2v-2-3l-1-4v-4-4l-1-2v-1l-28 1 1 1v3"/><path class="s3" d="M3306 3577v1l1 2v4 3 4l1 3-1 2m27-1v-2-3-4-4l-1-3v-3-1l-27 2"/><path class="s3" d="M3299 3554l1 1v3 3 4l1 3v3 2m25-1v-2-3-4-3-4l-1-2v-1l-26 1"/><path class="s2" d="M3306 3505v-4l-1-3v-2-1l-23 2h-2v1 2 3l1 3"/><path class="s2" d="M3318 3472l131-6 149 226-189 13-7-18"/><path class="s3" d="M3266 3427l10-1v-9l-10 1z"/><path class="s2" d="M3260 3409h-5v1 1 3l1 3v2 3 1"/><path class="s2" d="M3278 3413h1v1h2l-1-6-5 1"/><path class="s2" d="M3245 3342h-9-2l1 9h2 4"/><path class="s2" d="M3253 3351h2 2v-9h-2-10"/><path class="s3" d="M4196 4779l7 8 9 20 19 19v8l58-11v-6l-5-17-6-28-4-7z"/><path class="s2" d="M4196 4779v53l-3 19-1 5 21 37 17 26 19 61"/><path class="s2" d="M4284 4824l1 18 1 12 2 6 12 24 8 15 3 6 20 66"/><path class="s2" d="M4231 4834l-25-19v35"/><path class="s2" d="M4287 4848l72 115 1 3-2 3-3 1-91 20h-5l-4-2-3-2-58-105"/><path class="s2" d="M4170 4839l-12-21v-3l2-2 3-1 19-4"/><path class="s2" d="M4244 4925l15 13 40-8 4-17"/><path class="s2" d="M4279 4817v-1l-1-1-1-1-11-28-39 7 11 28v3 1"/><path class="s3" d="M4095 4611l6 7 7 17 16 16v6l49-8v-6l-4-14-5-23-3-6z"/><path class="s2" d="M4095 4611v44l-3 16-1 4 17 32 14 22"/><path class="s2" d="M4168 4649l1 16 1 10 1 5 10 20 7 13 2 5 16 55"/><path class="s2" d="M4124 4657l-21-16v29"/><path class="s3" d="M4171 4670l47 78m12 19m1 2m-2 3m-3 1m-76 15h-4l-4-1-2-2-48-89"/><path class="s2" d="M4073 4661l-10-18v-2l2-2 2-1 16-3"/><path class="s2" d="M4134 4734l12 11 34-7 3-14"/><path class="s2" d="M4164 4644v-1l-1-1v-1l-9-24-33 6 9 23v3 1"/><path class="s2" d="M3318 3472l91 233 9-1"/><path class="s2" d="M3411 3714l376 960"/><path class="s2" d="M4089 4618l-339 57"/><path class="s2" d="M4770 5339l-521-748-74 13"/><path class="s2" d="M4811 5339l-43-60-2-4-8-11-4-4-93-130-1-4-7-10-3-3-14-18-1-4-6-9-4-3-162-227-1-3-5-8-3-2-10-14-1-3-5-7-3-2-85-120v-2l-5-7-2-2-26-36-1-2-4-6-2-2-2-2"/><path class="s2" d="M4379 4569l196 250"/><path class="s2" d="M4627 4886l356 453"/><path class="s2" d="M4625 4915l108 139 1 4 7 9 4 3 14 18 1 4 8 9 3 3 99 127 1 4 9 11 4 4 55 72 2 4 9 12 2 1"/><path class="s2" d="M4433 4666l1 2 4 7 3 1 91 118v2l6 8 3 2 11 14v2l2 2"/><path class="s2" d="M4894 5339l-15-20-4-3-5-2h-5l-6 1-39 9"/><path class="s2" d="M4879 5319l5-69-4-4h-1-1-1v1 1 1l-1 1-2 1h-2-3"/><path class="s2" d="M4768 5170l60 81"/><path class="s2" d="M4701 5178l54-13 3-59-93 22v2"/><path class="s2" d="M4868 5246l-2 1-98 25h-2"/><path class="s2" d="M4745 5070l-4-3-1-1-1 1v1 1l-1 1-2 1h-2l-2 1-2 32"/><path class="s2" d="M4635 5083l62-15 7-23-85 19v1"/><path class="s2" d="M4513 4839l19 31v5l-1 46 3 12 19 32 9 16 16 16 15-1 13 18 4 3 39-8 3-16-3-9 11-3-8-12-8-14-16-18-6-11-1-8 3-51-1-8-3-16-1-2-11-13-15-7-79 16"/><path class="s2" d="M4529 4848l66-15"/><path class="s2" d="M4604 4918l1-21v-8l1-1 1-1h-2l8-2 1-20-7 2v-1l-1-1 1-4v-7l-39 8-1 7v4 1l-1 1-7 2v20l7-2-1 1h1v1 1 7l-1 22 13-3"/><path class="s2" d="M4598 4942l-34 7"/><path class="s2" d="M4441 4676l-2 55 57 76"/><path class="s2" d="M4439 4731l-2-2-4-1h-4l-43 8"/><path class="s2" d="M4530 4808l-82 16v2"/><path class="s2" d="M4510 4842l-43 9v1"/><path class="s2" d="M4402 4682l-4-1h-3l-41 8"/><path class="s2" d="M4369 4635l59 79"/><path class="s2" d="M4386 4628v-1l-68 12v1"/><path class="s2" d="M4406 4631l-3-2h-1-1v1 1 1l-2 1h-1-2l-1 48h3"/><path class="s2" d="M4252 4492l-26 4 3 2 3 6 3 8 2 10"/><path class="s2" d="M4231 4523l-2-9-3-8-3-5-3-2-3 2v1"/><path class="s2" d="M3602 37e2l593 899"/><path class="s2" d="M3723 3820l613 868"/><path class="s2" d="M3612 3676v5l625 908"/><path class="s2" d="M3875 3681l-181 13 516 651"/><path class="s2" d="M3706 3727l481 622"/><path class="s2" d="M4241 4419l38 49"/><path class="s2" d="M4241 4385l63 79"/><path class="s2" d="M4247 4479l15 24v4l-1 37 2 9 15 26 7 12 13 13 12-1 10 15 4 2 30-6 3-13-3-7 9-3-6-9-6-11-13-14-5-9-1-7 3-40-1-6-3-13v-2l-9-10-12-6-63 13"/><path class="s2" d="M4287 4492l-1 9v1 1h-1l-5 1v5l45-7v-6l-5 1h-1v-1-9l-8 1"/><path class="s2" d="M4280 4509v3l1 3v5h4 1v1 1 24l32-6 1-23v-1-1l1-1 4-1v-5l1-4v-2h-3"/><path class="s2" d="M4282 4567l47-8"/><path class="s2" d="M4259 4486l52-10"/><path class="s2" d="M4670 4520l-291 49"/><path class="s2" d="M4158 4360l12 20v3 31l-1 8 13 21 6 11 13 10 10-1 8 12 3 2 26-5 2-11-2-6 7-2-5-8-6-9-4-13-1-9-1-5v-29l-1-5-2-11-2-5-6-7-7-3-61 9"/><path class="s2" d="M4187 4385v3l1 3-1 5 5-1v1 1 22l30-4 1-22v-1-1l1-1h4v-5l1-4v-2l-4 1"/><path class="s2" d="M4193 4369v8 1l-1 1-5 1v5l42-6v-5l-5 1h-1v-1-1-8l-15 2"/><path class="s2" d="M4192 4443l42-7"/><path class="s2" d="M4142 4399l-2-8-2-7-3-5-2-1-2 2"/><path class="s2" d="M4162 4372l-24 4 3 1 3 5 2 7 2 9 1 9-1-9-2-9-2-7-3-5-3-1-5 1 3 1 3 5 3 7 1 9"/><path class="s2" d="M4073 4298l38-5 2-2 1-6v-7-8l-2-8-2-7-3-4-2-1-53 7 3 1 2 4 2 7 2 8 1 8-1-8-2-8-2-7-2-4-3-1-4 1 3 1 2 4 2 6 2 8v2-2l-2-8-2-6-2-4-3-1-1 1 3 1 2 4 2 6 1 8"/><path class="s2" d="M4107 4285l52 69"/><path class="s2" d="M4040 4195l40 54"/><path class="s2" d="M4006 4205l36-4 1-3 1-5 1-7-1-8-2-7-2-6-2-3-2-1-49 6h2l2 4 2 6 2 7v8 1-1-8l-1-1"/><path class="s2" d="M3949 4124l32-4 2-2 1-5v-7l-1-7-1-7-2-5-2-3-1-1-46 5 1 1 2 3 2 5 1 7v1"/><path class="s2" d="M3981 4117l32 42"/><path class="s2" d="M3926 4042l1-4v-7-6l-2-7-1-5-2-2-1-1-44 5h2l2 3 1 5 1 6 1 7-1-7-1-6-1-5-2-3h-2l-3 1h1l2 3 1 4 2 7-2-7-1-4-2-3h-1-1v1h2l1 3 2 4 1 6"/><path class="s2" d="M3966 4084v-2l-16-32-1-1-11-14-1-1-1 2-3 8v1l3 4 1 4"/><path class="s2" d="M3850 3986l29-3 1-3 1-4v-6l-1-6-1-6-1-5-2-2h-1l-41 4h1l2 2 1 5 1 6v6-6l-1-6-1-5-2-2h-1-3 1l1 3 2 4 1 6v1-1l-1-6-2-4-1-3h-1l-1 1h1l1 3 2 4 1 5"/><path class="s2" d="M3878 3985l18 24"/><path class="s2" d="M3836 3928l15 21"/><path class="s2" d="M3809 3927l26-3 1-2 1-4v-6l-1-6-1-5-1-4-1-3h-1l-39 4h1l1 2 1 4 1 6"/><path class="s2" d="M3769 3872l25-2 1-3 1-4v-5l-1-5-1-6-1-4-1-2-37 4 1 2 2 4v5l1 5"/><path class="s2" d="M3799 3873l13 18"/><path class="s2" d="M3740 3830l23-2 1-2 1-4v-5l-1-5-1-5-1-4-1-2-35 3 1 2 1 4 1 5v5"/><path class="s2" d="M3707 3784l22-1 1-3v-3-5-5l-1-5-1-3-1-2-33 3 1 1 1 4v4"/><path class="s2" d="M3685 3718l-2 1v2h3v1 2h1v1 9h4"/><path class="s2" d="M3711 3715l-1-1h-4-1l-2-8-17 2 2 7v1h-4v1l4-1"/><path class="s2" d="M3670 3677h-7l2 7v1h-4v1l1 6"/><path class="s2" d="M3664 3694h-1l1 11v-2"/><path class="s2" d="M3637 3687l20-1v-2l1-4-1-4v-5-4l-1-2-1-2-30 2 1 2 1 2v4l1 5"/><path class="s2" d="M3554 3517l133 168h11"/><path class="s2" d="M3643 3657v-4-4l-1-3v-3l-1-1v-1 2l1 2v4l1 4v5-5l-1-4v-4l-1-2v-2h-3l1 2 1 2v4l1 5v4-4l-1-5v-4l-1-2-1-2-28 2v2l1 2v4l1 5"/><path class="s2" d="M3629 3642v-4l-1-4v-4l-1-3v-1l-29 2 1 1 1 3v4l1 4-1-4v-4l-1-3-1-1h-2l1 1v3l1 4-1-4v-3l-1-1-1 1h1v1l1 3v3-3l-1-3v-1h-1v2"/><path class="s2" d="M3591 3623l18-1 1-2v-3-4-4l-1-4-1-2v-1l-27 1v1l1 3v4l1 4"/><path class="s2" d="M3593 3591v-4l-1-3v-3l-1-1-26 2 1 1v2l1 4v4"/><path class="s2" d="M3561 3580l16-1 1-2v-3-3l-1-4v-3l-1-3v-1l-26 2 1 1v2l1 3v4"/><path class="s2" d="M3547 3561l16-1v-2-3-3-4-3l-1-3-1-1-24 2v1l1 2v3 4"/><path class="s2" d="M3534 3516l1 12 11-1v-12l-6 1"/><path class="s3" d="M3525 3522l1 2v-11l-1-7-1-1v1l-1 1v1l1 2h1v1 1 1z"/><path class="s2" d="M3543 3505h-12v2"/><path class="s2" d="M3512 3463l28 36"/><path class="s2" d="M3471 3411l38 48 126-6-107-101-8 1"/><path class="s2" d="M3482 3449v2h1v1h1v1 1 6h2"/><path class="s2" d="M3493 3469v1 3l1 3v2-2-1-8-1-1"/><path class="s2" d="M3477 3441v-2-3-3-2l-1-2v-1h-1v1 2l1 2v3 3 3-3-3-3l-1-2v-2-1l-20 1v1 2l1 2v3"/><path class="s2" d="M3427 3356l31 39"/><path class="s2" d="M3390 3347h-5l218 311"/><path class="s2" d="M3394 3337h-2v9h2l18-1h2v-9h-2l-3 1"/><path class="s3" d="M3394 3330h-1-2 7 2 1 3l1-1h2 7-1-2z"/><path class="s2" d="M3264 3351l793-29"/><path class="s2" d="M5001 4835l1-21 1-7 1-1v-1h-1l7-2 1-19-5 1h-1v-1-1-3-7l-36 7v7 4 1h-1v1h-1l-5 1-2 20 7-2v1h-1 1v1 1l-1 7-1 21 10-2"/><path class="s2" d="M5021 4843l110 109 2 3v2l-3 2-83 19h-5l-5-2-3-2-76-80"/><path class="s2" d="M4950 4884l-3-3-41-44-6-4"/><path class="s2" d="M4896 4829l-20-21-2-3 1-2 3-1 44-9"/><path class="s2" d="M4908 4760l19 19 5 10v5l-3 44v13l16 17 23 18 13 16 7 9 13-4 3 8 11 9 4 3 36-8v-3l2-12-4-8-12-12-10-12-5-12-6-8-3-9-1-8 4-50-1-7-4-14-1-2-11-10-2-2-18-6-73 14"/><path class="s2" d="M4956 4864l52-9"/><path class="s2" d="M4934 4765l53-11"/><path class="s2" d="M4675 4512l15 18 11 11 12 13 45-8 2-1 1-4-1-2-6-6-6-4-1-4-4-18-5-6-63 11-2 46-2 18 4 4 17 24 8 7 12 12 6 2 7-1 2 5 11 9 3 2 31-6 1-3 2-10-2-6 7-1-12-21-13-14-5-8-1-5v-6-8"/><path class="s2" d="M4713 4554h-5l-13-6-8-6-2 29-1 1v5"/><path class="s2" d="M4755 4580l78 77 1 2-1 2-3 1-73 14h-4l-3-1-3-2-57-60"/><path class="s2" d="M4645 4566l-14-15-1-1 1-2 3-1 35-6"/><path class="s3" d="M4740 4621l-2-5-2-6v-6l2-3h3l2 3 3 5 1 6v5l-2 4h-2z"/><path class="s2" d="M4732 4572v-3l-30 5-2 4 6-1"/><path class="s2" d="M4719 4601v3l11 11"/><path class="s2" d="M5736 5339l-929-842-58 10"/><path class="s2" d="M5812 5339l-217-191-14 4h-5l-6-1-4-3-63-56-2-3v-3l3-2 14-4-238-209"/><path class="s3" d="M5220 4818l-13 3h-4l-5-2-3-2-45-40-2-2 1-2 3-2 12-2-220-195-12 2h-4l-3-1-3-1-34-31-1-2v-1l3-1 11-2-21-19-28 5m910 816"/><path class="s2" d="M5276 4805l2 3-1 2-3 1-44 10"/><path class="s2" d="M5139 4747l29 26 50-10h4l4 1 3 2 25 21"/><path class="s2" d="M5444 5016l78 69 56-14h5l5 2 4 2 25 21 38 29"/><path class="s2" d="M5656 5130l3 3v4l-3 1-50 14"/><path class="s2" d="M5127 4493l5 4 11-2h3l4 1 3 1 38 29 1 1v2l-3 1-11 2 242 184 12-3h4l4 1 4 2 50 38 2 2v2l-3 2-12 2 324 246 13-3h5l5 1 5 3 68 51 3 3v3l-2 2-14 4 352 267"/><path class="s2" d="M5169 4497l1129 842"/><path class="s2" d="M5883 5079l-54 14h-5l-6-1-4-3-67-53-3-3v-3l3-1 53-14-30-23"/><path class="s2" d="M5477 4768l-49 11h-4l-4-1-4-2-49-39-2-2 1-2 2-1 48-10-36-27"/><path class="s2" d="M5833 5009l-5-3-5-1h-5l-8 58h4l6 2 4 2 2-13"/><path class="s2" d="M5833 5009l-9 58 22 17"/><path class="s2" d="M5824 5067l-4-2-6-2h-4l-10 3"/><path class="s3" d="M5581 5127l5 2 6-54-4-2-5-2h-5l-7 54h5z"/><path class="s2" d="M5552 5130l19-5 1-6"/><path class="s2" d="M5444 4716l-4-2-4-1h-4l-5 52h3l5 1 3 2 3-21"/><path class="s2" d="M5438 4768l-3-2-5-1h-3l-15 3"/><path class="s2" d="M5168 4598l63-12 8 6 4 11 7 14 14 10 2 3v3l-3 2-45 9v-1l-20-15-23-24-7-6-2 17 1 5-2 26-1 11-2 13 29 25 2 3 24 27 33 10 33-7 1-14-3-5-13-18-5-4-13-16-5-16v-7-5"/><path class="s2" d="M5218 4644l-29-11-5-5-2 32-2 7 2 11"/><path class="s2" d="M5273 4688l83 67 2 2v2l-3 1-72 16h-4l-5-1-3-2-161-136-2-2 1-2 2-1 17-3"/><path class="s3" d="M5237 4713l-3-6-2-6v-6l2-3h4l4 3 3 6 2 6v6l-2 3h-4z"/><path class="s2" d="M5228 4661v-3l-30 6-2 3 7-1"/><path class="s2" d="M4994 4565l2 2-1 2-2 1-40 7"/><path class="s2" d="M4949 4533h4l4 1 2 1 28 24"/><path class="s2" d="M4949 4533l-44 8-2-1-1-1v-1-1h-1l-11 2v1-1l-3 1v1"/><path class="s2" d="M5139 4541l4-46-11 2h-1v1 1l-1 2-2 1-43 7v1"/><path class="s2" d="M5174 4537l-43 8h-4l-4-1"/><path class="s2" d="M5048 4493l-160 28"/><path class="s3" d="M4878 4390l-2 2-4-1-3-4-2-6-1-6 1-5 3-2 3 1 3 4 2 6 1 6z"/><path class="s2" d="M4890 4390l17-3 1-5v-7l-2-7-3-6-4-3-4-1-23 4h4"/><path class="s3" d="M4902 4360m3 5m3 6m1 7 50-8-2-7-2-6-4-4-4-2-49 8"/><path class="s3" d="M4946 4351m4-1m4 3m3 5m3 7 23-4-3-6-3-6-4-2h-4l-23 4"/><path class="s2" d="M4964 4382l15-2 3-4 1-6v-7"/><path class="s2" d="M4945 4350l-3-8-4-7-5-5-5-1-50 8 4 1 5 4 4 8 3 8"/><path class="s3" d="M4909 4380m0 8v6l4 3 2 1 1 1 1 2 1 12 34-5-1-12 1-3 1-2h2 1l3-5-1-14"/><path class="s3" d="M4918 4416l-1 14-1 5-3 3-2 4v8l43-7h4l3 3 1 4m-1 13 7-1 2-18-14-7-2-2v-3l-3-3v-4l1-14h-2"/><path class="s2" d="M4899 4395l5 3 7 1-7-1-5-3-2-3-3 36 2 3 6 3 6 2-6-2-6-3 2 2 4 2 6 1"/><path class="s2" d="M4877 4437l4 1 6 3 9-8-3-3-6-4-7 6"/><path class="s2" d="M4888 4442l-1 1 4 6 2 4 2 5 7-6 1-4 1-1 2-2h1v-1h1 3l2-4-3-1-1-1-1 1-3 1"/><path class="s2" d="M4903 4457l2 5 1 6v4 4-1l-1 2"/><path class="s2" d="M4922 4477l1-4 1-5-1-5-1-5-2-6"/><path class="s2" d="M4939 4447l1 4 2 4 1 4v4 6"/><path class="s3" d="M4867 4481l3 2 3 4 1 6v5l-2 3-2 1-3-2-3-4-1-5v-6l1-3z"/><path class="s2" d="M4834 4405l-1 9v1l-5 1-1 5 41-6v-5l-5 1v-1l-1-1 1-9-12 2"/><path class="s2" d="M4827 4421v3l1 3v5h4v1l-1 23 29-5 1-22v-1l1-1 4-1v-5l1-4 1-2h-3"/><path class="s3" d="M4788 4395l14 1 9 7 7 21-1 28-2 7 4 14 6 11 13 17 15 16 46-7 3-13 1-9-15-11-9-14-4-14 1-34-6-21-10-7-13-3z"/><path class="s2" d="M4788 4395l16 15 2 8-2 23-1 13"/><path class="s2" d="M4908 4760l8 20 3 10v14l-1 12"/><path class="s2" d="M4510 4842l7 34-4 20"/><path class="s2" d="M3748 4977l1 46-2 21"/><path class="s2" d="M5213 4528h1l-227-169"/><path class="s2" d="M4967 4344l-265-198"/><path class="s2" d="M4683 4132l-425-317"/><path class="s2" d="M3874 3641l-8 1 934 846"/><path class="s2" d="M3870 3659v8l901 834"/><path class="s2" d="M4955 4420l77 61"/><path class="s2" d="M4965 4386l110 85"/><path class="s2" d="M4703 4295v8 1 1h-1l-4 1-1 5 38-6v-5l-4 1h-1v-1-1l1-8-16 3"/><path class="s2" d="M4697 4311v2l1 3v5l3-1h1v1 1l-1 21 27-4 1-21v-1l1-1 4-1v-4l1-4v-2h-2"/><path class="s2" d="M4664 4286l54-8 13 3 7 6 5 17-1 27 1 10 3 9 9 14 11 7-2 8-2 11-27 4-11-8-1-4h-11l-17-14-6-10-3-13 2-6 1-25v-1l-5-18-1-1-7-6h-1l-3-1-8-1-1 1v1 1l12 10 1 2 1 2 1 2v3l-1 22"/><path class="s3" d="M4734 4366l2 2 3 3 1 5v5l-1 3-2 1-3-1-2-4-1-5v-5l1-3z"/><path class="s2" d="M4670 43e2l-37 5 4 1 4 5 3 7 1 3"/><path class="s2" d="M4793 4406l-40 6 5 1 5 5 4 8 3 9v4-4l-3-9-4-8-5-5-5-1"/><path class="s2" d="M4743 4294l109 89"/><path class="s2" d="M4809 4385l-62-51"/><path class="s2" d="M4801 4250l106 81"/><path class="s2" d="M4692 4167l88 67"/><path class="s2" d="M4006 3719l662 562"/><path class="s2" d="M4248 3889l369 302"/><path class="s2" d="M4561 4066l86 66"/><path class="s2" d="M4465 3993l68 52"/><path class="s2" d="M4322 3884l28 21"/><path class="s2" d="M4381 3929l54 41"/><path class="s2" d="M4542 4218l93 83"/><path class="s2" d="M4815 4246l-4-7-4-4-4-1-48 7 4 1 4 4 4 6 1 3"/><path class="s2" d="M4632 4160l1 12 3 3h2l1 1 1 2v10l30-4-1-10 1-2 1-1 2-1 3-4-1-12-24 3"/><path class="s2" d="M4640 4192v12l-1 4-3 3-1 4v6l37-5 4 1 3 2"/><path class="s3" d="M4669 4138l3 2 3 4 2 6 19-3-1-5-3-5-3-1z"/><path class="s2" d="M4680 4164l12-2 2-1 2-3 1-5-1-6-5 1"/><path class="s3" d="M4630 4168l1-5v-6l-1-6-3-4-2-3h-3l-20 3h2l3 2 3 5 1 6v5l-1 5z"/><path class="s2" d="M4675 4137l-3-3-4-1-44 6h3l4 4-4-4h-3l-4 1h3l4 3-4-3h-3l-1 1h4"/><path class="s2" d="M4624 4175v4l-1 12"/><path class="s2" d="M4636 4251h2l1-1 1-2 1-2v-3-5-6l-2-6-1-4"/><path class="s2" d="M4668 4246l1 1 2-1 1-1 1-1 1-3v-4-6l-1-5-1-4-1-3"/><path class="s2" d="M4649 4249h2 1l2-1 1-2v-2l1-5v-5l-1-6-1-4-1-3"/><path class="s2" d="M4701 4262l2-30"/><path class="s2" d="M4686 4218l-12-7-2-2v-3l-2-2-1-3v-8"/><path class="s2" d="M4666 4260l30-4"/><path class="s3" d="M4606 4168l-2 2-2-1-2-3-2-4v-5-4l2-2h2l2 3m2 5m1 5"/><path class="s2" d="M4538 4230l23-3 3-2 1-5 1-7-1-8-2-8-3-6-3-4h-4l-47 6 3 1 4 3 2 6 2 8 1 2-1-2-2-8-2-6-4-3-3-1"/><path class="s2" d="M4674 4193l51 40 14 11v1l-2 1-7 1 140 111"/><path class="s2" d="M4565 4069l-1-7-1-7-3-5-3-3h-3l-39 5 3 3 2 5 2 7-2-7-2-5-3-3"/><path class="s2" d="M4428 4132l21-2 3-3 1-5 1-6-1-8-2-6-2-6-3-3h-3l-42 5 3 3 3 6 1 7 1 2-1-2-1-7-3-6-3-3"/><path class="s2" d="M4446 4007l15-2 2-2 1-5 1-6-1-6-1-6-3-5-2-3h-3l-37 5 3 2 2 5 2 6-2-6-2-5-3-2"/><path class="s2" d="M4334 4048l20-2 2-2 1-5v-6-7l-2-6-2-5-3-3h-2l-39 5 2 2 1 1 2 4 1 7v1-1l-1-7-3-5-2-2"/><path class="s2" d="M4343 4043l57 50"/><path class="s2" d="M4513 4187l-65-57"/><path class="s2" d="M4262 3845l20 16"/><path class="s2" d="M43e2 3891l12-1 2-2 1-4 1-6-1-5-1-6-2-4-2-2h-2l-34 4 2 2 2 4 1 5-1-5-2-4-2-2"/><path class="s2" d="M4360 3939l14-1 2-2 1-5 1-5-1-6-1-6-2-4-3-2h-2l-35 3 2 3 2 4 2 5-2-5-2-4-2-3"/><path class="s2" d="M4182 3912l17-1 1-3 1-4v-5-6l-1-6-2-4-2-2h-2l-37 3h2l2 3 2 4 1 5v1"/><path class="s2" d="M4254 3976l17-2 2-3 1-4v-6-6l-2-6-2-4-2-3h-2l-39 4 4 3 2 4 1 6-1-6-2-4-4-3"/><path class="s2" d="M4132 3858l26 22"/><path class="s2" d="M4194 3912l34 30"/><path class="s2" d="M4264 3973l43 39"/><path class="s2" d="M4189 3817l1-4v-4l-1-4-1-3-2-1-15 1 2 2 1 3 1 4v4l-1 3h6"/><path class="s2" d="M4238 3804l-1-4-1-2-1-1-15 1 1 1 1 3 1 3h2"/><path class="s2" d="M4220 3799h-2l-27 3"/><path class="s3" d="M4221 3846l-2-2-1-2 1-9-22 2-1 9v2l-2 2-1 3v5l28-3 2-4-2-1z"/><path class="s2" d="M4189 3858l1 3 1 3v3 3 2"/><path class="s2" d="M4206 3856l1 2 1 2v2l1 5v4 3"/><path class="s2" d="M4240 3880v-17l-6-4v5"/><path class="s2" d="M4241 3845l12-1 2-2 1-4v-5l-1-5-1-5-1-4-2-2-27 2"/><path class="s2" d="M4222 3836l32 26 7 5v1h-1l-5 1 345 274"/><path class="s2" d="M4135 3855l1-3 1-4v-5-5l-1-5-2-4-35 3 2 4 1 5-1-5-2-4"/><path class="s2" d="M4163 3751l1 4 1 4 1 5-1 5 1-5-1-5-1-4-1-4-34 1 2 2 1 3 1 5-1-5-1-3-2-2"/><path class="s2" d="M4064 3806l14-1 1-2 1-4v-5-5l-1-5-2-3-1-2-33 3 1 1 2 4 1 5"/><path class="s2" d="M4077 3809l19 17"/><path class="s2" d="M4111 3777l71 58"/><path class="s2" d="M4180 3797l11-1 1-2 1-4v-5-5l-2-5-1-3-2-2-32 3 2 1 1 4"/><path class="s2" d="M4042 3704h-3v3 3l1 3 1 1"/><path class="s2" d="M4043 3716l15-1 6 4v17l-5 9 1 13"/><path class="s2" d="M4042 37e2l58-4"/><path class="s2" d="M4095 3762l1-16-12-11v-19l4-3 10-3 3-3v-5-4l-1-2h-1"/><path class="s2" d="M4090 3732l25 20 5 4h-1l-5 1 52 41"/><path class="s2" d="M4107 3709l114 86"/><path class="s2" d="M4027 3765l14 12"/><path class="s2" d="M4075 3691l-1-4-1-3-2-2-29 2 2 2 1 3 1 4-1-4-1-3-2-2"/><path class="s2" d="M4014 3762l14-1 1-2v-4-5-5l-1-4-1-3-2-2-31 2 1 2 1 3 1 5"/><path class="s2" d="M4004 3690l48 39"/><path class="s2" d="M3942 3639l-38-31"/><path class="s2" d="M3854 3567l-57-46"/><path class="s2" d="M3978 3607l-255-191"/><path class="s3" d="M3534 3342l331 3e2-331-301z"/><path class="s2" d="M4002 3693h-1-4-1v-1l-3-7-16 1 3 8-4 1"/><path class="s2" d="M3974 3686h-7l2 9h2v-1l1-1h1"/><path class="s2" d="M3993 3731l-76-66"/><path class="s2" d="M3954 3713l-1-4-1-3-1-1h-1l-1 2"/><path class="s2" d="M3967 3725v-1l-8-7"/><path class="s2" d="M4033 3681h9l1-2v-4-4-4l-1-4-1-3-1-2-29 2 2 2 1 3 1 4"/><path class="s3" d="M3971 3635l-1-5 1-2h1v-1h1l1-2v-6m-26 1 1 7 2 2h1v1l1 1v5"/><path class="s2" d="M3967 3654l6-1 1-2-1-2v-1l-2-2v-2-7l-18 2v7 2l-1 1-1 2v4"/><path class="s2" d="M3977 3626l8-1 1-1v-2l1-3-1-4-9 1"/><path class="s2" d="M3946 3613l-12 1h1v3l1 2v4 3"/><path class="s2" d="M3974 3619v-3l-1-3-1-1-25 1v2l1 2v3"/><path class="s2" d="M4038 3696l-42-33v1l41 32"/><path class="s2" d="M4012 3632l-7 1 31 23"/><path class="s2" d="M4001 3636h1l-25 1"/><path class="s2" d="M4001 3661l-23-19"/><path class="s2" d="M3988 3661v14h-1v1l-18 1h-1v-1"/><path class="s2" d="M3995 3634l29 22"/><path class="s2" d="M3959 3655l-26 2-1 5v1 2 1 12"/><path class="s2" d="M3940 3668v3h2 1v1 2 9h3"/><path class="s2" d="M3958 3682v-9-2-1l1-1h2v-2"/><path class="s3" d="M3966 3665v-1h-4-1l-3-7m-15 1 3 7-4 1"/><path class="s2" d="M3910 3638l8-1-54-46-4 1h-2l-4-3-14-13-3-2 1-1h4l-103-86h-3-1-1l-2-2-10-8-2-2h1l3-1-11-9"/><path class="s2" d="M3908 3668l12-1 1-2v-4-4-4l-1-4-1-3-1-1-28 2 1 1 1 3 1 4"/><path class="s2" d="M3899 3629l1 3 1 3v5-5l-1-3-1-3h-29l1 2 1 2 1 4"/><path class="s2" d="M3856 3620l10-1v-2l1-3v-4l-1-4v-3l-1-3-1-1-26 2 1 1v2l1 4"/><path class="s2" d="M3824 3593l11-1v-2l1-3v-4l-1-3v-4l-1-2-1-1-25 1 1 1v3l1 3"/><path class="s2" d="M3881 3565v-5-1l1-1h1l1-2v-6l-23 1v6l2 2h1l1 1v1 5"/><path class="s3" d="M3883 3576l-1-1-1-2v-6l-15 1v6l-1 2-1 1v2 4l20-4-1-1z"/><path class="s2" d="M3873 3599v-1-1-3-3-3-1l-1-2v-1-1"/><path class="s2" d="M3856 3586v-1l-4-3"/><path class="s2" d="M3941 3584l1 1 1 3 1 3v4 4 3-3-4-4l-1-3-1-3-1-1-25 2 1 1 1 3v3-3l-1-3-1-1"/><path class="s2" d="M3911 3570l-1-4v-3l-1-3-1-1-25 2"/><path class="s2" d="M3884 3571h1 1l3 2 16 13 3 2v1h-1-4l27 21"/><path class="s2" d="M3819 3514h7l1-2v-3-3-4l-1-2-1-3-23 1 1 1 1 2v3"/><path class="s2" d="M3807 3496v-2-3-4l-1-3-1-2-22 1 1 1v2l1 2-1-2v-2l-1-1"/><path class="s2" d="M3786 3467l1 3 1 3v3 3 3-3-3-3l-1-3-1-3-21 1v1l1 2 1 3"/><path class="s2" d="M3751 3527h9v-2l1-3v-3l-1-4v-3l-1-2v-1l-23 2v1l1 2 1 3v3"/><path class="s2" d="M3775 3549l10-1v-1l1-3v-4l-1-3v-3l-1-3-1-1-23 2v1l1 2 1 3"/><path class="s2" d="M3797 3568l9-1 1-2v-3-3-4l-1-3-1-3v-1l-25 2 1 1 1 2v3"/><path class="s2" d="M3728 3507h9v-2l1-3v-3l-1-3v-3l-1-2v-1l-22 1v1l1 2v3"/><path class="s2" d="M3742 3468v6 1l-1 2v1 3l17-3-1-1v-1l-1-1v-2-5h-2"/><path class="s2" d="M3758 3454v-2l-1-2v-1l-20 1"/><path class="s2" d="M3750 3441l1 2 1 3v3-3l-1-3-1-2h-20l1 1v2l1 3"/><path class="s2" d="M3689 3454v1h2v1 1 1h1v6h10"/><path class="s2" d="M3690 3417l1 4 1 2h1l1 1v4l12-1v-4l1-1 2-1"/><path class="s2" d="M3690 3418v-2l-1-2v-2h-9l1 1v1"/><path class="s2" d="M3708 3421h9v-1-2-2-2"/><path class="s2" d="M3668 3434v-2h-1l-20 1h1v2l1 3v3"/><path class="s2" d="M3674 3439v2l14-1"/><path class="s2" d="M3706 3444l-22 1"/><path class="s2" d="M3670 3429l-57-48h-3-1l-1-1-7-6-1-1h1 3l-22-18h-3-1l-1-1-6-5-1-1h1 2l-8-8"/><path class="s2" d="M3676 3409l-36-29v1l35 27"/><path class="s2" d="M3710 3407l-79-60"/><path class="s2" d="M3544 3332h-3l1 8h2 17 2v-9h-2-8"/><path class="s2" d="M3582 3331v4l1 1h1l1 1v3h10v-3-1h1l1-1v-4h-3"/><path class="s2" d="M3585 3342v4 1l-1 1v1 2l13-2v-1l-1-1-1-2v-4"/><path class="s2" d="M3613 3356l1 4 1 1 1 1v4l11-1v-3-1h1l1-2v-4"/><path class="s2" d="M3616 3367l1 4-1 2v1l-1 1v2l14-1 1-1-1-1v-1l-1-1-1-1v-4"/><path class="s2" d="M3582 3330v-1l-1-1h-7l1 1v2"/><path class="s2" d="M3604 3329v-3l-7 1"/><path class="s2" d="M5397 4393 4221 3656l-157 11"/><path class="s3" d="M7045 4625l-10 1-14-1-17-3-17-4-18-6-15-6-12-7-9-6-3-6 1-5 6-2 11-1h14l17 3 17 5 17 5 16 7 12 7 8 6 4 6-1 4z"/><path class="s3" d="M6880 4665l-11 1-14-1-17-3-17-4-17-6-15-7-12-7-8-7-3-6 2-5 6-3 11-1 14 1 17 3 17 5 17 5 15 7 12 7 8 7 3 6-1 5z"/><path class="s3" d="M7267 4572h-10-14l-16-3-18-4-17-5-16-6-12-7-9-6-5-5 1-4 6-3 10-1m14 1m16 2m18 4m17 6m16 6m12 6m9 6m5 6-1 4-6 3"/><path class="s3" d="M7158 4598l-10 1-14-1-17-3-17-4-18-5-15-7-13-6-8-6-4-6 1-4 6-3 10-1 14 1 16 2 18 5 17 5 16 6 12 7 9 6 4 6-1 4z"/><path class="s3" d="M7189 4767l-6-1-8 3-7 6-6 8 52 24 6-9 8-6 7-3 6 1z"/><path class="s2" d="M7259 4767l-26-9-26-7-25-6-22-3-20-1-15 2-10 3-5 6"/><path class="s3" d="M6946 4512l-10 1-13-1-16-2-16-4-16-5-14-5-11-6-7-6-3-5 1-4 6-2 10-1 14 1 15 2 16 4 16 5 14 5 11 6 8 6 3 5-2 3z"/><path class="s3" d="M7053 4488l-10 1-13-1-15-2-16-3-16-5m-15-5m-11-6-8-5-3-5 1-4 6-3 10-1m13 1m15 2m16 4m16 4m14 6m12 5m8 6 3 5-1 3-6 3"/><path class="s3" d="M6836 4537l-10 1-13-1-16-3-16-4-15-5-14-6-11-6-7-6-3-5 2-4 6-3h10 14l15 3 16 4 16 5 13 6 11 6 7 6 3 5-2 4z"/><path class="s3" d="M6618 4445h-9-13l-14-2-15-4-14-4-12-6-9-5-6-5-2-5 2-3 6-3h10 12l14 3 15 3 14 5 12 5 10 5 6 5 2 5-3 3z"/><path class="s3" d="M6725 4423l-9 1-13-1-14-2-15-3-14-5-12-5-10-5-6-5-3-4 2-4 6-2 10-1 12 1 14 2 15 3 14 5 12 5 10 5 7 5 2 4-2 4z"/><path class="s3" d="M6829 4402l-9 1-13-1-14-2-14-4-14-4-13-5-10-5-6-5-3-4 2-3 5-2 10-1 12 1m14 2m15 3m14 5m13 5m9 5m7 4 2 5-1 3-6 2"/><path class="s3" d="M6528 4344h-9-11l-13-2-14-3-13-4-11-5-8-4-5-5-2-4 2-3 6-2 9-1 12 1 13 2 13 3 13 4 11 4 9 5 5 5 2 3-3 4z"/><path class="s3" d="M6629 4325h-8-12l-13-2-13-3-13-4-12-4-8-5-6-4-2-4 2-3 6-2 9-1m11 1m13 2m14 3m13 4m11 4m9 4 5 5 2 4-2 3-6 2"/><path class="s3" d="M6450 4280l9 1 8 2 8 3 6 3 2 3-1 2-5 1h-7l-8-1-9-2-8-3-5-3-3-3 2-2 4-1z"/><path class="s3" d="M6425 4363l-9 1-12-1-13-2-14-3-12-4-11-5-9-5-4-4-2-4 3-3 6-2 9-1h12l13 2 13 4 13 4 11 4 8 5 5 5 1 4-2 3z"/><path class="s2" d="M3862 2287h3l12-3 9-3 7-4 3-4 1-4-2-5-6-4-9-4-11-4-14-3-15-3-16-1-17-1-16 1-15 1-14 2-12 3-9 3-6 4-3 5v4l4 5 6 4 9 4 11 3 5 1"/><path class="s3" d="M3838 2302l-1-1h1 1 1 1-2l6-2 3 1 2-1-3-1 4-2h3l1-1h-3v-2h4l-1-1h-3l-3-3h3l-2-1h-3l-5-2 2-1h-3-2l-8-1 1-1-3-1-1 1h-5l-5-1v-1h-3v1h-10l-1-1h-3l1 1-9 1-2-1-3 1 2 1-6 1h-3l-2 1h3l-4 2h-3l-1 1h4l-1 3h-3l1 1h3l3 2-3 1 2 1 3-1 5 2-2 1 3 1 2-1 8 2h-1l3 1 1-1 5 1h4v1h4v-1h9l1 1h4l-1-1 8-1z"/><path class="s3" d="M3859 2282v-14-1 14z"/><path class="s2" d="M3770 2267v15l1 5 3 5h3"/><path class="s2" d="M3579 2551l3-1h1l-1-1-2-2h-4l-4-1-6-1-7-1-7-1h-9-8-7-8l-6 1-6 1-4 1-2 1h-1l1 2 2 1"/><path class="s2" d="M3479 2643v-1-1l-3-1-2-1h-4-4-6l-6-1h-6-5-6-6l-4 1h-4-2-3v1l1 1"/><path class="s2" d="M3427 2692h1v-1h-1l-3-1h-3l-4-1h-5-4-6-5-4-5-4-3l-2 1h-2v1h1l2 1"/><path class="s2" d="M3561 2472l4 1 4 1h5l7 1 50 2h6 6 5l5-1h3l2-1 16-15-1-2-2-1-5-1h-6-5l-54-4h-7-6l-6 1h-4"/><path class="s2" d="M5917 2093 4004 1884"/><path class="s2" d="M4402 2780l-10 448"/><path class="s2" d="M4495 2766l-14 475"/><path class="s3" d="M4495 2746l-93 14-1 15 93-14z"/><path class="s2" d="M7085 5339 5574 4435"/><path class="s2" d="M7263 5339 6013 4623"/><path class="s2" d="M6348 4877l50-12-9 46"/><path class="s2" d="M6456 4942l50-12-9 46"/><path class="s2" d="M6163 4777l59-14-7 45"/><path class="s2" d="M6126 4742l12-21-51 12"/><path class="s2" d="M6122 4753l59-14-5 28"/><path class="s2" d="M6124 4719l-48-37"/><path class="s2" d="M6070 4674l-8 2 5 7 1 10 1 1v1l-1 1-27 6h-1l-1-1-1-1-1-1-11-7-4-7-8 1 5 7"/><path class="s2" d="M5906 4560l25 4 18 11 4 20-6 41 21 27 14 8 2-3 27 20 8 3"/><path class="s2" d="M5906 4560l57-12 25 4 18 9 8 21-3 17-5 29 2 6 3 7 27 10 20 16 12 7"/><path class="s2" d="M5906 4560l23 17 7 13-6 39"/><path class="s2" d="M5879 4607l5-38-55 10"/><path class="s2" d="M5851 4548l-2 20"/><path class="s2" d="M5851 4548l-54 11"/><path class="s2" d="M5899 4558l-325-186"/><path class="s2" d="M5634 4462l51-10-5 37"/><path class="s2" d="M5578 4426l47-8-4 34"/><path class="s2" d="M5440 4292l20 2 10 6 8 18-4 28 1 14 3 4 18 14 16 10 14 2 10 10 25-4 1-11-1-7-17-14-15-9-4-13v-5l3-27-8-18-13-7-17-1-50 8 2 4 15 8 4 4-2 27-1 12"/><path class="s2" d="M5435 4291l-75-43"/><path class="s2" d="M5410 4342 4216 3625"/><path class="s2" d="M5459 4317l-6-7-6-5-6-1-47 8 6 1 6 4 5 7 4 9-4-9-5-7-6-4-6-1-4 1 6 1 6 4 5 7 4 8-4-8-5-7-6-4-6-1v1l5 1 6 4 5 7 1 2"/><path class="s2" d="M5278 4198l16 2 10 6 6 17-2 24-1 10 8 15 9 3 16 10h10l13 12 22-4 1-10-23-24-7-10-1-9 3-24-10-18-6-5-17-1-47 6v4l1 1 14 8 3 7-2 22"/><path class="s2" d="M5279 4211l5 1 5 4 5 6-5-6-5-4-5-1-40 7 5 4 5 6 3 8-3-8-5-6-5-4"/><path class="s2" d="M5273 4198l-904-517"/><path class="s2" d="M5119 4157l7-1 4-3 2-5 1-6-1-8-2-7-4-6-5-3h-4l-38 6 5 3 4 6 2 7-2-7-4-6-5-3"/><path class="s2" d="M4994 4081h5l4-3 2-4 1-7-1-7-2-6-4-5-4-3-4-1-36 5 4 3 4 6 2 6-2-6-4-6-4-3"/><path class="s2" d="M4882 4015h6l3-3 2-4 1-6-1-7-2-6-3-5-4-2h-3l-35 4 4 3 3 4 2 7-2-7-3-4-4-3"/><path class="s2" d="M4815 3963v3l1 3 1 3 1 1 2 1h1l2-1v-1l1-2v-2-2-2l-1-3-2-2-1-1-1-1h-2l-1 1"/><path class="s2" d="M48e2 3959l1-1 1-2v-3l-1-3-1-2h-1-1l-1 1v2"/><path class="s2" d="M4797 3968l-1-3-1-2-1-2-2-1 1 1 2 1h-1l1 1 1 2 1 2"/><path class="s2" d="M4782 3952l3-2 2-5v-5-7l-2-5-3-5-3-2h-3l-33 4 3 2 3 5 1 5-1-5-3-5-3-2"/><path class="s2" d="M4690 39e2h5l2-2 2-4v-6l-1-6-1-5-3-4-2-2h-3l-32 3 3 2 2 4 2 6-2-6-2-4-3-2"/><path class="s2" d="M4608 3851h3l2-3 2-4v-5-5l-2-5-2-4-3-2h-2l-33 3h2l3 2 2 4"/><path class="s2" d="M4529 3804h3l2-2 1-4 1-5-1-5-1-5-2-4-2-1-32 2 2 2 2 4"/><path class="s2" d="M4469 3768h3l2-2 1-4v-5-5l-2-4-1-3-2-2-31 3 2 1 2 4 1 4"/><path class="s2" d="M4402 3729l3-1 2-2 1-3v-5l-1-4-1-5-1-3-2-1-29 2 2 1 1 4 1 4"/><path class="s2" d="M4375 3667v-2l-2-1-2-1-1-3h-3l-1-2-2-1h-3l-8 1h-4l-2 3-1 8v4 6l-3 5-3 2-4 1 2 2h-4"/><path class="s2" d="M4375 3667l-3 2-5 2-2 1-1 13 3 2 1 2 1 6 5 5"/><path class="s2" d="M4328 3641v-2l-2-1-2-1-1-3h-3l-1-2-2-1h-3l-8 1h-4l-2 3-1 8v4 6l-3 5-3 2-4 1 2 2h-4"/><path class="s2" d="M4328 3641l-3 2-5 2-2 1-1 13 3 2 1 2 1 6 5 5"/><path class="s2" d="M4342 3675l-20 2 2 1 2 3"/><path class="s2" d="M4232 3618v-4l-1-4v-3l-2-3-1-1 1 1 1 2 1 4 1 4-1 4 1-4-1-4-1-4-1-2-1-1h-2l1 1 1 2 1 4 1 4-1 4 1-4-1-4-1-4-1-2-1-1-26 1 1 2 2 2 1 4-1-4-2-2-1-2-2 1 1 1 2 2v4-4l-2-2-1-1h-1-1v1l2-1 1 1 1 3"/><path class="s2" d="M4245 3615h8l-199-114"/><path class="s2" d="M4209 3649l-324-204-13 1"/><path class="s2" d="M4024 3503v-16-3l-4-1 1-2 2-2 23-1 2 1v3l2 6-4 1v11l1 3 2 2 3-1 5 5"/><path class="s2" d="M4169 3596l-430-258"/><path class="s2" d="M3948 3456l3-3v-10l-3-2 2-8h10l3 5 2-1 2 2-2 1-2 1-2 1v10l3 1 1 2v4"/><path class="s2" d="M3925 3442l4-2v-10l-4-3 3-6h11l1 2 2 2 2 1-1 2-2 2h-2v8l2 2 2 1v5"/><path class="s2" d="M4020 3481l-54-31"/><path class="s2" d="M3922 3425l-41-23"/><path class="s2" d="M3850 3384l-84-48"/><path class="s2" d="M3856 3403v-15l-3-2 2-2 15-1 5-1 2 2h-2l1 5v9l2 2v1l2 5-3 4"/><path class="s2" d="M3637 3348l87-3 15 9"/><path class="s2" d="M3769 3447l110-5-155-97h-9"/><path class="s2" d="M3739 3332v-14l24-3-2 17"/><path class="s2" d="M3881 3327l2-14h22l-1 14"/><path class="s2" d="M3783 3343l82-3 19 9"/><path class="s2" d="M3971 3437l81-3-187-94h-14"/><path class="s2" d="M5366 4443l-20-14-1-1v-2l2-1 49-8"/><path class="s2" d="M5479 4458l96 61 2 1v2l-2 1-62 11h-3-4l-4-2-72-48"/><path class="s2" d="M5402 4390l55-10 7 5 3 9 6 13 12 8 2 3v2l-2 2-39 8v-1l-18-13-19-21-7-5-1 15 1 4-2 23-1 9 3 12 18 12 7 6 2 3 25 17 25 14 23-3 6-15-3-4-16-13-4-3-12-14-4-14v-6-4"/><path class="s2" d="M5446 4430l-25-10-5-4-1 28-2 6 2 9"/><path class="s2" d="M57e2 4759l-8 2 5 7 1 10 1 1v1l-1 1-28 6h-1l-1-1-1-1-1-1-11-7-4-7-9 1 5 7"/><path class="s2" d="M5537 4634l26 4 18 11 4 21-6 42 22 28 5 10 11 7 22 19 8 2"/><path class="s2" d="M5537 4634l59-12 25 4 19 9 8 22-3 17-5 30 2 6 3 8 20 11 21 16 12 8"/><path class="s2" d="M5537 4634l23 18 8 13-6 40"/><path class="s2" d="M5780 4805l3 2v3l-3 1-71 16h-4l-4-1-5-2-198-143-2-2v-2l3-1 36-8"/><path class="s2" d="M5676 4733l75 52"/><path class="s2" d="M5397 4398l-287 48"/><path class="s2" d="M6077 4539l88 47 3 2v1l-2 1-59 13h-4l-4-1-4-2-95-52"/><path class="s2" d="M5919 4504l-27-15-3-2v-2h2l18-4"/><path class="s2" d="M5948 4474h3l4 1 4 1"/><path class="s3" d="M6015 4440l15 13 29 22v6l-37 8-26-11-23-23-10-6z"/><path class="s2" d="M5963 4449l-5 45-5 17"/><path class="s2" d="M6022 4489l-39-12-4 28"/><path class="s2" d="M6032 4491l2 20 12 15 24 18-4 19-22-3-21-7-21-13-19-13-30-16"/><path class="s2" d="M5988 4540l-4-2-54-30-7-2"/><path class="s2" d="M5828 4323 4462 3639l-140 10"/><path class="s2" d="M4448 3632l-389-195h-5"/><path class="s2" d="M7299 4903l-808-375"/><path class="s2" d="M6142 4367l271 125"/><path class="s2" d="M6013 4303l-57-26"/><path class="s2" d="M5887 4245l-121-56"/><path class="s2" d="M57e2 4159l-160-74-19-9h-1l-25-20-169-78-46-13-1-1-15-7-263-121"/><path class="s2" d="M4984 3828l-113-52-9-5h-1l-10-10-91-42-29-8h-1l-8-4-93-43"/><path class="s2" d="M4547 3626l-57-27-7 1 10 5"/><path class="s2" d="M4602 3651l-29-13"/><path class="s2" d="M4481 3599l6-1h-1l-4-7-57-26-20-5h-1l-5-2-147-68"/><path class="s2" d="M4218 3470l-11-5-15-3h-1l-3-2-38-18"/><path class="s2" d="M4103 3421l-3-2v-3l-30-14-13-2v-1l-3-1-7-3"/><path class="s2" d="M4018 3381l-45-20-2-1 1-3-23-10-11-2-2-1-29-14"/><path class="s2" d="M3927 3337l85-3 220 91-14 1"/><path class="s2" d="M4152 3433l90-5 452 187-110 7"/><path class="s2" d="M4708 3621l1544 637-14 2"/><path class="s2" d="M6047 4292l-45 4"/><path class="s2" d="M6438 4270h-3l-4-1-3-1h-1-4l1 2h-3l-199 1"/><path class="s2" d="M6967 4801l52-14-8 34"/><path class="s2" d="M6852 4746l50-13-7 33"/><path class="s2" d="M6664 4657l50-12-7 31"/><path class="s2" d="M7299 4964l-334-160-5-3-15-7-5-2-91-44-4-2-14-7-6-2-165-78-3-3-13-6-5-2-24-11-3-2-12-6-5-2-301-144-3-1-10-5-4-2-19-9-3-2-10-4-4-2-166-79-2-2-9-4-3-1-51-24-2-2-9-4-3-1-4-2-4 1 31 14"/><path class="s2" d="M6619 4635l49-11-5 25"/><path class="s2" d="M6612 4631h2l13-20-42 9"/><path class="s2" d="M6384 4465l53-11 18 2 22 4 16 24-3 16-6 28 2 14 20 6"/><path class="s2" d="M6384 4465l32 3 23 20-1 8-7 39"/><path class="s2" d="M6384 4466l28 13 7 12-6 38"/><path class="s2" d="M6578 4616l12-2-37-45-6 1 5 7 2 9 1 1v1h-1l-24 6-1-1-1-1-1-1-11-6-5-7-7 1 3 3"/><path class="s2" d="M6299 4482l46-9-4 28"/><path class="s2" d="M6306 4474l3-18-47 9"/><path class="s2" d="M6467 4422l163 71 9 5 5 4v4l-4 3-62 13-9 1-13-2-13-3-12-5-34-16"/><path class="s2" d="M6408 4457l-340-154-7-4-3-3 1-3 5-2 56-10h8l10 1 11 2"/><path class="s3" d="M6446 4359l-47 9 11 6 19 12 32 17 35-6-2-6-25-12-7-7-5-8z"/><path class="s2" d="M6399 4368l-6 44-2 21"/><path class="s2" d="M6461 4403l-40-10-5 27-2 11 12 8"/><path class="s2" d="M6463 4412l2 15 3 4 18 14 21 15 12 4 3 12-23 5"/><path class="s2" d="M6368 4421l-36-16-2-2-1-1 2-1 15-3"/><path class="s3" d="M6219 4298l5-1 104 45m45 19-5 1 19 8 5 3 2 2v2l-3 2-37 7h-6l-7-1-7-2-7-2-19-8-5 1-82-36"/><path class="s3" d="M62e2 4257l-44 7 10 5 44 27 31-6 2-4-11-6-19-13z"/><path class="s2" d="M6156 4264l-3 14-4 37v9"/><path class="s2" d="M6210 4296l-32-9h-3l-6 31 5 13 10 9"/><path class="s2" d="M6215 4304v10l5 8 5 11"/><path class="s2" d="M6081 4378l44-8-4 25"/><path class="s2" d="M6056 4364l3-25-44 8"/><path class="s2" d="M6126 4363l12-2-104-48"/><path class="s2" d="M6013 4334l6-32h6l4 2 1 1-1 12-3 16"/><path class="s2" d="M5868 4224l45-7 22 2 11 5 9 18-3 25v9l4 8 15 9 19 11 4 7v11l-21 4-12-8 2-8-4-8-7-4h-5l-5 6h-8l-8 3-16-15-5-12 1-5 4-25-8-18-14-7-20-1-1 3 2 2 18 8 4 8-3 21-1 12"/><path class="s2" d="M5917 4247v2 3l-1 4h3 1v1 1l-3 20 22-4 3-20 1-1v-1h3l1-5 1-3v-2h-2"/><path class="s2" d="M5923 4232l-1 8v1 1h-1-3l-1 5 31-5 1-5-4 1v-1-1l1-7-8 1"/><path class="s2" d="M5675 4154l12 4 5 6 3 7 1 8-1 7-4 5 4-5 1-7-1-8-3-7-5-6-12-4-35 6 6 4 5 5 3 8-3-8-5-5-6-4"/><path class="s2" d="M5875 4278l4-5 2-7-1-9-4-8-6-6-7-4-7-1-35 8 7 4 5 6 4 8-4-8-5-6-7-4"/><path class="s2" d="M5685 4140l43-6 18 1 11 5 7 16-3 23 2 13 2 4 14 12 16 8 3 13-21 3-3-1-4-6 1-6-7-10-7-2-4 2-1 5 4 5-6 1-16-7-8-4-5-7-4-11 1-5 3-24-7-15-11-6-18-1v4h1l19 10v5-1l-4 31v1l1 8"/><path class="s2" d="M5728 4160v2 3l-1 4h3 1v1l-3 19 22-3 2-19v-1h1v-1h3v-4l1-3 1-2h-2"/><path class="s2" d="M5734 4146l-1 8-1 1-4 1v4l30-4"/><path class="s2" d="M5575 4140l5-2 4-5 1-7-1-7-3-7-5-6-5-3h-6l-39 5 5 1 6 3 4 5 3 7-3-7-4-5-6-3-5-1"/><path class="s2" d="M6054 4376l11-2-656-314-8 1h-3-4l-3-1-89-43-15-7-32-16-1-1 2-1 8-1-477-228-7 1h-2l-2-1h-2l-48-23-8-4-17-9h-1l1-1h1 6l-258-124-6 1 39 18"/><path class="s2" d="M5435 4059l-108-51"/><path class="s2" d="M5310 4017v2l7-1 3-34-7 1-1 7"/><path class="s2" d="M5275 4001l7-1 4-2 2-5 1-6-1-6-2-6-4-5-4-3h-4l-28 7 4 5-4-5"/><path class="s2" d="M5227 3970l3-5 1-5-1-7-2-6-4-4-4-2h-4l-31 4 4 2 3 4 3 6-3-6-3-4-4-2"/><path class="s2" d="M5108 3917l3-2 2-5 1-5-1-6-2-6-3-4-3-2h-4l-30 4 4 2 3 4 2 5-2-5-3-4-4-2"/><path class="s2" d="M4987 3832h-3l-32 4 3-1 3 2 3 4"/><path class="s2" d="M4905 3820l2-2 2-4 1-5-1-6-2-5-2-3-3-2h-3l-28 3 3 2 2 3 2 5-2-5-2-3-3-2"/><path class="s2" d="M4822 3770l-82-39"/><path class="s2" d="M4827 3760l-1 17"/><path class="s2" d="M4733 3725l-1-4-1-5-2-3-3-1-28 2 2 1 2 4 2 4"/><path class="s2" d="M4671 3708l2-2 2-3v-5l-1-4-1-5-2-3-2-1-28 2 3 2 2 3 1 4-1-4-2-3-3-2"/><path class="s2" d="M4991 3848l2-21"/><path class="s2" d="M4595 3667l10-4 1-4v-14l4-6 14-1 2 1 10 8-3 2-9 6 1 12 1 3 2 7 7 3-3 5"/><path class="s2" d="M4542 3643l9-5v-4-14l6-6h8 5l7 6v4l-9 5v12l-1 3 5 5 2 2 2 3 3 6"/><path class="s2" d="M4503 3625l1-3v-4-4l-1-4-2-3-2-1-25 2 2 1 2 3 1 3-1-3-2-3-2-1"/><path class="s2" d="M4418 3596l22 5 1 1 7-1-18-8h-5-2-1-1l-30-15-5-2-11-5v-1h2l4-1-178-85-4 1h-2l-1-1h-1l-20-10-4-1-7-4 1-1h5l-108-51h-4-1-2l-6-3-3-2-15-7h1"/><path class="s2" d="M4451 3585l-17-10h3l-2-1h-11v1h-1-7-1-4v1h-1-8-1-1"/><path class="s2" d="M4399 3560l2 1 1 2 1 4-1-4-1-2-2-1-23 1 1 1 2 3v3-3l-2-3-1-1"/><path class="s2" d="M4360 3557l1-3v-3-4l-1-3-1-3-1-1-23 2 1 1 1 2-1-2-1-1"/><path class="s2" d="M4470 3594l-7-3v9"/><path class="s2" d="M4312 3536l1-1 1-3v-4-3l-1-3-1-2-1-1-22 1 1 1 1 2 1 3-1-3-1-2-1-1"/><path class="s2" d="M4274 3516l1-3v-3l-1-4v-3l-1-2h-2l-21 1 1 1 1 2-1-2-1-1"/><path class="s2" d="M4224 3490l1-5v-11l-5-2 1-2 3-1h7l11-1 7 1v1 1l3 5v2h-1-3l-1 11v1l3 6 1 4"/><path class="s2" d="M4217 3475l-5-3h2l-1-1-9 1h-1-7-3-1v1h-7-1-1"/><path class="s2" d="M4129 3445l4-3v-13l1-2 1-2 8-1 3 1 2 4 4 1-2 1-3 1v2h-2v8l2 2 2 2v4"/><path class="s2" d="M4101 3434l5-3 2-2 1-7-2-4 2-5 1 1 9-1 2 4h4v2l-4 1v2h-2v9l3 2 1 5"/><path class="s2" d="M4023 3397l-1-3v-4l1-7-3-3 1-4 1 1 18-1 3 1v5 2h-3v9l3-1 1 4h-3l1 3 1 3"/><path class="s2" d="M4069 3414h9v-1"/><path class="s2" d="M4064 3412l-1-1h-1l-8-2"/><path class="s2" d="M4090 3414l-10 1"/><path class="s2" d="M4057 3404h-1-10"/><path class="s2" d="M3950 3351l1-1h-8v1h-5-1-2-1-5-1-1-7l1 1h1l4 3"/><path class="s2" d="M3953 3359l-1-2v-1l-1-1h-9v1l1 1 1 2"/><path class="s2" d="M4030 3402l-92-44h-3-1-1-1l-11-6-2-1-5-2h1 1l3-1-41-19"/><path class="s2" d="M3877 3330v11"/><path class="s2" d="M3911 3351v8"/><path class="s2" d="M3934 3362v9"/><path class="s2" d="M4057 3422v10"/><path class="s2" d="M4159 3471v6"/><path class="s2" d="M4198 3502v-11-2"/><path class="s2" d="M4434 3601v13 1 1l1 1 4 2 7 3v-5"/><path class="s2" d="M4690 3730l-1 10"/><path class="s2" d="M4784 3774l-2 1-1 16"/><path class="s2" d="M4792 3790l1-10"/><path class="s2" d="M5236 3995l-1 16"/><path class="s2" d="M5405 41e2l2-22 1-3"/><path class="s2" d="M5417 4099h1 1l1-14"/><path class="s2" d="M6723 4253l3-1v-2l-42-40"/><path class="s2" d="M6612 4187l-104-14-5-1-4 1-2 1"/><path class="s2" d="M6646 42e2l1-5 1-3-7-2-6-2-3-2-6-1h-4l-3 2h-1l-1 1"/><path class="s3" d="M6623 4217l2-10v-1-1h-1l-4-1-1-1v1h-1l-1 1-6 6v1h-1m-13-5m-12-4v-1l5-7 1-1-1-1-4-1h-1-1-1l-12 7m21 7"/><path class="s2" d="M6652 4212l-8 14v1"/><path class="s2" d="M7299 4535 6122 4093v2l-1 1"/><path class="s2" d="M7226 4439 5384 3779"/><path class="s2" d="M7151 4371l-5e2-174"/><path class="s2" d="M6421 4233l9 1 8 3 7 7 4 8 1 8-2 7 2-7-1-8-4-8-7-7-8-3-9-1-39 6 8 1 8 4 7 7 5 8-5-8-7-7-8-4-8-1"/><path class="s2" d="M7299 4564l-725-277-12 2h-3-4l-4-1-74-29-3 1 3 1v1l-1 1-38 7"/><path class="s2" d="M6410 4268v-2L4690 3587l99 39"/><path class="s2" d="M6214 4153l8 1 7 3 6 6 4 8 1 7-2 7-4 5 4-5 2-7-1-7-4-8-6-6-7-3-8-1-30 7 7 3 6 6 4 8-4-8-6-6-7-3"/><path class="s2" d="M5998 4098l4-5 2-6-1-8-4-6-5-6-6-3h-6l-30 5 6 3 5 6 3 7-3-7-5-6-6-3"/><path class="s2" d="M5799 4018l3-5 1-6-1-6-3-6-4-5-5-3h-6-2l-35 5h5l6 2 4 5"/><path class="s2" d="M5620 3949l3-4 1-6v-6l-3-6-4-4-5-2h-4l-29 3 5 3 3 3 1 1 3 6-3-6-4-4-5-3"/><path class="s2" d="M5466 3889l3-4 1-6-1-6-2-5-4-4-4-2h-4l-27 3 4 2 3 4 3 6-3-6-3-4-4-2"/><path class="s2" d="M5330 3835l2-4 1-5v-5l-2-5-4-4-3-2h-4l-26 3 3 2 3 4 2 5-2-5-3-4-3-2"/><path class="s2" d="M5215 3790l2-4v-5-5l-2-5-3-3-3-2h-3l-26 3 3 2 3 3 2 5-2-5-3-3-3-2"/><path class="s2" d="M5104 3747l1-3v-5-4l-1-4-3-2-2-2h-3l-21 3 3 1 2 3 2 4-2-4-2-3-3-1"/><path class="s2" d="M5004 3707l1-3v-4-4l-1-3-3-3-2-1h-2l-19 2 2 2 2 2 2 4-2-4-2-2-2-2"/><path class="s2" d="M4916 3674l1-3v-4-4l-1-3-2-3-3-1h-2l-19 2 2 2 3 2 1 4-1-4-3-2-2-2"/><path class="s2" d="M4842 3643l1-3v-3-3l-1-3-2-2-2-1h-2l-16 2 2 1 1 2 2 3-2-3-1-2-2-1"/><path class="s2" d="M4774 3617l1-2v-3-3l-1-4-2-2-2-1h-2l-16 2 2 1 2 2 1 3-1-3-2-2-2-1"/><path class="s2" d="M4708 3590l1-3v-3-3l-1-3-2-2-2-1h-2l-16 2 2 1 2 2 1 3-1-3-2-2-2-1"/><path class="s2" d="M4643 3563l1-2v-3-3l-1-3-2-1-2-1h-1l-15 1 2 1 1 2 2 3-2-3-1-2-2-1"/><path class="s2" d="M4585 3541l1-3v-2-3l-1-3-1-2-2-1h-2l-14 2 2 1 1 2 1 2-1-2-1-2-2-1"/><path class="s2" d="M4535 3522l1-3v-2-3l-1-3-2-2-1-1h-2l-15 2 2 1 2 2 1 2-1-2-2-2-2-1"/><path class="s2" d="M4489 3505l2-3v-2-3l-2-3-1-2-2-1h-2l-14 2 2 1 1 2 1 3-1-3-1-2-2-1"/><path class="s2" d="M4398 3469l1-2v-3-3l-1-3-2-1-1-1h-2l-14 1 1 1 2 2 1 3-1-3-2-2-1-1"/><path class="s2" d="M4356 3452l1-2v-3-2l-1-3-1-2-2-1h-1l-13 2 1 1 2 2 1 2-1-2-2-2-1-1"/><path class="s2" d="M4321 3439l1-2v-3-3l-1-2-2-2-1-1h-2l-13 2 1 1 2 1 1 3-1-3-2-1-1-1"/><path class="s2" d="M4287 3425l1-2v-3-3l-1-2-1-2-2-1h-1l-14 2 2 1 1 1 1 3-1-3-1-1-2-1"/><path class="s2" d="M4664 3576l-614-242v10"/><path class="s2" d="M5916 3967l34-14"/><path class="s2" d="M6055 3990l23 35"/><path class="s2" d="M5966 3984l13-9 24-1"/><path class="s2" d="M5516 3819l50 4"/><path class="s2" d="M5624 3857l31-3"/><path class="s3" d="M6108 4090l-797-3e2 798 301v-1z"/><path class="s2" d="M5312 3771l-1 19 351 132"/><path class="s2" d="M5304 3788l-1-1-867-326 479 181"/><path class="s3" d="M4090 3331l343 129-344-129z"/><path class="s2" d="M5384 3779 4101 3318"/><path class="s2" d="M6551 4164l-532-191-582-202-595-206"/><path class="s2" d="M5208 3711h30"/><path class="s2" d="M5293 3726l-1 13"/><path class="s2" d="M4977 3627l18-4"/><path class="s2" d="M5055 3643l-5 9"/><path class="s2" d="M4839 3565l-717-249"/><path class="s2" d="M4210 2799l-4 386 26 6v-8"/><path class="s2" d="M4232 3191l1460 294 110-949h-2"/><path class="s2" d="M4206 3184l-121 126"/><path class="s2" d="M5447 3769l44-44 43-46 41-46 40-48 40-50 38-50-1-1-38 51-31 40"/><path class="s2" d="M5692 3485l1607 324"/><path class="s2" d="M4014 2182l4 7 6 5 7 2 3e2-254"/><path class="s2" d="M4245 1934l-244 224 5 2"/><path class="s2" d="M2813 2765h-2-1-1l1 1 746 13h1-1-2l-43-1"/><path class="s2" d="M3426 2528l-885-31-152-6"/><path class="s2" d="M2774 2743l531 11-50-1 506 11 30 1"/><path class="s3" d="M3669 2326l151 9m4 2m3 3 4 14 9 8h11"/><path class="s2" d="M4035 2203l1234 75"/><path class="s2" d="M3814 2147l182 15 1-1 2-1"/><path class="s2" d="M3561 2779h-1-2-1l651 12h3-1-1l-58-1"/><path class="s2" d="M3915 2764l398 8"/><path class="s2" d="M4116 2713l489 12"/><path class="s2" d="M5176 2611l-534-20"/><path class="s2" d="M4609 2727h1v1h-1l471-75 1-1h-1v-1l-199 32"/><path class="s3" d="M4314 2776l-101 16 101-16z"/><path class="s2" d="M4317 2774h1l-1 1 287-46v-1l-215 34"/><path class="s2" d="M5090 2650v1l917-146v-1-1l-186 29"/><path class="s2" d="M5129 2465l892 34"/><path class="s2" d="M3932 2762l1605-449 1589-429"/><path class="s2" d="M5569 2324l955 70 54-9-32-3"/><path class="s2" d="M6027 2503l524-111-292 62"/><path class="s2" d="M6580 2387l719-120"/><path class="s2" d="M5205 2384l1760-5e2"/><path class="s2" d="M3879 2755l2595-764"/><path class="s3" d="M6140 2049l55 7h6m8-1m9-1m7-2m211-62m6-2m4-2v-2l-4-1-57-8"/><path class="s3" d="M6525 1990l1-1h2 2 1-1 1l1-1 17-3 1 1 7-1-2-1 16-4h3l6-1-3-1 12-4h5l4-2h-5l8-4 6-1 2-1h-6l2-3 6-1v-2l-6 1-4-2 6-2h-3l-6 1-4-1h-5l4-2h-5l-4 1-14 1 2-2h-6l-3 2-16 2v-2l-7 1v2l-18 3-1-1-7 1 2 1-16 4h-3l-6 1 3 1-12 4h-5l-3 2h4l-7 4h-6l-1 2 5-1-1 4-6 1v1l6-1 5 3-6 1 3 1 5-1h5l5 1-4 1h4l4-1h14l-3 1h7l2-2 16-1z"/><path class="s2" d="M6624 1950l14-5 22-7 17-8 12-8 7-7 1-6-6-5-12-4-17-3h-22"/><path class="s2" d="M6626 1946l213-62"/><path class="s2" d="M6488 1917 3788 2766l144-4"/><path class="s2" d="M1306 4174l59 48 65 50 64 49 13-11-63-48-14-10"/><path class="s2" d="M1397 4130l-7-5-10-2h-10l-18-1-18-5-15-9-13-11"/><path class="s2" d="M1393 4119l-10-11-5-14-4-9-8-9-10-7-13-3-17-6-14-9-6-5"/><path class="s2" d="M7299 4982l-9-4"/><path class="s2" d="M5909 4312l-334 56"/><path class="s2" d="M2671 2678l645 16"/><path class="s2" d="M1515 1884l187 127 2007 156 3 1"/><path class="s2" d="M3726 2168l15 1 34-4 19-12 19-5"/><path class="s2" d="M6204 2149l1032 80 54-9-32-3"/><path class="s2" d="M2746 3313l-67-637"/><path class="s2" d="M3476 27e2l409 8"/><path class="s2" d="M3864 2366l901 54"/><path class="s2" d="M4318 2566l-58-2-578-24-10-2"/><path class="s2" d="M5526 4450l790 490"/><path class="s2" d="M4642 5094l89-22"/><path class="s2" d="M3944 1885l-650 863"/><path class="s2" d="M4015 1891l-696 862"/><path class="s3" d="M4246 1926l-343 327m-62 59-453 434"/><path class="s2" d="M4326 1942l-915 811"/><path class="s2" d="M3581 2369c4 1 9 2 14 2 5 0 10-1 15-3 6-1 12-2 17-5 4-2 8-5 11-8"/><path class="s2" d="M3454 2534c13 1 26 2 36-3 4-3 8-7 12-11"/><path class="s2" d="M3647 2504l1 7 4 9 5 6 4 4"/><path class="s2" d="M2578 3459c41 36 82 72 126 103 55 38 116 67 176 96"/><path class="s2" d="M2746 3309c27 23 54 47 82 68 38 28 78 52 119 75"/><path class="s2" d="M4596 2748l-21 511-49 63-62 78-22 25"/><path class="s2" d="M5070 2666l-54 684-62 103-75 121"/><path class="s2" d="M4402 3199l77 16"/><path class="s2" d="M6436 2436 6326 3612l-147 213-110 158"/><g><path class="s4" d="M4598 6438v283c0 9-2 17-7 25-4 7-11 14-18 18-8 5-16 7-25 7H4265c-9 0-17-3-25-7-7-4-14-11-18-18-5-8-7-16-7-25V6438c0-9 3-18 7-25 4-7 11-14 18-18 8-5 16-7 25-7h283c9 0 18 2 25 7 7 4 14 11 18 18 5 8 7 16 7 25" fill-rule="evenodd"/></g><path class="s5" d="M4265 6438h283v283H4265z"/><text x="4333" y="6654"><tspan class="f3 s6" font-size="206.944">A</tspan></text><g><path class="s4" d="M6267 5685c0 4 1 8 2 13 2 4 3 8 5 12 3 3 5 7 8 10l124 123v57c0 11 4 20 9 28 6 8 15 15 24 18 9 4 20 5 30 2l45-12c3-1 6-2 8-3 2-1 4-2 6-3 2-2 4-3 6-5l86-77c5-4 9-10 12-15 3-6 4-13 5-19 0-6-1-13-3-19l-86-246c-3-8-8-16-14-21-7-6-14-10-23-12-8-1-17-1-25 2l-20 5-74-56c-5-3-9-6-14-7-5-2-11-2-16-2-5 0-10 0-15 2l-43 11c-7 2-13 5-19 10-5 5-10 10-13 17-3 6-5 14-5 21v166" fill-rule="evenodd"/></g><path class="s4" d="M6838 6064H6439V5872h399z"/><path class="s7" d="M6456 5901l86-74m44-11-44 11-86-246 44-11 86 246-86 74-44 11v-78l-139-139V5519l139 140v-78m-5 17-90-90-44 11"/><text x="6500" y="6014"><tspan class="f2 s6" font-size="123.611">FWD</tspan></text><path class="s8" d="M3275 5345l-102 114 52 31z"/><path class="s2" d="M3075 5687l2e2-342"/><text x="3333" y="6244"><tspan class="f3 s6" font-size="123.611">FORWARD CARGO COMPARTMENT</tspan></text><text x="4084" y="6368"><tspan class="f3 s6" font-size="123.611">(AFT SIDE)</tspan></text><text x="2132" y="5824"><tspan class="f2 s6" font-size="123.611">INSPECTION AREA</tspan></text><text x="2132" y="5949"><tspan class="f2 s6" font-size="113.875">(ZONES 121, 122)</tspan></text><path class="s9" d="M1252 1881H7133l163 381V5352H2437l150-604"/><path class="s9" d="M2587 4748c-112-57-225-114-328-174-124-71-235-145-374-228-136-81-299-169-395-313"/><path class="s9" d="M1490 4033 1181 1876"/></svg>