<svg xmlns="http://www.w3.org/2000/svg" height="10in" viewBox="0 0 7777 10005" width="7.78in"><defs><style>.f1{font-family:Consolas,Courier New,monospace}.f2{font-family:Helvetica,Arial,sans-serif}.f3{font-family:Helvetica,Arial,sans-serif;font-weight:700}.f4{font-family:Times}.f5{font-family:Times;font-weight:700}.f6{font-family:Courier}.f7{font-family:Courier;font-weight:700}.f8{font-family:Symbol}.s12{fill:none;stroke:#fff;stroke-width:58}.s2{fill:#cff;stroke:#cff;stroke-width:8}.s4{fill:none;stroke:#000;stroke-width:8}.s6{fill:#fff}.s9{fill:none;stroke:#000;stroke-dasharray:120,40;stroke-width:20}.s5{fill:none;stroke:#f0f;stroke-width:10.005}.s1{fill:#ffc;stroke:#ffc;stroke-width:8}.s8{fill:#000}.s11{fill:none;stroke:#00f;stroke-width:20}.s14{fill:#000;stroke:#000;stroke-width:8}.s13{fill:none;stroke:#000;stroke-dasharray:125,25,50,25,125,0;stroke-width:10.005}.s7{fill:none;stroke:#00f;stroke-width:12}.s10{fill:#fff;stroke-dasharray:120,40}.s3{fill:none;stroke:#000;stroke-width:10.005}</style></defs><path class="s1" d="M6522 2981l638 455L2099 5747l-625-441 590-273 32-14 75-29 329-144 779-362 1168-539 1212-562z"/><path class="s2" d="M1484 3781l623 438L7159 1919l-639-449z"/><path class="s1" d="M1484 3781 6520 1470l639 449L2107 4219l-623-438-337 2 237 161 219 148 113 74 109 70 104 74 201 133 203-102 214-101 171-84 308-152 279-137 359-174 318-152 258-128 299-142 492-232 560-260 502-231 553-256 541-255 221-107-322-241-281-2e2-242-178-128 55-358 158-401 180-466 217-468 220-403 183-392 178-252 116-201 97-223 94-3e2 138-318 146-329 155-299 135-291 126-263 121-175 82-149 71z"/><path class="s3" d="M1927 3797l2-2"/><path class="s3" d="M1927 3797a14 7 2.720166015502754 1 0 28 2"/><ellipse class="s4" cx="1941" cy="3798" rx="14" ry="7" transform="rotate(2.720166015502754 1941.0,3798.0)"/><path class="s3" d="M2168 3657l21-10"/><path class="s3" d="M2189 3647l62 43"/><path class="s3" d="M2189 3647l21 15 20 15 21 13"/><path class="s3" d="M2251 3690l-440 203"/><path class="s3" d="M1992 3739l-224 102"/><path class="s3" d="M2119 3596l66 47 70 50 70 47 35 22"/><path class="s3" d="M2118 3593l-24-18"/><path class="s3" d="M1927 3797l2-2"/><path class="s3" d="M1927 3797a14 7 2.720166015502754 1 0 28 2"/><path class="s3" d="M4004 2826 3632 3e3"/><path class="s3" d="M2455 3821l-75-52"/><path class="s3" d="M2542 3945l-3 35"/><path class="s4" d="M5681 1915 4561 2433m-1e2 46-1075 498m-92 43-790 365"/><path class="s4" d="M2499 3387l-227 105m-84 40-201 93h-3l-37-27"/><path class="s3" d="M4476 2448 3308 2984"/><path class="s3" d="M3277 2966l27 19"/><path class="s3" d="M3304 2985 2196 3490"/><path class="s3" d="M2169 3470l27 20"/><path class="s3" d="M2537 3395l2-5"/><path class="s3" d="M2536 3397l2-3"/><path class="s3" d="M2534 3399h-1l-2 1"/><path class="s3" d="M2524 3401l-4-2-4-1"/><path class="s3" d="M2520 3399l-7-3"/><path class="s3" d="M2506 3392l8 4 6 3 4 2h4 2l1-1 3-1 1-1 1-1 2-3 1-4 2-6 1-9 1-7"/><path class="s3" d="M2128 36e2l-7-4"/><path class="s3" d="M2220 3553l-10 12-80 38"/><path class="s3" d="M2130 3603l-12-10"/><path class="s3" d="M2118 3593l1-22v-2l-2-2-1-2"/><path class="s3" d="M2250 3713l-18-13"/><path class="s3" d="M2258 3724a29 16 4.106390094642943 0 0-7-12"/><path class="s3" d="M2257 3727v-2"/><path class="s3" d="M2248 3739a28 16 4.332067716554034 0 0 10-11"/><path class="s3" d="M21e2 3796l70-33 12-4 13-3 7-1h5l6-1 4-2 30-13"/><path class="s3" d="M2072 3792a20 12 6.240420695878494 0 0 28 3"/><path class="s3" d="M2064 3788l8 5"/><path class="s3" d="M2232 3709l-12 10-149 69h-12l-4-2"/><path class="s3" d="M3291 3430l-10 24"/><path class="s3" d="M3298 3465l6 2"/><path class="s3" d="M3298 3466l-17-12-13-2"/><path class="s3" d="M3138 3209l15-6"/><path class="s3" d="M3154 3181l-1 22"/><path class="s3" d="M3135 3192l18 11"/><path class="s3" d="M3120 3157l1-12"/><path class="s3" d="M3120 3157a25 15-113.67385501589598 0 0 14 33"/><path class="s3" d="M3086 3158l-17-11"/><path class="s3" d="M3071 3122v2l-2 23"/><path class="s3" d="M3069 3147l-14 6"/><path class="s3" d="M3473 3407l-1 21"/><path class="s3" d="M3454 3416l18 12"/><path class="s3" d="M3439 3381l1-11"/><path class="s3" d="M3439 3382a25 15-113.67385501589598 0 0 14 33"/><path class="s3" d="M3392 3390l5 2h5l19-9 2-4 2-6"/><path class="s3" d="M3391 3390l-17-12"/><path class="s3" d="M3410 3341l-1-1-5-3-6-1-17 9-4 4-1 7-2 22"/><path class="s3" d="M2981 3223l-7 17"/><path class="s3" d="M2950 3192a27 20-88.78167587659493 0 0 9 36"/><path class="s3" d="M2956 3179l-7 13"/><path class="s3" d="M3068 3216l166 118"/><path class="s3" d="M3223 3340l-5 1h-7l-5-4-166-116"/><path class="s3" d="M3659 3017l-42-28-12-10-2-2"/><path class="s3" d="M3658 3018a121 70 4.338399818709963 0 0 170 15"/><path class="s3" d="M4067 2922l-14 7-224 105"/><path class="s3" d="M3311 3362a49 28 3.2208000496675164 0 0-76-13"/><path class="s3" d="M3202 3366l32-16"/><path class="s3" d="M3201 3365a49 29 3.265096640821589 0 0 17 51"/><path class="s3" d="M2821 3502l123-58"/><path class="s3" d="M2956 3434a38 19-40.708189259943026 0 0 25-33"/><path class="s3" d="M2823 3288h-14l-19 2-18 2-15 5"/><path class="s3" d="M2687 3327l-141 65"/><path class="s3" d="M2528 3401l-12 6-13 7-3 2"/><path class="s3" d="M2476 3452l2-8"/><path class="s3" d="M2475 3452a120 69 5.669972987736241 0 0 31 53"/><path class="s3" d="M2586 3553l-9-3-15-8-14-8-42-29"/><path class="s3" d="M2458 3803l-60-42"/><path class="s3" d="M2343 3721l-94-65"/><path class="s4" d="M38e2 3255v8 2 4l4 11m2 4m1 4m8 20m1 2m4 0m3 0m4-2m3-2m3-5m3-2m4-11 9-19v-5l10-22 1-4 1-4v-3"/><path class="s3" d="M3822 3156l-4-1-4-3-2-1-2-4-2-3-52-36-3-1-2 1-2 2-3 23 1 4 3 6 3 2 33 24"/><path class="s3" d="M3745 31e2l-3-3-111-79-3-1-3 1-1 4-1 26v3l1 5 4 3 110 78"/><path class="s3" d="M3587 2987l30 22 4 4 2 3"/><path class="s3" d="M3619 3050h-2-3l-63-47"/><path class="s3" d="M3554 2963l-14-10"/><path class="s3" d="M3729 3183l-213-151"/><path class="s3" d="M3466 2997l-7-4"/><path class="s3" d="M3433 2955v1l-1 22"/><path class="s3" d="M3448 2991l-16-13"/><path class="s3" d="M3448 2990l7 3h4"/><path class="s3" d="M3421 3004l13-7 14-6"/><path class="s3" d="M3501 3042l14-6"/><path class="s3" d="M3516 3014l-1 22"/><path class="s3" d="M3497 3023l-14 7"/><path class="s3" d="M3501 3042l-18-12"/><path class="s3" d="M3497 3023l-14 6"/><path class="s3" d="M3469 2996a25 15-113.67385501589598 0 0 14 33"/><path class="s3" d="M3568 2936l15-7"/><path class="s3" d="M3568 2936l-16-13"/><path class="s3" d="M3553 29e2v1l-1 22"/><path class="s3" d="M3634 2980l15-6"/><path class="s3" d="M3650 2952l-1 22"/><path class="s3" d="M3634 2980l-17-13"/><path class="s3" d="M3601 2934l2-13"/><path class="s3" d="M3602 2933a25 15-113.67385501589598 0 0 14 33"/><path class="s3" d="M3726 2863l-17-13"/><path class="s3" d="M3711 2826v2l-2 22"/><path class="s3" d="M3772 2843l-2 1"/><path class="s3" d="M3792 2907l14-6"/><path class="s3" d="M3808 2879l-2 22"/><path class="s3" d="M3792 2907l-17-12"/><path class="s3" d="M3762 2847h-2"/><path class="s3" d="M3759 2860l1-13"/><path class="s3" d="M3761 2860a25 15-113.67385501589598 0 0 14 33"/><path class="s3" d="M3820 3266l13-6"/><path class="s3" d="M3820 3266l-18-12"/><path class="s3" d="M3790 3207h-2"/><path class="s3" d="M3787 3220l1-13"/><path class="s3" d="M3787 3221a25 15-113.67385501589598 0 0 14 33"/><path class="s3" d="M3747 3176l10-5"/><path class="s3" d="M3754 3222l13-6"/><path class="s3" d="M3754 3222l-17-13"/><path class="s3" d="M3773 3172h-1l-6-3h-5l-18 9-3 3-1 6-2 22"/><path class="s3" d="M3486 3427l-28 13-4 1-3-1-4-3-7-9"/><path class="s3" d="M3485 3426a15 8-57.67308797097334 0 0 12-18"/><path class="s3" d="M3409 3330l-20-15-3-3-2-4v-4l2-26 1-2 3-2 4 2 52 36 4 3"/><path class="s3" d="M3384 3272l-2-4-2-4-112-78-2-1"/><path class="s3" d="M3381 3308l-2 1-4-1-111-79-3-2"/><path class="s3" d="M3230 3159l24 18 4 3 1 4 1 4-2 28-3 4"/><path class="s3" d="M3255 3220l-1 1-4-1-67-49"/><path class="s3" d="M3375 3357l-222-157"/><path class="s3" d="M2712 3452v-2"/><path class="s3" d="M2719 3395v-1l-18-13"/><path class="s3" d="M2701 3381l-14 8"/><path class="s3" d="M2687 3389l-2 20"/><path class="s3" d="M2687 3410a25 15-113.67385501589598 0 0 14 33"/><path class="s3" d="M2712 3450l-11-7"/><path class="s3" d="M2679 3467l14-6"/><path class="s3" d="M2679 3467l-2 22"/><path class="s3" d="M2688 3497l-11-8"/><path class="s3" d="M3072 3695l-38 27-42 20"/><path class="s3" d="M3034 3714l-2-1-1-1-2-1-13-11-11-1-36 17"/><path class="s3" d="M2969 3716l-1 12"/><path class="s3" d="M2992 3742l-10-3-14-11"/><path class="s3" d="M2968 3722v6"/><path class="s3" d="M3034 3714l-2-1-1-1-2-1-13-11-11-1-36 17"/><path class="s3" d="M2969 3716l-1 12"/><path class="s3" d="M3331 3412h-4l-11-1-3-2"/><path class="s3" d="M3315 3373l-10 25"/><path class="s3" d="M3323 3411l-13-2-18-12"/><path class="s3" d="M2885 3553v7 3"/><path class="s3" d="M2885 3555v7 1 2l-1 8"/><path class="s3" d="M2885 3571l-3 9"/><path class="s3" d="M2885 3568v3l-1 2-2 7"/><path class="s3" d="M2878 3532l-3-5-4-2"/><path class="s3" d="M2850 3622a87 55-36.852034185813274 0 0 28-34"/><path class="s3" d="M2883 3576v1l-1 3-4 6"/><path class="s3" d="M2814 3503l-9-1-8-1h-12l-12-1h-19"/><path class="s3" d="M2748 3501l-11 1"/><path class="s3" d="M2751 3501l-21 1"/><path class="s3" d="M2768 35e2h5"/><path class="s3" d="M2688 3506l-26 7-21 7-13 6"/><path class="s3" d="M2550 3605l-1 3"/><path class="s3" d="M2565 3574l-3 6-7 11-4 9-1 5-2 7v2l-2 8 2 8 1 3v2"/><path class="s3" d="M2845 3619a1e2 59-27.832861227105536 0 0 15-63"/><path class="s3" d="M2777 3568l-11-3-12-2"/><path class="s3" d="M2725 3522l15-1"/><path class="s3" d="M2725 3522l-19 3-14 1"/><path class="s3" d="M2634 3580l1-1"/><path class="s3" d="M2605 3561l-10 7-1 1"/><path class="s3" d="M2605 3561l7-6 9-5"/><path class="s3" d="M2614 3555a351 164 16.716717396256602 0 0-29 23"/><path class="s3" d="M2773 3521l18 2"/><path class="s3" d="M2568 3613a37 28-124.73373760701752 0 0 14 35"/><path class="s3" d="M2844 3622l-8 10-7 6"/><path class="s3" d="M2647 3539l24-9 9-2 10-2h10l11-3 11-1 12-1h12l11-1 12 1"/><path class="s3" d="M2587 3577a102 66-14.599467430224175 0 0-18 45"/><path class="s3" d="M2627 3526l-13 8-16 12-11 7-11 10-9 10"/><path class="s3" d="M2885 3565v2 1"/><path class="s3" d="M2885 3567v-3"/><path class="s3" d="M2882 3541a1099 209-22.10922507517637 0 0-59-37"/><path class="s3" d="M2885 3563v-1"/><path class="s3" d="M2629 3580a80 55-22.17378338626597 0 0-28 89"/><path class="s3" d="M2799 3577a106 45-2.0766669427697813 0 0-168 4"/><path class="s3" d="M2825 3608a85 58-12.270143047758475 0 0-28-32"/><path class="s3" d="M2804 3660a85 58-12.270143047758475 0 0 21-52"/><path class="s3" d="M2730 3638l60-30 1-1 2-1 4-3"/><path class="s3" d="M2730 3638v1 1"/><path class="s3" d="M2812 3629l-1 1-5 3-6 2-116 57-4 1-9 3h-6l-4-1-4-2"/><path class="s3" d="M2675 3580l-10 4-23 10-13 6-8 5"/><path class="s3" d="M2620 3681l2 1 7 4"/><path class="s3" d="M2778 3589l-3 1-6 3-3 1-143 70-10 4-3 1h-5-1"/><path class="s3" d="M2598 3643l1-1h7l5-2 11-5 98-47 15-9 3-1"/><path class="s3" d="M2743 3691l13-3 9-4 7-2 12-6 10-7 4-2 6-6"/><path class="s3" d="M2611 3676l6 4 5 2 3 1 3 1 8-1 11-3 57-29 2 2"/><path class="s3" d="M2730 3636v4"/><path class="s3" d="M2696 3641a21 12 5.767310326822357 0 0 28 2"/><path class="s3" d="M2696 3641h1 1"/><path class="s3" d="M2745 3497a48 24 0 0 0-75 11"/><path class="s3" d="M2697 3333l2-2 3-2"/><path class="s3" d="M27e2 3330l-3 3-4-3-28-18"/><path class="s3" d="M2711 3337l-2-1"/><path class="s3" d="M2754 3315l2 1"/><path class="s3" d="M2711 3337l45-21"/><path class="s3" d="M2737 3279v-2"/><path class="s3" d="M2737 3279l17 11 1 3 1 2-2 20"/><path class="s3" d="M2737 3277l-44 22"/><path class="s3" d="M2709 3336l3-20-1-3-3-1-15-12"/><path class="s3" d="M2434 3418v1"/><path class="s3" d="M2451 3455l2 1"/><path class="s3" d="M2453 3456l45-20"/><path class="s3" d="M2498 3436l-2-1"/><path class="s3" d="M2496 3435l2-20v-3l-3-3-15-11"/><path class="s3" d="M2451 3455l2-20v-2l-2-2-17-12"/><path class="s3" d="M2541 3384l7 6"/><path class="s3" d="M2539 3405l4-1 1-2"/><path class="s3" d="M2548 3390l-2 8-2 4-3 3h-2l-4-1-4-4"/><path class="s4" d="M3218 3509l2-1 1-3 3-21v-5l-3-3-3-4-10-7-2-2-25-12-3-1-2-2-2-5-3-2-53-39-4-1-2 1-1 4-2 25 1 4 1 5 3 3 61 43 2 1 26 13 2 1 11 7z"/><path class="s3" d="M3110 34e2l-3-4-3-4-112-78-2-1"/><path class="s3" d="M3106 3435l-3 1-4-1-109-78-4-3-2-5"/><path class="s3" d="M3140 3492l2 2 3 3 29 47 2 4 3 2 10 7 1 3"/><path class="s3" d="M3169 3557l1-9v-5l-2-5-4-3-10-8-1-1-18-15v-3l-171-119"/><path class="s3" d="M3209 3554a15 8-57.67308797097334 0 0 12-18"/><path class="s3" d="M3170 3560l1 4 4 3 3 1 5-1 26-11"/><path class="s4" d="M2981 3347l1-3 2-28v-4l-2-4-3-4-111-77-4-1-2 1-1 2-3 28 1 5 2 3 3 4 111 78 3 1z"/><path class="s3" d="M2856 3257l-2 1-4-1-27-19"/><path class="s3" d="M2921 3359l-143-101"/><path class="s3" d="M4111 2902l-387 180"/><path class="s3" d="M3863 3027l-1-2"/><path class="s3" d="M3862 3026a43 29-25.493259293331725 0 0 7 21"/><path class="s3" d="M3918 3305l-1-1-1-2-1-2-17-12h-13l-30 14"/><path class="s3" d="M3949 3288l-29 30"/><path class="s3" d="M2801 3841v2"/><path class="s3" d="M2801 3843l1002-464"/><path class="s3" d="M3872 3384 2765 3890"/><path class="s3" d="M2813 3342l-4 36"/><path class="s3" d="M2806 3414l-2 21"/><path class="s3" d="M2801 3471l-2 28"/><path class="s3" d="M2754 3318l-6 66"/><path class="s3" d="M2744 3423l-2 19"/><path class="s3" d="M2985 3454v-2"/><path class="s3" d="M2985 3452l-20-15"/><path class="s3" d="M2964 3463l3-20 1-1"/><path class="s3" d="M2985 3454l-65 30"/><path class="s3" d="M2920 3484l-2-1"/><path class="s3" d="M2985 3377v2"/><path class="s3" d="M2985 3377l-41-29"/><path class="s3" d="M2944 3348l-23 11"/><path class="s3" d="M2944 3348v2"/><path class="s3" d="M2985 3379l-18 8-3 2-1 3-1 20"/><path class="s3" d="M2921 3383l41 29"/><path class="s3" d="M2921 3359l-1 24"/><path class="s3" d="M2913 3409l-2 22"/><path class="s3" d="M2925 3442l-14-11"/><path class="s3" d="M4909 2787 3853 3273"/><path class="s3" d="M3308 3407l-26 12"/><path class="s3" d="M3244 3441l-38 16-2 2"/><path class="s3" d="M3782 3362l-753 349"/><path class="s3" d="M3120 3499l-91 41-7 2h-2"/><path class="s3" d="M2997 3554l-5 4-120 55-8 2h-2"/><path class="s3" d="M3741 3325l-571 264-398 199-17 8"/><path class="s4" d="M2977 3735l-120 55-10 5-22 7-12 4-57 27m-84 38-156 73"/><path class="s3" d="M2516 3944l-32-24"/><path class="s3" d="M2484 3912v8"/><path class="s3" d="M2652 3845l-168 75"/><path class="s4" d="M2472 3790l8-1 8-1 35-17m87-40 34-16"/><path class="s3" d="M2472 3790a83 25 28.73127685909362 0 0-13 12"/><path class="s3" d="M2477 3820l-15-10-4-4v-4"/><path class="s3" d="M3308 3407l-26 12"/><path class="s3" d="M3244 3441l-38 16-2 2"/><path class="s3" d="M3120 3499l-91 41-7 2h-2"/><path class="s3" d="M2997 3554l-5 4-120 55-8 2h-2"/><path class="s3" d="M2484 3912v8"/><path class="s3" d="M2516 3944l-32-24"/><path class="s3" d="M2458 3802v4l4 4 15 10"/><path class="s3" d="M2472 3790a83 25 28.73127685909362 0 0-13 12"/><path class="s3" d="M3816 2876l25-7 13-4 14-5 13-6 14-7 13-7 13-8 32-21h4"/><path class="s3" d="M3818 2875l-7 3-12 5"/><path class="s3" d="M3828 2835l13-3 12-6 12-4 13-6 11-7 14-8 32-21 6-4"/><path class="s3" d="M3775 2895h-2l-28 18-12 7-10 7-11 4-11 5-11 4-11 4-25 8"/><path class="s3" d="M3652 2952l-11 4"/><path class="s3" d="M3666 2910l10-3 10-4 10-4 11-5 9-6 12-6 26-18 5-3"/><path class="s3" d="M3617 2967l-6 5-18 12-11 6-16 7-14 6-12 4-25 7"/><path class="s3" d="M3516 3014l-9 3"/><path class="s3" d="M3527 2973l11-3 13-5 13-7 10-6 25-16 3-1"/><path class="s4" d="M3187 3170l46-13 27-7 29-11 28-12 29-14 29-17 16-10m11-6m64-42 14-7 3-2"/><path class="s3" d="M3189 3170l-16 4-14 6-13 5"/><path class="s4" d="M3220 3123l26-7 28-10 28-12 27-14 29-15 11-7m14-9m52-34 11-7 16-9 6-3"/><path class="s3" d="M3105 3164l-3 1-15 6-9 3-8 4-18 3-16 4"/><path class="s3" d="M2993 3223l-28-1"/><path class="s3" d="M2993 3224a132 64-12.997438388746804 0 0 109-18"/><path class="s3" d="M3121 3197l-4 1-15 7"/><path class="s3" d="M3041 3184l-12 2-8 1h-14-14-7l-18-1h-5"/><path class="s3" d="M2967 3186l-7-1"/><path class="s3" d="M2940 3220l-2-1-10-3-8-2-3-2-9-7-5-4"/><path class="s3" d="M3767 2844l21-5 15-4 15-6 15-6 16-8 14-8 12-9 22-13 9-6 2-1"/><path class="s3" d="M3767 2844l-5 2-11 4"/><path class="s3" d="M3778 2804l12-4 13-4 14-7 14-6 14-8 12-8 21-14 9-5 6-3"/><path class="s3" d="M3726 2861l-1 2-25 17-12 6-12 8-12 6-13 6-12 3-10 4-4 1-25 6"/><path class="s3" d="M3603 2919l-10 4"/><path class="s3" d="M3615 2879l10-4 12-4 10-4 12-6 12-5 10-7 26-18 4-2"/><path class="s3" d="M3568 2935l-20 14-10 6-10 5-9 5-10 3-8 5-11 4-24 5"/><path class="s3" d="M3480 2942l23-11 16-8"/><path class="s3" d="M3310 3030l-20 14-24 13-20 8-19 8-19 8-19 6-23 7"/><path class="s3" d="M3135 3139l40-10 28-8 18-6 21-8 20-9 20-10 26-12 25-15 21-13"/><path class="s3" d="M3135 3139l-13 4-12 5-13 5"/><path class="s3" d="M3071 3165h-1l-10 4-8 3-3 1-8 1-7 2-5-2h-7l-8-2-10-3-7-2-9-1"/><path class="s3" d="M2712 3452v-2"/><path class="s3" d="M2719 3395v-1l-18-13"/><path class="s3" d="M2701 3381l-14 8"/><path class="s3" d="M2687 3389l-2 20"/><path class="s3" d="M2687 3410a25 15-113.67385501589598 0 0 14 33"/><path class="s3" d="M2712 3450l-11-7"/><path class="s3" d="M3820 3266l13-6"/><path class="s3" d="M3820 3266l-18-12"/><path class="s3" d="M3787 3221a25 15-113.67385501589598 0 0 14 33"/><path class="s3" d="M3788 3207l-1 13"/><path class="s3" d="M3754 3222l13-6"/><path class="s3" d="M3754 3222l-17-13"/><path class="s3" d="M3773 3172h-1l-6-3h-5l-18 9-3 3-1 6-2 22"/><path class="s3" d="M3473 3407l-1 21"/><path class="s3" d="M3454 3416l18 12"/><path class="s3" d="M3439 3381l1-11"/><path class="s3" d="M3439 3382a25 15-113.67385501589598 0 0 14 33"/><path class="s3" d="M3385 3343l10-5"/><path class="s3" d="M3392 3390l5 2h5l19-9 2-4 2-6"/><path class="s3" d="M3391 3390l-17-12"/><path class="s3" d="M3410 3341l-1-1-5-3-6-1-17 9-4 4-1 7-2 22"/><path class="s3" d="M3331 3412h-4l-11-1-3-2"/><path class="s3" d="M3315 3373l-10 25"/><path class="s3" d="M3334 3358a27 19-82.11122092999175 0 0-19 14"/><path class="s3" d="M3323 3411l-13-2-18-12"/><path class="s3" d="M3291 3430l-10 24"/><path class="s3" d="M3298 3465l6 2"/><path class="s3" d="M3298 3466l-17-12-13-2"/><path class="s3" d="M2981 3223l-7 17"/><path class="s3" d="M2950 3192a27 20-88.78167587659493 0 0 9 36"/><path class="s3" d="M3138 3209l15-6"/><path class="s3" d="M3154 3181l-1 22"/><path class="s3" d="M3135 3192l18 11"/><path class="s3" d="M3071 3122v2l-2 23"/><path class="s3" d="M3086 3158l-17-11"/><path class="s3" d="M3792 2907l14-6"/><path class="s3" d="M3808 2879l-2 22"/><path class="s3" d="M3792 2907l-17-12"/><path class="s3" d="M3762 2847h-2"/><path class="s3" d="M3759 2860l1-13"/><path class="s3" d="M3761 2860a25 15-113.67385501589598 0 0 14 33"/><path class="s3" d="M3726 2863l-17-13"/><path class="s3" d="M3711 2826v2l-2 22"/><path class="s3" d="M3634 2980l15-6"/><path class="s3" d="M3650 2952l-1 22"/><path class="s3" d="M3634 2980l-17-13"/><path class="s3" d="M3601 2934l2-13"/><path class="s3" d="M3602 2933a25 15-113.67385501589598 0 0 14 33"/><path class="s3" d="M3497 3023l-14 7"/><path class="s3" d="M3516 3014l-1 22"/><path class="s3" d="M3515 3036l-14 6"/><path class="s3" d="M3497 3023l-14 6"/><path class="s3" d="M3469 2996a25 15-113.67385501589598 0 0 14 33"/><path class="s3" d="M3887 3159l-2 1-17 11-15 9-15 7-16 7-16 6-17 5-11 4"/><path class="s3" d="M3873 3127l-5 2-17 10-14 9-14 7-15 7-16 5-16 4-14 6"/><path class="s4" d="M3751 3223l-5 3-10 5m-7 4m-60 36-14 8-33 20-34 15-34 15-32 13-74 22-15 7-17 7"/><path class="s4" d="M3739 3188l-9 5-20 10-8 5m-64 40m-12 6-21 11-32 16-33 16-32 11-74 23-16 6-18 8"/><path class="s3" d="M3324 3422l-5 3"/><path class="s3" d="M3325 3420l-2 3"/><path class="s3" d="M3325 3421l-5 4"/><path class="s3" d="M3325 3420l2-2 5-6 8-16 7-10 7-10 2-3 10-9 8-6 2-1"/><path class="s3" d="M3323 3423l2-2"/><path class="s3" d="M3321 3423h-5-6l-16-1"/><path class="s3" d="M3382 3399l7-7 3-2"/><path class="s3" d="M3383 3398l-7 9-5 8-9 16-3 6-5 6-2 1-3 5-8 5-2 1-7 3-5 1-8 2-11-2"/><path class="s3" d="M3284 3420l-5-1-6-3"/><path class="s3" d="M3256 3402l10 9 4 4 6 3"/><path class="s3" d="M3256 3404l-17-21-5-5"/><path class="s3" d="M3219 3416l-5-8"/><path class="s3" d="M3267 3451l-6-1-5-1-6-5-6-3-5-6-6-5-3-3-12-13-10-12"/><path class="s3" d="M2913 3411l-7 3-13 5-14 4-12 5"/><path class="s3" d="M2750 3478l14-3 14-3 15-1h22l17-1 7-1 19-2 13-1"/><path class="s3" d="M2869 3427l-16 4-17 2-8 1h-15l-22 1-15 1-18 3-15 3-2 1-15 5-12 4-10 5"/><path class="s3" d="M2588 3504l14-4 14-6 27-10 36-16"/><path class="s3" d="M2590 3504l-20 4-22 5"/><path class="s3" d="M3936 3193l-23 14-11 7-17 8-18 7-9 4-4 1-22 5"/><path class="s3" d="M3844 3199l17-6 16-7 17-9 24-17 3-1"/><path class="s4" d="M3787 3221l-6 2-14 8-18 12m-44 29m-17 10-8 6-21 12-21 10-20 10-19 8-19 7-18 7-25 7"/><path class="s4" d="M3802 3254l-2 1-14 9m-19 10m-43 28m-15 10-12 8-21 11-21 12-20 9-20 9-20 8-19 7-29 8-43 12-16 4"/><path class="s3" d="M3488 34e2l-11 5-12 4"/><path class="s3" d="M3447 3419l-8 1-5 2-2 1-8 2-8 1-7 1-9-1h-3l-8-3-7-1-7-2-5-1"/><path class="s3" d="M3288 3397l-12-6-5-1-5-5-5-4-9-10"/><path class="s3" d="M2759 3419l9-3 9-1 7-1h20 21l18-1 11-1 10-3 11-2 15-3 21-8 17-6"/><path class="s3" d="M2759 3419l-5 1-11 3-22 11"/><path class="s3" d="M2876 3370l21-8 15-6 3-1"/><path class="s3" d="M2772 3379a139 67-35.72370043557603 0 0-56 17"/><path class="s3" d="M2822 3378h-34-6l-10 1"/><path class="s3" d="M2822 3379a149 127-15.917045697652522 0 0 54-8"/><path class="s3" d="M2702 3443l-10 6-19 10-40 27-13 7"/><path class="s3" d="M2686 3411l-13 7-18 10-42 27-25 14-12 9-13 6-14 7-14 6-14 6-9 3"/><path class="s3" d="M2330 3618l-110 51"/><path class="s3" d="M4004 2826 3632 3e3"/><path class="s3" d="M2577 3963l-28-20"/><path class="s3" d="M2508 3938l-10 15-169 77-5 2-25 6-25 6-21 8-182 72"/><path class="s3" d="M2478 3912l-12 18-170 78-5 2-16 12-18 9-21 9-181 72"/><path class="s3" d="M2392 3814l-101 47-5 3-7 5-8 4-197 91-14 5-15 5-14 2h-1l-6 1-5 2-36 16-3 2-3 4-4 5-4 5-9 7-1 1"/><path class="s3" d="M2437 3816a31 17 0 0 0-43-2"/><path class="s3" d="M2460 3827l-4-1-4-1-15-9"/><path class="s3" d="M2509 3939l-3 1"/><path class="s3" d="M2637 3892l-57 36-96 45-71 23"/><path class="s3" d="M2509 3939l-3 1"/><path class="s3" d="M2307 3982h-1l-5-3"/><path class="s3" d="M2331 3902l13-7 76-48 96-45 51-16"/><path class="s3" d="M2329 3902a46 27-54.931784860455345 1 0-5 75"/><path class="s3" d="M2623 3839l-13 7-1e2 32-96 45-77 48-13 7"/><path class="s3" d="M2528 3612l2-24"/><path class="s3" d="M2527 3613l-60-42"/><path class="s3" d="M2527 3613l1-1"/><path class="s3" d="M2486 3585l2-21-1-2"/><path class="s3" d="M2530 3588l-41-28"/><path class="s3" d="M2467 3570l22-10"/><path class="s3" d="M2360 3764l13 8"/><path class="s3" d="M2373 3772l79-36 13-18"/><path class="s3" d="M2349 3709l2-2 7-2h6 8l7-1 6-3 41-19"/><path class="s3" d="M2348 3708a11 8-63.43494882292201 0 0-1 20"/><path class="s3" d="M2360 3764l2-23-1-2-2-3-12-8"/><path class="s3" d="M2347 3783l-12 10-149 69-13 1-3-2"/><path class="s3" d="M2154 3846l3 1 1 3 10 6 2 3v1 1"/><path class="s3" d="M2156 3832a11 8-116.565051177078 0 0-4 12"/><path class="s3" d="M2289 3761l-32 15-4 1-4 5-5 7-8 7-6 2-70 33-2 2"/><path class="s3" d="M2328 3763a28 15 1.331500383033572 0 0-39-3"/><path class="s3" d="M2347 3783v-5l-2-3-18-12"/><path class="s3" d="M2168 3663l-2-2"/><path class="s3" d="M1979 3727l1 1 10 8 2 3v1 1"/><path class="s3" d="M1979 3710a8 6-66.89056238243435 0 0-3 15"/><path class="s3" d="M2111 3638l-32 13-4 4-3 5-6 8-8 6-5 2-71 33-2 2"/><path class="s3" d="M2149 3641a28 16 8.613744113225476 0 0-39-6"/><path class="s3" d="M1992 3741l3 2 12-1 148-68 13-11 1-4-2-4-18-13"/><path class="s3" d="M2077 3596a13 11 2.3818208453630896 0 0-4-14"/><path class="s3" d="M2079 3599l1-2"/><path class="s3" d="M1894 3663l-8-6"/><path class="s3" d="M1894 3664a20 13 8.372875269160046 0 0 28 3"/><path class="s3" d="M2071 3611l-32 14-5 2-5 1h-4-8l-13 2-11 4-71 34"/><path class="s3" d="M2069 3611a28 17 5.767310326822359 0 0 9-10"/><path class="s3" d="M1966 3611l-87 40"/><path class="s3" d="M1976 3619l-82 38h-12l-3-1"/><path class="s3" d="M1879 3651v5"/><path class="s3" d="M2e3 3556a8 6 23.10943761756565 0 0 16 2"/><path class="s3" d="M1903 3598l-1 3"/><path class="s3" d="M1902 36e2a8 6 23.10943761756565 0 0 16 1"/><path class="s3" d="M1805 3645a8 6 23.10943761756565 0 0 16 2"/><path class="s3" d="M1709 3690a8 4 14.036243467926475 0 0 15 2"/><path class="s3" d="M1611 3733a8 4 14.036243467926475 0 0 16 2"/><path class="s3" d="M1514 3776a8 5 15.714782807419262 0 0 16 2"/><path class="s3" d="M2190 3487v3 2l-2 2-30 12-28 9-25 11-593 269-5 1-3-1"/><path class="s3" d="M2098 4190l-11-6h-4"/><path class="s3" d="M2076 4168l2-3 3-12v-6l-1-6-2-4-2-4"/><path class="s3" d="M2059 4160v3"/><path class="s3" d="M2043 4161h-1l1-2"/><path class="s3" d="M2043 4162a8 5 15.714782807419262 0 0 16 1"/><path class="s3" d="M1961 4105a8 5 15.714782807419262 0 0 16 1"/><path class="s3" d="M1945 4085l-30-23h-3l-1-2-1-1"/><path class="s3" d="M1945 4084a15 8 7.780755162664243 0 0 16 4"/><path class="s3" d="M1993 4110v-1l-1-4-3-3-13-10-3-1-6-2-7-1"/><path class="s3" d="M1882 4049a8 5 15.714782807419262 0 0 16 1"/><path class="s3" d="M1873 3947l-15-30-2-5"/><path class="s3" d="M1865 4027l-31-21-2-2-1-2"/><path class="s3" d="M1865 4028a15 8 7.780755162664243 0 0 16 4"/><path class="s3" d="M1912 4053v-1-3l-4-4-12-8-3-3-6-2h-7"/><path class="s3" d="M1802 3991a8 5 15.714782807419262 0 0 16 1"/><path class="s3" d="M1784 3971l-30-20-1-3-2-2v-1"/><path class="s3" d="M1785 3971a16 8 7.125016348901798 0 0 16 4"/><path class="s3" d="M1832 3997v-1-5l-3-2-14-10-5-2-7-1h-2"/><path class="s3" d="M1761 3840l-24 12"/><path class="s3" d="M1775 3849a16 9-115.5943079816208 0 0-15-9"/><path class="s3" d="M1780 3860l-3-5v-3"/><path class="s3" d="M1780 3859a61 35-117.98701040062234 0 0 56 36"/><path class="s3" d="M1838 3895l-1 1"/><path class="s3" d="M1857 3917a16 9-115.5943079816208 0 0-18-22"/><path class="s3" d="M1722 3934a8 5 15.714782807419262 0 0 16 1"/><path class="s3" d="M1705 3916l-31-23-2-1-2-2v-2"/><path class="s3" d="M1705 3914a16 8 7.125016348901798 0 0 16 4"/><path class="s3" d="M1752 3940l1-2-2-5-3-1-14-9-4-4h-7-4"/><path class="s3" d="M1641 3878a8 5 15.714782807419262 0 0 16 1"/><path class="s3" d="M1624 3859l-31-22-2-2-1-1v-2"/><path class="s3" d="M1624 3858a16 8 7.125016348901798 0 0 16 4"/><path class="s3" d="M1672 3883v-1l-2-5-2-2-13-8-6-4-7-1h-3"/><path class="s3" d="M2119 4181l-1-2-3-7-17-25-2-2-7-7-18-14-24-18-23-19-22-22-44-47-22-21-24-20-23-18-152-107-24-16-24-12-23-12-47-16-23-11-24-13-3-3"/><path class="s3" d="M1561 3820a8 4 14.036243467926475 0 0 16 2"/><path class="s3" d="M2040 4145h7l6 2 2 1 17 12h1l2 5 10 23-2 2"/><path class="s3" d="M2026 4141a15 8 7.780755162664243 0 0 16 4"/><path class="s3" d="M1991 4115v1l2 2 2 2 31 21"/><path class="s3" d="M2767 3731l-3 1-3-1-20-15-6-2-28-9-5-2-8-6"/><path class="s3" d="M2732 3791h-2l-1-3-3-5-4-3-2-3-3-2-3-4-30-52-1-1-1-2"/><path class="s3" d="M2508 3565l1-3 3-27v-5l-3-4-3-3-111-79-3-1-3 1-1 4-2 28v3"/><path class="s3" d="M2571 3568l-51-35-4-1"/><path class="s3" d="M2551 3601l-205-143"/><path class="s3" d="M27e2 3792l-1-3v-4-9-5l-2-4-3-3-18-13-4-3-8-17-3-4-355-250"/><path class="s3" d="M2773 3712l-4 48-1 4-1 5-25 55-1 4-4 4-3 2-4 2"/><path class="s3" d="M2774 3711a15 8-116.565051177078 0 0-10-19"/><path class="s3" d="M2712 39e2l-584 269"/><path class="s3" d="M2081 4203v-2-1l2-3 2-1 220-93 385-175 3-2 20-10 16-10 27-15h3 4l4 1 23 16"/><path class="s3" d="M2826 3828l-1-1-17-17-1-1"/><path class="s3" d="M2859 3613l23 16"/><path class="s3" d="M2874 3641l3-2"/><path class="s3" d="M2877 3639l2-1"/><path class="s3" d="M2882 3629v4l-3 5-3 2-2 1-4-2-22-15"/><path class="s3" d="M2888 3567l-2-2"/><path class="s3" d="M2885 3567l1-2"/><path class="s3" d="M2885 3569l24-12"/><path class="s3" d="M2909 3556l-20-15"/><path class="s3" d="M2889 3541l-4 2"/><path class="s3" d="M2984 3536l-6 2"/><path class="s3" d="M3e3 3557l-3-6-6-3-13-10"/><path class="s3" d="M2999 3558a17 9 2.1993526774977665 0 0 21 6"/><path class="s3" d="M3025 3564l-4 1"/><path class="s3" d="M3040 3560l-1 4-5 3-6-2-109-78-5-4-2-6-1-6 1-9"/><path class="s3" d="M2933 3478l80 56"/><path class="s3" d="M3013 3534v1l1 2 1 2 25 17"/><path class="s3" d="M1590 3831l1-4-2-3-2-2-15-11h-1l-7-4-38-9-12 4"/><path class="s3" d="M6390 1722l-369 172"/><path class="s3" d="M5175 2285l-372 171"/><path class="s3" d="M6129 1750l-14 7"/><path class="s3" d="M61e2 1727l-1 17"/><path class="s3" d="M6115 1757l-16-13"/><path class="s3" d="M6182 1801l13-6"/><path class="s3" d="M6197 1773l-2 22"/><path class="s3" d="M6182 1801l-18-12"/><path class="s3" d="M6152 1741l-3 1"/><path class="s3" d="M6148 1755l1-13"/><path class="s3" d="M6148 1754a25 15-113.67385501589598 0 0 14 33"/><path class="s3" d="M5942 1799l-1 19"/><path class="s3" d="M5957 1829l-16-11"/><path class="s3" d="M6023 1875l14-7"/><path class="s3" d="M6040 1847l-3 21"/><path class="s3" d="M6023 1875l-17-13"/><path class="s3" d="M5991 1828a25 15-113.67385501589598 0 0 14 33"/><path class="s3" d="M6710 1937l-29 14-6 2-3-2-5-3"/><path class="s3" d="M6710 1936a19 9-56.34170167614165 0 0 14-21"/><path class="s3" d="M6727 1897l-1 18"/><path class="s3" d="M6664 1939v-8"/><path class="s3" d="M6639 1835l-20-14-3-5-3-4-1-4 3-24 2-4 2-1 4 1 50 36 3 4 1 3 4 3"/><path class="s3" d="M6612 1774l-3-3-112-79h-3-2l-1 3-3 26 1 5 2 3 3 4 110 78"/><path class="s3" d="M6449 1658l34 25 4 3 2 5"/><path class="s3" d="M6485 1723l-2 1-2-1-71-49"/><path class="s3" d="M6595 1866l-220-154"/><path class="s3" d="M6362 1718l14-6"/><path class="s3" d="M6377 1690l-1 22"/><path class="s3" d="M6362 1718l-17-13"/><path class="s3" d="M6328 1671l2-13"/><path class="s3" d="M6330 1671a25 15-113.67385501589598 0 0 14 33"/><path class="s3" d="M6296 1673l14-6"/><path class="s3" d="M6296 1673l-17-12"/><path class="s3" d="M6280 1643l-1 18"/><path class="s3" d="M6677 1923l-13 7"/><path class="s3" d="M6677 1922l-13 7"/><path class="s3" d="M6648 1896v-13"/><path class="s3" d="M6649 1895a25 15-113.67385501589598 0 0 14 33"/><path class="s3" d="M6615 1898l15-7"/><path class="s3" d="M6615 1898l-17-13"/><path class="s3" d="M6633 1848l-6-3h-4l-19 9-3 4-1 5-2 22"/><path class="s3" d="M6443 1929l4-46 1-5 4-3"/><path class="s3" d="M6481 1921v-15"/><path class="s3" d="M6501 2026l13-6"/><path class="s3" d="M6517 1998l-3 22"/><path class="s3" d="M6501 2026l-19-12"/><path class="s3" d="M6470 1966l-1 1"/><path class="s3" d="M6468 1979l1-12"/><path class="s3" d="M6467 1979a25 15-113.67385501589598 0 0 14 33"/><path class="s3" d="M6448 1975l-14 6"/><path class="s3" d="M6434 1981l-17-12"/><path class="s3" d="M6285 2001l5-46 1-4 2-3"/><path class="s3" d="M6323 1994l1-15"/><path class="s3" d="M6326 1996l-3-3"/><path class="s3" d="M6261 1942l-5-6-2-5v-6l1-10"/><path class="s3" d="M6353 1985l-98-70"/><path class="s3" d="M6288 1964l-27-18"/><path class="s3" d="M6482 1922l-1-2"/><path class="s3" d="M6445 1890l-28-20"/><path class="s3" d="M6419 1869l-5-5-3-6-1-7 1-9"/><path class="s3" d="M6511 1912l-1e2-70"/><path class="s3" d="M6584 21e2l-7 3"/><path class="s3" d="M6514 2091l-1 5 1 1 2 3 2 3 13 9 10 2 43-14 5-1"/><path class="s3" d="M6531 2079a20 12 6.240420695878494 0 0-18 11"/><path class="s3" d="M6541 2075v2l-1 1h-2l-1 1h-5"/><path class="s3" d="M6576 2072a20 12 6.240420695878494 0 0-34 4"/><path class="s3" d="M6593 2085l-3-1v-2l-13-10"/><path class="s3" d="M6441 1823l-222 105"/><path class="s3" d="M6535 1525l-753 348"/><path class="s3" d="M4448 2430l28 18"/><path class="s3" d="M7066 1870a8 4 14.036243467926475 0 0 16 2"/><path class="s3" d="M6984 1812a8 4 14.036243467926475 0 0 16 2"/><path class="s3" d="M6901 1754a8 4 14.036243467926475 0 0 16 2"/><path class="s3" d="M6887 1743l-1 1v5 3"/><path class="s3" d="M6819 1694a8 4 14.036243467926475 0 0 15 2"/><path class="s3" d="M6848 1716a14 7 8.130102354155978 0 0-15-4"/><path class="s3" d="M6883 1740l-33-25"/><path class="s3" d="M6888 1744a16 8 2.381820845363089 0 0-5-6"/><path class="s3" d="M6886 1746a16 8 2.381820845363089 0 0 2-2"/><path class="s3" d="M6931 1773a14 7 8.130102354155978 0 0-15-4"/><path class="s3" d="M6966 1797l-33-24"/><path class="s3" d="M6970 1802a16 8 2.381820845363089 0 0-5-6"/><path class="s3" d="M6968 1804a16 8 2.381820845363089 0 0 2-2"/><path class="s3" d="M6968 1811l1-5"/><path class="s3" d="M6751 1642v-2"/><path class="s3" d="M6736 1637a8 4 14.036243467926475 0 0 15 2"/><path class="s3" d="M6768 1656a15 8 2.484870364055152 0 0-16-2"/><path class="s3" d="M6801 1680l-34-23"/><path class="s3" d="M6805 1687a16 8 2.381820845363089 0 0-5-6"/><path class="s3" d="M6803 1689a16 8 2.381820845363089 0 0 2-2"/><path class="s3" d="M6803 1693v-3"/><path class="s3" d="M6652 1579a8 4 14.036243467926475 0 0 16 2"/><path class="s3" d="M6685 1597a15 8 2.484870364055152 0 0-16-2"/><path class="s3" d="M6718 1622l-34-23"/><path class="s3" d="M6722 1629a16 8 2.381820845363089 0 0-5-6"/><path class="s3" d="M6720 1631a16 8 2.381820845363089 0 0 2-2"/><path class="s3" d="M6719 1635l2-4"/><path class="s3" d="M6569 1521a8 4 14.036243467926475 0 0 16 2"/><path class="s3" d="M6585 1523v2"/><path class="s3" d="M7053 1861a14 8 11.133294136656186 0 0-5-7"/><path class="s3" d="M7051 1864a14 8 11.133294136656186 0 0 2-3"/><path class="s3" d="M7016 1832l33 23"/><path class="s3" d="M7014 1831a14 7 8.130102354155978 0 0-15-4"/><path class="s3" d="M7096 1904l22-11"/><path class="s3" d="M6602 1539a15 8 2.484870364055152 0 0-16-2"/><path class="s3" d="M6635 1564l-33-23"/><path class="s3" d="M6640 1571a16 8 2.381820845363089 0 0-5-6"/><path class="s3" d="M6638 1573a16 8 2.381820845363089 0 0 2-2"/><path class="s3" d="M6637 1577l1-4"/><path class="s3" d="M6291 2048l-14 6"/><path class="s3" d="M6270 2007l10-4"/><path class="s3" d="M6296 2005l-1-1-5-2-6-1-17 9-4 4-1 6-2 22"/><path class="s3" d="M6277 2054l-17-12"/><path class="s3" d="M6313 2039l-2 1"/><path class="s3" d="M6359 2071l-3 21"/><path class="s3" d="M6356 2092l-14 7"/><path class="s3" d="M6326 2086l16 13"/><path class="s3" d="M6310 2052a25 15-113.67385501589598 0 0 14 33"/><path class="s3" d="M6311 2040l-1 12"/><path class="s3" d="M6157 2110l-14 7"/><path class="s3" d="M6136 2070l11-5"/><path class="s3" d="M6162 2067h-1l-5-4h-6l-17 9-4 4-1 6-2 22"/><path class="s3" d="M6143 2117l-17-13"/><path class="s3" d="M6209 2161l13-6"/><path class="s3" d="M6225 2133l-3 22"/><path class="s3" d="M6209 2161l-17-13"/><path class="s3" d="M6176 2114l1-12"/><path class="s3" d="M6177 2114a25 15-113.67385501589598 0 0 14 33"/><path class="s3" d="M5819 2341l-18-11"/><path class="s3" d="M5786 2295l1-12"/><path class="s3" d="M5785 2295a25 15-113.67385501589598 0 0 14 33"/><path class="s3" d="M5753 2297l14-7"/><path class="s3" d="M5753 2297l-18-12"/><path class="s3" d="M5771 2248v-1l-5-2-6-1-17 8-3 4-3 7-2 22"/><path class="s3" d="M6047 1912l-41-29-12-10-1-2"/><path class="s3" d="M6045 1912a121 70 4.338399818709963 0 0 170 15"/><path class="s3" d="M6442 1822a123 70 5.505856193531567 0 0 39-36"/><path class="s3" d="M4828 2478l-39-29-12-9-3-5"/><path class="s3" d="M4828 2476a121 70 4.338399818709963 0 0 170 15"/><path class="s3" d="M5225 2389l-224 104"/><path class="s3" d="M5224 2389a45 25-34.882440850315625 0 0 39-42"/><path class="s3" d="M4066 2920a31 14-43.41399298038967 0 0 24-31"/><path class="s3" d="M3908 2779l-17-13"/><path class="s3" d="M3893 2743v1l-2 22"/><path class="s3" d="M3973 2823l14-6"/><path class="s3" d="M3989 2795l-2 22"/><path class="s3" d="M3973 2823l-16-12"/><path class="s3" d="M3944 2764h-2"/><path class="s3" d="M3941 2776l1-12"/><path class="s3" d="M3941 2776a25 15-113.67385501589598 0 0 14 33"/><path class="s3" d="M4805 2438l14-7"/><path class="s3" d="M4821 2410l-2 21"/><path class="s3" d="M4802 2419l-13 7"/><path class="s3" d="M4805 2438l-16-12"/><path class="s3" d="M4802 2418l-13 7"/><path class="s3" d="M4776 2378l-2 2"/><path class="s3" d="M4773 2391l1-11"/><path class="s3" d="M4773 2392a25 15-113.67385501589598 0 0 14 33"/><path class="s3" d="M4740 2394l14-7"/><path class="s3" d="M4740 2394l-17-12"/><path class="s3" d="M4725 2357v2l-2 23"/><path class="s3" d="M5450 2502v-6"/><path class="s3" d="M5449 2499a8 5 23.367852294464196 0 0 15 11"/><path class="s3" d="M5493 2498l-29 13"/><path class="s3" d="M5491 2497a15 8-57.67308797097334 0 0 12-18"/><path class="s3" d="M5506 2468l-1 12"/><path class="s3" d="M5466 2395h-2l-1-1-4-3-2-4-3-4-53-37-3-1"/><path class="s3" d="M5418 2401l-20-16-3-2-2-5-1-4 3-26 1-2 2-1"/><path class="s3" d="M5273 2255l3 1 111 79 3 3 3 4"/><path class="s3" d="M5273 2255l-2 1-2 5-2 27v3l2 5 4 3 110 78 4 1 2-1"/><path class="s3" d="M5238 2230l24 17 4 3"/><path class="s3" d="M5265 2289l-3 1-3-1-68-47"/><path class="s3" d="M5380 2430l-221-156"/><path class="s3" d="M5266 2485l-4-2"/><path class="s3" d="M5201 2431l-5-4-2-7v-5-9"/><path class="s3" d="M5293 2476l-99-70"/><path class="s3" d="M5228 2453l-30-21"/><path class="s3" d="M5108 2559l-4-3"/><path class="s3" d="M5043 2504l-4-3-2-7-1-6 1-9"/><path class="s3" d="M5135 2549l-98-70"/><path class="s3" d="M5069 2525l-29-20"/><path class="s3" d="M5105 2544l-1 15"/><path class="s3" d="M5075 2511a16 9-115.5943079816208 0 0-5 7"/><path class="s3" d="M5067 2565l5-46"/><path class="s3" d="M5264 2470l-2 15"/><path class="s3" d="M5225 2491l5-45"/><path class="s3" d="M5802 2338v-7"/><path class="s3" d="M5802 2340a10 7 33.690067525979785 0 0 17 11"/><path class="s3" d="M5848 2337l-29 12"/><path class="s3" d="M5849 2335a19 9-56.34170167614165 0 0 14-21"/><path class="s3" d="M5864 2303l-1 11"/><path class="s3" d="M5787 2288l-2-3"/><path class="s3" d="M5778 2234l-22-15-3-3-2-4v-5l2-24 2-3 1-1 3 1 51 35 4 3 1 5 4 2 1 1 6 2"/><path class="s3" d="M5751 2177l-2-4-4-4-109-78-4-1"/><path class="s3" d="M5748 2211l-3 2-2-2-112-78-3-2-2-5v-5l2-27 1-3 3-1"/><path class="s3" d="M5598 2064l23 18 3 3"/><path class="s3" d="M5623 2123l-2 2-4-2-66-47"/><path class="s3" d="M5723 2260l-210-149"/><path class="s3" d="M4094 3028l-3-2"/><path class="s3" d="M4029 2973l-4-5-3-5v-6-8"/><path class="s3" d="M4122 3018l-1e2-69"/><path class="s3" d="M4056 2994l-28-20"/><path class="s3" d="M3887 3159l15-6"/><path class="s3" d="M3887 3159l-16-11"/><path class="s3" d="M3907 3110l-1-1-6-1h-5l-18 7-4 5v6l-2 22"/><path class="s3" d="M3931 3142l5-3"/><path class="s3" d="M3969 3177l-1 22"/><path class="s3" d="M3968 3199l-15 6"/><path class="s3" d="M3936 3193l17 12"/><path class="s3" d="M3921 3158a25 15-113.67385501589598 0 0 14 33"/><path class="s3" d="M3922 3145l-1 13"/><path class="s3" d="M4111 3132l13-6"/><path class="s3" d="M4127 3103l-3 23"/><path class="s3" d="M4111 3132l-17-12"/><path class="s3" d="M4081 3072l-2 1"/><path class="s3" d="M4078 3085l1-12"/><path class="s3" d="M4079 3085a25 15-113.67385501589598 0 0 14 33"/><path class="s3" d="M4039 3041l10-4"/><path class="s3" d="M4045 3087l14-6"/><path class="s3" d="M4045 3087l-17-13"/><path class="s3" d="M4064 3038l-6-3h-6l-17 8-4 5-1 4-2 22"/><path class="s3" d="M4057 2989l-5 46"/><path class="s3" d="M4083 2991l-12-9"/><path class="s3" d="M4092 3012a16 9-115.5943079816208 0 0-11-21"/><path class="s3" d="M4091 3028l1-15"/><path class="s3" d="M3899 3062l-4 46"/><path class="s3" d="M3913 3056a7 7-23.19859051364819 0 0-13 6"/><path class="s3" d="M3934 3085a16 9-115.5943079816208 0 0-11-21"/><path class="s3" d="M3933 31e2l2-15"/><path class="s4" d="M4974 2712l-1 5 1 6 3 15 1 4m8 26m1 4m5 3m3 1m3-1m6-2m3-2m3-5m2-4 21-60 3-7v-6"/><path class="s3" d="M4993 2614l-1-2-3-1-2-2-3-4-3-3-53-37-3-1-2 1-1 3-2 23v6l2 4 3 3 32 22"/><path class="s3" d="M48e2 2475l3 1 112 78 3 4"/><path class="s3" d="M4795 2510l2 5 3 3 111 78 4 1 2-1"/><path class="s3" d="M4759 2444l31 22 2 3 3 5 1 4-4 26-1 4"/><path class="s3" d="M4791 2508l-1 1-4-1-66-46"/><path class="s3" d="M4897 2641l-212-150"/><path class="s3" d="M4925 2680l14-7"/><path class="s3" d="M4925 2680l-18-12"/><path class="s3" d="M4945 2631h-1l-6-4h-5l-18 9-4 4-2 5-2 23"/><path class="s3" d="M4991 2725l13-7"/><path class="s3" d="M5007 2696l-3 22"/><path class="s3" d="M4969 2661l3-2"/><path class="s3" d="M4988 2705l-15 7"/><path class="s3" d="M4991 2725l-18-13"/><path class="s3" d="M4988 2704l-14 7"/><path class="s3" d="M4961 2665l-2 1"/><path class="s3" d="M4958 2679l1-13"/><path class="s3" d="M4958 2678a25 15-113.67385501589598 0 0 14 33"/><path class="s3" d="M5052 2572l10-5"/><path class="s3" d="M5059 2618l14-7"/><path class="s3" d="M5102 2598v2"/><path class="s3" d="M5059 2618l-18-12"/><path class="s3" d="M5077 2569l-1-1-4-2-6-1-18 8-3 4-1 7-3 22"/><path class="s3" d="M5095 2603l-2 1"/><path class="s3" d="M5122 2645l-14 6"/><path class="s3" d="M5140 2635l-2 21"/><path class="s3" d="M5138 2656l-14 6"/><path class="s3" d="M5108 2651l16 11"/><path class="s3" d="M5122 2644l-14 6"/><path class="s3" d="M5093 2617a25 15-113.67385501589598 0 0 14 33"/><path class="s3" d="M5093 2604l-2 12"/><path class="s3" d="M4334 3023l1-13"/><path class="s3" d="M4320 3040a15 8-57.67308797097334 0 0 12-18"/><path class="s3" d="M4292 3053l29-14"/><path class="s3" d="M4261 2992l-2-2"/><path class="s3" d="M4247 2942l-20-13-4-4-2-4v-5l2-24 1-4 3-1 3 1 53 37 3 4 2 3 3 3 1 1 2 1"/><path class="s3" d="M4101 2798l5 2 110 78 3 3 2 4"/><path class="s3" d="M4101 2798l-2 2v2l-3 28v5l3 3 2 4 111 78 4 1 3-1"/><path class="s3" d="M4066 2772l25 17 3 4"/><path class="s3" d="M4093 2832l-2 1-3-1-68-47"/><path class="s3" d="M4208 2971l-220-156"/><path class="s3" d="M4227 3002l14-6"/><path class="s3" d="M4270 2982v3"/><path class="s3" d="M4227 3002l-18-11"/><path class="s3" d="M4245 2954l-1-1-4-2-6-1-18 8-3 5-1 5-3 23"/><path class="s3" d="M4292 3049l-16-13"/><path class="s3" d="M4263 2988l-2 1"/><path class="s3" d="M4259 3002l2-13"/><path class="s3" d="M4261 3002a25 15-113.67385501589598 0 0 14 33"/><path class="s3" d="M4222 2956l-1-2"/><path class="s3" d="M4910 2640v-3l1-2"/><path class="s3" d="M4912 2636l-1 2v1"/><path class="s3" d="M5740 2255l-2-1h-1"/><path class="s3" d="M5392 2415l9-5"/><path class="s3" d="M5398 2461l13-7"/><path class="s3" d="M5398 2461l-17-12"/><path class="s3" d="M5416 2411l-6-2-4-1-19 9-2 3-3 7-1 22"/><path class="s3" d="M5464 2505l-18-11"/><path class="s3" d="M5431 2460a25 15-113.67385501589598 0 0 14 33"/><path class="s3" d="M5282 2590l14-7"/><path class="s3" d="M5298 2561l-2 22"/><path class="s3" d="M5282 2590l-17-13"/><path class="s3" d="M5279 2570l-14 6"/><path class="s3" d="M5250 2543l1-12"/><path class="s3" d="M5249 2543a25 15-113.67385501589598 0 0 14 33"/><path class="s3" d="M5210 2498l9-4"/><path class="s3" d="M5217 2545l14-7"/><path class="s3" d="M5217 2545l-19-12"/><path class="s3" d="M5235 2496v-1l-5-2-6-2-17 10-4 3-2 7-3 22"/><path class="s3" d="M3936 3101l-2-2"/><path class="s3" d="M3964 3091l-99-70"/><path class="s3" d="M3898 3067l-27-19"/><path class="s3" d="M4606 2455l14-6"/><path class="s3" d="M4606 2455l-17-12"/><path class="s3" d="M4591 2419l-1 1-1 23"/><path class="s3" d="M4671 2501l14-7"/><path class="s3" d="M4688 2472l-3 22"/><path class="s3" d="M4669 2481l-15 7"/><path class="s3" d="M4671 2501l-17-13"/><path class="s3" d="M4669 2480l-14 7"/><path class="s3" d="M4642 2440l-2 1"/><path class="s3" d="M4639 2454l1-13"/><path class="s3" d="M4639 2454a25 15-113.67385501589598 0 0 14 33"/><path class="s3" d="M5659 1866l27 19"/><path class="s3" d="M5686 1885 4479 2447"/><path class="s3" d="M5482 2617l-21-7-2-1-2-1-3-3"/><path class="s3" d="M5466 2624l-21-6-2-1h-6l-6-1"/><path class="s3" d="M4897 2320l14-7"/><path class="s3" d="M4897 2320l-17-11"/><path class="s3" d="M4883 2284l-1 2-2 23"/><path class="s3" d="M4963 2366l14-7"/><path class="s3" d="M4980 2337l-3 22"/><path class="s3" d="M4963 2366l-18-13"/><path class="s3" d="M4960 2346l-14 6"/><path class="s3" d="M4931 2319l1-13"/><path class="s3" d="M4930 2319a25 15-113.67385501589598 0 0 14 33"/><path class="s3" d="M5079 2236l14-6"/><path class="s3" d="M5079 2236l-17-11"/><path class="s3" d="M5064 22e2l-1 3-1 22"/><path class="s3" d="M5145 2281l14-6"/><path class="s3" d="M5160 2252l-1 23"/><path class="s3" d="M5141 2263l18 12"/><path class="s3" d="M5145 2281l-18-12"/><path class="s3" d="M5141 2262l-14 6"/><path class="s3" d="M5112 2234v-11"/><path class="s3" d="M5112 2235a25 15-113.67385501589598 0 0 14 33"/><path class="s3" d="M55e2 2117l14-7"/><path class="s3" d="M5516 2089l-2 21"/><path class="s3" d="M5496 2098l18 12"/><path class="s3" d="M55e2 2117l-19-12"/><path class="s3" d="M5496 2097l-14 7"/><path class="s3" d="M5467 2070l1-12"/><path class="s3" d="M5467 2071a25 15-113.67385501589598 0 0 14 33"/><path class="s3" d="M5434 2072l14-7"/><path class="s3" d="M5434 2072l-18-11"/><path class="s3" d="M5419 2036l-1 2-2 23"/><path class="s3" d="M4337 2655l14-7"/><path class="s3" d="M4353 2626l-2 22"/><path class="s3" d="M4334 2636l-14 7"/><path class="s3" d="M4337 2655l-17-12"/><path class="s3" d="M4334 2635l-14 6"/><path class="s3" d="M4307 2595l-2 1"/><path class="s3" d="M4304 2609l1-13"/><path class="s3" d="M4305 2608a25 15-113.67385501589598 0 0 14 33"/><path class="s3" d="M4286 2603l5 2 6 1"/><path class="s3" d="M4271 2610l15-6"/><path class="s3" d="M4271 2610l-17-13"/><path class="s3" d="M4256 2574v1l-2 22"/><path class="s3" d="M4656 2880l15-7"/><path class="s3" d="M4671 2851v22"/><path class="s3" d="M4653 2860l-14 7"/><path class="s3" d="M4656 2880l-17-13"/><path class="s3" d="M4653 2860l-14 7"/><path class="s3" d="M4623 2833l1-12"/><path class="s3" d="M4624 2834a25 15-113.67385501589598 0 0 14 33"/><path class="s3" d="M4590 2835l15-6"/><path class="s3" d="M4590 2835l-16-12"/><path class="s3" d="M4610 2786h-2l-5-4h-5l-19 8-3 5v5l-2 23"/><path class="s3" d="M6204 2287 5102 2796"/><path class="s3" d="M6265 2292v-2"/><path class="s3" d="M6265 2292 5044 2846"/><path class="s3" d="M4971 2840 3923 3325"/><path class="s3" d="M3873 3383l1167-536"/><path class="s3" d="M7038 1879l-448 203"/><path class="s3" d="M6989 1844l-751 340"/><path class="s3" d="M6137 2228 5022 2736"/><path class="s4" d="M6528 2110l-237 108m-118 54-1098 5e2-23 10m-98 45-1039 473"/><path class="s3" d="M7038 1879l-448 203"/><path class="s3" d="M6989 1844l-751 340"/><path class="s3" d="M6608 1576l-25 16-21 14-10 6-19 9-19 10-18 9-19 7-55 22-23 10-22 11"/><path class="s3" d="M6533 1580l-16 10-19 8-17 9-18 7-56 22-23 9-34 17"/><path class="s3" d="M6206 1770l25-6 12-5 13-4 14-6 13-7 14-7 14-8 30-21 4-1"/><path class="s3" d="M6207 1770l-7 2-12 5"/><path class="s3" d="M6218 1729l11-2 13-6 13-5 12-5 12-8 12-8 33-19 4-5"/><path class="s3" d="M6164 1789h-2l-27 18-12 7-11 7-12 5-10 4-11 5-11 2-29 10"/><path class="s3" d="M6041 1845l-12 4"/><path class="s3" d="M6055 1805l10-5 11-2 9-5 11-6 9-4 10-7 29-18 4-2"/><path class="s3" d="M6006 1862l-6 4-18 11-12 7-14 8-15 6-11 3-26 7"/><path class="s3" d="M5906 1907l-9 5"/><path class="s3" d="M5916 1868l10-4 14-5 14-8 9-4 10-8"/><path class="s4" d="M5552 2076l50-14 28-8 30-12 33-13 30-15 32-17 19-12m10-7m67-44 17-8 5-4"/><path class="s3" d="M5553 2076l-17 5-15 4-15 7"/><path class="s4" d="M5588 2028l28-8 30-10 31-13 30-15 29-17 13-9m16-9m58-36 11-7 16-10 7-4"/><path class="s3" d="M5193 2241l45-11 26-9 28-9 27-13 30-14 28-16 26-15 62-41 14-7 3-2"/><path class="s3" d="M5194 2241l-15 5-14 6-14 4"/><path class="s3" d="M5225 2196l25-7 28-11 25-11 28-13 28-16 26-15 61-40 15-9 6-3"/><path class="s3" d="M4988 2334l25-7 14-4 13-5 12-6 14-6 13-7 14-9 31-20 3-2"/><path class="s3" d="M4987 2334l-18 6"/><path class="s3" d="M5001 2294l11-5 13-4 12-5 11-6 13-7 13-7 31-21 7-4"/><path class="s3" d="M4945 2353l-28 18-12 7-10 5-12 6-10 6-11 3-12 4-30 8"/><path class="s3" d="M4824 2409l-12 4"/><path class="s3" d="M4838 2368l10-4 9-3 10-4 10-5 10-5 10-7 29-17 5-4"/><path class="s3" d="M4789 2425l-25 16-11 6-15 8-15 7-11 4-28 7"/><path class="s3" d="M4688 2472l-10 4"/><path class="s3" d="M4698 2431l9-3 14-5 14-7 10-6 24-15 4-3"/><path class="s4" d="M4383 2617l44-12 24-8 27-10 26-12 25-13 26-13m26-16m58-37 13-7 3-2"/><path class="s3" d="M4384 2616l-14 4-13 5-13 6"/><path class="s4" d="M4413 2572l24-8 26-10 26-11 24-12 13-7m11-7m25-15m43-27 15-10 14-9 5-2"/><path class="s3" d="M4023 2783l48-12 27-9 28-10 29-13 28-14 28-16 27-16 64-41 13-8 5-1"/><path class="s3" d="M4024 2783l-16 5-14 5-14 7"/><path class="s3" d="M4057 2737l27-9 27-10 27-13 28-12 27-14 26-18 64-41 16-9 5-2"/><path class="s3" d="M6583 1559l-36 10-41 12-18 6-19 8-20 8-115 52"/><path class="s3" d="M6156 1738l20-5 16-5 15-5 14-7 15-7 16-8 13-8 20-14 8-5 3-2"/><path class="s3" d="M6157 1738l-5 2-12 4"/><path class="s3" d="M6115 1756l-1 1-25 17-12 6-13 7-11 6-13 6-11 5-12 3-3 1-24 6"/><path class="s3" d="M5957 1829l-21 14-9 6-9 6-10 4-10 4-9 5-10 2-25 7"/><path class="s3" d="M5857 1876l-8 3"/><path class="s3" d="M5695 1929l-26 15-27 14-20 10-22 10-21 7-20 7-25 7"/><path class="s4" d="M5501 2044l42-10 29-8 22-7 21-8 21-10 23-10 27-14 28-16 13-8m15-10m45-30m18-12 15-8 3-2"/><path class="s3" d="M5501 2044l-15 5-14 5-15 7"/><path class="s3" d="M5537 1999l-22 5"/><path class="s3" d="M5371 2068l-31 20-24 15-24 14-24 12-18 9-19 8-20 8-17 6-24 7"/><path class="s3" d="M5141 2211l39-9 27-10 19-6 19-7 21-9 19-8 25-14 25-14 25-15 41-28 17-10 13-8 2-1"/><path class="s3" d="M5141 2211l-12 3-13 5-13 6"/><path class="s3" d="M4938 2302l21-5 15-5 15-4 15-7 15-7 15-10 13-8 21-14 8-4 3-2"/><path class="s3" d="M4939 2302l-6 1-12 6"/><path class="s3" d="M4949 2262l12-3 13-6 14-5 15-8 13-7 12-7"/><path class="s3" d="M4897 2320l-26 17-11 8-13 7-12 5-12 5-12 5-12 4h-3l-25 7"/><path class="s3" d="M4774 2377l-10 5"/><path class="s3" d="M4786 2337l11-3 10-4 12-6 11-5 11-7 11-6"/><path class="s3" d="M4740 2394l-21 13-10 6-10 5-9 5-9 4-10 3-10 3-26 8"/><path class="s3" d="M4639 2440l-10 3"/><path class="s3" d="M4674 2390l17-8"/><path class="s3" d="M4657 2397l19-8"/><path class="s3" d="M4648 2399l11-3"/><path class="s3" d="M4472 2495l-22 11-17 9-19 8-17 6-18 6-21 6"/><path class="s4" d="M4332 2585l36-10 25-6 18-7 18-7 19-7 18-9 24-13 24-13m23-15m39-25m15-10 13-8 1-1"/><path class="s3" d="M4332 2585l-13 3-12 5-12 4"/><path class="s3" d="M4361 2540l-16 4"/><path class="s3" d="M4219 2598l-43 28-25 17-25 14-25 12-18 10-19 8-20 7-19 7-23 6"/><path class="s3" d="M3971 2752l41-10 26-7 20-7 20-9 21-8 20-9 25-13 26-15 25-16 43-28 17-11 13-8 3-2"/><path class="s3" d="M3971 2752l-14 4-12 5-13 5"/><path class="s3" d="M6677 1923l-13 7"/><path class="s3" d="M6677 1922l-13 7"/><path class="s3" d="M6649 1895a25 15-113.67385501589598 0 0 14 33"/><path class="s3" d="M6648 1883v13"/><path class="s3" d="M6615 1898l15-7"/><path class="s3" d="M6615 1898l-17-13"/><path class="s3" d="M6633 1848l-6-3h-4l-19 9-3 4-1 5-2 22"/><path class="s3" d="M6443 1929l4-46 1-5 4-3"/><path class="s3" d="M6481 1921v-15"/><path class="s3" d="M6517 1998l-3 22"/><path class="s3" d="M6514 2020l-13 6"/><path class="s3" d="M6482 2014l19 12"/><path class="s3" d="M6470 1966l-1 1"/><path class="s3" d="M6468 1979l1-12"/><path class="s3" d="M6467 1979a25 15-113.67385501589598 0 0 14 33"/><path class="s3" d="M6434 1981l14-6"/><path class="s3" d="M6434 1981l-16-12"/><path class="s3" d="M6453 1932v-1l-6-2h-5l-18 7-3 5-2 6-1 22"/><path class="s3" d="M6285 2001l5-46 1-4 2-3"/><path class="s3" d="M6323 1994l1-15"/><path class="s3" d="M6313 2039l-2 1"/><path class="s3" d="M6342 2099l14-7"/><path class="s3" d="M6359 2071l-3 21"/><path class="s3" d="M6342 2099l-16-13"/><path class="s3" d="M6310 2052a25 15-113.67385501589598 0 0 14 33"/><path class="s3" d="M6311 2040l-1 12"/><path class="s3" d="M6284 2002l-14 5"/><path class="s3" d="M6277 2054l14-6"/><path class="s3" d="M6277 2054l-17-12"/><path class="s3" d="M6296 2005l-1-1-5-2-6-1-17 9-4 4-1 6-2 22"/><path class="s3" d="M6209 2161l13-6"/><path class="s3" d="M6225 2133l-3 22"/><path class="s3" d="M6209 2161l-17-13"/><path class="s3" d="M6177 2114a25 15-113.67385501589598 0 0 14 33"/><path class="s3" d="M6177 2102l-1 12"/><path class="s3" d="M6150 2063l-14 7"/><path class="s3" d="M6143 2117l14-7"/><path class="s3" d="M6143 2117l-17-13"/><path class="s3" d="M6162 2067h-1l-5-4h-6l-17 9-4 4-1 6-2 22"/><path class="s3" d="M5801 2330l18 11"/><path class="s3" d="M5785 2295a25 15-113.67385501589598 0 0 14 33"/><path class="s3" d="M5787 2283l-1 12"/><path class="s3" d="M5753 2297l14-7"/><path class="s3" d="M5753 2297l-18-12"/><path class="s3" d="M5771 2248v-1l-5-2-6-1-17 8-3 4-3 7-2 22"/><path class="s3" d="M5446 2494l18 11"/><path class="s3" d="M5431 2460a25 15-113.67385501589598 0 0 14 33"/><path class="s3" d="M5432 2447l-1 12"/><path class="s3" d="M5406 2408l-14 7"/><path class="s3" d="M5398 2461l13-7"/><path class="s3" d="M5398 2461l-17-12"/><path class="s3" d="M5416 2411l-6-2-4-1-19 9-2 3-3 7-1 22"/><path class="s3" d="M5282 2590l14-7"/><path class="s3" d="M5298 2561l-2 22"/><path class="s3" d="M5282 2590l-17-13"/><path class="s3" d="M5279 2570l-14 6"/><path class="s3" d="M5250 2543l1-12"/><path class="s3" d="M5249 2543a25 15-113.67385501589598 0 0 14 33"/><path class="s3" d="M5223 2493l-13 5"/><path class="s3" d="M5217 2545l14-7"/><path class="s3" d="M5217 2545l-19-12"/><path class="s3" d="M5235 2496v-1l-5-2-6-2-17 10-4 3-2 7-3 22"/><path class="s3" d="M5095 2603l-2 1"/><path class="s3" d="M5124 2662l14-6"/><path class="s3" d="M5140 2635l-2 21"/><path class="s3" d="M5122 2645l-14 6"/><path class="s3" d="M5124 2662l-16-11"/><path class="s3" d="M5122 2644l-14 6"/><path class="s3" d="M5093 2617a25 15-113.67385501589598 0 0 14 33"/><path class="s3" d="M5093 2604l-2 12"/><path class="s3" d="M5059 2618l14-7"/><path class="s3" d="M5102 2598v2"/><path class="s3" d="M5059 2618l-18-12"/><path class="s3" d="M5077 2569l-1-1-4-2-6-1-18 8-3 4-1 7-3 22"/><path class="s3" d="M4961 2665l-2 1"/><path class="s3" d="M4991 2725l13-7"/><path class="s3" d="M5007 2696l-3 22"/><path class="s3" d="M4969 2661l3-2"/><path class="s3" d="M4988 2705l-15 7"/><path class="s3" d="M4991 2725l-18-13"/><path class="s3" d="M4988 2704l-14 7"/><path class="s3" d="M4958 2678a25 15-113.67385501589598 0 0 14 33"/><path class="s3" d="M4919 2633l9-4"/><path class="s3" d="M4925 2680l-18-12"/><path class="s3" d="M4945 2631h-1l-6-4h-5l-18 9-4 4-2 5-2 23"/><path class="s3" d="M4590 2835l15-6"/><path class="s3" d="M4590 2835l-16-12"/><path class="s3" d="M4610 2786h-2l-5-4h-5l-19 8-3 5v5l-2 23"/><path class="s3" d="M4222 2956l-1-2"/><path class="s3" d="M4227 3002l14-6"/><path class="s3" d="M4270 2982v3"/><path class="s3" d="M4227 3002l-18-11"/><path class="s3" d="M4245 2954l-1-1-4-2-6-1-18 8-3 5-1 5-3 23"/><path class="s3" d="M4083 2991l-12-9"/><path class="s3" d="M4092 3012a16 9-115.5943079816208 0 0-11-21"/><path class="s3" d="M4091 3028l1-15"/><path class="s3" d="M4111 3132l13-6"/><path class="s3" d="M4127 3103l-3 23"/><path class="s3" d="M4111 3132l-17-12"/><path class="s3" d="M4081 3072l-2 1"/><path class="s3" d="M4078 3085l1-12"/><path class="s3" d="M4079 3085a25 15-113.67385501589598 0 0 14 33"/><path class="s3" d="M4045 3087l14-6"/><path class="s3" d="M4045 3087l-17-13"/><path class="s3" d="M4064 3038l-6-3h-6l-17 8-4 5-1 4-2 22"/><path class="s3" d="M3899 3062l-4 46"/><path class="s3" d="M3913 3056a7 7-23.19859051364819 0 0-13 6"/><path class="s3" d="M3934 3085a16 9-115.5943079816208 0 0-11-21"/><path class="s3" d="M3933 31e2l2-15"/><path class="s3" d="M3969 3177l-1 22"/><path class="s3" d="M3968 3199l-15 6"/><path class="s3" d="M3936 3193l17 12"/><path class="s3" d="M3921 3158a25 15-113.67385501589598 0 0 14 33"/><path class="s3" d="M3922 3145l-1 13"/><path class="s3" d="M6362 1718l14-6"/><path class="s3" d="M6377 1690l-1 22"/><path class="s3" d="M6362 1718l-17-13"/><path class="s3" d="M6330 1671a25 15-113.67385501589598 0 0 14 33"/><path class="s3" d="M6330 1658l-2 13"/><path class="s3" d="M6296 1673l14-6"/><path class="s3" d="M6296 1673l-17-12"/><path class="s3" d="M6280 1643l-1 18"/><path class="s3" d="M6197 1773l-2 22"/><path class="s3" d="M6195 1795l-13 6"/><path class="s3" d="M6164 1789l18 12"/><path class="s3" d="M6152 1741l-3 1"/><path class="s3" d="M6148 1755l1-13"/><path class="s3" d="M6148 1754a25 15-113.67385501589598 0 0 14 33"/><path class="s3" d="M6115 1757l14-7"/><path class="s3" d="M6115 1757l-16-13"/><path class="s3" d="M61e2 1727l-1 17"/><path class="s3" d="M6023 1875l14-7"/><path class="s3" d="M6040 1847l-3 21"/><path class="s3" d="M6023 1875l-17-13"/><path class="s3" d="M5991 1828a25 15-113.67385501589598 0 0 14 33"/><path class="s3" d="M5958 1829l5 3h6l18-9"/><path class="s3" d="M5957 1829l-16-11"/><path class="s3" d="M5942 1799l-1 19"/><path class="s3" d="M5861 1876l-3 1"/><path class="s3" d="M5890 1936l14-6"/><path class="s3" d="M5906 1907l-2 23"/><path class="s3" d="M5890 1936l-17-13"/><path class="s3" d="M5858 1889a25 15-113.67385501589598 0 0 14 33"/><path class="s3" d="M5858 1877l-1 13"/><path class="s3" d="M5841 1883l-17 9-17-13"/><path class="s3" d="M5808 1861l-1 18"/><path class="s3" d="M5496 2098l18 12"/><path class="s3" d="M5516 2089l-2 21"/><path class="s3" d="M5514 2110l-14 7"/><path class="s3" d="M5481 2105l19 12"/><path class="s3" d="M5496 2097l-14 7"/><path class="s3" d="M5467 2071a25 15-113.67385501589598 0 0 14 33"/><path class="s3" d="M5434 2072l14-7"/><path class="s3" d="M5434 2072l-18-11"/><path class="s3" d="M5419 2036l-1 2-2 23"/><path class="s3" d="M5141 2263l18 12"/><path class="s3" d="M5160 2252l-1 23"/><path class="s3" d="M5159 2275l-14 6"/><path class="s3" d="M5127 2269l18 12"/><path class="s3" d="M5141 2262l-14 6"/><path class="s3" d="M5112 2235a25 15-113.67385501589598 0 0 14 33"/><path class="s3" d="M5112 2223v11"/><path class="s3" d="M5079 2236l14-6"/><path class="s3" d="M5079 2236l-17-11"/><path class="s3" d="M5064 22e2l-1 3-1 22"/><path class="s3" d="M4963 2366l14-7"/><path class="s3" d="M4980 2337l-3 22"/><path class="s3" d="M4963 2366l-18-13"/><path class="s3" d="M4960 2346l-14 6"/><path class="s3" d="M4931 2319l1-13"/><path class="s3" d="M4930 2319a25 15-113.67385501589598 0 0 14 33"/><path class="s3" d="M4897 2320l14-7"/><path class="s3" d="M4897 2320l-17-11"/><path class="s3" d="M4883 2284l-1 2-2 23"/><path class="s3" d="M4805 2438l14-7"/><path class="s3" d="M4821 2410l-2 21"/><path class="s3" d="M4802 2419l-13 7"/><path class="s3" d="M4805 2438l-16-12"/><path class="s3" d="M4802 2418l-13 7"/><path class="s3" d="M4776 2378l-2 2"/><path class="s3" d="M4773 2391l1-11"/><path class="s3" d="M4773 2392a25 15-113.67385501589598 0 0 14 33"/><path class="s3" d="M4740 2394l14-7"/><path class="s3" d="M4740 2394l-17-12"/><path class="s3" d="M4725 2357v2l-2 23"/><path class="s3" d="M4671 2501l14-7"/><path class="s3" d="M4688 2472l-3 22"/><path class="s3" d="M4669 2481l-15 7"/><path class="s3" d="M4671 2501l-17-13"/><path class="s3" d="M4669 2480l-14 7"/><path class="s3" d="M4642 2440l-2 1"/><path class="s3" d="M4639 2454l1-13"/><path class="s3" d="M4639 2454a25 15-113.67385501589598 0 0 14 33"/><path class="s3" d="M4606 2455l14-6"/><path class="s3" d="M4606 2455l-17-12"/><path class="s3" d="M4591 2419l-1 1-1 23"/><path class="s3" d="M4286 2603l5 2 6 1"/><path class="s3" d="M4271 2610l15-6"/><path class="s3" d="M4271 2610l-17-13"/><path class="s3" d="M4256 2574v1l-2 22"/><path class="s3" d="M3908 2779l-17-13"/><path class="s3" d="M3893 2743v1l-2 22"/><path class="s3" d="M6857 1751l-48 39-16 11-25 19-25 15-26 14-74 35"/><path class="s3" d="M6747 1790l24-17 15-11 40-33"/><path class="s3" d="M6747 1790l-22 14-25 12-74 35"/><path class="s3" d="M66e2 1864l-9 5-37 23-15 7-15 7-14 7-14 5-14 4"/><path class="s3" d="M6615 1897l-6 4-37 22-18 9-14 8-16 7-14 6-36 10-7 3-9 3"/><path class="s3" d="M6488 1920l-28 9-8 3-9 4"/><path class="s3" d="M6433 1981l-2 2-33 20-14 8-13 6-14 5-12 5-31 10-12 5"/><path class="s3" d="M6419 1948l-7 3-31 19-13 8-13 6-13 6-11 3-31 10-8 3-7 4"/><path class="s3" d="M6277 2054l-2 1-18 10-14 9-15 8-17 7-16 5-17 5-10 5"/><path class="s3" d="M6262 2021l-6 2-16 11-14 8-14 7-15 6-15 6-17 4-13 6"/><path class="s4" d="M6143 2115l-9 5-10 5m-10 7m-66 40-15 8-18 11-19 9-18 10-18 8-17 8-18 7-34 13-78 24-19 6-17 9"/><path class="s4" d="M6128 2083l-10 5-20 10-9 6m-73 44m-7 5-11 6-18 9-18 9-17 8-17 7-18 8-33 12-77 24-20 8-18 8"/><path class="s3" d="M5752 2297l-7 2-17 11-72 44-33 18-32 16-32 14-31 11-74 22-16 7-17 7"/><path class="s3" d="M5737 2263l-8 4-19 10-72 46-31 16-32 16-31 13-30 12-74 23-17 6-16 8"/><path class="s3" d="M5382 2427l-8 5-37 22-16 9-14 7-15 7-14 5-13 5"/><path class="s3" d="M5397 2461l-7 4-37 23-15 8-16 7-15 7-15 5-36 11-8 4-8 3"/><path class="s3" d="M5269 2484l-26 9-10 3-8 5"/><path class="s3" d="M5216 2545l-4 2-32 20-14 7-14 7-13 5-13 5-30 10-14 5"/><path class="s3" d="M5201 2512l-6 3-33 19-12 7-13 7-13 5-12 5-30 9-7 3-8 3"/><path class="s3" d="M5059 2618l-2 1-17 11-15 8-16 7-16 8-17 5-16 6-12 4"/><path class="s3" d="M5044 2584l-5 3-17 10-14 8-14 7-16 7-15 5-17 6-13 5"/><path class="s4" d="M4924 2680l-5 2-17 10m-67 40-31 18-29 14-31 14-30 10-68 23-17 5-15 7"/><path class="s4" d="M4909 2646l-7 4-17 10-13 9m-54 32m-24 13-5 2-30 15-28 13-31 12-68 20-17 7-16 6"/><path class="s3" d="M4590 2835l-7 3-19 11-72 44-32 17-33 17-34 15-32 12-77 24-16 6-17 7"/><path class="s3" d="M4576 2801l-11 5-18 10-71 44-33 18-32 16-32 14-32 12-77 24-16 7-19 7"/><path class="s3" d="M4202 2974l-37 23-15 8-15 8-14 5-14 6-14 4"/><path class="s3" d="M4227 3002l-7 4-37 23-17 9-16 7-15 7-14 6-36 10-8 4-8 2"/><path class="s3" d="M4099 3027l-28 9-8 2-10 4"/><path class="s3" d="M4045 3086l-4 2-32 21-15 7-13 6-13 7-12 4-32 10-12 5"/><path class="s3" d="M4030 3053l-6 4-32 19-13 8-13 5-12 6-12 4-32 10-7 3-7 3"/><path class="s3" d="M6863 1755l-6 8-10 10-35 46-18 21-19 20-18 17-2 1-21 15-19 12-20 10"/><path class="s3" d="M6733 1849l-17 13-19 10-18 11-11 3"/><path class="s3" d="M6648 1896l-5 4-31 19-13 9-12 6-13 7-13 5-13 5-11 3"/><path class="s3" d="M6664 1930l-4 1-29 20-13 7-14 8-14 7-14 6-14 5-16 6-21 6-8 2"/><path class="s3" d="M6519 1997l-13 4"/><path class="s3" d="M6468 1981l-5 2-26 17-11 6-10 7-11 5-10 4-11 4-10 3"/><path class="s3" d="M6483 2014h-1l-26 17-11 7-12 6-12 5-11 6-12 5-15 4-26 7"/><path class="s3" d="M6360 2071l-11 3"/><path class="s3" d="M6326 2086l-24 16-11 6-16 9-19 7-9 3-4 1-22 5"/><path class="s3" d="M6224 2133l-9 3"/><path class="s3" d="M6233 2093l17-7 17-7 16-9 24-15 3-2"/><path class="s4" d="M6176 2114l-6 4-16 9-15 9m-5 4m-47 30m-17 11-10 7-23 12-22 12-22 11-21 8-20 9-19 7-28 7"/><path class="s4" d="M6192 2147l-4 3-16 7m-18 13m-48 32m-14 8-15 9-23 13-22 13-22 9-21 10-21 9-22 7-31 9-45 12-20 5"/><path class="s3" d="M5850 2307l-10 4-14 6"/><path class="s3" d="M5786 2296l-6 2-13 8-18 12-43 28-25 15-22 12-20 10-17 9-20 9-18 7-19 7-24 7"/><path class="s3" d="M5802 2328l-3 2-14 8-17 10-44 28-25 16-21 13-21 11-20 9-18 8-20 8-20 7-27 8-43 11-16 5"/><path class="s3" d="M5495 2472l-13 4-12 5"/><path class="s3" d="M5431 2460l-7 3-30 20-12 7-13 8-12 6-14 6-13 5-12 3"/><path class="s3" d="M5446 2493l-2 2-31 19-13 9-14 7-13 8-14 5-14 5-17 5-21 6-9 2"/><path class="s3" d="M5302 2561l-13 4"/><path class="s3" d="M5250 2544l-5 2-26 18-11 6-11 5-10 6-11 5-10 4-11 4"/><path class="s3" d="M5265 2577l-27 18-12 6-11 8-12 5-12 5-11 4-12 4h-3l-26 8"/><path class="s3" d="M5141 2633l-10 5"/><path class="s3" d="M5108 2650l-24 16-10 5-17 9-18 8-10 3-3 1-22 5"/><path class="s3" d="M5005 2697l-8 4"/><path class="s3" d="M5016 2657l16-6 16-7 17-11 23-14 3-2"/><path class="s4" d="M4958 2679l-4 1-14 9-17 11m-40 26m-23 14m-7 3-13 9-19 9-17 8-18 7-18 9-16 5-23 7"/><path class="s4" d="M4974 2711l-4 1-11 7-5 4m-10 7m-42 27m-25 15-18 11-21 10-18 9-18 8-19 7-17 6-27 9-40 11-15 4"/><path class="s3" d="M4686 2846l-11 4-12 6"/><path class="s3" d="M4623 2835l-5 1-15 9-18 12-44 28-26 16-21 12-20 11-19 8-20 10-19 7-19 7-24 8"/><path class="s3" d="M4639 2867l-4 1-13 8-18 11-43 29-27 16-22 12-21 12-21 10-20 8-18 8-21 7-28 8-43 12-17 5"/><path class="s3" d="M4326 3014l-13 3-13 6"/><path class="s3" d="M4259 3002l-5 4-31 19-12 7-13 7-13 7-13 5-13 6-12 4"/><path class="s3" d="M4276 3036l-4 1-30 20-13 7-14 8-14 7-14 6-14 6-15 4-23 6-7 2"/><path class="s3" d="M4078 3086l-4 2-26 18-11 6-10 6-11 5-11 5-11 4-10 3"/><path class="s3" d="M4094 3120h-1l-26 16-11 8-12 6-13 6-11 4-12 5-14 5-26 7"/><path class="s3" d="M6390 1722l-369 172"/><path class="s3" d="M5175 2285l-372 171"/><path class="s3" d="M4677 2875a15 8-57.67308797097334 0 0 12-18"/><path class="s3" d="M4693 2844l-1 1-1 9-1 4"/><path class="s3" d="M4635 2877a15 8-57.67308797097334 0 0 9 7"/><path class="s3" d="M4635 2869v5l-1 4"/><path class="s3" d="M4592 2712l4 2 8 5 4 5 2 4 1 4 1 3 3 4 27 19 4 3 1 4 8 3 2 1"/><path class="s3" d="M4593 2712a15 8-57.67308797097334 0 0-14 15"/><path class="s3" d="M4579 2727a25 8-73.46866876736148 0 0 0 26"/><path class="s3" d="M4604 2774l-23-17-4-4"/><path class="s3" d="M4590 2714l-3-4-2-5-3-1-10-7-7-3-7-2-7-1-3-2-3-2-5-2-75-52-3-2"/><path class="s3" d="M4572 2750l-2 1-3-1-105-75-4-3-1-4"/><path class="s3" d="M4427 2605l24 17 4 3 2 5v5l-2 26-1 4"/><path class="s3" d="M4454 2665l-3 2-4-2-67-48"/><path class="s3" d="M4552 2801l-210-148"/><path class="s3" d="M7058 1893l-727 335"/><path class="s3" d="M6268 2289v2"/><path class="s3" d="M5890 1936l14-6"/><path class="s3" d="M5906 1907l-2 23"/><path class="s3" d="M5890 1936l-17-13"/><path class="s3" d="M5861 1876l-3 1"/><path class="s3" d="M5857 1890l1-13"/><path class="s3" d="M5858 1889a25 15-113.67385501589598 0 0 14 33"/><path class="s4" d="M6192 2149v8 4l3 12v6m3 16m0 3m4 19m2 2m5 5m3 1m3-1m4-3m5-2m3-4m4-5m8-29 14-43 1-5 1-8"/><path class="s3" d="M6214 2048l-4-2-3-2-1-2-2-4-4-3-51-35-2-2"/><path class="s3" d="M6178 2061l-31-22-4-3-2-4-1-5 2-24 2-3 3-2"/><path class="s3" d="M6141 1997l-2-5-3-2-111-79-4-1"/><path class="s3" d="M6138 2031l-3 1-3-1-111-78-3-4-2-5-1-4 3-26 1-3 2-1"/><path class="s3" d="M5980 1879l31 22 3 4"/><path class="s3" d="M6013 1942l-2 1-4-1-64-45"/><path class="s3" d="M5948 1855l-14-10"/><path class="s3" d="M6112 2079l-210-148"/><path class="s3" d="M7117 1934l-612-431"/><path class="s3" d="M6546 1482l-28-19"/><path class="s3" d="M6546 1482v2"/><path class="s3" d="M6546 1484l-856 4e2"/><path class="s3" d="M6268 2291l863-392"/><path class="s3" d="M4450 3951l616 433"/><path class="s3" d="M5662 3387l629 443"/><path class="s3" d="M6520 2986v-3"/><path class="s3" d="M2168 4994l619 436"/><path class="s3" d="M2770 5101l2 6"/><path class="s3" d="M3897 4918l-618-434"/><path class="s3" d="M2169 4990l-5 3-26 10-42 15-22 11-597 277 622 441 691-317 1109-506 1173-537 1221-555 866-396-639-453-858 401-1212 564-1171 536-1107 506"/><path class="s3" d="M2659 5099c0 4 1 8 5 12 3 4 7 8 13 12 5 3 11 7 17 8"/><path class="s3" d="M2694 5131c12 4 25 5 37 4 11-1 22-4 29-11 7-6 11-16 11-23"/><path class="s3" d="M2771 5101c-6-21-50-33-80-27-23 4-37 20-32 35"/><path class="s3" d="M3223 3513l-2 19"/><path class="s3" d="M1484 3781l-193 90"/><path class="s3" d="M2105 4219l-181 83"/><path class="s3" d="M7156 1916l138-58"/><path class="s3" d="M6520 1470l150-68"/><path class="s3" d="M7128 1942l93 68"/><path class="s3" d="M6486 1486l-117-83"/><path class="s3" d="M2105 4219l192 131"/><path class="s3" d="M1484 3781l-131-92"/><path class="s3" d="M2797 3842l5 4"/><path class="s3" d="M3551 3133v1"/><path class="s3" d="M2732 3815v-3"/><path class="s3" d="M2230 3549l6 1h4 2"/><path class="s3" d="M2230 3549l10 1"/><path class="s3" d="M2735 39e2l-6-5h-1"/><path class="s3" d="M2182 3516l-4-9"/><path class="s3" d="M2651 3764l10 7 3 5 3 7"/><path class="s3" d="M3813 3287l9-9 5-2 5 4 2 5 3 18"/><path class="s3" d="M3845 3291l4 4v15"/><path class="s4" d="M3358 2969l40 30 56 44z"/><path class="s3" d="M3483 3068l42 31"/><path class="s3" d="M3561 3124l38 29"/><path class="s3" d="M3639 3180l37 26"/><path class="s3" d="M3718 3234l36 25"/><path class="s3" d="M3794 3283l26 17"/><path class="s3" d="M3832 3305l-6 18"/><path class="s3" d="M3810 3306l4 13"/><path class="s3" d="M3838 3310l16 10 10 9 45 6 28 4 6 2"/><path class="s3" d="M3882 3342l30 4 5 9"/><path class="s3" d="M3294 3006l-6-11"/><path class="s3" d="M3350 2985l-7-16"/><path class="s5" d="M2181 3514l-5-13"/><path class="s5" d="M2237 3490l-2-16"/><path class="s5" d="M2728 3894l8 7"/><path class="s3" d="M3841 3385l10 9"/><path class="s4" d="M3834 3386l57-27-48-32-19 2-34-23-5-18-20-14-19-1-37-24-4-18-17-12-22-1-33-23-5-18-19-13h-22l-33-24-4-18-19-13h-18l-38-27-2-17-19-11h-20l-37-27-1-18-46-26-54 25 48 34h14l41 26v12l22 17h17l42 28v14l22 14h14l40 26v14l22 15h21l35 24 1 17 22 13 15-1 38 27 2 17 22 13 14-1 41 27 3 15z"/><path class="s4" d="M2182 3516l43 32 27 4 32 22 5 21 23 12 20 1 32 22 2 19 23 13 20-1 35 28v14l22 12h19l39 29-3 12 16 12 29 2 34 27v15l23 15h21l36 27-2 12 42 29 54-24-44-34-18 2-38-27 1-13-18-14-21-1-35-24-5-17-20-15h-19l-39-26-2-16-21-15h-19l-33-26-4-14-21-14-16 1-41-28v-16l-19-12h-21l-38-27v-14l-43-30z"/><path class="s3" d="M2242 3480l54 40 46 33"/><path class="s3" d="M2370 3574l46 33"/><path class="s3" d="M2448 3630l46 33"/><path class="s3" d="M2527 3685l46 33"/><path class="s3" d="M2606 3742l46 34"/><path class="s3" d="M2682 3796l35 26"/><path class="s3" d="M2713 3810l11-9 7 2 2 6-1 20"/><path class="s3" d="M2755 3847h46l22 2 6 1"/><path class="s3" d="M4467 2470l-8-13"/><path class="s3" d="M4520 2444l-3-13"/><path class="s4" d="M4468 2472l54-25 42 30 7 17 33 23h19l21 14 3 14 34 26 21 2 21 14 2 15 36 24 19 1 21 14 1 15 38 25 18 1 19 13 3 17 38 26 15-2 22 13 2 16 36 25h18l47 33-54 28-42-28-4-14-37-29-15-1-21-11-3-16-35-26h-20l-21-14-5-17-34-26h-20l-21-14 1-12-39-27-14 1-27-18 1-11-37-27-17 1-21-13-2-15-36-28-22-1z"/><path class="s3" d="M4540 2437l80 65"/><path class="s3" d="M4653 2527l39 30"/><path class="s3" d="M4739 2594l33 20"/><path class="s3" d="M4812 2645l39 24"/><path class="s3" d="M4892 2696l41 28"/><path class="s3" d="M4967 2746l42 28"/><path class="s3" d="M4981 2747l9-7 10-1 7 6-2 14"/><path class="s3" d="M5018 2757l4 31 32 4 46 3 11 2 9 5"/><path class="s3" d="M5043 2803l44 6 2 6"/><path class="s3" d="M5013 2848l10 7"/><path class="s3" d="M5064 2820l12 10"/><path class="s3" d="M5685 1908l-4-14"/><path class="s3" d="M5739 1884l-3-14"/><path class="s4" d="M5739 1884l-54 25 46 33h17l40 24 3 18 23 15 18-2 32 25 2 14 28 19h16l32 22 1 13 21 17 21 1 35 24 3 15 24 15h14l39 24 2 18 21 13h23l33 25v13l47 32 51-24-49-35-16-1-36-24-3-16-15-11-20-2-41-27-1-15-20-14-15 3-42-30-1-13-19-14h-18l-39-27-2-11-25-19-15 3-38-32 1-12-21-12h-16l-37-28-2-12z"/><path class="s3" d="M5763 1878l76 62"/><path class="s3" d="M5874 1968l39 27"/><path class="s3" d="M5955 2029l30 20"/><path class="s3" d="M6032 2082l35 23"/><path class="s3" d="M6106 2132l103 67"/><path class="s3" d="M62e2 2184l9-9h10l6 6-1 13-9 24"/><path class="s3" d="M6236 2191l3 24 13 10 39 2 26 3 14 5 6 10"/><path class="s3" d="M6261 2238l41 7 4 16"/><path class="s3" d="M6233 2286l12 10"/><path class="s3" d="M6281 2262l18 12"/><g><path class="s6" d="M1949 5802c-5-3-10-5-16-5-6-1-11-1-17 0-5 1-11 3-16 5l-111 64-43-25c-7-5-16-8-25-7-9 0-18 2-26 7-8 5-14 11-18 19l-125 233c-4 7-6 15-6 23 0 8 2 17 6 24 4 8 10 14 17 18l123 88 42 24c10 7 22 9 33 7 12-2 22-9 30-18 8-9 13-20 12-32v-49l179-102c5-2 10-6 13-10 4-5 7-10 9-15 2-6 3-12 3-18V5868c0-6-1-12-3-17-2-5-5-11-9-15-3-5-8-8-13-11l-39-23" fill-rule="evenodd"/></g><path class="s7" d="M1925 5846l38 22v165l-204 116v78l-38-22-125-89 125-232 38 22v32m-38-54v78l204-116v165l38 22m-38-22-204 116 38 22m-38-22v78"/><text transform="matrix(0.863 -0.493 -0 1 232.603 837.37)" x="1698" y="6095"><tspan class="f3 s8" font-size="101.389">FWD</tspan></text><path class="s9" d="M2103 4252 7210 1936l18-9-697-499L1449 3774l-10 6 664 473"/><g><path class="s10" d="M4470 6695v283c0 9-2 17-7 25-4 7-11 14-18 18-8 5-16 7-25 7H4137c-9 0-17-3-25-7-7-4-14-11-18-18-5-8-7-16-7-25V6695c0-9 3-18 7-25 4-7 11-14 18-18 8-5 16-7 25-7h283c9 0 18 2 25 7 7 4 14 11 18 18 5 8 7 16 7 25" fill-rule="evenodd"/></g><path class="s11" d="M4137 6695h283v283H4137z"/><text x="4204" y="6912"><tspan class="f3 s8" font-size="206.944">B</tspan></text><path class="s3" d="M1473 3722V3295"/><path class="s12" d="M1477 3851V5195"/><path class="s13" d="M1477 3819V5227"/><path class="s3" d="M6521 1446V1133"/><path class="s12" d="M6520 1535V2879"/><path class="s13" d="M6520 1503V2911"/><path class="s3" d="M2194 5399l17-17 60-10 17-17"/><path class="s14" d="M2241 5377l-2 153 59-11z"/><path class="s3" d="M2361 6032l-120-655"/><path class="s3" d="M3103 4979l17-17 60-10 17-17"/><path class="s14" d="M3150 4957l-2 153 59-11z"/><path class="s3" d="M3270 5612l-120-655"/><path class="s3" d="M4234 4484l17-17 60-10 17-17"/><path class="s14" d="M4281 4462l-2 153 59-11z"/><path class="s3" d="M4401 5117l-120-655"/><path class="s3" d="M5437 3923l17-17 60-10 17-17"/><path class="s14" d="M5484 3901l-2 153 59-11z"/><path class="s3" d="M5604 4556l-120-655"/><path class="s3" d="M6452 3440l17-17 60-10 17-17"/><path class="s14" d="M6499 3418l-3 153 60-11z"/><path class="s3" d="M6619 4074l-120-656"/><path class="s14" d="M4112 2539l11-153-59 8z"/><path class="s3" d="M4031 1883l81 656"/><text x="1359" y="3129"><tspan class="f2 s8" font-size="123.611">STA</tspan></text><text x="1325" y="3254"><tspan class="f2 s8" font-size="104.01">849.0</tspan></text><text x="6389" y="961"><tspan class="f2 s8" font-size="123.611">STA</tspan></text><text x="6320" y="1086"><tspan class="f2 s8" font-size="104.23">1073.0</tspan></text><text x="2142" y="6166"><tspan class="f2 s8" font-size="123.611">ACCESS</tspan></text><text x="2142" y="6290"><tspan class="f2 s8" font-size="116.517">PANEL, 129A</tspan></text><text x="3069" y="5747"><tspan class="f2 s8" font-size="123.611">ACCESS</tspan></text><text x="3069" y="5871"><tspan class="f2 s8" font-size="123.611">PANEL, 129B</tspan></text><text x="4194" y="5245"><tspan class="f2 s8" font-size="123.611">ACCESS</tspan></text><text x="4194" y="5370"><tspan class="f2 s8" font-size="117.278">PANEL, 129C</tspan></text><text x="5396" y="4690"><tspan class="f2 s8" font-size="123.611">ACCESS</tspan></text><text x="5396" y="4815"><tspan class="f2 s8" font-size="116.225">PANEL, 129D</tspan></text><text x="6414" y="4205"><tspan class="f2 s8" font-size="123.611">ACCESS</tspan></text><text x="6414" y="4330"><tspan class="f2 s8" font-size="123.611">PANEL, 129E</tspan></text><text x="3575" y="6626"><tspan class="f3 s8" font-size="123.611">FORWARD KEEL BEAM</tspan></text><text x="3554" y="1734"><tspan class="f2 s8" font-size="123.611">INSPECTION AREA</tspan></text><text x="3554" y="1859"><tspan class="f2 s8" font-size="115.355">(ZONE 129)</tspan></text></svg>