<svg xmlns="http://www.w3.org/2000/svg" height="10in" viewBox="0 0 7777 10005" width="7.78in"><defs><style>.f1{font-family:Consolas,Courier New,monospace}.f2{font-family:Helvetica,Arial,sans-serif}.f3{font-family:Helvetica,Arial,sans-serif;font-weight:700}.f4{font-family:Times}.f5{font-family:Times;font-weight:700}.f6{font-family:Courier}.f7{font-family:Courier;font-weight:700}.f8{font-family:Symbol}.s14{fill:none;stroke:#fff;stroke-width:58}.s5{fill:none;stroke:#000;stroke-width:8}.s10{fill:#fff}.s11{fill:none;stroke:#000;stroke-dasharray:120,40;stroke-width:20}.s6{fill:none;stroke:#f0f;stroke-dasharray:40,20;stroke-width:16}.s1{fill:#ffc}.s8{fill:#000}.s7{fill:none;stroke:#f0f;stroke-width:16}.s9{fill:none;stroke:#00f;stroke-width:20}.s3{fill:#cff}.s4{fill:#ccc}.s15{fill:#000;stroke:#000;stroke-width:8}.s13{fill:none;stroke:#00f;stroke-width:12}.s12{fill:#fff;stroke-dasharray:120,40}.s2{fill:none;stroke:#000;stroke-width:10.005}</style></defs><g><path class="s1" d="M4131 976h-27c-10-16-17-36-26-53-3-7-7-14-11-20-4-7-9-14-14-21-5-7-10-13-15-19-6-7-12-14-18-19l-17-18-20-21 20-388-1-12-9-16-7-2-3 3-5 6-71 331v2l-31-28-236-213-149-124c-37-33-73-67-112-98-62-49-131-89-202-126-70-35-143-67-218-87-57-14-116-23-174-29-61-6-123-10-184-7-74 4-149 17-217 46-41 18-80 41-115 71-11 9-21 19-31 29L2026 369c-27 29-53 58-77 89-29 37-54 77-74 120-17 34-31 71-37 109-7 43-3 89 11 130 19 58 58 108 102 152 50 50 105 93 166 125 25 13 51 24 76 39l-1 14-7 1-7 6c-1 3-3 6-5 9-3 8-5 16-5 24-1 10-2 20-3 29 0 16-1 31-1 47 0 20 2 40 3 60l286 70c-1-8-2-17-3-25-3-26-4-52-3-78 0-23 2-45 4-67l19 6-1 27c1 13 2 27 3 40 1 12 2 23 4 34 4 19 8 38 13 57l112 15-3 13 1 8 4 5 6 2 8-1h21v9l4 6-1 26 42 1h26v34c-11-2-21-4-32-4-10-1-21-1-31 1-7 2-15 4-21 9-8 5-16 13-21 22-10 13-16 29-20 45-4 18-5 38-5 57 0 9 1 17 2 25 2 14 6 26 12 38 3 8 8 16 13 23 5 5 12 10 19 13 9 4 19 4 30 5 12 1 23 1 35 0 7-2 15-4 21-8 10-7 16-16 22-26 6-12 11-24 15-37l6 31c1 5 3 9 5 14 4 6 8 13 14 18 6 5 15 8 24 9 13 3 25 5 38 4 11 0 23-2 34-8 12-6 21-17 28-29 10-18 14-37 16-57 2-19 3-37 1-56-1-12-3-24-7-35-3-12-8-23-15-32-5-6-12-12-20-15-8-4-16-6-24-7-11-2-22-1-33 0l-6-9 18-33-4-18-8 2-8-10 2-17-7-1-7 7-10-11 6-21 89 17 19-61 9-41 1-7 18-1 310 2 4 69-28-1-9 4-10-2h-31c-3 2-6 4-9 6-5 4-8 11-10 17-3 11-3 22-4 33 0 8 0 16 1 23 0 6 2 12 3 18 2 8 4 15 8 20 3 4 6 6 9 8h35l9-3 8-1h25l11-6 12-20 3 9 5 12 6 8 6 1h37l14-4 20 1 10-6c2-4 4-8 6-11 8-15 8-32 8-49 0-15 1-30-6-43-3-5-7-10-11-15h-36-10-36l-8-11 3-15 60-42 27 4h37l33-3 9 1c4 0 7 0 10 0 4 1 10 1 14 3 4 1 8 2 12 3 5 1 9 1 13 1l125-2 43-1-2 95v20l-10 41-11 32 66-14 4 11 183-31-13-51-2-28-3-85 43-2 18-2c10-3 21-6 31-10 13-6 26-14 37-24 11-10 21-22 31-35l9 19 24 18-18-55 4-7 8 4 24 28 16-14-32-33 126-26-1 17-1 25-4 17 1 74 4 2-2 7-3 4h-5v-4l-18-15-1-2-24-29-5-1-11-13-4-4-15-11v-3l-5-5-16 14 9 9 6 9 6 5 5 7 7 5v4l32 28h4l5 9 4 4 6 5h2v16l6 4 15 1 6 1 1 2v5l-5 3-1 11-7-1-11-2-3 4-2 9v4l1 6 20 5v19l-7 6-4 7h-13l-1-20c0-4 0-7-2-10-1-4-3-8-6-10-3-1-6-1-9-2h-28c-2 0-4 0-6 1-2 0-4 2-5 4-2 3-3 7-4 11 0 4-1 9-1 13-1 7-1 14-1 21 0 6-1 12-1 17 0 6 1 11 1 16 0 8 0 16 1 24 0 6 1 12 1 18 0 2 0 3 1 4 0 2 2 3 4 5 2 1 4 2 7 1h35c2-1 5-2 7-3 3-2 5-6 7-9 1-5 2-10 2-15l-1-28h12l13 4 19 2 9-4h20l3 43c0 1 0 2 1 3 1 3 3 6 5 8 3 2 5 2 8 2h38c1-1 3-2 4-3 2-2 3-6 3-10 1-5 2-11 2-16 1-20 1-41 0-61-1-11-2-22-3-34 0-2 0-4-1-5 0-2-2-4-4-4-3-2-7-2-11-3-10 0-18 0-27 0-2 0-5 0-7 1-3 1-4 4-5 6-1 3-2 5-2 7-1 9-2 18-3 26l-8-1-3-5-9-5v-19l14-2 7-6 1-3-1-18-13 2-3-9-3-3 1-49 4 3 6 12v19l12 21 1-1v-45l-5-138-7-20 371-75-7 20c-4 12-8 24-11 36-4 19-7 38-7 57-1 15 0 30 2 45 2 17 6 33 12 49 6 17 15 32 25 47 13 19 28 38 45 54 19 19 43 34 67 46 30 14 63 25 96 28 25 3 49 3 73 0 23-2 46-6 68-13 27-8 52-20 76-35 25-16 47-36 66-58 18-21 32-44 43-69 11-28 17-59 17-90 1-32-5-64-17-93-12-31-30-59-52-84-5-6-11-12-16-18l20-4 78-9 5 12c1 2 2 5 4 7 4 6 14 5 22 4 11-1 20-4 29-7 8-4 17-8 24-14 5-4 9-10 13-16h6l331-44-3 9v10l2 7 5 5h4l59-19 8-7 5-8 1-8 247-32 4-29-8-20-6 2-989 91c-14-3-28-6-42-8-24-2-47-2-71 3-14 2-29 6-43 9l-44 5-610 39" fill-rule="evenodd"/></g><g><path class="s1" d="M2911 1288c0-4 0-9 0-14 0-4-1-7-3-11-1-1-3-3-4-4-2-2-4-2-6-2l-85-24-10-6-198-87-5-1-4 2-8 8c-4 1-7-2-11-5-8-5-17-6-26-5-6 0-12 1-18 3-16 3-31 9-47 14-24 7-49 11-74 14-25 3-51 5-76 3-18-2-36-5-54-10-20-5-40-12-60-19-10-3-20-7-29-11l-2 14-6 1-7 6c-2 3-4 6-5 9-3 8-5 16-6 24-1 10-2 20-2 29-1 16-2 31-1 47 0 20 1 40 3 60l285 70c-1-8-2-17-3-25-3-26-4-52-3-78 1-23 3-45 4-67l19 6v27c0 13 1 27 2 40 1 12 3 23 5 34 4 19 8 38 12 57l113 15-4 13 2 8 3 5 7 2 7-1h22v9l4 7-1 25 41 1h26v34c-10-2-21-4-32-4-10-1-20-1-30 1-7 2-15 4-21 9-8 5-16 13-21 22-10 14-16 30-20 46-4 18-5 38-5 57 0 8 0 16 2 24 2 14 6 27 12 39 3 8 8 16 13 22 5 5 12 10 19 13 9 4 19 4 29 5 12 1 24 1 36 0 7-2 15-4 21-8 10-7 16-16 22-26 6-12 11-24 15-37l5 32c2 4 4 8 6 13 4 6 7 13 13 18 7 5 16 8 25 10 13 2 25 4 38 4 11-1 23-3 33-9 12-6 21-17 28-29 10-18 15-37 17-57 2-19 3-37 1-56-1-12-3-24-7-35-3-12-8-23-15-32-5-6-12-12-20-15-8-4-16-6-24-7-11-2-22-1-34 0l-5-9 17-32-3-19-8 2-8-9 1-18-7-1-7 7-10-11 7-21 89 17 18-61 9-41 2-9 2-12" fill-rule="evenodd"/></g><path class="s2" d="M5856 6861l3 1"/><g><path class="s3" d="M2871 6444c22-25 42-51 65-77 18-20 37-40 52-60 10-13 18-27 25-41 7-15 14-30 18-47 5-16 7-34 7-50 0-11-2-22-2-33l-7-25-4-13-7-14-10-14-1-1-2-6-2-7-3-7c-7-19-17-37-31-50-7-7-15-14-25-19-10-6-21-12-32-15-14-4-29-3-44-5-7-1-15-3-23-5h-17l-4 26-7 15-5 21-190-360-147-293-179-357-311-640-11-26 4-3 49-40 41-41 32-45 24-44 13-44 4-42-6-40-34-82-6-16-3-9-2-7c-4-13-10-25-18-35-8-10-17-18-28-24-19-12-41-20-64-29-17-6-35-13-57-20-23-6-52-12-70-14l-77-11h-3l-222-481-243-537-141-302h-1H7447v6l-14 43-32 95-474 967-128 263-20 5-33 16-12 10-7 15-10 2-71 8c-18 2-44 6-67 12-20 5-37 11-54 17-21 7-41 13-59 24-10 6-19 14-27 23-8 9-14 19-18 31l-3 9-1 5-7 16-33 75-8 37 3 40 11 41 21 42 28 42 38 40 40 35 4 4 4 2-73 145-133 260-119 230-94 179-84 163-80 146-72 134-67 123-62 111-29 54-17-60-3 1-11 8 2 21-12 11-8 13-13 1c-8 2-16 4-23 5-15 3-30 2-45 6-11 4-22 9-31 15-10 6-18 11-25 19-14 13-24 31-32 50l-6 13-11 22-7 15-4 12-7 25c0 11-2 22-2 33 0 16 2 33 7 49 4 17 11 32 18 47 7 15 15 29 24 42 15 21 34 41 52 61 16 18 31 36 46 54l-8 7-90 79-108 88-61 47-12 9 151 59 114 45 129 74c10 9 47 21 86 34 1 1 2 1 4 1 4 1 8 3 12 4 8 1 13-2 26 1 7 2 15 5 19 6 5-3 10-6 17-8l33-12v-2c-1-9-1-16-3-24-1-8-4-16-4-24 0-6 1-11 3-18 0-4 1-9 5-11 1-1 4-1 6-1 11 1 20 1 29 1l1 1 10 24 1 15-1 15 3 15 25 138 2 9 5 9 1 13v28l-2 16-5 11-31-3-8-6-2-12-6-39c-2-5-2-10-5-14-2-5-7-8-12-11-14-7-29-11-45-16-8-4-17-7-24-14-6-6-9-14-10-23-12-6-19-8-26-13-7-5-13-12-20-15-4-2-7-3-11-5l-85-34-145-31-92-36-223-88-12 8-39 27-34 22-32 21-31 20-36 23-47 28-40 21-39 20-28 14-27 12-28 11-29 11-28 12-30 9-30 10-31 9-31 9-30 8-27 7-26 5-26 6-27 5-28 3-27 5-27 4-27 4-45 4-46 3-46 3-46 1h-46l-46-1-45-3-46-2-36-4-37-5-36-5-38-5-34-7-36-6-31-8-32-7-31-9-30-9-31-10-30-9-29-12-29-11-29-11-27-12-29-14-27-14-27-14-26-15-29-16-43-27-34-19-83-55-14-9-310 132-146 33-84 36c-4 3-7 4-11 6-7 3-13 10-19 15-7 5-13 8-22 11l-3 1c-2 10-6 20-12 26-6 7-15 11-23 14-15 6-29 10-43 18-5 2-10 5-12 10-3 4-4 10-4 15l-6 39-2 11-8 8-31 4-3-13-4-16-1-26 2-15 4-7 2-10 21-140 3-15-1-15v-15l11-25c8 0 18 0 29-1 2 0 5 0 6 1 4 2 5 7 5 11 2 6 3 12 3 17 0 8-2 17-4 25-1 7-1 14-2 26l33 11c7 2 13 5 17 9l4-2c3-1 13-5 20-7 4-1 7-1 10-1 5 0 8 1 13 0 4-1 10-4 16-4 7-2 13-5 19-9 12-6 25-12 38-17 12-4 24-8 28-12l126-77 259-109-7-5-3-2-52-40-39-30-39-32-62-51-59-50-8-7-7-5" fill-rule="evenodd"/></g><g><path class="s1" d="M2716 6585l-8 3-55 57-10 8-13 13-10 23-28 124-3 16-14 59-11-4 2-23 4-28-2-13-2-11-4-4h-35l-11 25 1 30-24 155-6 17-2 15 1 26 4 16 3 13 31-4 8-10 11-63 9-7 9-6-16 97-29 377-72 154 1 137-316-162-250-143-322-189-242-149-281-176-57-37V2475h190l141 302 243 537 222 481h3l77 11c18 2 47 8 70 14 22 7 40 14 57 20 23 9 45 17 64 29 11 6 20 14 28 24 8 10 14 22 18 35l2 7 3 9 6 16 34 82 6 40-4 42-13 44-24 44-32 45-41 41-49 40-4 3 11 26 311 640 179 357 147 293 190 360 5-21 7-15 4-26h17c8 2 16 4 23 5 15 2 30 1 44 5 11 3 22 9 32 15 10 5 18 12 25 19 14 13 24 31 31 50l3 7 2 7 2 6 1 1 10 14 7 14 4 13 7 25c0 11 2 22 2 33 0 16-2 34-7 50-4 17-11 32-18 47-7 14-15 28-25 41-15 20-34 40-52 60-42 47-76 94-120 138l-75 66-18 22-7-8" fill-rule="evenodd"/></g><g><path class="s1" d="M5643 5940c-8 2-16 4-23 5-15 3-30 2-45 6-11 4-22 9-31 15-10 6-18 11-25 19-14 13-24 31-32 50l-6 13-11 22-7 15-4 12-7 25c0 11-2 22-2 33 0 16 2 33 7 49 4 17 11 32 18 47 7 15 15 29 24 42 15 21 34 41 52 60 43 47 77 94 121 137l73 67 20 21 7-8 8 3 51 55 5 25 38 183 4 17 4-1 3-1 12-4 12-5v-2c-1-9-1-16-3-24-1-8-4-16-4-24 0-6 1-11 3-18 0-4 1-9 5-11 1-1 4-1 6-1 11 1 20 1 29 1l1 1 10 24 1 15-1 15 3 15 25 138 2 9 5 9 1 13v28l-2 16-5 11-31-3-8-6-2-12-6-39c-2-5-2-10-5-14-2-5-7-8-12-10l-5-3-5-2-9-3-10-4 3 33 18 147 12 159 5 109 72 146v8l-1 137 192-99 360-213 285-177 357-230 252-163V2481l-46 138-474 967-128 263-20 5-33 16-12 10-7 15-10 2-71 8c-18 2-44 6-67 12-20 5-37 11-54 17-21 7-41 13-59 24-10 6-19 14-27 23-8 9-14 19-18 31l-3 9-1 5-7 16-33 75-8 37 3 40 11 41 21 42 28 42 38 40 47 41-72 145-133 260-119 230-94 179-84 163-80 146-72 134-67 123-62 111-29 54-17-60-3 1-11 8 2 21-12 11-8 13-13 1" fill-rule="evenodd"/></g><g><path class="s4" d="M2911 1277l10-132-2-45-14-32-381-146H2226l-24 16-13 34 4 161 17 7c4 1 8 3 12 4 20 7 40 14 60 19 18 5 36 9 54 10 2 0 4 0 9 0h7l10 1-9 7-12 7 93 30 92 26 43 19 9 3 3-27 2-38 1-32 2-12 3-8 6-10 12 1 196 87 10 6 85 24c2 0 4 0 6 2 1 1 3 3 4 4 2 4 3 7 3 11 0 1 0 2 0 3" fill-rule="evenodd"/></g><path class="s2" d="M41e2 969c-6-17-14-33-22-48-8-14-16-27-26-40-13-18-29-35-45-51-42-43-84-84-126-126"/><path class="s2" d="M3881 704 3633 480 3491 364"/><path class="s2" d="M3491 364c-37-33-73-67-112-98-62-49-131-89-202-126-70-35-143-67-218-87-57-14-116-23-174-29-61-6-123-10-184-7-74 4-149 17-217 46-41 18-80 41-115 71-11 9-21 19-31 29"/><path class="s2" d="M2238 163 2026 369"/><path class="s2" d="M2026 369c-27 29-53 58-77 89-29 37-54 77-74 120-17 34-31 71-37 109-7 43-3 89 11 131 19 58 58 107 102 151 50 50 106 92 166 126 23 12 46 24 69 34 17 7 33 14 50 20 22 8 44 15 66 19 29 6 56 7 84 5 37-3 77-10 115-22 14-4 27-9 44-11 5-1 11-1 16-1 2 0 3 0 10 2 1 1 2 1 9 5"/><g><path class="s5" d="M3424 712l-82-31c-4-4-10-7-14-12-6-8-6-19-6-31 0-27-3-52-6-78-5-31-11-62-19-93-12-43-27-83-46-123-17-37-36-73-55-108-2-4-4-8-7-12l-4-10c-1-3-2-5 0-6 1-2 4-2 6-2 1 0 2 1 4 2l110 54c4 2 8 5 12 7 6 4 10 8 15 13 8 9 14 20 20 31 7 14 14 26 21 39 11 21 22 44 31 67 11 29 20 59 27 90 6 28 11 57 13 85 2 20 3 41 4 61 0 11 0 23-1 34-1 5-2 10-4 16-1 2-2 5-4 7-1 1-2 2-4 2-1 1-2 1-3 0-3 0-6-1-8-2" fill-rule="evenodd"/></g><path class="s2" d="M3907 727l3-11 68-320 8-9 7 2 9 16 1 12-19 377"/><path class="s2" d="M2218 1157l-20-9"/><path class="s2" d="M2198 1148c-3-1-7-2-10-1-8 2-13 12-16 20-3 9-4 17-5 24-2 26-3 53-3 80 1 18 2 35 3 52"/><path class="s2" d="M2167 1323l285 69"/><path class="s2" d="M2452 1392c-1-11-2-22-3-34-2-22-3-44-3-65 1-22 3-43 4-67"/><path class="s2" d="M2176 1309l15-11 255 67"/><path class="s2" d="M2187 1296v-78l4-34 6-12 4-4h5"/><g><path class="s5" d="M2805 1228l-198-88c-2-1-3-2-5-2-4 0-8 3-11 7-5 7-6 15-6 22-1 17-2 33-2 48-1 21-3 41-7 62-3 15-8 30-13 45l220 72c3-9 6-18 9-27 4-14 6-29 8-44 4-23 7-46 7-69 0-9-1-17-2-26" fill-rule="evenodd"/></g><path class="s2" d="M2813 1233l87 24"/><path class="s2" d="M29e2 1257c2 1 4 2 6 4 3 2 3 6 4 10 2 10 0 21-1 31-3 21-8 42-14 63-5 15-10 30-15 45"/><path class="s2" d="M2880 1410l-90-16"/><path class="s2" d="M2469 1233c0 15 0 31 1 47 1 13 2 27 5 40 3 22 8 44 13 65"/><path class="s2" d="M2488 1385l104 15"/><path class="s2" d="M2494 1373l11-10 129 19-6-31"/><path class="s2" d="M2505 1363l-8-34"/><path class="s2" d="M2497 1329c-2-14-4-27-6-40-1-13-2-27-3-42"/><path class="s2" d="M2488 1247l-20-14v-5"/><path class="s2" d="M2505 1244l-2 16 2 17 10-1 7-32"/><g><path class="s5" d="M2252 1102c15 0 29-1 42-2 9-1 17-2 26-2 6 0 12 1 17 2l54 28 3 3-6 5c-9 2-17 4-25 5-17 2-34 1-50 0-11-1-22-2-33-3-9-2-18-4-26-7-6-3-11-5-17-9l-33-17-2-3 3-2c3 0 7 0 11 1 7 1 14 2 21 2 5 0 11 0 15-1" fill-rule="evenodd"/></g><g><path class="s5" d="M2828 349c-17-6-34-12-52-17-24-8-49-15-74-21-18-6-37-11-56-17-9-2-17-5-24-11-4-5-8-12-8-19 0-6 3-12 7-18l42-77c3-3 7-6 11-7 13-5 27 1 41 5 30 11 58 17 86 26 11 4 22 8 31 15 6 4 11 9 16 15l65 90c2 3 4 6 4 10 1 3 2 8 1 11-1 2-3 4-6 5l-41 15c-4 1-8 2-11 2-6 0-12-1-18-2-5-2-9-3-14-5" fill-rule="evenodd"/></g><g><path class="s5" d="M2366 148c19-3 38-6 57-8 35-3 71-2 107-1 23 1 46 2 68 7l13 3 7 4c2 3 4 6 4 8 1 4-1 8-2 11l-53 89c-5 4-9 8-13 10-6 2-13 2-20 1-23-3-45-6-67-8-32-2-64-1-96-2-29 0-58-2-88-4-7 0-14 0-20 0l-6-2-5-5 4-6 79-83c5-3 9-7 13-9 6-3 12-5 18-5" fill-rule="evenodd"/></g><path class="s2" d="M2122 284c8-3 16-6 23-8 11-3 22-5 33-8 9-3 18-5 26-10 11-5 20-13 27-22"/><path class="s2" d="M2231 236l75-72 1-5v-4"/><path class="s2" d="M2307 155c-3-1-7-2-11-3-4 0-8 1-12 1-12 3-23 4-33 8-7 2-14 6-21 9"/><path class="s2" d="M2325 1177l-89 45-13 10-13 7"/><path class="s2" d="M2352 1181l-109 53-14 3-17 7"/><path class="s2" d="M2196 1250v-10l1-8 4-4 4 6 5 3 2 6-1 3-7 2-1 9h-4l-3-5"/><path class="s2" d="M2250 1158l-1 5-17 25-11 22-6 7-11-2 1-5 5-38 27-19"/><path class="s2" d="M2402 1271l2-35 21-18"/><path class="s2" d="M2402 1271l7 1 3-3 27-45v-3"/><path class="s2" d="M2488 1248l15 3"/><path class="s2" d="M2651 1362l-7 9v15l-5 2v12l-28 1-6-1-4 5-3 14 2 6 3 4 5 1 7-2 23 2 1 9 20 1v-6"/><path class="s2" d="M2613 1404l3 10v5l-1 6"/><path class="s2" d="M2647 1385h18l-1 8"/><path class="s2" d="M2708 1474l1 43 16 2h21 17l9-3v-39"/><path class="s2" d="M2713 1521v21"/><path class="s2" d="M2641 1444l-1 27 74-1h13l18 3h20l12-2 3-1-1-35"/><path class="s5" d="M2676 1636v2l1 2 1 1 1 1h1l16 1h16 1l1-1 1-1 1-1v-2-84-2l-1-1-1-1-1-1h-1l-16-1h-16-1l-1 1-1 1-1 1v2z"/><path class="s2" d="M2736 1574v-2-4-3l-1-2-1-2-1-2-1-1-2-1h-1l-8 2-1-1h-1l-3-4v84l3-5 1-1h1l8-2 2-1 1-1 1-2 1-1 1-3 1-3v-3-3-1"/><path class="s2" d="M27e2 1504c-7-1-14-2-21-3"/><path class="s2" d="M2679 1501l-34 1"/><path class="s2" d="M2645 1502c-6 2-13 4-19 8-13 7-23 21-30 35-8 18-13 37-15 57-2 19-2 38 1 57 2 13 5 26 11 39 4 11 10 21 19 28 6 5 13 8 20 10 8 1 15 2 23 2 10 1 21 1 31 0 8-1 16-3 23-7 8-4 14-12 19-20 5-8 9-17 13-25"/><path class="s2" d="M2704 1514c-4 2-7 3-10 5-6 4-10 10-14 17"/><path class="s2" d="M2665 1570c-3 12-5 26-6 39-1 14-2 28-1 42 1 13 3 26 7 39 3 10 9 21 18 29 5 4 11 8 18 8 5 0 11-2 17-4"/><path class="s2" d="M2691 1654c3 4 5 8 8 11 4 4 9 6 13 6 5-1 10-4 13-9 4-6 6-13 9-20"/><path class="s2" d="M2865 1508c-12-2-25-5-38-5-11 0-23 3-33 8-11 6-20 15-27 25-11 18-17 40-20 61-3 25-2 50 2 75 2 14 4 27 10 40 4 7 8 14 14 19 7 5 16 8 25 10 17 4 34 5 50 1 8-1 16-4 23-8 11-7 20-18 26-31 12-20 16-43 18-66 1-21 0-42-4-63-3-16-8-31-18-44-5-6-11-12-17-16-3-2-7-4-11-6"/><path class="s2" d="M2880 1518c-5 0-11 0-16 2-17 5-25 26-31 45-7 26-9 49-8 74 0 16 2 32 6 48 3 10 7 20 13 30 4 6 9 13 15 15 3 1 7 1 11 1"/><ellipse class="s5" cx="2876" cy="1625" rx="55" ry="22" transform="rotate(90.0 2876.0,1625.0)"/><path class="s2" d="M2862 1629c1 4 2 8 4 10 4 3 11 1 15-2 7-5 8-12 9-20"/><path class="s2" d="M2709 1517l4 4 1 4 14 1h21l13-1 6-1 2-5 2-2"/><path class="s2" d="M2766 1525v6"/><path class="s2" d="M2809 1497l17-32-4-21-6 2-2 11-19 35 1 9"/><path class="s2" d="M2788 1487l9-54v-10l6-6 4 2-1 13-1 6 4 5-5 22"/><path class="s2" d="M2787 1406l-3 8 3 8 6 5"/><path class="s5" d="M2727 1406l-3 11-1 3 1 3 1 2 1 3 2 1 2 1 3 1 2-1 3-1 2-1 2-3 1-2v-3-3l-4-11v-2h-4v-3h-5v3h-3z"/><path class="s2" d="M2645 1403c2 1 4 2 5 3 3 2 4 6 4 9 1 3 0 7-2 10-1 2-3 5-6 5"/><path class="s2" d="M2646 1430h-7"/><path class="s2" d="M2662 1399l5-2 5 4 1 5v22"/><path class="s2" d="M2668 1434l10 7 35-1 6-5"/><path class="s2" d="M2746 1409l12-2 5 2 1 7-3 6-22 7"/><path class="s2" d="M2740 1387v9"/><path class="s2" d="M2763 1395l10 6 1 33 5 4"/><path class="s2" d="M2772 1440l-27 1-3-5"/><path class="s2" d="M2701 1430l-1-19h14l1 19"/><path class="s2" d="M2680 1402l17-16"/><path class="s2" d="M2653 1363h10l-7 9v7"/><path class="s2" d="M2676 1369l2 10 8 3h11"/><path class="s2" d="M4741 937l-196 15-631 35"/><path class="s2" d="M3914 987c-9 0-18 0-24 4-10 6-13 21-20 34-4 7-9 13-10 20-1 9 4 18 10 26 11 13 25 21 37 32 12 10 22 24 30 38 8 12 14 25 23 37 9 11 21 22 34 22"/><path class="s2" d="M3994 12e2l575-120"/><path class="s2" d="M3991 1046l654-60"/><path class="s2" d="M2927 1301l116 2 250-1 36 2"/><path class="s2" d="M3329 1304c22 2 44 4 67 2 21-1 41-5 62 0 7 2 14 5 22 6"/><path class="s2" d="M3480 1312l320-4 30-7 93-5"/><path class="s2" d="M3923 1296c13-4 27-7 39-13 20-9 36-24 50-39 4-5 8-9 12-14"/><path class="s2" d="M4015 1203l21 42 24 18-14-43"/><path class="s2" d="M3215 1392c-2-4-3-8-6-11-3-4-7-7-11-8"/><path class="s2" d="M3198 1373h-34"/><path class="s2" d="M3164 1373c-4 2-7 4-10 6-5 4-8 12-10 19-3 10-4 21-4 32-1 12 0 25 3 37 2 7 4 13 7 19 2 5 4 9 9 11 1 1 3 1 5 1"/><path class="s2" d="M3164 1498h29"/><path class="s2" d="M3193 1498c3 0 6 0 9-2 5-2 9-7 12-12 2-6 3-13 4-20"/><path class="s2" d="M3234 1371h-22l-7 3"/><path class="s2" d="M3212 1494l26-1"/><path class="s2" d="M3238 1493c4-1 8-2 11-5 4-3 6-9 9-14"/><path class="s2" d="M3234 1469c0 3 1 6 2 9 1 3 2 6 5 8 2 1 5 2 6 2"/><path class="s2" d="M3226 1405c1-7 1-13 3-19 1-4 3-8 5-12 1-1 1-2 1-3"/><path class="s2" d="M3237 1309l3 65 12 2h11l7-9v-18"/><path class="s2" d="M3202 1377c-1 0-2 0-4 0-7 2-9 10-11 18-3 12-4 21-4 31-1 12 0 24 1 36 2 8 3 15 7 23 2 3 4 6 7 8 2 1 5 2 7 1 1 0 2-1 3-2"/><path class="s2" d="M3211 1414h-1v-1l-1-1-1-1h-1-1l-1 1v1l-1 1h-1l-1 2v1l-1 3v2l-1 2v3l-1 2v3 3 2 2l1 3v3 2l1 3v2l1 2 1 1v1l1 1 1 1 1 1h1 1 1l1-1 1-1 1-1"/><g><path class="s5" d="M3328 1489c3-8 6-16 8-24 3-12 2-25 2-38-1-12-2-24-5-35-2-6-5-11-8-15-2-3-5-5-8-6-2 0-3 0-4 0h-31c-3 1-5 1-7 2-4 2-7 8-10 13-6 15-7 31-7 46 0 12 1 24 3 35 2 7 4 13 7 21 2 3 4 7 7 9 2 1 4 1 7 1h36l5-3 5-6" fill-rule="evenodd"/></g><path class="s2" d="M3318 1374c-2 1-4 2-6 4-4 3-5 7-6 12-3 12-5 24-5 35-1 12 0 23 1 34 1 9 3 17 7 27 1 3 3 6 5 7 2 2 5 2 6 2"/><path class="s2" d="M3316 1409c1-2 2-5 3-5 1 0 2 1 3 2 1 1 2 3 2 5 1 7 3 14 3 21 1 7 0 15-1 22 0 3-1 6-3 9-1 2-3 3-4 3-1-1-2-2-3-3"/><path class="s2" d="M3325 1370l28 1"/><path class="s2" d="M3353 1371c3 0 5 1 7 2 5 3 8 9 11 16 4 13 5 27 5 40 0 13-1 26-4 40-2 6-4 13-8 19-1 1-2 3-4 4-2 1-5 2-7 2"/><path class="s2" d="M3353 1494h-24"/><path class="s2" d="M3361 1375c-2 1-5 1-7 3-4 2-5 7-6 12-2 8-3 15-4 22"/><path class="s2" d="M3344 1458c1 6 2 11 4 17 1 4 2 7 5 10 2 3 5 5 7 4 1 0 2-1 4-2"/><path class="s2" d="M3355 1406c1-2 2-4 3-4 0 0 1 0 2 1 1 1 2 3 2 5 2 8 4 14 4 21 1 7 0 15-1 22 0 3-1 6-3 9-1 2-3 3-4 3-1-1-2-2-3-3"/><path class="s2" d="M3211 1454l10-1 5-6 3-1 5 3h5 3l5-4 5 1 2 3h2"/><path class="s2" d="M3211 1419h13l6-1 7 1 8-2 6 1 1-2"/><path class="s2" d="M3226 1425v12"/><path class="s2" d="M3247 1424v13"/><path class="s2" d="M3244 1377v18l-3 6v4l-3 7"/><path class="s2" d="M3250 1326l8-1 6 2 11-4 24-17"/><path class="s2" d="M4042 1201l9 2 34 36 8 11"/><path class="s2" d="M4110 1235l-11-8"/><path class="s2" d="M4087 1240l6-2 6-7v-3-4l-34-35"/><path class="s2" d="M4111 1269l-11-10"/><path class="s2" d="M41e2 1259c-1-1-2-3-2-5-1-3 0-6 2-8 2-4 6-7 11-7 2 0 5 1 7 3"/><path class="s2" d="M4118 1242l11 13 5 1 24 29 1 5-3 5-5 4-4 1h-4l-32-27v-5"/><path class="s2" d="M4117 1267l6-3 5-8"/><path class="s2" d="M4163 1291l14 11 1 6-4 6-8 4h-4l-9-6-4-8"/><path class="s2" d="M4188 1166v10l-2 26-4 17 1 75"/><path class="s2" d="M4216 1160v19 29l3 12-1 59"/><path class="s2" d="M4232 1160l4 12 5 143v41l-13-21v-20l-6-14"/><path class="s2" d="M4184 1220c5 2 11 4 20 3 6-1 14-3 13-2"/><path class="s2" d="M4184 1261c6 1 12 2 17 2 5-1 10-2 15-3"/><path class="s2" d="M4160 1418v-11"/><path class="s2" d="M4160 1407c0-6-1-12-2-18-1-3-3-7-6-9-2-3-6-3-9-4"/><path class="s2" d="M4143 1376l-30-1"/><path class="s2" d="M4113 1375c-3 1-6 1-8 3-2 2-3 5-4 8-3 12-3 23-4 34 0 18-1 35 0 53 0 9 1 17 1 26 1 3 1 6 3 9 1 2 4 3 7 3"/><path class="s2" d="M4108 1511h38l9-4 5-8 2-15-1-22"/><path class="s2" d="M4250 1377l32 1 8 2 5 5"/><path class="s2" d="M4295 1385c1 8 2 16 2 23 2 22 2 44 1 67 0 7 0 15-1 22 0 3-1 7-2 10-1 3-3 6-6 8"/><path class="s2" d="M4289 1515h-41"/><path class="s2" d="M4248 1515c-1-1-3-2-5-3-3-2-5-5-6-9"/><path class="s2" d="M4237 1503l-3-41v-45l5-31 6-7 8-1"/><g><path class="s5" d="M4165 1361c-2 8-4 15-1 20l21 5 28 2 17-3 7-4-1-22-16 3-22 1-20-3-11-2-2 3" fill-rule="evenodd"/></g><path class="s2" d="M4184 1391v15l-9 7-2 5h-9l-1 38h11l13 4 18 1 9-3h12"/><path class="s2" d="M4215 1393l-1 13 10 7 2 4 5 1"/><path class="s2" d="M4190 1404l12 1 10-2"/><path class="s2" d="M4184 1453l-1-11 5-11 6-1 11 3 1 3 4 11-1 4-4 5"/><path class="s2" d="M4222 1416l-1 14v11"/><path class="s2" d="M4164 1322v13l6 3h8l8 1 6 1v5 3l-5 2v9"/><path class="s2" d="M4222 1358l-2-6-2-3v-71"/><path class="s2" d="M4182 1293c4 2 8 4 14 3 4 0 9-2 11 0"/><path class="s2" d="M4207 1296v42"/><path class="s2" d="M4174 1321l11 2 10-2 3-2 5-5"/><path class="s2" d="M4185 13e2l-3 7"/><path class="s2" d="M5013 957c-21-10-42-20-63-27-49-15-105-12-156 1-28 7-54 17-79 31-27 14-52 33-72 56-20 21-37 47-48 74-12 28-18 58-20 89-1 32 1 64 11 94 10 29 26 55 46 79 24 30 54 56 88 73 34 18 73 28 111 32 35 3 70 2 104-6 34-7 66-21 96-39 30-19 58-43 80-71 21-27 37-59 46-92 8-31 9-64 5-96-4-29-14-58-27-84-16-30-37-56-63-76-18-15-38-26-59-38"/><path class="s2" d="M4708 1090c-9 12-17 24-23 37-12 26-17 54-15 82 1 27 7 54 19 77 21 40 60 72 103 89 33 13 69 18 105 16 32-2 65-10 93-26 32-18 58-45 76-76 12-22 21-46 25-71 3-25 2-51-5-75-8-31-24-59-46-81-24-26-55-44-89-54-33-11-67-13-102-8-28 4-55 13-78 28-25 16-44 39-63 62"/><path class="s2" d="M4910 1020c25 8 50 15 71 29 20 12 37 30 50 50 16 26 27 56 28 85 0 27-7 54-17 79-10 23-23 44-39 63-19 19-41 35-66 44-11 4-23 7-35 10"/><path class="s2" d="M5125 1120c-18-34-36-68-64-96-37-37-91-60-145-65-35-3-70 2-104 14-35 11-68 29-96 53-26 22-47 49-62 80-9 19-17 39-19 61-3 18-2 36 1 55 4 28 13 55 26 81 20 38 53 71 91 90 38 20 81 26 125 28 33 1 65-1 96-11 28-10 54-26 76-46 25-21 46-45 61-73 15-30 25-64 24-98 0-25-5-49-10-73"/><ellipse class="s5" cx="4859" cy="1191" rx="56" ry="52" transform="rotate(0.0 4859.0,1191.0)"/><ellipse class="s5" cx="4856" cy="1199" rx="106" ry="105" transform="rotate(1.356704722516664 4856.0,1199.0)"/><path class="s2" d="M4932 1111l53-46"/><path class="s2" d="M4954 1135l66-34"/><path class="s2" d="M4964 1158l75-12"/><path class="s2" d="M4969 1191l80 5"/><path class="s2" d="M4972 925l966-88"/><path class="s5" d="M5092 995l88-11m96-13 335-43m81-12 248-32"/><path class="s2" d="M5073 947l869-95"/><g><path class="s5" d="M5179 979c1 4 1 8 2 12 1 5 3 10 6 13 4 4 11 6 17 6 10 0 18-2 27-5 9-4 19-8 27-15 7-5 12-11 16-19 1-3 2-6 3-9h-19l-17 2-16 4-31 8-15 3" fill-rule="evenodd"/></g><path class="s2" d="M5209 985c2 4 4 7 6 9 3 2 8 3 13 4"/><path class="s2" d="M5619 924c-3 2-6 4-8 7-2 3-2 8-2 13 1 6 2 12 6 14 1 1 2 1 3 1"/><path class="s2" d="M5618 959l59-20"/><path class="s2" d="M5677 939c4-1 7-3 10-5 3-4 5-9 5-13 0-4-1-7-2-11"/><path class="s2" d="M5690 910l-19 2-27 4-26 8"/><path class="s2" d="M5645 930c3 4 6 8 10 10 3 2 7 2 12 3"/><path class="s2" d="M4971 1226l67 15"/><path class="s2" d="M4963 1253l55 32"/><path class="s2" d="M4943 1282l41 44"/><path class="s2" d="M4916 1301l25 54"/><path class="s2" d="M4883 1312l3 59v5"/><path class="s2" d="M4852 1313l-9 60"/><path class="s2" d="M4822 1310l-24 54"/><path class="s2" d="M4911 1092l32-54"/><path class="s2" d="M4879 1080l19-59"/><path class="s2" d="M4845 1081v-68"/><path class="s2" d="M4816 1083l-18-57"/><path class="s2" d="M4756 1257l-59 26"/><path class="s2" d="M4737 1233l-54 11"/><path class="s2" d="M4792 13e2l-33 46"/><path class="s2" d="M4769 1284l-39 36"/><path class="s2" d="M4785 11e2l-36-44"/><path class="s2" d="M4747 1153l-56-15"/><path class="s2" d="M4739 1186l-57 1"/><path class="s2" d="M4754 1124l-36-33"/><path class="s2" d="M3688 1314l-3 120 8 31 9 29 183-31-13-51-2-28-2-80"/><path class="s2" d="M3655 1320l-2 102-10 42-11 33 49-11"/><path class="s2" d="M3893 1289c14-6 27-12 35-24 7-11 9-27 20-34 3-2 7-3 12-4 6-2 13-3 28-23"/><path class="s2" d="M3255 1336v8l7 9 67-47"/><path class="s2" d="M2465 1170l98 72 8 7"/><path class="s5" d="M2446 1176l99 70m24 17"/><path class="s2" d="M3707 608c11 18 21 36 29 56 11 26 20 53 24 82 5 39 2 78 2 118"/><path class="s2" d="M3762 864l1 28 3 8 38 21"/><path class="s2" d="M3804 921c1-2 2-4 3-6 5-9 4-20 4-30 0-21 3-40 3-60 0-33-7-67-16-99-9-32-21-62-39-89-6-9-12-18-18-26"/><path class="s2" d="M3741 611l-27-22-8-1-4 6 4 12"/><path class="s2" d="M2888 6775c2 9 3 18 6 28 1 7 3 13 6 19 3 7 7 13 11 22 2 4 4 10 8 11"/><path class="s2" d="M2761 6853c0 3 0 7 0 10 1 4 2 8 3 11 2 5 6 9 9 14"/><path class="s2" d="M2677 6890c0 2 0 5 0 9 1 4 1 8 2 12 2 5 6 10 10 13"/><path class="s2" d="M2567 6947c1 0 2-4 4-7 2-4 6-7 10-9 3-1 6-1 7 0"/><path class="s5" d="M2556 6942l3-11 9-10 11-5 12 1 9 6 3 10-3 12-9 9-12 5-11-1-9-6z"/><path class="s2" d="M2556 6804c-1 1-2 2-2 2-2 4-5 7-6 11-3 7-4 16-4 23 0 6 0 12 0 18 1 6 1 12 0 17"/><path class="s2" d="M2544 6875l-22 139"/><path class="s2" d="M2522 7014c0 2 0 5-2 8-1 4-3 7-4 10-3 6-4 14-4 21 0 6-1 13 0 19 0 5 1 10 3 14 0 2 1 4 2 7 1 2 2 4 4 5"/><path class="s2" d="M2545 6870l7 8 7 4 38 13"/><path class="s2" d="M2597 6895c7 2 13 4 18 8 6 5 11 13 13 21 1 7 0 15-3 22-2 8-6 15-11 20-5 6-13 10-20 13-14 7-29 13-42 14-5 1-10 1-17 6-5 4-12 12-11 11"/><path class="s2" d="M2527 6805c8 0 18 0 29-1 2 0 5 0 6 1 4 2 5 7 5 11 2 6 3 12 3 17 0 8-2 17-4 25-1 7-1 14-2 24"/><path class="s2" d="M2527 6805l-11 25v15l1 15-3 15-21 140-2 10-4 7-2 15 1 26 4 16 3 13 31-4 8-8 2-11 6-39"/><path class="s2" d="M2540 7040c0-5 1-11 4-15 2-5 7-8 12-10 14-8 28-12 43-18 9-4 18-8 24-14 6-7 10-17 12-27 0-6 1-11-1-16-1-4-3-8-4-13"/><path class="s5" d="M3390 2913l187 6 19 3 18 9 15 12 12 15 9 18 4 19 15 192-2 19-5 16-9 14-14 10-16 6-18 2-178-5-19-2-17-8-15-11-14-13-8-18-4-17-24-195 5-36 10-15 14-11 16-7z"/><path class="s2" d="M977 6921l57 37 281 176 318 194 260 152 236 135 316 162-1-137"/><path class="s2" d="M977 6741l235 158 308 210 441 289 312 188 146 83 7-2 90-181 5-109 12-158 12-110"/><path class="s2" d="M2516 7486l-250-186-276-223-701-592-312-285"/><path class="s5" d="M2620 6689l-15 68m-13 56m-3 16"/><path class="s2" d="M7447 6645l-183 133-317 226-454 306-319 199-147 84-8-3-89-181-5-109-12-159-11-91"/><path class="s2" d="M5930 7409l249-186 277-223 7e2-592 291-262"/><path class="s2" d="M5836 6653l18 86"/><path class="s2" d="M2878 6449l8 7 59 50 62 51 39 32 39 30 52 40 3 2"/><path class="s2" d="M5330 6629l61-47 108-88 90-79"/><path class="s2" d="M6641 5028l-95 150-86 138-82 128-77 118-73 110-68 102-66 95-62 89-60 83-54 77-54 71-6 11-6 13-6 13-5 16-4 16-4 18"/><path class="s2" d="M5774 6230l119-130 114-129"/><path class="s2" d="M5858 6284l437-622 409-647 192-319"/><path class="s2" d="M6641 5028l212-344 8-15"/><path class="s2" d="M2623 6283l-1-5-4-17-4-16-5-14-7-12-7-11-53-75-56-78-60-85-63-93-66-1e2-69-106-73-114-80-124-83-134-89-147-97-157"/><path class="s2" d="M2595 6294l-65-90-48-70-116-172-129-197-79-122"/><path class="s2" d="M2158 5643l-279-450-292-491-32-55"/><path class="s2" d="M1806 4995l-219-368"/><path class="s2" d="M2668 6256l-76-78"/><path class="s5" d="M1985 4367l311 640 179 357 147 293 190 360 12 21m28 50 22 40"/><path class="s5" d="M3763 6746l38-10 93-4 132 10 150 6 150-1 149-10 88-9 55-3 49-2 42 5 22 8 14 13-1 8-21 57-19 50-17 17-20 11-55 20-78 20-126 13-128 9-151-1-140-9-76-12-74-23-30-11-19-13-16-34-26-83 4-15z"/><path class="s2" d="M4220 6875l-16-5-3-3v-5l2-7 24-45 12-4 10-1h10l12 5 23 52 1 4-6 4-13 3"/><path class="s2" d="M4230 6861l-5-6-1-6 4-7 9-3"/><path class="s2" d="M4263 6839l6 2 5 5v6l-5 7"/><path class="s5" d="M4208 6911l-1 1 2 2 4 2 6 2 10 1h9 10 10l8-1 8-1 5-3 3-2v-3l-19-49-2-1-3-2-4-1h-5l-5 1h-4l-2 3z"/><path class="s5" d="M3439 3363l175 4 19 2 16 8 15 10 12 13 8 17 3 17 18 229-2 16-5 14-10 13-12 8-15 6-16 2-166-4-17-3-17-6-13-8-13-14-8-14-4-16-27-230v-18l5-15 8-13 14-10 15-6z"/><path class="s5" d="M3490 3817l163 3 17 2 15 6 15 10 10 11 7 14 4 15 13 190v13l-6 13-9 11-11 7-15 5-14 1-141-1-16-1-15-1-16-7-12-8-11-10-8-14-3-13-24-190v-15l5-14 9-11 12-10 15-5z"/><path class="s2" d="M3516 4453l-6-6-7-15-4-15-20-165v-12l5-13 9-9 11-9 13-4 15-2 154 2 15 3 15 5 13 8 10 10 7 13 3 12 14 185-1 12-5 11-4 5"/><path class="s2" d="M3150 2908l19 9 17 12 14 16 9 18 6 20 26 193v19l-5 16-9 13-13 12-15 6-19 1-49-1"/><path class="s2" d="M2990 2902h-6l-11 4-11 11"/><path class="s2" d="M3055 3239l-20-2-17-9-13-9"/><path class="s5" d="M3832 2927l316 9 19 3 17 8 15 12 11 15 8 19 2 18-1 191-2 17-7 17-11 13-15 11-16 7-17 1-301-8-19-2-16-8-15-11-12-15-8-16-3-17-12-193 2-19 6-17 10-15 15-11 16-8z"/><path class="s5" d="M3855 3373l297 8 18 2 16 6 13 11 10 14 8 15 1 17v229l-3 14-6 15-10 11-13 10-15 5-18 2-281-5-16-3-16-6-14-10-11-12-7-15-3-15-14-230 2-17 6-15 10-13 12-10 16-7z"/><path class="s5" d="M4155 3829l16 3 15 6 12 9 10 12 6 14 3 15-2 188-1 14-6 12-10 10-12 9-14 5-16 1-234-4-30-1-15-1-15-6-14-9-9-10-7-14-3-13-12-190 2-14 6-13 9-11 12-9 15-6 16-1z"/><path class="s2" d="M3897 4209l260 4 15 2 14 5 12 9 10 10 5 12 2 12-1 184-1 12-6 12-9 8-11 8-14 3-15 2-113-2"/><path class="s2" d="M3897 4209l-16 1-14 5-11 8-9 9-6 13-1 12 11 185 2 12"/><path class="s5" d="M4403 2943l312 9 17 3 17 8 13 12 10 15 6 17 2 19-17 190-3 17-9 16-11 14-15 11-17 6-18 1-297-7-18-2-16-8-15-11-10-14-6-17-2-17 4-191 2-19 7-17 13-15 15-11 17-7z"/><path class="s5" d="M4389 3386l294 7 17 3 15 7 13 10 9 14 5 14 2 18-19 227-4 15-7 13-11 13-14 8-15 5-17 3-278-6-16-3-15-6-14-9-9-12-7-15-1-15 4-228 2-18 8-14 11-13 14-10 16-6z"/><path class="s5" d="M4361 3836l16-2 274 5 16 3 13 6 13 9 8 12 5 13 2 14-15 188-4 13-6 13-11 10-13 8-15 5-14 2-262-4-16-3-14-5-12-8-9-11-6-13-1-14 3-188 3-15 6-12 10-13 12-8z"/><path class="s5" d="M4365 4216l258 4 15 3 14 4 11 8 9 11 5 11v14l-15 182-3 11-6 11-10 10-12 7-14 5-15 1-245-4-14-1-13-5-12-8-8-8-7-11-1-13 4-183 2-13 5-12 10-10 13-7 15-5z"/><path class="s5" d="M4964 2959l181 5 18 4 16 7 12 13 10 14 4 18v18l-27 189-4 17-10 16-12 14-15 10-18 6-17 3-172-5-18-3-15-7-13-11-9-14-5-16-1-18 18-189 4-19 9-17 12-15 16-11 18-6z"/><path class="s5" d="M4917 3399l170 4 17 2 15 7 13 11 7 13 5 15v16l-32 226-4 15-9 15-11 11-15 9-16 6-16 1-144-2h-17l-16-3-14-6-12-10-9-12-5-14-1-16 7-74 15-152 4-16 9-16 11-12 15-10 16-7z"/><path class="s5" d="M4870 3844l159 3 16 2 14 7 11 8 8 11 4 14v15l-26 186-4 14-8 12-10 10-14 9-15 4-12 2-154-3-16-2-14-5-11-9-8-11-4-12-1-14 18-187 4-14 7-14 10-11 14-8 16-5z"/><path class="s2" d="M4762 4487l-8-10-4-11-1-12 18-182 3-14 7-11 10-10 12-7 15-5 15-1 150 1 14 2 13 5 12 9 7 10 4 12 1 13-26 181"/><path class="s2" d="M5393 2971l123 4 17 4 15 7 13 12 8 16"/><path class="s2" d="M5393 2971l-18 3-19 6-16 11-12 15-10 18-5 18-26 164-4 23-1 18 5 17 8 14 12 11 14 6 29 4 107 2 17-2 17-6 15-10 14-14 10-15"/><path class="s2" d="M5471 3415l-15-4-136-3-17 2-16 7-16 10-13 12-8 15-5 16-35 226v14l4 15 7 12 11 9 15 7 16 2 141 3 17-2 16-5"/><path class="s2" d="M5414 3862l-13-6-15-2-139-3-16 2-16 5-14 9-12 11-8 13-5 14-28 186v14l4 12 7 11 11 9 13 5 27 2 120 2 16-2 9-2"/><path class="s2" d="M5333 4234l-18-3-131-2-15 1-15 5-14 7-11 10-7 13-4 12-17 115-11 66v13l3 11 8 8 10 8 13 5 14 1 125 2 20-3"/><path class="s2" d="M1412 2964l370-333 9-15 7-24 2-28-1-35-6-37-5-17"/><path class="s5" d="M1850 2848l-170 173-13 20-6 30-2 36 4 41 9 39 14 37 110 242 14 25 15 19 16 10 15 1 14-8 9-15 113-235 7-22 3-29-1-33-5-34-9-35-55-181-12-31-13-24-15-20-15-11-15-2z"/><path class="s2" d="M2084 3898l68-107 8-16 5-22 1-26-1-29-4-28-7-28-53-168-11-28-12-22-14-14-15-5-12 7-10 15-90 199-8 22-4 28v31l4 32 8 31 11 27 13 31"/><path class="s2" d="M2005 4371l8-28 21-34"/><path class="s2" d="M2170 4706l13-22 163-334 6-18 4-23 1-26-1-26-4-26-6-23-70-196-17-34-10-8-11-3-9 5-9 10-66 119"/><path class="s2" d="M2404 5192l125-319 8-26 3-21 2-23-2-24-3-22-5-19-83-235-7-15-7-11-9-5h-8l-8 6-7 11-158 350-6 17"/><path class="s2" d="M2451 5291l6-27 114-307 7-12 6-7 7-3 6 4 7 8 6 12 64 185 5 16 3 20 1 21-1 21-3 20-5 17-93 288"/><path class="s2" d="M2626 5640l7-30 81-259 5-13 5-7 6-4 5 2 6 6 4 10 47 132 4 14 2 17v20 20l-2 19-4 17-4 15-63 221-2 11"/><path class="s2" d="M2002 2694l116-118 9-5 12 4 11 11 12 18 10 25 9 28 181 674 5 26 3 26 2 26-2 22-3 20-6 14-88 144"/><path class="s2" d="M2508 3484l77-85 6-3 8 3 7 9 6 15 5 18 39 165 6 39v20 17l-3 15-3 12-61 125"/><path class="s2" d="M2442 4147l67-136 5-14 4-20v-45l-2-23-5-21-54-199-13-36-9-11-11-5"/><path class="s2" d="M2635 3973l55-119 4-7 11 1 6 8 9 26 60 253 5 33v17l-3 31-4 11-52 136"/><path class="s2" d="M2492 4288l58-126 6-9 8-5 7 3 8 7 6 14 6 16 66 244 4 19 2 20v21l-1 19-3 19-3 15-49 125"/><path class="s2" d="M2460 3304l72-116 3-11 4-15 1-18-1-21-2-23-4-22"/><path class="s2" d="M2533 3078l-140-598-2-5"/><path class="s2" d="M2752 4466l51-137 4-7 5-4 5 1 4 5 5 9 3 14 51 214 3 14 1 16v16 15l-3 15-2 11-45 139"/><path class="s2" d="M2857 4875l43-139 3-6 3-4 5-2 4 5 3 10 50 210 3 14 2 14 1 12-1 15-1 13-5 18-36 134"/><path class="s2" d="M2643 4763l41-111 5-12 6-5h7l6 5 6 10 5 14 54 206 4 16 1 17 2 20-2 19-2 17-4 15-32 99"/><path class="s2" d="M2771 5150l26-86 5-11 5-6 5-2 6 3 5 8 45 165 2 13 3 18v17l-2 19-1 16-4 15-21 73"/><path class="s2" d="M3155 3356l42 1 18 3 17 7 29 24 8 16 5 17 31 231v16l-3 13-9 13-12 10-15 5-16 1h-50"/><path class="s2" d="M3143 3712l-42-2-16-2-14-4"/><path class="s2" d="M3023 3361l11-5 18-1"/><path class="s2" d="M3113 3816l10-3h11"/><path class="s2" d="M3217 3811l46 1 18 3 16 6 15 8 11 13 8 14 4 14 26 191v14l-5 12-7 12-13 7-13 5-15 1-139-1-16-3-16-4"/><path class="s2" d="M3158 4203l11-4 15-1 104 1 20 2 18 7 18 8 16 11 11 14 9 16 5 15 21 158v11l-5 11-8 10-11 7-12 4-15 1-112-1h-13l-15-1-15-5-12-8-16-16-16-65"/><path class="s2" d="M3421 5348l-4 23-4 10-7 10-10 8-14 6-13 5-15 2-132-2-13-1-14-4-10-7-7-9-4-10v-10l64-296 7-14 45-54"/><path class="s2" d="M3455 5131l13-73"/><path class="s2" d="M3150 5506l29-19 30-5h131l15 2 14 4 18 15 4 12v11l-24 145"/><path class="s2" d="M3458 5699l23-153"/><path class="s2" d="M3555 5482l124 2 16 1 15 5 11 7 7 10 4 12-1 13"/><path class="s2" d="M3731 5532l-61 232"/><path class="s2" d="M3552 5063l-12 84"/><path class="s2" d="M3527 5222l-19 137"/><path class="s2" d="M3523 5402l7 5 13 3 14 2h148l14-2 14-3 13-7 9-8 7-10 3-11 24-242"/><path class="s2" d="M3775 4670l18 226-4 16-9 11"/><path class="s2" d="M3758 5827l74-306 5-11 10-12 14-7 15-6 16-1H4e3l11 1 20 3h38l10-1 10-2 12-1h50l15 2 13 4 12 6 10 10 5 10 2 11-2 315v22l-3 13-6 12-10 10-12 7-17 5-14 3h-70"/><path class="s2" d="M4074 5914l-162-1"/><path class="s2" d="M3879 5120l-19 252 1 10 5 10 8 8 12 7 13 5 14 1h239l15-1 14-4 11-6 10-9 5-10 2-10 3-293"/><path class="s2" d="M4297 4676l-3 225 1 10 5 10"/><path class="s2" d="M4643 4680l-18 223-3 10-5 10-9 8-10 4-14 6"/><path class="s2" d="M4294 5082l3 291 2 10 6 10 8 9 13 6 12 5 15 1h237l15-1 12-4 11-6 9-9 5-10 1-10-19-235"/><path class="s2" d="M4354 5485h257l16 2 15 5 14 8 8 11 6 11 56 227"/><path class="s2" d="M4354 5485l-13 1-14 4-12 7-9 9-6 10-1 11 3 337 3 13 6 12 10 10 12 7 15 5 16 2h103"/><path class="s2" d="M4467 5913h130"/><path class="s2" d="M4597 5913h103l14-3 7-2"/><path class="s2" d="M4817 5485h63"/><path class="s2" d="M4791 5492l-11 8-8 10-4 11 2 12 7 30 1 4"/><path class="s2" d="M5011 5536l49 327v12l-4 11-9 12-11 7-13 5-17 1h-83l-17-1-17-6-14-10-11-11-6-14-18-69"/><path class="s2" d="M4730 5319l6 55 3 12 6 8 10 9 11 7 15 4"/><path class="s2" d="M4858 5415h80l14-1 14-4 9-6 8-9 4-9 1-10-47-317"/><path class="s2" d="M4731 4681l-21 223v10l5 9 9 8 9 7 11 2"/><path class="s2" d="M4937 4898l-4 14-7 12"/><path class="s2" d="M5055 4684l-34 207"/><path class="s2" d="M5040 5175l35 201 2 10 8 9 10 9 12 6 15 5 13 2h28"/><path class="s2" d="M5221 5414l29 1 13-1 13-4 10-6 4-10-2-17"/><path class="s2" d="M5270 5270l-37-169-13-18"/><path class="s2" d="M5276 5486H5148l-14 1-12 5-11 6-8 9-4 10v11l56 335 4 12 9 11 11 10 13 9 17 4 14 2h138l16-2 14-5 10-8 7-10 4-12v-12"/><path class="s2" d="M5276 5486l14 2 14 4 14 6 10 9 8 11 4 10"/><path class="s2" d="M3078 6307l85 32 18 3h19l19-7 16-8 15-13 8-12"/><path class="s2" d="M3545 6417l-8 5-17 6-17 3-18-3-84-18-15-6-12-10-9-13-5-13v-15l30-2e2"/><path class="s2" d="M3392 6132l14-82 4-10 7-12 12-11 14-9"/><path class="s2" d="M3612 6059l-4 30"/><path class="s2" d="M3598 6177l-9 84"/><path class="s2" d="M4095 6012l25-11 16-2 21 2 16 5 13 8 10 11 6 13 2 13v19"/><path class="s2" d="M4067 6205l-3 83"/><path class="s2" d="M4062 6369l-3 64 3 16 6 14 10 12 12 10 16 7 18 2h6l17-2 18-5 14-10 12-14 7-15 3-15 1-132"/><path class="s2" d="M4303 6165V6050l2-12 7-14 10-10 12-8"/><path class="s2" d="M4334 6006l15-5 16-3h7l16 3 15 5 13 7 10 11 6 12 3 14 8 238"/><path class="s2" d="M4447 6391l2 40-3 15-5 13-10 13-13 10-17 7-16 3h-6l-18-2-17-6-14-9-13-12-7-15-3-16-1-124"/><path class="s2" d="M4495 6301l-12-286 2-9 6-5 10-3h45l10 3 7 5 2 7 20 330"/><path class="s2" d="M4627 6210l-11-161 1-14 6-12 9-10 12-9 15-5 16-2h24"/><path class="s5" d="M4927 5998l15-1h77l16 1 15 5 15 7 11 12 7 12 5 14 44 292v15l-5 14-8 12-12 9-15 6-81 21-17 3-17-3-16-6-15-9-11-12-9-14-4-15-32-280-4-33 1-13 5-12 9-11 11-9z"/><path class="s2" d="M5455 6080l-7-34-5-13-9-13-11-11-15-7-16-5-16-1h-93-45l-15 1-13 6-11 7-9 12-4 12v12l37 226 5 15 10 15 14 11 16 9 17 5 19 1 16-4 125-49"/><path class="s2" d="M6630 3870l106-212 14-21 13-12 15-5 14 5 10 14 46 91"/><path class="s2" d="M6754 2475l-48 143-8 35-6 35-3 32 3 28 6 23 8 15 390 374 18 11"/><path class="s5" d="M6638 2988l161 172 12 20 6 28 1 35-4 38-10 38-13 34-107 224-14 23-14 17-17 9-13 1-13-7-10-16-105-230-7-21-3-27 1-31 5-33 9-31 68-199 13-23 15-18 13-10 14-1z"/><path class="s2" d="M6326 3836v-52l3-28 8-26 14-43 49-141 13-20 13-13 14-3 12 5 10 14 86 195 6 21 4 26-2 30-3 31-8 28-10 27-11 21"/><path class="s2" d="M6326 3836l3 21 8 16 65 109"/><path class="s2" d="M6473 4454l-2-36-9-19-17-30"/><path class="s2" d="M6340 4183l-71-130-9-10-9-4-10 1-9 9-10 12-8 19-71 186"/><path class="s2" d="M6143 4266l-6 22-3 25-3 25 1 25 4 22 6 17 164 345 10 15 6 4"/><path class="s2" d="M6244 4907l-3-12-6-22-151-338-6-11-8-6h-8l-9 5-7 10-7 14-80 215-10 28-3 21-2 23 1 22 3 21 5 16 122 323 5 8"/><path class="s2" d="M6029 5317l-1-15-6-21-109-298-5-13-8-6-6-2-7 2-6 7-5 13-67 177-5 16-3 19-1 20 1 21 3 20 3 16 90 277 6 15"/><path class="s2" d="M5853 5657l-3-27-7-23-75-245-5-12-5-8-6-4-5 2-6 6-5 10-48 128-3 13-3 16-1 20v19l2 18 4 16 63 230 5 13"/><path class="s2" d="M5609 5935l1-25 3-12 2-10 39-77h1l2-5 5-1 7 6 5 13 29 113"/><path class="s2" d="M6424 2475l2 19 13 32 119 113"/><path class="s2" d="M6496 2831l-113-119-9-5-11 3-11 11-13 16-10 22-8 28-184 636-6 25-4 24-1 25 1 23 4 18 6 14 92 152"/><path class="s2" d="M6263 2588l-105-50h-8l-9 7-9 15-8 20-8 23-145 568-4 21-2 21-1 20 1 19 2 15 4 11 72 118"/><path class="s2" d="M5995 3567l-78-90-7-3-7 3-8 9-6 14-6 18-40 158-3 17-3 19v20 16l3 15 3 11 62 130"/><path class="s2" d="M5864 4042l-57-128-4-8-5-2-7 2-5 8-5 11-5 15-62 242-2 15-2 17v16 16l2 15 2 11 53 138"/><path class="s2" d="M6050 4208l-65-137-5-15-4-17v-21l1-22 3-23 5-21 54-188 7-20 8-15 8-10 5-2"/><path class="s2" d="M6001 4344l-58-128-7-10-7-3-7 1-8 7-6 13-6 16-67 233-4 17-4 20v23 17l3 18 5 14 46 123"/><path class="s2" d="M5842 4790l-37-105-6-11-5-5h-6l-7 5-6 9-5 13-57 199-3 14-3 19v19 17l3 17 3 15 31 97"/><path class="s2" d="M5713 5167l-26-84-4-11-4-6-7-2-5 3-5 7-5 12-42 148-2 14-3 16-1 17 1 18 3 16 2 14 20 71"/><path class="s2" d="M5484 5821l-10-42-1-17v-14-17l5-26 12-43 4-9 3-5 4-1 4 4 7 18 9 35 3 8"/><path class="s2" d="M5435 5601l-29-130-4-23v-26l4-24 69-273 3-10"/><path class="s2" d="M5478 5115l3-5 4-2 4 1 6 14 38 144"/><path class="s2" d="M5555 5188l-40-142-4-25v-28l5-27 50-195 2-12 5-6 4-4h4l5 5 2 8 43 141"/><path class="s2" d="M5655 4819l-45-141-2-12-1-13v-31l1-16 2-14 54-207 3-11 4-10 5-5h5l5 4 4 7 51 139"/><path class="s2" d="M1321 4244 977 3640"/><path class="s2" d="M1360 4236 977 3566"/><path class="s2" d="M7120 4325l74-122 253-431"/><path class="s2" d="M7078 4310l88-148 281-476"/><path class="s2" d="M3976 6318l6 12 13 29 7 21 3 12"/><path class="s2" d="M3976 6318l124-29"/><path class="s2" d="M4005 6392l108-70"/><path class="s2" d="M41e2 6289l5 8 5 10 3 7v8"/><path class="s2" d="M41e2 6289l70-29"/><path class="s2" d="M4113 6322l69-29"/><path class="s2" d="M4170 6260l5 8 4 10 3 8v7"/><path class="s2" d="M4170 6260c2 0 4-1 6-2 1-2 2-3 4-5 0 0 1-1 4-3"/><path class="s2" d="M4182 6293c2-1 4-2 6-3 3-1 5-2 19-1"/><path class="s2" d="M5583 6742c-2 9-4 18-6 28-1 7-3 14-5 20-3 7-6 12-10 20-2 5-4 11-7 11"/><path class="s2" d="M5712 6816c0 4 0 7-1 10 0 4-1 8-2 11-2 6-6 10-9 15"/><path class="s2" d="M5798 6850c0 4 0 7 0 11-1 3-2 7-3 10-2 5-6 10-10 15"/><path class="s2" d="M5906 6905c1 1 0-3-3-6-2-4-6-7-10-8-3-1-6-1-8 0"/><path class="s5" d="M5918 6899l-3-11-9-9-11-4-12 1-9 7-3 10 3 11 9 9 12 4 11-1 9-7z"/><path class="s2" d="M5916 6762c1 1 1 2 2 2 1 4 4 7 5 11 4 7 5 16 5 23 1 6 0 12 0 18 0 6 0 12 0 17"/><path class="s2" d="M5928 6833l27 137"/><path class="s2" d="M5955 6970c0 4 0 7 2 10 1 3 3 6 4 9 3 6 4 14 5 21 0 6 1 12 0 18 0 5-1 11-2 15-1 2-1 4-2 7-1 2-2 4-5 6"/><path class="s2" d="M5928 6828l-6 8-8 4-5 2-14 5-19 7"/><path class="s2" d="M5876 6854c-7 2-13 5-18 9-6 5-11 13-12 21-1 7 2 14 4 22 3 7 7 14 12 20 5 5 12 9 20 12 14 7 29 12 43 13 5 1 10 1 16 6 6 4 12 12 12 11"/><path class="s2" d="M5945 6763c-9 0-18 0-29-1-2 0-5 0-6 1-4 2-5 7-5 11-2 7-3 12-3 18 0 8 3 16 4 24 2 8 2 15 3 24"/><path class="s2" d="M5945 6763l1 1 10 24 1 15-1 15 3 15 25 138 2 9 5 9 1 13v28l-2 16-5 11-31-3-8-6-2-12-6-39"/><path class="s2" d="M5938 6997c-2-5-2-10-5-14-2-5-7-8-12-11-14-7-29-11-44-17-9-3-18-7-24-13-6-7-10-16-12-25 0-6-1-11 0-17 1-4 2-8 4-13"/><path class="s2" d="M4535 6330l-6 13-11 28-7 21-2 13"/><path class="s2" d="M4535 6330l-125-26"/><path class="s2" d="M4509 6405l-110-67"/><path class="s2" d="M4410 6304l-5 8-4 11-2 6v9"/><path class="s2" d="M4410 6304l-69-27"/><path class="s2" d="M4399 6338l-71-27"/><path class="s2" d="M4341 6277l-5 7-5 12-1 7-2 8"/><path class="s2" d="M4341 6277c-3 0-5-1-7-2-3-2-5-4-7-6-1-1-2-3-6-9-2-1-3-3-9-5"/><path class="s2" d="M4328 6311c-2-2-4-3-6-3-2 0-3-1-6-1-1-1-3-1-4-1-1 0-2 0-5 0-1 0-2 0-6-3"/><path class="s2" d="M5470 6070l-7 15-4 12-7 25"/><path class="s2" d="M5452 6122c0 11-2 22-2 33 0 16 2 33 7 49 4 17 11 32 18 47 7 15 15 29 24 42 15 21 34 41 52 60 19 22 37 43 55 64"/><path class="s2" d="M5635 6451c12 13 24 26 37 39"/><path class="s2" d="M5672 6490l73 67 20 21 7-8 8 3"/><path class="s2" d="M5470 6070l11-22"/><path class="s5" d="M5507 6128m55 0m6 3 12 20 22 22 53 35 131 72 10 8 2 8-4 7h-26l-142 5-11-4-15-16-63-82m-21-42"/><path class="s5" d="M5671 6333l161-9h15l10 4 7 12 39 152 1 9-4 8h-9l-22 1-31 9-23 6-14-1-8-4-51-74-14-19-54-58-17-18-3-6v-6l3-5h7z"/><path class="s2" d="M5784 6551l-5 9 1 13 55 59 10 7 10 3h24l39-8 12-10 3-20-4-19-10-36-7-12-10-2h-21l-9 2-45 10-16 3-13 1-14 1"/><path class="s2" d="M5897 6645l11 6 21-3 16-14 5-25 1-29-12-43-19-65v-36l-27-98-11-36-177-99-72-43-24-21-11-16-8-26v-26l14-20 17-10 20-3"/><path class="s5" d="M5685 5886l-11 8 2 21-12 11-8 13m0 9m0 13m4 14m7 14"/><path class="s2" d="M5657 5939c-22 3-30 5-37 6-15 3-30 2-45 6-11 4-22 9-31 15-10 6-18 11-25 19-14 13-25 31-32 50-10 24-14 49-13 74 1 17 4 34 9 51 3 12 7 24 12 35"/><path class="s2" d="M5676 6413c10 10 20 20 29 31 23 27 41 59 64 88 5 7 10 13 15 19"/><path class="s2" d="M2875 5941l-1-25-3-12-3-10-39-77-3-6-4-1-6 7-5 12-28 98"/><path class="s2" d="M3018 6084l7 14 4 13 7 25"/><path class="s2" d="M3036 6136c0 11 2 22 2 33 0 16-2 34-7 50-4 17-11 32-18 47-7 14-15 28-25 41-15 20-34 40-51 60-27 30-51 59-75 88"/><path class="s2" d="M2830 6490c-4 5-9 10-14 15"/><path class="s2" d="M2816 6505l-75 66-18 22-7-8-8 3"/><path class="s5" d="M2916 6149l-12 21-18 18-53 33-131 72-10 10-2 8 4 6 26 1 141 4 10-4 17-15 63-83m30-78"/><path class="s5" d="M2817 6346l-161-8-15 1-10 3-8 12-38 151-1 11 3 7 10 1 21 1 31 7 24 7 14-2 8-3 51-75 14-18 54-57 16-19 4-6v-6l-4-5h-7z"/><path class="s2" d="M2704 6565l5 8-1 15-55 57-10 8-10 2h-24l-39-7-12-10-3-20 4-19 10-37 7-11 9-1 21-1 10 2 45 10 15 2 14 2 14 1"/><path class="s2" d="M2630 6666l-19 10-57-3-19-20-3-29 5-31 12-42 19-66v-34l27-1e2 11-36 177-97 72-44 23-21 12-16 7-26v-26l-13-20-18-10-19-4"/><path class="s2" d="M2799 5893l12 7-3 21 13 11 7 13v10l-1 12-3 14-7 15"/><path class="s2" d="M2845 5955c8 2 16 4 23 5 15 2 30 1 44 5 11 3 22 9 32 15 10 5 18 12 25 19 13 13 24 31 31 50 9 23 14 48 13 74 0 17-4 34-8 51"/><path class="s2" d="M2798 6441c-9 9-15 15-22 24-16 20-35 52-57 81-5 6-10 12-15 19"/><path class="s5" d="M6410 4042l-33 75-8 37 3 40 11 41 21 42 28 42 38 40 44 38 26 20m39 31 178 137 138 78 42 31 62 7"/><path class="s2" d="M6937 4694c3-7 7-15 14-19 3-2 7-2 11-2 6 2 12 5 16 8"/><path class="s2" d="M6978 4681l157 121 24 12 25 5h72l10 5-2 9-27 29-14 3-12-6-10-13-6-22"/><path class="s2" d="M7237 4862l27 2 51-65 14-20 12-26 3-23-2-20-9-22-12-19-20-18-19-13-18-28-19-48-3-30-5-48-9-28-25-45-32-53"/><path class="s2" d="M6515 4166l58-1 17 1 11 6 16 19 28 27 45 27 175 88"/><path class="s2" d="M6692 4026c-9 3-18 6-27 9-10 3-21 7-28 14-5 6-9 15-9 23-1 7 1 15 4 22 12 29 38 49 65 67 38 24 78 42 117 61 80 38 158 83 243 114 13 5 26 9 39 11 13 2 25 1 37 2 8 1 16 2 24 5 5 1 9 3 14 4"/><path class="s2" d="M6831 4451c104 5 209 10 232 1"/><path class="s2" d="M7063 4452h19l11 7 13 30 29 61"/><path class="s2" d="M7030 4672l147 2 13 2 11 11 47 102"/><path class="s2" d="M6725 3901l-3 7-5 15 3 16"/><path class="s2" d="M6779 3854l-33 16-12 10-7 15 4 16 13 16 2 3"/><path class="s2" d="M7221 4603l11 5 11 12 10 17 17 22 29 24 12 17 4 18 1 21-5 22-11 19-14 19-18 17"/><path class="s2" d="M6578 4086c1-10 1-19 4-28 2-9 6-18 12-25 6-6 14-10 20-14"/><path class="s2" d="M6614 4019l36 18"/><path class="s2" d="M6491 3950l30 18-27 18-15 14-14 16-7 12-9 18-3 11"/><path class="s2" d="M6717 3897l-71 8"/><path class="s2" d="M6646 3905c-18 2-44 6-67 12-20 5-37 11-54 17-21 7-41 13-59 24-10 6-19 14-27 23-8 9-14 20-18 31-6 16-8 34-8 51 1 29 12 58 25 85"/><path class="s2" d="M6458 4184c10 16 21 31 33 45 22 26 49 48 76 70 50 39 101 77 150 114 18 13 36 26 55 40 13 10 25 21 37 31 29 25 54 49 81 76 15 15 30 30 41 42"/><path class="s2" d="M6931 4602l22 17 21 18"/><path class="s5" d="M6670 4099l66-126m16-32 17-32 158-323 219-447 63-127 151-308 41-85 28-85 18-53"/><path class="s2" d="M6629 4098l-133-2"/><path class="s2" d="M6460 4134l11 22 28 43 39 42 47 40 118 88"/><path class="s2" d="M6703 4369c6 4 12 8 20 12 3 1 6 2 9 3 4 1 8 0 12 0"/><path class="s2" d="M6746 44e2c-7-7-3-10 0-13 5-4 7-6 40-5"/><path class="s2" d="M6786 4382l318-11 21 1 14 3 16 6 7 13 35 67 7 18 2 17 5 39 3 20 4 16 5 9 2 8-2 7-6 3-19 1-201 18"/><path class="s2" d="M6746 44e2l69 51 30 25 107 106 24 21"/><path class="s2" d="M6976 4603c3 3 6 6 10 8 3 2 6 3 7 6 1 2 1 4-1 6-3 4-11 5-10 5"/><path class="s2" d="M6982 4628c-3 3-6 6-9 10-3 4-5 9-6 14 0 5 1 9 5 18"/><path class="s5" d="M2101 3960l34 82 6 40-4 42-13 44-24 44-32 45-41 41-49 40-29 21m-50 36-187 135-150 80-46 32-67 6"/><path class="s2" d="M1516 4642c-4-8-8-17-14-21-4-2-9-3-13-2-6 1-12 5-17 8"/><path class="s2" d="M1472 4627l-172 124-26 12-27 5-77-2-10 5 1 9 28 33 14 3 14-7 11-13 7-24"/><path class="s2" d="M1189 4813h-29l-53-71-14-21-12-29-2-25 2-21 10-23 14-21 22-18 21-13 20-30 22-50 4-32 7-51 11-31 28-47 36-55"/><path class="s2" d="M1985 4090l-62-3-19 1-12 5-18 21-31 27-48 28-191 88"/><path class="s2" d="M1857 3961c6 6 9 16 9 25 0 8-2 16-5 23-13 30-41 52-70 70-42 25-86 42-129 61-86 39-171 84-263 114-14 5-28 9-42 11-14 1-27 0-41 1-8 0-17 1-25 4-5 1-10 3-15 5"/><path class="s2" d="M1637 4385c-112 2-224 4-249-6"/><path class="s2" d="M1388 4379l-20-1-12 7-14 32-34 65"/><path class="s2" d="M1417 4615l-158-2-14 2-12 11-54 108"/><path class="s2" d="M1214 4535l-12 6-12 12-11 17-19 23-32 26-13 18-5 19-1 22 4 24 11 21 14 20 19 19"/><path class="s2" d="M1919 4002c0-10 0-20-2-30-2-10-6-20-13-27-6-7-14-12-21-16"/><path class="s2" d="M1883 3929l-39 19"/><path class="s2" d="M1776 3795l77 11"/><path class="s2" d="M1853 3806c18 2 47 8 70 14 22 7 40 14 57 20 23 9 45 17 64 29 11 6 20 14 28 24 8 10 14 22 18 35 6 17 8 36 7 54"/><path class="s2" d="M2068 4073c-17 31-36 60-59 85-24 27-54 50-84 73-55 41-111 80-165 117-20 13-39 26-60 42-13 10-27 21-41 31-31 26-59 51-89 79-16 15-33 31-45 44"/><path class="s2" d="M1525 4544l-24 17-23 18"/><path class="s2" d="M1865 4013l167 4"/><path class="s2" d="M2032 4017c10-1 12 0 16 5 3 4 7 9-5 35"/><path class="s2" d="M2043 4057l-11 23-32 46-42 43-52 41-129 91"/><path class="s2" d="M1777 4301c-7 4-14 9-22 12-3 2-7 3-10 3-5 1-9 0-13 0"/><path class="s2" d="M1729 4333c9-8 5-11 2-14-6-4-8-7-44-7"/><path class="s2" d="M1687 4312l-339-21h-23l-16 2-17 6-8 15-40 70-8 19-3 18-6 42-4 21-4 17-6 10-3 8 2 8 7 3 20 1 215 27"/><path class="s2" d="M1729 4333l-75 52-33 26-118 111-26 21"/><path class="s2" d="M1477 4543c-3 3-7 6-11 9-3 1-7 3-8 6-1 2-1 5 1 7 3 3 12 4 11 5"/><path class="s2" d="M1470 4570c3 3 6 7 9 11 3 5 5 10 6 16 0 4-1 9-6 18"/><path class="s2" d="M3534 4402c79 4 157 7 172 3"/><path class="s2" d="M3706 4405l4 8"/><path class="s2" d="M3704 4432l-5 5-10 3-145-2-10-4-3-9 5-23"/><path class="s2" d="M3537 4398l9-11 7-5 176 4"/><path class="s2" d="M3551 4414c1 3 2 3 2 4 3 1 5 3 7 3 5 1 9-2 13-5"/><path class="s2" d="M3665 4417c1 3 2 4 2 4 3 2 5 4 7 4 5 1 9-2 13-6"/><path class="s2" d="M3704 4556c2-34 4-67 5-101 1-14 1-28 4-41 1-5 2-9 5-14 1-3 3-5 5-6 2-1 4 0 6 0 4 2 5 7 6 11 4 19 6 34 7 53 1 12 2 26 0 34"/><path class="s2" d="M3742 4492c-1 0-2 1-3 2"/><path class="s2" d="M3739 4494h-15"/><path class="s2" d="M3752 4781l-17 23-8 8h-8l-3-8-4-32"/><path class="s2" d="M3712 4772c-2-23-6-66-6-101 0-24 2-44-2-75-2-16-5-35 0-40"/><path class="s2" d="M3702 4463l-6-7-12-1-145-1-11 3-5 9v22l6 9 11 5 152 1 7-5 4-6"/><path class="s5" d="M3566 4482l-4 3-5 2-4-1-3-2-1-4 2-3 4-3 5-2h4l3 3 1 3z"/><path class="s5" d="M3680 4482l-4 3-5 2-4-1-3-2-1-4 2-3 4-3 5-2h4l3 3 1 3z"/><path class="s2" d="M3699 4536l-6-10-12-2-136-4-9 3-9 2-5 9-1 18-1 13 6 13 8 4 151 3 9-4 7-9"/><path class="s5" d="M3563 4557l-4 4-4 1-5-1-3-3-1-5 2-5 3-3 5-2 5 1 3 3 1 5z"/><path class="s5" d="M3676 4559l-3 4-5 1-5-1-3-3-1-5 1-5 3-3 5-2 5 1 3 3 1 5z"/><path class="s2" d="M3522 4502v17"/><path class="s2" d="M3529 4437l-1 15"/><path class="s2" d="M3520 4580l-1 25"/><path class="s2" d="M3698 4613l-13-7-149-2-11 6-5 10v30l9 12 8 4 149 2 10-5 5-7"/><path class="s5" d="M3560 4643l-4 4-5 1-5-1-3-4-1-5 1-5 4-4 5-1 5 1 3 4 1 5z"/><path class="s5" d="M3675 4643l-4 4-4 1-5-1-3-4-1-5 2-5 3-4 5-1 5 1 3 4 1 5z"/><path class="s2" d="M3521 4665c1 16 2 32 3 48 2 18 4 36 6 53 1 9 3 17 6 26 4 10 10 20 13 25"/><path class="s2" d="M3549 4817l166 1 11-2"/><path class="s2" d="M3725 4821v11 12l-165-1v-13-8"/><path class="s2" d="M3511 4532l-433-8-11 40v35l4 34 11 27 428 3"/><path class="s2" d="M3078 4524l-35 1-8 12"/><path class="s2" d="M3082 4660h-18"/><path class="s2" d="M3057 4514l-8-20-9-8-8-5-12 5"/><path class="s2" d="M4984 4425c-79 2-157 4-172-1"/><path class="s2" d="M4812 4424l-4 7"/><path class="s2" d="M4813 4451l6 5 10 4 144 1 10-4 3-9-4-23"/><path class="s2" d="M4980 4423l-5-7-7-5-175-1"/><path class="s2" d="M4967 4431c0 3-1 3-2 4-3 1-5 3-7 3-4 1-8-2-12-5"/><path class="s2" d="M4853 4432c0 2-1 3-2 3-3 2-5 4-7 4-5 1-9-2-12-6"/><path class="s2" d="M4811 4575c-2-34-3-67-3-101-1-14-1-28-3-41-1-5-2-9-5-14-1-3-3-5-5-6-2-1-4-1-6 0-4 1-5 6-6 10-5 19-7 34-8 53-1 12-2 26-1 34"/><path class="s2" d="M4774 4510c1 0 2 1 3 2"/><path class="s2" d="M4777 4512h15"/><path class="s2" d="M4757 4799l17 23 8 8h7l4-7 5-33"/><path class="s2" d="M4798 4790c2-22 6-65 7-1e2 1-24 0-44 4-75 2-16 6-35 2-40"/><path class="s2" d="M4815 4482l6-7 12-1 145 3 11 3 4 10v21l-6 10-11 4-152-2-7-6-4-6"/><path class="s5" d="M4952 4501l4 3 4 2 5-1 3-2 1-4-2-3-3-3-5-2h-5l-3 3-1 3z"/><path class="s5" d="M4839 4502l4 3 5 2 4-1 3-2 1-4-2-3-4-3-5-2h-4l-3 3-1 3z"/><path class="s2" d="M4816 4555l6-10 12-2h136l9 3 9 2 5 9v19l1 13-6 13-8 3-151-1-9-4-6-9"/><path class="s5" d="M4952 4579l3 4 5 2 5-1 3-3 1-5-1-4-3-4-5-2-5 1-3 3-1 4z"/><path class="s5" d="M4840 4577l4 4 4 2 5-1 3-3 1-5-2-4-3-4-5-2-5 1-3 3-1 4z"/><path class="s2" d="M4994 4525v17"/><path class="s2" d="M4989 4457l1 15"/><path class="s2" d="M4994 4603v26"/><path class="s2" d="M4815 4632l13-6 149 1 11 6 5 10-1 30-9 12-8 4-149-2-10-5-5-7"/><path class="s5" d="M4953 4665l3 4 5 1 5-1 3-3 1-5-1-5-3-3-5-2-5 1-3 3-1 5z"/><path class="s5" d="M4837 4662l3 4 5 1 5-1 3-3 1-5-1-5-3-3-5-2-5 1-3 3-1 5z"/><path class="s2" d="M4991 4688c-2 16-3 32-5 48-1 18-4 36-7 53-1 8-2 16-6 25-4 10-10 20-14 26"/><path class="s2" d="M4959 4840l-166-3-11-2"/><path class="s2" d="M4783 4839l-1 12v11l166 4v-14-8"/><path class="s2" d="M3722 4538l1070 11"/><path class="s2" d="M3724 4665l1064 11"/><path class="s2" d="M5004 4550l409 5"/><path class="s2" d="M5002 4675l408 4"/><path class="s2" d="M5410 4549l9 17 5 27-1 36-4 32-10 25 30 1 9-14"/><path class="s2" d="M5410 4549l37 1 7 19 4 35-1 34-2 15-3 11-4 9"/><path class="s2" d="M5435 4547l7-11 5-3 6-1 3-10h11l10 32"/><path class="s2" d="M5427 4690l7 24 8-10 7-1 7-4"/><path class="s2" d="M5477 4554v11"/><path class="s2" d="M2999 6316c10 8 30 20 49 31 35 20 66 35 96 47 35 15 69 26 105 37 50 15 105 31 160 44 38 9 77 16 116 24"/><path class="s2" d="M3720 6530c48 6 96 12 144 17 54 6 108 10 163 12 67 3 134 3 201 3 50 0 101 0 151-2 53-2 106-6 159-11 46-4 92-9 137-14 30-3 60-7 90-11"/><path class="s2" d="M4971 6485c39-8 78-16 116-26 38-9 76-20 114-31 36-10 73-20 107-33 25-10 50-21 75-33 20-11 40-22 56-32"/><path class="s2" d="M5439 6330l46-29"/><path class="s2" d="M3015 6288c12 8 27 18 43 28 29 17 61 35 92 48 36 15 71 25 107 35 51 15 105 30 159 43 39 9 77 16 147 29"/><path class="s2" d="M3778 6505l71 7 21 2"/><path class="s2" d="M4002 6524c69 2 139 5 208 5 55 0 109-1 164-3 65-3 130-6 195-12 45-4 90-10 135-15"/><path class="s2" d="M4923 6462c80-15 119-24 157-33 38-9 75-19 113-30 35-10 70-20 104-33 24-9 48-20 72-32 19-9 38-20 54-31"/><path class="s2" d="M5423 6303l46-29"/><path class="s5" d="M6506 4424l-61 121-133 260-119 230-94 179-84 163-80 146-72 134-67 123-62 111-37 67m-27 50-61 104-7 14"/><path class="s5" d="M4286 6225l-3 11-8 9-11 6h-12l-11-4-8-9-3-11 3-11 8-9 11-5 12-1 12 5 7 8z"/><path class="s2" d="M4245 6233c1 0 4-3 7-5 3-1 6-2 9-2 5 1 9 3 10 6"/><path class="s5" d="M3702 5938l42-56 7-6 8-3 9-1 9 2 409 221 7 6 4 15-3 8-15 22-8 7-10 4-12-1-451-173-8-5-5-8v-8l4-8z"/><path class="s5" d="M3598 5865h14l70-6 11 1 8 5 4 7v9l-3 8-45 58-7 6-8 3-9 1-8-2-76-38-6-4-3-7v-8l3-8 15-18 7-6 10-3h9z"/><path class="s5" d="M3413 5822l46-57 7-6 10-4 9 2 8 3 6 7 10 20 12 29 8 14 7 9 4 7 1 9-4 8-15 18-7 6-8 3h-9l-9-2-72-40-6-6-2-7v-6z"/><path class="s5" d="M3150 5602l273 119 7 5 3 7v8l-4 6-47 59-7 5-9 4-9 1-8-3-258-143-7-7-4-6 1-7 4-7 31-34 13-8 10-1z"/><path class="s5" d="M3570 5785l22-27h38l17 33-21 27h-39z"/><ellipse class="s5" cx="3609" cy="5788" rx="17" ry="13" transform="rotate(-13.585132887161402 3609.0,5788.0)"/><path class="s2" d="M3035 5699l19 11 3 4 4 5v1l420 236 59 31 62 28 62 26 512 198"/><path class="s2" d="M4176 6239c4 2 6 5 9 8 4 6 9 12 13 19 4 7 7 15 12 23 7 10 19 20 31 25 11 5 23 5 34 3 10-2 20-7 26-14 5-6 8-13 11-20"/><path class="s2" d="M4312 6283l-2-55"/><path class="s2" d="M3124 5573c176 73 352 146 379 163"/><path class="s2" d="M3503 5736l21 8"/><path class="s2" d="M3524 5744c7 2 15 4 23 4 13 0 25-5 37-8 12-3 25-4 38-2 7 1 14 2 21 6 13 6 22 20 32 32 12 15 26 27 41 38 16 10 34 20 48 28"/><path class="s2" d="M3764 5842l449 247"/><path class="s2" d="M4213 6089c15 8 30 16 42 27 13 12 24 26 33 41 9 15 17 32 20 49 2 7 3 14 3 23-1 12-3 26-12 36-6 7-16 13-25 15-6 3-12 3-18 2-13-3-28-13-36-26-6-10-8-21-12-32-3-8-6-16-12-22-7-8-18-13-28-18"/><path class="s2" d="M4168 6184l-536-204-102-48-60-31-427-238"/><path class="s2" d="M3557 5744l1-3 12-13 19-9 18 2 11 5 3 6"/><path class="s2" d="M3618 5726l-153-463"/><path class="s2" d="M3558 5741l-150-466"/><path class="s2" d="M3406 5293l-9-6"/><path class="s2" d="M3397 5287c-3-4-6-7-7-11-3-9 3-20 10-28 10-10 23-13 37-15 8-1 17-2 25 1 8 3 14 9 17 16 2 5 1 11-1 15-1 3-3 6-5 9"/><path class="s2" d="M3390 5276c-6-19-12-38-20-56"/><path class="s2" d="M3479 5250l-11-31-12-13"/><path class="s5" d="M3435 5117l-11-6-15-2-16 1-15 4-15 7-11 10-7 11-3 11 3 10 17 56-2-10 2-11 8-11 10-10 14-8 15-5 16-1 15 3 16 4z"/><path class="s2" d="M3362 5219l3 5 5 4"/><path class="s2" d="M3253 4859l-2-9 2-11 6-10 10-9 13-6 13-4h14l14 3 10 6-10-6-14-3h-14l-13 4-13 6-10 9-6 10-2 11 2 9 89 279"/><path class="s2" d="M3333 4819l1e2 294"/><path class="s2" d="M3252 4864c-4-1-8-2-11-4-2-2-4-6-6-10"/><path class="s2" d="M3235 4850l-4-12 2-12 5-12 10-12 13-8 16-6 18-4 16 1 15 4 11 6 7 10"/><path class="s2" d="M3344 4805c1 2 2 5 2 7 1 5 2 10 2 14-1 4-3 8-4 12"/><path class="s2" d="M3231 4838c-3-9-6-18-10-27"/><path class="s2" d="M3221 4811l-3-33 10-15 27-17 14-5 25-3 20 5 17 10"/><path class="s2" d="M3344 4805l-13-52"/><path class="s2" d="M3278 4676l-4 6-5 4-7 2-7 1-7-2-4-4"/><path class="s2" d="M3227 4667c-2 5-4 10-3 15 0 4 1 9 4 14 3 5 9 8 15 10 6 2 14 1 21 1 8-1 17-3 23-7 6-4 10-9 12-15 1-3 1-7 1-10-1-4-4-7-6-11"/><path class="s2" d="M3228 47e2c0 3 1 7 0 10 0 3-1 7-2 9-2 4-5 5-7 10-2 7-1 19-1 49"/><path class="s2" d="M3301 4678c3 8 4 11 6 12 3 1 6 0 9-1"/><path class="s2" d="M3343 4685c3 6 7 12 8 19 1 6 1 12 0 19"/><path class="s2" d="M3351 4723l-23 5 3 25"/><path class="s2" d="M3343 4685l-25 4 3 14 1 6"/><path class="s2" d="M3350 4723l11-1 22 62"/><path class="s2" d="M3383 4784c3-6 6-12 11-15 4-3 9-4 14-3 5 0 10 3 15 5"/><path class="s2" d="M3423 4771l-26-69-10-22-20-1-24 6"/><path class="s2" d="M3361 4722l4-7 6-5 4-2"/><path class="s2" d="M3383 4784c6 15 12 29 20 42 16 25 38 46 61 66 29 25 59 47 93 63 42 19 90 28 137 28 29 1 58-2 87-7 30-6 60-14 86-29 28-15 51-38 69-64 13-19 24-40 27-63 1-5 1-10 1-15"/><path class="s2" d="M3964 4805l-4-76"/><path class="s2" d="M3423 4771c6 14 12 27 19 38 5 8 10 14 16 21 10 11 22 24 36 35 16 15 34 29 50 39 10 7 20 12 31 17 16 7 33 13 51 17 22 5 45 7 68 8 26 0 53-2 79-8 18-3 35-7 49-12 8-3 15-7 23-11 9-5 19-12 28-21 10-9 20-19 27-30 6-9 11-17 14-27 2-6 4-13 5-17 0-3 0-4 0-9"/><path class="s2" d="M3919 4811l-1-82"/><path class="s5" d="M3517 5164l10 22 3 24 30-8-2-16-4-15-6-15z"/><path class="s2" d="M3532 5182l18-4"/><path class="s2" d="M3518 5168l-8 6-8 2"/><path class="s2" d="M3528 5204l-7-2-12 3"/><path class="s2" d="M3504 5179l5 14 1 11v7"/><path class="s2" d="M3504 5179l-8-10-28 7-7-1-5-5"/><path class="s2" d="M3510 5211l-4 6-32 9"/><path class="s2" d="M3560 52e2c39-10 78-20 115-32 41-13 79-30 117-49 48-25 93-55 133-91 41-38 75-82 99-132 15-28 25-59 30-91 2-19 2-39 0-57"/><path class="s2" d="M4054 4748l-1-19"/><path class="s2" d="M3549 5158c39-9 76-18 112-30 39-13 76-28 112-47 26-14 51-29 74-45 18-12 34-25 49-39 19-18 38-38 53-59 15-19 27-39 37-61 8-15 15-31 19-46 3-10 5-20 6-30 2-16 3-34 3-52"/><path class="s2" d="M4014 4749l-2-18"/><path class="s5" d="M3913 4726l-1-21 14-14 24-2 14 16 2 20-4 5-10-11h-24l-13 13z"/><path class="s5" d="M3913 4703l-6-12 15-22m33 0 12 15-5 16"/><path class="s5" d="M4006 4727l-1-21 14-15 23-2 15 15 2 20-4 5-9-12-28 2-9 13z"/><path class="s5" d="M4005 4704l-5-12 14-22m32-2 13 16-4 15"/><path class="s2" d="M4019 4702l1 9"/><path class="s2" d="M4042 47e2l1 9"/><path class="s2" d="M3927 4702v9"/><path class="s2" d="M3950 4701v9"/><path class="s2" d="M4035 4533l-3-21-4-32"/><path class="s2" d="M4028 4480c-4-7-8-14-14-20-9-9-21-14-33-15-15-2-30 3-45 7"/><path class="s2" d="M3936 4452l-87 30-93 34"/><path class="s2" d="M3997 4535l-3-24-3-22"/><path class="s2" d="M3991 4489c-4-7-5-6-5-6 0 0 0-1-1-1 0-1-2-1-3-2-1 0-2-1-3-1-1 0-2 0-3 0-5 1-16 3-27 7"/><path class="s2" d="M3949 4486l-84 28-28 10"/><path class="s2" d="M3862 4518c7-1 12-1 17-1 5 1 10 1 15 3 5 1 10 3 15 5 3 2 6 3 7 7 1 1 1 3 2 4"/><path class="s2" d="M3869 4856l-17-1-4-2-1-16-5-75 1-6 6-4h22l5 4 7 115"/><path class="s2" d="M3896 4936l7 4 5 9v7h15"/><path class="s2" d="M4e3 4956h168l6-4 1-12 2-10 7-1h16l3-5 1-10-3-136 3-16 7-4 13-2h20"/><path class="s2" d="M4209 4869l9-2 12 1 11-2"/><path class="s2" d="M4195 4806l-7 4-16 2-113 1"/><path class="s2" d="M3885 4814l25-1"/><path class="s2" d="M3968 4813h34"/><path class="s5" d="M4077 4895l6 2h6l6-2 2-1 2-4 2-3-2-21-3-6-7-3h-6l-6 2-5 7-1 3 1 18 2 4z"/><path class="s2" d="M4059 4847l8-5 10-3 17-1 11 4 7 5 5 9 2 8v28l-1 8-5 8-9 5-12 2h-11l-11-2-9-5-6-8-2-9-1-23"/><path class="s2" d="M4099 4825l27 2 9 4 4 9v74l-7 7-19 1"/><path class="s2" d="M4236 4683l-170 10"/><path class="s2" d="M3992 4697h-18"/><path class="s2" d="M3903 4699l-72 7"/><path class="s2" d="M3814 4670l8 76h17l-4-36"/><path class="s2" d="M3822 4704l51-33"/><path class="s2" d="M3971 4828h5l11 6 5 5 2 3"/><path class="s2" d="M3937 4901l6 6 6 3 6 2"/><path class="s2" d="M3347 4839l17-2 7 32h18l14-3 13-7-3-11"/><path class="s2" d="M3515 4732h-8l-10 3-2 5v8l2 5 1 5-2 6"/><path class="s2" d="M3481 4765l-45 6"/><path class="s2" d="M3348 4785l23-4"/><path class="s2" d="M3424 4746h16l17-3 13-7 7-7 5-7 7-6 12-4 10-1"/><path class="s2" d="M3408 47e2l65-7 3-19"/><path class="s2" d="M3363 4756l-3 2-3 5v8l2 5-1 6"/><path class="s2" d="M3465 4821l36-4 5 17 14 6 18-3 9-9 2-6"/><path class="s5" d="M3496 4764l2 12m3 22 1 19"/><path class="s2" d="M3504 4757h7l5-2 5-1"/><path class="s2" d="M3376 4871l4 10 13 8 17-5 7-10-3-13"/><path class="s2" d="M3511 4838l-4 10 3 18 17 8 15-2 11-12-1-16-7-10"/><path class="s2" d="M3527 4948c4 21 5 30 6 42 1 4 1 8 2 12 1 4 2 8 4 15 2 2 3 5 5 8 2 3 5 6 8 8 4 2 7 4 11 6 8 3 16 4 22 9"/><path class="s2" d="M3585 5048l221 3"/><path class="s2" d="M3519 4873l1 10"/><path class="s2" d="M3416 4878l19 85"/><path class="s2" d="M3384 4885c8 34 15 67 23 1e2 2 9 4 18 9 25 5 5 11 9 17 13 7 3 15 6 22 8 9 1 18 2 25 1"/><path class="s2" d="M3480 5032h43"/><path class="s2" d="M3457 4773l4 22 2 21"/><path class="s2" d="M3195 4704l-27-3h-25l-8-10-2-16 5-7"/><path class="s2" d="M3216 4679l-25-8-12-4"/><path class="s2" d="M3203 4723l-46-5-13 2-3 9 3 16"/><path class="s2" d="M2720 2834l133 3"/><path class="s2" d="M2902 2757l-10 44-8 20-10 12-13 4h-8l-19-16-27-35-51-174-7-47 3-24 15-29 28-37"/><path class="s2" d="M2872 2773l12-16 20-4 149 2"/><path class="s2" d="M2776 2519l18-9h22l95 1"/><path class="s2" d="M2926 2475l2 42 12 25 50 66 30 51 17 58 12 29 36 33"/><path class="s2" d="M3036 2475c0 6 0 12 0 18 0 25 2 50 17 74 16 28 49 55 67 73"/><path class="s2" d="M3120 2640l91 59 60 31"/><path class="s2" d="M3085 2779l35 8 156 4 303-4 158-11 259-7h178l115-1"/><path class="s2" d="M4401 2767c54 3 101 5 148 9 71 5 141 12 212 22 80 11 161 24 240 33 93 10 182 13 283 17 38 2 78 4 107 2"/><path class="s2" d="M5391 2850l63 3 50-55 17-59 30-51 44-59 19-33V2475"/><path class="s2" d="M5562 2475l11 13 23 49 10 39 2 25"/><path class="s2" d="M5490 2475c1 2 2 4 3 5 12 22 19 47 19 72 1 28-5 55-17 79-13 26-34 48-56 66-29 24-62 42-95 59-25 13-51 26-78 33-49 12-102 6-153 3-39-3-78-4-117-7-66-6-135-18-196-29-75-13-140-22-240-26"/><path class="s2" d="M3271 2730c20 3 40 6 61 9 38 5 78 7 118 7 69 1 137-4 207-8 81-5 165-10 257-14 75-3 156-5 238-1"/><path class="s2" d="M4152 2723c68 1 137 1 137-1"/><path class="s2" d="M4560 2730c-62-6-124-12-165-7"/><path class="s2" d="M4302 2627l-1 142 33 18 30-1 21-19 2-140"/><ellipse class="s5" cx="4344" cy="2627" rx="42" ry="16" transform="rotate(0.0 4344.0,2627.0)"/><path class="s2" d="M2946 2475l-2 8-7 21"/><path class="s2" d="M2806 2520l29 66 30 89 14 13-1 40 14 20"/><path class="s2" d="M2890 2722l137 1"/><path class="s2" d="M2879 2688h144"/><path class="s2" d="M5794 2921l-127-2"/><path class="s2" d="M5619 2839l9 43 8 20 10 12 13 5h8l19-17 32-35 57-181 3-26-6-37-19-37-75-111"/><path class="s2" d="M5890 2766l-15-56-13-27-21-37-110-171"/><path class="s2" d="M5648 2854l-12-15-20-5-131-1"/><path class="s2" d="M5738 2612l-16-7-1e2-3"/><path class="s2" d="M5714 2614l-23 52-36 90-14 13 1 41-14 20"/><path class="s2" d="M5630 2804l-117-3"/><path class="s2" d="M5641 2769l-121-5"/><path class="s2" d="M5794 2921l65-54 33-89-2-12"/><path class="s2" d="M5469 6059l-16-67-10-17-11-55 4-24-23-103-12-19-5-33 1-18-52-238-9-16-4-18 1-23"/><path class="s2" d="M55e2 5998l-9-36"/><path class="s2" d="M5491 5962c0-4 0-8 0-11 0-5 1-8 2-12 2-4 3-8 4-12"/><path class="s2" d="M5497 5927l66-180"/><path class="s2" d="M5563 5747l110-292 104-284 213-578 172-470 98-272 307-936 144-440"/><path class="s2" d="M5444 5939l42 1"/><path class="s2" d="M5441 5935l19-26 102-284 91-256 87-246 132-372 155-436 134-378 77-235 213-670 160-510 15-47"/><path class="s2" d="M5468 5858l-21-115 3-11 41-140"/><path class="s2" d="M5489 5599l109-391 210-729 228-818"/><path class="s2" d="M5441 5753h-37"/><path class="s2" d="M5402 5735l18-34 66-242 77-281 91-332 97-355 106-389 87-320 78-280 93-336 132-482 57-209"/><path class="s2" d="M6016 3550l2 10 10 24 137 243 9 13 10 4"/><path class="s2" d="M6e3 3606l8-7 6 2 10 16 134 246 5 21v24"/><path class="s2" d="M6028 3555h35"/><path class="s2" d="M6202 3778l-125-213"/><path class="s2" d="M6077 3565c0-7-1-15-1-22 1-14 7-28 11-41"/><path class="s2" d="M6087 3502l72-257 90-320 87-304 41-146"/><path class="s2" d="M6118 2475 5382 5417"/><path class="s2" d="M5382 5417c-1 5-2 9-2 13-1 8 0 14 1 19"/><path class="s2" d="M5381 5449l43 197"/><path class="s2" d="M5199 6388l2-65-60-362-75-468"/><path class="s2" d="M5183 6392l-139-881"/><path class="s2" d="M5058 5443l-63-382"/><path class="s2" d="M5031 5430l-58-370"/><path class="s2" d="M5893 2781l17-306"/><path class="s2" d="M5892 2489l-10-7-7 2-5 12-4 140"/><path class="s5" d="M6010 2611l-8 4-13 1h-15l-19-2-14-5-10-4-3-6m-11 50 2 6 10 4 15 5 18 2h16l13-1 7-4 12-50"/><path class="s2" d="M5940 2592l-8 3-4 4 3 6 10 4 14 5 19 2h15l13-1 8-4-2-6-3-4"/><path class="s2" d="M5943 2602l29-127"/><path class="s2" d="M6001 2605l31-130"/><path class="s2" d="M5921 2506l9 16v12 16l7 8"/><path class="s2" d="M5866 2636l2 19"/><path class="s2" d="M5984 2671l-129 544-137 568"/><path class="s2" d="M5931 2663l-8 36"/><path class="s2" d="M5881 2877l-40 178"/><path class="s5" d="M5732 3783l-8 4-13 1-15-1-19-4-14-5-9-5-3-6-11 45 2 9 5 8 16 7 17 3 19 1 14-1 5-5z"/><path class="s2" d="M5664 3761l-9 2-4 4 3 6 9 5 14 5 19 4 15 1 13-1 8-4-1-6-3-4"/><path class="s2" d="M5841 3055l-173 716"/><path class="s5" d="M5532 4638l-7 4-13 1-16-1-18-4-15-5m-9-5m-3-6m-11 45m2 9m10 10 11 5 17 3 19 1 14-1 5-5 14-51"/><path class="s5" d="M5464 4616m-8 2m-5 4m3 6m9 5m15 5 18 4 16 1 13-1 7-4-1-6-3-4"/><path class="s2" d="M5704 3843l-184 793"/><path class="s2" d="M5653 3834l-181 793"/><path class="s5" d="M5373 5301l-7 3h-13l-16-3-18-6-10-6m-12-6m-2-7m-17 43m1 10m5 8m10 5 14 6 11 4 15 2 14 1 6-5 19-49"/><path class="s5" d="M5308 5271m-8 2m-5 3m2 7m9 5m13 7 18 6 16 3h13l7-3-1-10-5-6"/><path class="s2" d="M5359 5296l144-598"/><path class="s2" d="M5461 4692l-42 188-43 177"/><path class="s2" d="M5322 5288l54-231"/><path class="s2" d="M5328 5142l7 48"/><path class="s2" d="M5264 5079l25 152"/><path class="s2" d="M5343 5356l-8 34-7 10-13-3-8-11-4-22"/><path class="s2" d="M5264 5079l-12-13-25-5H5104"/><path class="s2" d="M5275 5028l-13-9-15-5-25-1"/><path class="s2" d="M5367 5067l-3-4-7-9h-26l7 22 4 20v28l-5 19h9"/><path class="s2" d="M5333 5067h-24"/><path class="s2" d="M5339 5130l-22 1"/><path class="s5" d="M5309 5067l10 96-20 5-9-51-5-35 3-15 5-5 7-1z"/><path class="s2" d="M5310 5168c1 15 3 28 2 41 0 21-5 42-13 62-9 25-22 49-38 71"/><path class="s2" d="M5261 5342c-7 10-14 20-23 29-12 14-26 27-41 39-20 15-42 28-65 38-18 8-38 15-57 18-9 1-17 2-26 4"/><path class="s2" d="M4993 5451c1-9 2-13 5-15 3-3 8-3 14-3 4 0 8 1 11 3 3 3 4 8 6 12"/><path class="s2" d="M4992 5461l4-9 9-2h33l3 16v14l-4 17H5e3l-8-9"/><path class="s2" d="M5005 5450l5 10 2 7"/><path class="s2" d="M5004 5496l6-7 1-6"/><path class="s2" d="M4919 5451c1-9 2-13 5-15 3-3 8-3 14-3 4 0 8 1 11 3 3 3 5 8 6 12"/><path class="s2" d="M4919 5461l4-9 9-2h33l3 16v14l-4 17h-37l-8-9"/><path class="s2" d="M4931 5450l6 10 2 7"/><path class="s2" d="M4931 5496l5-7 2-6"/><path class="s2" d="M5002 5473h-28"/><path class="s2" d="M4930 5476c-5-2-10-4-14-6-26-12-38-21-50-32-26-22-48-48-70-74-16-20-33-40-43-62-3-8-6-16-9-25 0-3-1-6-1-9"/><path class="s2" d="M4752 5280c5-2 10-3 13-6 3-3 4-7 6-12 1-7 2-14 1-20"/><path class="s2" d="M4772 5242l-4-24h-29l-17 7-8 8-2 8-3 55 6 8h17l3-21"/><path class="s5" d="M4769 5246l-21-2m-20 7-11 9"/><path class="s2" d="M4726 5083l10 128"/><path class="s5" d="M4780 5653l20 1 4 1m6 5m3 3m1 4m1 2m-2 15m-4 6-8 3-41 1"/><path class="s2" d="M4744 5692l-9-1-7-6-3-12 3-12 10-5h19l16 6 5 7"/><path class="s2" d="M4725 5673l-5-31 6-12 10-4h20l16 5 4 10 2 28"/><path class="s2" d="M4755 5621l6-6 24-21 19-20 36-32 36-31 19-14 12-10 7-3 11-7"/><path class="s2" d="M4750 5674l-8 307"/><path class="s2" d="M4765 5788h29l12-6"/><path class="s2" d="M5027 5498l-1 22-110 1 3-26"/><path class="s5" d="M4762 6076l14 2 14-1m11-3"/><path class="s2" d="M4791 6077h11l-2 14-5 27 21 1"/><path class="s2" d="M4837 6069l9 15 2 20-7 7"/><path class="s2" d="M4763 5060c3 22 6 44 9 65 5 37 9 74 13 111 2 20 4 40 6 59 1 16 2 31 4 48"/><path class="s2" d="M4808 5590c2 18 5 34 7 52 1 10 2 20 3 31 2 12 3 25 4 35 1 9 1 17 1 25 0 17 0 39 0 60 0 31-1 63-4 94-2 26-5 52-5 79 0 19 1 38 4 57 3 34 10 66 13 92 0 5 1 10 2 17 1 5 3 11-3 14-3 1-8 2-11 2"/><path class="s2" d="M4806 5563l-3-54-2-49-4-86"/><path class="s2" d="M4818 6137l5 22-31-6 2 17"/><path class="s2" d="M4818 6137l-35-8-17 9-9 7-4 5-2 10 5 17"/><path class="s5" d="M4763 6211l-8-33m9-9m14-4 15 1 3 6 9 33"/><path class="s2" d="M4761 6216l14-10 17-4 20 2 14 51"/><path class="s2" d="M4761 6216l12 53"/><path class="s2" d="M4768 6277l9-11 24-9 12-1 19 4 23 81v11"/><path class="s2" d="M4768 6277l19 76 6 11"/><path class="s2" d="M4790 6353l13-11 18-6 17-2 15 4"/><path class="s2" d="M4664 6258l14-12-9-19-35-6-43 28 14 25"/><path class="s2" d="M4653 6249l-13 1 5 9"/><path class="s2" d="M4605 6279l12-10 13-6 20-1 11 27"/><path class="s2" d="M4614 6312l12-13 16-7 21-2 14 34-1 10-4 5"/><path class="s2" d="M4614 6312l16 32 8 2"/><path class="s2" d="M4629 6340l7-11 4-4"/><path class="s2" d="M4675 6322l-11-3-8 1"/><path class="s2" d="M4670 6340l10 25 14 5 6 11"/><path class="s2" d="M4638 6346l5 15"/><path class="s2" d="M4456 5924l14 372"/><path class="s2" d="M4472 6393l4 118"/><path class="s2" d="M4602 6216l-17-296"/><path class="s2" d="M4614 6312l-11-27 2-6"/><path class="s2" d="M4744 6037l1 32-1 37-2 28"/><path class="s2" d="M4740 6169l-2 24-3 16-4 10-7 8-14 6-30 5"/><path class="s2" d="M4746 6407l18-6 9-10 7-16 12-10 27-7 42-7h19l5 6-1 9-11 36 10 57"/><path class="s5" d="M4775 6388l3 21m1 7"/><path class="s2" d="M4806 6389l13-7 21-6 16 2"/><path class="s2" d="M4735 5095c5-1 10-3 12-8 3-5 3-12 4-16"/><path class="s2" d="M4694 5069l-2 43 6 8h17l3-21"/><path class="s2" d="M4798 5710l-26 54"/><path class="s5" d="M4774 6018l12 1h8l5 1m6 5m2 3m2 4m1 3m-3 15m-4 6-7 2-41 1"/><path class="s2" d="M4738 6058l-9-2-7-5-3-12 3-12 11-5 18-1 17 6 5 7"/><path class="s2" d="M4719 6039l-4-32 6-11 10-4h19l16 5 4 10 3 27"/><path class="s2" d="M4868 6428l-16 7-20-1"/><path class="s2" d="M4806 6389l11 31"/><path class="s2" d="M4615 6457l2 47"/><path class="s2" d="M4253 5080l-2 591 5 424"/><path class="s2" d="M4254 6336l4 172"/><path class="s2" d="M4050 5925v53"/><path class="s2" d="M4033 6506l3-113"/><path class="s5" d="M1849 3962l-30-65m-35-76-233-507-243-537-141-302"/><path class="s2" d="M1667 3528l13-15 14-6 18 5 15 15 14 22 115 242"/><path class="s2" d="M4853 2824l-82 922-71 791"/><path class="s2" d="M5286 2857l-120 848-129 832"/><path class="s2" d="M4279 2780l-11 958-10 795"/><path class="s2" d="M38e2 2790l26 9 322 9 36-9 14-12"/><path class="s2" d="M3697 2790l61 917 51 773"/><path class="s2" d="M3244 2797l85 657 137 1065"/><path class="s2" d="M4372 2805l26 9 318 12 28-3"/><path class="s2" d="M5536 2852c0 6 1 12 2 18 4 12 9 24 16 34 8 11 18 21 25 31 4 7 8 14 11 21 3 8 6 18 6 27 1 11-2 22-5 32"/><path class="s2" d="M5591 3015l-8 46"/><path class="s2" d="M5605 31e2l26-1 11-10 3-12-2-15-9-10-40-2"/><path class="s2" d="M5572 3049l-16 1-6 6-8 46 8 12 28 3 18-3 8-10 4-38-12 8-13 2-17-1-8-4-8-9"/><path class="s2" d="M5572 3123l-44 223"/><path class="s2" d="M5377 4723l9 30-3 25-8 22"/><path class="s5" d="M5348 4740l2 10m1 19-2 12"/><path class="s2" d="M5348 4740l-46-1 2 19-4 21 49 2"/><path class="s2" d="M5354 4748l21-1"/><path class="s2" d="M5356 4776l19-1"/><path class="s2" d="M5376 4725l-11 7"/><path class="s2" d="M5375 48e2l-10-7"/><path class="s2" d="M5222 4965c12-4 23-8 31-16 9-7 15-19 18-30"/><path class="s2" d="M5271 4919l28-128"/><path class="s2" d="M5313 4723l5-25"/><path class="s2" d="M5257 4693l-7 36-7 26"/><path class="s2" d="M5032 4902c30 10 60 19 90 25 13 3 26 5 40 3 11-1 23-6 31-14 4-4 7-8 16-27"/><path class="s2" d="M5329 4801l-35 163-1 21 4 22 7 30"/><path class="s2" d="M5387 47e2l20 55 1 37-3 31-8 36-40 174"/><path class="s2" d="M5347 4728l8-24 14-6 18 2"/><path class="s2" d="M5349 4543l128-583 52-226"/><path class="s2" d="M5518 4367l-35-104-12-50 2-40 43-208 9-24 8-4 4 5 10 25 39 108"/><path class="s2" d="M5606 3977l-48-131-3-45 3-36 55-250 13-8h4l18 21 43 95"/><path class="s2" d="M5711 3494l-56-120 4-44 10-60"/><path class="s2" d="M5709 2936v138l82 156"/><path class="s5" d="M5514 3411l17 12 30 4 15-9 5-18-13-15-23-9-24 3-9 16z"/><path class="s5" d="M5512 3395l-6 41 13 14m30 5 16-3 11-34"/><path class="s2" d="M5506 3436l-5 35 9 15 33 5 16-6 6-33"/><path class="s2" d="M55e2 3478l-13 33 10 72 45 1"/><path class="s2" d="M5557 3488l-11 26 4 32"/><path class="s2" d="M5520 3508l-8 14 1 33"/><path class="s2" d="M5493 3439l-9-1-14 3-15 7-6 55 15 8"/><path class="s2" d="M5519 3601l3 54 6 18 17-7"/><path class="s5" d="M5529 3734l14-54m6-20 16-72 14-77 86-417 10-113 1-42"/><path class="s2" d="M5478 3517l-14 1-16 5-6 41 10 13 25 7"/><path class="s2" d="M5455 3467l7 4 11 4"/><path class="s2" d="M5447 3537l7 4 14 5"/><path class="s2" d="M5475 36e2l-35 194-36 191-44 190-40 193-33 173"/><path class="s2" d="M5669 3270l9-11 14-3 39 1 23 1 12-2 7-11 4-11 3-14"/><path class="s2" d="M5018 5163l15-3 7-12v-19l4-13 10-7h32l10-42-14-77h-44l13 76-7 43"/><path class="s2" d="M5081 5068h-24"/><path class="s2" d="M5033 5016l-386 2"/><path class="s2" d="M5040 5058l-387 2"/><path class="s2" d="M4672 5071l-7 19 7 8-6 15 6 14-21 8-16-4-6-28-34 2-4-122 41 1 4 117"/><path class="s2" d="M5009 5081h15l6-12"/><path class="s2" d="M4718 5011c-1-4 0-6 1-8 4-8 7-16 12-23 31-51 102-79 154-89 23-4 42-5 78-3"/><path class="s2" d="M3958 5012l626 4"/><path class="s2" d="M3916 5055l665 7"/><path class="s2" d="M3891 4982l-28 1v27"/><path class="s2" d="M3909 5077l-2 24-38-1-2 26-26 2-8-15"/><path class="s2" d="M3552 4868l5 33"/><path class="s5" d="M3516 4854l10 4m13-2 7-8"/><path class="s2" d="M3435 4963l6 16 9 14 24 2h39"/><path class="s2" d="M3570 4966l4 25 16 8 25 3 237 6"/><path class="s2" d="M5184 4975c-11 1-23 2-34 3-14 1-27 1-40-1-19-2-37-8-55-12-33-7-66-10-99-9-35 0-70 3-105 8-23 4-46 8-68 19-7 4-14 8-18 14-2 3-3 7-4 13"/><path class="s2" d="M4963 4888l28 5 26 6 15 3"/><path class="s2" d="M4786 4941l90 3 25-5 13-7 12-8"/><path class="s2" d="M4715 5e3c-9-12-17-21-26-27-11-7-25-9-39-11-28-3-56-2-83-1-28 1-56 1-67 2"/><path class="s5" d="M4514 4960m-2-7m-5-6m-9-1-10 3-3 9 1 15 6 12 6 4"/><path class="s2" d="M4498 4946l-26-2-9 6-2 8 1 16 5 12 8 3h23"/><path class="s2" d="M4235 4971l2 16 1 3 4 5 3 2 3 1h2l12-3 5-4 1-6-1-26"/><path class="s2" d="M4264 4939l-2-7-5-5-9-2-10 4-3 8 1 15 5 13 6 3"/><path class="s5" d="M4248 4925l-21-2-7 4m0-1-6 15-1 15 4 10 8 2h22"/><path class="s2" d="M4498 4946l1-14 5-4h14l1 5v14 7"/><path class="s2" d="M4498 4989l10-4 6-11"/><path class="s2" d="M4309 4975l2 16 1 4 4 4 3 2 3 1h2l12-2 5-4 1-6-1-26"/><path class="s2" d="M4338 4943l-2-7-5-5-9-2-10 4-3 9 1 14 5 13 6 4"/><path class="s2" d="M4322 4929l-26-1-9 6-3 8 2 15 5 13 8 2 22 1"/><path class="s2" d="M4248 4948l29 2"/><path class="s2" d="M4327 4954l28 3 38 5 59 2"/><path class="s2" d="M4206 4942l-22-1"/><path class="s2" d="M4256 4674l-4 240"/><path class="s2" d="M4645 4945l14-11 13-7 19 2 12 14 13 9"/><path class="s2" d="M4959 4926l12 4 9 13"/><path class="s2" d="M4983 4939l10-12 18 1"/><path class="s2" d="M4959 4926l-19 1"/><path class="s2" d="M53e2 4759l-29-1"/><path class="s2" d="M5271 4758c-11 2-19 6-24 12-9 10-12 26-15 44-5 34-8 73-17 91"/><path class="s2" d="M5215 4905l-15 68-5 23-10 13-13 5-78 3"/><path class="s2" d="M1833 2475l152 494 115 378 108 350 91 270 173 503 198 572 169 484"/><path class="s2" d="M2886 5522l-190-572-148-448-137-412-153-480-228-773-105-362"/><path class="s2" d="M2167 2475l254 952 5 30-3 19-16 25-110 189"/><path class="s2" d="M2244 2475l209 825 85 342 149 584 159 629 148 581"/><path class="s2" d="M2435 3466l48 2"/><path class="s2" d="M2486 3493l-159 274-8 6"/><path class="s2" d="M2424 3637l-13 2"/><path class="s2" d="M2458 3566l206 780 170 638 94 364"/><path class="s2" d="M4036 6293l4-96"/><path class="s2" d="M3933 6488l-2 21-3 8-9 2-25-2-11-11 2-51"/><path class="s2" d="M3933 6488l4-3h10l5 5 1 26 5 5h23l14-10 6-20v-51l-13-9-24-3"/><path class="s2" d="M3923 6464l19 1 15-5v-12-22"/><path class="s5" d="M3923 6464l-4-5-4-6 4-7 8-1m6-1m7 1h4l7 3"/><path class="s2" d="M3915 6453l1-11"/><path class="s2" d="M3837 6366l6-11h15l5 2"/><path class="s2" d="M3836 6357l-3-15 2-15 26-58 26-1 21 11 6 15-17 45"/><path class="s2" d="M3846 6308l20-4 16 4 17 15"/><path class="s2" d="M3870 6265l10-7-1-9-58-6 13-23 61 7 4 11-3 7"/><path class="s2" d="M3910 6279l6-19-5-15"/><path class="s2" d="M3827 6230l-17-3-8-10-4-20 4-35 3-31-3-19"/><path class="s2" d="M3930 6324l10-166"/><path class="s2" d="M3851 6126l-6 82"/><path class="s2" d="M3898 6141l-4 73"/><path class="s2" d="M3575 6338l-11-8 2-11 28-21 24-5 23 3 23 16 12 13v7l-15 11"/><path class="s5" d="M3735 6346l-13-1-12-5-9-8-5-9 1-10 6-9 9-6 13-3 13 1 12 5 9 8 4 9v10l-6 9-10 6z"/><path class="s2" d="M3569 6407l-18-11-8-114 10-8h202l17 5 10 13 6 94"/><path class="s2" d="M3569 6407l145-2"/><path class="s2" d="M3666 64e2l-4 38"/><ellipse class="s5" cx="3611" cy="6361" rx="33" ry="27" transform="rotate(8.996543908986874 3611.0,6361.0)"/><path class="s2" d="M3650 6354a33 27 8.996543908986874 0 0-61-25"/><path class="s2" d="M3589 6329l-7 16"/><path class="s2" d="M3650 6354l-4 9"/><path class="s2" d="M3625 6154l-28-1 1-12"/><path class="s2" d="M3594 6113l-1 21 60 1 1-12"/><path class="s2" d="M3594 6113h67l5 5-2 7-6 2"/><path class="s2" d="M3623 6187l8-36 14-6 17 3 10 9-3 34"/><path class="s5" d="M3618 6223l6-33 13-6m5-2m13 3 7 1 6 9-4 29"/><path class="s2" d="M3668 6131l2 14"/><path class="s2" d="M3605 6248l1-9 8-10h52l10 9-3 29"/><path class="s2" d="M3612 6265l4-16 19-2 15 3 7 7-1 9"/><path class="s2" d="M3340 6124c7 3 15 7 22 10 12 4 24 6 37 8 18 2 37 3 56 3 24 1 47-1 71-1 18-1 36-1 54-2 3 0 6 0 8-1"/><path class="s2" d="M3307 6091c-2-5-4-10-6-15-2-9-3-19-2-28 1-9 4-18 6-27 2-5 3-9 5-14"/><path class="s2" d="M3403 5942c1 6 2 11 5 16 7 13 26 22 44 30 27 12 51 22 77 30 28 10 58 19 88 26 15 4 29 7 44 10"/><path class="s2" d="M3230 5828c15 18 30 36 43 55 13 19 23 40 31 61 12 33 17 68 15 103-1 32-9 64-18 95-4 14-9 28-11 27"/><path class="s2" d="M3289 5861c2 3 4 6 6 9 14 19 25 41 33 65 7 19 12 38 15 58 2 19 3 37 2 55-1 35-9 68-22 127"/><path class="s2" d="M3290 6169c4-1 7-1 11-1"/><path class="s2" d="M3313 6171c4 2 8 5 11 8"/><path class="s2" d="M3324 6179c-10 21-14 31-20 38"/><path class="s2" d="M3304 6217l10 61v11l-5 15-121-33-7-20 5-12h20l44 12 38 14 13 9 8 11"/><path class="s2" d="M3216 6233l51-32h18l11 6 8 10"/><path class="s2" d="M3290 6169l-18 27"/><path class="s2" d="M3414 5954l7-5 1-9-1-3-6-7"/><path class="s2" d="M3333 5923h8l12 7 3 23h34"/><path class="s2" d="M3387 5907l-3 32 4 8"/><path class="s2" d="M3380 5914l-15 3-8 5"/><path class="s2" d="M3342 5937l-4 9"/><path class="s2" d="M3386 5931l12-6 17 5"/><path class="s2" d="M3323 5877l-2 21"/><path class="s2" d="M3292 6391l-2-54 4-26"/><path class="s2" d="M3308 6402l39-260"/><path class="s2" d="M3354 6119l22-150"/><path class="s2" d="M3374 5970h20l8 39h21"/><path class="s2" d="M3153 6007l23 4 34 1 47-5 28-10 18-9"/><path class="s2" d="M2850 5830l20-106 7-4 8 5 7 17 36 1"/><path class="s2" d="M2882 5886l55 2 5 7-1 11-3 10-8 3-15 1 14 33"/><path class="s2" d="M2892 5742l-21 113"/><path class="s2" d="M2955 5805l-11 74"/><path class="s2" d="M2966 5919l124-1 11-4 6-11-1-14-46-75"/><path class="s2" d="M2966 5919l36 73 7-7"/><path class="s2" d="M2998 5973l85 2"/><path class="s2" d="M3074 5926l3 12 18 66 12 20 40-9-13-24-23-77"/><path class="s2" d="M3099 6003l33-10"/><path class="s2" d="M2981 5840l-15 79"/><path class="s2" d="M2979 5774l-21-3-13-33 4-22h25"/><path class="s2" d="M3024 5773l3-9 1-13-1-30-25-3-2 14"/><path class="s2" d="M2974 5716l-2 14"/><path class="s2" d="M3e3 5732l-2 9-8 4"/><path class="s5" d="M2975 5736l-6-4v11l23 53 15 3m18-4 8-14-9-8"/><path class="s2" d="M2990 5795l-2 10 11 23 5 7 21 3 18-8 6-15-6-25-9-8"/><path class="s2" d="M3004 5835l17 31"/><path class="s2" d="M3048 5824l12 24"/><path class="s2" d="M3010 5858l3 14 15 6 27-7 10-12v-14"/><path class="s2" d="M2989 5737l-3-34 3-29 13-35 7-35"/><path class="s2" d="M3099 5749l2 12 15 20"/><path class="s2" d="M3097 5858l35-91"/><path class="s2" d="M3111 5898l44-119"/><path class="s2" d="M3165 5803l33 5"/><path class="s2" d="M3097 5776l2 26 7 7"/><path class="s2" d="M3147 5828l22 7 27 4 25-3"/><path class="s2" d="M3409 5681l40-251"/><path class="s2" d="M3491 5156l16-99"/><path class="s2" d="M2873 5630l36 105"/><path class="s2" d="M2815 5637l-1-14h164l-12-49v-37l13-37 10-20 12-8"/><path class="s2" d="M2814 5623l27-90 122 2"/><path class="s2" d="M2916 5525l10-49-1-27-22-83-5-26 3-11 5-3 111 155"/><path class="s2" d="M2944 5664l38-11"/><path class="s2" d="M3013 5642l39-17 22-17 11-19 3-23-7-22-14-16"/><path class="s2" d="M2981 5546l15-1 4 16 12 1 16 4 15 12 4 18-7 24h-22"/><path class="s2" d="M3e3 5618l-13-9"/><path class="s5" d="M3037 5609l-11-15m-15-5-17-1-3-13-1-14 2-11"/><path class="s2" d="M2992 5490h14l4 16h13l15 4 15 13 4 17-7 24-5 2"/><path class="s5" d="M3048 5553l-11-14m-16-6h-17l-3-14-1-13 3-11"/><path class="s2" d="M3026 5543l-5 15"/><path class="s2" d="M3008 5296l-2 23 23 157-1 21"/><path class="s2" d="M3093 5519l-1-12 9-28 23-6 20 2 4 14-7 35"/><path class="s2" d="M3102 5503l17-6 13 4"/><path class="s2" d="M3089 5494l-22 2-8 10 2 7"/><path class="s2" d="M3088 5533l2-10 25-3 19 7 3 8-3 30"/><path class="s2" d="M3110 5545l-2 14"/><path class="s2" d="M3043 5663l81-90"/><path class="s2" d="M3013 5651l24 11 6 1"/><path class="s2" d="M2978 5243h14l5 16h12l16 4 15 13 4 17-8 24-22 1"/><path class="s5" d="M3034 5306l-11-15m-21-4-12-1-2-14-2-13 3-12"/><path class="s2" d="M2988 5193h15l4 16h12l16 4 15 13 4 17-7 24-5 2"/><path class="s5" d="M3044 5256l-11-14-4-2m-11-3-3-1h-14l-3-14-2-13 3-11"/><path class="s2" d="M2960 5209l27-99 6-14 12-1 7 3"/><path class="s2" d="M3034 5203l7-13 21-33 20-39 6-31-6-49"/><path class="s2" d="M3097 5465l5-24-4-22-37-158"/><path class="s2" d="M3039 5166l-31-131"/><path class="s2" d="M2993 4962l-71-303"/><path class="s2" d="M2905 4586l-113-494-77-329-109-479-47-210-137-599"/><path class="s2" d="M2512 2475l122 553 103 482 132 599"/><path class="s2" d="M2991 4974h58"/><path class="s2" d="M2978 5028h75"/><path class="s2" d="M3056 4973l-4 5-4 8 5 39 14 7 29-1 8-15"/><path class="s2" d="M3061 5005l23 1 11-8"/><path class="s2" d="M3075 4999l-71-339"/><path class="s2" d="M2910 4591h48"/><path class="s2" d="M2897 4646h75"/><path class="s2" d="M2971 4580l-8 15 8 47 15 7h30"/><path class="s2" d="M2981 4615l23 1 12-9"/><path class="s2" d="M2996 4609l-17-61-48-126-17-49-10-36"/><path class="s2" d="M2864 4276l-2 11 10 34 15 9 31-1 10-18"/><path class="s5" d="M2873 4295l17 3m4 1m11-1 9-1 6-9"/><path class="s2" d="M2851 4219l-2 12 10 34 15 9 31-1 9-18"/><path class="s5" d="M2860 4239l15 3m6 1m9-1 11-1 6-9"/><path class="s2" d="M2880 4227l-3-47 6-44 34-67 43-67 29-51 14-32 15-16h16l20 6 20 12"/><path class="s2" d="M2906 4026l-13 25-11-3"/><path class="s2" d="M2874 4019l21-52 17-7h25"/><path class="s2" d="M2884 4017l50 1"/><path class="s2" d="M2874 4019l3 14 5 15"/><path class="s2" d="M2994 3971l17 2 15 16 5 26-8 24-31 1"/><path class="s2" d="M2991 4021l-13 21-15 26-13 26-19 44-8 40 1 44 6 44 28 108 38 96 27 91 19 98 24 120 38 192 27 215"/><path class="s2" d="M3129 5468l6-72V5269l-4-83"/><path class="s2" d="M3139 5130h20l-10-22v-30l11-35-31 1"/><path class="s5" d="M3157 5113h23l1 39 15 7 17-90-11-24-15-6m-9 7m0 10v10h-19"/><path class="s2" d="M3187 5155l-10 33-14 42-16 51"/><path class="s2" d="M3169 4749l29 180 6 41-3 19"/><path class="s2" d="M3252 4902l-21-37"/><path class="s2" d="M3083 4759l10-55 18-21"/><path class="s2" d="M3035 4215l-10-22-5 13 1 16-12 3 1 14 3 9-14 1v11l9 25 12 15 25-5h19l8 9"/><path class="s2" d="M3035 4213l10 10 20 3 17 1"/><path class="s2" d="M3027 4286l16-51"/><path class="s2" d="M3074 43e2l12-42"/><path class="s2" d="M3072 4302l5 28 46 1"/><path class="s2" d="M3082 4304l53 2-7 16 8 37 21 4 23-4 14-13-7-35-12-8"/><path class="s2" d="M3141 4336l11 4 22-4 6-5"/><path class="s2" d="M3135 4305l-61-351"/><path class="s2" d="M3115 3963l61 350"/><path class="s2" d="M3101 4273l-58-312"/><path class="s2" d="M3113 4352l22 124 5 26 16 16"/><path class="s2" d="M3215 4518l-47-36-18-27"/><path class="s2" d="M3068 4337l27 143v34"/><path class="s2" d="M3098 4515l19-28 13-2"/><path class="s2" d="M2957 4346l13-46 41-119 3-28-1-30-16-71"/><path class="s2" d="M3012 3977l22-25 39-15 37-9 34-8 27-8"/><path class="s2" d="M3117 3945l28 8 26-4 14-10 6-16"/><path class="s2" d="M3171 3912l21-9 18-19 9-33-73-518-28-122"/><path class="s2" d="M3147 3797l-3 12 8 34 15 9 31 1 10-18"/><path class="s5" d="M3154 3817l17 4m4 1m9-1 11-1 6-8"/><path class="s2" d="M3136 3741l-3 11 8 35 15 9h31l10-17"/><path class="s5" d="M3144 3761l14 3m6 1m11 0 9-1 7-9"/><path class="s2" d="M3165 3748l-49-359"/><path class="s2" d="M3188 3858l4 23"/><path class="s2" d="M3077 3329l-2 12 10 34 15 9 31-1 10-18"/><path class="s5" d="M3086 3349l14 3m7 1m11-1 9-1 6-9"/><path class="s2" d="M3064 3273l-2 12 10 34 15 9 31-1 9-18"/><path class="s5" d="M3073 3293l14 3m7 1m10-1 10-1 6-9"/><path class="s2" d="M3098 3283l-2-40 6-106 10-203-1-49-5-31-2-33 3-21"/><path class="s2" d="M3087 3137l-19-48-15-53-6-92-1-35"/><path class="s2" d="M3019 2830l-13 15 12 53 19 6 34-5 7-14-9-49-24-10"/><path class="s5" d="M3020 2857l15 4m20-2 11-5"/><path class="s2" d="M3e3 2764l3 20 15 20 14 15 9 30"/><path class="s2" d="M2723 3139l7 28 7 13 82 2 12 13 1 13-3 8-17 6-9 3 42 211 15 9 21-8"/><path class="s2" d="M2820 2847l11 71-2 26-147 262"/><path class="s2" d="M2784 3045l9 32 11 3h67l15 13 5 23"/><path class="s5" d="M2843 3206l44-85 75 1 1 34-12 23-34 18-48 8z"/><path class="s2" d="M2843 3206l29 138 70-11 41-11 15-39-4-12-11-1"/><path class="s2" d="M2935 3198l-12 64 44 3 5-32-26-2"/><path class="s2" d="M2929 3267l8 44 14 4 21-4 8-7-9-40"/><path class="s2" d="M2942 3338l8 38 11 6 19-1 15-9-9-43"/><path class="s2" d="M2950 3376l8 56 12 8h18l13-5 6-6-12-57"/><path class="s2" d="M2962 3441l-15 34 3 21h16"/><path class="s2" d="M3009 3449l-12 30 7 18-20 1"/><path class="s2" d="M3007 3429l2 20"/><path class="s2" d="M2978 3450l-8 18v11"/><path class="s2" d="M2977 3486l-9 34-4 46-2 58 5 98 5 76 6 50 10 40 9 22"/><path class="s2" d="M2985 3795l17-44"/><path class="s2" d="M2992 3822l47 1"/><path class="s2" d="M2991 3788l53 1-7 16 9 37 21 4 23-4 14-12-8-35-11-8"/><path class="s2" d="M2799 3503l-7-31 7-21 75 2 9-11 42-95"/><path class="s2" d="M3047 3801l-47-272"/><path class="s2" d="M3008 3309l80 5e2"/><path class="s2" d="M3013 3769l-33-179"/><path class="s2" d="M3088 3809l-13 6h-24"/><path class="s2" d="M3e3 3253l-17-122"/><path class="s2" d="M3094 3845l11 68"/><path class="s2" d="M3057 3850l8 49"/><path class="s2" d="M3020 3826l11 60"/><path class="s2" d="M2787 3630l70-146"/><path class="s2" d="M2888 3936l51-133 5-40"/><path class="s2" d="M2897 3463l40 189"/><path class="s2" d="M2937 3014h-21l4 37 11 10 5 22 2 29"/><path class="s2" d="M2909 2763l32 246-1 23 3 16 7 12h13l10-4-1-7"/><path class="s2" d="M2935 2761l31 253-2 7 3 18 5 10"/><path class="s2" d="M2881 3008l-20 36 3 30"/><path class="s2" d="M2861 3044l54 3"/><path class="s2" d="M2887 3086l40 2"/><path class="s2" d="M2984 3059l13 10 8 41-12 9-25 5"/><path class="s2" d="M2990 3079l-15 7-19 1"/><path class="s2" d="M2943 3001h19"/><path class="s2" d="M2904 3035l-11-7-2-9-32-169"/><path class="s2" d="M2632 2985l31-176 3-14"/><path class="s2" d="M2664 2854l15 10h15l20 4 14-6 4-7-5-13"/><path class="s2" d="M2720 2834l-65-63"/><path class="s2" d="M2739 2475l-76 101-20 36-22 67 34 92"/><path class="s2" d="M2621 2595l-13-24-22-25-54-28"/><path class="s2" d="M2542 2475l44 21 24-3"/><path class="s2" d="M2650 2480v32 38"/><path class="s2" d="M2642 2834l-13-33v-26l-17-41-16-42-11-59-1-41-6-29-12-22"/><path class="s5" d="M2723 3296l19 95 2 3h2l9-17v-5-5l-20-93-1-5h-3l-8 19v3z"/><path class="s2" d="M2809 3554l-10-51"/><path class="s2" d="M2925 5628l17 55"/><path class="s2" d="M3125 5918l155-2"/><path class="s2" d="M3399 4519l-21-18-12-16"/><path class="s2" d="M3334 4487l4 34"/><path class="s2" d="M2944 3994l-4-66 16-8 17 2 6 20"/><path class="s2" d="M3007 4023l-14-12-20-3"/><path class="s2" d="M2891 2826l33 152"/><path class="s2" d="M2970 3014l5 2 5 4h12l6 9-1 11-8 5-8 1-4 3"/><path class="s2" d="M5945 6763l1 1 10 24 1 15-1 15 3 15 25 138 2 9 5 9 1 13v28l-2 16-5 11-31-3-8-6-2-12-6-39"/><path class="s2" d="M5938 6997c-2-5-2-10-5-14-2-5-7-8-12-11-14-7-29-11-44-17-9-3-18-7-24-13-6-7-10-16-12-25 0-6-1-11 0-17 1-4 2-8 4-13"/><path class="s2" d="M7447 2475v6"/><path class="s2" d="M5838 6917c-8-4-15-6-22-11-7-5-13-12-20-15-4-2-7-3-11-5"/><path class="s2" d="M5785 6886l-85-34-145-31-92-36-954-380"/><path class="s2" d="M5856 6861c-4-1-11-4-17-5-12-3-17 0-25-1-4-1-8-3-12-4-2 0-3 0-4-1"/><path class="s2" d="M5798 6850c-39-13-76-25-86-34"/><path class="s2" d="M5712 6816l-129-74-114-45-934-367"/><path class="s2" d="M5228 6705l-39 27-34 22-32 21-31 20-36 23-47 28-40 21-39 20-28 14-27 12-28 11-29 11-28 12-30 9-30 10-31 9-31 9-30 8-27 7-26 5-26 6-27 5-28 3-27 5-27 4-27 4-45 4-46 3-46 3-46 1h-46l-46-1-45-3-46-2-36-4-37-5-36-5-38-5-34-7-36-6-31-8-32-7-31-9-30-9-31-10-30-9-29-12-29-11-29-11-27-12-29-14-27-14-27-14-26-15-29-16-43-27-34-19-83-55"/><path class="s2" d="M2637 6956c9-3 15-6 22-11 6-5 12-12 19-15 4-2 7-3 11-6"/><path class="s2" d="M2689 6924l84-36 146-33 1084-463"/><path class="s2" d="M3976 6318 2888 6775l-128 78-4 3-6 3-19 6-23 10-14 7-10 6-7 2-4 1-5 1-7 2h-2-6-5-4l-5 1-13 5-9 3"/><path class="s2" d="M3071 5909l5-11 11-5 13 4"/><path class="s2" d="M3152 6007l10-25"/><path class="s2" d="M3088 6005l-19-13"/><path class="s2" d="M3133 5974l15-2 2-10-11-18-15-9"/><path class="s2" d="M3162 5982l-12-6"/><path class="s2" d="M3144 6029l-2 6-9-5"/><path class="s2" d="M3069 5992l3-7"/><path class="s2" d="M3094 5967l13 2 8-7"/><path class="s2" d="M6002 7563l-1 137 192-99 360-213 197-122 111-70 334-215 252-163"/><path class="s6" d="M2193 1133l-3-112-1-49 13-34 24-16h14 284l381 146 14 32 2 45-9 120"/><path class="s6" d="M2524 922l1 215"/><path class="s7" d="M2912 1265c-5-3-7-5-8-6-2-2-4-2-6-2"/><path class="s7" d="M2898 1257l-85-24-10-6-197-88-6-1-6 2-6 9"/><path class="s7" d="M2588 1149c-4 1-7-2-11-5-8-5-17-6-26-5-6 0-12 1-18 3-16 3-31 9-47 14-24 7-49 11-74 14-25 3-51 5-76 3-18-2-36-5-54-10-20-5-40-12-60-19-10-3-20-7-29-11"/><path class="s7" d="M2343 1189l211 64 22 14"/><text x="1427" y="2084"><tspan class="f3 s8" font-size="179.167">A</tspan></text><path class="s9" d="M1380 1917h217v217H1380z"/><g><path class="s10" d="M4421 7642v283c0 9-2 17-7 25-4 7-11 14-18 18-8 5-16 7-25 7H4088c-9 0-17-3-25-7-7-4-14-11-18-18-5-8-7-16-7-25V7642c0-9 3-18 7-25 4-7 11-14 18-18 8-5 16-7 25-7h283c9 0 18 2 25 7 7 4 14 11 18 18 5 8 7 16 7 25" fill-rule="evenodd"/></g><path class="s9" d="M4088 7642h283v283H4088z"/><text x="4156" y="7858"><tspan class="f3 s8" font-size="206.944">A</tspan></text><path class="s11" d="M2784 6090l-214-406-147-294-179-357-312-642-29-69 39-29 46-38 35-35 27-38 20-36 10-33 2-28-1-50-19-48-21-51-37-30-122-41-110-12-33-4-669-1423 119-9h646H7532l-76 241-659 1303-81-3-119 22-94 49-45 71-19 1e2 32 71 89 93 7 60-827 1553-97 5-48 3-41 23-37 58-9 52-5 39 13 63 23 46 112 133-46 48-82 76-109 88-21 17 89 35 117 46 132 76"/><path class="s11" d="M5731 6785c11 9 41 17 79 30"/><path class="s11" d="M5810 6815c2 0 4 0 14 1 8 2 22 4 29 6"/><path class="s11" d="M5853 6822c5-4 3 0 10-2"/><path class="s11" d="M5863 6820l2-17"/><path class="s11" d="M5865 6803c-1-18 4-26 3-36 0-3-1-6 4-16 2-3 5-7 9-11 5-5 12-9 17-13 15-8 17-7 20-6 5 1 14 0 20 0 13 0 16 6 22 6"/><path class="s11" d="M5960 6727l17 16 15 37 2 23 1 24 25 137 9 37v32l-3 24-18 30-68 3-28-21-5-27-6-40"/><path class="s11" d="M5901 7002c1 1 3 3 4 4 1 1 0 0-1 0-4-2-25-10-43-16-7-3-13-5-22-11-4-3-9-7-13-10-11-10-14-15-15-24"/><path class="s11" d="M5811 6945c-30-14-19-13-40-24"/><path class="s11" d="M5771 6921l-82-33-145-31-95-37-2e2-84-74 49-63 42-85 52-109 56-58 24-58 23-75 24-80 22-81 19-111 17-121 11-94 4-94-1-92-5-150-19-72-13-97-25-123-41-117-49-111-61-78-46-84-56 3 2-295 126-146 33-78 33"/><path class="s11" d="M2706 6957c-13 10-19 15-26 21-10 9-21 20-31 31"/><path class="s11" d="M2649 7009c-14 12-24 15-32 19-39 16-43 37-47 58"/><path class="s11" d="M2570 7086l-8 28-21 20-71 1-21-56 2-59 26-151 2-46 23-54"/><path class="s11" d="M2502 6769c8 0 23-2 54-2 8 0 17 0 24 4 9 7 15 21 19 31 6 17 8 23 8 27 3 11-1 5-4 30"/><path class="s11" d="M2603 6859l24 2"/><path class="s11" d="M2627 6861c24-4 25-7 40-7"/><path class="s11" d="M2667 6854c37-14 64-22 74-32"/><path class="s11" d="M2741 6822l130-80 191-93-39-31-40-32-62-51-68-58-27-22-18-21 105-117 39-54 24-53 3-43-8-67-14-40-19-30-44-27-37-5-51 136"/><path class="s10" d="M5666 7947H5268V7755h398z"/><g><path class="s12" d="M5896 7525c0 4-1 8-2 13-2 4-3 8-5 12-2 3-5 7-8 10l-124 123v57c0 11-3 20-9 28-6 8-15 15-24 18-9 4-20 5-30 2l-45-12c-3-1-5-2-8-3-2-1-4-2-6-3-2-2-4-3-6-5l-86-77c-5-4-9-10-12-15-3-6-4-13-5-19 0-6 1-13 3-19l86-246c3-8 8-16 14-21 7-6 14-10 23-12 8-1 17-1 25 2l20 5 74-56c5-3 10-6 14-7 5-2 11-2 16-2 5 0 10 0 15 2l43 11c7 2 14 5 19 10 5 5 10 10 13 17 3 6 5 14 5 21v166" fill-rule="evenodd"/></g><path class="s13" d="M5801 7347l-139 137v-79m45 29v-17l-45-12-86 246 86 77 45 12v-78l139-137V7359l-45-12v166l45 12m-45-12-139 137 45 12m-45-12v78"/><text x="5312" y="7907"><tspan class="f2 s8" font-size="137.5">FWD</tspan></text><path class="s14" d="M2202 1595l227-376"/><path class="s15" d="M2446 1191l-103 113 51 31z"/><path class="s2" d="M2185 1623l261-432"/><path class="s14" d="M5708 2045l-87 336"/><path class="s15" d="M5613 2413l66-138-58-15z"/><path class="s2" d="M5716 2013l-103 4e2"/><path class="s2" d="M2125 6915l24 3 46 38 24 3"/><path class="s15" d="M2172 6937l-120 95 46 39z"/><path class="s2" d="M1640 7567l532-630"/><path class="s2" d="M6236 6933l9-22 50-34 9-22"/><path class="s15" d="M6270 6894l58 141 50-33z"/><path class="s2" d="M6705 7544l-435-650"/><text x="5445" y="1839"><tspan class="f2 s8" font-size="123.611">INSPECTION AREA</tspan></text><text x="5445" y="1964"><tspan class="f2 s8" font-size="113.875">(ZONES 715, 716)</tspan></text><text x="6421" y="7689"><tspan class="f2 s8" font-size="123.611">RIGHT FORWARD</tspan></text><text x="6421" y="7813"><tspan class="f2 s8" font-size="123.611">NOSE LANDING</tspan></text><text x="6421" y="7938"><tspan class="f2 s8" font-size="123.611">GEAR DOOR, 714</tspan></text><text x="1022" y="7719"><tspan class="f2 s8" font-size="123.611">LEFT FORWARD</tspan></text><text x="1022" y="7843"><tspan class="f2 s8" font-size="123.611">NOSE LANDING</tspan></text><text x="1022" y="7968"><tspan class="f2 s8" font-size="123.611">GEAR DOOR, 713</tspan></text><text x="1382" y="1750"><tspan class="f2 s8" font-size="123.611">NOSE LANDING</tspan></text><text x="1382" y="1875"><tspan class="f2 s8" font-size="123.611">GEAR WHEEL WELL</tspan></text><text x="3128" y="7448"><tspan class="f3 s8" font-size="123.611">NOSE LANDING GEAR WHEEL WELL</tspan></text><text x="3706" y="7572"><tspan class="f3 s8" font-size="123.611">(FORWARD SIDE)</tspan></text></svg>