<svg xmlns="http://www.w3.org/2000/svg" height="10in" viewBox="0 0 7777 10005" width="7.78in"><defs><style>.f1{font-family:Consolas,Courier New,monospace}.f2{font-family:Helvetica,Arial,sans-serif}.f3{font-family:Helvetica,Arial,sans-serif;font-weight:700}.f4{font-family:Times}.f5{font-family:Times;font-weight:700}.f6{font-family:Courier}.f7{font-family:Courier;font-weight:700}.f8{font-family:Symbol}.s3{fill:none;stroke:#000;stroke-width:8}.s2{fill:#ffc}.s6{fill:#000}.s5{fill:#000;stroke:#000;stroke-width:8}.s1{fill:#ffc;stroke:#ffc;stroke-width:8}.s4{fill:none;stroke:#000;stroke-width:10.005}</style></defs><path class="s1" d="M7136 1671l-4 2-3 2-1 1-9 3-3 2-6 2-9 3-8 3-7 2-14 4-17 5-8 3-9 2-22 5-164 26-221 27-191 22-323 38-220 24-15 2-3 1 3 4 1 5 1 6-1 8-1 6-1 4-5 3-5 1-9-2-8-3-13-4-12-3-10-2-10-4-5-3-6-5-2-3-9 2-20 3-6 1-10 2-18 2-16 3-24 3-27 4-32 4-74 10-79 12-71 10-7 1 2 5 1 6v6 7l-5 4-9 3-10 1-14 1-15-1h-9l-11-2-14-4-12-5-5-3-6-4-4-3-15 4-34 5-361 46-1 14-24 26-50 43-64 54-69 47-22 11-8 10-7 30-21 45-24 27-50 35-65 29-16 4 5 9 1 27-7 27-15 18-33 3-17-2-4-6-15 11-31 3-20-4-6-6-5-8-4-11-3-12-2-13-17 2-7 20-5 10-5 8-8 5-7 3h-5l-35-1-12-8-9-12-7-26-1-18-6-10-23-11-25-15-23-16-23-26-27-42-13-31-7-25-4-21-8 1-4 6-10 20-25 22-34 9-32 2-41 1-86 5-194 8-2 6-12 1-2 7 1 9h10l10 4 3 7h14l3 8-3 7-5 6 5 5 12-8 10-4 12-2h14l13 1 10 6 7 10 6 15 3 13 1 14-3 23-8 15-6 7-6 6-11 5h-3l-14 1h-7l-11-2-7-3-7-5-6-4-2 3-6 7-8 5-11 2h-31l-11-5-7-9-6-12-6-1-7 10-9 9-17 6-25-1-20-11-13-21-2-25 6-30 10-15 12-11 7-2h11l8-1 8 1 11 3 6 3 6 4 6 8 2-3 3-5 5-4 1-2 3-20-13 1-4-10-3-1-10-22h-62-30l-26-2-33-3-27-5-44 1h-78l-30 1h-52l-91 2h-31l1 11-7 7 7 10-33 13-4 9-59 20-15 10-42 9-42 7-28 4-40 4-24 2h-16l-28 1-29-1-43-4-13-2-20-4-19-6-17-7-22-13-14-11-18-19-14-17-7-17h-49-47l-12 1h-13-36-55l-103-2h-35l4 13v9l-5 47-33-1 8 12 10 3 4 4v5l-21 43-2 6 6 1 9 1 8 3 5 1 7 4 7 6 5 5 5 7 6 9 3 8 2 10 2 13v7l-1 8-2 12-3 9-5 10-1 3-3 5-4 5-4 5-4 4-6 5-5 4-8 4-13 6-14 4h-10-9l-10-2-17-5-10-4-6 2-7 2-8 1-8 1h-9l-10-2-11-3-9-4-10-6-11-10-8-12-5-11-3-11-1-14 1-14 5-15 7-13 8-12 12-11 8-6 10-5 6-3 9-3 10-1h11 8v-8l-3-3-1-28h-13v-6h-23-9l-1-16h27v-20l-33-3-10 3-42-3-4-45 2-16 3-11 1-4-7 2h-8-9l-28-3-37-4-116-16-76-12-44-8-69-15-49-11-44-12-39-12-52-19-44-20-38-21-34-25-15-16-9-11-9-16-6-15-3-16v-15l5-17 6-15 9-16 11-14 22-25 22-24 14-14 17-17 21-18 24-20 26-18 23-15 9-5 13-9 27-19 10-7 25-17 35-24 34-24 32-23 27-19 32-22 28-17 29-17 13-6 20-10 30-13 21-8 29-9 13-4 18-6 39-9 38-9 26-5 38-8 23-4 51-6 41-4 60-6 53-3 57-2h23l104 3 80 3 66 5 72 7 67 8 72 12 57 10 70 12 58 9 39 8 74 13 116 19 146 25 186 32 188 32 175 29 155 27 234 40 116 19 107 19 85 17 27 7 14-3 19-14 24-26 21-46 17-34 13-28 32-71 38-89 15-29 22-48 14-30 17-38 13-18 12-5 18 3 24 6-19 139-26 172-24 165-11 81 12 12 42-3 19-2 36-4 41-3 20-2 27-2 30-3 31-2 20-2 24-3 23-2 37-2 30-3 35-3 24-2 127-10 109-9 65-7 85-9 89-11 80-9 73-7 66-6 93-9 78-9 75-7 45-5 50-5 54-5 59-6 44-4 70-7 77-7 30-3 34-3 45-4 41-4 37-3 19-2 34-3 44-3 39-2 39-2 11-1 20-2 24-3 18-1 24-2 16-1 14-2 16-3 13-3 14-4 12-4 12-3 4 1z"/><g><path class="s2" d="M6131 5825l-1 3 4 10 2 17-5 46h-1l-43 2-7-3-34 4v18l27-1-1 17h-31l-1 5-13 1-1 28-2 10c11 0 22 0 32 3 8 2 17 6 24 12 11 8 21 19 27 32 6 11 10 23 10 36 1 11-2 22-6 33-6 10-13 20-23 26-7 5-15 8-23 10-11 3-22 4-32 3-4-1-8-2-12-3l-8-3c-11 4-22 8-33 10-12 2-25 2-37-2-12-4-23-11-32-20-9-8-16-18-20-29-4-9-6-20-7-31 0-13 2-27 8-39 6-12 15-22 26-28 6-2 11-4 16-6l12-1-19-51 1-7 9-3 7-5 2-6-32 2-6-50 3-20-95 2H5657l-88-1c0 5-7 14-13 21-13 18-24 31-38 41-10 8-22 14-35 19-21 9-43 14-65 16-34 5-68 4-102 3-23-2-45-3-67-6-10-1-20-3-30-4l-33-6-52-11-15-8-4-2-55-19-4-10-33-12 7-10-6-7-5-11-317-4-24 5-27 3-50 2h-77l-7 20-4 3-5 10-11-1 3 22 10 8c4-4 7-8 12-10 4-3 10-4 15-4 10-2 20-4 29-1 6 2 12 6 17 11 6 7 11 15 14 24 3 10 3 21 3 31-1 12-3 24-9 33-5 6-12 12-19 14-8 3-17 4-26 3-10 0-20-1-26-6-4-3-6-8-9-13l-6-8c-4 9-8 17-16 22-3 2-7 4-11 5-10 3-20 2-31 1-7-1-15-2-21-8-2-3-4-7-6-7-3-1-7 5-10 8-4 3-9 4-14 4-11 2-22 3-32 0-7-3-14-8-19-14-4-5-7-11-9-17-3-5-4-12-5-18-1-7 0-15 1-22 1-9 4-17 8-25 3-8 8-15 16-18 2-1 5-1 8-1 8-1 15-1 23 0 5 1 11 3 17 4l10 7 6 6 3-6-6-9-1-6 3-7h13l3-7 8-5 12-1v-13l-14-4-6-6-165-2c-83-3-166-5-250-8l-80-3c-1 4-2 8-4 12-6 17-16 32-27 46-7 9-14 17-22 25-7 7-14 13-22 20l-8 6c6 11 5 24 3 37-1 13-2 26-8 37-2 4-5 7-8 10l-11 8-38 1-11-4-12-10-9-18-5-22h-12l-7 36-10 16-9 5-40 3-10-5-10-7-8 5-44-1-11-6-6-12-5-16-5-22c-19-4-38-8-56-13-18-5-36-11-53-19-20-8-39-18-56-30-8-6-15-11-23-17l-13-17-21-18v-18l-26-29 8-15-4-18-10-16 11-25-1-9-5-21c-13-13-32-18-48-27-18-8-33-21-48-33-12-10-23-19-35-30-6-5-12-11-18-17l-7-10-8-14-383-52-19-3-5 2-19 12-22 5-29 1-28-1-8-5-2-5-1-9 1-12-241-36-146-21-9 8-13 6-18 4-18 6-10 2-11 2-6-6-3-9-1-13 2-9c-32-3-65-6-97-9-85-9-169-18-253-29-42-5-84-10-126-15-84-11-168-20-252-29-51-6-102-12-153-19-29-3-58-7-87-10-37-5-73-10-109-17-26-5-52-10-77-17-18-5-36-10-54-16-9-3-19-7-29-11l-6-5v-4l2-4 43 11 30 5 35 5 93 7 141 10 102 10 303 27 408 41 298 31 260 27 186 18 216 22 102 8 93 7 18-14-29-193-26-179-27-183 38-8c4-1 9 0 13 2 4 1 8 3 11 5 2 2 4 4 5 7 4 5 6 10 9 16l178 387c10 11 14 26 24 37 6 6 15 11 23 16l13 5c1-1 2-1 3-1 59-14 120-25 180-36l1675-285c42-6 83-12 125-16 47-5 94-8 141-11 52-3 105-4 158-4 74 1 148 6 221 15 60 7 119 16 177 30 55 13 110 29 160 54 86 42 160 107 241 159l62 43 11 6 18 11c20 14 40 28 59 44 27 22 53 48 77 74 14 16 28 33 38 52 7 13 13 27 14 41 1 17-4 35-13 50-11 19-28 34-47 47-41 30-88 50-136 67-70 25-143 42-216 55-44 8-88 15-131 21-50 7-101 13-152 20-5 1-11 1-17 1-5 0-10 0-15-1" fill-rule="evenodd"/></g><path class="s3" d="M1111 5996H3531m349 0h78m313 0m374 0h484m376 0h341m531 0h362"/><path class="s3" d="M6620 23e2H4678m-1295 0H3064m-624 0H2158m-320 0H997"/><path class="s4" d="M4787 1881l82-561-30-7"/><path class="s4" d="M4839 1313c-4-1-8-2-11-2-6 0-12 2-17 6-5 3-9 7-12 12-1 3-2 5-4 8"/><path class="s4" d="M4795 1337l-180 393"/><path class="s4" d="M4615 1730c-2 4-4 8-6 12-5 8-10 15-17 23-6 7-12 13-20 18-6 3-12 5-18 7"/><path class="s4" d="M4796 1886c-18-11-35-22-54-32-22-12-45-21-68-29-41-14-82-26-124-36-60-13-121-24-182-35"/><path class="s4" d="M4368 1754 2680 1466"/><path class="s4" d="M2680 1466c-43-6-85-12-127-16-47-5-94-8-142-11-53-3-106-4-159-4-74 1-149 6-223 15-60 7-119 17-178 31-56 13-111 29-162 54-87 42-161 108-243 160"/><path class="s4" d="M1446 1695l-62 44-11 6-18 11"/><path class="s4" d="M1355 1756c-21 14-41 28-60 44-27 23-53 48-77 75-14 16-29 33-39 52-7 13-13 27-14 42-1 17 4 35 13 50 11 20 29 35 47 48 42 30 89 50 138 67 71 25 144 42 218 56 44 8 88 15 132 21 50 7 101 13 152 20 6 0 12 1 17 1 9 0 17-2 25-3 12-3 24-6 34-12"/><path class="s4" d="M1941 2217l165 15 6 1 8 17 29 1 24 1 160 1 1006-11"/><path class="s4" d="M3339 2242c11 2 22 4 33 5 29 4 59 5 89 5 41 0 81 0 122 0 88-1 176-4 271-10"/><path class="s4" d="M1388 1740c11 3 22 5 32 9 40 17 63 64 77 109 13 41 18 80 17 119-1 25-4 49-10 74-5 18-11 36-21 52-7 12-16 22-27 31-8 7-19 12-30 14-5 1-11 1-17 1"/><path class="s4" d="M1940 2215c-40-5-80-11-120-16-35-5-69-10-104-17-13-2-25-5-38-8"/><path class="s4" d="M1678 2174l-16-2-13 1-14 5"/><path class="s4" d="M1635 2178c-5 2-10 4-15 6-7 3-15 5-23 6-3 1-6 1-9 1"/><path class="s4" d="M2120 2250l3 21-6 50-166-15 7-47-1-18-12-23"/><path class="s4" d="M1943 2309l-45-3-5-46 2-17 4-10"/><path class="s4" d="M2018 2539c-7-6-15-12-20-20-6-7-9-15-11-23-2-11-3-21-1-32 1-9 4-18 9-27 5-10 11-19 19-26 9-8 20-14 31-17 7-1 14-2 21-3 5 0 11 0 16 0 5 1 10 1 15 2 4 1 8 2 12 4 9 4 18 11 24 20 8 10 12 23 14 36 1 11 0 22-3 33-2 9-6 19-12 27-6 10-15 18-25 24-9 6-18 10-29 12-11 2-24 2-35-1-9-3-17-6-25-9"/><path class="s4" d="M2018 2539l-9 3"/><path class="s4" d="M2009 2542c-5 1-9 2-14 2-10 2-21 1-31-2-11-3-21-9-30-17-10-9-17-21-21-35-2-10-2-21 0-31 3-13 8-25 16-35 7-10 16-18 26-24 9-6 20-10 31-12 6 0 13 0 20 1"/><path class="s4" d="M2006 2389v-8l-3-3v-28h-13v-6h-32l-1-16h27v-18"/><path class="s4" d="M2003 2353l43 1 2-4 3-4-1-6 31 4"/><path class="s4" d="M2080 2344l-37 51"/><ellipse class="s3" cx="2088" cy="2472" rx="40" ry="33" transform="rotate(108.67979661948664 2088.0,2472.0)"/><path class="s4" d="M1974 2434c-3 4-7 9-9 13-4 7-6 15-6 22-1 7 0 13 2 19 2 5 5 10 9 15"/><path class="s4" d="M2042 2353l1 25-4 4-1 9"/><path class="s4" d="M2007 2387l-1 28"/><path class="s4" d="M2085 2385l17-37 3-6 1-5-4-4-11-3-8-12"/><g><path class="s3" d="M2439 1565l-138-14c-3-1-7-2-10-1-5 1-9 3-11 7-2 5 0 10 2 15 5 16 9 29 14 42 9 28 16 56 22 85 5 28 9 56 10 83 0 17 0 34 1 51 0 5 1 10 3 14 3 5 9 9 15 10l149 8c3-1 7-2 9-3 5-4 8-10 9-16 2-7 2-14 2-20-1-33-3-66-6-99-4-34-11-69-22-102-2-7-5-15-8-23-3-8-6-17-11-24-3-4-7-7-11-9-5-2-12-3-19-4" fill-rule="evenodd"/></g><path class="s4" d="M1692 1706l-5-9v-16l7-15 53-48 26-19"/><path class="s4" d="M1773 1599c7-4 14-8 21-10 5 0 9 0 13 0"/><path class="s4" d="M1807 1589l76 11 17 6 9 7 38 63 2 10-8 12-76 29"/><path class="s4" d="M1865 1727c-19-3-38-5-57-8-48-5-97-11-145-14-31-2-62-3-92-4-35-1-70-1-105-1-7 0-13 0-19 0"/><path class="s4" d="M1618 1691c9-1 17-2 24-6 9-5 16-14 24-22"/><path class="s4" d="M1666 1663l67-58 1-10-3-7-15-2"/><path class="s4" d="M1716 1586c-28 1-56 2-83 6-18 3-35 7-54 11"/><path class="s4" d="M1795 1588c-14-1-28-2-41-2-13 0-25 0-37 0"/><g><path class="s3" d="M3360 1686l-69-9c-2 0-4 0-7 0-1 1-3 1-4 2-2 2-1 6-1 9 1 3 2 6 3 9 5 11 11 24 16 37 10 27 13 55 15 84 1 20 3 40 1 60-1 9-2 18-1 27 0 2 0 4 0 7 1 3 2 7 6 9 2 2 5 3 6 2l72 6c3-1 5-1 7-3 3-2 6-6 7-10 4-9 4-18 4-28 1-25 0-50-3-75-4-28-13-54-20-83-4-13-7-26-16-36-2-3-5-5-7-6-3-1-6-2-9-2" fill-rule="evenodd"/></g><path class="s4" d="M3015 2256l-8 7 8 11-33 12-4 9-60 21-15 10"/><path class="s4" d="M2903 2326c-25 5-50 10-75 15-50 8-1e2 12-152 12-36-1-73-3-108-15-21-6-42-16-58-30-14-12-25-26-36-41"/><path class="s4" d="M2719 2265c-7 16-15 32-26 45-14 14-32 24-51 29-14 4-28 5-43 6"/><path class="s4" d="M2628 2268c-5 8-10 16-17 21-10 7-23 11-35 10-14 0-27-5-38-13-9-5-16-13-24-21"/><path class="s4" d="M4414 1923l1054-91 354-38 520-52 396-37 68-6 140-9"/><path class="s4" d="M6946 1690c22-2 44-4 66-6 16-1 32-2 48-4 15-3 31-6 45-10 9-2 18-5 27-7"/><path class="s4" d="M7132 1663l4 1v7l-8 5"/><path class="s4" d="M7128 1676c-17 7-34 13-51 18-40 13-82 21-124 29-51 8-103 15-155 22-67 8-134 16-202 24-80 9-160 18-240 27-71 9-142 17-214 26-86 10-173 19-260 28"/><path class="s4" d="M5843 1844l-41 4-6 1-2 5"/><path class="s4" d="M5794 1854c1 2 2 5 4 7 3 5 10 8 16 11 12 4 24 5 35 9 6 1 11 3 16 5 2 0 5 1 7 1 4 0 8-2 9-5 2-2 3-6 3-9 0-6 1-13-1-18-2-3-4-6-7-8-3-2-7-3-11-3"/><path class="s4" d="M5865 1844h-25"/><path class="s4" d="M5791 1860l-381 55"/><path class="s4" d="M5388 1904c3-1 6-1 8 0 3 2 5 5 6 8 3 5 4 10 4 15 0 5 0 9 0 13"/><path class="s4" d="M5406 1940l-5 4"/><path class="s4" d="M5401 1944c-7 2-14 3-22 4-17 1-34 0-50-4-9-2-17-5-25-9-6-4-12-8-16-14-2-2-4-4-6-6"/><path class="s4" d="M5282 1915v-3l5-2"/><path class="s4" d="M5287 1910c8-1 16-1 24-2 9 0 19 0 29-1 9 0 18-2 27-3 7 0 14 0 21-1"/><path class="s4" d="M5314 1919c9 3 18 6 27 7 6 1 11 1 16 1"/><path class="s3" d="M5279 1930l-482 65m-14 2m-11 2m-12 24m-10 45m-10 8m-13 25m-3 12"/><path class="s4" d="M4139 1944l-143 8-248 14"/><path class="s4" d="M3748 1966c-10 0-20 0-31 1-14 2-28 6-41 13-7 4-14 9-20 15-4 5-7 11-9 18-2 6-2 12 0 16 2 7 9 12 16 16 20 12 38 22 58 29 13 4 27 8 40 14 12 6 23 16 35 23 12 6 25 11 39 15 28 8 57 13 86 16"/><path class="s4" d="M3921 2142c12 1 23 2 34 3 25 3 50 4 76 3"/><path class="s4" d="M4289 2395c-3 8-5 16-9 24-3 7-8 14-15 18-5 3-10 4-15 4"/><path class="s4" d="M4250 2441l-31-1"/><path class="s4" d="M4219 2440c-4-1-8-2-11-5-7-4-11-10-14-18-4-9-6-18-7-28 0-7-1-15 0-22 1-6 2-11 4-16"/><path class="s4" d="M4268 2393c0 2 0 4-1 7-2 3-5 6-9 6-5 1-9-2-12-6-2-4-3-8-3-13 0-2 0-5 0-7"/><path class="s4" d="M44e2 2396c-1 7-2 15-4 22-2 7-5 14-10 19-5 4-10 7-15 9"/><path class="s4" d="M4371 2446l-38-2"/><path class="s4" d="M4333 2444c-4-1-7-2-10-3-5-3-8-9-10-15-3-7-6-13-7-20-1-4-1-8-2-13"/><path class="s4" d="M4357 2395c0 3 1 6 2 10 2 3 4 7 7 8 1 0 2 0 4 0 1-1 3-2 4-3"/><path class="s4" d="M4467 2389c-1 8-3 15-5 22-2 7-4 14-9 19-3 4-8 7-12 8-4 1-7 1-11 1"/><path class="s4" d="M4430 2439h-26l-8-2-6-4"/><path class="s4" d="M4450 2394c-1 3-2 7-4 10-2 1-3 3-5 4-3 1-7 1-10 0-3-1-5-3-6-6-2-2-2-5-2-7"/><path class="s4" d="M4253 2438c-5-2-9-4-13-7-5-5-8-12-10-20 0-3-1-6-1-9"/><path class="s4" d="M3624 2314c4-5 8-9 14-12 5-2 10-4 15-4 7-1 13-1 19-1 6 0 11 0 16 2 6 2 10 8 14 14 5 9 9 19 10 29 2 9 2 19 0 28-1 10-5 19-11 28-4 5-8 9-13 12-4 2-7 3-10 5"/><path class="s4" d="M3678 2415h-24"/><path class="s4" d="M3654 2415c-5-1-9-1-12-2-4-2-8-3-12-6-2-2-5-5-7-7"/><g><path class="s3" d="M3573 2299l25 1c5 0 10 1 14 3 7 4 11 12 14 19 4 9 7 18 8 28 1 9 0 18-2 27-2 8-5 15-9 22-4 7-9 12-15 15-4 2-8 3-13 3h-25c-4 0-9-1-13-3-6-4-10-10-14-16-5-9-9-18-10-28-2-10-1-21 2-31 3-10 7-18 13-26 4-5 9-10 15-12 4-1 7-2 10-2" fill-rule="evenodd"/></g><path class="s4" d="M3535 2320c-2-4-5-9-10-12-5-5-12-8-18-9-8-2-15-1-23-1-4 0-7 0-10 1-5 1-9 4-12 8-5 4-9 9-12 15-6 11-8 25-9 37 0 10 1 19 5 27 2 7 6 13 11 18 4 5 9 8 14 10 3 1 5 1 8 1 8 1 16 1 24 0 4 0 8 0 12-2 5-2 9-7 13-11 2-4 5-7 7-11"/><g><path class="s3" d="M3676 2386a31 19 94.09863602658837 0 1-16-15m7-40m0 0a31 19 94.09863602658837 1 1 9 55" fill-rule="evenodd"/></g><g><path class="s3" d="M3598 2389a31 19 94.09863602658837 0 1-16-16m4-37m0 0a31 19 94.09863602658837 1 1 12 53" fill-rule="evenodd"/></g><path class="s4" d="M3520 2258l7 16h3l4 10 8-1 14-6"/><path class="s4" d="M3556 2256l2 19-1 5"/><path class="s4" d="M3547 2282l-4 23-5 4-3 5"/><path class="s4" d="M3604 2254l-2 4-13 2-2 4 1 10 10 1 4 2 6 2 3 7h14"/><path class="s4" d="M3625 2286c1 2 2 4 2 6 1 1 0 3 0 4-1 2-1 3-1 4"/><path class="s4" d="M3626 23e2l-5 7"/><path class="s4" d="M3585 2264c-3 1-6 2-9 3-3 1-7 1-10 1"/><path class="s4" d="M3517 2328a31 19 84.7628825858871 1 0-2 61"/><path class="s4" d="M3585 2274l-2 14"/><ellipse class="s3" cx="2086" cy="2472" rx="5" ry="3" transform="rotate(130.2688388959872 2086.0,2472.0)"/><path class="s4" d="M2076 2392c-5 0-11 2-17 5-7 4-12 8-16 15-1 2-2 4-3 6"/><path class="s4" d="M2060 2545c-7-1-13-5-18-10-3-3-5-6-8-10"/><path class="s4" d="M2084 2450c4 1 8 2 10 4 5 3 7 11 6 18-1 6-5 11-9 15"/><path class="s4" d="M4844 1330l-115 504"/><path class="s4" d="M4715 1898c-2-4-3-8-5-12-1-1-2-3-3-5-1-1-2-2-3-2-1-1-3-2-4-2"/><path class="s4" d="M47e2 1877l-20-3h-1-1v1 3"/><path class="s4" d="M4678 1878c2 3 4 6 5 9"/><path class="s4" d="M4029 2180l-14 25-26 23-33 9-16 1-86 4"/><path class="s4" d="M3916 1942c-14-1-29-2-43-5-23-6-44-17-67-24-37-12-78-13-116-6-66 13-124 50-178 90-42 31-81 63-116 1e2-20 22-39 46-58 70"/><path class="s4" d="M3338 2167l-13 23"/><path class="s4" d="M3325 2190c-2 4-5 8-5 13 0 8 8 15 17 21 10 8 19 14 27 21"/><path class="s3" d="M4725 2112m4-3m10-6m12-6m23-10m17-11m24-20m16-13 17-15 20-19 10-11 3-6"/><path class="s4" d="M4467 2389v-9-16l-1-12"/><path class="s4" d="M4450 2394l2-10 1-10-1-7"/><ellipse class="s3" cx="4218" cy="2147" rx="175" ry="145" transform="rotate(84.37807228584641 4218.0,2147.0)"/><path class="s4" d="M4268 1982a175 145 84.37807228584641 0 0-9 332"/><path class="s3" d="M4271 2014l14 33m-20 11-25-40m-19 23 30 36m-16 11-35-29m-12 24 42 23m0 23-53-15m-2 36h52m0 23-44 15m8 30 45-23m8 20-38 32m18 16 31-41m11 15-21 45"/><path class="s4" d="M43e2 2054a91 76-92.21332952941688 0 0 16 181"/><path class="s4" d="M4324 2073a74 70 77.59900049366532 0 0-1 149"/><circle class="s3" cx="4302" cy="2144" r="41"/><ellipse class="s3" cx="4245" cy="2147" rx="232" ry="212" transform="rotate(87.34362166849212 4245.0,2147.0)"/><path class="s4" d="M4475 1946c17 8 34 16 50 25 18 9 34 19 50 32 17 14 33 30 44 49 12 18 19 40 23 61 4 18 5 35 4 53-1 21-6 41-14 61-9 21-20 41-37 57-18 18-41 31-60 42-12 7-21 12-39 19-40 15-119 35-93 26"/><path class="s4" d="M4265 1910l59-2 45 4 49 12 53 21"/><path class="s4" d="M4262 2379c18 0 36 0 54 0 16 0 32-1 47-2 13-1 25-3 37-5"/><path class="s4" d="M4069 2024c4 4 8 8 13 10 6 3 13 3 20 3"/><path class="s4" d="M4101 2313c-1-5-1-10 0-15 2-5 7-9 12-12 4-2 9-4 13-6"/><path class="s4" d="M4336 2265c5 5 10 9 15 13 10 6 21 9 33 10 10 0 19 0 29 0"/><path class="s4" d="M4421 2274c-10-2-20-4-27-1-8 4-12 15-16 26"/><path class="s4" d="M4378 2299l24 4"/><path class="s4" d="M4303 2003c1-5 2-10 4-14 9-19 36-23 62-28"/><path class="s4" d="M4657 2176c23-14 46-28 68-44 38-26 72-58 106-90"/><path class="s4" d="M3266 5478l-82-556 30-7"/><path class="s4" d="M3214 4915c4-1 8-2 11-2 6 0 12 2 17 6 5 3 9 7 12 12 1 3 2 5 4 8"/><path class="s4" d="M3258 4939l178 389"/><path class="s4" d="M3436 5328c2 4 4 8 6 12 5 8 10 15 17 23 6 7 12 13 20 18 6 3 12 5 18 7"/><path class="s4" d="M3257 5483c18-11 35-22 53-32 22-12 45-20 68-28 40-14 81-26 123-36 59-13 120-24 180-35"/><path class="s4" d="M3681 5352l1675-285"/><path class="s4" d="M5356 5067c42-6 83-12 125-16 47-5 94-8 141-11 52-3 105-4 158-4 74 1 148 6 221 15 60 7 119 16 177 30 55 13 110 29 160 54 86 42 160 107 241 159"/><path class="s4" d="M6579 5294l62 43 11 6 18 11"/><path class="s4" d="M6670 5354c20 14 40 28 59 44 27 22 53 48 77 74 14 16 28 33 38 52 7 13 13 27 14 41 1 17-4 35-13 50-11 19-28 34-47 47-41 30-88 50-136 67-70 25-143 42-216 55-44 8-88 15-131 21-50 7-101 13-151 20-6 0-12 1-17 1-9 0-17-2-25-3-12-3-24-6-34-12"/><path class="s4" d="M6088 5811l-163 15-6 1-8 17-29 1-24 1-158 1-998-11"/><path class="s4" d="M4702 5836c-11 2-21 4-32 6-29 4-59 4-89 4-41 0-81 0-121 0-87-1-175-3-262-5"/><path class="s4" d="M6637 5338c-11 3-22 5-32 9-40 16-62 63-76 108-13 41-18 79-17 118 1 25 4 49 10 74 5 18 11 35 21 51 7 12 15 22 26 31 8 7 19 12 30 14 5 1 11 1 17 1"/><path class="s4" d="M6089 5809c40-5 79-10 119-16 35-4 69-9 103-16 13-2 25-5 38-8"/><path class="s4" d="M6349 5769l16-2 13 1 14 5"/><path class="s4" d="M6392 5773c5 2 10 4 15 6 7 3 15 5 23 6 3 1 6 1 9 1"/><path class="s4" d="M5911 5844l-3 21 6 50 165-15-7-47 1-18 11-23"/><path class="s4" d="M6086 5903l45-3 5-46-2-17-4-10"/><path class="s4" d="M6012 6131c7-6 15-12 20-20 6-7 9-15 11-23 2-11 3-21 1-32-1-9-4-18-9-26-5-10-11-19-19-26-9-8-20-14-31-17-7-1-14-2-21-3-5 0-10 0-15 0-5 1-10 1-15 2-4 1-8 2-12 4-9 4-18 11-24 19-8 11-12 24-14 37-1 10 0 21 3 32 2 9 6 19 12 27 6 10 15 18 25 24 9 6 18 10 28 12 12 2 24 2 35-1 9-3 17-6 25-9"/><path class="s4" d="M6012 6131l9 3"/><path class="s4" d="M6021 6134c5 1 9 2 14 2 10 2 21 1 31-2 11-3 21-9 29-17 10-9 17-21 21-35 2-10 2-21 0-31-3-13-8-24-16-35-6-9-15-17-25-23-9-6-20-10-31-12-6 0-13 0-20 1"/><path class="s4" d="M6024 5982v-8l3-3v-28h13v-6h32l1-16h-27v-17"/><path class="s4" d="M6027 5946l-43 1-2-4-3-4 1-6-30 4"/><path class="s4" d="M5951 5937l36 51"/><ellipse class="s3" cx="5943" cy="6064" rx="39" ry="32" transform="rotate(71.06250817445091 5943.0,6064.0)"/><path class="s4" d="M6056 6027c3 4 7 8 9 13 4 6 6 14 6 21 1 7 0 13-2 19-2 5-5 10-9 15"/><path class="s4" d="M5988 5946l-1 25 4 4 1 9"/><path class="s4" d="M6023 5980l1 28"/><path class="s4" d="M5946 5978l-17-37-3-6-1-5 4-4 11-3 8-11"/><g><path class="s3" d="M5595 5165l136-14c3-1 7-2 10-1 5 1 9 3 11 7 2 5 0 10-2 15-5 15-9 28-14 42-8 27-15 55-21 84-5 28-9 55-10 83 0 16 0 33-1 50 0 4-1 9-3 13-3 5-9 9-15 10l-148 8c-3-1-7-2-9-3-5-4-8-10-9-16-2-7-2-13-2-20 1-32 3-65 6-97 4-35 11-69 22-102 2-7 5-15 8-22 3-9 6-18 11-24 3-4 7-7 11-9 5-2 12-3 19-4" fill-rule="evenodd"/></g><path class="s4" d="M6335 5305l5-9v-16l-7-15-52-48-26-19"/><path class="s4" d="M6255 5198c-7-4-14-8-21-9-5 0-9 0-13 0"/><path class="s4" d="M6221 5189l-75 10-17 6-9 7-38 63-1 10 7 12 76 28"/><path class="s4" d="M6164 5325c19-3 38-5 57-7 47-6 95-11 143-14 30-2 61-3 91-4 35-1 70-1 105-1 6 0 12 0 18 0"/><path class="s4" d="M6409 5290c-9-1-17-2-24-6-9-5-16-14-24-22"/><path class="s4" d="M6361 5262l-66-58-1-10 3-6 15-2"/><path class="s4" d="M6312 5186c27 1 55 2 82 6 18 2 35 6 53 10"/><path class="s4" d="M6233 5188c14-1 28-2 41-2 13 0 25 0 37 0"/><g><path class="s3" d="M4681 5285l69-9c2 0 4 0 6 0 1 1 3 1 4 2 2 2 1 6 1 9-1 3-2 6-3 9-5 11-11 24-15 36-10 27-13 55-15 83-1 20-3 40-1 60 1 9 2 18 1 27 0 2 0 4 0 7-1 3-2 7-6 9-2 2-5 3-6 2l-72 6c-3-1-5-1-7-3-3-2-5-6-7-10-3-9-3-18-3-28-1-24 0-49 3-74 4-28 12-54 20-82 3-13 6-26 15-36 2-3 5-5 7-6 3-1 6-2 9-2" fill-rule="evenodd"/></g><path class="s4" d="M5023 5850l8 7-8 11 33 12 4 9 59 21 15 9"/><path class="s4" d="M5134 5919c25 5 50 10 75 15 49 8 1e2 12 150 12 37-1 73-3 108-14 21-7 41-16 58-30 13-12 24-26 35-41"/><path class="s4" d="M5317 5859c7 16 15 32 26 45 13 14 32 24 50 29 14 3 28 4 43 5"/><path class="s4" d="M5407 5862c5 8 10 16 17 21 10 7 23 11 35 10 14 0 27-5 37-13 9-5 16-13 24-21"/><path class="s4" d="M3556 5514l-494-38-472-46-351-38-515-52-393-36-68-6-138-9"/><path class="s4" d="M1125 5289c-22-2-44-4-66-6-16-1-32-2-48-4-15-3-30-6-44-10-9-2-18-5-27-7"/><path class="s4" d="M940 5262l-4 1v7l8 5"/><path class="s4" d="M944 5275c17 7 34 13 50 18 40 12 82 21 124 28 51 8 102 15 153 22 67 8 134 16 201 24 79 9 158 18 238 27 70 9 141 17 212 25 86 10 172 19 258 28"/><path class="s4" d="M2218 5441l41 4 6 1 2 5"/><path class="s4" d="M2267 5451c-1 2-2 5-4 7-3 5-10 8-16 11-12 4-24 5-35 9-5 1-10 3-15 5-2 0-5 1-7 1-4 0-8-2-9-5-2-2-3-6-3-9 0-6-1-13 1-18 2-3 4-6 7-8 3-2 7-3 11-3"/><path class="s4" d="M2197 5441h24"/><path class="s4" d="M2270 5457l378 55"/><path class="s4" d="M2670 5501c-3-1-6-1-8 0-3 2-5 5-6 8-3 5-4 10-4 15 0 5 0 9 0 13"/><path class="s4" d="M2652 5537l5 4"/><path class="s4" d="M2657 5541c7 2 14 3 22 4 16 1 33 0 49-4 9-2 17-5 25-9 6-4 12-8 16-14 2-2 4-4 6-6"/><path class="s4" d="M2775 5512v-3l-5-2"/><path class="s4" d="M2770 5507c-8-1-16-1-24-2-9 0-19 0-28-1-9 0-18-2-27-3-7 0-14 0-21-1"/><path class="s4" d="M2743 5516c-9 3-18 6-27 7-6 1-11 1-16 1"/><path class="s4" d="M2778 5527l492 66 11 2 12 24 10 45 9 8 13 24 3 12"/><path class="s4" d="M3177 5597c14 14 28 27 43 40 17 15 35 29 54 41 17 11 35 21 53 31"/><path class="s4" d="M3295 5590c14-4 28-7 42-12 14-5 28-12 41-20 8-5 15-11 24-15 8-4 18-5 27-6 10-1 21 0 31-1 11-1 23-3 34-6 29-6 58-13 87-18 18-4 35-7 53-5 8 1 16 3 24 5"/><g><path class="s3" d="M3595 5528c-25 7-50 14-76 23-27 11-56 24-76 39-19 14-30 29-64 50-13 8-28 16-23 20l-3 12-3 18-20 17 6 20 2 12-6 15-5 11 9 15 4 17-7 17 18 20 7 9 1 20 22 17 12 17c14 10 28 20 43 28 36 22 77 36 118 45 50 11 101 14 153 12 36-2 72-6 105-19 27-10 51-26 72-46 27-26 48-59 60-96 12-36 16-75 9-113-5-30-17-59-34-85-25-36-62-65-103-82-24-11-50-18-77-20-13-1-26-2-39-1-15 0-30 1-46 2-13 0-26 1-39 3-6 1-13 2-20 3" fill-rule="evenodd"/></g><path class="s4" d="M3674 5535c-14 8-28 15-40 24-31 22-56 53-72 88-21 44-29 94-24 143 3 37 14 73 34 104 14 23 34 44 58 58 15 9 31 15 48 21"/><ellipse class="s3" cx="3764" cy="5751" rx="173" ry="145" transform="rotate(96.49879435942789 3764.0,5751.0)"/><path class="s4" d="M3739 5605c12 9 24 18 34 29 18 18 30 42 37 67 7 27 9 56 4 83-4 21-12 42-23 61-10 16-22 31-37 43-9 7-19 12-28 17"/><ellipse class="s3" cx="3697" cy="5750" rx="44" ry="37" transform="rotate(90.0 3697.0,5750.0)"/><path class="s4" d="M3750 5744h53"/><path class="s4" d="M3744 5772l53 22"/><path class="s4" d="M3731 5793l48 46"/><path class="s4" d="M3712 5805l27 77"/><path class="s4" d="M3687 5809v76"/><path class="s4" d="M3667 5801l-16 40"/><path class="s4" d="M3740 5719l58-23"/><path class="s4" d="M3727 5702l47-56"/><path class="s4" d="M3710 5690l24-75"/><path class="s4" d="M3690 5693l-5-66"/><path class="s4" d="M3671 5699l-16-36"/><path class="s4" d="M3654 5714l-17-11"/><path class="s4" d="M3848 5538l448 24"/><path class="s4" d="M4296 5562c10 0 20 0 31 1 14 2 28 6 41 13 7 4 14 9 19 15 5 5 8 11 9 18 2 6 2 12 1 16-3 7-10 12-17 16-19 12-37 22-57 28-13 5-27 8-40 14-12 6-22 16-34 23-12 6-25 11-39 15-39 11-79 16-119 19-25 2-50 4-75 3-17 0-33-1-49-2"/><path class="s4" d="M3760 5988c3 8 5 16 9 24 3 7 8 14 15 18 4 3 9 4 14 4"/><path class="s4" d="M3798 6034l31-1"/><path class="s4" d="M3829 6033c4-1 8-2 11-5 7-4 11-10 14-18 4-9 6-18 7-28 0-7 1-15 0-22-1-6-2-11-4-16"/><path class="s4" d="M3781 5986c0 2 0 4 1 7 1 3 5 6 8 6 5 1 9-2 12-6 2-4 3-8 3-13 0-2 0-5 0-7"/><path class="s4" d="M3650 5989c1 7 2 15 4 22 2 7 5 14 10 19 4 4 9 7 14 8"/><path class="s4" d="M3678 6038l38-1"/><path class="s4" d="M3716 6037c4-1 7-2 10-3 5-3 8-9 10-15 3-7 6-13 7-20 1-4 1-8 2-13"/><path class="s4" d="M3698 5992c0 3-1 6-3 10-1 3-3 7-6 7-2 0-3 0-4 0"/><path class="s4" d="M3583 5982c1 8 3 15 5 22 2 7 4 14 9 19 3 4 8 7 12 8 4 1 7 1 11 1"/><path class="s4" d="M3620 6032h26l8-2 6-4"/><path class="s4" d="M36e2 5987c1 3 2 7 4 10 2 1 3 3 5 4 3 1 7 1 10 0 3-1 5-3 6-6 2-2 2-5 2-7"/><path class="s4" d="M3795 6031c5-2 9-4 13-7 5-5 8-12 10-20 0-3 1-6 1-9"/><path class="s4" d="M4419 5908c-4-5-8-9-14-12-4-2-9-4-14-4-7-1-13-1-19-1-6 0-11 0-16 2-6 2-10 8-14 14-5 8-9 18-10 28-2 9-2 19 0 28 1 10 5 19 11 28 4 5 8 9 13 12 4 2 7 3 10 5"/><path class="s4" d="M4366 6008h24"/><path class="s4" d="M4390 6008c4-1 8-1 11-2 4-2 8-3 12-6 2-2 5-5 7-7"/><g><path class="s3" d="M4470 5893l-25 1c-5 0-10 1-14 3-7 4-11 11-14 18-4 9-7 18-8 28-1 9 0 18 2 27 2 8 5 15 9 22 4 7 9 12 15 15 4 2 8 3 13 3h25c4 0 9-1 13-3 6-4 10-10 14-16 5-9 8-18 10-28 1-10 1-21-2-31-3-9-7-17-13-25-4-5-9-10-15-12-4-1-7-2-10-2" fill-rule="evenodd"/></g><path class="s4" d="M4508 5914c2-4 5-9 9-12 5-5 12-8 18-9 8-2 15-1 23-1 4 0 7 0 10 1 5 1 9 4 12 8 5 4 9 9 12 14 6 11 8 25 9 37 0 10-1 19-5 27-2 7-6 13-11 18-4 5-9 8-14 10-3 1-5 1-8 1-8 1-16 1-24 0-4 0-8 0-12-2-5-2-9-7-12-11-3-4-5-7-7-11"/><g><path class="s3" d="M4368 5979a31 19 85.90136397341165 0 0 15-15m-7-40m0 0a31 19 85.90136397341165 1 0-8 55" fill-rule="evenodd"/></g><g><path class="s3" d="M4445 5982a31 19 85.90136397341165 0 0 15-16m-4-37m0 0a31 19 85.90136397341165 1 0-11 53" fill-rule="evenodd"/></g><path class="s4" d="M4522 5852l-7 16h-3l-3 10-8-1-14-6"/><path class="s4" d="M4487 5850l-2 19 1 5"/><path class="s4" d="M4496 5876l4 23 5 4 3 5"/><path class="s4" d="M4439 5848l2 4 13 2 2 4-1 10-10 1-4 2-6 2-3 7h-14"/><path class="s4" d="M4418 5880c-1 2-2 4-2 6-1 1 0 3 0 4 1 2 1 3 1 4"/><path class="s4" d="M4417 5894l5 7"/><path class="s4" d="M4458 5858c3 1 6 2 9 3 3 1 7 1 10 1"/><path class="s4" d="M4524 5921a31 19 95.23711741411292 1 1 2 61"/><g><path class="s3" d="M5185 5509l-225 15c-4 0-8 0-12 2-3 3-6 8-7 12 0 4 0 7 1 10 4 22 10 43 17 64 12 30 27 59 43 87 9 15 18 29 29 43 5 6 10 12 16 17 5 3 10 5 17 7h232c4 0 7 0 9-1 2-2 2-7 1-10-1-3-4-5-6-7-8-9-15-18-22-28-16-23-30-47-42-73-9-21-16-43-22-65-6-20-11-40-15-60l-3-5-5-7-6-1" fill-rule="evenodd"/></g><path class="s4" d="M4458 5868l2 14"/><ellipse class="s3" cx="5945" cy="6064" rx="5" ry="3" transform="rotate(49.73116110401281 5945.0,6064.0)"/><path class="s4" d="M3651 5784l-18 15"/><path class="s4" d="M3645 5750l-15 4"/><path class="s4" d="M5955 5985c5 0 11 2 16 5 7 4 12 8 16 15 1 2 2 4 3 6"/><path class="s4" d="M5970 6137c7-1 13-5 18-10 3-3 5-6 8-10"/><path class="s4" d="M5947 6042c-4 1-8 2-10 4-5 3-7 11-6 18 1 6 5 11 9 15"/><path class="s4" d="M3210 4932l113 5e2"/><path class="s4" d="M3337 5495c2-4 3-7 5-11 1-2 2-4 3-5 1-1 2-2 3-3 1 0 3-1 4-1"/><path class="s4" d="M3352 5475l20-4h1l1 1v1 2"/><path class="s4" d="M3374 5475c-2 4-4 7-5 10-2 4-3 8-4 13"/><path class="s4" d="M4018 5775l14 25 25 23 33 9 102 5"/><path class="s4" d="M3951 5833l62 1"/><path class="s4" d="M4017 5537l-2 11"/><path class="s4" d="M4493 2264l11-21 52-30 11-21"/><path class="s5" d="M4530 2228l48 145 52-29z"/><path class="s4" d="M4815 2732l-285-504"/><path class="s4" d="M3420 5847l23-9 58 14 23-9"/><path class="s5" d="M3472 5845l-62 140 58 13z"/><path class="s4" d="M3307 6581l165-736"/><path class="s5" d="M2307 5394l71-136-58-16z"/><path class="s4" d="M2438 4943l-131 451"/><path class="s5" d="M3255 5677l-125 88 43 41z"/><path class="s4" d="M2742 6214l513-537"/><path class="s5" d="M4465 6021l-44 147 60 5z"/><path class="s5" d="M3844 6037l107 109 34-49z"/><path class="s4" d="M4465 6021l-39 414-582-398"/><path class="s5" d="M6080 5939l114 102 31-52z"/><path class="s4" d="M6604 6247l-524-308"/><path class="s5" d="M5845 5038l104-113-52-31z"/><path class="s4" d="M6111 4601l-266 437"/><path class="s5" d="M4594 5192l-58-142-50 34z"/><path class="s4" d="M4320 4779l274 413"/><path class="s5" d="M2627 1460l-48-145-53 30z"/><path class="s4" d="M2394 1053l233 407"/><path class="s5" d="M5522 1826l76-133-57-19z"/><path class="s4" d="M5671 1383l-149 443"/><path class="s5" d="M4814 2069l98 118 37-47z"/><path class="s4" d="M5482 2610l-668-541"/><path class="s5" d="M3449 2398l-143 54 31 51z"/><path class="s5" d="M4194 2423l-153 3 13 58z"/><path class="s4" d="M3449 2398l-463 288 1208-263"/><path class="s5" d="M35e2 1602l93-121-54-27z"/><path class="s4" d="M3722 1150l-222 452"/><path class="s5" d="M1950 2341l-152 21 20 57z"/><path class="s4" d="M1297 2568l653-227"/><text x="3656" y="7254"><tspan class="f3 s6" font-size="123.611">(RIGHT SIDE)</tspan></text><text x="3924" y="4368"><tspan class="f2 s6" font-size="123.611">INSPECTION AREAS</tspan></text><text x="3924" y="4493"><tspan class="f2 s6" font-size="112.922">(ZONES, 100, 200,</tspan></text><text x="3924" y="4617"><tspan class="f2 s6" font-size="103.885">300, 400, 500, 600,</tspan></text><text x="3924" y="4742"><tspan class="f2 s6" font-size="105.165">700, 800)</tspan></text><text x="2354" y="6377"><tspan class="f2 s6" font-size="123.611">EMPENNAGE</tspan></text><text x="2274" y="4892"><tspan class="f2 s6" font-size="123.611">WING</tspan></text><text x="5918" y="4547"><tspan class="f2 s6" font-size="123.611">FUSELAGE</tspan></text><text x="4315" y="6575"><tspan class="f2 s6" font-size="114.467">MAIN</tspan></text><text x="4315" y="6700"><tspan class="f2 s6" font-size="123.611">LANDING GEAR</tspan></text><text x="6530" y="6390"><tspan class="f2 s6" font-size="123.611">NOSE</tspan></text><text x="6530" y="6515"><tspan class="f2 s6" font-size="123.611">LANDING GEAR</tspan></text><text x="3687" y="3435"><tspan class="f3 s6" font-size="123.611">(LEFT SIDE)</tspan></text><text x="3434" y="733"><tspan class="f2 s6" font-size="123.611">INSPECTION AREAS</tspan></text><text x="3434" y="857"><tspan class="f2 s6" font-size="112.922">(ZONES, 100, 200,</tspan></text><text x="3434" y="982"><tspan class="f2 s6" font-size="103.885">300, 400, 500, 600,</tspan></text><text x="3434" y="1106"><tspan class="f2 s6" font-size="105.165">700, 800)</tspan></text><text x="2038" y="1004"><tspan class="f2 s6" font-size="123.611">FUSELAGE</tspan></text><text x="5530" y="1354"><tspan class="f2 s6" font-size="123.611">WING</tspan></text><text x="5549" y="2722"><tspan class="f2 s6" font-size="123.611">EMPENNAGE</tspan></text><text x="2605" y="2729"><tspan class="f2 s6" font-size="114.467">MAIN</tspan></text><text x="2605" y="2854"><tspan class="f2 s6" font-size="123.611">LANDING GEAR</tspan></text><text x="929" y="2622"><tspan class="f2 s6" font-size="123.611">NOSE</tspan></text><text x="929" y="2747"><tspan class="f2 s6" font-size="123.611">LANDING GEAR</tspan></text><text x="4709" y="2874"><tspan class="f2 s6" font-size="123.611">POWER</tspan></text><text x="4709" y="2999"><tspan class="f2 s6" font-size="123.611">PLANT</tspan></text><text x="3034" y="6723"><tspan class="f2 s6" font-size="123.611">POWER</tspan></text><text x="3034" y="6848"><tspan class="f2 s6" font-size="123.611">PLANT</tspan></text><path class="s4" d="M39e2 1883l-3-6-1-7-1-7 1-6 2-4 1-1"/><path class="s4" d="M4101 1913l-3-6-1-7-1-7 1-4"/><path class="s4" d="M4078 1909l-3-6-1-7-1-7 1-4"/><path class="s4" d="M4055 1906l-3-6-1-7-1-7 1-6"/><path class="s4" d="M4032 1903l-3-6-1-7-1-7 1-6v-1"/><path class="s4" d="M4124 1916l-3-6-1-7-1-7v-3"/><path class="s4" d="M4147 1919l-3-6-1-7-1-7v-1"/><path class="s3" d="M4169 1922m0-1-3-5-1-7-1-7"/><path class="s3" d="M4192 1925m-3-6-1-7-1-6"/><path class="s4" d="M3984 1895l-3-6-1-7-1-7 1-6 1-2"/><path class="s4" d="M3956 1891l-3-6-1-7-1-7 1-6 2-3"/><path class="s4" d="M3928 1887l-3-6-1-7-1-7 1-6 2-4"/><path class="s4" d="M2633 1690l-5-10-6-5-8 1-3 3-2 6-2 9 2 11 1 10 4 10"/><path class="s4" d="M2688 1697l-5-10-5-4h-8l-3 3-2 6-2 9 2 11 1 9 4 10"/><path class="s4" d="M2743 1704l-4-9-6-5-7 1-3 3-2 5-2 9 2 10 1 10 4 9"/><path class="s4" d="M2976 1733l-4-9-4-3-6-1-2 3-2 5-2 8 2 9 1 9 3 8"/><path class="s4" d="M2932 1728l-5-8-4-4h-6l-3 2-2 6-1 8 1 9 1 9 4 9"/><path class="s4" d="M2791 1708l-5-9-5-4h-7l-3 3-2 6-1 8 1 10 1 9 4 10"/><path class="s4" d="M2887 1722l-5-8-4-5-7 1-3 2-2 6-1 8 1 10 1 9 4 9"/><path class="s4" d="M2841 1715l-5-8-4-5-7 1-3 2-2 6-1 8 1 10 1 9 4 9"/><path class="s4" d="M3145 1756l-4-7-3-4h-5l-2 2-2 5-1 7 1 8 1 8 3 8"/><path class="s4" d="M3103 1750l-5-8-2-3-6-1-2 2-2 6-1 7 1 9 1 8 3 8"/><path class="s4" d="M3018 1739l-4-8-3-4h-6l-2 2-2 5-2 8 2 9 1 8 3 8"/><path class="s4" d="M3061 1745l-4-8-3-4h-6l-2 2-2 5-2 8 2 9 1 8 3 8"/><path class="s4" d="M3185 1761l-4-7-2-3-5-1-2 2-2 5-1 7 1 8 1 8 3 7"/><path class="s4" d="M3264 1771l-4-7-2-3-5-1-2 2-2 5-1 7 1 8 1 8 3 7"/><path class="s4" d="M3450 1796l-3-6-2-3-4-1-2 2-2 4-1 6 1 7 1 7 3 6"/><path class="s4" d="M3517 1805l-3-6-2-3-4-1-2 2-2 4-1 6 1 7 1 7 3 6"/><path class="s4" d="M3582 1814l-3-6-2-3-4-1-2 2-2 4-1 6 1 7 1 7 3 6"/><path class="s4" d="M3549 1810l-3-6-2-3-4-1-2 2-2 4-1 6 1 7 1 7 3 6"/><path class="s4" d="M3788 1866l-3-6-1-7-1-7 1-6 2-4 2-2 4 1 2 3"/><path class="s4" d="M3712 1833l-3-6-2-3-4-1-2 2-2 4-1 6 1 7 1 7 3 6"/><path class="s4" d="M3760 1862l-3-6-1-7-1-7 1-6 2-4 2-2 4 1 2 3"/><path class="s4" d="M3679 1828l-3-6-2-3-4-1-2 2-2 4-1 6 1 7 1 7 3 6"/><path class="s4" d="M3647 1824l-3-6-2-3-4-1-2 2-2 4-1 6 1 7 1 7 3 6"/><path class="s4" d="M3614 1819l-3-6-2-3-4-1-2 2-2 4-1 6 1 7 1 7 3 6"/><path class="s4" d="M3844 1874l-3-6-1-7-1-7 1-6 2-4 2-2 4 1"/><path class="s4" d="M3816 1870l-3-6-1-7-1-7 1-6 2-4 2-2 4 1 2 3"/><path class="s4" d="M3872 1878l-3-6-1-7-1-7 1-6 2-4 2-2 4 1"/><path class="s4" d="M4154 5487l3-6 1-7 1-7-1-6-2-4-2-2-4 1"/><path class="s4" d="M4210 5479l3-6 1-7 1-7-1-6-2-4-2-2-4 1-2 3"/><path class="s4" d="M4182 5483l3-6 1-7 1-7-1-6-2-4-2-2-4 1"/><path class="s4" d="M4412 5428l3-6 2-3 4-1 2 2 2 4 1 6-1 7-1 7-3 6"/><path class="s4" d="M4379 5433l3-6 2-3 4-1 2 2 2 4 1 6-1 7-1 7-3 6"/><path class="s4" d="M4347 5437l3-6 2-3 4-1 2 2 2 4 1 6-1 7-1 7-3 6"/><path class="s4" d="M4266 5471l3-6 1-7 1-7-1-6-2-4-2-2-4 1-2 3"/><path class="s4" d="M4314 5442l3-6 2-3 4-1 2 2 2 4 1 6-1 7-1 7-3 6"/><path class="s4" d="M4238 5475l3-6 1-7 1-7-1-6-2-4-2-2-4 1-2 3"/><path class="s4" d="M4477 5419l3-6 2-3 4-1 2 2 2 4 1 6-1 7-1 7-3 6"/><path class="s4" d="M4444 5423l3-6 2-3 4-1 2 2 2 4 1 6-1 7-1 7-3 6"/><path class="s4" d="M4509 5414l3-6 2-3 4-1 2 2 2 4 1 6-1 7-1 7-3 6"/><path class="s4" d="M4576 5405l3-6 2-3 4-1 2 2 2 4 1 6-1 7-1 7-3 6"/><path class="s4" d="M4762 5380l4-7 2-3 5-1 2 2 2 5 1 7-1 8-1 8-3 7"/><path class="s4" d="M4841 5370l4-7 2-3 5-1 2 2 2 5 1 7-1 8-1 8-3 7"/><path class="s4" d="M4965 5354l4-8 3-4h6l2 2 2 5 2 8-2 9-1 8-3 8"/><path class="s4" d="M5008 5348l4-8 3-4h6l2 2 2 5 2 8-2 9-1 8-3 8"/><path class="s4" d="M4923 5359l5-8 2-3 6-1 2 2 2 6 1 7-1 9-1 8-3 8"/><path class="s4" d="M4881 5365l4-7 3-4h5l2 2 2 5 1 7-1 8-1 8-3 8"/><path class="s4" d="M5185 5324l5-8 4-5 7 1 3 2 2 6 1 8-1 10-1 9-4 9"/><path class="s4" d="M5139 5331l5-8 4-5 7 1 3 2 2 6 1 8-1 10-1 9-4 9"/><path class="s4" d="M5235 5317l5-9 5-4h7l3 3 2 6 1 8-1 10-1 9-4 10"/><path class="s4" d="M5094 5337l5-8 4-4h6l3 2 2 6 1 8-1 9-1 9-4 9"/><path class="s4" d="M5050 5342l4-9 4-3 6-1 2 3 2 5 2 8-2 9-1 9-3 8"/><path class="s4" d="M5283 5313l4-9 6-5 7 1 3 3 2 5 2 9-2 10-1 10-4 9"/><path class="s4" d="M5338 5306l5-10 5-4h8l3 3 2 6 2 9-2 11-1 9-4 10"/><path class="s4" d="M5393 5299l5-10 6-5 8 1 3 3 2 6 2 9-2 11-1 10-4 10"/><path class="s4" d="M4098 5496l3-6 1-7 1-7-1-6-2-4"/><path class="s4" d="M4070 55e2l3-6 1-7 1-7-1-6-2-3"/><path class="s4" d="M4042 5504l3-6 1-7 1-7-1-6-1-2"/><path class="s3" d="M3834 5534m3-6 1-7 1-6"/><path class="s3" d="M3857 5531m0-1 3-5 1-7 1-7"/><path class="s4" d="M3879 5528l3-6 1-7 1-7v-1"/><path class="s4" d="M3902 5525l3-6 1-7 1-7v-3"/><path class="s4" d="M3994 5512l3-6 1-7 1-7-1-6v-1"/><path class="s4" d="M3971 5515l3-6 1-7 1-7-1-6"/><path class="s4" d="M3948 5518l3-6 1-7 1-7-1-4"/><path class="s4" d="M3925 5522l3-6 1-7 1-7-1-4"/><path class="s4" d="M4126 5492l3-6 1-7 1-7-1-6-2-4-1-1"/></svg>