<svg xmlns="http://www.w3.org/2000/svg" height="10in" viewBox="0 0 7777 10005" width="7.78in"><defs><style>.f1{font-family:Consolas,Courier New,monospace}.f2{font-family:Helvetica,Arial,sans-serif}.f3{font-family:Helvetica,Arial,sans-serif;font-weight:700}.f4{font-family:Times}.f5{font-family:Times;font-weight:700}.f6{font-family:Courier}.f7{font-family:Courier;font-weight:700}.f8{font-family:Symbol}.s5{fill:#fff}.s4{fill:none;stroke:#000;stroke-width:8}.s1{fill:#ffc}.s7{fill:#000}.s9{fill:none;stroke:#000;stroke-dasharray:120,40;stroke-width:20}.s6{fill:none;stroke:#00f;stroke-width:20}.s2{fill:#cff}.s10{fill:#000;stroke:#000;stroke-width:8}.s8{fill:none;stroke:#00f;stroke-width:12}.s3{fill:none;stroke:#000;stroke-width:10.005}</style></defs><path class="s1" d="M6259 5043l-40 5 2 4 181 95 2-38z"/><path class="s1" d="M6683 5333l31-22 31-28 124-167 203-280 145-233 215-408 86-215 5-11-1-1851-6550 3V4950l194 265 378 353 269 184 269 135 78 11H6031l1-3 22-18 10-7 30-22 85-68 27-22 207-170 96-81 45-42 49-49 33-33z"/><g><path class="s1" d="M7520 3974l3-1121-47 9-76-8-129 26v18l38 5 34 53 11 3 12-3 13-10 12 8v7l4 12 17 7-10 36-159 387 43 23-66 160-65 155-47 112c-24 54-48 108-74 161-34 68-70 136-108 202-38 68-79 135-122 199-55 82-115 162-179 238-18 21-36 42-53 63l130 42-12 49-160-49-67 72-51 53-127 120v4l121 53 8-182 47-45-11 244 220 104-7 43-218-98-3 41 3 2 269 142 31-28 70-93 54-74 203-280 145-233 215-408 88-221" fill-rule="evenodd"/></g><path class="s2" d="M6669 5325l-496-268-5-3-214 15-14 1 14 10-110 10-801-512-51-25-883 58-1121 76-82 90-75 87-128 158-129 166-88 121-147 198-172 251-85 129 10 2 68 9h771l570 1h164 111 38l443-1h161 120 318l48-1h186 99 227 76 116l422 1 23-20 43-32 109-87 202-166 71-59 27-24 45-42 38-37 44-43 51-55z"/><path class="s3" d="M5439 4836c-12 1-24 2-36 3-8 1-16 3-25 5-8 3-16 7-22 13-6 9-8 22-5 33 3 9 10 17 14 23"/><path class="s3" d="M5365 4913l42 42 31 27"/><path class="s3" d="M5415 4867c-19 4-24 8-25 13-1 4 2 8 5 13"/><path class="s3" d="M5395 4893l11 9"/><path class="s3" d="M5438 4982l142 128"/><path class="s3" d="M5441 4941l196 158"/><path class="s3" d="M6231 5094l29 65"/><path class="s3" d="M6439 5339l-190-110-4-5v-6l4-6 16-8 5-9-5-16-6-12-1-7 5-2 12 5 20 14 15 17 134 83"/><path class="s3" d="M6444 5277l188 111"/><path class="s3" d="M6588 5431l-85-53-64-39"/><path class="s3" d="M6223 5092l-116 77-70 43-73 42"/><path class="s3" d="M5964 5254l-61 34-124 64"/><path class="s3" d="M5897 5290l-5 12-1 58"/><path class="s3" d="M4538 5898l1422-232 447-73"/><path class="s3" d="M6347 5550l-147-105"/><path class="s3" d="M62e2 5445l-115-75"/><path class="s3" d="M6091 5338h-1l-3-4-2-3-59 35-54 35"/><path class="s3" d="M5891 5360v12l2 6 8 3 16-7 18-6 13 4 7 9 4 14 5 9"/><path class="s3" d="M6195 5547l-108-81-9-7-7-7-7-8-9-11-7-9-18-17"/><path class="s3" d="M6226 5570l-31-23"/><path class="s3" d="M5356 4910l-303 30"/><path class="s3" d="M5367 4791l-464 46"/><path class="s3" d="M5056 4968l150-12 132-16 23-2 25-4"/><path class="s3" d="M5493 5895l510-95"/><path class="s3" d="M5968 5667l64 228"/><path class="s3" d="M6053 5878l-43-164-25-51"/><path class="s3" d="M5577 5358l-28 12-67 27"/><path class="s3" d="M5372 5435l-65 22-110 34"/><path class="s3" d="M5336 5514l3 4 2 4 2 5 2 6 2-1"/><path class="s3" d="M5613 5524l69-28 34-15"/><path class="s3" d="M5444 55e2l-27 9-72 24 7 64 3 8 3 4 4 2 5 1 4 1 5-1 59-21"/><path class="s3" d="M5423 5596l12-5 75-26 1-1"/><path class="s3" d="M5612 5387l-96 38"/><path class="s3" d="M54e2 5459l-16 5-56 19-7 3-4 4v5l3 5 16 14"/><path class="s3" d="M5339 5534l-106 33-39 10"/><path class="s3" d="M5649 5416l-91 37-11 4"/><path class="s3" d="M5196 5538l92-27 26-7"/><path class="s3" d="M4890 5646l-8-11-2-48 65-14 13 15v39"/><path class="s3" d="M4893 5596l9 10 41-9"/><path class="s3" d="M4902 5606v27"/><path class="s3" d="M4980 5624l-8-12-2-48 65-14 13 15v40"/><path class="s3" d="M4984 5574l9 10 42-9"/><path class="s3" d="M4993 5584v28"/><path class="s3" d="M4911 5622c11 12 21 22 28 35 4 5 6 11 7 18 1 7 0 15-3 21-5 11-15 18-26 26-9 7-18 14-27 19"/><path class="s3" d="M4890 5741l-95 67"/><path class="s3" d="M4938 5605c7 9 17 16 28 34 3 5 6 11 8 18 2 4 3 8 4 13 0 5 1 10 0 15 0 4 0 8-2 13-1 4-3 9-4 13-3 6-7 11-11 15-9 11-17 15-25 21-10 7-19 15-28 20"/><path class="s3" d="M4908 5767l-12 8"/><path class="s3" d="M5e3 5606c14 17 29 34 44 50 6 7 13 14 19 22 3 5 6 9 8 15 1 5 2 10 0 15-1 7-5 12-10 18-4 5-9 9-13 13"/><path class="s3" d="M5048 5739l-24 18"/><path class="s3" d="M5023 5585c14 17 29 34 45 50 7 7 14 14 21 24 3 3 5 8 8 13 1 4 3 8 4 12 2 6 2 11 2 17 1 4 0 10-1 15-1 5-3 9-5 13-4 7-8 12-12 16"/><path class="s3" d="M5046 5739l-2-3v-5l-1-5-3-5-5-4-7-3-11 1-53 12"/><path class="s3" d="M4965 5633l44-10"/><path class="s3" d="M5056 5526l-35 9-39 11"/><path class="s3" d="M4933 5556l-28 5"/><path class="s3" d="M4850 5573l-173 34"/><path class="s3" d="M4871 5616l-93 18-101 19"/><path class="s3" d="M4928 5641l-75 16-96 18-80 14"/><path class="s3" d="M5081 5749l104-29"/><path class="s3" d="M5198 5742l-3-8-8-13v-37l8-14 12-10 6-3 43-10 16 1 9 10 3 25 7 16 11 13 12 1 64-21 29-11 14-1 9-6 1-10"/><path class="s3" d="M5460 5696l-39-49-5-17v-18l7-15"/><path class="s3" d="M5498 5572l7 7 4 12 4 20 8 13 16 10h15l12-9 13-5 12-3"/><path class="s3" d="M55e2 5691l-21-22-55-58"/><path class="s3" d="M5226 5737l-3-3-30-41"/><path class="s3" d="M5237 5661l53 67"/><path class="s3" d="M5467 5586l92 93"/><path class="s3" d="M5982 5815l34 26"/><path class="s3" d="M5978 5898l-26-20-35-29-16-13"/><path class="s3" d="M5717 5898l-28-29"/><path class="s3" d="M5781 5898l-38-39"/><path class="s3" d="M5605 5898l-11-12"/><path class="s3" d="M5891 5898l-59-55"/><path class="s3" d="M5665 5511l79 72 61 55"/><path class="s3" d="M5441 5307l9 8 65 59"/><path class="s3" d="M5637 5666l-67-67-162-141-30-26-25-32-13-17-11-18"/><path class="s3" d="M5371 5378l10 13 59 51 91 85 102 99 37 33"/><path class="s3" d="M5418 5467l3-15 8-7 10-2"/><path class="s3" d="M5382 5432l2-11 7-8 6-1h8"/><path class="s3" d="M5415 5418l2-10 4-7 5-3"/><path class="s3" d="M4708 5476c32-6 44-7 54-10 19-5 35-14 54-22 17-6 36-12 47-17"/><path class="s3" d="M4863 5427l162-24 31-4"/><path class="s3" d="M5196 5379l82-12"/><path class="s3" d="M5278 5367c18-1 35-2 52-1 19 1 37 6 54 12 18 6 34 15 50 25 18 11 36 23 48 33"/><path class="s3" d="M5482 5436l65 61 153 162"/><path class="s3" d="M4708 5449c21-2 24-3 27-3 15-4 18-5 21-5 21-5 34-12 52-19 18-7 39-13 50-18"/><path class="s3" d="M4858 5404l163-24 36-5"/><path class="s3" d="M5196 5355l80-12"/><path class="s3" d="M5276 5343c18-1 36-2 56-1 10 1 20 2 31 5 10 2 20 5 30 9 19 7 35 16 53 27 18 11 38 25 51 35"/><path class="s3" d="M5497 5418l67 62 168 170"/><path class="s3" d="M4909 5397l3 9 1 8-2 6"/><path class="s3" d="M5291 5343l2 6v10l-2 7"/><path class="s3" d="M5312 5341l2 10v8l-3 6"/><path class="s3" d="M5469 5392l-24-26-26-20"/><path class="s3" d="M5393 5333l-33-11-40-8"/><path class="s3" d="M5422 5288l4-1 2-6 5-5 9-6 4-3 2-6-1-6-4-4h-4l-68 9-6 2-3 5-1 4 1 6 5 4 8 2 5 4 2 6h3 5"/><path class="s3" d="M5372 5304l34 26 39-4-1-13-20-15"/><path class="s4" d="M5394 5280l-2 2 8 2 9 3 8-1 4-4-1-2-4-2m-5 3m-8 0m-7-3-2 2"/><path class="s4" d="M5416 5310l2-2 2-4 1-22m-4 4m-8 1m-9-3m-8-2-1 22 3 3 1 1"/><path class="s3" d="M5397 5325v8l-4 2"/><path class="s3" d="M5418 5330v5l2 3-1 11"/><path class="s3" d="M5414 5337h-5l-5-1-4-1"/><path class="s3" d="M5234 5258l59-6"/><path class="s3" d="M5259 5283l59-7"/><path class="s3" d="M5289 5288l-8 4-7 11-1 8 2 10 9 8 9 4"/><path class="s3" d="M5289 5288h6l8 3 6 6 4 7v9"/><path class="s4" d="M5295 5309l-4 5-2 7 3 5 5 2 7-3 4-5 1-6-2-6-6-1z"/><path class="s3" d="M5307 5265l8 6 3 5 2 7v8 10l-3 6"/><path class="s3" d="M5307 5265l-11-8-3-5-1-19-1-5-3-3-5-2-34 4-8 1-6 4-2 6v19l2 5 11 9 10 8 3 7v10l1 9 1 7 2 6"/><path class="s3" d="M4828 5307l59-6"/><path class="s3" d="M4853 5331l59-6"/><path class="s3" d="M4888 5343l-8 3-5 10-3 9 3 11 9 6 9 4"/><path class="s3" d="M4888 5343l6-1 8 3 8 6 2 8v8"/><path class="s4" d="M4894 5362l-4 6-1 7 3 5 6 2 7-3 4-6 1-7-3-5-7-2z"/><path class="s3" d="M4901 5313l9 7 3 5 1 6v14"/><path class="s3" d="M4901 5313l-11-8-3-4v-19l-1-7-3-3-5-1-32 2-12 1-5 3-1 7-1 22 2 5 11 8 10 9 4 6v10 9l2 12 4 6 5 2"/><path class="s4" d="M4917 5364l146-20m131-16 65-9"/><path class="s4" d="M5334 5308l44-6m17-1m37-4 93-9"/><path class="s3" d="M4698 5421c24-2 36-4 47-6 13-2 23-5 34-8 17-6 35-13 53-20 15-5 31-11 34-11"/><path class="s3" d="M4851 5373c-60 8-117 15-173 22"/><path class="s3" d="M4511 5416c-19 3-37 5-52 6"/><path class="s3" d="M5066 5233l-6 387"/><path class="s3" d="M5194 5224l6 37-7 6-3 375-11 36"/><path class="s3" d="M5059 5683l1 24 8-11"/><path class="s3" d="M5109 5688l60-18"/><path class="s3" d="M5169 5670l2 5 8 1"/><path class="s3" d="M5175 5220l-8 449"/><path class="s3" d="M5080 5235l12 28-4 16-9 355"/><path class="s3" d="M5280 5462l-21-22-55-58"/><path class="s3" d="M5260 5372l69 70"/><path class="s3" d="M5557 5596l-40 15"/><path class="s3" d="M5419 5646l-65 22-64 21"/><path class="s3" d="M5935 5609l-4 2-1 3-3 5-6 4-9 3-758 126"/><path class="s3" d="M5154 5752l-32 5h-17l-13-4-21-2-216 34-9 7-15 10-10 3-564 93"/><path class="s3" d="M4912 5524l-8-5-9-11-3-5-1-11 3-10 7-7 9-3h9l7 4 9 11 3 8"/><path class="s3" d="M4926 5539l-14-15-1-11 2-8 8-8 9-3 8 1 16 16"/><path class="s3" d="M4946 5560h-5l-9-10-4-5-1-3v-10l4-8 7-8 9-3 7-2 9 6 9 11"/><path class="s3" d="M4940 5557v-10l4-9 7-8 8-4 9 1 4 1 1 5-2 4"/><path class="s3" d="M4834 5544l-8-5-10-11-3-6-2-11 5-10 7-8 9-3h9l7 5 10 11 4 8"/><path class="s3" d="M4849 5560l-15-16-1-11 2-9 7-8 10-3 10 1 16 17"/><path class="s3" d="M4873 5583h-8l-10-12-4-5-1-3v-10l4-9 6-7 10-5 8-1 10 3 6 7 6 8"/><path class="s3" d="M4865 5581v-10l3-10 7-7 11-4 7-1 7 2 2 9"/><path class="s3" d="M4867 5574l13 12"/><path class="s3" d="M4893 5553l22 25"/><path class="s3" d="M4960 5531l33 26"/><path class="s3" d="M4942 5553l27 23"/><path class="s3" d="M4811 5514l-9-16-18-39"/><path class="s3" d="M4837 5488l-2-4-19-39"/><path class="s3" d="M4889 5489l-41-55"/><path class="s3" d="M4916 5468l-33-44"/><path class="s3" d="M4934 5422l62 62"/><path class="s3" d="M5017 55e2l21 26"/><path class="s3" d="M4675 5397l31 44 1 55-21 4-13-16"/><path class="s3" d="M4698 5446l-12 4-8-9"/><path class="s3" d="M4512 5816l9 10 7-9 122-19 5 2 6 3 7-2 6-28-2-422 1-27 4-4-4-32"/><path class="s3" d="M4648 5795l3-279 1-222"/><path class="s3" d="M4527 5818l5-20-1-265"/><path class="s3" d="M4531 5463l1-119 3-7-8-38"/><path class="s3" d="M4514 5301v136"/><path class="s3" d="M4513 5520l-1 296"/><path class="s3" d="M4473 5637l-58-117"/><path class="s3" d="M4698 5224l668-79 26-5 18-10 404-46"/><path class="s3" d="M5183 4971l52 32 22 4 35-2 41-12 72-28"/><path class="s3" d="M5119 4975l97 67 36 14 44 3 63-11 122-25"/><path class="s3" d="M5442 4995l-93 24"/><path class="s3" d="M5394 5004l41-17"/><path class="s3" d="M5568 5005l25-2 26 3 29 10 61 45 21 16 6 12"/><path class="s3" d="M5526 4970l47-7 40 3 39 12"/><path class="s3" d="M5783 5084l-16-27-22-21"/><path class="s3" d="M5482 4932l31-11 43-1 23 4"/><path class="s3" d="M5513 4887l-33 3-11 3-8 9 3 10 12 17 32 28 75 61 103 76"/><path class="s3" d="M6207 5102l-347 39-1085 126"/><path class="s3" d="M6083 5332l-6-12v-22l7-16 36-24 62-37 10-15 3-24 1-41-9-12-10-2"/><path class="s3" d="M6171 5278l66-47 9-7"/><path class="s3" d="M5964 5404l10 12 13 7h13l20-10 79-51 4-8-2-7"/><path class="s3" d="M6478 5534l-312 55-30-6h-28l-173 26"/><path class="s3" d="M6005 5226l-257 34-76 11"/><path class="s3" d="M5667 5319l105-50"/><path class="s3" d="M5726 5334l76-39 102-51"/><path class="s3" d="M5786 5370l55-26 22-9 16-1 8 5"/><path class="s3" d="M5893 5385l-2 16-8 13-6 14 1 18 21 22"/><path class="s3" d="M5890 5415l213 165"/><path class="s3" d="M6129 5257l376 253"/><path class="s3" d="M6091 5288l364 244"/><path class="s3" d="M5695 5383l-9-3-12-9-5-6-4-10 2-11 6-9 8-6 9-1 9 3 12 8 5 9"/><path class="s3" d="M5713 5395l-18-12-3-11v-9l5-10 9-5h10l20 14"/><path class="s3" d="M5739 5414l-5 1-13-9-4-6-2-1-2-11 1-9 6-9 8-6 8-2 10 3 11 8"/><path class="s3" d="M5732 5412l-2-9 2-10 5-10 8-7 10-3 6 3 2 7"/><path class="s3" d="M5734 5404l13 11"/><path class="s3" d="M5755 5383l24 18"/><path class="s4" d="M5680 5431l-8-4-13-9-5-5-4-12 2-10 5-8 9-6m12-1m5 2m13 9m5 7"/><path class="s3" d="M5699 5442l-19-11-4-11 1-9 5-10 10-6"/><path class="s4" d="M5727 5462l-7 2-13-11-5-5-2-2-3-9 3-11 6-9m25-5m11 8"/><path class="s3" d="M5718 5460l-2-9 2-11 6-9"/><path class="s3" d="M5747 5415l52 40 61 48 119 97"/><path class="s3" d="M5779 5401l34 27 107 85 102 81"/><path class="s3" d="M5943 5606l-66-47-88-66-68-40"/><path class="s3" d="M5665 5354l-56-38"/><path class="s3" d="M5680 5329l-33-22"/><path class="s3" d="M5539 5320l132-18-1-24-7-8-9-8-6-2-103 12-5 4-4 7v25l-3 8-20-17"/><path class="s3" d="M5665 5377l-84-60"/><path class="s3" d="M5496 5302l65 58"/><path class="s3" d="M5652 5406l-55-39-51-43"/><path class="s3" d="M5716 5481l12-1 12 11 8 22 13 18 18 6 18-5 13-8 9-5"/><path class="s3" d="M5892 5487l5-5v-15"/><path class="s3" d="M5702 5492l162 141"/><path class="s3" d="M6137 5639l40 140"/><path class="s3" d="M6148 5636l17 8 21 46 19 69"/><path class="s3" d="M5378 5047l87 75"/><path class="s3" d="M5435 5036l94 78"/><path class="s3" d="M5252 5058l98 86"/><path class="s3" d="M5235 4994l109-44"/><path class="s3" d="M5201 4979l35-14"/><path class="s3" d="M4685 4628l389-25"/><path class="s3" d="M4771 4747l66-18 183-54 58-22"/><path class="s3" d="M4932 4688l-238 16"/><path class="s3" d="M4895 5843l-1 54"/><path class="s3" d="M4910 5841l5 12 5 44"/><path class="s3" d="M5069 5814v84"/><path class="s3" d="M5092 5809l7 9 10 64v15"/><path class="s3" d="M4775 5267l-77 8-22 9-4 4-137 15-27-4-36 6-794 94-25 6-21 8-1e2 12-21-1-20 1-267 31-443 54-31 4-19 6-19 6-285 35-27 1-8-6-3-10 4-20 15-26 20-8 29-5 217-25"/><path class="s3" d="M2674 5462l560-64 259-32 15-5 19-6 89-10 16 1h14l306-35 389-45 143-16 14-9 144-16 22 2 34-3"/><path class="s3" d="M4677 5779l103-18 104-22"/><path class="s3" d="M4510 5634l-124 18-230 26-68-13"/><path class="s3" d="M4510 5679l-249 30-147 12"/><path class="s3" d="M4510 5716h-4l-121 16-122 13-130 11-11 1"/><path class="s3" d="M4505 5811l-218 30-130 11"/><path class="s3" d="M4125 5673l9 19v14l-2 14"/><path class="s3" d="M4168 5678l7 21-2 18"/><path class="s3" d="M4093 5516l66 36 40 118"/><path class="s3" d="M4159 5552l-63 24"/><path class="s3" d="M4040 5546l56 30 29 93"/><path class="s3" d="M4077 5857l-118 8h-89"/><path class="s3" d="M3842 5878l3 20"/><path class="s3" d="M3792 5616l-2-12-7-35-2-9"/><path class="s3" d="M3563 5760l13 9 3 24 8 16 20 13"/><path class="s3" d="M3745 5830l22-11h74l20 5 9 22-11 20-25 8-17 15-6 10"/><path class="s3" d="M4008 5651l-83-14-77-15-58-2-63 11-59 30"/><path class="s3" d="M3986 5725l-85-22-76-4-71 13-31 31-4 30 18 119"/><path class="s3" d="M3670 5727h24l18 7 7 11"/><path class="s3" d="M4034 5729l-180 5-118 6"/><path class="s3" d="M4046 5764l-201 9-115 3"/><path class="s3" d="M3972 5535l123 361"/><path class="s3" d="M4033 5524l137 372"/><path class="s3" d="M3902 5565l-13 4-10 8-7 9-1 14 5 13 12 11 7 5"/><path class="s3" d="M3956 5572l10 7 8 10 3 14-3 14-14 13-12 5-11 2"/><path class="s3" d="M3915 5542l-4 26"/><path class="s3" d="M3948 5570l4-34"/><path class="s3" d="M3912 5556l-6 4-2 5 1 7 4 6 15 6h12l9-2 7-5 3-6-2-7-5-5"/><path class="s3" d="M3904 5565l-5 33 4 7 14 7 13 2 10-2 7-4 4-7 4-30"/><path class="s3" d="M3710 5585l7 47"/><path class="s3" d="M4286 5382l59-7"/><path class="s3" d="M4307 5414l54-6"/><path class="s4" d="M4344 5439l-4 6v8l3 6 6 2 6-3 4-6v-8l-3-6-6-2z"/><path class="s3" d="M4368 5433l2-7-2-12-4-7-9-16-9-16 1-14-1-7-6-6-7 1-24 4-18 3-6 4-1 6 1 15 2 5 9 14 7 10 4 11-1 12 3 9 5 4"/><path class="s3" d="M4364 5442v-5l-3-8-7-7-10-2-6 1-8 3-7 11-1 10 2 11 10 7 6 1"/><path class="s3" d="M4506 5470l-3 6-17 1"/><path class="s3" d="M4501 5448l-18 2"/><path class="s3" d="M4472 5436l10 15 3 18-3 19-12 1"/><path class="s3" d="M4472 5436h-9"/><path class="s3" d="M4422 5470l-58 7-50 7-494 67-68 14-38 14"/><path class="s4" d="M3907 5495l-5 8-1 9 4 7 8 2 8-4 5-8 1-9-4-7-8-2z"/><path class="s3" d="M3929 5490l-4-11-10-8-10-4-8 2-11 4-8 14-1 12 2 14 12 9 12 4"/><path class="s3" d="M3930 5476l271-35 98-15"/><path class="s3" d="M3929 5514l267-36 114-16"/><path class="s3" d="M4374 5414l30-2 30 1 23 15 8 22 3 49-9 15-25 5-19-1-20-9-27-23"/><path class="s3" d="M4371 5451l42-5 10 2 8 4"/><path class="s3" d="M4431 5452l4 11 1 14-5 9-14-1-12-8"/><path class="s3" d="M3870 5485l-96 15-87 24-48 23-18 14-19 22-10 27"/><path class="s3" d="M3703 5894l-38-188-7-52v-29l19-26 37-20"/><path class="s3" d="M3628 5894l-10-77-13-66-15-61-7-33"/><path class="s3" d="M3664 5889l-14-96-26-125-2-44 11-30 41-29 59-21 68-16 77-10"/><path class="s3" d="M3592 5614l10-3 12 1 10 5"/><path class="s3" d="M3585 5658l14-10 22 4"/><path class="s3" d="M3624 5627l9-5 19 8"/><path class="s3" d="M3515 5896l17-21 20-6h31l22 1 10 2 8 7"/><path class="s3" d="M3549 5873l-1 24"/><path class="s3" d="M3501 5557l-8 46 2 11 6 3 11 3 12 9 3 23 3 22 9 4 22 1h14l14-64"/><path class="s3" d="M3501 5557l8-3h21l6 5 3 14 6 36 9 4 32 1 6-4"/><path class="s3" d="M3543 5618l-8 37"/><path class="s3" d="M3468 5433l-69 220"/><path class="s3" d="M3671 5403l-43 151"/><path class="s3" d="M3586 5692l-67 197-19-15-94-9"/><path class="s3" d="M3503 5869l63-187"/><path class="s3" d="M3605 5563l44-156"/><path class="s3" d="M3642 5531l29-4"/><path class="s3" d="M3419 5559l-624 81-20-9-77 9"/><path class="s3" d="M2330 5536l50 18"/><path class="s3" d="M2431 5572l148 45 179 42 19 7 7 28 14 27 28 22 60 10 145 23 27 13 204 24 32-9 24-13 18-20"/><path class="s3" d="M2797 5674l121 22 173 31 236 27"/><path class="s3" d="M3330 5716h-3l-113-12-120-15-117-18-104-20-27-5"/><path class="s3" d="M3299 5587l24 44 12 72 9 193"/><path class="s3" d="M3370 5576l9 29 9 46 11 247"/><path class="s3" d="M3335 5675l20-18 31 2"/><path class="s3" d="M3323 5613l23-15 24 2"/><path class="s3" d="M2255 5640l38 17 18 17 2 25-22 46 13 28 176 49 22-9 18-55 24-22 45 2 44 13 24 20-4 40-13 43 22 14 167 28 8-13 16-29 20-39 42-9 51 7 25 19 2 33-6 22"/><path class="s3" d="M3185 5894l10-20 25-20h40l42 2 11 16 3 20"/><path class="s3" d="M2946 5822l-15 76"/><path class="s3" d="M3233 5863l-2 31"/><path class="s3" d="M2940 5422l44-166 18-13h21l44 6 15 11 3 14-22 137"/><path class="s3" d="M2631 5457l93-256 18-13h26l40 10 18 18-6 22-61 210"/><path class="s3" d="M3223 5389l13-81 15-15 25-11 40 8 15 18-2 72"/><path class="s3" d="M29e2 4808l38 9 9 22-2 20-43 137"/><path class="s3" d="M3043 4994l28-113 16-14h31l24 11 5 14-13 98"/><path class="s3" d="M3258 4983l9-59 22-17h31l29 6 5 24-3 38"/><path class="s3" d="M3469 4949l16-16h45l19 15"/><path class="s3" d="M3525 5317l2 31"/><path class="s3" d="M3049 5255l-33 161"/><path class="s3" d="M3328 4915l-6 50"/><path class="s3" d="M3296 5293l-5 92"/><path class="s3" d="M3243 5595l-5 107"/><path class="s3" d="M3294 5593l-3 107"/><path class="s3" d="M2983 5633l-8 29"/><path class="s3" d="M2306 5734l193 54"/><path class="s3" d="M2655 5828l182 39"/><path class="s3" d="M2989 5887l95 10"/><path class="s3" d="M2291 5745l-79 151"/><path class="s3" d="M2257 5828l218 61 27-76"/><path class="s3" d="M2640 5854l-12 38"/><path class="s3" d="M2407 5489l81-171"/><path class="s3" d="M2549 5238l82 24 55 17"/><path class="s3" d="M2805 5314l86 20 58 16"/><path class="s3" d="M3074 5372l133 22"/><path class="s3" d="M2585 5182l128 40"/><path class="s3" d="M2823 5254l150 35"/><path class="s3" d="M3083 5309l146 23"/><path class="s3" d="M2651 51e2l98 35"/><path class="s3" d="M2749 5135c40 12 80 25 120 36 30 9 61 18 92 23 45 6 92 5 137 3 69-3 137-9 207-17 109-11 224-25 320-43 27-6 52-11 108-19"/><path class="s3" d="M2641 5128l99 35"/><path class="s3" d="M2740 5163c39 13 79 26 121 37 32 10 64 18 97 23 46 7 94 6 141 4 71-3 139-9 210-16 109-11 225-26 320-44 27-6 52-11 108-19"/><path class="s3" d="M2689 5048c33 11 66 22 98 31 71 23 133 40 226 61 86 20 201 44 214 41"/><path class="s3" d="M2756 5065c-2-5-5-11-5-16-1-8 1-15 3-22 14-44 32-84 50-124"/><path class="s3" d="M2753 5051l890-78"/><path class="s3" d="M2760 5019l958-82 544-45 641-55"/><path class="s3" d="M3659 4946l-37 184"/><path class="s3" d="M3762 5109l35-176"/><path class="s3" d="M3613 5181l-31 142"/><path class="s3" d="M3755 5154l-36 176-10-11-127 4"/><path class="s4" d="M3878 5308l-38-115m-4-13m-8-25m-15-45m-11-34-5-14"/><path class="s4" d="M3951 5304l-40-121m-13-37m-15-44m-12-36-3-10"/><path class="s3" d="M3903 5109l-12-1-20 3-4 4 10 30 26-1 12-7 1-9 69-4 4-13-2-18-6-6-68 5 7 17-4 19"/><path class="s3" d="M3812 5119l15-2 11 2 2 6 7 21-1 8-24 4-13-4-2-10-69 6-8-13 2-17 4-8 68-4-3 12 6 24"/><path class="s3" d="M3389 5212l136 13 64 5"/><path class="s3" d="M3307 5217l-13 52-9 12"/><path class="s3" d="M3303 5276l113 15 109 11 47 4"/><path class="s3" d="M3425 5111l-41 32-23 16"/><path class="s3" d="M3570 5096l-76 57"/><path class="s3" d="M3483 5102l-9 18 25-24"/><path class="s3" d="M3256 5157l41 8"/><path class="s3" d="M3341 5108l-4 41"/><path class="s3" d="M3237 5152l-76-17"/><path class="s3" d="M3023 5135l606-59"/><path class="s3" d="M3221 5144l10-13 16-1 8 6v15l-6 27"/><path class="s3" d="M2474 5472l102-225"/><path class="s3" d="M2931 4914l61 16 60 13"/><path class="s3" d="M3141 4963l68 13"/><path class="s3" d="M2943 4873l78 18 40 10"/><path class="s3" d="M3147 4921l62 11 50 9"/><path class="s3" d="M3356 4956l32 4"/><path class="s3" d="M2945 4741l133 36 161 38 181 28 143 15"/><path class="s3" d="M3473 5363l-3-51"/><path class="s3" d="M3365 5299v73"/><path class="s3" d="M2983 4742l596-43"/><path class="s3" d="M3554 4943l38-250 86-6 11 10"/><path class="s3" d="M3689 4697l-39 244"/><path class="s3" d="M3699 4692l388-28"/><path class="s3" d="M4101 4770V4656l1e2-5 7 14 1 96"/><path class="s3" d="M4212 4658l365-27"/><path class="s3" d="M4624 4857l-3-29-35-204 76-5 11 7 10 44 22 143v22"/><path class="s3" d="M3802 4957l460-35"/><path class="s3" d="M4271 5050V4893"/><path class="s3" d="M4392 5029v-86l5-7-4-43-3-11"/><path class="s3" d="M4392 5056l1 2e2"/><path class="s3" d="M4272 5194l-1 75"/><path class="s3" d="M3986 5092c37-3 73-7 110-11 50-5 1e2-9 149-20 36-7 71-17 107-25 55-13 112-20 166-28 80-11 155-25 244-36 75-10 159-17 206-25"/><path class="s3" d="M4968 4947l85-7"/><path class="s3" d="M3987 5121c37-4 74-8 112-12 50-5 102-9 151-20 36-7 72-17 108-25 55-13 110-20 164-28 79-12 155-26 244-37 74-9 158-16 205-24"/><path class="s3" d="M4971 4975l85-7"/><path class="s3" d="M4403 4911l296-24"/><path class="s3" d="M4706 4974l1-99v-19"/><path class="s3" d="M4804 4963v-58l4-5-1-29-7-24"/><path class="s3" d="M4706 5007l-1 162"/><path class="s3" d="M4803 4999v186l-6 25"/><path class="s3" d="M3744 5239h65 44"/><path class="s3" d="M3731 5311l119 2"/><path class="s3" d="M3492 5194l106 8"/><path class="s3" d="M3750 5209l89 4"/><path class="s3" d="M3793 5145l12 46 3 15"/><path class="s3" d="M3785 5107l-9-33"/><path class="s3" d="M37e2 4931l-12-51-5-15-12-15"/><path class="s3" d="M3763 5205l-8-37"/><path class="s3" d="M3734 4783l20 31 11 23"/><path class="s3" d="M3765 4837l13 13"/><path class="s3" d="M3834 4848l10 44 1 27"/><path class="s3" d="M3836 4849l20-10 48-3"/><path class="s3" d="M3833 4862l-53-9"/><path class="s3" d="M3904 4836l33 2 8 12 5 38 1 26"/><path class="s3" d="M3037 5616l-9 54"/><path class="s3" d="M3778 5061l485-44"/><path class="s3" d="M3897 5054l57 30"/><path class="s3" d="M4012 5123l67 31 13 7 7-3 19 10 6 12"/><path class="s3" d="M3948 5131l113 57 13 5 8 13 24 10 8-7"/><path class="s3" d="M4085 5163l-6 7-4 6-2 11"/><path class="s3" d="M4106 5205l46 25 9 19 9 15-7 18"/><path class="s3" d="M4120 5179l34 15"/><path class="s3" d="M4202 5282l4-10-1-11-2-9-11-2-6 1"/><path class="s3" d="M4201 5251l-7-17-23-57"/><path class="s3" d="M4171 5177l-8-19-11-9h-10l-12 7-2 11 5 17"/><path class="s3" d="M4106 5205v-6l2-12 6-7 6-1"/><path class="s3" d="M4216 5110l49 68 44 80"/><path class="s3" d="M4256 5095l28 43 65 121"/><path class="s3" d="M3926 5213l115-5 37-2"/><path class="s3" d="M4190 5198l37-4 35-3"/><path class="s3" d="M3935 5235l132-4 72-4"/><path class="s3" d="M4195 5224l43-5 28-4"/><path class="s3" d="M4396 5201l54-7 48-6"/><path class="s3" d="M4397 5174l55-7 28-4"/><path class="s3" d="M4426 5059l24 44 71 129"/><path class="s3" d="M4463 5050l61 112 37 67"/><path class="s3" d="M4521 5155l71-11"/><path class="s3" d="M4538 5182l54-10"/><path class="s3" d="M4401 5003l105-9"/><path class="s3" d="M4626 5172l-25 5-10-12-2-42 90-15 7 13 2 32"/><path class="s3" d="M4591 5163l19-3"/><path class="s3" d="M4609 5148l26 31 23 44"/><path class="s3" d="M4695 5219l-20-44-33-40"/><path class="s3" d="M4736 5215l-66-84"/><path class="s3" d="M4639 5189l10-11 11-3 16 4"/><path class="s3" d="M4676 5177l5-10 12-1"/><path class="s3" d="M4587 5131l-41-43-26-48"/><path class="s3" d="M4561 5033l19 38 40 39"/><path class="s3" d="M4648 5104l-58-79"/><path class="s3" d="M4553 5092l6-11 11-8h10"/><path class="s3" d="M4591 5079l9-9 9-2h10"/><path class="s3" d="M4059 4902l-40-58-9-22 4-17 14-17 24-10 55-5 108-12 51-2 43 4 31 10 27 26 44 40 23 27"/><path class="s3" d="M4032 4906l-23-37-1-12 7-7"/><path class="s3" d="M4102 4901l-43-56-9-14 1-14 15-8 82-11 119-9 34 4 26 10 55 52 12 18"/><path class="s3" d="M4063 4839l96-14 76-7 40 1 32 8 23 14 25 34"/><path class="s3" d="M4372 4804l-1-19 89-15 8 13 2 18"/><path class="s3" d="M4389 4805l14 23"/><path class="s3" d="M4474 4874l-17-37-33-40"/><path class="s3" d="M4519 4870l-61-78"/><path class="s3" d="M4083 4776l5 8 1 7-1 14"/><path class="s3" d="M4085 4807l3 9 1 9-2 9"/><path class="s3" d="M4237 4760l5 8 1 8-1 14"/><path class="s3" d="M4239 4791l3 10 1 9-1 9"/><path class="s3" d="M4327 4839l-2-11 4-7 7-5"/><path class="s3" d="M4326 48e2l-1-11 9-7 9-4"/><path class="s3" d="M4372 4783l-6-10-2-8"/><path class="s3" d="M4408 4777l-7-9-2-9"/><path class="s3" d="M4438 4770l-11-16"/><path class="s3" d="M4336 4768l255-47"/><path class="s3" d="M4304 4832l-90 9"/><path class="s3" d="M4211 4825l1 64"/><path class="s3" d="M4266 4840l14 4 9 11 7 12 9 8 12 7"/><path class="s3" d="M4605 4792l-24 6-8 18-28 33-20 11-10 4"/><path class="s3" d="M4490 4815l82-14"/><path class="s3" d="M4482 4799l121-25"/><path class="s3" d="M4215 4740l381-29"/><path class="s3" d="M3681 4782l416-33"/><path class="s3" d="M3573 4790l-3e2 23"/><path class="s3" d="M3933 4835l5-31 23-31 8-6"/><path class="s3" d="M4009 4820h-21l-7-16 7-10h9"/><path class="s3" d="M4022 4788l-10 4-15 1-13-12 1-12 10-8"/><path class="s3" d="M4030 4756l8 9-1 11"/><path class="s3" d="M3951 4842h54"/><path class="s3" d="M4099 4840l1 48"/><path class="s3" d="M4699 4751l31 20 129 67"/><path class="s3" d="M4726 4732l33 22 146 76"/><path class="s3" d="M4734 4770v-14l9-10"/><path class="s3" d="M4801 4839l-62-34-32-19"/><path class="s3" d="M4807 5097l61-14 118-32 160-51"/><path class="s3" d="M4807 5126l127-32 191-60 48-14"/><path class="s3" d="M4807 5195l120-29 160-50 157-58"/><path class="s3" d="M4851 5030l33 37"/><path class="s3" d="M4966 5157l29 26"/><path class="s3" d="M5044 5133l40 41"/><path class="s3" d="M4961 5050l-66-64"/><path class="s3" d="M5267 5148l-69-66"/><path class="s3" d="M5118 5003l-38-39"/><path class="s3" d="M4998 4977l51 50"/><path class="s3" d="M5129 5106l60 57"/><path class="s3" d="M4293 4852l34-5"/><path class="s3" d="M972 2121V4950l194 265 378 353 177 120"/><path class="s3" d="M1721 5688l92 64 5 2"/><path class="s3" d="M1818 5754l264 133"/><path class="s3" d="M3491 5425l-96 313"/><path class="s3" d="M2849 4999l60-176"/><path class="s3" d="M3099 4983l22-105"/><path class="s3" d="M2790 5202l-82 251"/><path class="s3" d="M2616 5751l-45 138"/><path class="s3" d="M2277 5656l-121 211"/><path class="s3" d="M3835 5114l-7-24-6-7-12-5-10 1-3 6v5l3 12"/><path class="s3" d="M3844 5156l5 18v9l-6 3h-15l-9-12-6-13"/><path class="s3" d="M3866 5110l-5-26 2-7 6-6 11-1 8 7 7 24"/><path class="s3" d="M3878 5149l6 23 9 7h11l8-5-1-12-5-15"/><path class="s3" d="M3887 4831l-2-24-13-36"/><path class="s3" d="M4735 4773l-13 8v12"/><path class="s3" d="M5114 4630l-25 20 2 120 3 18 25 25"/><path class="s3" d="M5024 4820l67-29"/><path class="s3" d="M5089 4650l209 137"/><path class="s3" d="M5477 4861l-41 3-16 11-6 16 2 16 11 18 14 16"/><path class="s3" d="M3746 4926l-6-51-21-44-36-42"/><path class="s3" d="M3823 4916l-32-5-30-13"/><path class="s3" d="M4096 5152l8-16 72-11 15 19 9 47"/><path class="s3" d="M4165 5117l-4-7"/><path class="s3" d="M4146 5074l-9-21 6-12 10-8"/><path class="s3" d="M4190 5036l13 23"/><path class="s3" d="M4178 5126l36-4"/><path class="s3" d="M4817 4880l584-60"/><path class="s3" d="M4498 5420l33 47 15-3"/><path class="s3" d="M4545 5520l-19 7-32-37"/><path class="s3" d="M4546 5464l-1 55"/><path class="s3" d="M3451 3104l1 34-33-1"/><path class="s3" d="M3399 3137l-35-2"/><path class="s3" d="M3364 3135l-1-26-1-9"/><path class="s3" d="M2623 3071v8l1 28"/><path class="s3" d="M2624 3107l-36-3"/><path class="s3" d="M2564 3104l-37-2"/><path class="s3" d="M2527 3102l-1-28v-9"/><path class="s3" d="M3816 4631l-3-5-18-1495"/><path class="s3" d="M3799 3126l-4 5"/><path class="s3" d="M6285 5047l159 79"/><path class="s3" d="M6444 5126l301 157"/><path class="s3" d="M7512 3021l-4 13-8 28"/><path class="s3" d="M7436 3388l20-67"/><path class="s3" d="M7440 3315l16 6"/><path class="s3" d="M7431 3282a23 17-80.30571614266134 0 0 8 32"/><path class="s3" d="M7485 3117v1l-26 84-27 81"/><path class="s3" d="M7411 3464l-2 6-1 7 1 5-33 94"/><path class="s3" d="M7452 3007l-1 4-23 82-25 83-27 82-30 79-21 55"/><ellipse class="s4" cx="6877" cy="4496" rx="17" ry="12" transform="rotate(-77.55981657040915 6877.0,4496.0)"/><path class="s3" d="M7305 3443l-178 426-46 98-38 80-31 60-31 59-62 107-32 54-33 51-61 91-46 64-47 63-23 30-38 47-41 46-4 5"/><path class="s3" d="M6598 4719l-56 62-34 37-27 27-19 18"/><path class="s3" d="M6462 4863l-176 181"/><path class="s3" d="M7343 2955l-6-6-29-49v-2l-1-6"/><path class="s3" d="M7342 2954a22 10-20.57218316936413 0 0 27 0"/><path class="s3" d="M7374 2950l-4 4"/><path class="s3" d="M7318 2898l2-5 6-2 5-1h4"/><path class="s3" d="M7401 2949l6-4 35-46v-2l4-6 5-2 25-6 7-1 2-1"/><path class="s4" d="M7402 2949l-3 2-5 1-6-1-6-3-6-6-29-50v-2l3-6 5-3m25-5 10-2h11 8m45 4m27 2 4 1"/><path class="s3" d="M7485 2881l1-10"/><path class="s3" d="M6812 4620l-9-5-15-5"/><path class="s3" d="M3677 2574v-3"/><path class="s3" d="M3671 2571h2 4l3 1"/><path class="s3" d="M3680 2574h-3-4l-2-2"/><path class="s3" d="M3665 2604v-4"/><path class="s3" d="M3658 2601l4-1h3l2 1"/><path class="s3" d="M3667 2603l-2 1h-3l-4-1"/><path class="s3" d="M3479 2555v-3"/><path class="s3" d="M3481 2553v2"/><path class="s3" d="M3472 2553l3 2h4 2"/><path class="s3" d="M3472 2553v-1"/><path class="s3" d="M3481 2553l-2-1h-5-2"/><path class="s3" d="M3471 2591v-3"/><path class="s3" d="M3464 2590l3 1h4l2-1"/><path class="s3" d="M3473 2589l-2-1h-5l-2 1"/><path class="s3" d="M3443 2552l-4 4"/><path class="s3" d="M3705 2580a135 39 3.4327885267445883 0 0-263-29"/><path class="s3" d="M3707 2586v-6"/><path class="s3" d="M3644 2613a135 38 3.4238863512109945 0 0 61-27"/><path class="s3" d="M3435 2574a71 22 10.544414766933278 0 0 43 28"/><path class="s3" d="M3499 2608l-22-5"/><path class="s3" d="M3362 2980l-1 2"/><path class="s3" d="M3530 2998a86 16 1.9411598037558944 0 0-166-9"/><path class="s3" d="M3526 3011a7 5-65.4075419374408 0 0 4-15"/><path class="s3" d="M3493 3016h5l12-2 9-1 8-2"/><path class="s3" d="M3362 2985l-2 2"/><path class="s3" d="M34e2 3013l-10-2-11-3-9-3-7-2-2-2"/><path class="s3" d="M5533 2701l-14-5-18-3-23-1-23-1-26 1-19 1"/><path class="s3" d="M5547 2716a40 22-6.8462855529011355 0 0-14-15"/><path class="s3" d="M5530 2735a40 22-6.8462855529011355 0 0 17-20"/><path class="s3" d="M5351 2760h-9l-18-3-13-4-12-4-2-2"/><path class="s3" d="M4695 3060h-1"/><path class="s3" d="M4695 3060h-1"/><path class="s3" d="M4694 3062l7-1 12-2 7-3 6-2 2-2"/><path class="s3" d="M4728 3045v4 3"/><path class="s3" d="M4728 3052v-2"/><path class="s3" d="M7522 3460l-42 1"/><path class="s3" d="M7522 3386l-147 5-13 12"/><path class="s3" d="M5798 2588l-1-1"/><path class="s3" d="M5817 2590v5l-4 5-9 5-152 65-10 4-12 2-149-6-12-5-6-5"/><path class="s3" d="M3770 2399l2 1 8 6"/><path class="s3" d="M3784 2416v-5l-4-5-11-6"/><path class="s3" d="M3755 2437v-2"/><path class="s3" d="M3751 2435l1 1 3 1 3-1h1"/><path class="s3" d="M3758 2435v1"/><path class="s3" d="M3752 2434l1 1h2 3"/><path class="s3" d="M3759 2436v-1l-3-1h-3l-2 1"/><path class="s3" d="M3732 2491v-2"/><path class="s3" d="M3730 2489h1 1 2"/><path class="s3" d="M3734 2491v-2"/><path class="s3" d="M3737 2490l-1-1h-3-3l-1 1"/><path class="s3" d="M3737 2490l-3 1h-2l-2-1h-1"/><path class="s3" d="M3695 2391v3"/><path class="s3" d="M3692 2394v-3"/><path class="s3" d="M3691 2391h1 1"/><path class="s3" d="M3690 2391l-1 1"/><path class="s3" d="M3696 2392l-1 2h-3-2l-1-2"/><path class="s3" d="M3662 2517v-2"/><path class="s3" d="M3660 2515h2 2"/><path class="s3" d="M3664 2517v-2"/><path class="s3" d="M3665 2517h-1-2-2l-2-2"/><path class="s3" d="M3665 2517v-2l-2-1-3 1h-2"/><path class="s3" d="M3563 2381v-1"/><path class="s3" d="M3565 2380h-2l-1-1"/><path class="s3" d="M3567 2380v1"/><path class="s3" d="M3568 2381h-1-4-2l-1-1"/><path class="s3" d="M3519 2505v-2"/><path class="s3" d="M3517 2503h1 1 2"/><path class="s3" d="M3522 2505l-1-2"/><path class="s3" d="M3523 2504l-1-1h-2-3-2"/><path class="s3" d="M3523 2504l-1 1h-3l-2-1-2-1"/><path class="s3" d="M3476 2411v-2"/><path class="s3" d="M3474 2409h1 1 4"/><path class="s3" d="M3480 2411v-2"/><path class="s3" d="M3481 2410l-1 1h-4-2l-1-1"/><path class="s3" d="M3481 2410l-1-1h-3-3l-1 1"/><path class="s3" d="M3466 2467v-1"/><path class="s3" d="M3464 2465v1h2 2"/><path class="s3" d="M3468 2467v-1"/><path class="s3" d="M3470 2467h-2-2-3l-1-1"/><path class="s3" d="M3470 2467l-2-1-2-1h-3l-1 1"/><path class="s3" d="M3666 2522l-155-13-18-3-18-3-13-4-11-6"/><path class="s3" d="M3665 2522a72 22 4.113072020103598 0 0 80-15"/><path class="s3" d="M3784 2419l-38 87"/><path class="s3" d="M3783 2419a22 12 22.71539360850432 0 0-19-22"/><path class="s3" d="M5759 2596l-120 52-9 3-136-4-5-2"/><path class="s3" d="M3389 2950l1 1"/><path class="s3" d="M5108 3168l-20 1374v3"/><path class="s3" d="M6570 4716l37-41 58-71 28-36 38-51 37-51 43-63 33-51 33-53 41-70 40-70 38-72 36-71 36-73 42-95 176-422"/><path class="s3" d="M7286 3426l-43-22"/><path class="s3" d="M7243 3404l157-382 9-27"/><path class="s3" d="M6570 4716l-54 61-52 53h-1"/><path class="s3" d="M6464 4830l-61 59-98 95-50 52"/><path class="s3" d="M7233 3694l1-2 8-1"/><path class="s3" d="M7235 3694a12 9-71.56505117707799 0 0 1 23"/><path class="s3" d="M7285 3780l-52-16-9-4-10-5"/><path class="s3" d="M7223 3760h1"/><path class="s3" d="M7212 3744l1-5 4-4 2-1"/><path class="s3" d="M7212 3744a12 6 33.608797134759165 0 0 10 14"/><path class="s3" d="M7237 3675l3 1 77 23"/><path class="s3" d="M7317 3699l-77-23-4-1h-2-1-14"/><path class="s4" d="M7272 3811l-87-51v-2m33-82 1-1"/><path class="s3" d="M7295 3733l-1 2-8 9-4 1-5 1-25-1"/><path class="s3" d="M7318 3698v1l-4 2-5 2h-2-1"/><path class="s3" d="M7293 3761h-16l-25-16-5-7"/><path class="s3" d="M7306 3703l-8 10-2 1h-6-25l-12 8-6 16"/><path class="s3" d="M7283 3412a146 35-127.78461205889371 0 0-2 6"/><path class="s3" d="M7290 3410a146 35-127.78461205889371 0 0-7 2"/><path class="s3" d="M7410 3417l69 37 4 3"/><path class="s3" d="M7481 3460l-1 1"/><path class="s3" d="M7483 3457l-3 4"/><path class="s3" d="M7410 3417l-1 3-4 2h-4l-20-11-7-2-9-3h-10l-65 4"/><path class="s3" d="M7381 3490l-52-27-2-2-46-42"/><path class="s3" d="M7381 3492a16 11-77.07780622271984 0 0 14-10"/><path class="s3" d="M7480 3461l-3 2h-7l-62 1-4 2-3 1-1 3-5 11"/><path class="s3" d="M4157 4608l-2 2h-4l-1-2-33 2"/><path class="s3" d="M4770 4568l-613 40"/><path class="s3" d="M6473 5042l-187 4"/><path class="s3" d="M6693 4754l4 4"/><path class="s3" d="M972 4929l6-4 212-120"/><path class="s3" d="M5088 4545l-318 23"/><path class="s3" d="M3813 4583l-4 2"/><path class="s3" d="M3813 4583h-4"/><path class="s3" d="M2177 4206l-15-1159L972 2614"/><path class="s3" d="M2987 4686l-50-17-63-21-28-11-50-20-68-29-42-21-57-29-48-27-52-32-36-22-44-29-44-30-28-23-41-30-40-33-33-27-41-36-41-39"/><path class="s3" d="M2181 4210l-297 186-694 409"/><path class="s3" d="M3028 4683l-1 2"/><path class="s3" d="M3027 4683v1l-1 1"/><path class="s3" d="M3813 4580h-4"/><path class="s3" d="M3795 3173h-2"/><path class="s3" d="M7522 3024l-120-48-7-6-2-3-3-8 1-3"/><path class="s3" d="M7426 2920h5 6l10 1 71 30"/><path class="s3" d="M7431 2932a21 13-38.33773436905461 0 0-5-4"/><path class="s3" d="M7401 2961a21 13-38.33773436905461 0 0 30-29"/><path class="s3" d="M7421 2926l6 2"/><path class="s3" d="M7525 3131h-2l-6-1-82-33-4-4-1-3v-2l1-4 1-2 3-1 22-9 2-1h3l5-1h1"/><path class="s3" d="M7029 4142h8"/><path class="s3" d="M7029 4142a12 9-71.56505117707799 0 0-3 24"/><path class="s3" d="M7066 4234l-46-22-9-5-9-6"/><path class="s3" d="M7011 4207h1"/><path class="s3" d="M7001 4190l1-3 3-5 4-1"/><path class="s3" d="M6999 4190a19 9 33.65829832385835 0 0 7 14"/><path class="s3" d="M7011 4207l-3-3"/><path class="s3" d="M7032 4124h1l4 2 70 33"/><path class="s3" d="M7107 4159l-72-34-3-1h-2l-15-2"/><path class="s4" d="M7049 4263l-75-61h-1v-2m41-77 1-1"/><path class="s3" d="M6901 4364a13 11-63.43494882292201 0 0-3 25"/><path class="s3" d="M6908 4364h-7"/><path class="s3" d="M6928 4457l-42-23-8-7-9-7"/><path class="s3" d="M6869 4410l1-3 4-5 4-1"/><path class="s3" d="M6869 4408a19 9 39.32416858841528 0 0 6 16"/><path class="s3" d="M6878 4427l-4-2"/><path class="s3" d="M6907 4346l1 2 65 36"/><path class="s3" d="M6973 4384l-64-36-3-2h-1l-3-1-13-2"/><path class="s4" d="M6910 4485l-69-65v-1-1m47-74 1-1"/><path class="s3" d="M7016 4318l-13-7-1-1-16-7-8-5-2-2"/><path class="s3" d="M6995 4334l-2-1-16-8-4-1-6-1"/><path class="s3" d="M7028 4299l-3-3-33-18-8-2-4 3-4 5-20 48-1 7 1 5 3 5 30 15"/><path class="s3" d="M7138 3920a12 9-71.56505117707799 0 0 0 24"/><path class="s3" d="M7183 4009l-49-19-9-5-9-5"/><path class="s3" d="M7125 3984l1 1"/><path class="s3" d="M7114 3970l1-5 3-4 2-2"/><path class="s3" d="M7112 3967a18 8 30.224155916223424 0 0 9 14"/><path class="s3" d="M7125 3984l-3-2"/><path class="s3" d="M7142 3902l3 1 74 28"/><path class="s3" d="M7219 3931l-74-29h-4l-2-2h-1-14"/><path class="s4" d="M7168 4038l-81-55v-1-1m36-81h1"/><path class="s3" d="M7458 3553l-10-7"/><ellipse class="s4" cx="7457" cy="3546" rx="9" ry="6" transform="rotate(-18.43494882292201 7457.0,3546.0)"/><ellipse class="s4" cx="7318" cy="3774" rx="9" ry="6" transform="rotate(-18.43494882292201 7318.0,3774.0)"/><path class="s3" d="M7355 3624l-71 180-52 117-46 99-57 112-56 103-61 106-59 93-53 77"/><path class="s3" d="M7417 3542a220 148-27.8979666860752 0 0-61 82"/><path class="s3" d="M7483 3497a255 182-20.877855673063586 0 0-65 46"/><path class="s3" d="M7494 3492l-10 6"/><path class="s3" d="M7528 3477a256 185-23.226245525956795 0 0-34 15"/><path class="s3" d="M6739 4712l-40 48"/><path class="s3" d="M6655 4832a254 161-6.135040487648476 0 0-15 157"/><path class="s3" d="M6641 4989a236 152-2.129674490204734 0 0 69 52"/><path class="s3" d="M6869 5116l-159-73"/><path class="s3" d="M6643 4816l-2 1-6-1-21-8"/><path class="s3" d="M6633 4835l-19-27-2-8"/><path class="s3" d="M6622 4790l-10 10"/><path class="s3" d="M6632 4836v1"/><path class="s3" d="M6576 4790l2-4 5-4h2"/><path class="s3" d="M6576 4789a14 5-124.22146035748116 0 0 6 16"/><path class="s3" d="M6588 4815l38 32"/><path class="s3" d="M6612 4885l-65-89v-1-1"/><path class="s3" d="M6785 4628v-3l3-10v-6l-2-5"/><path class="s3" d="M6801 4636l-41-20-1-1h-1l-14-4"/><path class="s3" d="M6783 4658l-36-18h-1-1l-14-4"/><path class="s3" d="M6744 4611l-13 25"/><path class="s3" d="M6948 4412l-1 3-8 9-3 1h-5l-23-6"/><path class="s3" d="M6977 4382l-1 1-4 3h-5-1-1"/><path class="s3" d="M6938 4443l-8-3-22-21-3-8"/><path class="s3" d="M6965 4386l-8 8-3 2h-5l-23-5-12 5-9 15"/><path class="s3" d="M7195 3962v1l-1 1-8 9-3 1h-4l-25-1"/><path class="s3" d="M7221 3928l-1 1-5 3-4 1h-1-1"/><path class="s3" d="M7192 3991l-13-1-25-17-5-8"/><path class="s3" d="M7209 3933h-1l-7 9-3 2h-6l-25-2-11 6-7 17"/><path class="s3" d="M6816 4501l9 1 5 3 34 43 2 1"/><path class="s3" d="M6823 4606l-28-18"/><path class="s3" d="M6806 4519h1l2 30-22 41-2 5-4 1-9 1-6 2-3 6-5 7"/><path class="s3" d="M6745 4687l-5-10-1-5-2-6v-5l2-12-3-7-5-6"/><path class="s3" d="M6759 4687l-4-2-3-1-5 1-2 2-34 7-6-1-10-5"/><path class="s3" d="M6811 4498h1"/><path class="s3" d="M6813 4497h1"/><path class="s3" d="M6814 4497h1"/><path class="s3" d="M6812 4498h1"/><path class="s3" d="M6814 4497h1"/><path class="s3" d="M6680 4658l120-155 4-5 5-1h6l1 1h1"/><path class="s3" d="M6679 4658a18 14-64.209027672411 0 0 0 26"/><path class="s3" d="M6722 4734l-43-50"/><path class="s3" d="M7217 4603l-318-88"/><path class="s3" d="M69e2 4511l-59 82-34 45-32 40-30 38"/><path class="s3" d="M7072 4836l-335-121"/><path class="s3" d="M6995 4335l-1 2"/><path class="s3" d="M7073 4220h-1l-1-2"/><path class="s3" d="M7048 4184l1-1"/><path class="s3" d="M7106 4162h-5-2-1"/><path class="s3" d="M7075 4219l-8-1-25-19-3-8"/><path class="s3" d="M7098 4162l-8 9-2 1h-6l-23-2-11 5-9 16"/><path class="s3" d="M6371 2136l610 84"/><path class="s3" d="M6981 2220l1-1"/><path class="s3" d="M7522 2853l-47 9-75-7-128 25v20"/><path class="s3" d="M6929 2214v-3"/><path class="s3" d="M6929 2211l592 82"/><path class="s3" d="M5998 2941l-856 228-550-23"/><path class="s3" d="M2162 3047l1178 47"/><path class="s3" d="M3340 3094l130-712 7-11 10-1 381 37 6 4-3 12-162 322"/><path class="s3" d="M2566 3130l23 1"/><path class="s3" d="M3419 3160v-13h-1"/><path class="s3" d="M3399 3162h21"/><path class="s3" d="M3430 3099l-44-2"/><path class="s3" d="M3795 3169h-2"/><path class="s3" d="M3411 2707l243 16 7 3 3 5 8 21 5 8 7 6 9 3 64 3"/><path class="s3" d="M3361 2747l-67-5"/><path class="s3" d="M3320 2373l-26 369"/><path class="s3" d="M3475 2338a146 48 4.690806445071972 0 0-157 36"/><path class="s3" d="M3836 2372l-360-33"/><path class="s3" d="M3955 2425a141 47 2.8927845191882775 0 0-120-53"/><path class="s3" d="M3952 2432a141 47 2.8927845191882775 0 0 3-7"/><path class="s3" d="M3757 2772l195-340"/><path class="s3" d="M3411 2707l243 16 7 3 3 5 8 21 5 8 7 6 9 3 64 3"/><path class="s3" d="M3757 2772l-190 332"/><path class="s3" d="M3416 2707c-6 1-12 2-17 6-6 4-9 11-13 18-4 7-9 12-16 15-3 1-6 1-9 1"/><path class="s3" d="M3361 2747l-67-5"/><path class="s3" d="M3294 2742l-23 350"/><path class="s3" d="M3567 3104l-296-12"/><path class="s3" d="M5088 2822l156 11 4 2 3 5 6 19 3 6 6 6 8 2 49 3"/><path class="s3" d="M5322 2878h10l653-260 14-6 10-7 6-7v-5l-5-6-10-5-13-4-19-2-257-25-23-1h-24l-26 1-26 4-24 4-24 4-19 7-16 7-569 275"/><path class="s3" d="M1706 2892l19 1595"/><path class="s3" d="M1384 3925l-1-283"/><path class="s3" d="M1171 3942l-3-307"/><path class="s3" d="M1180 3624a11 11-90 0 0-11 11"/><path class="s3" d="M1367 3628l-187-4"/><path class="s3" d="M1367 3627a15 15-90 0 1 15 15"/><path class="s3" d="M1188 3957l183-16"/><path class="s3" d="M1385 3925a15 15 0 0 1-15 14"/><path class="s3" d="M1188 3957a15 15 86.18592516570965 0 1-17-15"/><path class="s3" d="M972 2201l2327 207"/><path class="s3" d="M3324 2342 972 2121"/><path class="s3" d="M3685 2790l-157 312"/><path class="s3" d="M5419 2597 3952 2466"/><path class="s3" d="M3967 2417l1520 142"/><path class="s3" d="M5912 2598l-254-23-10-1h-10l-8 1-16 3-19 6-18 6"/><path class="s3" d="M5491 2750l9-2 17-6 15-6"/><path class="s3" d="M7378 3119l-13 41-23 73-26 72-3 6-47 54"/><path class="s3" d="M7521 2294l-592-80-905 362"/><path class="s3" d="M5910 2598l-2 16-661 271"/><path class="s3" d="M1193 4808c68 59 135 118 205 173 94 75 193 145 295 211 102 65 208 126 317 178 107 51 218 94 329 137"/><path class="s3" d="M3051 3088l2 9 1 28"/><path class="s3" d="M3054 3125l-37-3"/><path class="s3" d="M2993 3122l-37-2"/><path class="s3" d="M2956 3120l-1-28-1-9"/><path class="s3" d="M2996 3148l22 1"/><path class="s3" d="M3519 3023l-30 61"/><path class="s3" d="M3271 3838l-14-419"/><path class="s3" d="M2818 3841l-15-431"/><path class="s3" d="M2816 3399a11 11-90 0 0-11 11"/><path class="s3" d="M3246 3407l-430-10"/><path class="s3" d="M3245 3408a11 11-90 0 1 11 11"/><path class="s3" d="M2830 3852l428-3"/><path class="s3" d="M3269 3838a11 11 0 0 1-11 11"/><path class="s3" d="M2830 3851a11 11 90 0 1-11-11"/><path class="s3" d="M4314 3434l351 6"/><path class="s3" d="M4299 3822l2-375"/><path class="s3" d="M4312 3436a11 11-90 0 0-11 11"/><path class="s3" d="M4299 3822a11 11 180 0 0 11 11"/><path class="s3" d="M4660 3830l-350 3"/><path class="s3" d="M4660 3830a11 11 90 0 0 11-11"/><path class="s3" d="M4677 3452l-6 367"/><path class="s3" d="M4665 3441a11 11-90 0 1 11 11"/><path class="s3" d="M4115 3129v11 24l30 2v22l19 1v-23l29 1v-35"/><path class="s3" d="M4450 3142v12 23l30 2v23l19 1v-24l28 2 1-35"/><path class="s3" d="M4770 3153v11 23l30 2v23l18 1 1-24 28 2 1-35"/><path class="s3" d="M3633 2777l-58 121"/><path class="s3" d="M3689 2679l101-205"/><path class="s3" d="M3379 2909c6 0 12-1 17-1 10-1 20-1 30 0"/><path class="s3" d="M3426 2908l104 6"/><path class="s3" d="M3530 2914c6 2 11 3 16 3 4 1 8 2 12 4 1 0 2 1 3 3 1 1 1 3 1 4"/><path class="s3" d="M3562 2928l-15 32"/><path class="s3" d="M3547 2960c-3 1-5 3-6 4-4 2-10 2-14 1-8 0-16 1-24 1-3 0-7 0-11 0-29 0-56-2-84-5-9-1-18-2-27-3-3 0-6-1-9-2-1 0-3-1-5-2"/><path class="s3" d="M3397 2952l-6-1-2-1 6-31 3-1 6-1"/><path class="s3" d="M3524 2922l5 1h3v4l-12 28-3 2-5 1"/><path class="s3" d="M3494 2481l16-80 4-4 7-1 196 15 7 4 4 8-29 77-8 2h-10l-182-13-5-7"/><ellipse class="s4" cx="3572" cy="2619" rx="61" ry="19" transform="rotate(1.7557564799507113 3572.0,2619.0)"/><path class="s3" d="M3511 2622l-8-9-4-13-3-28h7v-5l10 1 4-6 6-1 7 2 6-1 2-3h6l5 2h10l2-3h7l1 3h17l3-2 6 1 1 5 9 1 7-4 6 3v4l4 1h12l1 6 8 1 1 5 2 2v24l-3 7-6 9-6 4"/><path class="s3" d="M3519 2567v21l1 6 5 9"/><path class="s3" d="M3540 2563v27l3 10"/><path class="s3" d="M3565 2561v27 9"/><path class="s3" d="M3590 2565v29l-1 5"/><path class="s3" d="M3614 2567v28l-2 9"/><path class="s3" d="M3634 2578l-2 23-4 8"/><ellipse class="s4" cx="3444" cy="3034" rx="37" ry="10" transform="rotate(1.6980437928739205 3444.0,3034.0)"/><path class="s3" d="M3407 3034l-5-6-3-6-1-17h4v-3h7l1-3 5-1 3 1h3l2-2h4l2 1h7l1-2h5v2h10l2-1 3 1 1 3h6l3-2 5 2v2l2 1h7l1 3h4l1 5h2l-2 15-1 4-3 5-4 3"/><path class="s3" d="M3363 2710l37-324 7-14"/><path class="s3" d="M3357 2790l-34 278"/><ellipse class="s4" cx="5422" cy="2769" rx="57" ry="17" transform="rotate(-2.9782316425144293 5422.0,2769.0)"/><path class="s3" d="M5367 2776l-8-7-6-11-4-26h5l1-5h9l3-5 5-2 7 1 5-1 2-3h5l5 1 10-1 1-4 6-1 2 3 15-1 2-2h6l1 3 9 2 6-4 6 1v4l4 1 11-1 2 5 7-1 2 6 1 1 2 23-1 6-4 8-7 5"/><path class="s3" d="M5369 2726l2 20 1 4 6 8"/><path class="s3" d="M5388 2720l2 25 4 8"/><path class="s3" d="M5410 2717l3 24v8"/><path class="s3" d="M5435 2717l2 26v6"/><path class="s3" d="M5456 2717l2 25-1 9"/><path class="s3" d="M5475 2724l1 23-3 8"/><path class="s3" d="M4407 3138l185 8"/><g><path class="s4" d="M4615 3077m0 0a37 6 0 1 0 74 0" fill-rule="evenodd"/></g><path class="s3" d="M6608 4912c-14 17-29 33-135 130"/><path class="s3" d="M5094 4588c3 1 6 2 10 3 4 1 9 0 14-1 2 0 4-1 6-2 1 0 1-1 2-1 0-1 0-2 0-3-1-3-3-4-5-6-3-2-7-4-11-5-3-1-6-1-10 0-3 0-7 1-10 3-2 1-4 2-5 4-1 1-1 2-1 3 1 1 2 1 3 2 2 1 5 2 7 3"/><path class="s3" d="M4929 2978l287-125"/><path class="s3" d="M5274 2824l68-31"/><g><path class="s4" d="M1232 3724m0 0a8 5 74.28521719258075 0 0-5-16m3 17" fill-rule="evenodd"/></g><g><path class="s4" d="M1251 3723m0 0a8 5 74.28521719258075 0 0-5-16m3 17" fill-rule="evenodd"/></g><g><path class="s4" d="M1270 3723m0 0a8 5 74.28521719258075 0 0-5-16m3 17" fill-rule="evenodd"/></g><g><path class="s4" d="M1288 3722m0 0a8 5 74.28521719258075 0 0-5-16m3 17" fill-rule="evenodd"/></g><g><path class="s4" d="M1306 3722m0 0a8 5 74.28521719258075 0 0-5-16m3 17" fill-rule="evenodd"/></g><g><path class="s4" d="M1323 3722m0 0a8 5 74.28521719258075 0 0-5-16m3 17" fill-rule="evenodd"/></g><g><path class="s4" d="M1234 3754m0 0a8 5 74.28521719258075 0 0-5-16m3 17" fill-rule="evenodd"/></g><g><path class="s4" d="M1251 3753m0 0a8 5 74.28521719258075 0 0-5-16m3 17" fill-rule="evenodd"/></g><g><path class="s4" d="M1270 3753m0 0a8 5 74.28521719258075 0 0-5-16m3 17" fill-rule="evenodd"/></g><g><path class="s4" d="M1288 3752m0 0a8 5 74.28521719258075 0 0-5-16m3 17" fill-rule="evenodd"/></g><g><path class="s4" d="M1307 3752m0 0a8 5 74.28521719258075 0 0-5-16m3 17" fill-rule="evenodd"/></g><g><path class="s4" d="M1324 3752m0 0a8 5 74.28521719258075 0 0-5-16m3 17" fill-rule="evenodd"/></g><g><path class="s4" d="M1234 3783m0 0a8 5 74.28521719258075 0 0-5-16m3 17" fill-rule="evenodd"/></g><g><path class="s4" d="M1253 3782m0 0a8 5 74.28521719258075 0 0-5-16m3 17" fill-rule="evenodd"/></g><g><path class="s4" d="M1272 3782m0 0a8 5 74.28521719258075 0 0-5-16m3 17" fill-rule="evenodd"/></g><g><path class="s4" d="M1289 3781m0 0a8 5 74.28521719258075 0 0-5-16m3 17" fill-rule="evenodd"/></g><g><path class="s4" d="M1307 3781m0 0a8 5 74.28521719258075 0 0-5-16m3 17" fill-rule="evenodd"/></g><g><path class="s4" d="M1325 3781m0 0a8 5 74.28521719258075 0 0-5-16m3 17" fill-rule="evenodd"/></g><g><path class="s4" d="M1235 3811m0 0a8 5 74.28521719258075 0 0-5-16m3 17" fill-rule="evenodd"/></g><g><path class="s4" d="M1253 3811m0 0a8 5 74.28521719258075 0 0-5-16m3 17" fill-rule="evenodd"/></g><g><path class="s4" d="M1272 3810m0 0a8 5 74.28521719258075 0 0-5-16m3 17" fill-rule="evenodd"/></g><g><path class="s4" d="M1289 3810m0 0a8 5 74.28521719258075 0 0-5-16m3 17" fill-rule="evenodd"/></g><g><path class="s4" d="M1308 3810m0 0a8 5 74.28521719258075 0 0-5-16m3 17" fill-rule="evenodd"/></g><g><path class="s4" d="M1325 3810m0 0a8 5 74.28521719258075 0 0-5-16m3 17" fill-rule="evenodd"/></g><g><path class="s4" d="M1235 3840m0 0a8 5 74.28521719258075 0 0-5-16m3 17" fill-rule="evenodd"/></g><g><path class="s4" d="M1254 3839m0 0a8 5 74.28521719258075 0 0-5-16m3 17" fill-rule="evenodd"/></g><g><path class="s4" d="M1273 3839m0 0a8 5 74.28521719258075 0 0-5-16m3 17" fill-rule="evenodd"/></g><g><path class="s4" d="M1291 3839m0 0a8 5 74.28521719258075 0 0-5-16m3 17" fill-rule="evenodd"/></g><g><path class="s4" d="M1308 3838m0 0a8 5 74.28521719258075 0 0-5-16m3 17" fill-rule="evenodd"/></g><g><path class="s4" d="M1326 3838m0 0a8 5 74.28521719258075 0 0-5-16m3 17" fill-rule="evenodd"/></g><g><path class="s4" d="M1236 3871m0 0a8 5 74.28521719258075 0 0-5-16m3 17" fill-rule="evenodd"/></g><g><path class="s4" d="M1255 3869m0 0a8 5 74.28521719258075 0 0-5-16m3 17" fill-rule="evenodd"/></g><g><path class="s4" d="M1274 3869m0 0a8 5 74.28521719258075 0 0-5-16m3 17" fill-rule="evenodd"/></g><g><path class="s4" d="M1292 3869m0 0a8 5 74.28521719258075 0 0-5-16m3 17" fill-rule="evenodd"/></g><g><path class="s4" d="M1310 3868m0 0a8 5 74.28521719258075 0 0-5-16m3 17" fill-rule="evenodd"/></g><g><path class="s4" d="M1327 3868m0 0a8 5 74.28521719258075 0 0-5-16m3 17" fill-rule="evenodd"/></g><path class="s3" d="M3419 3147v-2-8"/><path class="s3" d="M3399 3162l-1-25"/><path class="s3" d="M2997 3149l-3-3v-14-2-9"/><path class="s3" d="M3017 3122v8 2 2 14l-1 2"/><path class="s3" d="M2567 3131l-2-2v-14-3-5"/><path class="s3" d="M2588 3106v6 3 1l1 14-3 2"/><path class="s3" d="M4648 3035h9 15l15 1 12 1 11 2 9 2 6 2 3 2"/><path class="s4" d="M4689 3078l5-4 1-8v-12l-3-3m-4 0m-3-2m-7 0m-3-2m-5 2m-7-2m-2-1m-5 1m-6 0m-4-1m-3 1m-8-1m-4 1m-4 2m-5 0m-2 2m-5-1"/><path class="s3" d="M4610 3053v16l1 3 3 6"/><path class="s3" d="M5247 2885l-617 245"/><path class="s3" d="M5580 2589 4439 3123"/><path class="s3" d="M4407 3138l-879-36"/><path class="s3" d="M5329 2879l-643 253"/><path class="s3" d="M5029 2847l-15 5-15 1-39-1-556 266"/><path class="s3" d="M6614 4948c0 50 1 99 26 134 15 22 39 38 62 54"/><path class="s3" d="M6702 5136l113 54"/><path class="s3" d="M7402 2961l-7-3-1-3"/><path class="s3" d="M4813 2959l94 9 5 1v2l-3 4-6 3-1e2 43-7 3-7 1-32-1"/><path class="s3" d="M6839 2987l536 29"/><path class="s3" d="M5998 2941l132 7"/><path class="s3" d="M6130 2948l455 26"/><path class="s3" d="M6585 2974l254 13"/><path class="s3" d="M5935 2964l-80 2049"/><path class="s3" d="M6031 2947l-96 2118"/><path class="s3" d="M6140 2956l-89 2097"/><path class="s4" d="M6286 3970l38-767 594 26-44 730z"/><path class="s4" d="M6339 4597l1-7 4-6 5-5 6-2 73-5 6 1 5 3 3 6v7l-7 124-1 7-4 6-5 5-5 2-25 2v15l-40 3 1-14h-9-6l-5-4-3-5-1-7z"/><path class="s4" d="M6479 4570v-13l-4-13-6-10-9-8-10-4-11-1-89 7-12 2-11 6-9 10-8 11-4 14-3 13-9 163 1 13 4 13 6 10 9 7 10 5h12l88-8 12-3 11-6 9-10 7-11 5-13 3-14z"/><path class="s3" d="M5460 4820c3 1 6 2 10 2 4 1 9 0 14 0 2-1 4-1 6-2 1 0 1-1 2-1 0-1 0-3 0-4-1-3-3-4-6-5-3-3-7-5-11-6-3-1-6-1-10 0-3 0-7 1-10 4-2 1-3 2-4 4-1 1-1 1-1 2 1 1 2 2 3 3 2 1 4 2 7 3"/><path class="s4" d="M6624 4785l26-31 11-4 16 3 22 11 14 19-1 10-29 30-13 3-17-3-14-7-15-21z"/><path class="s3" d="M6633 4796l20 7h13l14-10 14-17 2-7"/><path class="s3" d="M6646 4785l12 4 14-6 4-9-9-6-14 1"/><path class="s3" d="M6642 4753l-15-12-24-7"/><path class="s3" d="M5088 4545l851 525 15 10-111 10-801-512-51-25"/><path class="s3" d="M6510 5005l105 44"/><path class="s3" d="M6172 5057l271 146 240 130"/><path class="s3" d="M6286 5046l-68 2"/><path class="s3" d="M5954 5069l264-19"/><path class="s3" d="M5853 5070l-1-4 2-6 9-6 11-3 16 4 7 4 3 6"/><path class="s3" d="M2082 5887l85-129 172-251 235-319 129-166 128-158 75-87 82-90 1121-76"/><g><path class="s5" d="M4460 7230v283c0 9-2 17-7 25-4 7-11 14-18 18-8 5-16 7-25 7H4127c-9 0-17-3-25-7-7-4-14-11-18-18-5-8-7-16-7-25V7230c0-9 3-18 7-25 4-7 11-14 18-18 8-5 16-7 25-7h283c9 0 18 2 25 7 7 4 14 11 18 18 5 8 7 16 7 25" fill-rule="evenodd"/></g><path class="s6" d="M4127 7230h283v283H4127z"/><text x="4194" y="7448"><tspan class="f3 s7" font-size="206.944">A</tspan></text><g><path class="s5" d="M6799 5873c0 6 1 11 3 17 2 5 4 10 8 14 3 5 8 9 13 12l180 105v48c-1 12 4 23 11 32 8 9 18 16 30 18 11 3 23 1 34-6l166-109c8-4 14-11 17-18 4-7 6-16 6-24 0-8-2-17-6-24l-126-232c-4-9-10-15-18-19-8-5-17-7-26-7-9-1-18 2-26 7l-40 23-113-65c-5-3-10-6-16-7-6-1-12-1-18 0-5 1-11 3-16 6l-38 22c-5 3-9 7-13 11-4 5-7 10-9 15-2 6-3 12-3 18v163" fill-rule="evenodd"/></g><path class="s8" d="M6849 5710l204 119v-77l126 232-126 85v-77l-204-119V5710l38-22 161 94m5-30 38-22 126 232-38 22m38-22m-164 107"/><text transform="matrix(0.929 0.529 -0 1 491.643 -3638.157)" x="6883" y="5848"><tspan class="f2 s7" font-size="97.222">FWD</tspan></text><path class="s9" d="M6714 5316l-527-285-13-8-222 16-97 7 16 11-20 2-794-507-60-29-890 58-1133 77-90 99-76 88-129 158-129 167-88 121-147 199-173 251-96 147 23 9 89 13h27H6012h24l177-140 205-168 142-125 97-96 45-51z"/><path class="s10" d="M3210 5913l-56 142 59 11z"/><path class="s3" d="M3145 6270l65-357"/><text x="3346" y="7037"><tspan class="f3 s7" font-size="123.611">BULK CARGO COMPARTMENT</tspan></text><text x="3946" y="7162"><tspan class="f3 s7" font-size="123.611">(AFT SIDE)</tspan></text><text x="2727" y="6401"><tspan class="f2 s7" font-size="123.611">INSPECTION AREA</tspan></text><text x="2727" y="6526"><tspan class="f2 s7" font-size="113.875">(ZONES 163, 164)</tspan></text></svg>