<svg xmlns="http://www.w3.org/2000/svg" height="10in" viewBox="0 0 7777 10005" width="7.78in"><defs><style>.f1{font-family:Consolas,Courier New,monospace}.f2{font-family:Helvetica,Arial,sans-serif}.f3{font-family:Helvetica,Arial,sans-serif;font-weight:700}.f4{font-family:Times}.f5{font-family:Times;font-weight:700}.f6{font-family:Courier}.f7{font-family:Courier;font-weight:700}.f8{font-family:Symbol}.s5{fill:#fff}.s4{fill:none;stroke:#000;stroke-width:8}.s1{fill:#ffc}.s7{fill:#000}.s10{fill:none;stroke:#000;stroke-dasharray:120,40;stroke-width:20}.s6{fill:none;stroke:#00f;stroke-width:20}.s2{fill:#cff}.s9{fill:#000;stroke:#000;stroke-width:8}.s8{fill:none;stroke:#00f;stroke-width:12}.s3{fill:none;stroke:#000;stroke-width:10.005}</style></defs><path class="s1" d="M7461 2412V5249l-370 96-1792 464-67 16H2758l30-358-27-16-2 5-4 13-16 16-17 6-20-3-11-9-6-15-2-18 7-43 8-47 20-7v-3l-8-7-9-6-12-9-11-8-12-6-11-7-12-7-17-10-147-69-127-66-130-71-129-78-129-82-129-88-131-94-128-1e2-128-105-129-114-127-117-85-85-45-46v-39-64l1-58-1-208V37e2 1986v-96-179-315H7461z"/><path class="s2" d="M2919 4068h2l21 11 7-1 114-8 5-1-1-14 37-5 1 17 4-1 86-8 38-3h3l-1-16 37-3 2 16h2l121-9 4-1v-1l-1-19 38-2v18l1 1h6l137-12h6l-4-16 33-2 4 14h5l52-4 87-8h3l-3-15 32-2 3 13 1 1h4l87-7 16-2h4l-4-14 34-2 3 13h4l154-11 4-1-4-17 32-1 4 13v3l49-4 40-4-4-15 32-1 4 14 4-1 82-6 59-5-7-18 37-4 5 18 109-10-7-18 30-3 8 19 112-10-7-15 34-3 7 15h5l114-10-7-16 33-2 7 14 84-8-4-7-4-4 34-1 4 9 51-5-8-10 25-2 39-2 57 3 34-31 331 131 376 148 303 114 292 116 347 139 622 241v44 457l-370 96-1859 480H3115l-17-404 4-19 6-14 4-6-11-214-18-352-10-21-4-49-29-39-1-6-5-167-38-16-8 1-113 174 21-286v-11l15-222z"/><path class="s3" d="M2905 4296l106-8 12-9 14-9 206-22 225-22 304-29 274-27 242-23 238-23 261-26 277-24"/><path class="s3" d="M2745 5337l-5-5-9-11-9-9-10-9-14-10-11-11-11-8-10-10-13-10-9-7-24-16-22-15-18-9-19-11-119-62-11-7-8-12-2-19-4-6-5-5-44-24-24 29h-2l-1 1-14 13h-2"/><path class="s3" d="M2821 5279l-158-68-10-8-12-18-6-6-11-2-24-1-13-4-91-46-11-9-11-18-8-6-10-3h-25"/><path class="s3" d="M23e2 5021l-25 27-3 3-8 7h-2"/><path class="s3" d="M2363 5057l-64-35 1-1"/><path class="s3" d="M2323 5110l-42-22-126-75-127-78-125-85-127-89-126-96-125-101-125-106-124-113-131-127-70-72-13-14"/><path class="s3" d="M2323 5107l91 48 89 46 4 1 31 17 32 16 2 2 23 16 3 1 13 8 47 27"/><path class="s3" d="M1444 4490h1l18-13h3l26-21 2-1 2-5 1-6-2-6-35-29-8-6-9-2h-29l-18-6-15-9-129-122-132-134-58-62"/><path class="s3" d="M1242 4185l13 6 11 8 5 9 6 22 7 11 4 4 85 82 14 8 29 10 11 7 7 9 8 25 9 11"/><path class="s3" d="M1455 4483l68 59 1-1 11-6 4-4 33-25v-1"/><path class="s3" d="M1572 4506l-69-60"/><path class="s3" d="M1210 4170a58 47-174.95323931923875 0 0 30 17"/><path class="s3" d="M1062 4010a59 47 4.808369038859274 0 0 18 7"/><path class="s3" d="M1127 4080l83 89"/><path class="s3" d="M1112 4051a62 50-175.3210524890037 0 0 13 28"/><path class="s3" d="M1114 4051a46 36 5.987041875917092 0 0-33-35"/><path class="s3" d="M1589 4343l-76-71-141-136-140-146-138-150-32-38"/><path class="s3" d="M1062 37e2l90 105 127 140 129 133 14 10 18 5 19 2 98-7"/><path class="s3" d="M1506 2009l-4 3-1 6 296 2504v7l-1 6-1 3-13 15-3 4-8 2h-10l-17 3h-5l-6-3-115-86-6-4-317-2481"/><path class="s3" d="M1643 4492l17 135-2 3-6 1-6-4-18-17-18-145"/><path class="s3" d="M1795 4466l24 202-23 32-22 2h-4l-17-141"/><path class="s3" d="M1766 4679h-7l-12-3-9-8-74-69-3-2-4-3-1-1"/><path class="s3" d="M1701 4579l-3 1-6-1-3-5"/><path class="s3" d="M2038 4852h2l1-2 3-5 4-2 1-3 4-11-1-8v-11l3-5 5-8 31-33 1-1"/><path class="s3" d="M2089 4922l2-1-2-2-1-4-44-27"/><path class="s3" d="M2039 4853a95 42-16.366211438738326 0 0 5 33"/><path class="s3" d="M2129 4886v-3l-2-10-5-11-1-13-1-9-5-6-5-5-47-31"/><path class="s3" d="M2181 4891h5l10-1 9 2 5 3 40 25 6-7 2-2 2-3 1-2 30-29 5-10 3-7 1-2v-1-1-1-1l1-2h-1v-1-1-1-1-2-1h-1v-1l-1-1v-2l-2-1-1-1-1-2-3-4-140-91-4-2-2-2h-1l-1-1h-2-1-1-1-3l-1-1-1 1h-1v-1h-1l-2 1h-1-1l-1 1-2-1v1h-1-1l-1 2h-1-2l-1 1h-1v1h-1"/><path class="s3" d="M2098 4758v-1h1v-2h1v-1h1l2-1 1-1 1-1 1-2 1-1 2-1"/><path class="s3" d="M2147 4954l-42-27-4-2-1 1"/><path class="s3" d="M2148 4953a30 24-17.76883889598719 0 0 41-7"/><path class="s3" d="M2249 4919l-1 1-3 4-10 5-10 2-13 2-10 5-10 7-1 2"/><path class="s3" d="M2197 4855a30 24-21.607189480611787 0 0-55-2"/><path class="s3" d="M2134 4867l7-13"/><path class="s3" d="M2135 4866a30 24-21.607189480611787 1 0 51 17"/><path class="s3" d="M2196 4860l-3 9-6 16"/><path class="s3" d="M2140 4894l-8 3-34 30-9-5"/><path class="s3" d="M2218 4830a51 41-5.6489185508519935 0 0-65-19"/><path class="s3" d="M2277 4864l2-4-2-5-9-6-6-1-6 2-6 8-2 6"/><path class="s3" d="M2152 4926l9-8 4-3 5 1 10 6 4 5"/><path class="s3" d="M2115 4770l8-7 5-4 5 1 10 6 3 5"/><path class="s3" d="M2055 4863l9-8 4-3 6 2 10 6 3 4"/><path class="s3" d="M2708 5078l-86-44-99-53-1e2-57-123-75"/><path class="s3" d="M2131 4736l-84-59-125-95-125-1e2"/><path class="s3" d="M2626 4944l-212-135-109-69-58-39-119-84-90-66-89-70-63-51h-1"/><path class="s3" d="M2833 4559l-89 11h-12l-10-3-81-49-81-49-78-53-80-56-79-60-78-61-77-66-77-66"/><path class="s3" d="M2334 3808l-539 658"/><path class="s3" d="M2629 5025l183-1029"/><path class="s3" d="M2830 5061l-88 14-10 1-8 4-5 4-3 3-9 40-1 2-3 16 1 14 2 4 4 3 37 14 4 2 85-15 3-1 2-5 4-6v-4l2-37v-1l6-40-1-9"/><path class="s3" d="M2791 5149v-3l-2-6-2-1-5-2-23 5-6 4-3 2"/><path class="s3" d="M2750 5147a8 6-116.565051177078 1 0 8 16"/><path class="s3" d="M2756 5163l26-3 7-6 2-5"/><path class="s3" d="M2793 5078l-6 2-8 2h-7l-6-1"/><path class="s3" d="M2723 5101l4 2 9-1 7-3 6-2 1-4"/><path class="s3" d="M2762 5109l4 1h8l10-2 4-4 1-2"/><path class="s3" d="M2850 5045v-5l73-1023v-1h2 2"/><path class="s3" d="M2784 5016l-115 18"/><path class="s3" d="M2715 5092l-7 1h-1v-1-2l8-62"/><path class="s3" d="M2756 4735h-1l-2 1-2 1-2 12 1 2h3l59 4h5l2 3 1 2-2 25-2 3-6 4-7 2h-8-6l-104-37"/><path class="s3" d="M2873 4718v-1l-30-3h-2-4l-6-1-11-6h-1l-45 6h-1l-1 1-16 21"/><path class="s3" d="M2829 4731h-1l-9-7h-1v-1h-1l-45 7h-1l-1 1-8 9v1h-1"/><path class="s3" d="M2837 4742h4l30-11 2-14"/><path class="s3" d="M2827 4685a15 6-7.235147050032945 0 0-18-4"/><path class="s3" d="M2808 4682l-5 2-70 34"/><path class="s3" d="M2828 4685l-3 23-1 2"/><path class="s3" d="M2748 4732l-3-7-2-3-5-3-6-2h-2"/><path class="s3" d="M2704 4724l5-1 7-1 7-1"/><path class="s3" d="M2701 4721h-2-1l-7 3-4 5-6 5"/><path class="s3" d="M2726 4745l-1 1-6 1-7 1-8 1h-6l-1-1-1-1"/><path class="s3" d="M2704 4723l-3-1-2-1"/><path class="s3" d="M2722 4721l5-2 3-2"/><path class="s3" d="M2859 4380v-5h-1l-2-1h-5l-66-1-5 1-6 1h-4l-2 3-4 25-1 3-2 1"/><path class="s3" d="M2801 4409l-2 1h-2l-1 9h1 2l47 2 5 2 2 1v1l-1 17-2 2-4 3-6 1h-6-5l-85-25"/><path class="s3" d="M2830 4421l-18-13"/><path class="s3" d="M2796 4414l-2-6-3-2-4-3-4-2h-3l-1 1-5 2"/><path class="s3" d="M2774 4406h-6l-5 1-2 1"/><path class="s3" d="M2760 4413l1-4v-3l-5-2-1-1-6 4-4 2-3 5"/><path class="s3" d="M2867 4160h-4l-64 22"/><path class="s3" d="M2833 4184h-2l-1 1h-1l-1 6h1 1l40 2 4 1h2l1 1-1 13-2 1-4 2h-5l-60 6h-4l-5-1-1-2"/><path class="s3" d="M2883 4180h-1l-6-4-1-2h-1l-29 3-2 1-1 1-5 6h-1"/><path class="s3" d="M2795 4214l4-17"/><path class="s3" d="M2799 4199h-4l-7-2"/><path class="s3" d="M2799 4186v-3-3l-4-1h-1l-5 3-4 1-2 3"/><path class="s3" d="M2879 4161a10 1-5.944329019813988 0 0-12-1"/><path class="s3" d="M2923 4021v-2l-18-1h-1-2l-3-1-7-5h-1l-26 3h-1v1l-10 11-1 5"/><path class="s3" d="M2692 39e2l-11-142"/><path class="s3" d="M2416 3667l27 28 52 51 47 45 24 21 34 29 34 27 33 27 51 37 49 34 45 30 45 28"/><path class="s3" d="M2465 37e2l-10-113"/><path class="s3" d="M2656 3737l-201-150"/><path class="s3" d="M2656 3737l12 164"/><path class="s3" d="M2681 3758l176 150 213-8"/><path class="s3" d="M2853 4024l-8-126"/><path class="s3" d="M3060 3729l-370 16"/><path class="s3" d="M3246 4036l-7-148"/><path class="s3" d="M31e2 4048l-8-150"/><path class="s3" d="M3268 4033l-8-147"/><path class="s3" d="M3060 3729l16 322"/><path class="s3" d="M3426 4016l-5-141"/><path class="s3" d="M3407 4017l-8-140-139 9"/><path class="s3" d="M3614 4006l-4-144"/><path class="s3" d="M3593 4007l-3-144-169 12"/><path class="s3" d="M3793 3993l-4-144"/><path class="s3" d="M3775 3993l-5-143-160 12"/><path class="s3" d="M3919 3981l-2-141-128 9"/><path class="s3" d="M3938 3980l-3-141"/><path class="s3" d="M4129 3964V3825"/><path class="s3" d="M4111 3965l-1-139-175 13"/><path class="s3" d="M4233 3956V3818"/><path class="s3" d="M4233 3818l-104 7"/><path class="s3" d="M4412 3937l4-133-165 13v138"/><path class="s3" d="M4546 3925l1-130-114 8v131"/><path class="s3" d="M4697 3915l2-130-135 9v127"/><path class="s3" d="M4849 3902l3-128-136 9v129"/><path class="s3" d="M4970 3894l3-129-104 7-5 129"/><path class="s3" d="M5053 3886l4-126-67 4-5 133"/><path class="s3" d="M5236 3825l1-79-164 13-6 131"/><path class="s3" d="M6512 3759l-21 28-64 88-44 56-43 56-48 54-48 54-41 47"/><path class="s3" d="M5285 3808l3-66-35 3-3 76"/><path class="s3" d="M6510 3759l-214-57-471-101-74-20-73-20-37-13-39-12"/><path class="s3" d="M5641 3548l-39-12-30-12-34-12-13 19-25 38-28 38-29 36-31 37-23 27-24 27-31 34-35 34-21 21"/><path class="s3" d="M7461 3967l-951-208"/><path class="s3" d="M5309 3594l-6 119"/><path class="s3" d="M5479 3564l4-104-181 270-3 65"/><path class="s3" d="M5472 3570l-26 24-7 9-53 65-8 9-41 40-36 36"/><path class="s3" d="M5315 3457l154-7-158 127"/><path class="s3" d="M5315 3457l-4 120"/><path class="s3" d="M5322 3311l-5 127"/><path class="s3" d="M5491 3306l-7 126"/><path class="s3" d="M5317 3438l167-6h1"/><path class="s3" d="M5322 3311l170-5"/><path class="s3" d="M5544 2712l-46 834"/><path class="s3" d="M5539 3294l-32 2"/><path class="s3" d="M5595 2685v3l-46 812-1 3"/><path class="s3" d="M5548 3503l-19-4-2-1v-1l46-806-1-2"/><path class="s3" d="M6362 2590l-3 36v11l-97 1059"/><path class="s3" d="M5933 2645l-1 29v10l-67 926"/><path class="s3" d="M6369 2588l-785 99-20-2"/><path class="s3" d="M4755 2660l596-117 1008 44"/><path class="s3" d="M6635 2546 6510 3759"/><path class="s3" d="M7461 2412l-253 42-286 39-1139-68"/><path class="s3" d="M6923 2493v1h-1l-547 98"/><path class="s3" d="M5524 2711l-6 135-173-2"/><path class="s3" d="M5343 2862l172 3h1l-7 131-172-1"/><path class="s3" d="M5330 3145l171-2h1"/><path class="s3" d="M5337 3013h171"/><path class="s3" d="M5507 3013l-6 130"/><path class="s3" d="M5329 3163l172-2"/><path class="s3" d="M5323 3293l169-4h2"/><path class="s3" d="M55e2 3161l-8 128"/><path class="s3" d="M5351 2712l-6 132"/><path class="s3" d="M5343 2862l-6 133"/><path class="s3" d="M5337 3013l-7 132"/><path class="s3" d="M5329 3163l-6 130"/><path class="s3" d="M5259 3603l-5 125"/><path class="s3" d="M5259 3603l35-2-6 124"/><path class="s3" d="M5288 3725l-34 3"/><path class="s3" d="M53e2 3457l-35 1"/><path class="s3" d="M53e2 3457l-5 127"/><path class="s3" d="M5265 3458l-5 128"/><path class="s3" d="M5260 3585l35-1"/><path class="s3" d="M5307 3312l-6 128"/><path class="s3" d="M5266 3441l34-1h1"/><path class="s3" d="M5307 3312h-35"/><path class="s3" d="M5272 3312l-6 129"/><path class="s3" d="M5278 3165l36-2"/><path class="s3" d="M5308 3293l6-130"/><path class="s3" d="M5278 3165l-5 129"/><path class="s3" d="M5308 3293l-35 1"/><path class="s3" d="M5285 3013h35"/><path class="s3" d="M5320 3013l-5 133"/><path class="s3" d="M5279 3146h35 1"/><path class="s3" d="M5285 3013l-6 133"/><path class="s3" d="M5293 2862h35"/><path class="s3" d="M5293 2862h35l-6 133h-37"/><path class="s3" d="M5293 2862l-8 133"/><path class="s3" d="M5335 2705l-6 138"/><path class="s3" d="M5299 2710l-6 133"/><path class="s3" d="M5329 2843h-36"/><path class="s3" d="M5283 2704l-5 139-172-3"/><path class="s3" d="M5370 2679l-1 23h-16-1"/><path class="s3" d="M5267 2677l-1 5-1 22"/><path class="s3" d="M5272 2704h-1-6"/><path class="s3" d="M5283 2706l6 4h1 6 3l3-2h1l2-2h1v-1h1v-3-1h-1"/><path class="s3" d="M5565 2677l-1 31-16 2"/><path class="s3" d="M5515 2711h-8"/><path class="s3" d="M5509 2684l-2 27"/><path class="s3" d="M5336 2707l5 4 6 1h4l3-1 1-1 3-2v-1h1v-1l1-2"/><path class="s3" d="M5111 2704l-5 136"/><path class="s3" d="M5277 2862l-172-2"/><path class="s3" d="M5105 2860l-5 135"/><path class="s3" d="M5094 2698l-5 142-70-1"/><path class="s3" d="M5024 2701l-5 138"/><path class="s3" d="M5089 2860l-70-2"/><path class="s3" d="M5089 2860l-5 135h-70"/><path class="s3" d="M5008 2696l-5 143-110-2"/><path class="s3" d="M5163 2673l-1 24-21 3-23-1"/><path class="s3" d="M5087 2698l-55-1"/><path class="s3" d="M4897 2698l-4 139"/><path class="s3" d="M5e3 2696l-95-2"/><path class="s3" d="M5008 2698l5 3h1 6 4"/><path class="s3" d="M5094 27e2l6 4h1l6 1 4-1 3-2h1l1-1h1v-1l1-1v-2"/><path class="s3" d="M5099 3013h171l-6 133"/><path class="s3" d="M5277 2862l-6 133H51e2"/><path class="s3" d="M5083 3015h-70"/><path class="s3" d="M5083 3015l-5 133"/><path class="s3" d="M5010 3149l67-1h1"/><path class="s3" d="M5013 3015l-3 134"/><path class="s3" d="M5099 3013l-5 135"/><path class="s3" d="M5264 3146l-170 2"/><path class="s3" d="M5262 3165l-168 2"/><path class="s3" d="M5262 3165l-5 129"/><path class="s3" d="M5089 3299l168-5"/><path class="s3" d="M5094 3167l-5 132"/><path class="s3" d="M5077 3167l-68 1"/><path class="s3" d="M5077 3167l-4 133"/><path class="s3" d="M5004 3302l69-2"/><path class="s3" d="M5009 3168l-5 134"/><path class="s3" d="M5083 3449l167-7h1"/><path class="s3" d="M5257 3313l-6 129"/><path class="s3" d="M5257 3313l-168 4"/><path class="s3" d="M5089 3317l-6 132"/><path class="s3" d="M5073 3319l-69 1"/><path class="s3" d="M5073 3319l-4 130"/><path class="s3" d="M5e3 3453l67-4h2"/><path class="s3" d="M5004 3320l-4 133"/><path class="s3" d="M4987 3321l-107 4"/><path class="s3" d="M4987 3321l-3 132"/><path class="s3" d="M4876 3457l107-4h1"/><path class="s3" d="M4880 3325l-4 132"/><path class="s3" d="M4992 3169l-107 1"/><path class="s3" d="M4992 3169l-3 134"/><path class="s3" d="M4881 3305l108-2"/><path class="s3" d="M4885 3170l-4 135"/><path class="s3" d="M5250 3459l-167 7"/><path class="s3" d="M5250 3459l-6 127"/><path class="s3" d="M5078 3596l166-10"/><path class="s3" d="M5083 3466l-5 130"/><path class="s3" d="M5067 3467l-69 4"/><path class="s3" d="M5067 3467l-4 130"/><path class="s3" d="M4995 3599l66-2h2"/><path class="s3" d="M4998 3471l-3 128"/><path class="s3" d="M5243 3604l-166 10"/><path class="s3" d="M5243 3604l-5 125"/><path class="s3" d="M5073 3741l164-12h1"/><path class="s3" d="M5077 3614l-4 127"/><path class="s3" d="M5061 3615l-67 3"/><path class="s3" d="M5061 3615l-4 126"/><path class="s3" d="M4991 3746l66-5"/><path class="s3" d="M4994 3618l-3 128"/><path class="s3" d="M4876 3475l107-4-4 130"/><path class="s3" d="M4876 3475l-3 132"/><path class="s3" d="M4979 3601l-106 6"/><path class="s3" d="M4871 3625l107-6-4 128"/><path class="s3" d="M4871 3625l-2 130"/><path class="s3" d="M4974 3747l-105 8"/><path class="s3" d="M4852 3757l-136 8"/><path class="s3" d="M4720 3634l136-8-4 131"/><path class="s3" d="M4720 3634l-4 131"/><path class="s3" d="M4703 3636l-137 6"/><path class="s3" d="M4703 3636l-2 130"/><path class="s3" d="M4564 3776l135-10h2"/><path class="s3" d="M4566 3642l-2 134"/><path class="s3" d="M4549 3643l-115 7"/><path class="s3" d="M4549 3643l-2 134"/><path class="s3" d="M4433 3785l114-8"/><path class="s3" d="M4434 3650l-1 135"/><path class="s3" d="M4435 3495l115-5-1 135"/><path class="s3" d="M4705 3483l-138 6"/><path class="s3" d="M4705 3483l-2 134"/><path class="s3" d="M4566 3624l137-8v1"/><path class="s3" d="M4567 3489l-1 135"/><path class="s3" d="M4435 3495l-1 137"/><path class="s3" d="M4549 3625l-115 7"/><path class="s3" d="M4722 3482l137-6-3 132"/><path class="s3" d="M4856 3608l-136 8"/><path class="s3" d="M4722 3482l-2 134"/><path class="s3" d="M4860 3458l-138 6"/><path class="s3" d="M4726 3329l138-4-4 133"/><path class="s3" d="M4726 3329l-4 135"/><path class="s3" d="M4416 3651l-166 9"/><path class="s3" d="M4416 3786l-165 12-1-138"/><path class="s3" d="M4416 3651v135h-1l-164 12"/><path class="s3" d="M4416 3633l1-137-167 7"/><path class="s3" d="M4250 3642V3503"/><path class="s3" d="M4416 3633l-166 9"/><path class="s3" d="M4708 3329l-138 3"/><path class="s3" d="M4569 3470l136-6h1"/><path class="s3" d="M4570 3332l-1 138"/><path class="s3" d="M4707 3329l-2 135"/><path class="s3" d="M5531 2684l-776-24"/><path class="s3" d="M4755 2659l-137-3"/><path class="s3" d="M5579 2413l-17 5-374 114-571 124-904-30"/><path class="s3" d="M5152 2539h2l8 1 6 1 3 2v2 3l-2 2-5 1-7 2-7 1-11 1"/><path class="s3" d="M5139 2559l-1 5-3 4v1h-2l-3 1h3"/><path class="s3" d="M5133 2569v1h-3-2l-5 1h1"/><path class="s3" d="M5124 2570v1h-2-1-7"/><path class="s3" d="M5104 2573l7-2 1 2 1-2"/><path class="s3" d="M51e2 2573h-7-1-3 1"/><path class="s3" d="M5090 2573h-3l-4-2-2 2h-3l3-2"/><path class="s3" d="M5069 2570l-52 10-5 1-6 1h-8-8-9-27"/><path class="s3" d="M5002 2858l-4 137H4889"/><path class="s3" d="M5019 2858l-5 137"/><path class="s3" d="M4997 3015H4889"/><path class="s3" d="M4997 3015l-5 134"/><path class="s3" d="M4885 3151l107-2"/><path class="s3" d="M4889 3015l-4 136"/><path class="s3" d="M5002 2858l-110-2"/><path class="s3" d="M4892 2856l-3 139"/><path class="s3" d="M4880 2695l-4 142-142-3"/><path class="s3" d="M4738 2694l-4 140"/><path class="s3" d="M4876 2856l-142-2-2 141"/><path class="s3" d="M4871 2995H4732"/><path class="s3" d="M4871 2995l5-139h-1l-141-2"/><path class="s3" d="M4731 3015l-3 138"/><path class="s3" d="M4871 3015H4731"/><path class="s3" d="M4870 3015l-2 136"/><path class="s3" d="M4728 3153l141-2"/><path class="s3" d="M4868 3170l-4 136"/><path class="s3" d="M4728 3172l-2 138"/><path class="s3" d="M4864 3306l-138 4"/><path class="s3" d="M4728 3172l140-2-4 136"/><path class="s3" d="M4710 3172l-138 2"/><path class="s3" d="M4710 3172l-2 138"/><path class="s3" d="M4570 3314l138-4"/><path class="s3" d="M4572 3174l-2 140"/><path class="s3" d="M4714 3015H4575"/><path class="s3" d="M4714 3015l-3 139"/><path class="s3" d="M4572 3155l138-1h1"/><path class="s3" d="M4575 3015l-3 140"/><path class="s3" d="M4714 2995l3-141h-1l-139-3"/><path class="s3" d="M4717 2854l-140-3-2 144"/><path class="s3" d="M4714 2995H4575"/><path class="s3" d="M4871 2693l-126-4"/><path class="s3" d="M4713 2688l-127-5"/><path class="s3" d="M4721 2690l-4 144-140-2"/><path class="s3" d="M4579 2689l-2 143"/><path class="s3" d="M4561 2685l-2 147"/><path class="s3" d="M4440 2684v145"/><path class="s3" d="M4553 2683l-11-1h-1-3-6-1-2l-81-3"/><path class="s3" d="M4896 2698h-3-6l-2-1-5-2"/><path class="s3" d="M4897 2699a10 5 168.6900675259798 0 0 8-5"/><path class="s3" d="M4880 2696l-3-1h-2l-1 1 1 1 2 1h3"/><path class="s3" d="M4720 2690l3 1 2 2 1 1h1 6 4l3-1 3-2 1-1 1-2h1v-1"/><path class="s3" d="M4586 2683l-2 2-1 2-1 1-5 1h-2-8-1l-2-1-1-1-3-2"/><path class="s3" d="M4548 2682v1 1l1 3 4 2 3 1h3 1"/><path class="s3" d="M4559 2832l-119-3"/><path class="s3" d="M4559 2851l-119-1"/><path class="s3" d="M4440 2850l-1 144"/><path class="s3" d="M4420 2994l1-145"/><path class="s3" d="M4249 2846l171 4 1-1"/><path class="s3" d="M4422 2681l-1 148-172-3V2678"/><path class="s3" d="M4230 2677l1 149-109-1-1-149"/><path class="s3" d="M4415 2678h-18-3-2-7-2-1l-126-4"/><path class="s3" d="M4222 2673l-47-1h-2-2-7-1-2l-33-1"/><path class="s3" d="M4228 2676l4 2h2 1l2 1h7 3l4-1h2l2-1v-1l1-2"/><path class="s3" d="M4448 2678v1l-2 2v1l-2 1-1 1-4 1h-2-8l-1-1h-1l-1-1h-3l-2-2"/><path class="s3" d="M4559 2851l-3 144-117-1"/><path class="s3" d="M4556 3015l-1 140"/><path class="s3" d="M4420 3015H4250"/><path class="s3" d="M4420 2994H4249"/><path class="s3" d="M4231 3160V3015H4123"/><path class="s3" d="M4556 3015H4439"/><path class="s3" d="M4439 3015l-1 142"/><path class="s3" d="M4419 3157V3015"/><path class="s3" d="M4419 3157l-169 3V3015"/><path class="s3" d="M4438 3157l116-2h1"/><path class="s3" d="M4249 2994V2846"/><path class="s3" d="M4231 2994V2846"/><path class="s3" d="M4437 3317l116-3"/><path class="s3" d="M4437 3337l116-4-3 138"/><path class="s3" d="M4417 3476l1-139-168 6"/><path class="s3" d="M4418 3319v-2l-168 5"/><path class="s3" d="M4438 3177l-1 140"/><path class="s3" d="M4437 3337l-2 138"/><path class="s3" d="M4250 3483V3343"/><path class="s3" d="M4418 3319l1-142-169 2"/><path class="s3" d="M4555 3174l-117 3"/><path class="s3" d="M4550 3471l-115 4"/><path class="s3" d="M4417 3476l-167 7"/><path class="s3" d="M4250 3323V3179"/><path class="s3" d="M4555 3174l-2 140"/><path class="s3" d="M4233 3799l-104 7-1-139"/><path class="s3" d="M4128 3649l-1-140"/><path class="s3" d="M4109 3649l-176 10-2-143"/><path class="s3" d="M4232 3661l-104 6"/><path class="s3" d="M4232 3642V3504l-105 5"/><path class="s3" d="M4109 3668l-176 11"/><path class="s3" d="M4107 3509l-176 7"/><path class="s3" d="M4232 3642l-104 6"/><path class="s3" d="M4107 3509l2 140"/><path class="s3" d="M4110 3808l-175 12-2-141"/><path class="s3" d="M4109 3668l1 138"/><path class="s3" d="M4232 3661v138"/><path class="s3" d="M4127 3489l-2-143"/><path class="s3" d="M4125 3327l-1-145"/><path class="s3" d="M4107 3489l-176 8-3-145"/><path class="s3" d="M4106 3327l-178 5-2-147"/><path class="s3" d="M4232 3484V3343l-107 3"/><path class="s3" d="M4232 3323l-1-143-107 2"/><path class="s3" d="M4106 3346l-178 6"/><path class="s3" d="M4105 3182l-179 3"/><path class="s3" d="M4106 3346l1 143"/><path class="s3" d="M4105 3182l1 145"/><path class="s3" d="M4232 3323l-107 4"/><path class="s3" d="M4232 3484l-105 5"/><path class="s3" d="M4124 3161l-1-146"/><path class="s3" d="M4123 2994l-1-149"/><path class="s3" d="M3926 3165l-3-150"/><path class="s3" d="M3923 2994l-2-152"/><path class="s3" d="M4231 3160l-107 1"/><path class="s3" d="M4231 2994H4123"/><path class="s3" d="M4105 3162l-179 3"/><path class="s3" d="M4104 2994H3923"/><path class="s3" d="M4122 2845l108 1h1"/><path class="s3" d="M4105 3162l-1-147H3923"/><path class="s3" d="M3921 2842l180 3h2"/><path class="s3" d="M4103 2994l-2-149"/><path class="s3" d="M41e2 2673l1 150-181-2-3-151"/><path class="s3" d="M4093 2670l-121-4h-3-1-7l-1-1h-3l-33-1"/><path class="s3" d="M3896 2666l2 1 2 1 3 2h2l6 1 4-1 4-2 2-1 2-1v-1l1-1"/><path class="s3" d="M4099 2672l4 1 2 1 1 2h1 2l6 1h3l4-3h2l1-2h2v-1l1-1"/><path class="s3" d="M3897 2667l3 154-134-1-4-155"/><path class="s3" d="M3742 2662l2 156-166-2-5-157"/><path class="s3" d="M3890 2664l-79-3h-4-1l-6-1h-3-2-25"/><path class="s3" d="M3734 2659l-152-4h-1"/><path class="s3" d="M3549 2656l4 2h1l2 1h2l2 1h6 4l3-1 3-1 2-1v-1l1-1v-1h2v1"/><path class="s3" d="M3739 2661l4 1 1 2 3 1h2l7 1h4l3-2h2l2-3v-1l1-1h2"/><path class="s3" d="M3903 3015H3770"/><path class="s3" d="M39e2 2842l-134-2"/><path class="s3" d="M3749 3015H3584"/><path class="s3" d="M3579 2838l166 2"/><path class="s3" d="M3906 3165l-133 2-3-152"/><path class="s3" d="M3770 2994l-4-154"/><path class="s3" d="M3754 3167l-165 2-5-154"/><path class="s3" d="M3583 2994l-4-156"/><path class="s3" d="M3749 2994H3583"/><path class="s3" d="M3770 2994h133l-3-152"/><path class="s3" d="M3749 3015l5 152h-1l-164 2"/><path class="s3" d="M3749 2994l-4-154"/><path class="s3" d="M3903 3015l2 150"/><path class="s3" d="M3911 3497l-129 6-4-147"/><path class="s3" d="M3908 3332l-130 3-4-147"/><path class="s3" d="M3762 3504l-162 7-5-150"/><path class="s3" d="M3757 3335l-163 5"/><path class="s3" d="M3908 3352l-130 4"/><path class="s3" d="M3906 3185l-132 3"/><path class="s3" d="M3757 3356l-162 5"/><path class="s3" d="M3757 3335l-3-147-165 1"/><path class="s3" d="M3594 3340l-5-151"/><path class="s3" d="M3908 3352l2 145"/><path class="s3" d="M3757 3356l4 148"/><path class="s3" d="M3916 3821l-127 8-4-142"/><path class="s3" d="M3914 3660l-129 7-3-144"/><path class="s3" d="M3765 3668l-161 10-4-147"/><path class="s3" d="M3768 3831l-3-143-160 9"/><path class="s3" d="M3610 3843l-5-146"/><path class="s3" d="M3610 3843l158-12"/><path class="s3" d="M3914 3680l-129 7"/><path class="s3" d="M3916 3821l-2-141"/><path class="s3" d="M3762 3523l-162 8"/><path class="s3" d="M3762 3523l3 145"/><path class="s3" d="M3911 3517l-129 6"/><path class="s3" d="M3911 3517l3 143-129 7"/><path class="s3" d="M3906 3185l2 147"/><path class="s3" d="M3584 37e2l-169 8"/><path class="s3" d="M3579 3531l-171 8"/><path class="s3" d="M3575 3362l-175 5"/><path class="s3" d="M3573 3341l-4-152-175 4"/><path class="s3" d="M3563 3015H3387"/><path class="s3" d="M3379 2835l179 3"/><path class="s3" d="M3393 3710l-140 8"/><path class="s3" d="M3386 3540l-142 6"/><path class="s3" d="M3379 3368l-143 5"/><path class="s3" d="M3377 3347l-5-154-144 2"/><path class="s3" d="M3371 3171l-6-156H3220"/><path class="s3" d="M3211 2833l146 1"/><path class="s3" d="M3238 3867l-7-148-148 9"/><path class="s3" d="M3231 3699l-9-152-150 7"/><path class="s3" d="M3221 3527l-7-154-150 4"/><path class="s3" d="M3205 3195l-152 2"/><path class="s3" d="M3197 3015l-154 1"/><path class="s3" d="M3188 2832l-156-3"/><path class="s3" d="M3041 3378l-207 5"/><path class="s3" d="M3030 3197l-208 4"/><path class="s3" d="M3051 3554l-206 8"/><path class="s3" d="M3020 3016H2808"/><path class="s3" d="M2796 2827l213 2"/><path class="s3" d="M3561 2994l-3-156"/><path class="s3" d="M3561 2994l-175-1"/><path class="s3" d="M3386 2993l-7-158"/><path class="s3" d="M3399 3346l-5-153"/><path class="s3" d="M3567 3169l-174 2-6-156"/><path class="s3" d="M3563 3015l4 154"/><path class="s3" d="M3573 3341l-174 5"/><path class="s3" d="M3575 3362l4 149"/><path class="s3" d="M3579 3512l-173 6-6-151"/><path class="s3" d="M3583 3679l-4-148"/><path class="s3" d="M3583 3679l-169 9-6-149"/><path class="s3" d="M3589 3843l-169 12-5-147"/><path class="s3" d="M3589 3843l-5-143"/><path class="s3" d="M3552 2657l4 159-177-4-7-171"/><path class="s3" d="M3349 2639l7 173-146-2-8-162"/><path class="s3" d="M3371 3171l-144 2"/><path class="s3" d="M3364 2993H3219"/><path class="s3" d="M3227 3173l-7-158"/><path class="s3" d="M3219 2993l-8-160"/><path class="s3" d="M3364 2993l-7-159"/><path class="s3" d="M3377 3347l-142 4"/><path class="s3" d="M3235 3351l-7-156"/><path class="s3" d="M3385 3520l-141 6-8-153"/><path class="s3" d="M3385 3520l-6-152"/><path class="s3" d="M3393 3689l-140 8-9-151"/><path class="s3" d="M3393 3689l-7-149"/><path class="s3" d="M3398 3857l-5-147"/><path class="s3" d="M3398 3857l-138 9-7-148"/><path class="s3" d="M3091 3878l147-11-7-148"/><path class="s3" d="M3091 3878l-8-150"/><path class="s3" d="M3239 3888l-147 10"/><path class="s3" d="M3082 3706l-10-152"/><path class="s3" d="M3071 3533l-7-156"/><path class="s3" d="M3213 3352l-150 3-10-158"/><path class="s3" d="M3082 3706l149-7"/><path class="s3" d="M3071 3533l150-7"/><path class="s3" d="M3213 3352l-8-157"/><path class="s3" d="M3205 3173l-153 3-9-160"/><path class="s3" d="M3032 2829l10 164"/><path class="s3" d="M3179 2647l8 163-156-2-8-166"/><path class="s3" d="M3197 3015l7 158"/><path class="s3" d="M3196 2993l-8-161"/><path class="s3" d="M3196 2993H3042"/><path class="s3" d="M2831 3360l209-4"/><path class="s3" d="M3029 3176l-217 2"/><path class="s3" d="M3008 2806l-213-3"/><path class="s3" d="M3019 2993H2803"/><path class="s3" d="M2784 2636l11 167"/><path class="s3" d="M2807 2993l-11-166"/><path class="s3" d="M2820 3178l-12-162"/><path class="s3" d="M3e3 2642l8 164"/><path class="s3" d="M3009 2829l10 164"/><path class="s3" d="M3020 3016l9 160"/><path class="s3" d="M3030 3197l10 159"/><path class="s3" d="M3041 3378l8 156"/><path class="s3" d="M2845 3539l-11-156"/><path class="s3" d="M2831 3360l-9-159"/><path class="s3" d="M2845 3539l204-5"/><path class="s3" d="M2856 3714l203-7"/><path class="s3" d="M3051 3554l9 175"/><path class="s3" d="M2867 3886l-10-150"/><path class="s3" d="M2867 3886l202-7"/><path class="s3" d="M2845 3896l-11-159"/><path class="s3" d="M2856 3714l-11-153"/><path class="s3" d="M2833 3717l-10-155"/><path class="s3" d="M2820 3540l-10-157"/><path class="s3" d="M2643 3569l12 147"/><path class="s3" d="M2640 3547l-11-158"/><path class="s3" d="M2810 3384l-157 3"/><path class="s3" d="M2629 3389l-191 4"/><path class="s3" d="M2823 3563l-156 6"/><path class="s3" d="M2643 3569l-175 7"/><path class="s3" d="M2664 3546l156-6"/><path class="s3" d="M2664 3546l-11-159"/><path class="s3" d="M2452 3554l188-7"/><path class="s3" d="M2452 3554l-14-161"/><path class="s3" d="M2679 3724v-1l-12-155"/><path class="s3" d="M2679 3723l154-7"/><path class="s3" d="M2440 3701l-96-1086"/><path class="s3" d="M2609 2801l162 2"/><path class="s3" d="M2797 3201l-157 2"/><path class="s3" d="M2615 3203l-194 4"/><path class="s3" d="M2783 3016H2624"/><path class="s3" d="M26e2 3016H2405"/><path class="s3" d="M2610 2823l162 3"/><path class="s3" d="M2586 2823l-198-2"/><path class="s3" d="M2386 2798l197 3"/><path class="s3" d="M2651 3366l-11-163"/><path class="s3" d="M2638 3180l-14-164"/><path class="s3" d="M2623 2993l-13-170"/><path class="s3" d="M2436 3370l-15-163"/><path class="s3" d="M2419 3184l-14-168"/><path class="s3" d="M2403 2992l-15-171"/><path class="s3" d="M2436 3370l191-4"/><path class="s3" d="M2419 3184l194-4"/><path class="s3" d="M2403 2992l196 1"/><path class="s3" d="M2627 3366l-12-163"/><path class="s3" d="M2613 3180l-13-164"/><path class="s3" d="M2599 2993l-13-170"/><path class="s3" d="M2651 3366l157-5"/><path class="s3" d="M2638 3180l158-2"/><path class="s3" d="M2623 2993h161"/><path class="s3" d="M2794 3178l-11-162"/><path class="s3" d="M2808 3361l-11-160"/><path class="s3" d="M2784 2993l-12-167"/><path class="s3" d="M2609 2801l-13-171"/><path class="s3" d="M2386 2798l-15-172"/><path class="s3" d="M2771 2803l-11-167"/><path class="s3" d="M2583 2801l-12-171"/><path class="s4" d="M2795 2597l2 35-2-5m-75-2h-2l-2-1-4-44"/><path class="s3" d="M2750 2630h-27-2-1-2-2-2l-110-4"/><path class="s3" d="M2561 2625l-146-5h-1-2-2-2-2l-12-1"/><path class="s3" d="M2354 2620l3 2 2 2 4 1h1l2 1h10 3l4-2h3l2-3"/><path class="s3" d="M2563 2624v1h1l1 1v1l4 3 2 1 4 1h3 9 3l4-1 2-1 4-2"/><path class="s3" d="M2753 2630l1 1v1h1v1l4 1 2 2 2 1h1 2 10 3 4l1-1 3-3"/><path class="s3" d="M2393 2570l9 45"/><path class="s3" d="M2340 2614l-2-32"/><path class="s3" d="M3582 2619l-1 26-2 3-1 2h-2-3"/><path class="s4" d="M3369 2614l-1 24v3l-2 2h-2-2m-302-7-2-2h-3l-1-2v-2l-1-27"/><path class="s3" d="M2987 2637l-1-34"/><path class="s3" d="M3030 2638l-1-1-2 1v1 2l-2 1-2 1-5 1h-3-7-4v-1h-2l-4-1-3-3"/><path class="s3" d="M3175 2644l4 3 2 1 3 1h1 2l8 1 3-1 4-1 2-1 3-2"/><path class="s3" d="M3171 2642l-111-4h-3-2-7-2-3-13"/><path class="s3" d="M3349 2648l-139-5"/><path class="s4" d="M4560 2651l-8 23-2 3-1 1h-2-3m-133-2-2-2h-1v-2-1l7-24"/><path class="s4" d="M4186 2638l-6 26-1 2-1 1h-3-1m-190-6h-3-2"/><path class="s3" d="M3984 2633l-5 24v2 2"/><path class="s3" d="M3814 2627l-3 26-1 2-2 2h-2-1"/><path class="s3" d="M3537 2655l-152-5h-3"/><path class="s3" d="M2091 4107 1905 2302"/><path class="s3" d="M1293 2002l-231-16"/><path class="s3" d="M1291 1992l-144-96"/><path class="s3" d="M1506 2009l-213-7"/><path class="s3" d="M2021 2387l-232-190-10-7"/><path class="s3" d="M5336 2545l29-6 396-109 42-10"/><path class="s3" d="M5783 2425l1474-309 204-44"/><path class="s3" d="M5071 1839l-532 299"/><path class="s3" d="M4208 2326l-22 11-192 139-281 150"/><path class="s3" d="M4559 2127l-47 27-315 177"/><path class="s3" d="M4192 2334l-8-2-6-5-4-7-6-18-4-5-5-3-184-11"/><path class="s3" d="M3990 2478l-5-2-6-3-4-6-6-15-1-4-5-1-160-9"/><path class="s3" d="M3926 2316l-7 6-153 144-11 8"/><path class="s3" d="M3713 2626l-166-5"/><path class="s3" d="M3846 2501h6l11-1 7-2 6-1 4-3v-4l-3-2-6-2-7-3-12-1-11-1-15-1-15-2h-15-14l-15 2-12 1h-5"/><path class="s3" d="M3783 2535h-10l-83-3h-7l-3-2"/><path class="s3" d="M4655 1945v25l-3 11v1l-6 8h-5"/><path class="s3" d="M4724 1941a148 41-1.5607054446521875 0 0-251-23"/><path class="s3" d="M4667 1974a148 41-1.5607054446521875 0 0 57-33"/><path class="s3" d="M4653 1977l13-2"/><path class="s3" d="M4536 2084l-3-4-217-14-16-2-12-2-7-4-15-9-10-31"/><path class="s3" d="M5071 1839l46-27 602-338 148-78"/><path class="s3" d="M5358 2540l-5-1-4-4-2-5-4-13-2-3-3-2-74-3"/><path class="s3" d="M5771 2427l-4-2-5-5-2-6-4-16-2-3-4-1-61-4"/><path class="s3" d="M6646 2170l29 2 8 1 5 3 3 2-1 2-3 4-9 3-11 2-187 42-13 3-15 2-15 1-16 2h-16-11l-33-4"/><path class="s3" d="M6232 2265l7 1 12 2 9 1 4 4"/><path class="s3" d="M6264 2273v3l-5 4-8 3-12 5-17 3-11 2"/><path class="s3" d="M6211 2280l2-1-2 18-2 6v1l-5 6h-5l-2 1"/><path class="s3" d="M6202 2310l-1 1-3 2h-4l-7 2h4"/><path class="s3" d="M6191 2314v1l-5 1-2-1-10 2h1"/><path class="s3" d="M6157 2320l12-1h1l5-2"/><path class="s3" d="M6152 2320l-13 1h-1l-4 1 1-1"/><path class="s3" d="M6135 2321h-12l-2 1-5-1h2"/><path class="s3" d="M6118 2321h-4l-4-1-4 1h-2l3-1"/><path class="s3" d="M6095 2316l1 3h5l6 1"/><path class="s3" d="M6092 2297l-2 8 2 5 3 6"/><path class="s3" d="M6154 2321h2l1-1"/><path class="s3" d="M6154 2321h-1l-1-1"/><path class="s3" d="M6010 2316l4 1v2 3l-2 4-6 2-11 1-12 2h-4"/><path class="s3" d="M5975 2343l5-18"/><path class="s3" d="M5976 2345a5 2 110.8167696682851 0 0-2 5"/><path class="s3" d="M5967 2354l5-2h1v-1l1-1v-1"/><path class="s3" d="M5951 2352a13 3 175.14667379533014 0 0 16 2"/><path class="s3" d="M5950 2344v1 1 2 1 1 1 1"/><path class="s3" d="M5950 2345v-1l-3-14"/><path class="s3" d="M4650 1977l-6 5-6 1-8-5 5-1 5-10 1-9 1-26-4-2-11 2-5-1"/><path class="s3" d="M4630 1976l-4 1-13-2 4-3 4-9 1-10v-27l-6-1-7 4-13-1"/><path class="s3" d="M4596 1924v25l-1 12-1 9-1 2"/><path class="s3" d="M4611 1972l-2 1-8-1h-8"/><path class="s3" d="M4561 1924v27 10l1 9v2l-16 1-3-1"/><path class="s3" d="M4561 1928l-14 1-6-3-6 2v25l1 10 2 10 3 2-15 3-3-1"/><path class="s3" d="M4645 1990l-3 5-2 1h-6l-4 2"/><path class="s3" d="M4630 1998l-1 3-5 1-3-1-14 3 3 1"/><path class="s3" d="M4604 2006l-3-1-15 1v1"/><path class="s3" d="M4586 2006v1l-5 2-2-3h-16l-1 3"/><path class="s3" d="M4562 2009l-7-2 1-1"/><path class="s3" d="M4556 2006h-8l-6-1-4 1-6-1 4-1-13-2-4 1-4-1-2-4"/><path class="s3" d="M4535 1932l-8 2-9-3-5 1v27l1 10 5 9 2 1-7 4h-6l-5-4"/><path class="s3" d="M4513 1940l-12-2-1 3"/><path class="s3" d="M4515 2002l5-1-8-3h-6l-3-2-3-8v-1"/><path class="s3" d="M4501 1990l-4-7-2-10v-26-1"/><path class="s3" d="M4429 1950a45 15-167.00181137470554 0 0 36 23"/><path class="s3" d="M4496 1981l-12-3-21-5"/><path class="s3" d="M4607 2005v1l-2 1-1-1-1-1"/><path class="s3" d="M4445 1966l-11-1h-19l-11 1"/><path class="s3" d="M4587 1928h-17"/><path class="s3" d="M4586 1964h-17"/><path class="s3" d="M6253 2730l18-1"/><path class="s3" d="M6251 2753l2-23"/><path class="s3" d="M6245 2810l19-1"/><path class="s3" d="M6243 2833l2-23"/><path class="s3" d="M6225 2693l17-2"/><path class="s3" d="M6225 2693l-3 23"/><path class="s3" d="M6218 2772l18-1"/><path class="s3" d="M6218 2772l-2 23"/><path class="s3" d="M6191 2736l17-2"/><path class="s3" d="M6191 2736l-3 22"/><path class="s3" d="M6184 2815l17-1"/><path class="s3" d="M6181 2837l3-22"/><path class="s3" d="M6163 2698l17-1"/><path class="s3" d="M6162 2721l1-23"/><path class="s3" d="M6157 2777l17-1"/><path class="s3" d="M6157 2777l-1 23"/><path class="s3" d="M6130 2740l17-1"/><path class="s3" d="M6129 2762l1-22"/><path class="s3" d="M6124 2818l16-1"/><path class="s3" d="M6124 2818l-2 22"/><path class="s3" d="M6104 2704l17-2"/><path class="s3" d="M6104 2704l-2 23"/><path class="s3" d="M6098 2781l16-1"/><path class="s3" d="M6098 2781l-2 22"/><path class="s3" d="M6073 2745l16-2"/><path class="s3" d="M6071 2766l2-21"/><path class="s3" d="M6066 2821h1 16"/><path class="s3" d="M6066 2821l-1 22"/><path class="s3" d="M6048 2710l16-2"/><path class="s3" d="M6048 2710l-2 21"/><path class="s3" d="M6042 2785l16-2"/><path class="s3" d="M6042 2785l-2 21"/><path class="s3" d="M6017 2749l16-1"/><path class="s3" d="M6015 2771l2-22"/><path class="s3" d="M6012 2825l15-2"/><path class="s3" d="M6010 2845l2-20"/><path class="s3" d="M5991 2737l2-21 15-2"/><path class="s3" d="M5993 2716l15-2"/><path class="s3" d="M5987 2789l15-1"/><path class="s3" d="M5986 2810l1-21"/><path class="s3" d="M6239 2890h18"/><path class="s3" d="M6239 2890l-2 23"/><path class="s3" d="M6250 2970h-18"/><path class="s3" d="M6230 2993l2-23"/><path class="s3" d="M6225 3049h18"/><path class="s3" d="M6225 3049l-3 21"/><path class="s3" d="M6211 2852l17-1"/><path class="s3" d="M6211 2852l-2 22"/><path class="s3" d="M6204 2931l17-1"/><path class="s3" d="M6202 2953l2-22"/><path class="s3" d="M6198 3009l-2 23"/><path class="s3" d="M6198 3009h17"/><path class="s3" d="M6175 2915l2-23"/><path class="s3" d="M6177 2892h17"/><path class="s3" d="M6170 2970h18"/><path class="s3" d="M6170 2970l-1 23"/><path class="s3" d="M6164 3047h17"/><path class="s3" d="M6164 3047l-2 22"/><path class="s3" d="M6151 2855h17"/><path class="s3" d="M6151 2855l-3 23"/><path class="s3" d="M6144 2932h17"/><path class="s3" d="M6144 2932l-2 22"/><path class="s3" d="M6138 3009h16"/><path class="s3" d="M6136 3030l2-21"/><path class="s3" d="M6117 2895h18"/><path class="s3" d="M6117 2895l-1 22"/><path class="s3" d="M6128 2971h-16"/><path class="s3" d="M6111 2993l1-22"/><path class="s3" d="M6105 3046l17 1"/><path class="s3" d="M6104 3068l2-22"/><path class="s3" d="M6093 2858l15-1"/><path class="s3" d="M6090 2880l3-22"/><path class="s3" d="M6086 2934h16"/><path class="s3" d="M6084 2955l3-21"/><path class="s3" d="M6096 3009h-16"/><path class="s3" d="M6080 3009l-2 21"/><path class="s3" d="M6059 2919l1-22"/><path class="s3" d="M6060 2897l16-1"/><path class="s3" d="M6071 2971l-16 1"/><path class="s3" d="M6054 2993l1-21"/><path class="s3" d="M6049 3046h16"/><path class="s3" d="M6048 3067l1-21"/><path class="s3" d="M6036 2861l16-1"/><path class="s3" d="M6036 2861l-2 21"/><path class="s3" d="M6031 2935h15"/><path class="s3" d="M6029 2956l2-21"/><path class="s3" d="M6040 3009h-16"/><path class="s3" d="M6024 3009l-1 21"/><path class="s3" d="M6006 29e2l15-2"/><path class="s3" d="M6004 2920l2-20"/><path class="s3" d="M6e3 2972h15"/><path class="s3" d="M6e3 2972l-2 21"/><path class="s3" d="M5994 3046h16"/><path class="s3" d="M5993 3066l2-20"/><path class="s3" d="M5981 2862h15"/><path class="s3" d="M5980 2884l1-22"/><path class="s3" d="M5975 2937l17-1"/><path class="s3" d="M5974 2958l3-21"/><path class="s3" d="M5986 3009h-14"/><path class="s3" d="M5972 3009l-3 20"/><path class="s3" d="M6218 3127l19 1"/><path class="s3" d="M6218 3127l-2 22"/><path class="s3" d="M6211 3205l19 1"/><path class="s3" d="M6210 3228l1-23"/><path class="s3" d="M6191 3087h18"/><path class="s3" d="M6190 3109l1-22"/><path class="s3" d="M6185 3165l17 1"/><path class="s3" d="M6182 3186l3-21"/><path class="s3" d="M6178 3241l18 1"/><path class="s3" d="M6178 3241l-2 22"/><path class="s3" d="M6157 3125l18 1"/><path class="s3" d="M6157 3146v-21"/><path class="s3" d="M6152 3201l16 1"/><path class="s3" d="M6150 3223l2-22"/><path class="s3" d="M6131 3086h17"/><path class="s3" d="M6130 3107l1-21"/><path class="s3" d="M6125 3161l16 1"/><path class="s3" d="M6123 3183l2-22"/><path class="s3" d="M6118 3236l18 1"/><path class="s3" d="M6117 3258l1-22"/><path class="s3" d="M6099 3122l17 2"/><path class="s3" d="M6098 3144l1-22"/><path class="s3" d="M6094 3197l16 2"/><path class="s3" d="M6093 3219l1-22"/><path class="s3" d="M6075 3085h15"/><path class="s3" d="M6075 3085l-3 20"/><path class="s3" d="M6069 3159l15 1"/><path class="s3" d="M6066 3180l3-21"/><path class="s3" d="M6063 3233l15 1"/><path class="s3" d="M6063 3233l-3 20"/><path class="s3" d="M6043 3121h16"/><path class="s3" d="M6042 3142l1-21"/><path class="s3" d="M6037 3194l17 1"/><path class="s3" d="M6036 3214l1-20"/><path class="s3" d="M6019 3084h15"/><path class="s3" d="M6017 3104l2-20"/><path class="s3" d="M6014 3156h15"/><path class="s3" d="M6012 3177l2-21"/><path class="s3" d="M6008 3229l15 1"/><path class="s3" d="M6006 3249l2-20"/><path class="s3" d="M5990 3119h14"/><path class="s3" d="M5987 3139l3-20"/><path class="s3" d="M5984 3190l14 1"/><path class="s3" d="M5983 3211l1-21"/><path class="s3" d="M5966 3081l14 1"/><path class="s3" d="M5964 3102l2-21"/><path class="s3" d="M5960 3153l14 1"/><path class="s3" d="M5958 3173l2-20"/><path class="s3" d="M5954 3225l15 1"/><path class="s3" d="M5952 3246l3-21"/><path class="s3" d="M6204 3282l18 1"/><path class="s3" d="M6203 3304l2-22"/><path class="s3" d="M6198 3358l18 3"/><path class="s3" d="M6197 3380l1-22"/><path class="s3" d="M6171 3317l17 2"/><path class="s3" d="M6171 3317l-1 22"/><path class="s3" d="M6165 3393l16 2"/><path class="s3" d="M6165 3393l-2 21"/><path class="s3" d="M6145 3276l17 3"/><path class="s3" d="M6145 3276l-3 22"/><path class="s3" d="M6139 3352l17 2"/><path class="s3" d="M6139 3352l-3 21"/><path class="s3" d="M6113 3312l16 1"/><path class="s3" d="M6113 3312l-2 20"/><path class="s3" d="M6107 3386l16 3"/><path class="s3" d="M6107 3386l-2 21"/><path class="s3" d="M6088 3271l16 2"/><path class="s3" d="M6086 3293l2-22"/><path class="s3" d="M6081 3346l15 1"/><path class="s3" d="M6080 3367l2-21"/><path class="s3" d="M6055 3306l17 2"/><path class="s3" d="M6055 3327l2-21"/><path class="s3" d="M6050 3379l16 2"/><path class="s3" d="M6049 34e2l3-21"/><path class="s3" d="M6032 3268l16 1"/><path class="s3" d="M6031 3288l1-20"/><path class="s3" d="M6026 3339l16 2"/><path class="s3" d="M6025 3360l1-21"/><path class="s3" d="M6002 33e2l15 3"/><path class="s3" d="M6001 3321l1-21"/><path class="s3" d="M5996 3373l16 1"/><path class="s3" d="M5996 3373l-1 20"/><path class="s3" d="M5978 3263l15 1"/><path class="s3" d="M5978 3263l-1 20"/><path class="s3" d="M5973 3333l14 2"/><path class="s3" d="M5972 3354l1-21"/><path class="s3" d="M5950 3296l14 1"/><path class="s3" d="M5950 3296l-3 20"/><path class="s3" d="M5944 3367l14 1"/><path class="s3" d="M5943 3386l1-19"/><path class="s3" d="M6192 3435l17 2"/><path class="s3" d="M6190 3455l2-20"/><path class="s3" d="M6185 3511l17 2"/><path class="s3" d="M6184 3531l1-20"/><path class="s3" d="M6179 3585l18 3"/><path class="s3" d="M6177 3607l2-22"/><path class="s3" d="M6158 3469l18 2"/><path class="s3" d="M6157 3490l1-21"/><path class="s3" d="M6152 3542l17 4"/><path class="s3" d="M6152 3542l-1 22"/><path class="s3" d="M6133 3427l17 3"/><path class="s3" d="M6131 3448l2-21"/><path class="s3" d="M6127 3501l15 3"/><path class="s3" d="M6127 3501l-3 21"/><path class="s3" d="M6119 3575l17 3"/><path class="s3" d="M6118 3596l1-21"/><path class="s3" d="M61e2 3459l17 4"/><path class="s3" d="M61e2 3459l-1 22"/><path class="s3" d="M6095 3534l16 2"/><path class="s3" d="M6095 3534l-2 20"/><path class="s3" d="M6075 3419l17 2"/><path class="s3" d="M6075 3440v-21"/><path class="s3" d="M6070 3493l16 2"/><path class="s3" d="M6070 3493l-3 20"/><path class="s3" d="M6064 3564l16 4"/><path class="s3" d="M6063 3585l1-21"/><path class="s3" d="M6044 3452l16 2"/><path class="s3" d="M6043 3472l3-20"/><path class="s3" d="M6038 3523l17 4"/><path class="s3" d="M6037 3544l1-21"/><path class="s3" d="M6020 3412l16 2"/><path class="s3" d="M6020 3412l-1 20"/><path class="s3" d="M6014 3483l17 3"/><path class="s3" d="M6014 3504v-21"/><path class="s3" d="M6009 3554l16 3"/><path class="s3" d="M6008 3575l1-19"/><path class="s3" d="M5991 3443l15 3"/><path class="s3" d="M5991 3443l-1 21"/><path class="s3" d="M5985 3515l16 2"/><path class="s3" d="M5984 3535l2-20"/><path class="s3" d="M5968 3404l15 3"/><path class="s3" d="M5968 3404l-2 21"/><path class="s3" d="M5962 3475l15 2"/><path class="s3" d="M5961 3495l1-20"/><path class="s3" d="M5956 3545l16 3"/><path class="s3" d="M5955 3565l1-20"/><path class="s3" d="M5939 3436l13 2"/><path class="s3" d="M5937 3455l2-19"/><path class="s3" d="M5933 3506l16 3"/><path class="s3" d="M5933 3506l-1 20"/><path class="s3" d="M2784 2636l214 6"/><path class="s3" d="M2718 5346l-8-7-9-6-12-9-11-8-12-6-11-7-12-7-17-10-147-69-127-66-130-71-129-78-129-82-129-88-131-94-128-1e2-128-105-129-114-127-117-85-85-45-46"/><path class="s3" d="M2061 2394l1615 73"/><path class="s3" d="M3761 2471l-180 126"/><path class="s3" d="M3581 2597l-35 24-1218-39-298-190"/><path class="s3" d="M5168 1396l-15 10-1226 910-13 5"/><path class="s3" d="M3848 2313 1777 2190l-715-479"/><path class="s3" d="M4124 2125 1062 1890"/><path class="s3" d="M4559 1782 1062 1396"/><path class="s3" d="M7461 1981l-234 55-1645 378-1263-75"/><path class="s3" d="M6213 2269v1 1h-3l-36 10h-5L4624 2163"/><path class="s3" d="M7181 2046v3 1h-2l-61 15-5-1-1951-215"/><path class="s3" d="M5660 1396 4168 2305l-202 147-273 159"/><path class="s3" d="M5050 1396 3911 2283l-196 189-191 141"/><path class="s3" d="M4030 2510l943 57"/><path class="s3" d="M7461 2412 7358 3615l-38 321-147 303-127 196"/><path class="s3" d="M2989 4519l3 332 2 357-2 440 4 177"/><path class="s3" d="M2996 4518l38 16 4 123 1 44 1 6 29 39 2 28"/><path class="s3" d="M3071 4775l2 20 10 21 2 27"/><path class="s3" d="M3085 4843l9 186 7 139 11 214"/><path class="s3" d="M3115 5825l-17-404 4-19 6-14 4-6 6-10 7-14 19-15 43-10 67-13 19 4 11 1 171-33-4-13"/><path class="s3" d="M3106 5217l9 8 5 12 11 7 48-7 75-13h18l5 6 5 24 7 45 7 8"/><path class="s3" d="M3137 5246l6 81-2 18"/><path class="s3" d="M3477 5282v134l-104 17-44 15-26 17"/><path class="s3" d="M3284 5484l-97 162"/><path class="s3" d="M2690 5403l8-47 56-20 7 4 4 9 2 10v10"/><path class="s3" d="M2683 5446l7-43 9-12 10-7 15-5 16 1 8 5 13 6"/><path class="s4" d="M2683 5446l2 18 6 15 11 9 20 3 17-6 16-16 4-13 1-29-8-12-10-5-19 1-17 7-10 9z"/><path class="s3" d="M2767 5369l-3 35 1 4 46-2"/><path class="s3" d="M2761 5451l43 25 14 13 5 22"/><path class="s3" d="M2778 5376h20l73-5 12-10 28-46"/><path class="s3" d="M2811 5406l58 1"/><path class="s3" d="M2804 5499l-5 86v10l8 4 10-10 90-150 7-22 3-42 2-101"/><path class="s3" d="M2858 5365l51-84 10-7h8l44 10-3 118-4 31-13 34-87 136-10 13-20-9-27-8"/><path class="s3" d="M2804 5499l4-7"/><path class="s3" d="M2839 5491l41-68"/><path class="s3" d="M2788 5475l-30 350"/><path class="s3" d="M2843 5258l75-120 73-18"/><path class="s3" d="M2988 5158l-61 107"/><path class="s3" d="M2843 5258l-22 43 2 14 11 11 13-2 8 6 97-160"/><path class="s3" d="M2883 5198l39-28 66-12"/><path class="s3" d="M2853 5149l39 19"/><path class="s3" d="M2944 4826l24-40 21-12"/><path class="s3" d="M2868 4929l61-87 62-9"/><path class="s3" d="M2988 4854l-118 201"/><path class="s3" d="M2864 5066l93 51"/><path class="s3" d="M2882 4682l106-163"/><path class="s3" d="M3348 5295l269-49 289-54 15-5 13-9 19-6 425-79 128-23h27 29l53-10 13-7 15-8 424-78 68-12 23 1 13 1 58-10 10-7 11-7 95-17 15-1 20 3 58-11 9-3 10-8 17-6 386-71 24-3 22 2h16l49-10 8-8 14-6 384-70 17 1 16 2 35-5 17-5 5-10 360-66h21l109-20-82-36-18 2"/><path class="s3" d="M6758 4602l-8 8-263 45-95 18-13-2-59 10-4 6-139 25-261 49-16-2-66 11-10 6-358 64-62 12-20-1-21 3-47 10-12 4-12 5-99 17-18-4-20 3-67 18-323 60-168 31-17-2-14 2-69 11-15 10-321 56-253 46-19-1h-15l-73 12-11 8-13 4-311 57-137 24-18 8-5 11 3 30 4 18 9 4 13 1 13-2"/><path class="s3" d="M3284 5267l12 7h13"/><path class="s4" d="M3477 5395l280-56m161-31 138-27 411-81m145-28 133-25 338-67m145-29 115-22m8-1m125-25 399-79m116-23 103-21 533-102 165-35"/><path class="s3" d="M3782 5216l-92 474"/><path class="s3" d="M3913 5191l-111 560 21 31 120-607"/><path class="s3" d="M4496 5071l-58 272"/><path class="s3" d="M4610 5062l-104 478"/><path class="s3" d="M4636 5050l-110 521"/><path class="s3" d="M4970 56e2l144-641"/><path class="s3" d="M5067 5582l150-633"/><path class="s3" d="M5104 5577l149-644"/><path class="s3" d="M5332 4919l69 456"/><path class="s3" d="M5430 4909l79 567"/><path class="s3" d="M5456 4898l85 576"/><path class="s3" d="M5866 4819l51 458"/><path class="s3" d="M5949 4814l53 495"/><path class="s3" d="M5978 4803l57 545"/><path class="s3" d="M4971 5714l-25 111"/><path class="s3" d="M5101 5704l-28 121"/><path class="s3" d="M5148 5676l-36 149"/><path class="s3" d="M5734 5521l-44 184"/><path class="s3" d="M5844 5512l-42 165"/><path class="s3" d="M5889 5495l-44 171"/><path class="s3" d="M5995 5457l19 166"/><path class="s3" d="M6108 5444l15 150"/><path class="s3" d="M6142 5431l15 154"/><path class="s3" d="M6622 5466l-10-167"/><path class="s3" d="M6720 5291l8 147"/><path class="s3" d="M6761 5280l8 147"/><path class="s3" d="M6569 5425l48 33"/><path class="s3" d="M6942 5327l64 39"/><path class="s3" d="M7024 5303l67 42"/><path class="s3" d="M6978 5316l64 40"/><path class="s3" d="M5272 5774l27 35"/><path class="s3" d="M5377 5745l28 33"/><path class="s3" d="M5412 5735l29 33"/><path class="s3" d="M6155 5540l44 35"/><path class="s3" d="M6201 5522l48 39"/><path class="s3" d="M3111 5385l160 61-7 12"/><path class="s3" d="M31e2 5435l164 23"/><path class="s3" d="M3221 5454l74 29 125 52 58 23 103 34 81 24"/><path class="s3" d="M3319 5462l109 43 81 31 90 29 54 16"/><path class="s3" d="M3184 5336l2 41-5 18-9 11"/><path class="s3" d="M3111 5630l89 28"/><path class="s3" d="M3113 5679l258 81 207 65"/><path class="s3" d="M3113 5744l246 81"/><path class="s3" d="M3193 5698l2-25 24-34 22-11 19-2 135 37 86 24 121 26 16 9-7 15-9 21v21l7 24-13 8-18 14"/><path class="s3" d="M3205 5673l106 33 288 65"/><path class="s3" d="M35e2 5523l-1-95 25-32"/><path class="s3" d="M3663 5364l67 11 9 33"/><path class="s3" d="M3655 5364l53 197"/><path class="s3" d="M3763 5756l19 69"/><path class="s3" d="M3802 5751l-99-13"/><path class="s3" d="M3581 5383l6 170"/><path class="s3" d="M3718 5825l-72-295-35-152"/><path class="s3" d="M3660 5825l-22-105"/><path class="s3" d="M3914 5348l204 30"/><path class="s3" d="M3902 5395l266 13"/><path class="s3" d="M3897 5425l295 17"/><path class="s3" d="M4218 5633l-240-112"/><path class="s3" d="M3977 5770l-8-3-7-7-2-9 5-19 13-11 13-5 15 1 12 7 5 12-3 12"/><path class="s3" d="M4018 5724l-14-33-16-5-18 2-15 8-7 13 12 42"/><path class="s3" d="M3948 5709l-7-19 3-19 11-11 18-5 12 1 6 5 13 30"/><path class="s3" d="M3941 5690l-16-48 4-19 17-9 15-3 15 3 14 32 1 15"/><path class="s4" d="M3960 5825l-8-8-2-9 5-19 13-11m13-2m15-2m13 7m3 10m-2 9m-3 7"/><path class="s4" d="M4009 5781m-15-32m-16-4m-17 0m-11 6-4 2-8 13 12 42"/><path class="s4" d="M3938 5766l-7-19 3-19 10-9m20-7m11 2m7 5m12 30"/><path class="s4" d="M3931 5747l-16-47 5-19 9-7m22-6m16 3m13 33m2 15"/><path class="s3" d="M3972 5756l25 69"/><path class="s3" d="M4015 5739l33 86"/><path class="s3" d="M3972 5756l4-10 11-8 14-3 9 2 5 2"/><path class="s3" d="M3985 5796l-14 4-6 5-2 7 4 13"/><path class="s3" d="M3927 5627l-23-67 5-13 12-7 14-2 11 2 23 70"/><path class="s3" d="M3917 5689l-11-50-8-27 4-10 4-9"/><path class="s3" d="M3888 5487l7 7 1 15v17l-20 105-10-7-9-14"/><path class="s3" d="M3906 5489l60 1 10 27-11 61"/><path class="s3" d="M3961 5520l-57-3"/><path class="s3" d="M3849 5765l19 60"/><path class="s3" d="M3898 5770l15 55"/><path class="s3" d="M3827 5760l55 5 43 5"/><path class="s3" d="M3988 5626l101 11 12 8 8 16 1 17-4 27-23 76-50-3"/><path class="s3" d="M3850 5653l55 6"/><path class="s3" d="M3999 5668l107 8"/><path class="s3" d="M4346 5647h-50l-20-4-61-5-69-1-9 5-3 11 3 19v9l-26 91 63 5"/><path class="s3" d="M4233 5783l-46-2-9-9v-19l5-26 10-24 16-13 33-4 75 5h24 17"/><path class="s3" d="M4195 5687l-56-3"/><path class="s3" d="M4363 5675l-18 87"/><path class="s3" d="M4258 5461l-59-1-11 53 12 19 24 2"/><path class="s3" d="M4185 5521l-11 12-5 1"/><path class="s3" d="M4210 5516l6-28 57 2"/><path class="s3" d="M4219 5514l9 21-2 8-10 4-14 2-27-8-149-71-36-20-19-9-16-6"/><path class="s3" d="M3916 5486l6-14 20-4 25 10"/><path class="s3" d="M4242 5601l50 23 25 7"/><path class="s3" d="M3967 5478l102 50 76 39 39 17 35 7 31-3 19-18 5-24-8-26-9-21"/><path class="s3" d="M3898 5441l15-9"/><path class="s3" d="M3958 5305l55 25 88 38 52 29 25 19 24 43"/><path class="s3" d="M4022 5294l95 42 36 18 33 22 21 17 36 63"/><path class="s3" d="M4079 5285l46 23 29 23 39 48"/><path class="s3" d="M4133 5275l20 10 20 14"/><path class="s3" d="M4165 5266l251 483"/><path class="s3" d="M4222 5253l56 106"/><path class="s3" d="M4296 5393l92 169 94 164"/><path class="s3" d="M4395 5346l4-21 22-2 37 58-12 57"/><path class="s4" d="M4257 5244l53 98m7 14 36 67 166 297"/><path class="s4" d="M4294 5238l51 1e2m9 16 52 101 148 258"/><path class="s3" d="M4321 5232l110 186 143 239"/><path class="s3" d="M4293 5363l7-10 11-4 12 4 11-8 12-2 15 6 9-9 14 1"/><path class="s3" d="M4276 5381l1-5-1-8"/><path class="s3" d="M4263 5355l-5 15v9l2 6h7"/><path class="s3" d="M4267 5385l3 4 3 8 7 2 12-2 4-4 6-10"/><path class="s3" d="M4263 5355h7l6 4 12-1"/><path class="s3" d="M4324 5380l2-8"/><path class="s3" d="M4349 5378l1-5"/><path class="s3" d="M4369 5305l73-3"/><path class="s3" d="M4128 5316h-39"/><path class="s3" d="M4578 5698l-1-35 3-14 10-7h13l15 17 16 29"/><path class="s3" d="M4567 5641l90-4 127-11 174-24"/><path class="s3" d="M4554 5616l42-98 45-83 39-57 49-43"/><path class="s3" d="M4561 5624l52-53 72-86 62-69 69-67 52-36"/><path class="s3" d="M4568 5373l59-7 67-8"/><path class="s3" d="M4723 5353l64-10 36-6"/><path class="s3" d="M4852 5331l39-8"/><path class="s3" d="M4581 5325l102-12 80-13 106-20 80-18"/><path class="s3" d="M4603 5242l69-8 4 2 14 11 20-90"/><path class="s3" d="M4683 5163l-15 63"/><path class="s3" d="M4699 5229l48-9h16l8 10v15l2 20 8 10 6 6 14 4"/><path class="s3" d="M4779 5256l132-24 4 9 7 8v7l-2 5"/><path class="s3" d="M4682 5274l2 10 6 6-2 8-3 7"/><path class="s3" d="M4682 5274l-89 13"/><path class="s3" d="M4870 5289l40 51 89 107"/><path class="s3" d="M4837 5131l106 121 79 91"/><path class="s3" d="M4875 5125l158 181"/><path class="s3" d="M4908 5316l66-13"/><path class="s3" d="M5147 5433l97 105"/><path class="s3" d="M5135 5469l69 79"/><path class="s3" d="M5204 5182l171 166 125 112"/><path class="s3" d="M5254 5222l53-17 53-21"/><path class="s3" d="M5216 5184l76-24 63-25"/><path class="s3" d="M5216 5109l5 22 6 14 11 8 14 7"/><path class="s3" d="M5238 5135l111-41"/><path class="s3" d="M5496 5129l95-43 115-58"/><path class="s3" d="M5486 5079l45-20 53-26"/><path class="s3" d="M5503 5006l29 12 35 2h61l89-4 58-2 36 6 60 26"/><path class="s3" d="M5716 4963l42 4 36 10 46 26 28 20"/><path class="s3" d="M5634 5008l73-36"/><path class="s3" d="M5744 5003l30-16"/><path class="s3" d="M5806 4968l56-34"/><path class="s3" d="M5482 5039l28-11"/><path class="s3" d="M5903 5230l-58 23 8 90 17 11 28-11"/><path class="s3" d="M59e2 5262l-29 11 5 40"/><path class="s3" d="M6018 5127l26 22 6 14-5 10-22 2"/><path class="s3" d="M5889 5149l-96 1-45 5-23 4-7 9 2 11 14 15 111 90"/><path class="s3" d="M5897 5274l27 21 21 7 37 8 48 32"/><path class="s3" d="M5877 5303l29 26 15 7 19 4 17 5 19 11"/><path class="s3" d="M5859 5244l-52-42-6-9 6-11 30-2 56-1"/><path class="s3" d="M5772 5199l-1-9 1-11 6-7"/><path class="s3" d="M5548 5447l95-32 129-54 68-31"/><path class="s3" d="M5845 5387l53-26"/><path class="s3" d="M6031 5235l88-49 83-46"/><path class="s3" d="M6037 5289l84-47 124-76"/><path class="s3" d="M6037 5313l32-3 32-11 102-57 27-26 44-27"/><path class="s3" d="M6155 4959l2 13 7 11"/><path class="s3" d="M6163 4956l9-5"/><path class="s3" d="M6182 4939l9 8 5 12 1 13"/><path class="s3" d="M6228 4952l2 13 8 10"/><path class="s3" d="M6257 4932l8 9 4 11 1 13"/><path class="s3" d="M6157 4972l-21 11-21 12-14 14v13l7 19"/><path class="s3" d="M6229 4966l-29 13-25 15-19 23-5 22 7 23 24 29"/><path class="s3" d="M6174 4977l8-5"/><path class="s3" d="M6240 4947l9-4"/><path class="s3" d="M6252 4968l7-4"/><path class="s3" d="M6055 4970l13-5 8 5h9l3-3-1-14-9-12-9-8-4 6-3 4-3 4-5 2-10-2-5 3-3 4-3 2"/><path class="s3" d="M6005 5044l24 16 13-4-5-37-8 6-5 2-21-15"/><path class="s3" d="M6037 5019l-36-27"/><path class="s4" d="M5995 4939l22 14m7 5 24 15 48 30"/><path class="s3" d="M6109 5010l34 24"/><path class="s3" d="M6158 5045l163 112 73 52"/><path class="s3" d="M6007 4971l410 282"/><path class="s3" d="M6395 5259l-350-236"/><path class="s3" d="M6001 4981l3-11 4-3 6-1 1-4 3-5 5-3 11 3"/><path class="s3" d="M6002 4968l-6-5"/><path class="s3" d="M6304 5201l-34 22-7 23 3 26 11 9 10 11"/><path class="s3" d="M6209 5308l55-35"/><path class="s3" d="M6393 5220l9-25 13-18 23-6 31-1 38 7 38 17 25 18"/><path class="s3" d="M6416 5239l6-24 12-14 21-4 31 4 32 12 24 12"/><path class="s3" d="M6423 5231l24 16"/><path class="s3" d="M6261 5105l85-55 52-34"/><path class="s3" d="M6295 5132l42-26 28-19"/><path class="s3" d="M6324 5152l21-21 20-28 8-23 12-15 44-29"/><path class="s3" d="M6381 5192l89-63"/><path class="s3" d="M6488 5071l-14 19-5 15 4 19 5 13 15 11 1 6-6 8-9 8"/><path class="s3" d="M6442 5238l45-33"/><path class="s3" d="M6524 5180l66-49"/><path class="s3" d="M6669 5070l79-63 95-81 152-142 114-129"/><path class="s3" d="M6642 5045l51-40-4-14-11-10-8-13 2-23 28-26 24-13h17l9 15 21 12 11-6 93-82 3-12-6-8-14-11-5-16 5-17 26-29 20-14h12l11 12 9 11h22l78-77 6-15-6-10-13-11-2-15 1-10 5-10 19-22"/><path class="s3" d="M6609 5028l60-52"/><path class="s3" d="M6750 4908l103-91"/><path class="s3" d="M6930 4743l88-93"/><path class="s3" d="M6493 4947l62-50 92-74 68-58"/><path class="s3" d="M6532 4969l73-57 52-45"/><path class="s3" d="M6573 4993l28-25 47-53 11-36 7-20 93-76 132-120 30-32"/><path class="s3" d="M6664 4886l15 47"/><path class="s3" d="M6693 4840l24 66"/><path class="s3" d="M6846 4926l295 148"/><path class="s3" d="M6824 4852l22 11"/><path class="s3" d="M6889 4889l342 164"/><path class="s3" d="M6780 4892l20 11"/><path class="s3" d="M6638 4825l-64-34"/><path class="s3" d="M6682 4788l-24-11"/><path class="s3" d="M6398 4926l-5-46-8-9-37-1-9 1v13l14 5 10 9 3 19"/><path class="s3" d="M6335 4881l-44 20 8 99 22 13 32-18"/><path class="s3" d="M6341 4910l-22 10 3 61"/><path class="s3" d="M6576 5066l-8 3-10-2-7-5-9-17 3-18 7-13 13-8 13-2 12 5 5 12"/><path class="s3" d="M6578 5004l-32-16-15 6-12 13-7 15 2 16 37 24"/><path class="s3" d="M6514 5038l-17-10-10-18 1-16 12-14 9-7 9-1 28 16"/><path class="s3" d="M6497 5028l-43-27-9-17 6-18 11-13 13-6 31 16 12 9"/><path class="s3" d="M6564 5057l-3-8 2-14 9-12 9-4 5-2"/><path class="s4" d="M6542 5095h-5l-11-1-6-4-9-19 2-17m9-9m10-12m13-3m11 6m4 8m2 8"/><path class="s4" d="M6545 5030m-31-15m-15 7m-12 12m-3 11-2 9 1 12 37 24"/><path class="s4" d="M6483 5066l-23-17-2-9 5-13m4-19m10-7m8-1m29 15"/><path class="s4" d="M6460 5049l-24-13-1-17 12-14m14-9m25 14"/><path class="s3" d="M6542 5064l-8 10-2 9 4 7 76 45 86 53"/><path class="s3" d="M6564 5057l34 19 18 17 33 32 32 26 52 27"/><path class="s3" d="M6586 5017l28 16 26 17 26 25 27 30 28 22 76 38"/><path class="s3" d="M6445 4990l-24-9-35-6-29-6-27-12"/><path class="s3" d="M6464 4951l-26-13-35-5-28-4-28-12"/><path class="s3" d="M6434 5032l-102-50"/><path class="s3" d="M6290 4962l-12-7"/><path class="s3" d="M6245 4938l-30-17-27-20-12-22-4-12"/><path class="s3" d="M6573 48e2l-4 18-14 8-76 12-179 27-6 7 3 11 16 7"/><path class="s3" d="M6288 4931l-30-21-11-20-3-24 11-12"/><path class="s3" d="M6221 4863l8 14 12 9"/><path class="s3" d="M5795 4150l-134-56"/><path class="s3" d="M6903 4591l41-41"/><path class="s3" d="M6943 4609l42-41"/><path class="s3" d="M7109 4655l26-32"/><path class="s3" d="M6786 4591l4-4 4-8 4-3 10-1 27 4 20 10 5 5-1 8-1 7 3 8"/><path class="s4" d="M6791 4583l-10 2-18 1-11 2-3 4 1 6 13 6 21 5 18 6 9 7 3 5 15 3m14-3m38-7v-8l-4-6-11-6-6-2"/><path class="s3" d="M6841 4591l-7 4-2 6-3 5-6 3"/><path class="s3" d="M6803 46e2l2-7 3-6 3-4"/><path class="s3" d="M6807 46e2h9l8 1"/><path class="s3" d="M6886 4449l-1-4 5-3 106-4"/><path class="s3" d="M7069 4461l37 46 12 15 1 6-4 3-5 2h-9"/><path class="s3" d="M6946 4468l10-11h11l9 3 7 9-8 10"/><path class="s3" d="M7004 4491l8-9 8-2 13 4 3 7-3 15"/><path class="s3" d="M6966 4457l36-6"/><path class="s3" d="M7033 4472l18-6 8 7 5 4-8 23-18 9"/><path class="s3" d="M7040 4463l-28-9-10-3"/><path class="s3" d="M6295 4231l1-4 4-3 84 7 37 9"/><path class="s3" d="M6351 4246l8-6h7l5 1 2 4-5 7"/><path class="s3" d="M6387 4259l7-7h7 5l2 4-4 10"/><path class="s3" d="M6457 4289l1-7-4-9-11-23-22-12"/><path class="s3" d="M5826 4052l8-4 23-6h8l11 4 65 25"/><path class="s3" d="M5948 4103l3-5-2-18"/><path class="s3" d="M5462 3921l9-5 23-6h8l11 4 65 25"/><path class="s3" d="M5582 3966l3-5-2-18"/><path class="s3" d="M5220 3840l-2 27"/><path class="s3" d="M5190 3859l-34 31"/><path class="s3" d="M5218 3867v3l-35 35"/><path class="s3" d="M5219 3966l47-39 2-3 17-13 6-10"/><path class="s3" d="M5268 3926l64 32 49 23 63 27"/><path class="s3" d="M5253 3945l10 5 70 33 56 27"/><path class="s3" d="M5474 4015l31-29"/><path class="s3" d="M5493 4020l29-27"/><path class="s3" d="M5661 4094l2-21 2-7 6-7 3-3h11"/><path class="s3" d="M5831 4159l34-31"/><path class="s3" d="M5855 4166l32-29"/><path class="s3" d="M5955 4161l-6 2-12 11-1 7-3 29"/><path class="s3" d="M5933 4210l160 64"/><path class="s3" d="M6092 4212l-12 5-8 10v6l25 40"/><path class="s3" d="M6082 4244l25-25"/><path class="s3" d="M6311 4608l71-63 65-65 92-92"/><path class="s3" d="M6424 4342l-23 28-3 17 2 12 14 7 3 10-3 7-13 8-19 20-26 26-9 12h-15l-12-6-11-11h-15l-14 8-21 20-7 12 1 16 3 10 11 5 3 7v6l-65 58"/><path class="s3" d="M6229 4617l179-163 83-87"/><path class="s3" d="M6328 4363l14-13"/><path class="s3" d="M6175 4353l46-46"/><path class="s3" d="M6293 4347l11-13"/><path class="s3" d="M6106 4266l-124 116"/><path class="s3" d="M6268 4346l61 25-57 8-28-2-334 48-15 3-16 8-37 6h-20-17l-327 47-10 4-10 5-46 7-30-2-47 7-315 45-12 7-16 5-41 6h-12l-14-1-85 10-13 8-14 2-46 8-26-3-33 4-298 44-87 12-14 10-25 5-37 7-23-6-26 3-250 37-197 29-19 8-13 7-60 9-16-5-23-1-370 55-135 18-31 4"/><path class="s3" d="M3075 4795l85-10 164-22 266-37 32-4 9-8 90-13 6 4 226-32 249-34 7-7 81-11 10 3 412-59 14-6 62-9 21 1 85-10 9-5 27-5 39-7 5 4 350-50 24-2 7-7 62-9 21 2 231-32 104-14 16-9 47-7 16 2 177-26 239-30"/><path class="s3" d="M6318 4375l-104 91-113 89-88 69"/><path class="s3" d="M6231 4449l-26 2-14 2-9 9-4 13-257 39-335 52"/><path class="s4" d="M5468 4585m-95 15-95 14-168 26"/><path class="s3" d="M4995 4657l-71 11"/><path class="s4" d="M4808 4686m-109 17-86 14-227 34"/><path class="s4" d="M4272 4770m-93 14-193 29"/><path class="s3" d="M3940 4819l-160 26"/><path class="s4" d="M5411 4505l-11 11v14l12 18 105 65m7 5m32 20 229 143"/><path class="s3" d="M5461 4498l15 5 413 248 3 8"/><path class="s3" d="M5802 4770l6-13 17-10 42-5"/><path class="s3" d="M5412 4508l386 236"/><path class="s3" d="M5268 4876l-313-257-12-26v-10l7-7 4-3"/><path class="s3" d="M4999 4565l17 2 364 282"/><path class="s3" d="M5281 4865l3-18 18-5 47-9"/><path class="s3" d="M4953 4577l323 260"/><path class="s3" d="M4767 4601l-8 10 2 16 10 23 286 260"/><path class="s3" d="M4827 4592l8 4 340 290"/><path class="s3" d="M5058 4905l8-14 8-7 70-13"/><path class="s3" d="M4769 4603l298 274"/><path class="s3" d="M4476 5017l3-16 6-9 41-8 38-4"/><path class="s3" d="M4307 4667l12 4 261 322"/><path class="s3" d="M4245 4680l-6 3-3 11 8 29 216 297"/><path class="s3" d="M4247 4680l235 314"/><path class="s3" d="M3774 5125l8-15 5-3 86-16 10 2"/><path class="s3" d="M3728 4753l11 4 157 362"/><path class="s3" d="M3654 4765l-5 7-2 8 3 36 121 328"/><path class="s3" d="M3657 4766l128 341"/><path class="s3" d="M5365 4507l47 343"/><path class="s3" d="M5455 4576l34 258"/><path class="s3" d="M5476 4590l33 241"/><path class="s3" d="M5561 4697l-9 5-34 20-17 9"/><path class="s3" d="M5998 4510l-31 25-33 25-32 25-32 24-27 19"/><path class="s3" d="M5649 4755l-21 12-35 21-36 20-37 20-3 2"/><path class="s3" d="M5399 4785l-24 12-32 15"/><path class="s3" d="M5240 4859l-11 5-36 15-13 5"/><path class="s3" d="M6173 4603l77-66"/><path class="s3" d="M6320 4476l75-76"/><path class="s3" d="M6228 4564l5 4 9 5"/><path class="s3" d="M6005 4509l66 32"/><path class="s3" d="M6108 4512l-32-15"/><path class="s3" d="M6265 4586l93 47 68 33"/><path class="s3" d="M6237 4449l22 49"/><path class="s3" d="M6261 4427l22 49"/><path class="s3" d="M5845 4618l-4-46-9-9-37-1-8 1-1 13 14 5 10 9 4 19"/><path class="s3" d="M5783 4573l-44 20 3 67"/><path class="s3" d="M5780 4597l20 11 60 26 56 5 94-10 61-10 53-8 37-3 67 11 56 23 55 30"/><path class="s3" d="M5783 4649l67 26 58 7 91-7 121-15 67-3 65 18 26 16"/><path class="s3" d="M5880 4716l57 3 72-8 78-9 56-6 38 6"/><path class="s3" d="M5959 4628l106-80 81-66"/><path class="s3" d="M5930 4685l-32 22"/><path class="s3" d="M5752 4579l-48-28"/><path class="s3" d="M5738 4627l-103-61"/><path class="s4" d="M5488 4648l15 10m13 7 198 126"/><path class="s4" d="M5488 4617l24 14m18 11 222 142"/><path class="s3" d="M5507 4680l2-19 12-11"/><path class="s3" d="M5521 4650l2-10 4-11 8-2"/><path class="s3" d="M5531 4604v8l7 7"/><path class="s3" d="M5565 4629l-13 1-7-4"/><path class="s3" d="M5188 4673l40-13 15 4 14 28 23 8 96-49"/><path class="s3" d="M5272 4653l80-44"/><path class="s3" d="M5016 4687l7 62"/><path class="s3" d="M5030 4737h22l12 17 9 25 25-2 24-11"/><path class="s3" d="M4771 4896l42-28 41-2 29 4 64 60"/><path class="s3" d="M4906 4901h-41l-35 14"/><path class="s3" d="M4813 4860v-35l24-22 30-4 13 5 10 30 24 5 33-7"/><path class="s3" d="M4807 4745l45-11"/><path class="s3" d="M4723 46e2l-83 382"/><path class="s3" d="M4813 4692l-61 271"/><path class="s3" d="M4791 4672l-65 298"/><path class="s3" d="M4480 4847l43 4 71-14 44-17 22-22 10-21 17-11"/><path class="s3" d="M4660 4851l-29 12-12 27 9 14-9 14-43 7"/><path class="s3" d="M4447 4807l139-20 78-14"/><path class="s3" d="M4205 4673l-45 235"/><path class="s3" d="M4280 4781l-49 229"/><path class="s3" d="M4298 4804l-42 204"/><path class="s3" d="M4283 4902l9 8 1 24 3 15 19 10h28l57-8"/><path class="s3" d="M4299 4929l79-8"/><path class="s3" d="M4517 4906l94-17"/><path class="s3" d="M4623 4983l-61-78"/><path class="s3" d="M4478 4789l-26-29-15-16"/><path class="s3" d="M4196 5022l227-41"/><path class="s3" d="M5954 4385l-15-31 3-10 14-7 12-2 44 18"/><path class="s3" d="M5935 4386l-129-60 4-30 9-11 12-6 21 4 116 52"/><path class="s3" d="M5762 4187l-75 65-2 16 3 13 15 8 128-10"/><path class="s3" d="M5838 4276v-7l-9-7-1-10 1-6 14-3 14-3 35-32 4-23"/><path class="s3" d="M5939 4215l-4 10-58 54-17 5"/><path class="s3" d="M6032 4325l-94-41-35-6-16-5"/><path class="s3" d="M5933 4234l13 7 14 21 95 37"/><path class="s4" d="M5737 4190l41-7 21 7 40-2 70-8v-7l9-2-13-9-53 8-40-18-66 7-6 4-299 35-21-2-50 6-11 7-225 25-78 10-15-5-52 5-7 8-297 37-13-8-69 8-7 6-42 5-17-4-88 10-9 9-184 20-167 20-18-4-61 4-17 12-366 44-16-1-10-3-77 6-11 6-9 5-194 24-393 41-1 33 7 6 28-4 37-5 35-2 23-11 433-49 31-2 27 1 68-8 20-11 372-44 29 2 59-3 27-10 339-38 18 3 81-10 15-4 33-3 15 2 73-10 11-7 291-35 19 1 78-9 13-7 267-31 16 2 64-6 17-7z"/><path class="s3" d="M5650 4430l-1-16 9-16 31-23h12l8 15 14 9 14-2 8-6"/><path class="s3" d="M5713 4390l85-69"/><path class="s3" d="M5848 4277l82-71"/><path class="s3" d="M5745 4391l24 3 40-38 5-2 23 21 44 18"/><path class="s3" d="M56e2 4350l61-45 24-18"/><path class="s3" d="M5605 4378l58-42 52-40"/><path class="s3" d="M5549 4386l-26 18-16 10"/><path class="s3" d="M5509 4441l20-13 37-25"/><path class="s3" d="M5504 4289l4 27 17 31 28 30 39 39 23 19"/><path class="s3" d="M5572 4280l3 36 15 41 22 43 19 35"/><path class="s3" d="M5566 4287l-53 6"/><path class="s3" d="M5677 4273l-97 12"/><path class="s3" d="M5566 4287l-53 6"/><path class="s3" d="M5374 4237l18 116"/><path class="s3" d="M5505 4442l-31-220"/><path class="s3" d="M5483 4426l-28-199"/><path class="s3" d="M5380 4310l-68 8"/><path class="s3" d="M5243 4327l-128 17"/><path class="s3" d="M4995 4282l39 237"/><path class="s3" d="M5103 4265l17 130"/><path class="s3" d="M5131 4456l7 46"/><path class="s3" d="M5084 4273l16 116"/><path class="s3" d="M5117 4505l-6-48"/><path class="s3" d="M5004 4358l-161 21-111 14"/><path class="s3" d="M4596 4331l20 98 27 147"/><path class="s3" d="M4689 4323l42 234"/><path class="s3" d="M4711 4315l21 130 21 108"/><path class="s3" d="M4433 4347l-56 265"/><path class="s3" d="M4531 4340l-51 256"/><path class="s3" d="M4556 4337l-55 258"/><path class="s3" d="M4609 4408l-67 8"/><path class="s3" d="M4410 4433l-311 38"/><path class="s4" d="M3958 4554m10-53 21-106"/><path class="s3" d="M4094 4389l-48 268"/><path class="s3" d="M4114 4381l-46 273"/><path class="s3" d="M3969 4489l-124 15"/><path class="s3" d="M3797 4511l-144 18"/><path class="s3" d="M3633 4532l-20 2"/><path class="s3" d="M3497 4456l-54 287"/><path class="s4" d="M3606 4449l-25 149m-6 32-16 97"/><path class="s4" d="M3627 4439l-29 178m-6 33-13 74"/><path class="s3" d="M3549 4531l5 35 13 30 34 50 37 44 16 21"/><path class="s3" d="M3642 4520v54l5 44 14 62 7 26"/><path class="s3" d="M3473 4552l-303 38"/><path class="s3" d="M3040 4509l117 56 7 8 2 27 1 6 2 8-11 7-27 3-91 12"/><path class="s3" d="M3039 4606l123-14"/><path class="s3" d="M3051 4721l67 25"/><path class="s3" d="M3079 4773l32-9 15-27 18-13 28 3 38 17 3 13-4 17"/><path class="s3" d="M3131 4627l61 25 2 7 2 24 13 18 16 13 32 16 79 27"/><path class="s3" d="M3196 4688l-18 38"/><path class="s3" d="M3216 4711l-12 28"/><path class="s3" d="M3203 4667l45 15"/><path class="s3" d="M3295 4697l137 44"/><path class="s3" d="M3393 4579l71 14"/><path class="s3" d="M3069 4466l-67-28-20-8"/><path class="s3" d="M3169 4617l67 21"/><path class="s3" d="M3382 4685l63 19"/><path class="s3" d="M3247 4585l8 51 2 59 141-15-1-63-16-53"/><path class="s3" d="M3255 4636l137-16"/><ellipse class="s4" cx="3287" cy="4604" rx="18" ry="9" transform="rotate(-6.340191745909909 3287.0,4604.0)"/><path class="s3" d="M3397 4607l61 13"/><path class="s3" d="M3097 4953l35 129 12 13 16 4 15-12 79-131-9-140"/><path class="s3" d="M3111 5206l78 23"/><path class="s3" d="M3109 5156l212 62"/><path class="s3" d="M3136 5159l8-17 2-17 12-22"/><path class="s3" d="M3228 5014l15 6 26 10 8 16-2 25-26 49h-23l-26-12-20-4-19 4"/><path class="s3" d="M3262 5113l124 35 128 32"/><path class="s3" d="M3280 4937l118 28"/><path class="s3" d="M3289 5048l120 29 102 22"/><path class="s3" d="M3879 5056l156 22"/><path class="s3" d="M3412 4913l5 128 152-21"/><path class="s4" d="M3428 4942l1-7 5-6 7-4 8-1 7 2 6 5 2 7-1 7-5 6-7 4-8 1-7-2-6-5z"/><path class="s4" d="M3430 4990l2-8 4-6 7-4 8-1 7 2 5 6 2 7-1 8-5 6-7 4-8 1-7-2-5-6z"/><path class="s4" d="M3481 4934l1-7 5-7 7-4 8-1 8 2 5 5 3 7-1 8-5 6-7 4-8 1-8-2-6-5z"/><path class="s4" d="M3483 4983l1-7 5-7 7-4 8-1 8 2 5 5 3 6-1 8-5 6-7 4-8 1-8-2-6-4z"/><path class="s4" d="M3535 4925l2-7 4-7 7-4 8-1 7 2 5 5 2 7-1 8-5 6-7 4-8 1-7-2-5-5z"/><path class="s4" d="M3537 4973l2-8 4-6 7-4 8-1 7 2 5 6 2 7-1 8-5 6-7 4-8 1-7-2-5-6z"/><path class="s3" d="M36e2 4872l-350 52"/><path class="s3" d="M3623 4763l-72 379"/><path class="s3" d="M3696 4944l-43 218"/><path class="s3" d="M3713 4998l-33 161"/><path class="s3" d="M3689 5138l36 8"/><path class="s3" d="M3566 5058l-6-24-13-6"/><path class="s3" d="M3524 5187l-9-51V5030"/><path class="s3" d="M3559 5178l-35-135"/><path class="s3" d="M3932 4774l76-11 8 10-2 12-13 5-6 12-10 6"/><path class="s3" d="M3932 4774l-9 8-3 9 4 8 9 4 11 5 7 9"/><path class="s3" d="M3941 4821l13 28 55-7-16-33"/><path class="s3" d="M4164 4922l10-2 9-11 10-2h9l1 16-13 85"/><path class="s3" d="M4181 4961l-30-55h-18"/><path class="s3" d="M4040 4930l8-11 9-4 14 4 10-8 11-2 16 6 8-9 15 1"/><path class="s3" d="M4023 4948l2-6-2-8"/><path class="s3" d="M4010 4921l-5 15 1 10 2 6h5"/><path class="s3" d="M4013 4952l4 3 3 8 8 3 10-3 5-4 6-10"/><path class="s3" d="M4010 4921h7l7 6 11-2"/><path class="s3" d="M4072 4947l1-9"/><path class="s3" d="M3970 4907l93 182"/><path class="s3" d="M3995 4845l43 81"/><path class="s3" d="M4054 4956l68 123"/><path class="s3" d="M4158 5071l-75-134"/><path class="s3" d="M4067 4907l-57-97"/><path class="s3" d="M4193 5065l-76-133"/><path class="s3" d="M4103 4906l-54-1e2"/><path class="s3" d="M4220 5063l-153-260"/><path class="s3" d="M3804 4887l30 5 23 15 9 30 4 16 53 7 68 2"/><path class="s3" d="M3979 4962l-2 21 1 11 43 82"/><path class="s3" d="M3928 4871l40 2"/><path class="s3" d="M3783 4469l75-12 9 11-2 11-14 6-5 12-11 6"/><path class="s3" d="M3783 4469l-10 8-3 9 4 8 10 4 10 5 8 9"/><path class="s3" d="M3794 4516l12 22 48-2v-10l-10-22"/><path class="s3" d="M3827 4541l6 13v11l-4 13"/><path class="s3" d="M5243 4278l76-11 7 9-1 13-13 5-6 11-10 8"/><path class="s3" d="M5243 4278l-9 8-3 9 4 8 8 3 12 7 7 7"/><path class="s3" d="M5266 4303l2 24"/><path class="s3" d="M5293 4303l1 19"/><path class="s3" d="M5244 4334l25 15 44-5-2-10-13-13"/><path class="s3" d="M5288 4351l5 11 1 13-4 12"/><path class="s3" d="M5109 4463h-9l-6-3-8-41-1-21 9-6 17 1 33 22 20-7-9-9 6-6 14-6 12 8"/><path class="s3" d="M5175 4447l-24 7-8-38"/><path class="s3" d="M5144 4452l-20-10-5-3-7 17"/><path class="s3" d="M5186 44e2l8 14-3 11"/><path class="s3" d="M5183 4395l35-15 39-8 26-3"/><path class="s3" d="M5299 4367l30 3 32 13 13 5"/><path class="s3" d="M5364 4370l2-19 8-5 41 23-3 8 3 16"/><path class="s3" d="M5358 4393v10l48 29 5-15"/><path class="s3" d="M5410 4401l89 48"/><path class="s3" d="M5201 4491l-27-41"/><path class="s3" d="M5183 4444l66 42"/><path class="s3" d="M5197 4429l88 50"/><path class="s3" d="M5238 4381l133 81"/><path class="s3" d="M5304 4386l115 71"/><path class="s3" d="M5204 4393l131 82"/><path class="s3" d="M5223 4370l-46-28"/><path class="s3" d="M5186 4377l-47-30"/><path class="s3" d="M5263 4358l-37-24"/><path class="s3" d="M4881 4470l2-13 7-11 21-10 14-2 8 3 6 18 8 9 10 4 12-3 50-21"/><path class="s3" d="M4953 4452l58-27"/><path class="s3" d="M4875 4394l50-19"/><path class="s3" d="M4779 4396l167 128"/><path class="s3" d="M4950 4817l18 110"/><path class="s3" d="M4859 4382l14 84"/><path class="s3" d="M4741 4470l20-13 13-20"/><path class="s3" d="M4746 4498l28-4 11 5 2 18 8 8 17 2 43-14"/><path class="s3" d="M4799 4507l30-9"/><path class="s3" d="M4548 4505l19 6 19 3 37-7"/><path class="s3" d="M4281 4459l27 39 69 90"/><path class="s3" d="M4524 45e2l72 77-39-13-37 12"/><path class="s3" d="M4504 4745l30 14 41-2 38-25"/><path class="s3" d="M4095 4554l74 17 42 12"/><path class="s3" d="M4078 4622l53 9 31 9"/><path class="s3" d="M4165 4473l-20 87"/><path class="s3" d="M4092 4535l51-2"/><path class="s3" d="M4111 4484l20 40"/><path class="s3" d="M4266 4458l-11 45"/><path class="s4" d="M4241 4519l13 17m7 14 10 17 20 23 24 30"/><path class="s3" d="M4886 4529l-96-76"/><path class="s3" d="M4776 4399l19 1e2"/><path class="s3" d="M42e2 4476l41 43"/><path class="s3" d="M4246 4561l10-20 24-4"/><path class="s3" d="M3608 4585l5 23-3 19-7 11"/><path class="s3" d="M3622 4625l15 11 20-1 32-18 55-31 28-17 52-11"/><path class="s3" d="M3845 4556l24 4 29 16 20 35 17 55"/><path class="s3" d="M3972 4506l38 58-5 31"/><path class="s3" d="M4010 4564l-40 5"/><path class="s3" d="M3897 4545l11-8 13 2 8-8h18"/><path class="s3" d="M3913 4545l21 51 29 70"/><path class="s3" d="M3905 4533l-15-25"/><path class="s3" d="M3934 4540l84 120"/><path class="s3" d="M3912 4503l15 23"/><path class="s3" d="M3972 4506l-23-1"/><path class="s3" d="M3881 4609l33 59"/><path class="s3" d="M3785 4518l12 35"/><path class="s3" d="M3804 4570l44 113"/><path class="s3" d="M3616 4561l13 4"/><path class="s3" d="M3653 4570l44 2 23-3 54-24"/><path class="s3" d="M3737 4601l10 7-1 18v19l5 10 29 4 49 2"/><path class="s3" d="M3260 4227l-59-19-57-22-57-23-73-31-80-37-15-7"/><path class="s3" d="M3008 4112l144 58 145 52"/><path class="s3" d="M3136 4235l-1-7 11-24 7-5 11-1"/><path class="s3" d="M2916 4176l25-10 23-1 24 9 12 18-16 46-4 10"/><path class="s3" d="M2978 4233l-21-22-32-2-13 4"/><path class="s3" d="M2995 4220l60 25"/><path class="s3" d="M2972 4093l14-1"/><path class="s3" d="M3067 4055l1 14 1 13"/><path class="s3" d="M3104 4050l2 17 1 12"/><path class="s3" d="M3235 4039l1 18 2 16"/><path class="s3" d="M3272 4036l2 18 2 14"/><path class="s4" d="M2949 4078l114-8m46-4 86-8 38-3m43-3 121-9m29-3m19-1 137-12m44-4 52-4 87-8m40-3 87-7 16-2m41-3 111-9 43-2m40-4 81-6m40-4 79-5 64-6m36-4 85-8 17-2m41-2 101-9m44-4 25-2 84-8m44-4 75-8m36-4 46-3"/><path class="s3" d="M2978 4111l234-19 635-50 495-43 346-31 293-28 125-15"/><path class="s3" d="M5035 3891l18 26 23-3-16-25 39-2 57 3"/><path class="s3" d="M2985 4092l124-9"/><path class="s3" d="M3109 4083l126-11"/><path class="s3" d="M3235 4072l132-10 154-13 64-5"/><path class="s3" d="M3584 4011l6 20 2 11"/><path class="s3" d="M3617 4009l5 19 3 12"/><path class="s3" d="M3617 4009l-33 2"/><path class="s3" d="M3235 4039l37-3"/><path class="s3" d="M3067 4055l37-5"/><path class="s3" d="M2971 4093l-50-25"/><path class="s3" d="M2971 4093v9l5 11"/><path class="s3" d="M34e2 4022l1 19 2 15"/><path class="s3" d="M3438 4020v18l3 13"/><path class="s3" d="M34e2 4022l38-2"/><path class="s3" d="M3765 3996l2 14 5 17"/><path class="s3" d="M3797 3994l3 13 3 16"/><path class="s3" d="M3797 3994l-32 2"/><path class="s3" d="M3585 4044l130-11 120-9 198-17"/><path class="s3" d="M4033 4007l182-15 164-13 213-18 291-28 170-17"/><path class="s3" d="M3908 3985l9 31"/><path class="s3" d="M3942 3983l7 31"/><path class="s3" d="M3908 3985l34-2"/><path class="s3" d="M4103 3967l4 15 4 17"/><path class="s3" d="M4135 3966l4 13 3 16"/><path class="s3" d="M4135 3966l-32 1"/><path class="s3" d="M4224 3959l4 14 4 17"/><path class="s3" d="M4256 3958l4 12 3 16"/><path class="s3" d="M4256 3958l-32 1"/><path class="s3" d="M4435 3938l10 34"/><path class="s3" d="M4435 3938l-37 4"/><path class="s3" d="M4542 3928l13 33"/><path class="s3" d="M4572 3925l14 34"/><path class="s3" d="M4572 3925l-30 3"/><path class="s3" d="M4685 3919l14 30"/><path class="s3" d="M4685 3919l34-3 12 30"/><path class="s3" d="M4954 3898l4 4 13 23"/><path class="s3" d="M4954 3898l34-1 12 24"/><path class="s3" d="M4398 3942l14 32"/><path class="s3" d="M4838 3905l14 31"/><path class="s3" d="M4838 3905l33-2 14 30"/><path class="s3" d="M5035 3891l25-2"/><path class="s3" d="M5076 3914l217 114"/><path class="s3" d="M5068 3890l256 133"/><path class="s3" d="M5125 3910l73-5 16 8-12 3-2 7 16 43"/><path class="s3" d="M4945 3945l-2 59v3l11 7 119-11 3-7 1-66"/><path class="s3" d="M4985 3944l-2 52 1 6 8 4"/><path class="s3" d="M5056 3936l-1 55-3 5-5 4"/><path class="s3" d="M5055 3991l3 7 4 1"/><path class="s3" d="M4997 3994l43-4 8 4"/><path class="s3" d="M5114 3939l5 13-5 5-33 22"/><path class="s3" d="M5136 3950l23 48"/><path class="s3" d="M5078 4006l14 37"/><path class="s4" d="M5111 4042l39-28 2-6m-21-38"/><path class="s3" d="M5216 4033l-47-26"/><path class="s3" d="M5136 4026l4 7 14 7"/><path class="s3" d="M5131 3970l-53 36"/><path class="s3" d="M5040 4009l5 13 5 9 7 10 11 3"/><path class="s3" d="M5155 4013l7 3 4-4-7-14"/><path class="s3" d="M5149 4017l40 21"/><path class="s3" d="M4959 4060l49-31 27-19"/><path class="s4" d="M4814 3956l20 76m7 24 5 17"/><path class="s3" d="M4909 3948l28 115"/><path class="s3" d="M4727 4024l38 18 12 7"/><path class="s3" d="M4788 4058l13 17"/><path class="s3" d="M4816 4056l8 12"/><path class="s3" d="M4810 4047l-15-16-30-13"/><path class="s3" d="M4667 4032l120 43"/><path class="s3" d="M4924 4004l17-2"/><path class="s3" d="M4584 4034l241-22"/><path class="s3" d="M4508 3984l-26 124"/><path class="s3" d="M4570 4099l27-123"/><path class="s3" d="M42e2 4012l31 113"/><path class="s3" d="M4290 4004l32 116"/><path class="s3" d="M4067 4023l-33 128"/><path class="s3" d="M4163 4014l-31 128"/><path class="s4" d="M4584 4034m-91 8-187 16m-94 9-62 4m-99 9-69 7-176 16m-102 9-159 16-86 6m-112 10-211 16"/><path class="s3" d="M3717 4050l-13 84"/><path class="s3" d="M3789 4175l24-131"/><path class="s3" d="M3356 4080l-15 140"/><path class="s3" d="M3461 4072l-13 134"/><path class="s3" d="M3485 4160l56 6 4-18 9-6 7-3h19l15 4 6 8-1 20 37 5"/><path class="s3" d="M3619 4123l26 66"/><path class="s4" d="M3680 4115l10 27 1 2m6 8 9 14 18 15 1 2"/><path class="s3" d="M3685 4157l7-10 17-1"/><path class="s3" d="M3685 4159l-17-5-11 12"/><path class="s3" d="M3656 4117l12 33"/><path class="s3" d="M3670 4159l12 24 1 4"/><path class="s3" d="M3739 4179l5-31-11-19-24-3"/><path class="s3" d="M3818 4169v-5l1-4 1-3 2-4 3-3 3-1 4-1 4-1h21 3l4 1 3 2 2 2 2 3 1 4v4"/><path class="s3" d="M3924 4143l71-4 9 2 6 9"/><path class="s3" d="M4019 4086v64"/><path class="s3" d="M4195 4132l-1-1-9-4-11-4-11-1-12 1-12 4h-1"/><path class="s3" d="M4157 4098l1 1 48-8h-1-1"/><path class="s3" d="M4314 4085l52 28"/><path class="s3" d="M4344 4064l71 38"/><path class="s3" d="M3809 4119l127-3 74-5"/><path class="s4" d="M5281 4065v16m1 12v8m-2 14v16h9l10-6 1-54-12 2-7-8"/><path class="s3" d="M5306 4085h66l99-3 1e2-2 27-10 30-28"/><path class="s3" d="M5305 4107h122l147-5 31-9 20-11 27-31"/><path class="s4" d="M5282 4107m-18 1m-25 6m-20 16m-40 30m-27 17m-22 7m-12 2m-16 4m-14 1-15 4-37 3"/><path class="s3" d="M5280 4088l-64 4-13 2-14 2-19 2-11 1-36 8-24 18-31 33-32 33-26 16-24-1-27-10-23-20"/><path class="s3" d="M4922 4197l1-34 3-24 13-5 40-2 10 2 3 15"/><path class="s3" d="M5012 4192l-37-8-12-14"/><path class="s3" d="M4846 4206l48-26 20-7"/><path class="s3" d="M4649 4238l8-3 34-10 34-12 8-3"/><path class="s3" d="M4529 4271l21-6h4 4l4 1 2 3 2 3 2 2 1 3 1 11"/><path class="s3" d="M4713 4262l19-7 10-3"/><path class="s3" d="M4562 4256l32-8"/><path class="s3" d="M4154 4242l-2 30 7 21 17 17 10 22"/><path class="s3" d="M4312 4232l48 52 19 33"/><path class="s3" d="M4378 4316l-23-7h-26l-15 4-9 10"/><path class="s3" d="M5497 4026l-46-18-55 5-6 5-164 17-96 11-17-1-20-2-36 4-9 5-182 18-145 9-8 7-80 8-116 10-75 7-23-2-124 13-60 7-15 6-121 9-146 17-23 2-16-3-56 6-12 6-202 19-129 12-14-2-54 4-23 8-140 12-148 14-104 10-15-2-81 8-27 3"/><path class="s3" d="M5064 4074l350-35 128-13 12 18-1 18 5 13"/><path class="s3" d="M5554 4035l7-13 11-10"/><path class="s3" d="M5566 4061l19 7"/><path class="s3" d="M5746 4154l-136-58"/><path class="s4" d="M5588 4123l16-14 23 10 2 5-14 12-25-9z"/><path class="s3" d="M5524 4113l63 29 60 28"/><path class="s3" d="M5508 4187l-56-30 3-27 15-12 14 3 117 54"/><path class="s3" d="M5183 4225l118-75 41-30"/><path class="s3" d="M5340 4110v7h6l7 10 47-1 66-8"/><path class="s3" d="M5396 4192l49-34"/><path class="s3" d="M5541 4071l9-9"/><path class="s3" d="M5442 4195l25-22"/><path class="s3" d="M5230 4133l49 25"/><path class="s3" d="M5196 4159l4 32-22 7"/><path class="s3" d="M5149 4115l6 50"/><path class="s3" d="M5161 4189l4 38"/><path class="s3" d="M5155 4206l-61 21"/><path class="s3" d="M5153 4067l2 12-3 7-1 9"/><path class="s3" d="M5059 4075l11 70"/><path class="s3" d="M5082 4129l4-34-2-20"/><path class="s3" d="M5099 4075l2 14 13 5 6-21"/><path class="s3" d="M5151 4095l-12-8-4-16"/><path class="s3" d="M5104 4134l38-4"/><path class="s3" d="M5162 4130l51-5"/><path class="s3" d="M5241 4219l68-45 60-43"/><path class="s4" d="M5063 4139l-67 8m-78 8-92 11"/><path class="s3" d="M4930 4171l36-2 23-3"/><path class="s3" d="M4992 4154l34 25"/><path class="s3" d="M4934 4199l58 43"/><path class="s3" d="M5012 4216l23 18"/><path class="s3" d="M5052 4208l38 26"/><path class="s3" d="M4720 4105l30 172"/><path class="s3" d="M4816 4095l17 112 8 50 2 9"/><path class="s4" d="M4727 4176l-181 20-61 7m-75 8m-32 4-62 7m-112 11-57 6-208 21m-18 2m-101 11-174 18-120 13m-130 13-116 12-142 15"/><path class="s3" d="M3024 4281l87 42 16 2 8 7 4 12v17l-9 7-162 18"/><path class="s3" d="M2953 4364l173-17"/><path class="s3" d="M2903 4359l24-4 17 1 8 12v13l16 8 11 8 5 13-4 19-4 10v13l3 11 16 11"/><path class="s3" d="M2968 4441l-29-18-37 2"/><path class="s3" d="M3049 4385l7 18 30 14 106 37"/><path class="s3" d="M3138 4373l181 65"/><path class="s3" d="M3383 4436l34-205"/><path class="s3" d="M3530 4220l-30 206"/><path class="s3" d="M3331 4325l-7 11 3 13 64 13"/><path class="s3" d="M3512 4383l56 4 10 2 17-4 6-9-5-12-78-9"/><path class="s3" d="M3396 4336l-29-5"/><path class="s3" d="M3597 4362l5-10 15-11 25 4 14 4 3 13-1 27 22 5"/><path class="s3" d="M3522 4314l62 8 23-8 4-10"/><path class="s3" d="M3673 4295l-10 53"/><path class="s3" d="M3704 4324l-13 12-2 13 2 8 17 39"/><path class="s3" d="M3690 4286l48 111"/><path class="s3" d="M3780 4276l17 40 39 68"/><path class="s3" d="M3829 4309l16 31-20 2"/><path class="s3" d="M3845 4340l-6 29"/><path class="s3" d="M3816 4327l26-128"/><path class="s3" d="M3912 4374l35-194"/><path class="s3" d="M3925 4313l13-12 17-4 38-2"/><path class="s3" d="M3914 4374v-3l1-4 2-5 2-3 4-4 4-1 3-2h4l24-1h3l5 1 3 2 2 2 2 4 2 4v4"/><path class="s3" d="M4009 4254l-29 111"/><path class="s3" d="M4103 4246l-29 105"/><path class="s3" d="M4073 4353l2-4 4-4 3-2 4-2 5-1 22-2h3l4 1 4 2 3 3 2 3 2 4"/><path class="s3" d="M4098 4293l19 1 12 20 30 6"/><path class="s3" d="M4189 4340l37-188"/><path class="s3" d="M4328 4146l-35 183"/><path class="s3" d="M4366 4139l37 176"/><path class="s3" d="M4466 4130l36 168"/><path class="s3" d="M4508 4205l163 72"/><path class="s3" d="M4562 4198l175 80"/><path class="s3" d="M3715 4138l4 8-3 8"/><path class="s3" d="M3976 4852l7 21-5 23"/><path class="s3" d="M4005 4595l-19 3"/><path class="s3" d="M4277 4522l2-15"/><path class="s3" d="M4287 4546l18 4"/><path class="s3" d="M4775 4064l2-8 8-5 11-1"/><path class="s3" d="M4808 4058l7-10h14"/><path class="s3" d="M4847 4032l5 9 3 10"/><path class="s3" d="M4835 4047l8-2"/><ellipse class="s4" cx="3353" cy="4597" rx="18" ry="9" transform="rotate(-6.340191745909909 3353.0,4597.0)"/><path class="s3" d="M5291 3814l907 330 1163 413 1e2 37"/><path class="s3" d="M5277 3824h-27l-15 3-10 1-9 2v7l640 236 662 241 842 321 101 37"/><path class="s3" d="M5190 3859l331 131 376 148 303 114 292 116 347 139 519 202 103 39"/><path class="s4" d="M6081 4248l139 54 82 32 44 17 49 19m119 46 93 36 308 123m47 19m62 25m88 34 244 97 105 42"/><path class="s3" d="M4059 5825l104-26 40 1 66-14 229-58 447-109 21-16 85-18h22l18-3 230-54 296-73 75-18 20-13 66-17 28 1 138-33 18-14 63-13h38l3e2-76 203-48 12-9 54-14 33-2 263-63 195-47 8-10 57-14 23 1 150-37 1e2-25"/><path class="s3" d="M4517 5825l466-114 41 3 22 2 83-17 17-24 19-9 589-150 35 4 30-4 63-16 15-21 121-28 38 3 12-2 67-14 13-14 10-8 453-118 34-6h25l28 3 63-15 2-10 4-13 289-69 157-42 22 1 24 2 22-4 26-7 17-17 37-10 1e2-24"/><path class="s4" d="M5119 5814l583-157m161-43 142-39m150-40 126-35 334-88m155-41 239-64 352-92 1e2-24"/><path class="s3" d="M2868 4395h-1l-4-2-10-4v-2h-1l-36 5h-2l-1 1-12 15-1 11"/><g><path class="s5" d="M4416 6744v283c0 9-2 17-7 25-4 7-11 14-18 18-8 5-16 7-25 7H4083c-9 0-17-3-25-7-7-4-14-11-18-18-5-8-7-16-7-25V6744c0-9 3-18 7-25 4-7 11-14 18-18 8-5 16-7 25-7h283c9 0 18 2 25 7 7 4 14 11 18 18 5 8 7 16 7 25" fill-rule="evenodd"/></g><path class="s6" d="M4083 6744h283v283H4083z"/><text x="4150" y="6961"><tspan class="f3 s7" font-size="206.944">A</tspan></text><g><path class="s5" d="M7074 5771c0 6 1 11 3 17 2 5 4 10 8 14 3 5 8 9 13 12l180 105v48c-1 12 4 23 11 32 8 9 18 16 30 18 11 3 23 1 34-6l166-109c8-4 14-11 17-18 4-7 6-16 6-24 0-8-2-17-6-24l-126-232c-4-9-10-15-18-19-8-5-17-7-26-7-9-1-18 2-26 7l-40 23-113-65c-5-3-10-6-16-7-6-1-12-1-18 0-5 1-11 3-16 6l-38 22c-5 3-9 7-13 11-4 5-7 10-9 15-2 6-3 12-3 18v163" fill-rule="evenodd"/></g><path class="s8" d="M7124 5608l204 119v-77l126 232-126 85v-77l-204-119V5608l38-22 161 94m5-30 38-22 126 232-38 22m38-22m-164 107"/><text transform="matrix(0.929 0.529 -0 1 511.286 -3783.514)" x="7158" y="5746"><tspan class="f2 s7" font-size="97.222">FWD</tspan></text><path class="s9" d="M6293 5554l4 153 58-13z"/><path class="s3" d="M6381 5945l-88-391"/><text x="3352" y="6550"><tspan class="f3 s7" font-size="123.611">AFT CARGO COMPARTMENT</tspan></text><text x="3901" y="6675"><tspan class="f3 s7" font-size="123.611">(AFT SIDE)</tspan></text><text x="5776" y="6093"><tspan class="f2 s7" font-size="123.611">INSPECTION AREA</tspan></text><text x="5776" y="6217"><tspan class="f2 s7" font-size="113.875">(ZONES 153, 154)</tspan></text><path class="s10" d="M7463 4718 5222 3843l-37-15-41 34-2250 186-48 645 33-12 110-157 43 9 7 174 34 44-2 49 13 24 28 547-11 40 17 415H5227l2240-579V4723"/></svg>